<svg xmlns="http://www.w3.org/2000/svg" xmlns:xlink="http://www.w3.org/1999/xlink" contentStyleType="text/css" data-diagram-type="SEQUENCE" height="747px" preserveAspectRatio="none" style="width:565px;height:747px;background:#FFFFFF;" version="1.1" viewBox="0 0 565 747" width="565px" zoomAndPan="magnify"><title>US010 - I want to assign a locomotive to a route</title><defs/><g><text fill="#000000" font-family="sans-serif" font-size="14" font-weight="bold" lengthAdjust="spacing" textLength="381.2197" x="93.394" y="27.9951">US010 - I want to assign a locomotive to a route</text><rect fill="none" height="193.9297" style="stroke:#000000;stroke-width:1.5;" width="549.0078" x="10" y="397.7891"/><rect fill="none" height="133.6641" style="stroke:#000000;stroke-width:1.5;" width="529.0078" x="20" y="451.0547"/><g><title>Player</title><rect fill="#000000" fill-opacity="0.00000" height="548.3906" width="8" x="50.7827" y="118.5938"/><line style="stroke:#181818;stroke-width:0.5;stroke-dasharray:5.0,5.0;" x1="54" x2="54" y1="118.5938" y2="666.9844"/></g><g><title>System</title><rect fill="#000000" fill-opacity="0.00000" height="548.3906" width="8" x="478.6787" y="118.5938"/><line style="stroke:#181818;stroke-width:0.5;stroke-dasharray:5.0,5.0;" x1="482.5757" x2="482.5757" y1="118.5938" y2="666.9844"/></g><g class="participant participant-head" data-participant="Player"><text fill="#000000" font-family="sans-serif" font-size="14" lengthAdjust="spacing" textLength="43.5654" x="30" y="115.292">Player</text><ellipse cx="54.7827" cy="50.7969" fill="#E2E2F0" rx="8" ry="8" style="stroke:#181818;stroke-width:0.5;"/><path d="M54.7827,58.7969 L54.7827,85.7969 M41.7827,66.7969 L67.7827,66.7969 M54.7827,85.7969 L41.7827,100.7969 M54.7827,85.7969 L67.7827,100.7969" fill="none" style="stroke:#181818;stroke-width:0.5;"/></g><g class="participant participant-tail" data-participant="Player"><text fill="#000000" font-family="sans-serif" font-size="14" lengthAdjust="spacing" textLength="43.5654" x="30" y="678.9795">Player</text><ellipse cx="54.7827" cy="690.7813" fill="#E2E2F0" rx="8" ry="8" style="stroke:#181818;stroke-width:0.5;"/><path d="M54.7827,698.7813 L54.7827,725.7813 M41.7827,706.7813 L67.7827,706.7813 M54.7827,725.7813 L41.7827,740.7813 M54.7827,725.7813 L67.7827,740.7813" fill="none" style="stroke:#181818;stroke-width:0.5;"/></g><g class="participant participant-head" data-participant="System"><rect fill="#E2E2F0" height="30.2969" rx="2.5" ry="2.5" style="stroke:#181818;stroke-width:0.5;" width="66.2061" x="449.5757" y="87.2969"/><text fill="#000000" font-family="sans-serif" font-size="14" lengthAdjust="spacing" textLength="52.2061" x="456.5757" y="107.292">System</text></g><g class="participant participant-tail" data-participant="System"><rect fill="#E2E2F0" height="30.2969" rx="2.5" ry="2.5" style="stroke:#181818;stroke-width:0.5;" width="66.2061" x="449.5757" y="665.9844"/><text fill="#000000" font-family="sans-serif" font-size="14" lengthAdjust="spacing" textLength="52.2061" x="456.5757" y="685.9795">System</text></g><g class="message" data-participant-1="Player" data-participant-2="System"><polygon fill="#181818" points="470.6787,145.7266,480.6787,149.7266,470.6787,153.7266,474.6787,149.7266" style="stroke:#181818;stroke-width:1;"/><line style="stroke:#181818;stroke-width:1;" x1="54.7827" x2="476.6787" y1="149.7266" y2="149.7266"/><text fill="#000000" font-family="sans-serif" font-size="13" font-weight="bold" lengthAdjust="spacing" textLength="9.0454" x="61.7827" y="144.6606">1</text><text fill="#000000" font-family="sans-serif" font-size="13" lengthAdjust="spacing" textLength="242.6011" x="74.8281" y="144.6606">Select "Assign locomotive to a route"</text></g><g class="message" data-participant-1="System" data-participant-2="Player"><polygon fill="#181818" points="65.7827,174.8594,55.7827,178.8594,65.7827,182.8594,61.7827,178.8594" style="stroke:#181818;stroke-width:1;"/><line style="stroke:#181818;stroke-width:1;stroke-dasharray:2.0,2.0;" x1="59.7827" x2="481.6787" y1="178.8594" y2="178.8594"/><text fill="#000000" font-family="sans-serif" font-size="13" font-weight="bold" lengthAdjust="spacing" textLength="9.0454" x="71.7827" y="173.7935">2</text><text fill="#000000" font-family="sans-serif" font-size="13" lengthAdjust="spacing" textLength="258.6733" x="84.8281" y="173.7935">Display the list of available locomotives</text></g><g class="message" data-participant-1="Player" data-participant-2="System"><polygon fill="#181818" points="470.6787,203.9922,480.6787,207.9922,470.6787,211.9922,474.6787,207.9922" style="stroke:#181818;stroke-width:1;"/><line style="stroke:#181818;stroke-width:1;" x1="54.7827" x2="476.6787" y1="207.9922" y2="207.9922"/><text fill="#000000" font-family="sans-serif" font-size="13" font-weight="bold" lengthAdjust="spacing" textLength="9.0454" x="61.7827" y="202.9263">3</text><text fill="#000000" font-family="sans-serif" font-size="13" lengthAdjust="spacing" textLength="115.9209" x="74.8281" y="202.9263">Select locomotive</text></g><g class="message" data-participant-1="System" data-participant-2="Player"><polygon fill="#181818" points="65.7827,233.125,55.7827,237.125,65.7827,241.125,61.7827,237.125" style="stroke:#181818;stroke-width:1;"/><line style="stroke:#181818;stroke-width:1;stroke-dasharray:2.0,2.0;" x1="59.7827" x2="481.6787" y1="237.125" y2="237.125"/><text fill="#000000" font-family="sans-serif" font-size="13" font-weight="bold" lengthAdjust="spacing" textLength="9.0454" x="71.7827" y="232.0591">4</text><text fill="#000000" font-family="sans-serif" font-size="13" lengthAdjust="spacing" textLength="310.3496" x="84.8281" y="232.0591">Display the list of stations and respective cargo</text></g><g class="message" data-participant-1="Player" data-participant-2="System"><polygon fill="#181818" points="470.6787,262.2578,480.6787,266.2578,470.6787,270.2578,474.6787,266.2578" style="stroke:#181818;stroke-width:1;"/><line style="stroke:#181818;stroke-width:1;" x1="54.7827" x2="476.6787" y1="266.2578" y2="266.2578"/><text fill="#000000" font-family="sans-serif" font-size="13" font-weight="bold" lengthAdjust="spacing" textLength="9.0454" x="61.7827" y="261.1919">5</text><text fill="#000000" font-family="sans-serif" font-size="13" lengthAdjust="spacing" textLength="242.5059" x="74.8281" y="261.1919">Select a station and respective cargo</text></g><g class="message" data-participant-1="System" data-participant-2="Player"><polygon fill="#181818" points="65.7827,291.3906,55.7827,295.3906,65.7827,299.3906,61.7827,295.3906" style="stroke:#181818;stroke-width:1;"/><line style="stroke:#181818;stroke-width:1;stroke-dasharray:2.0,2.0;" x1="59.7827" x2="481.6787" y1="295.3906" y2="295.3906"/><text fill="#000000" font-family="sans-serif" font-size="13" font-weight="bold" lengthAdjust="spacing" textLength="9.0454" x="71.7827" y="290.3247">6</text><text fill="#000000" font-family="sans-serif" font-size="13" lengthAdjust="spacing" textLength="230.6611" x="84.8281" y="290.3247">Validate station and cargo selected</text></g><g class="message" data-participant-1="System" data-participant-2="Player"><polygon fill="#181818" points="65.7827,320.5234,55.7827,324.5234,65.7827,328.5234,61.7827,324.5234" style="stroke:#181818;stroke-width:1;"/><line style="stroke:#181818;stroke-width:1;stroke-dasharray:2.0,2.0;" x1="59.7827" x2="481.6787" y1="324.5234" y2="324.5234"/><text fill="#000000" font-family="sans-serif" font-size="13" font-weight="bold" lengthAdjust="spacing" textLength="9.0454" x="71.7827" y="319.4575">7</text><text fill="#000000" font-family="sans-serif" font-size="13" lengthAdjust="spacing" textLength="310.3496" x="84.8281" y="319.4575">Display the list of stations and respective cargo</text></g><g class="message" data-participant-1="Player" data-participant-2="System"><polygon fill="#181818" points="470.6787,349.6563,480.6787,353.6563,470.6787,357.6563,474.6787,353.6563" style="stroke:#181818;stroke-width:1;"/><line style="stroke:#181818;stroke-width:1;" x1="54.7827" x2="476.6787" y1="353.6563" y2="353.6563"/><text fill="#000000" font-family="sans-serif" font-size="13" font-weight="bold" lengthAdjust="spacing" textLength="9.0454" x="61.7827" y="348.5903">8</text><text fill="#000000" font-family="sans-serif" font-size="13" lengthAdjust="spacing" textLength="242.5059" x="74.8281" y="348.5903">Select a station and respective cargo</text></g><g class="message" data-participant-1="System" data-participant-2="Player"><polygon fill="#181818" points="65.7827,378.7891,55.7827,382.7891,65.7827,386.7891,61.7827,382.7891" style="stroke:#181818;stroke-width:1;"/><line style="stroke:#181818;stroke-width:1;stroke-dasharray:2.0,2.0;" x1="59.7827" x2="481.6787" y1="382.7891" y2="382.7891"/><text fill="#000000" font-family="sans-serif" font-size="13" font-weight="bold" lengthAdjust="spacing" textLength="9.0454" x="71.7827" y="377.7231">9</text><text fill="#000000" font-family="sans-serif" font-size="13" lengthAdjust="spacing" textLength="230.6611" x="84.8281" y="377.7231">Validate station and cargo selected</text></g><path d="M10,397.7891 L74.4429,397.7891 L74.4429,404.9219 L64.4429,414.9219 L10,414.9219 L10,397.7891" fill="#EEEEEE" style="stroke:#000000;stroke-width:1.5;"/><rect fill="none" height="193.9297" style="stroke:#000000;stroke-width:1.5;" width="549.0078" x="10" y="397.7891"/><text fill="#000000" font-family="sans-serif" font-size="13" font-weight="bold" lengthAdjust="spacing" textLength="19.4429" x="25" y="410.856">alt</text><g class="message" data-participant-1="Player" data-participant-2="System"><polygon fill="#181818" points="470.6787,432.0547,480.6787,436.0547,470.6787,440.0547,474.6787,436.0547" style="stroke:#181818;stroke-width:1;"/><line style="stroke:#181818;stroke-width:1;" x1="54.7827" x2="476.6787" y1="436.0547" y2="436.0547"/><text fill="#000000" font-family="sans-serif" font-size="13" font-weight="bold" lengthAdjust="spacing" textLength="18.0908" x="61.7827" y="430.9888">10</text><text fill="#000000" font-family="sans-serif" font-size="13" lengthAdjust="spacing" textLength="322.6069" x="83.8735" y="430.9888">Selects "add more stations and respective cargo"</text></g><path d="M20,451.0547 L96.624,451.0547 L96.624,458.1875 L86.624,468.1875 L20,468.1875 L20,451.0547" fill="#EEEEEE" style="stroke:#000000;stroke-width:1.5;"/><rect fill="none" height="133.6641" style="stroke:#000000;stroke-width:1.5;" width="529.0078" x="20" y="451.0547"/><text fill="#000000" font-family="sans-serif" font-size="13" font-weight="bold" lengthAdjust="spacing" textLength="31.624" x="35" y="464.1216">loop</text><text fill="#000000" font-family="sans-serif" font-size="11" font-weight="bold" lengthAdjust="spacing" textLength="432.3838" x="111.624" y="463.2651">[(While the player selects "add more stations and respective cargo")]</text><g class="message" data-participant-1="System" data-participant-2="Player"><polygon fill="#181818" points="65.7827,485.3203,55.7827,489.3203,65.7827,493.3203,61.7827,489.3203" style="stroke:#181818;stroke-width:1;"/><line style="stroke:#181818;stroke-width:1;stroke-dasharray:2.0,2.0;" x1="59.7827" x2="481.6787" y1="489.3203" y2="489.3203"/><text fill="#000000" font-family="sans-serif" font-size="13" font-weight="bold" lengthAdjust="spacing" textLength="18.0908" x="71.7827" y="484.2544">11</text><text fill="#000000" font-family="sans-serif" font-size="13" lengthAdjust="spacing" textLength="310.3496" x="93.8735" y="484.2544">Display the list of stations and respective cargo</text></g><g class="message" data-participant-1="Player" data-participant-2="System"><polygon fill="#181818" points="470.6787,514.4531,480.6787,518.4531,470.6787,522.4531,474.6787,518.4531" style="stroke:#181818;stroke-width:1;"/><line style="stroke:#181818;stroke-width:1;" x1="54.7827" x2="476.6787" y1="518.4531" y2="518.4531"/><text fill="#000000" font-family="sans-serif" font-size="13" font-weight="bold" lengthAdjust="spacing" textLength="18.0908" x="61.7827" y="513.3872">12</text><text fill="#000000" font-family="sans-serif" font-size="13" lengthAdjust="spacing" textLength="242.5059" x="83.8735" y="513.3872">Select a station and respective cargo</text></g><g class="message" data-participant-1="System" data-participant-2="Player"><polygon fill="#181818" points="65.7827,543.5859,55.7827,547.5859,65.7827,551.5859,61.7827,547.5859" style="stroke:#181818;stroke-width:1;"/><line style="stroke:#181818;stroke-width:1;stroke-dasharray:2.0,2.0;" x1="59.7827" x2="481.6787" y1="547.5859" y2="547.5859"/><text fill="#000000" font-family="sans-serif" font-size="13" font-weight="bold" lengthAdjust="spacing" textLength="18.0908" x="71.7827" y="542.52">13</text><text fill="#000000" font-family="sans-serif" font-size="13" lengthAdjust="spacing" textLength="230.6611" x="93.8735" y="542.52">Validate station and cargo selected</text></g><g class="message" data-participant-1="Player" data-participant-2="System"><polygon fill="#181818" points="470.6787,572.7188,480.6787,576.7188,470.6787,580.7188,474.6787,576.7188" style="stroke:#181818;stroke-width:1;"/><line style="stroke:#181818;stroke-width:1;" x1="54.7827" x2="476.6787" y1="576.7188" y2="576.7188"/><text fill="#000000" font-family="sans-serif" font-size="13" font-weight="bold" lengthAdjust="spacing" textLength="18.0908" x="61.7827" y="571.6528">14</text><text fill="#000000" font-family="sans-serif" font-size="13" lengthAdjust="spacing" textLength="322.6069" x="83.8735" y="571.6528">Selects "add more stations and respective cargo"</text></g><g class="message" data-participant-1="Player" data-participant-2="System"><polygon fill="#181818" points="470.6787,615.8516,480.6787,619.8516,470.6787,623.8516,474.6787,619.8516" style="stroke:#181818;stroke-width:1;"/><line style="stroke:#181818;stroke-width:1;" x1="54.7827" x2="476.6787" y1="619.8516" y2="619.8516"/><text fill="#000000" font-family="sans-serif" font-size="13" font-weight="bold" lengthAdjust="spacing" textLength="18.0908" x="61.7827" y="614.7856">15</text><text fill="#000000" font-family="sans-serif" font-size="13" lengthAdjust="spacing" textLength="98.0205" x="83.8735" y="614.7856">Selects "finish"</text></g><g class="message" data-participant-1="System" data-participant-2="Player"><polygon fill="#181818" points="65.7827,644.9844,55.7827,648.9844,65.7827,652.9844,61.7827,648.9844" style="stroke:#181818;stroke-width:1;"/><line style="stroke:#181818;stroke-width:1;stroke-dasharray:2.0,2.0;" x1="59.7827" x2="481.6787" y1="648.9844" y2="648.9844"/><text fill="#000000" font-family="sans-serif" font-size="13" font-weight="bold" lengthAdjust="spacing" textLength="18.0908" x="71.7827" y="643.9185">16</text><text fill="#000000" font-family="sans-serif" font-size="13" lengthAdjust="spacing" textLength="381.8052" x="93.8735" y="643.9185">Displays "The locomotive is assign to a route successfully"</text></g><!--SRC=[rPIxQiD044LxVSL5LL88d3Q4G21D88L1UTHZxSXQMEq8pSX1VnzPif4DZa98vMABNURSEmzcgJE9NRtXDg72fCKwK3zSp5jWlEUhknKolE2Bei44fEgt4OGWXTHYViVZCrhfZ9E9HlQ8l5VZ6lV8EN1XI9ycyYAN7i27B9l1Pw_Dy0gh6C6hGKhGZdoWpP3QhAEuO7jmFN4x1ltgeKRc9IeeEhIipI2q5oYetSf2XNGa5y4p-myAtf7n6Jc6GqTHTjUQDWNxsLIHadEefUNblDFaLQJ1pMVbXvdlosqcJVsZpksLZ_zVFUJenhEaLVhejKgNsZH4lLMdcmUlnmzXtcLeLnIiMdOXzEat]--></g></svg>