<svg xmlns="http://www.w3.org/2000/svg" xmlns:xlink="http://www.w3.org/1999/xlink" contentStyleType="text/css" data-diagram-type="CLASS" height="1569px" preserveAspectRatio="none" style="width:418px;height:1569px;background:#FFFFFF;" version="1.1" viewBox="0 0 418 1569" width="418px" zoomAndPan="magnify"><defs/><g><!--class ListAllTrainsController--><g class="entity" data-entity="ListAllTrainsController" data-source-line="1" data-uid="ent0002" id="entity_ListAllTrainsController"><rect fill="#F1F1F1" height="186.375" rx="2.5" ry="2.5" style="stroke:#181818;stroke-width:0.5;" width="368.1455" x="42.93" y="147.6"/><ellipse cx="145.7801" cy="163.6" fill="#ADD1B2" rx="11" ry="11" style="stroke:#181818;stroke-width:1;"/><path d="M148.7488,169.2406 Q148.1707,169.5375 147.5301,169.6781 Q146.8895,169.8344 146.1863,169.8344 Q143.6863,169.8344 142.3582,168.1937 Q141.0457,166.5375 141.0457,163.4125 Q141.0457,160.2875 142.3582,158.6312 Q143.6863,156.975 146.1863,156.975 Q146.8895,156.975 147.5301,157.1312 Q148.1863,157.2875 148.7488,157.5844 L148.7488,160.3031 Q148.1238,159.725 147.5301,159.4594 Q146.9363,159.1781 146.3113,159.1781 Q144.9676,159.1781 144.2801,160.2562 Q143.5926,161.3187 143.5926,163.4125 Q143.5926,165.5062 144.2801,166.5844 Q144.9676,167.6469 146.3113,167.6469 Q146.9363,167.6469 147.5301,167.3812 Q148.1238,167.1 148.7488,166.5219 L148.7488,169.2406 Z " fill="#000000"/><text fill="#000000" font-family="sans-serif" font-size="14" lengthAdjust="spacing" textLength="153.9453" x="166.2801" y="168.4467">ListAllTrainsController</text><line style="stroke:#181818;stroke-width:0.5;" x1="43.93" x2="410.0755" y1="179.6" y2="179.6"/><rect fill="none" height="6" style="stroke:#C82930;stroke-width:1;" width="6" x="50.93" y="190.2484"/><text fill="#000000" font-family="sans-serif" font-size="14" lengthAdjust="spacing" textLength="224.4854" x="62.93" y="196.5951">trainRepository: trainRepository</text><rect fill="none" height="6" style="stroke:#C82930;stroke-width:1;" width="6" x="50.93" y="206.5453"/><text fill="#000000" font-family="sans-serif" font-size="14" lengthAdjust="spacing" textLength="150.8555" x="62.93" y="212.892">sortTrains: SortTrains</text><rect fill="none" height="6" style="stroke:#C82930;stroke-width:1;" width="6" x="50.93" y="222.8422"/><text fill="#000000" font-family="sans-serif" font-size="14" lengthAdjust="spacing" textLength="143.5479" x="62.93" y="229.1889">instance: Repository</text><line style="stroke:#181818;stroke-width:1;" x1="43.93" x2="410.0755" y1="236.4906" y2="236.4906"/><rect fill="#F24D5C" height="6" style="stroke:#C82930;stroke-width:1;" width="6" x="50.93" y="247.1391"/><text fill="#000000" font-family="sans-serif" font-size="14" lengthAdjust="spacing" textLength="188.7744" x="62.93" y="253.4857">getRepository():Repository</text><rect fill="#F24D5C" height="6" style="stroke:#C82930;stroke-width:1;" width="6" x="50.93" y="263.4359"/><text fill="#000000" font-family="sans-serif" font-size="14" lengthAdjust="spacing" textLength="260.0732" x="62.93" y="269.7826">getTrainRepository():TrainRepository</text><line style="stroke:#181818;stroke-width:1;" x1="43.93" x2="410.0755" y1="277.0844" y2="277.0844"/><ellipse cx="53.93" cy="290.7328" fill="#84BE84" rx="3" ry="3" style="stroke:#038048;stroke-width:1;"/><text fill="#000000" font-family="sans-serif" font-size="14" lengthAdjust="spacing" textLength="259.9775" x="62.93" y="294.0795">getAllTrainsPurchased(): List&lt;Train&gt;</text><ellipse cx="53.93" cy="307.0297" fill="#84BE84" rx="3" ry="3" style="stroke:#038048;stroke-width:1;"/><text fill="#000000" font-family="sans-serif" font-size="14" lengthAdjust="spacing" textLength="342.1455" x="62.93" y="310.3764">getSortedListOfAllTrainsPurchased():List&lt;Train&gt;</text><ellipse cx="53.93" cy="323.3266" fill="#84BE84" rx="3" ry="3" style="stroke:#038048;stroke-width:1;"/><text fill="#000000" font-family="sans-serif" font-size="14" lengthAdjust="spacing" textLength="223.4531" x="62.93" y="326.6732">getStringlistOfAllTrains(): String</text></g><!--class ListAllTrainsUI--><g class="entity" data-entity="ListAllTrainsUI" data-source-line="14" data-uid="ent0003" id="entity_ListAllTrainsUI"><rect fill="#F1F1F1" height="80.5938" rx="2.5" ry="2.5" style="stroke:#181818;stroke-width:0.5;" width="146.9346" x="153.53" y="7"/><ellipse cx="175.6338" cy="23" fill="#ADD1B2" rx="11" ry="11" style="stroke:#181818;stroke-width:1;"/><path d="M178.6025,28.6406 Q178.0244,28.9375 177.3838,29.0781 Q176.7431,29.2344 176.04,29.2344 Q173.54,29.2344 172.2119,27.5938 Q170.8994,25.9375 170.8994,22.8125 Q170.8994,19.6875 172.2119,18.0313 Q173.54,16.375 176.04,16.375 Q176.7431,16.375 177.3838,16.5313 Q178.04,16.6875 178.6025,16.9844 L178.6025,19.7031 Q177.9775,19.125 177.3838,18.8594 Q176.79,18.5781 176.165,18.5781 Q174.8213,18.5781 174.1338,19.6563 Q173.4463,20.7188 173.4463,22.8125 Q173.4463,24.9063 174.1338,25.9844 Q174.8213,27.0469 176.165,27.0469 Q176.79,27.0469 177.3838,26.7813 Q177.9775,26.5 178.6025,25.9219 L178.6025,28.6406 Z " fill="#000000"/><text fill="#000000" font-family="sans-serif" font-size="14" lengthAdjust="spacing" textLength="99.1484" x="191.2124" y="27.8467">ListAllTrainsUI</text><line style="stroke:#181818;stroke-width:0.5;" x1="154.53" x2="299.4646" y1="39" y2="39"/><line style="stroke:#181818;stroke-width:0.5;" x1="154.53" x2="299.4646" y1="47" y2="47"/><ellipse cx="164.53" cy="60.6484" fill="#84BE84" rx="3" ry="3" style="stroke:#038048;stroke-width:1;"/><text fill="#000000" font-family="sans-serif" font-size="14" lengthAdjust="spacing" textLength="73.2197" x="173.53" y="63.9951">run(): void</text><ellipse cx="164.53" cy="76.9453" fill="#84BE84" rx="3" ry="3" style="stroke:#038048;stroke-width:1;"/><text fill="#000000" font-family="sans-serif" font-size="14" lengthAdjust="spacing" textLength="120.9346" x="173.53" y="80.292">displayAllTrains()</text></g><!--class Simulation--><g class="entity" data-entity="Simulation" data-source-line="20" data-uid="ent0004" id="entity_Simulation"><rect fill="#F1F1F1" height="113.1875" rx="2.5" ry="2.5" style="stroke:#181818;stroke-width:0.5;" width="257.998" x="7" y="393.97"/><ellipse cx="94.4624" cy="409.97" fill="#ADD1B2" rx="11" ry="11" style="stroke:#181818;stroke-width:1;"/><path d="M97.4312,415.6106 Q96.853,415.9075 96.2124,416.0481 Q95.5718,416.2044 94.8687,416.2044 Q92.3687,416.2044 91.0405,414.5638 Q89.728,412.9075 89.728,409.7825 Q89.728,406.6575 91.0405,405.0013 Q92.3687,403.345 94.8687,403.345 Q95.5718,403.345 96.2124,403.5013 Q96.8687,403.6575 97.4312,403.9544 L97.4312,406.6731 Q96.8062,406.095 96.2124,405.8294 Q95.6187,405.5481 94.9937,405.5481 Q93.6499,405.5481 92.9624,406.6263 Q92.2749,407.6888 92.2749,409.7825 Q92.2749,411.8763 92.9624,412.9544 Q93.6499,414.0169 94.9937,414.0169 Q95.6187,414.0169 96.2124,413.7513 Q96.8062,413.47 97.4312,412.8919 L97.4312,415.6106 Z " fill="#000000"/><text fill="#000000" font-family="sans-serif" font-size="14" lengthAdjust="spacing" textLength="74.5732" x="114.9624" y="414.8167">Simulation</text><line style="stroke:#181818;stroke-width:0.5;" x1="8" x2="263.998" y1="425.97" y2="425.97"/><rect fill="none" height="6" style="stroke:#C82930;stroke-width:1;" width="6" x="15" y="436.6184"/><text fill="#000000" font-family="sans-serif" font-size="14" lengthAdjust="spacing" textLength="147.499" x="27" y="442.9651">instance : Simulation</text><rect fill="none" height="6" style="stroke:#C82930;stroke-width:1;" width="6" x="15" y="452.9153"/><text fill="#000000" font-family="sans-serif" font-size="14" lengthAdjust="spacing" textLength="231.998" x="27" y="459.262">trainRepository : TrainRepository</text><line style="stroke:#181818;stroke-width:1;" x1="8" x2="263.998" y1="466.5638" y2="466.5638"/><ellipse cx="18" cy="480.2122" fill="#84BE84" rx="3" ry="3" style="stroke:#038048;stroke-width:1;"/><text fill="#000000" font-family="sans-serif" font-size="14" lengthAdjust="spacing" textLength="173.25" x="27" y="483.5589">getInstnace():Repository</text><ellipse cx="18" cy="496.5091" fill="#84BE84" rx="3" ry="3" style="stroke:#038048;stroke-width:1;"/><text fill="#000000" font-family="sans-serif" font-size="14" lengthAdjust="spacing" textLength="185.001" x="27" y="499.8557">getTrainRepository():Train</text></g><!--class TrainRepository--><g class="entity" data-entity="TrainRepository" data-source-line="28" data-uid="ent0005" id="entity_TrainRepository"><rect fill="#F1F1F1" height="96.8906" rx="2.5" ry="2.5" style="stroke:#181818;stroke-width:0.5;" width="195.6064" x="129.2" y="691.46"/><ellipse cx="167.9981" cy="707.46" fill="#ADD1B2" rx="11" ry="11" style="stroke:#181818;stroke-width:1;"/><path d="M170.9669,713.1006 Q170.3888,713.3975 169.7481,713.5381 Q169.1075,713.6944 168.4044,713.6944 Q165.9044,713.6944 164.5763,712.0537 Q163.2638,710.3975 163.2638,707.2725 Q163.2638,704.1475 164.5763,702.4912 Q165.9044,700.835 168.4044,700.835 Q169.1075,700.835 169.7481,700.9912 Q170.4044,701.1475 170.9669,701.4444 L170.9669,704.1631 Q170.3419,703.585 169.7481,703.3194 Q169.1544,703.0381 168.5294,703.0381 Q167.1856,703.0381 166.4981,704.1162 Q165.8106,705.1787 165.8106,707.2725 Q165.8106,709.3662 166.4981,710.4444 Q167.1856,711.5069 168.5294,711.5069 Q169.1544,711.5069 169.7481,711.2412 Q170.3419,710.96 170.9669,710.3819 L170.9669,713.1006 Z " fill="#000000"/><text fill="#000000" font-family="sans-serif" font-size="14" lengthAdjust="spacing" textLength="110.7217" x="187.2866" y="712.3067">TrainRepository</text><line style="stroke:#181818;stroke-width:0.5;" x1="130.2" x2="323.8064" y1="723.46" y2="723.46"/><rect fill="none" height="6" style="stroke:#C82930;stroke-width:1;" width="6" x="137.2" y="734.1084"/><text fill="#000000" font-family="sans-serif" font-size="14" lengthAdjust="spacing" textLength="132.6309" x="149.2" y="740.4551">trains: List&lt;Train&gt;</text><rect fill="none" height="6" style="stroke:#C82930;stroke-width:1;" width="6" x="137.2" y="750.4053"/><text fill="#000000" font-family="sans-serif" font-size="14" lengthAdjust="spacing" textLength="44.6455" x="149.2" y="756.752">id : int</text><line style="stroke:#181818;stroke-width:1;" x1="130.2" x2="323.8064" y1="764.0537" y2="764.0537"/><ellipse cx="140.2" cy="777.7022" fill="#84BE84" rx="3" ry="3" style="stroke:#038048;stroke-width:1;"/><text fill="#000000" font-family="sans-serif" font-size="14" lengthAdjust="spacing" textLength="169.6064" x="149.2" y="781.0489">getTrains(): List&lt;Train&gt;</text></g><!--class Train--><g class="entity" data-entity="Train" data-source-line="35" data-uid="ent0006" id="entity_Train"><rect fill="#F1F1F1" height="129.4844" rx="2.5" ry="2.5" style="stroke:#181818;stroke-width:0.5;" width="185.1133" x="134.44" y="848.35"/><ellipse cx="204.9219" cy="864.35" fill="#ADD1B2" rx="11" ry="11" style="stroke:#181818;stroke-width:1;"/><path d="M207.8907,869.9906 Q207.3126,870.2875 206.6719,870.4281 Q206.0313,870.5844 205.3282,870.5844 Q202.8282,870.5844 201.5001,868.9437 Q200.1876,867.2875 200.1876,864.1625 Q200.1876,861.0375 201.5001,859.3812 Q202.8282,857.725 205.3282,857.725 Q206.0313,857.725 206.6719,857.8812 Q207.3282,858.0375 207.8907,858.3344 L207.8907,861.0531 Q207.2657,860.475 206.6719,860.2094 Q206.0782,859.9281 205.4532,859.9281 Q204.1094,859.9281 203.4219,861.0062 Q202.7344,862.0687 202.7344,864.1625 Q202.7344,866.2562 203.4219,867.3344 Q204.1094,868.3969 205.4532,868.3969 Q206.0782,868.3969 206.6719,868.1312 Q207.2657,867.85 207.8907,867.2719 L207.8907,869.9906 Z " fill="#000000"/><text fill="#000000" font-family="sans-serif" font-size="14" lengthAdjust="spacing" textLength="35.6494" x="225.4219" y="869.1967">Train</text><line style="stroke:#181818;stroke-width:0.5;" x1="135.44" x2="318.5533" y1="880.35" y2="880.35"/><rect fill="none" height="6" style="stroke:#C82930;stroke-width:1;" width="6" x="142.44" y="890.9984"/><text fill="#000000" font-family="sans-serif" font-size="14" lengthAdjust="spacing" textLength="51.6592" x="154.44" y="897.3451">id = int</text><rect fill="none" height="6" style="stroke:#C82930;stroke-width:1;" width="6" x="142.44" y="907.2953"/><text fill="#000000" font-family="sans-serif" font-size="14" lengthAdjust="spacing" textLength="159.1133" x="154.44" y="913.642">locomotive:locomotive</text><rect fill="none" height="6" style="stroke:#C82930;stroke-width:1;" width="6" x="142.44" y="923.5922"/><text fill="#000000" font-family="sans-serif" font-size="14" lengthAdjust="spacing" textLength="110.8447" x="154.44" y="929.9389">whereItIs:String</text><rect fill="none" height="6" style="stroke:#C82930;stroke-width:1;" width="6" x="142.44" y="939.8891"/><text fill="#000000" font-family="sans-serif" font-size="14" lengthAdjust="spacing" textLength="85.7637" x="154.44" y="946.2357">cargo:Cargo</text><line style="stroke:#181818;stroke-width:1;" x1="135.44" x2="318.5533" y1="953.5375" y2="953.5375"/><ellipse cx="145.44" cy="967.1859" fill="#84BE84" rx="3" ry="3" style="stroke:#038048;stroke-width:1;"/><text fill="#000000" font-family="sans-serif" font-size="14" lengthAdjust="spacing" textLength="113.2578" x="154.44" y="970.5326">toString():String</text></g><!--class SortTrains--><g class="entity" data-entity="SortTrains" data-source-line="44" data-uid="ent0007" id="entity_SortTrains"><rect fill="#F1F1F1" height="80.5938" rx="2.5" ry="2.5" style="stroke:#181818;stroke-width:0.5;" width="255.7217" x="99.14" y="1037.83"/><ellipse cx="186.9305" cy="1053.83" fill="#ADD1B2" rx="11" ry="11" style="stroke:#181818;stroke-width:1;"/><path d="M189.8993,1059.4706 Q189.3212,1059.7675 188.6805,1059.9081 Q188.0399,1060.0644 187.3368,1060.0644 Q184.8368,1060.0644 183.5087,1058.4238 Q182.1962,1056.7675 182.1962,1053.6425 Q182.1962,1050.5175 183.5087,1048.8613 Q184.8368,1047.205 187.3368,1047.205 Q188.0399,1047.205 188.6805,1047.3613 Q189.3368,1047.5175 189.8993,1047.8144 L189.8993,1050.5331 Q189.2743,1049.955 188.6805,1049.6894 Q188.0868,1049.4081 187.4618,1049.4081 Q186.118,1049.4081 185.4305,1050.4863 Q184.743,1051.5488 184.743,1053.6425 Q184.743,1055.7363 185.4305,1056.8144 Q186.118,1057.8769 187.4618,1057.8769 Q188.0868,1057.8769 188.6805,1057.6113 Q189.2743,1057.33 189.8993,1056.7519 L189.8993,1059.4706 Z " fill="#000000"/><text fill="#000000" font-family="sans-serif" font-size="14" lengthAdjust="spacing" textLength="71.6406" x="207.4305" y="1058.6767">SortTrains</text><line style="stroke:#181818;stroke-width:0.5;" x1="100.14" x2="353.8617" y1="1069.83" y2="1069.83"/><line style="stroke:#181818;stroke-width:0.5;" x1="100.14" x2="353.8617" y1="1077.83" y2="1077.83"/><ellipse cx="110.14" cy="1091.4784" fill="#84BE84" rx="3" ry="3" style="stroke:#038048;stroke-width:1;"/><text fill="#000000" font-family="sans-serif" font-size="14" lengthAdjust="spacing" textLength="170.8643" x="119.14" y="1094.8251">SortTrains():List&lt;Train&gt;</text><ellipse cx="110.14" cy="1107.7753" fill="#84BE84" rx="3" ry="3" style="stroke:#038048;stroke-width:1;"/><text fill="#000000" font-family="sans-serif" font-size="14" lengthAdjust="spacing" textLength="229.7217" x="119.14" y="1111.122">convertTrainListToString():String</text></g><!--class Locomotive--><g class="entity" data-entity="Locomotive" data-source-line="49" data-uid="ent0008" id="entity_Locomotive"><rect fill="#F1F1F1" height="162.0781" rx="2.5" ry="2.5" style="stroke:#181818;stroke-width:0.5;" width="222.0615" x="115.97" y="1178.42"/><ellipse cx="182.1966" cy="1194.42" fill="#ADD1B2" rx="11" ry="11" style="stroke:#181818;stroke-width:1;"/><path d="M185.1653,1200.0606 Q184.5872,1200.3575 183.9466,1200.4981 Q183.3059,1200.6544 182.6028,1200.6544 Q180.1028,1200.6544 178.7747,1199.0137 Q177.4622,1197.3575 177.4622,1194.2325 Q177.4622,1191.1075 178.7747,1189.4512 Q180.1028,1187.795 182.6028,1187.795 Q183.3059,1187.795 183.9466,1187.9512 Q184.6028,1188.1075 185.1653,1188.4044 L185.1653,1191.1231 Q184.5403,1190.545 183.9466,1190.2794 Q183.3528,1189.9981 182.7278,1189.9981 Q181.3841,1189.9981 180.6966,1191.0762 Q180.0091,1192.1387 180.0091,1194.2325 Q180.0091,1196.3262 180.6966,1197.4044 Q181.3841,1198.4669 182.7278,1198.4669 Q183.3528,1198.4669 183.9466,1198.2012 Q184.5403,1197.92 185.1653,1197.3419 L185.1653,1200.0606 Z " fill="#000000"/><text fill="#000000" font-family="sans-serif" font-size="14" lengthAdjust="spacing" textLength="81.1084" x="202.6966" y="1199.2667">Locomotive</text><line style="stroke:#181818;stroke-width:0.5;" x1="116.97" x2="337.0315" y1="1210.42" y2="1210.42"/><rect fill="none" height="6" style="stroke:#C82930;stroke-width:1;" width="6" x="123.97" y="1221.0684"/><text fill="#000000" font-family="sans-serif" font-size="14" lengthAdjust="spacing" textLength="175.9023" x="135.97" y="1227.4151">model: LocomotiveModel</text><rect fill="none" height="6" style="stroke:#C82930;stroke-width:1;" width="6" x="123.97" y="1237.3653"/><text fill="#000000" font-family="sans-serif" font-size="14" lengthAdjust="spacing" textLength="196.0615" x="135.97" y="1243.712">type : LocomotiveType type</text><rect fill="none" height="6" style="stroke:#C82930;stroke-width:1;" width="6" x="123.97" y="1253.6622"/><text fill="#000000" font-family="sans-serif" font-size="14" lengthAdjust="spacing" textLength="94.2471" x="135.97" y="1260.0089">topSpeed: int</text><rect fill="none" height="6" style="stroke:#C82930;stroke-width:1;" width="6" x="123.97" y="1269.9591"/><text fill="#000000" font-family="sans-serif" font-size="14" lengthAdjust="spacing" textLength="85.5039" x="135.97" y="1276.3057">sellPrice: int</text><rect fill="none" height="6" style="stroke:#C82930;stroke-width:1;" width="6" x="123.97" y="1286.2559"/><text fill="#000000" font-family="sans-serif" font-size="14" lengthAdjust="spacing" textLength="119.1367" x="135.97" y="1292.6026">maintenance: int</text><rect fill="none" height="6" style="stroke:#C82930;stroke-width:1;" width="6" x="123.97" y="1302.5528"/><text fill="#000000" font-family="sans-serif" font-size="14" lengthAdjust="spacing" textLength="93.4268" x="135.97" y="1308.8995">fuelCoast: int</text><rect fill="none" height="6" style="stroke:#C82930;stroke-width:1;" width="6" x="123.97" y="1318.8497"/><text fill="#000000" font-family="sans-serif" font-size="14" lengthAdjust="spacing" textLength="167.207" x="135.97" y="1325.1964">acquisitionPrice: double</text><line style="stroke:#181818;stroke-width:0.5;" x1="116.97" x2="337.0315" y1="1332.4981" y2="1332.4981"/></g><!--class LocomotiveModel--><g class="entity" data-entity="LocomotiveModel" data-source-line="59" data-uid="ent0009" id="entity_LocomotiveModel"><rect fill="#F1F1F1" height="162.0781" rx="2.5" ry="2.5" style="stroke:#181818;stroke-width:0.5;" width="193.207" x="130.4" y="1400.5"/><ellipse cx="162.529" cy="1416.5" fill="#EB937F" rx="11" ry="11" style="stroke:#181818;stroke-width:1;"/><path d="M166.6384,1422.5 L158.9196,1422.5 L158.9196,1410.1094 L166.6384,1410.1094 L166.6384,1412.2656 L161.3728,1412.2656 L161.3728,1414.9375 L166.1384,1414.9375 L166.1384,1417.0938 L161.3728,1417.0938 L161.3728,1420.3438 L166.6384,1420.3438 L166.6384,1422.5 Z " fill="#000000"/><text fill="#000000" font-family="sans-serif" font-size="14" lengthAdjust="spacing" textLength="123.1426" x="180.3354" y="1421.3467">LocomotiveModel</text><line style="stroke:#181818;stroke-width:0.5;" x1="131.4" x2="322.607" y1="1432.5" y2="1432.5"/><rect fill="none" height="6" style="stroke:#C82930;stroke-width:1;" width="6" x="138.4" y="1443.1484"/><text fill="#000000" font-family="sans-serif" font-size="14" lengthAdjust="spacing" textLength="91.5264" x="150.4" y="1449.4951">startYear: int</text><rect fill="none" height="6" style="stroke:#C82930;stroke-width:1;" width="6" x="138.4" y="1459.4453"/><text fill="#000000" font-family="sans-serif" font-size="14" lengthAdjust="spacing" textLength="123.71" x="150.4" y="1465.792">topSpeed: double</text><rect fill="none" height="6" style="stroke:#C82930;stroke-width:1;" width="6" x="138.4" y="1475.7422"/><text fill="#000000" font-family="sans-serif" font-size="14" lengthAdjust="spacing" textLength="167.207" x="150.4" y="1482.0889">acquisitionPrice: double</text><rect fill="none" height="6" style="stroke:#C82930;stroke-width:1;" width="6" x="138.4" y="1492.0391"/><text fill="#000000" font-family="sans-serif" font-size="14" lengthAdjust="spacing" textLength="119.1367" x="150.4" y="1498.3857">maintenance: int</text><rect fill="none" height="6" style="stroke:#C82930;stroke-width:1;" width="6" x="138.4" y="1508.3359"/><text fill="#000000" font-family="sans-serif" font-size="14" lengthAdjust="spacing" textLength="93.4268" x="150.4" y="1514.6826">fuelCoast: int</text><rect fill="none" height="6" style="stroke:#C82930;stroke-width:1;" width="6" x="138.4" y="1524.6328"/><text fill="#000000" font-family="sans-serif" font-size="14" lengthAdjust="spacing" textLength="90.6514" x="150.4" y="1530.9795">name: String</text><rect fill="none" height="6" style="stroke:#C82930;stroke-width:1;" width="6" x="138.4" y="1540.9297"/><text fill="#000000" font-family="sans-serif" font-size="14" lengthAdjust="spacing" textLength="155.8867" x="150.4" y="1547.2764">type: LocomotiveType</text><line style="stroke:#181818;stroke-width:0.5;" x1="131.4" x2="322.607" y1="1554.5781" y2="1554.5781"/></g><!--class Scenario--><g class="entity" data-entity="Scenario" data-source-line="69" data-uid="ent0010" id="entity_Scenario"><rect fill="#F1F1F1" height="64.2969" rx="2.5" ry="2.5" style="stroke:#181818;stroke-width:0.5;" width="253.5479" x="100.23" y="567.16"/><ellipse cx="192.3238" cy="583.16" fill="#ADD1B2" rx="11" ry="11" style="stroke:#181818;stroke-width:1;"/><path d="M195.2925,588.8006 Q194.7144,589.0975 194.0738,589.2381 Q193.4331,589.3944 192.73,589.3944 Q190.23,589.3944 188.9019,587.7538 Q187.5894,586.0975 187.5894,582.9725 Q187.5894,579.8475 188.9019,578.1913 Q190.23,576.535 192.73,576.535 Q193.4331,576.535 194.0738,576.6913 Q194.73,576.8475 195.2925,577.1444 L195.2925,579.8631 Q194.6675,579.285 194.0738,579.0194 Q193.48,578.7381 192.855,578.7381 Q191.5113,578.7381 190.8238,579.8163 Q190.1363,580.8788 190.1363,582.9725 Q190.1363,585.0663 190.8238,586.1444 Q191.5113,587.2069 192.855,587.2069 Q193.48,587.2069 194.0738,586.9413 Q194.6675,586.66 195.2925,586.0819 L195.2925,588.8006 Z " fill="#000000"/><text fill="#000000" font-family="sans-serif" font-size="14" lengthAdjust="spacing" textLength="60.8604" x="212.8238" y="588.0067">Scenario</text><line style="stroke:#181818;stroke-width:0.5;" x1="101.23" x2="352.7779" y1="599.16" y2="599.16"/><rect fill="none" height="6" style="stroke:#C82930;stroke-width:1;" width="6" x="108.23" y="609.8084"/><text fill="#000000" font-family="sans-serif" font-size="14" lengthAdjust="spacing" textLength="227.5479" x="120.23" y="616.1551">trainRepository: TrainRepository</text><line style="stroke:#181818;stroke-width:0.5;" x1="101.23" x2="352.7779" y1="623.4569" y2="623.4569"/></g><!--link ListAllTrainsUI to ListAllTrainsController--><g class="link" data-entity-1="ListAllTrainsUI" data-entity-2="ListAllTrainsController" data-source-line="75" data-uid="lnk11" id="link_ListAllTrainsUI_ListAllTrainsController"><path codeLine="75" d="M227,87.97 C227,105.28 227,120.36 227,141.24" fill="none" id="ListAllTrainsUI-to-ListAllTrainsController" style="stroke:#181818;stroke-width:1;stroke-dasharray:7.0,7.0;"/><polygon fill="#181818" points="227,147.24,231,138.24,227,142.24,223,138.24,227,147.24" style="stroke:#181818;stroke-width:1;"/></g><!--link ListAllTrainsController to Simulation--><g class="link" data-entity-1="ListAllTrainsController" data-entity-2="Simulation" data-source-line="76" data-uid="lnk12" id="link_ListAllTrainsController_Simulation"><path codeLine="76" d="M186.42,334.43 C177.56,354.67 170.8466,369.9838 162.8466,388.2538" fill="none" id="ListAllTrainsController-to-Simulation" style="stroke:#181818;stroke-width:1;stroke-dasharray:7.0,7.0;"/><polygon fill="#181818" points="160.44,393.75,167.7141,387.1102,162.4455,389.1698,160.3859,383.9013,160.44,393.75" style="stroke:#181818;stroke-width:1;"/></g><!--link ListAllTrainsController to Scenario--><g class="link" data-entity-1="ListAllTrainsController" data-entity-2="Scenario" data-source-line="77" data-uid="lnk13" id="link_ListAllTrainsController_Scenario"><path codeLine="77" d="M267.75,334.32 C284.97,385.64 297.8,450.38 282,507.16 C276,528.7 266.8167,545.3148 255.1767,562.0448" fill="none" id="ListAllTrainsController-to-Scenario" style="stroke:#181818;stroke-width:1;stroke-dasharray:7.0,7.0;"/><polygon fill="#181818" points="251.75,566.97,260.1736,561.8667,254.6056,562.8657,253.6066,557.2977,251.75,566.97" style="stroke:#181818;stroke-width:1;"/></g><!--link Scenario to TrainRepository--><g class="link" data-entity-1="Scenario" data-entity-2="TrainRepository" data-source-line="78" data-uid="lnk14" id="link_Scenario_TrainRepository"><path codeLine="78" d="M227,631.76 C227,649.25 227,665.38 227,684.98" fill="none" id="Scenario-to-TrainRepository" style="stroke:#181818;stroke-width:1;"/><polygon fill="#181818" points="227,690.98,231,681.98,227,685.98,223,681.98,227,690.98" style="stroke:#181818;stroke-width:1;"/><text fill="#000000" font-family="sans-serif" font-size="13" lengthAdjust="spacing" textLength="8.271" x="218.4803" y="680.4737">1</text></g><!--link TrainRepository to Train--><g class="link" data-entity-1="TrainRepository" data-entity-2="Train" data-source-line="79" data-uid="lnk15" id="link_TrainRepository_Train"><path codeLine="79" d="M227,788.59 C227,806.99 227,822.32 227,842.02" fill="none" id="TrainRepository-to-Train" style="stroke:#181818;stroke-width:1;"/><polygon fill="#181818" points="227,848.02,231,839.02,227,843.02,223,839.02,227,848.02" style="stroke:#181818;stroke-width:1;"/><text fill="#000000" font-family="sans-serif" font-size="13" lengthAdjust="spacing" textLength="6.5" x="220.6996" y="837.1566">*</text></g><!--link Train to SortTrains--><g class="link" data-entity-1="Train" data-entity-2="SortTrains" data-source-line="80" data-uid="lnk16" id="link_Train_SortTrains"><path codeLine="80" d="M227,978.06 C227,998.22 227,1013.88 227,1031.8" fill="none" id="Train-to-SortTrains" style="stroke:#181818;stroke-width:1;"/><polygon fill="#181818" points="227,1037.8,231,1028.8,227,1032.8,223,1028.8,227,1037.8" style="stroke:#181818;stroke-width:1;"/><text fill="#000000" font-family="sans-serif" font-size="13" lengthAdjust="spacing" textLength="8.271" x="218.5777" y="998.0603">1</text><text fill="#000000" font-family="sans-serif" font-size="13" lengthAdjust="spacing" textLength="8.271" x="218.3356" y="1026.6581">1</text></g><!--link SortTrains to Locomotive--><g class="link" data-entity-1="SortTrains" data-entity-2="Locomotive" data-source-line="81" data-uid="lnk17" id="link_SortTrains_Locomotive"><path codeLine="81" d="M227,1118.48 C227,1136.01 227,1151.33 227,1171.99" fill="none" id="SortTrains-to-Locomotive" style="stroke:#181818;stroke-width:1;"/><polygon fill="#181818" points="227,1177.99,231,1168.99,227,1172.99,223,1168.99,227,1177.99" style="stroke:#181818;stroke-width:1;"/><text fill="#000000" font-family="sans-serif" font-size="13" lengthAdjust="spacing" textLength="8.271" x="218.3598" y="1138.4836">1</text><text fill="#000000" font-family="sans-serif" font-size="13" lengthAdjust="spacing" textLength="6.5" x="220.7636" y="1167.4168">*</text></g><!--link Locomotive to LocomotiveModel--><g class="link" data-entity-1="Locomotive" data-entity-2="LocomotiveModel" data-source-line="82" data-uid="lnk18" id="link_Locomotive_LocomotiveModel"><path codeLine="82" d="M227,1340.85 C227,1360.13 227,1374.72 227,1394" fill="none" id="Locomotive-to-LocomotiveModel" style="stroke:#181818;stroke-width:1;"/><polygon fill="#181818" points="227,1400,231,1391,227,1395,223,1391,227,1400" style="stroke:#181818;stroke-width:1;"/></g><!--link Simulation to Scenario--><g class="link" data-entity-1="Simulation" data-entity-2="Scenario" data-source-line="83" data-uid="lnk19" id="link_Simulation_Scenario"><path codeLine="83" d="M170.66,507.46 C183.12,527.55 193.5683,544.3906 204.2883,561.6806" fill="none" id="Simulation-to-Scenario" style="stroke:#181818;stroke-width:1;"/><polygon fill="#181818" points="207.45,566.78,206.1071,557.0231,204.8153,562.5305,199.3079,561.2387,207.45,566.78" style="stroke:#181818;stroke-width:1;"/></g><!--SRC=[VLH1Rjim4Bpp5OGlQMCmGAv2Qo3moK2A1B5ww96bDWu1YbH9oeLXz3rzGL-GZtKfIg94Mxa8vCpExd2Nb53SEVeedNzGghHSQhSrsbkZ5DWpOTG7x0KQuwGtzbJa08OuOtsK5dG_hf70h-TQG45JF2MC4NO0dw1FdujfFkJAUGqCAFEgZAmfHewkdrihthY32eExytpfy4qC2xQW2l3JwrN9J144tafzK7D1I1q9yeSGSTcwxxipMTjMXy2ZaHLPLz8rYfycAOAqr-vbtIhkfT7dIRTeCI4k9u3qjMQWvnqcq5p0l9_hvNwcKsG1u-3Tl9TeiiBwKlkXPchCD6wUznnrNuCEnq-L4QOsNXwXI4l4Vx-1XPtVkQ9lCgE2suCfjk7RLVGcKbWm7qIwUJY3jCbdAum-Gay6ebpE-3YQmnFKfW9LJB1l0S3Z-5CJHfQ8CW01HSuq-mQWwblcGAbdAyE3wFQqHXCUT7mZ7VJQWjeQxdo_v-9NAt4eU1LwPMNQdmfei0cwhND7eTbuZwp_0TmETPAFg4PeAV5LLpItHJMlONmCh3jkteF9Q0HcizAWjulVINwNm-kuUG75t_- -_mD7ilT5x-usIxyhie1tcicJ-Z2ijqg61MLiGrVtgzndjezXjp4iaYWQn9E_ObgE_EqgDOwaPKTcqoNf61qzkFmF]--></g></svg>