<svg xmlns="http://www.w3.org/2000/svg" xmlns:xlink="http://www.w3.org/1999/xlink" contentStyleType="text/css" data-diagram-type="SEQUENCE" height="277px" preserveAspectRatio="none" style="width:279px;height:277px;background:#FFFFFF;" version="1.1" viewBox="0 0 279 277" width="279px" zoomAndPan="magnify"><title>US011 - I want to list all trains</title><defs/><g><text fill="#000000" font-family="sans-serif" font-size="14" font-weight="bold" lengthAdjust="spacing" textLength="240.9736" x="18.3591" y="27.9951">US011 - I want to list all trains</text><g><title>Player</title><rect fill="#000000" fill-opacity="0.00000" height="78.2656" width="8" x="25.7827" y="118.5938"/><line style="stroke:#181818;stroke-width:0.5;stroke-dasharray:5.0,5.0;" x1="29" x2="29" y1="118.5938" y2="196.8594"/></g><g><title>System</title><rect fill="#000000" fill-opacity="0.00000" height="78.2656" width="8" x="236.5889" y="118.5938"/><line style="stroke:#181818;stroke-width:0.5;stroke-dasharray:5.0,5.0;" x1="240.4858" x2="240.4858" y1="118.5938" y2="196.8594"/></g><g class="participant participant-head" data-participant="Player"><text fill="#000000" font-family="sans-serif" font-size="14" lengthAdjust="spacing" textLength="43.5654" x="5" y="115.292">Player</text><ellipse cx="29.7827" cy="50.7969" fill="#E2E2F0" rx="8" ry="8" style="stroke:#181818;stroke-width:0.5;"/><path d="M29.7827,58.7969 L29.7827,85.7969 M16.7827,66.7969 L42.7827,66.7969 M29.7827,85.7969 L16.7827,100.7969 M29.7827,85.7969 L42.7827,100.7969" fill="none" style="stroke:#181818;stroke-width:0.5;"/></g><g class="participant participant-tail" data-participant="Player"><text fill="#000000" font-family="sans-serif" font-size="14" lengthAdjust="spacing" textLength="43.5654" x="5" y="208.8545">Player</text><ellipse cx="29.7827" cy="220.6563" fill="#E2E2F0" rx="8" ry="8" style="stroke:#181818;stroke-width:0.5;"/><path d="M29.7827,228.6563 L29.7827,255.6563 M16.7827,236.6563 L42.7827,236.6563 M29.7827,255.6563 L16.7827,270.6563 M29.7827,255.6563 L42.7827,270.6563" fill="none" style="stroke:#181818;stroke-width:0.5;"/></g><g class="participant participant-head" data-participant="System"><rect fill="#E2E2F0" height="30.2969" rx="2.5" ry="2.5" style="stroke:#181818;stroke-width:0.5;" width="66.2061" x="207.4858" y="87.2969"/><text fill="#000000" font-family="sans-serif" font-size="14" lengthAdjust="spacing" textLength="52.2061" x="214.4858" y="107.292">System</text></g><g class="participant participant-tail" data-participant="System"><rect fill="#E2E2F0" height="30.2969" rx="2.5" ry="2.5" style="stroke:#181818;stroke-width:0.5;" width="66.2061" x="207.4858" y="195.8594"/><text fill="#000000" font-family="sans-serif" font-size="14" lengthAdjust="spacing" textLength="52.2061" x="214.4858" y="215.8545">System</text></g><g class="message" data-participant-1="Player" data-participant-2="System"><polygon fill="#181818" points="228.5889,145.7266,238.5889,149.7266,228.5889,153.7266,232.5889,149.7266" style="stroke:#181818;stroke-width:1;"/><line style="stroke:#181818;stroke-width:1;" x1="29.7827" x2="234.5889" y1="149.7266" y2="149.7266"/><text fill="#000000" font-family="sans-serif" font-size="13" font-weight="bold" lengthAdjust="spacing" textLength="9.0454" x="36.7827" y="144.6606">1</text><text fill="#000000" font-family="sans-serif" font-size="13" lengthAdjust="spacing" textLength="139.4072" x="49.8281" y="144.6606">Select "List all trains"</text></g><g class="message" data-participant-1="System" data-participant-2="Player"><polygon fill="#181818" points="40.7827,174.8594,30.7827,178.8594,40.7827,182.8594,36.7827,178.8594" style="stroke:#181818;stroke-width:1;"/><line style="stroke:#181818;stroke-width:1;stroke-dasharray:2.0,2.0;" x1="34.7827" x2="239.5889" y1="178.8594" y2="178.8594"/><text fill="#000000" font-family="sans-serif" font-size="13" font-weight="bold" lengthAdjust="spacing" textLength="9.0454" x="46.7827" y="173.7935">2</text><text fill="#000000" font-family="sans-serif" font-size="13" lengthAdjust="spacing" textLength="173.7607" x="59.8281" y="173.7935">Display the list of all trains</text></g><!--SRC=[LSn12i8m50JGVKunT1zejoAkt1Iw4887-9Ol1dwJaamflRs5ekXoXZSZ2tDQfeSM9oDpmSrasmCZJN4FRTV1eySgYM26nKg86LWafkhSuU4l25kbJYS4DHs9PlYdpOUUlV_QQwppte8lFQxpysVo1W00]--></g></svg>