<svg xmlns="http://www.w3.org/2000/svg" xmlns:xlink="http://www.w3.org/1999/xlink" contentStyleType="text/css" data-diagram-type="CLASS" height="1898px" preserveAspectRatio="none" style="width:2121px;height:1898px;background:#FFFFFF;" version="1.1" viewBox="0 0 2121 1898" width="2121px" zoomAndPan="magnify"><defs/><g><!--class CityEditorUI--><g class="entity" data-entity="CityEditorUI" data-source-line="1" data-uid="ent0002" id="entity_CityEditorUI"><rect fill="#F1F1F1" height="520.6094" rx="2.5" ry="2.5" style="stroke:#181818;stroke-width:0.5;" width="327.4785" x="762.3" y="7"/><ellipse cx="880.1652" cy="23" fill="#ADD1B2" rx="11" ry="11" style="stroke:#181818;stroke-width:1;"/><path d="M883.134,28.6406 Q882.5559,28.9375 881.9152,29.0781 Q881.2746,29.2344 880.5715,29.2344 Q878.0715,29.2344 876.7434,27.5938 Q875.4309,25.9375 875.4309,22.8125 Q875.4309,19.6875 876.7434,18.0313 Q878.0715,16.375 880.5715,16.375 Q881.2746,16.375 881.9152,16.5313 Q882.5715,16.6875 883.134,16.9844 L883.134,19.7031 Q882.509,19.125 881.9152,18.8594 Q881.3215,18.5781 880.6965,18.5781 Q879.3527,18.5781 878.6652,19.6563 Q877.9777,20.7188 877.9777,22.8125 Q877.9777,24.9063 878.6652,25.9844 Q879.3527,27.0469 880.6965,27.0469 Q881.3215,27.0469 881.9152,26.7813 Q882.509,26.5 883.134,25.9219 L883.134,28.6406 Z " fill="#000000"/><text fill="#000000" font-family="sans-serif" font-size="14" lengthAdjust="spacing" textLength="83.248" x="900.6652" y="27.8467">CityEditorUI</text><line style="stroke:#181818;stroke-width:0.5;" x1="763.3" x2="1088.7785" y1="39" y2="39"/><rect fill="none" height="6" style="stroke:#C82930;stroke-width:1;" width="6" x="770.3" y="49.6484"/><text fill="#000000" font-family="sans-serif" font-size="14" lengthAdjust="spacing" textLength="117.6123" x="782.3" y="55.9951">cityName: String</text><rect fill="none" height="6" style="stroke:#C82930;stroke-width:1;" width="6" x="770.3" y="65.9453"/><text fill="#000000" font-family="sans-serif" font-size="14" lengthAdjust="spacing" textLength="175.2939" x="782.3" y="72.292">houseBlocksQuantity: int</text><rect fill="none" height="6" style="stroke:#C82930;stroke-width:1;" width="6" x="770.3" y="82.2422"/><text fill="#000000" font-family="sans-serif" font-size="14" lengthAdjust="spacing" textLength="62.3711" x="782.3" y="88.5889">cityX: int</text><rect fill="none" height="6" style="stroke:#C82930;stroke-width:1;" width="6" x="770.3" y="98.5391"/><text fill="#000000" font-family="sans-serif" font-size="14" lengthAdjust="spacing" textLength="61.332" x="782.3" y="104.8857">cityY: int</text><rect fill="none" height="6" style="stroke:#C82930;stroke-width:1;" width="6" x="770.3" y="114.8359"/><text fill="#000000" font-family="sans-serif" font-size="14" lengthAdjust="spacing" textLength="117.0928" x="782.3" y="121.1826">houseBlockX: int</text><rect fill="none" height="6" style="stroke:#C82930;stroke-width:1;" width="6" x="770.3" y="131.1328"/><text fill="#000000" font-family="sans-serif" font-size="14" lengthAdjust="spacing" textLength="116.0537" x="782.3" y="137.4795">houseBlockY: int</text><rect fill="none" height="6" style="stroke:#C82930;stroke-width:1;" width="6" x="770.3" y="147.4297"/><text fill="#000000" font-family="sans-serif" font-size="14" lengthAdjust="spacing" textLength="190.7705" x="782.3" y="153.7764">maxQuantityPassenger: int</text><rect fill="none" height="6" style="stroke:#C82930;stroke-width:1;" width="6" x="770.3" y="163.7266"/><text fill="#000000" font-family="sans-serif" font-size="14" lengthAdjust="spacing" textLength="146.8564" x="782.3" y="170.0732">maxQuantityMail: int</text><rect fill="none" height="6" style="stroke:#C82930;stroke-width:1;" width="6" x="770.3" y="180.0234"/><text fill="#000000" font-family="sans-serif" font-size="14" lengthAdjust="spacing" textLength="146.4053" x="782.3" y="186.3701">productName: String</text><rect fill="none" height="6" style="stroke:#C82930;stroke-width:1;" width="6" x="770.3" y="196.3203"/><text fill="#000000" font-family="sans-serif" font-size="14" lengthAdjust="spacing" textLength="301.4785" x="782.3" y="202.667">houseBlocksPositionsTemp: List&lt;Position&gt;</text><rect fill="none" height="6" style="stroke:#C82930;stroke-width:1;" width="6" x="770.3" y="212.6172"/><text fill="#000000" font-family="sans-serif" font-size="14" lengthAdjust="spacing" textLength="157.0283" x="782.3" y="218.9639">positioningMethod: int</text><rect fill="none" height="6" style="stroke:#C82930;stroke-width:1;" width="6" x="770.3" y="228.9141"/><text fill="#000000" font-family="sans-serif" font-size="14" lengthAdjust="spacing" textLength="199.001" x="782.3" y="235.2607">currentHouseBlockIndex: int</text><rect fill="none" height="6" style="stroke:#C82930;stroke-width:1;" width="6" x="770.3" y="245.2109"/><text fill="#000000" font-family="sans-serif" font-size="14" lengthAdjust="spacing" textLength="61.9678" x="782.3" y="251.5576">city: City</text><rect fill="none" height="6" style="stroke:#C82930;stroke-width:1;" width="6" x="770.3" y="261.5078"/><text fill="#000000" font-family="sans-serif" font-size="14" lengthAdjust="spacing" textLength="214.3066" x="782.3" y="267.8545">controller: CityEditorController</text><line style="stroke:#181818;stroke-width:1;" x1="763.3" x2="1088.7785" y1="275.1563" y2="275.1563"/><ellipse cx="773.3" cy="288.8047" fill="#84BE84" rx="3" ry="3" style="stroke:#038048;stroke-width:1;"/><text fill="#000000" font-family="sans-serif" font-size="14" lengthAdjust="spacing" textLength="73.2197" x="782.3" y="292.1514">run(): void</text><rect fill="#F24D5C" height="6" style="stroke:#C82930;stroke-width:1;" width="6" x="770.3" y="302.1016"/><text fill="#000000" font-family="sans-serif" font-size="14" lengthAdjust="spacing" textLength="150.2949" x="782.3" y="308.4482">readCityName(): void</text><rect fill="#F24D5C" height="6" style="stroke:#C82930;stroke-width:1;" width="6" x="770.3" y="318.3984"/><text fill="#000000" font-family="sans-serif" font-size="14" lengthAdjust="spacing" textLength="118.583" x="782.3" y="324.7451">readCityX(): void</text><rect fill="#F24D5C" height="6" style="stroke:#C82930;stroke-width:1;" width="6" x="770.3" y="334.6953"/><text fill="#000000" font-family="sans-serif" font-size="14" lengthAdjust="spacing" textLength="117.5439" x="782.3" y="341.042">readCityY(): void</text><rect fill="#F24D5C" height="6" style="stroke:#C82930;stroke-width:1;" width="6" x="770.3" y="350.9922"/><text fill="#000000" font-family="sans-serif" font-size="14" lengthAdjust="spacing" textLength="231.082" x="782.3" y="357.3389">readHouseBlocksQuantity(): void</text><rect fill="#F24D5C" height="6" style="stroke:#C82930;stroke-width:1;" width="6" x="770.3" y="367.2891"/><text fill="#000000" font-family="sans-serif" font-size="14" lengthAdjust="spacing" textLength="210.7178" x="782.3" y="373.6357">readPositioningMethod(): void</text><rect fill="#F24D5C" height="6" style="stroke:#C82930;stroke-width:1;" width="6" x="770.3" y="383.5859"/><text fill="#000000" font-family="sans-serif" font-size="14" lengthAdjust="spacing" textLength="172.8809" x="782.3" y="389.9326">readHouseBlockX(): void</text><rect fill="#F24D5C" height="6" style="stroke:#C82930;stroke-width:1;" width="6" x="770.3" y="399.8828"/><text fill="#000000" font-family="sans-serif" font-size="14" lengthAdjust="spacing" textLength="171.8418" x="782.3" y="406.2295">readHouseBlockY(): void</text><rect fill="#F24D5C" height="6" style="stroke:#C82930;stroke-width:1;" width="6" x="770.3" y="416.1797"/><text fill="#000000" font-family="sans-serif" font-size="14" lengthAdjust="spacing" textLength="298.6143" x="782.3" y="422.5264">generateHouseBlocksAutomatically(): void</text><rect fill="#F24D5C" height="6" style="stroke:#C82930;stroke-width:1;" width="6" x="770.3" y="432.4766"/><text fill="#000000" font-family="sans-serif" font-size="14" lengthAdjust="spacing" textLength="173.9951" x="782.3" y="438.8232">finalizeCreateCity(): void</text><rect fill="#F24D5C" height="6" style="stroke:#C82930;stroke-width:1;" width="6" x="770.3" y="448.7734"/><text fill="#000000" font-family="sans-serif" font-size="14" lengthAdjust="spacing" textLength="190.1416" x="782.3" y="455.1201">readMaxPassengers(): void</text><rect fill="#F24D5C" height="6" style="stroke:#C82930;stroke-width:1;" width="6" x="770.3" y="465.0703"/><text fill="#000000" font-family="sans-serif" font-size="14" lengthAdjust="spacing" textLength="138.9336" x="782.3" y="471.417">readMaxMail(): void</text><rect fill="#F24D5C" height="6" style="stroke:#C82930;stroke-width:1;" width="6" x="770.3" y="481.3672"/><text fill="#000000" font-family="sans-serif" font-size="14" lengthAdjust="spacing" textLength="135.2627" x="782.3" y="487.7139">readProduct(): void</text><rect fill="#F24D5C" height="6" style="stroke:#C82930;stroke-width:1;" width="6" x="770.3" y="497.6641"/><text fill="#000000" font-family="sans-serif" font-size="14" lengthAdjust="spacing" textLength="121.9053" x="782.3" y="504.0107">createCity(): void</text><rect fill="#F24D5C" height="6" style="stroke:#C82930;stroke-width:1;" width="6" x="770.3" y="513.9609"/><text fill="#000000" font-family="sans-serif" font-size="14" lengthAdjust="spacing" textLength="281.4629" x="782.3" y="520.3076">isValidCityName(name: String): boolean</text></g><!--class CityEditorController--><g class="entity" data-entity="CityEditorController" data-source-line="34" data-uid="ent0003" id="entity_CityEditorController"><rect fill="#F1F1F1" height="210.9688" rx="2.5" ry="2.5" style="stroke:#181818;stroke-width:0.5;" width="766.8926" x="542.6" y="604.61"/><ellipse cx="852.7738" cy="620.61" fill="#ADD1B2" rx="11" ry="11" style="stroke:#181818;stroke-width:1;"/><path d="M855.7426,626.2506 Q855.1645,626.5475 854.5238,626.6881 Q853.8832,626.8444 853.1801,626.8444 Q850.6801,626.8444 849.352,625.2037 Q848.0395,623.5475 848.0395,620.4225 Q848.0395,617.2975 849.352,615.6412 Q850.6801,613.985 853.1801,613.985 Q853.8832,613.985 854.5238,614.1412 Q855.1801,614.2975 855.7426,614.5944 L855.7426,617.3131 Q855.1176,616.735 854.5238,616.4694 Q853.9301,616.1881 853.3051,616.1881 Q851.9613,616.1881 851.2738,617.2662 Q850.5863,618.3287 850.5863,620.4225 Q850.5863,622.5162 851.2738,623.5944 Q851.9613,624.6569 853.3051,624.6569 Q853.9301,624.6569 854.5238,624.3912 Q855.1176,624.11 855.7426,623.5319 L855.7426,626.2506 Z " fill="#000000"/><text fill="#000000" font-family="sans-serif" font-size="14" lengthAdjust="spacing" textLength="138.0449" x="873.2738" y="625.4567">CityEditorController</text><line style="stroke:#181818;stroke-width:0.5;" x1="543.6" x2="1308.4926" y1="636.61" y2="636.61"/><rect fill="none" height="6" style="stroke:#C82930;stroke-width:1;" width="6" x="550.6" y="647.2584"/><text fill="#000000" font-family="sans-serif" font-size="14" lengthAdjust="spacing" textLength="250.6875" x="562.6" y="653.6051">houseBlocksList: List&lt;HouseBlock&gt;</text><rect fill="none" height="6" style="stroke:#C82930;stroke-width:1;" width="6" x="550.6" y="663.5553"/><text fill="#000000" font-family="sans-serif" font-size="14" lengthAdjust="spacing" textLength="155.3398" x="562.6" y="669.902">repository: Repository</text><rect fill="none" height="6" style="stroke:#C82930;stroke-width:1;" width="6" x="550.6" y="679.8522"/><text fill="#000000" font-family="sans-serif" font-size="14" lengthAdjust="spacing" textLength="235.04" x="562.6" y="686.1989">locationRepo: LocationRepository</text><line style="stroke:#181818;stroke-width:1;" x1="543.6" x2="1308.4926" y1="693.5006" y2="693.5006"/><ellipse cx="553.6" cy="707.1491" fill="#84BE84" rx="3" ry="3" style="stroke:#038048;stroke-width:1;"/><text fill="#000000" font-family="sans-serif" font-size="14" lengthAdjust="spacing" textLength="310.9463" x="562.6" y="710.4957">createCityBlock(city: City, x: int, y: int): void</text><ellipse cx="553.6" cy="723.4459" fill="#84BE84" rx="3" ry="3" style="stroke:#038048;stroke-width:1;"/><text fill="#000000" font-family="sans-serif" font-size="14" lengthAdjust="spacing" textLength="740.8926" x="562.6" y="726.7926">createCity(name: String, position: Position, maxPassengers: int, maxMail: int, product: ProductType): City</text><ellipse cx="553.6" cy="739.7428" fill="#84BE84" rx="3" ry="3" style="stroke:#038048;stroke-width:1;"/><text fill="#000000" font-family="sans-serif" font-size="14" lengthAdjust="spacing" textLength="437.9648" x="562.6" y="743.0895">deleteFailedHouseBlocks(failedPositions: List&lt;Position&gt;): void</text><ellipse cx="553.6" cy="756.0397" fill="#84BE84" rx="3" ry="3" style="stroke:#038048;stroke-width:1;"/><text fill="#000000" font-family="sans-serif" font-size="14" lengthAdjust="spacing" textLength="262.6436" x="562.6" y="759.3864">createHouseBlockList(city: City): void</text><ellipse cx="553.6" cy="772.3366" fill="#84BE84" rx="3" ry="3" style="stroke:#038048;stroke-width:1;"/><text fill="#000000" font-family="sans-serif" font-size="14" lengthAdjust="spacing" textLength="188.8223" x="562.6" y="775.6832">printHouseBlockList(): void</text><ellipse cx="553.6" cy="788.6334" fill="#84BE84" rx="3" ry="3" style="stroke:#038048;stroke-width:1;"/><text fill="#000000" font-family="sans-serif" font-size="14" lengthAdjust="spacing" textLength="334.6807" x="562.6" y="791.9801">getProductByName(name: String): ProductType</text><ellipse cx="553.6" cy="804.9303" fill="#84BE84" rx="3" ry="3" style="stroke:#038048;stroke-width:1;"/><text fill="#000000" font-family="sans-serif" font-size="14" lengthAdjust="spacing" textLength="210.0547" x="562.6" y="808.277">getAvailableProducts(): String</text></g><!--class HouseBlock--><g class="entity" data-entity="HouseBlock" data-source-line="48" data-uid="ent0004" id="entity_HouseBlock"><rect fill="#F1F1F1" height="145.7813" rx="2.5" ry="2.5" style="stroke:#181818;stroke-width:0.5;" width="237.3877" x="233.35" y="1745.56"/><ellipse cx="306.9252" cy="1761.56" fill="#ADD1B2" rx="11" ry="11" style="stroke:#181818;stroke-width:1;"/><path d="M309.8939,1767.2006 Q309.3158,1767.4975 308.6752,1767.6381 Q308.0346,1767.7944 307.3314,1767.7944 Q304.8314,1767.7944 303.5033,1766.1538 Q302.1908,1764.4975 302.1908,1761.3725 Q302.1908,1758.2475 303.5033,1756.5913 Q304.8314,1754.935 307.3314,1754.935 Q308.0346,1754.935 308.6752,1755.0913 Q309.3314,1755.2475 309.8939,1755.5444 L309.8939,1758.2631 Q309.2689,1757.685 308.6752,1757.4194 Q308.0814,1757.1381 307.4564,1757.1381 Q306.1127,1757.1381 305.4252,1758.2163 Q304.7377,1759.2788 304.7377,1761.3725 Q304.7377,1763.4663 305.4252,1764.5444 Q306.1127,1765.6069 307.4564,1765.6069 Q308.0814,1765.6069 308.6752,1765.3413 Q309.2689,1765.06 309.8939,1764.4819 L309.8939,1767.2006 Z " fill="#000000"/><text fill="#000000" font-family="sans-serif" font-size="14" lengthAdjust="spacing" textLength="81.7373" x="327.4252" y="1766.4067">HouseBlock</text><line style="stroke:#181818;stroke-width:0.5;" x1="234.35" x2="469.7377" y1="1777.56" y2="1777.56"/><rect fill="none" height="6" style="stroke:#C82930;stroke-width:1;" width="6" x="241.35" y="1788.2084"/><text fill="#000000" font-family="sans-serif" font-size="14" lengthAdjust="spacing" textLength="119.6289" x="253.35" y="1794.5551">position: Position</text><rect fill="none" height="6" style="stroke:#C82930;stroke-width:1;" width="6" x="241.35" y="1804.5053"/><text fill="#000000" font-family="sans-serif" font-size="14" lengthAdjust="spacing" textLength="124.1748" x="253.35" y="1810.852">location: Location</text><rect fill="none" height="6" style="stroke:#C82930;stroke-width:1;" width="6" x="241.35" y="1820.8022"/><text fill="#000000" font-family="sans-serif" font-size="14" lengthAdjust="spacing" textLength="155.3398" x="253.35" y="1827.1489">repository: Repository</text><rect fill="none" height="6" style="stroke:#C82930;stroke-width:1;" width="6" x="241.35" y="1837.0991"/><text fill="#000000" font-family="sans-serif" font-size="14" lengthAdjust="spacing" textLength="142.707" x="253.35" y="1843.4457">simulator: Simulator</text><line style="stroke:#181818;stroke-width:1;" x1="234.35" x2="469.7377" y1="1850.7475" y2="1850.7475"/><ellipse cx="244.35" cy="1864.3959" fill="#84BE84" rx="3" ry="3" style="stroke:#038048;stroke-width:1;"/><text fill="#000000" font-family="sans-serif" font-size="14" lengthAdjust="spacing" textLength="211.3877" x="253.35" y="1867.7426">addPosition(x: int, y: int): void</text><ellipse cx="244.35" cy="1880.6928" fill="#84BE84" rx="3" ry="3" style="stroke:#038048;stroke-width:1;"/><text fill="#000000" font-family="sans-serif" font-size="14" lengthAdjust="spacing" textLength="153.0977" x="253.35" y="1884.0395">getPosition(): Position</text></g><!--class Repository--><g class="entity" data-entity="Repository" data-source-line="58" data-uid="ent0005" id="entity_Repository"><rect fill="#F1F1F1" height="210.9688" rx="2.5" ry="2.5" style="stroke:#181818;stroke-width:0.5;" width="338.1426" x="1775.97" y="941.46"/><ellipse cx="1903.2552" cy="957.46" fill="#ADD1B2" rx="11" ry="11" style="stroke:#181818;stroke-width:1;"/><path d="M1906.2239,963.1006 Q1905.6458,963.3975 1905.0052,963.5381 Q1904.3645,963.6944 1903.6614,963.6944 Q1901.1614,963.6944 1899.8333,962.0537 Q1898.5208,960.3975 1898.5208,957.2725 Q1898.5208,954.1475 1899.8333,952.4912 Q1901.1614,950.835 1903.6614,950.835 Q1904.3645,950.835 1905.0052,950.9912 Q1905.6614,951.1475 1906.2239,951.4444 L1906.2239,954.1631 Q1905.5989,953.585 1905.0052,953.3194 Q1904.4114,953.0381 1903.7864,953.0381 Q1902.4427,953.0381 1901.7552,954.1162 Q1901.0677,955.1787 1901.0677,957.2725 Q1901.0677,959.3662 1901.7552,960.4444 Q1902.4427,961.5069 1903.7864,961.5069 Q1904.4114,961.5069 1905.0052,961.2412 Q1905.5989,960.96 1906.2239,960.3819 L1906.2239,963.1006 Z " fill="#000000"/><text fill="#000000" font-family="sans-serif" font-size="14" lengthAdjust="spacing" textLength="75.0723" x="1923.7552" y="962.3067">Repository</text><line style="stroke:#181818;stroke-width:0.5;" x1="1776.97" x2="2113.1126" y1="973.46" y2="973.46"/><rect fill="none" height="6" style="stroke:#C82930;stroke-width:1;" width="6" x="1783.97" y="984.1084"/><text fill="#000000" font-family="sans-serif" font-size="14" lengthAdjust="spacing" textLength="143.5479" x="1795.97" y="990.4551">instance: Repository</text><rect fill="none" height="6" style="stroke:#C82930;stroke-width:1;" width="6" x="1783.97" y="1000.4053"/><text fill="#000000" font-family="sans-serif" font-size="14" lengthAdjust="spacing" textLength="181.9453" x="1795.97" y="1006.752">currentScenario: Scenario</text><rect fill="none" height="6" style="stroke:#C82930;stroke-width:1;" width="6" x="1783.97" y="1016.7022"/><text fill="#000000" font-family="sans-serif" font-size="14" lengthAdjust="spacing" textLength="119.3145" x="1795.97" y="1023.0489">currentMap: Map</text><line style="stroke:#181818;stroke-width:1;" x1="1776.97" x2="2113.1126" y1="1030.3506" y2="1030.3506"/><ellipse cx="1786.97" cy="1043.9991" fill="#84BE84" rx="3" ry="3" style="stroke:#038048;stroke-width:1;"/><text fill="#000000" font-family="sans-serif" font-size="14" lengthAdjust="spacing" textLength="306.9951" x="1795.97" y="1047.3457">getInstance(scenario: Scenario): Repository</text><ellipse cx="1786.97" cy="1060.2959" fill="#84BE84" rx="3" ry="3" style="stroke:#038048;stroke-width:1;"/><text fill="#000000" font-family="sans-serif" font-size="14" lengthAdjust="spacing" textLength="177.7002" x="1795.97" y="1063.6426">getInstance(): Repository</text><ellipse cx="1786.97" cy="1076.5928" fill="#84BE84" rx="3" ry="3" style="stroke:#038048;stroke-width:1;"/><text fill="#000000" font-family="sans-serif" font-size="14" lengthAdjust="spacing" textLength="155.3057" x="1795.97" y="1079.9395">getCurrentMap(): Map</text><ellipse cx="1786.97" cy="1092.8897" fill="#84BE84" rx="3" ry="3" style="stroke:#038048;stroke-width:1;"/><text fill="#000000" font-family="sans-serif" font-size="14" lengthAdjust="spacing" textLength="217.9365" x="1795.97" y="1096.2364">getCurrentScenario(): Scenario</text><ellipse cx="1786.97" cy="1109.1866" fill="#84BE84" rx="3" ry="3" style="stroke:#038048;stroke-width:1;"/><text fill="#000000" font-family="sans-serif" font-size="14" lengthAdjust="spacing" textLength="312.1426" x="1795.97" y="1112.5332">getLocationRepository(): LocationRepository</text><ellipse cx="1786.97" cy="1125.4834" fill="#84BE84" rx="3" ry="3" style="stroke:#038048;stroke-width:1;"/><text fill="#000000" font-family="sans-serif" font-size="14" lengthAdjust="spacing" textLength="248.1035" x="1795.97" y="1128.8301">getCityRepository(): CityRepository</text><ellipse cx="1786.97" cy="1141.7803" fill="#84BE84" rx="3" ry="3" style="stroke:#038048;stroke-width:1;"/><text fill="#000000" font-family="sans-serif" font-size="14" lengthAdjust="spacing" textLength="192.2266" x="1795.97" y="1145.127">getSimulation(): Simulation</text></g><!--class LocationRepository--><g class="entity" data-entity="LocationRepository" data-source-line="72" data-uid="ent0006" id="entity_LocationRepository"><rect fill="#F1F1F1" height="178.375" rx="2.5" ry="2.5" style="stroke:#181818;stroke-width:0.5;" width="337.4795" x="757.3" y="1384.25"/><ellipse cx="854.5241" cy="1400.25" fill="#ADD1B2" rx="11" ry="11" style="stroke:#181818;stroke-width:1;"/><path d="M857.4929,1405.8906 Q856.9147,1406.1875 856.2741,1406.3281 Q855.6335,1406.4844 854.9304,1406.4844 Q852.4304,1406.4844 851.1022,1404.8438 Q849.7897,1403.1875 849.7897,1400.0625 Q849.7897,1396.9375 851.1022,1395.2813 Q852.4304,1393.625 854.9304,1393.625 Q855.6335,1393.625 856.2741,1393.7813 Q856.9304,1393.9375 857.4929,1394.2344 L857.4929,1396.9531 Q856.8679,1396.375 856.2741,1396.1094 Q855.6804,1395.8281 855.0554,1395.8281 Q853.7116,1395.8281 853.0241,1396.9063 Q852.3366,1397.9688 852.3366,1400.0625 Q852.3366,1402.1563 853.0241,1403.2344 Q853.7116,1404.2969 855.0554,1404.2969 Q855.6804,1404.2969 856.2741,1404.0313 Q856.8679,1403.75 857.4929,1403.1719 L857.4929,1405.8906 Z " fill="#000000"/><text fill="#000000" font-family="sans-serif" font-size="14" lengthAdjust="spacing" textLength="134.5313" x="875.0241" y="1405.0967">LocationRepository</text><line style="stroke:#181818;stroke-width:0.5;" x1="758.3" x2="1093.7795" y1="1416.25" y2="1416.25"/><rect fill="none" height="6" style="stroke:#C82930;stroke-width:1;" width="6" x="765.3" y="1426.8984"/><text fill="#000000" font-family="sans-serif" font-size="14" lengthAdjust="spacing" textLength="237.9932" x="777.3" y="1433.2451">m_locations: ArrayList&lt;Location&gt;</text><line style="stroke:#181818;stroke-width:1;" x1="758.3" x2="1093.7795" y1="1440.5469" y2="1440.5469"/><ellipse cx="768.3" cy="1454.1953" fill="#84BE84" rx="3" ry="3" style="stroke:#038048;stroke-width:1;"/><text fill="#000000" font-family="sans-serif" font-size="14" lengthAdjust="spacing" textLength="272.9111" x="777.3" y="1457.542">deleteLocation(position: Position): void</text><ellipse cx="768.3" cy="1470.4922" fill="#84BE84" rx="3" ry="3" style="stroke:#038048;stroke-width:1;"/><text fill="#000000" font-family="sans-serif" font-size="14" lengthAdjust="spacing" textLength="255.1787" x="777.3" y="1473.8389">getLocations(): ArrayList&lt;Location&gt;</text><ellipse cx="768.3" cy="1486.7891" fill="#84BE84" rx="3" ry="3" style="stroke:#038048;stroke-width:1;"/><text fill="#000000" font-family="sans-serif" font-size="14" lengthAdjust="spacing" textLength="242.3066" x="777.3" y="1490.1357">getLocation(x: int, y: int): Location</text><ellipse cx="768.3" cy="1503.0859" fill="#84BE84" rx="3" ry="3" style="stroke:#038048;stroke-width:1;"/><text fill="#000000" font-family="sans-serif" font-size="14" lengthAdjust="spacing" textLength="281.627" x="777.3" y="1506.4326">getLocation(position: Position): Location</text><ellipse cx="768.3" cy="1519.3828" fill="#84BE84" rx="3" ry="3" style="stroke:#038048;stroke-width:1;"/><text fill="#000000" font-family="sans-serif" font-size="14" lengthAdjust="spacing" textLength="311.4795" x="777.3" y="1522.7295">isEmptyLocation(position: Position): boolean</text><ellipse cx="768.3" cy="1535.6797" fill="#84BE84" rx="3" ry="3" style="stroke:#038048;stroke-width:1;"/><text fill="#000000" font-family="sans-serif" font-size="14" lengthAdjust="spacing" textLength="259.7041" x="777.3" y="1539.0264">addLocation(location: Location): void</text><ellipse cx="768.3" cy="1551.9766" fill="#84BE84" rx="3" ry="3" style="stroke:#038048;stroke-width:1;"/><text fill="#000000" font-family="sans-serif" font-size="14" lengthAdjust="spacing" textLength="87.3701" x="777.3" y="1555.3232">clean(): void</text></g><!--class City--><g class="entity" data-entity="City" data-source-line="84" data-uid="ent0007" id="entity_City"><rect fill="#F1F1F1" height="390.2344" rx="2.5" ry="2.5" style="stroke:#181818;stroke-width:0.5;" width="690.084" x="7" y="1278.32"/><ellipse cx="334.0723" cy="1294.32" fill="#ADD1B2" rx="11" ry="11" style="stroke:#181818;stroke-width:1;"/><path d="M337.041,1299.9606 Q336.4629,1300.2575 335.8223,1300.3981 Q335.1816,1300.5544 334.4785,1300.5544 Q331.9785,1300.5544 330.6504,1298.9138 Q329.3379,1297.2575 329.3379,1294.1325 Q329.3379,1291.0075 330.6504,1289.3513 Q331.9785,1287.695 334.4785,1287.695 Q335.1816,1287.695 335.8223,1287.8513 Q336.4785,1288.0075 337.041,1288.3044 L337.041,1291.0231 Q336.416,1290.445 335.8223,1290.1794 Q335.2285,1289.8981 334.6035,1289.8981 Q333.2598,1289.8981 332.5723,1290.9763 Q331.8848,1292.0388 331.8848,1294.1325 Q331.8848,1296.2263 332.5723,1297.3044 Q333.2598,1298.3669 334.6035,1298.3669 Q335.2285,1298.3669 335.8223,1298.1013 Q336.416,1297.82 337.041,1297.2419 L337.041,1299.9606 Z " fill="#000000"/><text fill="#000000" font-family="sans-serif" font-size="14" lengthAdjust="spacing" textLength="27.4395" x="354.5723" y="1299.1667">City</text><line style="stroke:#181818;stroke-width:0.5;" x1="8" x2="696.084" y1="1310.32" y2="1310.32"/><rect fill="none" height="6" style="stroke:#C82930;stroke-width:1;" width="6" x="15" y="1320.9684"/><text fill="#000000" font-family="sans-serif" font-size="14" lengthAdjust="spacing" textLength="155.3398" x="27" y="1327.3151">repository: Repository</text><rect fill="none" height="6" style="stroke:#C82930;stroke-width:1;" width="6" x="15" y="1337.2653"/><text fill="#000000" font-family="sans-serif" font-size="14" lengthAdjust="spacing" textLength="90.6514" x="27" y="1343.612">name: String</text><rect fill="none" height="6" style="stroke:#C82930;stroke-width:1;" width="6" x="15" y="1353.5622"/><text fill="#000000" font-family="sans-serif" font-size="14" lengthAdjust="spacing" textLength="63.7246" x="27" y="1359.9089">id: String</text><rect fill="none" height="6" style="stroke:#C82930;stroke-width:1;" width="6" x="15" y="1369.8591"/><text fill="#000000" font-family="sans-serif" font-size="14" lengthAdjust="spacing" textLength="250.6875" x="27" y="1376.2057">houseBlocksList: List&lt;HouseBlock&gt;</text><rect fill="none" height="6" style="stroke:#C82930;stroke-width:1;" width="6" x="15" y="1386.1559"/><text fill="#000000" font-family="sans-serif" font-size="14" lengthAdjust="spacing" textLength="124.1748" x="27" y="1392.5026">location: Location</text><rect fill="none" height="6" style="stroke:#C82930;stroke-width:1;" width="6" x="15" y="1402.4528"/><text fill="#000000" font-family="sans-serif" font-size="14" lengthAdjust="spacing" textLength="137.5664" x="27" y="1408.7995">maxPassengers: int</text><rect fill="none" height="6" style="stroke:#C82930;stroke-width:1;" width="6" x="15" y="1418.7497"/><text fill="#000000" font-family="sans-serif" font-size="14" lengthAdjust="spacing" textLength="86.3584" x="27" y="1425.0964">maxMail: int</text><rect fill="none" height="6" style="stroke:#C82930;stroke-width:1;" width="6" x="15" y="1435.0466"/><text fill="#000000" font-family="sans-serif" font-size="14" lengthAdjust="spacing" textLength="65.9668" x="27" y="1441.3932">index: int</text><line style="stroke:#181818;stroke-width:1;" x1="8" x2="696.084" y1="1448.695" y2="1448.695"/><ellipse cx="18" cy="1462.3434" fill="#84BE84" rx="3" ry="3" style="stroke:#038048;stroke-width:1;"/><text fill="#000000" font-family="sans-serif" font-size="14" lengthAdjust="spacing" textLength="664.084" x="27" y="1465.6901">City(name: String, location: Location, maxPassengers: int, maxMail: int, product: ProductType)</text><rect fill="#F24D5C" height="6" style="stroke:#C82930;stroke-width:1;" width="6" x="15" y="1475.6403"/><text fill="#000000" font-family="sans-serif" font-size="14" lengthAdjust="spacing" textLength="185.4932" x="27" y="1481.987">generatePassenger(): void</text><rect fill="#F24D5C" height="6" style="stroke:#C82930;stroke-width:1;" width="6" x="15" y="1491.9372"/><text fill="#000000" font-family="sans-serif" font-size="14" lengthAdjust="spacing" textLength="141.5791" x="27" y="1498.2839">generateMail(): void</text><rect fill="#F24D5C" height="6" style="stroke:#C82930;stroke-width:1;" width="6" x="15" y="1508.2341"/><text fill="#000000" font-family="sans-serif" font-size="14" lengthAdjust="spacing" textLength="166.8516" x="27" y="1514.5807">generateProduct(): void</text><ellipse cx="18" cy="1527.5309" fill="#84BE84" rx="3" ry="3" style="stroke:#038048;stroke-width:1;"/><text fill="#000000" font-family="sans-serif" font-size="14" lengthAdjust="spacing" textLength="126.1641" x="27" y="1530.8776">getName(): String</text><ellipse cx="18" cy="1543.8278" fill="#84BE84" rx="3" ry="3" style="stroke:#038048;stroke-width:1;"/><text fill="#000000" font-family="sans-serif" font-size="14" lengthAdjust="spacing" textLength="326.0605" x="27" y="1547.1745">updateStartTimePause(pauseTime: long): void</text><ellipse cx="18" cy="1560.1247" fill="#84BE84" rx="3" ry="3" style="stroke:#038048;stroke-width:1;"/><text fill="#000000" font-family="sans-serif" font-size="14" lengthAdjust="spacing" textLength="261.7822" x="27" y="1563.4714">getHouseBlocks(): List&lt;HouseBlock&gt;</text><ellipse cx="18" cy="1576.4216" fill="#84BE84" rx="3" ry="3" style="stroke:#038048;stroke-width:1;"/><text fill="#000000" font-family="sans-serif" font-size="14" lengthAdjust="spacing" textLength="200.6758" x="27" y="1579.7682">createHouseBlockList(): void</text><ellipse cx="18" cy="1592.7184" fill="#84BE84" rx="3" ry="3" style="stroke:#038048;stroke-width:1;"/><text fill="#000000" font-family="sans-serif" font-size="14" lengthAdjust="spacing" textLength="256.5117" x="27" y="1596.0651">createHouseBlock(x: int, y: int): void</text><ellipse cx="18" cy="1609.0153" fill="#84BE84" rx="3" ry="3" style="stroke:#038048;stroke-width:1;"/><text fill="#000000" font-family="sans-serif" font-size="14" lengthAdjust="spacing" textLength="153.0977" x="27" y="1612.362">getPosition(): Position</text><ellipse cx="18" cy="1625.3122" fill="#84BE84" rx="3" ry="3" style="stroke:#038048;stroke-width:1;"/><text fill="#000000" font-family="sans-serif" font-size="14" lengthAdjust="spacing" textLength="100.1191" x="27" y="1628.6589">getIndex(): int</text><ellipse cx="18" cy="1641.6091" fill="#84BE84" rx="3" ry="3" style="stroke:#038048;stroke-width:1;"/><text fill="#000000" font-family="sans-serif" font-size="14" lengthAdjust="spacing" textLength="253.1895" x="27" y="1644.9557">updateStatus(deltaTime: long): void</text><ellipse cx="18" cy="1657.9059" fill="#84BE84" rx="3" ry="3" style="stroke:#038048;stroke-width:1;"/><text fill="#000000" font-family="sans-serif" font-size="14" lengthAdjust="spacing" textLength="119.1504" x="27" y="1661.2526">produce(): String</text></g><!--class CityRepository--><g class="entity" data-entity="CityRepository" data-source-line="109" data-uid="ent0008" id="entity_CityRepository"><rect fill="#F1F1F1" height="162.0781" rx="2.5" ry="2.5" style="stroke:#181818;stroke-width:0.5;" width="237.9141" x="1578.08" y="1392.4"/><ellipse cx="1641.5312" cy="1408.4" fill="#ADD1B2" rx="11" ry="11" style="stroke:#181818;stroke-width:1;"/><path d="M1644.4999,1414.0406 Q1643.9218,1414.3375 1643.2812,1414.4781 Q1642.6405,1414.6344 1641.9374,1414.6344 Q1639.4374,1414.6344 1638.1093,1412.9937 Q1636.7968,1411.3375 1636.7968,1408.2125 Q1636.7968,1405.0875 1638.1093,1403.4312 Q1639.4374,1401.775 1641.9374,1401.775 Q1642.6405,1401.775 1643.2812,1401.9312 Q1643.9374,1402.0875 1644.4999,1402.3844 L1644.4999,1405.1031 Q1643.8749,1404.525 1643.2812,1404.2594 Q1642.6874,1403.9781 1642.0624,1403.9781 Q1640.7187,1403.9781 1640.0312,1405.0562 Q1639.3437,1406.1187 1639.3437,1408.2125 Q1639.3437,1410.3062 1640.0312,1411.3844 Q1640.7187,1412.4469 1642.0624,1412.4469 Q1642.6874,1412.4469 1643.2812,1412.1812 Q1643.8749,1411.9 1644.4999,1411.3219 L1644.4999,1414.0406 Z " fill="#000000"/><text fill="#000000" font-family="sans-serif" font-size="14" lengthAdjust="spacing" textLength="102.5117" x="1662.0312" y="1413.2467">CityRepository</text><line style="stroke:#181818;stroke-width:0.5;" x1="1579.08" x2="1814.9941" y1="1424.4" y2="1424.4"/><rect fill="none" height="6" style="stroke:#C82930;stroke-width:1;" width="6" x="1586.08" y="1435.0484"/><text fill="#000000" font-family="sans-serif" font-size="14" lengthAdjust="spacing" textLength="159.3662" x="1598.08" y="1441.3951">cities: ArrayList&lt;City&gt;</text><line style="stroke:#181818;stroke-width:1;" x1="1579.08" x2="1814.9941" y1="1448.6969" y2="1448.6969"/><ellipse cx="1589.08" cy="1462.3453" fill="#84BE84" rx="3" ry="3" style="stroke:#038048;stroke-width:1;"/><text fill="#000000" font-family="sans-serif" font-size="14" lengthAdjust="spacing" textLength="113.4355" x="1598.08" y="1465.692">CityRepository()</text><ellipse cx="1589.08" cy="1478.6422" fill="#84BE84" rx="3" ry="3" style="stroke:#038048;stroke-width:1;"/><text fill="#000000" font-family="sans-serif" font-size="14" lengthAdjust="spacing" textLength="211.9141" x="1598.08" y="1481.9889">deleteCity(name: String): void</text><ellipse cx="1589.08" cy="1494.9391" fill="#84BE84" rx="3" ry="3" style="stroke:#038048;stroke-width:1;"/><text fill="#000000" font-family="sans-serif" font-size="14" lengthAdjust="spacing" textLength="195.3574" x="1598.08" y="1498.2857">getCities(): ArrayList&lt;City&gt;</text><ellipse cx="1589.08" cy="1511.2359" fill="#84BE84" rx="3" ry="3" style="stroke:#038048;stroke-width:1;"/><text fill="#000000" font-family="sans-serif" font-size="14" lengthAdjust="spacing" textLength="138.7422" x="1598.08" y="1514.5826">listAllCities(): String</text><ellipse cx="1589.08" cy="1527.5328" fill="#84BE84" rx="3" ry="3" style="stroke:#038048;stroke-width:1;"/><text fill="#000000" font-family="sans-serif" font-size="14" lengthAdjust="spacing" textLength="87.3701" x="1598.08" y="1530.8795">clean(): void</text><ellipse cx="1589.08" cy="1543.8297" fill="#84BE84" rx="3" ry="3" style="stroke:#038048;stroke-width:1;"/><text fill="#000000" font-family="sans-serif" font-size="14" lengthAdjust="spacing" textLength="165.4775" x="1598.08" y="1547.1764">addCity(city: City): void</text></g><!--class Map--><g class="entity" data-entity="Map" data-source-line="120" data-uid="ent0009" id="entity_Map"><rect fill="#F1F1F1" height="178.375" rx="2.5" ry="2.5" style="stroke:#181818;stroke-width:0.5;" width="843.4346" x="504.32" y="957.76"/><ellipse cx="907.0148" cy="973.76" fill="#ADD1B2" rx="11" ry="11" style="stroke:#181818;stroke-width:1;"/><path d="M909.9836,979.4006 Q909.4054,979.6975 908.7648,979.8381 Q908.1242,979.9944 907.4211,979.9944 Q904.9211,979.9944 903.5929,978.3537 Q902.2804,976.6975 902.2804,973.5725 Q902.2804,970.4475 903.5929,968.7912 Q904.9211,967.135 907.4211,967.135 Q908.1242,967.135 908.7648,967.2912 Q909.4211,967.4475 909.9836,967.7444 L909.9836,970.4631 Q909.3586,969.885 908.7648,969.6194 Q908.1711,969.3381 907.5461,969.3381 Q906.2023,969.3381 905.5148,970.4162 Q904.8273,971.4787 904.8273,973.5725 Q904.8273,975.6662 905.5148,976.7444 Q906.2023,977.8069 907.5461,977.8069 Q908.1711,977.8069 908.7648,977.5412 Q909.3586,977.26 909.9836,976.6819 L909.9836,979.4006 Z " fill="#000000"/><text fill="#000000" font-family="sans-serif" font-size="14" lengthAdjust="spacing" textLength="29.5449" x="927.5148" y="978.6067">Map</text><line style="stroke:#181818;stroke-width:0.5;" x1="505.32" x2="1346.7546" y1="989.76" y2="989.76"/><rect fill="none" height="6" style="stroke:#C82930;stroke-width:1;" width="6" x="512.32" y="1000.4084"/><text fill="#000000" font-family="sans-serif" font-size="14" lengthAdjust="spacing" textLength="72.0439" x="524.32" y="1006.7551">length: int</text><rect fill="none" height="6" style="stroke:#C82930;stroke-width:1;" width="6" x="512.32" y="1016.7053"/><text fill="#000000" font-family="sans-serif" font-size="14" lengthAdjust="spacing" textLength="72.0439" x="524.32" y="1023.052">height: int</text><rect fill="none" height="6" style="stroke:#C82930;stroke-width:1;" width="6" x="512.32" y="1033.0022"/><text fill="#000000" font-family="sans-serif" font-size="14" lengthAdjust="spacing" textLength="90.6514" x="524.32" y="1039.3489">name: String</text><rect fill="none" height="6" style="stroke:#C82930;stroke-width:1;" width="6" x="512.32" y="1049.2991"/><text fill="#000000" font-family="sans-serif" font-size="14" lengthAdjust="spacing" textLength="274.3193" x="524.32" y="1055.6457">locationRepository: LocationRepository</text><line style="stroke:#181818;stroke-width:1;" x1="505.32" x2="1346.7546" y1="1062.9475" y2="1062.9475"/><ellipse cx="515.32" cy="1076.5959" fill="#84BE84" rx="3" ry="3" style="stroke:#038048;stroke-width:1;"/><text fill="#000000" font-family="sans-serif" font-size="14" lengthAdjust="spacing" textLength="365.4014" x="524.32" y="1079.9426">Map(name: String, length: int, height: int, scale: int)</text><ellipse cx="515.32" cy="1092.8928" fill="#84BE84" rx="3" ry="3" style="stroke:#038048;stroke-width:1;"/><text fill="#000000" font-family="sans-serif" font-size="14" lengthAdjust="spacing" textLength="303.3857" x="524.32" y="1096.2395">createLocation(position: Position): Location</text><ellipse cx="515.32" cy="1109.1897" fill="#84BE84" rx="3" ry="3" style="stroke:#038048;stroke-width:1;"/><text fill="#000000" font-family="sans-serif" font-size="14" lengthAdjust="spacing" textLength="817.4346" x="524.32" y="1112.5364">createCity(name: String, location: Location, maxPassengers: int, maxMail: int, consumedProduct: ProductType): City</text><ellipse cx="515.32" cy="1125.4866" fill="#84BE84" rx="3" ry="3" style="stroke:#038048;stroke-width:1;"/><text fill="#000000" font-family="sans-serif" font-size="14" lengthAdjust="spacing" textLength="308.2324" x="524.32" y="1128.8332">getlocationRepository(): LocationRepository</text></g><!--class ProductType--><g class="entity" data-entity="ProductType" data-source-line="132" data-uid="ent0010" id="entity_ProductType"><rect fill="#F1F1F1" height="308.75" rx="2.5" ry="2.5" style="stroke:#181818;stroke-width:0.5;" width="358.1309" x="1382.98" y="892.57"/><ellipse cx="1513.772" cy="908.57" fill="#EB937F" rx="11" ry="11" style="stroke:#181818;stroke-width:1;"/><path d="M1517.8814,914.57 L1510.1626,914.57 L1510.1626,902.1794 L1517.8814,902.1794 L1517.8814,904.3356 L1512.6157,904.3356 L1512.6157,907.0075 L1517.3814,907.0075 L1517.3814,909.1637 L1512.6157,909.1637 L1512.6157,912.4137 L1517.8814,912.4137 L1517.8814,914.57 Z " fill="#000000"/><text fill="#000000" font-family="sans-serif" font-size="14" lengthAdjust="spacing" textLength="88.0469" x="1534.272" y="913.4167">ProductType</text><line style="stroke:#181818;stroke-width:0.5;" x1="1383.98" x2="1740.1109" y1="924.57" y2="924.57"/><text fill="#000000" font-family="sans-serif" font-size="14" lengthAdjust="spacing" textLength="53.6416" x="1388.98" y="941.5651">GRAINS</text><text fill="#000000" font-family="sans-serif" font-size="14" lengthAdjust="spacing" textLength="91.3828" x="1388.98" y="957.862">VEGETABLES</text><text fill="#000000" font-family="sans-serif" font-size="14" lengthAdjust="spacing" textLength="54.5918" x="1388.98" y="974.1589">COFFEE</text><text fill="#000000" font-family="sans-serif" font-size="14" lengthAdjust="spacing" textLength="57.7568" x="1388.98" y="990.4557">RUBBER</text><text fill="#000000" font-family="sans-serif" font-size="14" lengthAdjust="spacing" textLength="43.6816" x="1388.98" y="1006.7526">WOOL</text><text fill="#000000" font-family="sans-serif" font-size="14" lengthAdjust="spacing" textLength="35.3486" x="1388.98" y="1023.0495">IRON</text><text fill="#000000" font-family="sans-serif" font-size="14" lengthAdjust="spacing" textLength="38.1719" x="1388.98" y="1039.3464">COAL</text><text fill="#000000" font-family="sans-serif" font-size="14" lengthAdjust="spacing" textLength="42.9297" x="1388.98" y="1055.6432">STEEL</text><text fill="#000000" font-family="sans-serif" font-size="14" lengthAdjust="spacing" textLength="48.5352" x="1388.98" y="1071.9401">BREAD</text><text fill="#000000" font-family="sans-serif" font-size="14" lengthAdjust="spacing" textLength="29.0801" x="1388.98" y="1088.237">CAR</text><text fill="#000000" font-family="sans-serif" font-size="14" lengthAdjust="spacing" textLength="73.124" x="1388.98" y="1104.5339">CLOTHING</text><text fill="#000000" font-family="sans-serif" font-size="14" lengthAdjust="spacing" textLength="53.3955" x="1388.98" y="1120.8307">PEOPLE</text><text fill="#000000" font-family="sans-serif" font-size="14" lengthAdjust="spacing" textLength="33.585" x="1388.98" y="1137.1276">MAIL</text><line style="stroke:#181818;stroke-width:1;" x1="1383.98" x2="1740.1109" y1="1144.4294" y2="1144.4294"/><ellipse cx="1393.98" cy="1158.0778" fill="none" rx="3" ry="3" style="stroke:#038048;stroke-width:1;"/><text fill="#000000" font-family="sans-serif" font-size="14" lengthAdjust="spacing" textLength="150.5684" x="1402.98" y="1161.4245">productValue: double</text><ellipse cx="1393.98" cy="1174.3747" fill="none" rx="3" ry="3" style="stroke:#038048;stroke-width:1;"/><text fill="#000000" font-family="sans-serif" font-size="14" lengthAdjust="spacing" textLength="146.4053" x="1402.98" y="1177.7214">productName: String</text><ellipse cx="1393.98" cy="1190.6716" fill="#84BE84" rx="3" ry="3" style="stroke:#038048;stroke-width:1;"/><text fill="#000000" font-family="sans-serif" font-size="14" lengthAdjust="spacing" textLength="332.1309" x="1402.98" y="1194.0182">ProductType(value: int, name: String, time: int)</text></g><!--link CityEditorUI to CityEditorController--><g class="link" data-entity-1="CityEditorUI" data-entity-2="CityEditorController" data-source-line="152" data-uid="lnk11" id="link_CityEditorUI_CityEditorController"><path codeLine="152" d="M926.04,527.9 C926.04,554.81 926.04,574.92 926.04,598.54" fill="none" id="CityEditorUI-to-CityEditorController" style="stroke:#181818;stroke-width:1;"/><polygon fill="#181818" points="926.04,604.54,930.04,595.54,926.04,599.54,922.04,595.54,926.04,604.54" style="stroke:#181818;stroke-width:1;"/><text fill="#000000" font-family="sans-serif" font-size="13" lengthAdjust="spacing" textLength="97.4302" x="927.04" y="570.6769">Communicates</text></g><!--link CityEditorController to ProductType--><g class="link" data-entity-1="CityEditorController" data-entity-2="ProductType" data-source-line="153" data-uid="lnk12" id="link_CityEditorController_ProductType"><path codeLine="153" d="M1211.59,815.98 C1263.85,838.84 1317.01,864.64 1365.04,892.57 C1370.85,895.95 1371.6009,896.2859 1377.4209,899.9459" fill="none" id="CityEditorController-to-ProductType" style="stroke:#181818;stroke-width:1;"/><polygon fill="#181818" points="1382.5,903.14,1377.0107,894.9628,1378.2674,900.4782,1372.7519,901.7349,1382.5,903.14" style="stroke:#181818;stroke-width:1;"/><text fill="#000000" font-family="sans-serif" font-size="13" lengthAdjust="spacing" textLength="167.0322" x="1310.04" y="858.6369">Delegates to show values</text></g><!--link CityEditorController to Map--><g class="link" data-entity-1="CityEditorController" data-entity-2="Map" data-source-line="154" data-uid="lnk13" id="link_CityEditorController_Map"><path codeLine="154" d="M926.04,815.66 C926.04,861.14 926.04,907.86 926.04,951.37" fill="none" id="CityEditorController-to-Map" style="stroke:#181818;stroke-width:1;"/><polygon fill="#181818" points="926.04,957.37,930.04,948.37,926.04,952.37,922.04,948.37,926.04,957.37" style="stroke:#181818;stroke-width:1;"/><text fill="#000000" font-family="sans-serif" font-size="13" lengthAdjust="spacing" textLength="140.3784" x="927.04" y="858.6369">Delegates to creation</text></g><!--link Map to City--><g class="link" data-entity-1="Map" data-entity-2="City" data-source-line="155" data-uid="lnk14" id="link_Map_City"><path codeLine="155" d="M806.41,1136.42 C750.64,1177.67 686.724,1224.9322 619.754,1274.4622" fill="none" id="Map-to-City" style="stroke:#181818;stroke-width:1;"/><polygon fill="#181818" points="614.93,1278.03,624.5445,1275.8944,618.95,1275.0569,619.7875,1269.4623,614.93,1278.03" style="stroke:#181818;stroke-width:1;"/><text fill="#000000" font-family="sans-serif" font-size="13" lengthAdjust="spacing" textLength="50.2544" x="675.04" y="1244.3869">Creates</text></g><!--link Map to CityRepository--><g class="link" data-entity-1="Map" data-entity-2="CityRepository" data-source-line="156" data-uid="lnk15" id="link_Map_CityRepository"><path codeLine="156" d="M1086.73,1136.42 C1233.14,1217.03 1440.7941,1331.356 1572.5541,1403.906" fill="none" id="Map-to-CityRepository" style="stroke:#181818;stroke-width:1;"/><polygon fill="#181818" points="1577.81,1406.8,1571.8555,1398.955,1573.4301,1404.3883,1567.9968,1405.9629,1577.81,1406.8" style="stroke:#181818;stroke-width:1;"/><text fill="#000000" font-family="sans-serif" font-size="13" lengthAdjust="spacing" textLength="79.79" x="1290.04" y="1244.3869">Stores cities</text></g><!--link Map to LocationRepository--><g class="link" data-entity-1="Map" data-entity-2="LocationRepository" data-source-line="157" data-uid="lnk16" id="link_Map_LocationRepository"><path codeLine="157" d="M926.04,1136.42 C926.04,1209.07 926.04,1305.46 926.04,1378.08" fill="none" id="Map-to-LocationRepository" style="stroke:#181818;stroke-width:1;"/><polygon fill="#181818" points="926.04,1384.08,930.04,1375.08,926.04,1379.08,922.04,1375.08,926.04,1384.08" style="stroke:#181818;stroke-width:1;"/><text fill="#000000" font-family="sans-serif" font-size="13" lengthAdjust="spacing" textLength="103.9048" x="927.04" y="1244.3869">Stores locations</text></g><!--link Repository to CityRepository--><g class="link" data-entity-1="Repository" data-entity-2="CityRepository" data-source-line="158" data-uid="lnk17" id="link_Repository_CityRepository"><path codeLine="158" d="M1883.74,1152.88 C1840.56,1226.78 1786.6571,1319.0596 1747.0571,1386.8296" fill="none" id="Repository-to-CityRepository" style="stroke:#181818;stroke-width:1;"/><polygon fill="#181818" points="1744.03,1392.01,1752.0242,1386.2574,1746.5526,1387.693,1745.117,1382.2213,1744.03,1392.01" style="stroke:#181818;stroke-width:1;"/><text fill="#000000" font-family="sans-serif" font-size="13" lengthAdjust="spacing" textLength="41.4185" x="1836.04" y="1244.3869">Stores</text></g><!--link CityEditorController to City--><g class="link" data-entity-1="CityEditorController" data-entity-2="City" data-source-line="159" data-uid="lnk18" id="link_CityEditorController_City"><path codeLine="159" d="M542.45,793.65 C451.61,821.21 372.9,854.69 345.04,892.57 C264.9,1001.57 269.6758,1150.0201 293.3858,1272.0701" fill="none" id="CityEditorController-to-City" style="stroke:#181818;stroke-width:1;"/><polygon fill="#181818" points="294.53,1277.96,296.7403,1268.3624,293.5765,1273.0518,288.8871,1269.888,294.53,1277.96" style="stroke:#181818;stroke-width:1;"/><text fill="#000000" font-family="sans-serif" font-size="13" lengthAdjust="spacing" textLength="140.3784" x="346.04" y="1051.5169">Delegates to creation</text></g><!--link City to HouseBlock--><g class="link" data-entity-1="City" data-entity-2="HouseBlock" data-source-line="160" data-uid="lnk19" id="link_City_HouseBlock"><path codeLine="160" d="M352.04,1669 C352.04,1696.06 352.04,1716.35 352.04,1739.09" fill="none" id="City-to-HouseBlock" style="stroke:#181818;stroke-width:1;"/><polygon fill="#181818" points="352.04,1745.09,356.04,1736.09,352.04,1740.09,348.04,1736.09,352.04,1745.09" style="stroke:#181818;stroke-width:1;"/><text fill="#000000" font-family="sans-serif" font-size="13" lengthAdjust="spacing" textLength="50.2544" x="353.04" y="1711.6269">Creates</text></g><!--SRC=[dLTRRnev57xdL_WH1Fa3g48Qw2H1Wa21TjEdbSkuO7KkQEp99blrl-_ntPxnpBR90_4Sd_lvph5zpZ5ZQ4NvMvfHNjMVr-Zd2C7V7Je3yGaNP8wElARbHPElLSF8Cg_EFzYd1fSSkEQ8bjoJUcuJlle4f-0vJWwu2_ngpEp1LL9UIDsplyKqzxTkTPKrPpuSmxvYbDEgP2TItEPeGnd_O6WBeqX_Wu8juTSg2-9hwfgK_D6gN9SPUMrdO2vpR0XLoUigpqKaBlKhIrLiT_BV5DLDEPxCqKj5CorV4vojT7Lwjfvxw5yZzCTkHIDS-tOI1ZKz3-wslRYGajIO4y-JfE5LWJazupnlk_ETbZYd_v8LQELa5VTtYryjO5XyNm0c5gd2JMldt6UCiY_WZIj8wU4DEBzLLKvmEVer6frRpUOgRflEGwQ0eWQaoyl2-Yb1MTM0h8DTwqrWnA9KOWCqU5y-cy6N2qnQ63kupf32yGof5lVZzkM2a6UsNUR8O6OcsjHLGoijL0Nqb-vM45ABqzkDJBoscQACv8IJUn0XFcR7toN5DdAxYMDUEt71wuKSCjyW8DxY3JakX6j_bz7gUy4uYUG5FCRVSg9t9JprWB8mSMOjEBg9RHNS5VjtOC9eqUGO263SB4DeuCocTJm41P45mpVnlBF1EDis65eoZiipYJYcH-hnJ4fSKu2mMONxMmm36tv2dy6NjLOzPXqDauwvKA9dVsKj2WvZqzyo1cGfVNSbKxS71LzFPogr0CQGEwGuJbqxdNltvRBVjMEhKFnji0DzazGrVfFDOoGMOMvL1vhDSHUF7LWONWdnFlq1PnTe0QP3tgW7BNxAqkB6tuPbp9IskBVitTvg3HGXPwT2CELjbWVRiEpUJsZMVs4PF1Pw1q5t_hgDzhs9jYumflgHKT-rz-vHtxeAM1KzLuN8sMr58-UtX8svBtcfdQBcbe7CaUEQdsW1TY6duvlu5Pzp254Eyb2JV_nCUghHSzOC7qVl6hFU68FAYIrJEoyyth0nz2_7VM6fgf3OMHIE7l-5G4amDmJZeeiQVv05ewG3gKx0AsaZd1xEoXJbG4ZotB45nGsRqpQtDDizz6syCE1ja3cWa5-3bmgXboltAP4MpZipz_zlOk9uQVMNCpxpxSuGWuinKHW9eFH7ex7t2lU-lePt3MiAOYxG0rSvA6p-kqSYL8MKJU4hqyLvE2JhfwDSVaaVqbEotAJgSxMxlqzJkJnyNYxJWrp-jTjjv69zs3rflaHHZgSqLQlb8Kq-gir4YQqskzFZ-kb1VkpJtNwZD6-JzIOie1viy1ve89bPrS0TBzpgF4QdVbpZ5oKfinbMXCkkbUM6X0GFzhkxHVHH0HclYg8fuGt52Hj5tnr2rdDWZZv2Nru4F-8LOjVg7oHz6X2Nrx10JC9Ae4pqaV4El95eOm7LRuyZ_0C5QgfOhasaaJIdlRgClE7Khxa_1ELVF0Pva0icDwHjAFy1]--></g></svg>

