<svg xmlns="http://www.w3.org/2000/svg" xmlns:xlink="http://www.w3.org/1999/xlink" contentStyleType="text/css" height="1827px" preserveAspectRatio="none" style="width:1487px;height:1827px;background:#FFFFFF;" version="1.1" viewBox="0 0 1487 1827" width="1487px" zoomAndPan="magnify"><title>US003 (SD) - Create a City</title><defs/><g><text fill="#000000" font-family="sans-serif" font-size="14" font-weight="bold" lengthAdjust="spacing" textLength="174.6353" x="652.6819" y="29.9659">US003 (SD) - Create a City</text><rect fill="#FFFFFF" height="1521.9286" style="stroke:#181818;stroke-width:1.0;" width="10" x="337.4012" y="203.5479"/><rect fill="#FFFFFF" height="31.706" style="stroke:#181818;stroke-width:1.0;" width="10" x="677.3834" y="617.314"/><rect fill="#FFFFFF" height="220.2361" style="stroke:#181818;stroke-width:1.0;" width="10" x="677.3834" y="802.8441"/><rect fill="#FFFFFF" height="31.706" style="stroke:#181818;stroke-width:1.0;" width="10" x="677.3834" y="1459.5524"/><rect fill="#FFFFFF" height="31.706" style="stroke:#181818;stroke-width:1.0;" width="10" x="677.3834" y="1648.0644"/><rect fill="#FFFFFF" height="30" style="stroke:#181818;stroke-width:1.0;" width="10" x="814.006" y="993.0802"/><rect fill="#FFFFFF" height="31.706" style="stroke:#181818;stroke-width:1.0;" width="10" x="948.8646" y="866.2562"/><rect fill="#FFFFFF" height="61.706" style="stroke:#181818;stroke-width:1.0;" width="10" x="1068.0782" y="961.3742"/><rect fill="#FFFFFF" height="63.412" style="stroke:#181818;stroke-width:1.0;" width="10" x="1187.219" y="834.5501"/><rect fill="#FFFFFF" height="93.412" style="stroke:#181818;stroke-width:1.0;" width="10" x="1187.219" y="929.6682"/><rect fill="#FFFFFF" height="31.706" style="stroke:#181818;stroke-width:1.0;" width="10" x="1291.3057" y="1584.6524"/><rect fill="none" height="458.1601" style="stroke:#000000;stroke-width:1.5;" width="1378.8114" x="10" y="1236.6103"/><rect fill="none" height="424.4541" style="stroke:#000000;stroke-width:1.5;" width="1358.8114" x="20" y="1263.3163"/><line style="stroke:#181818;stroke-width:0.5;stroke-dasharray:5.0,5.0;" x1="48" x2="48" y1="124.1358" y2="1743.4764"/><line style="stroke:#181818;stroke-width:0.5;stroke-dasharray:5.0,5.0;" x1="341.9283" x2="341.9283" y1="124.1358" y2="1743.4764"/><line style="stroke:#181818;stroke-width:0.5;stroke-dasharray:5.0,5.0;" x1="682.3117" x2="682.3117" y1="124.1358" y2="1743.4764"/><line style="stroke:#181818;stroke-width:0.5;stroke-dasharray:5.0,5.0;" x1="818.4552" x2="818.4552" y1="124.1358" y2="1743.4764"/><line style="stroke:#181818;stroke-width:0.5;stroke-dasharray:5.0,5.0;" x1="953.5568" x2="953.5568" y1="124.1358" y2="1743.4764"/><line style="stroke:#181818;stroke-width:0.5;stroke-dasharray:5.0,5.0;" x1="1072.1724" x2="1072.1724" y1="124.1358" y2="1743.4764"/><line style="stroke:#181818;stroke-width:0.5;stroke-dasharray:5.0,5.0;" x1="1140.9841" x2="1140.9841" y1="124.1358" y2="1743.4764"/><line style="stroke:#181818;stroke-width:0.5;stroke-dasharray:5.0,5.0;" x1="1191.638" x2="1191.638" y1="124.1358" y2="1743.4764"/><line style="stroke:#181818;stroke-width:0.5;stroke-dasharray:5.0,5.0;" x1="1295.7999" x2="1295.7999" y1="124.1358" y2="1743.4764"/><line style="stroke:#181818;stroke-width:0.5;stroke-dasharray:5.0,5.0;" x1="1426.8114" x2="1426.8114" y1="124.1358" y2="1743.4764"/><text fill="#000000" font-family="sans-serif" font-size="14" lengthAdjust="spacing" textLength="30.6179" x="30" y="120.0339">User</text><ellipse cx="48.3089" cy="53.5679" fill="#E2E2F0" rx="8" ry="8" style="stroke:#181818;stroke-width:0.5;"/><path d="M48.3089,61.5679 L48.3089,88.5679 M35.3089,69.5679 L61.3089,69.5679 M48.3089,88.5679 L35.3089,103.5679 M48.3089,88.5679 L61.3089,103.5679 " fill="none" style="stroke:#181818;stroke-width:0.5;"/><text fill="#000000" font-family="sans-serif" font-size="14" lengthAdjust="spacing" textLength="30.6179" x="30" y="1757.4424">User</text><ellipse cx="48.3089" cy="1770.0443" fill="#E2E2F0" rx="8" ry="8" style="stroke:#181818;stroke-width:0.5;"/><path d="M48.3089,1778.0443 L48.3089,1805.0443 M35.3089,1786.0443 L61.3089,1786.0443 M48.3089,1805.0443 L35.3089,1820.0443 M48.3089,1805.0443 L61.3089,1820.0443 " fill="none" style="stroke:#181818;stroke-width:0.5;"/><rect fill="#E2E2F0" height="33.0679" rx="2.5" ry="2.5" style="stroke:#181818;stroke-width:0.5;" width="92.9457" x="295.9283" y="90.0679"/><text fill="#000000" font-family="sans-serif" font-size="14" lengthAdjust="spacing" textLength="78.9457" x="302.9283" y="112.0339">CityEditorUI</text><rect fill="#E2E2F0" height="33.0679" rx="2.5" ry="2.5" style="stroke:#181818;stroke-width:0.5;" width="92.9457" x="295.9283" y="1742.4764"/><text fill="#000000" font-family="sans-serif" font-size="14" lengthAdjust="spacing" textLength="78.9457" x="302.9283" y="1764.4424">CityEditorUI</text><rect fill="#E2E2F0" height="33.0679" rx="2.5" ry="2.5" style="stroke:#181818;stroke-width:0.5;" width="144.1435" x="610.3117" y="90.0679"/><text fill="#000000" font-family="sans-serif" font-size="14" lengthAdjust="spacing" textLength="130.1435" x="617.3117" y="112.0339">CityEditorController</text><rect fill="#E2E2F0" height="33.0679" rx="2.5" ry="2.5" style="stroke:#181818;stroke-width:0.5;" width="144.1435" x="610.3117" y="1742.4764"/><text fill="#000000" font-family="sans-serif" font-size="14" lengthAdjust="spacing" textLength="130.1435" x="617.3117" y="1764.4424">CityEditorController</text><rect fill="#E2E2F0" height="33.0679" rx="2.5" ry="2.5" style="stroke:#181818;stroke-width:0.5;" width="109.1016" x="764.4552" y="90.0679"/><text fill="#000000" font-family="sans-serif" font-size="14" lengthAdjust="spacing" textLength="95.1016" x="771.4552" y="112.0339">CityRepository</text><rect fill="#E2E2F0" height="33.0679" rx="2.5" ry="2.5" style="stroke:#181818;stroke-width:0.5;" width="109.1016" x="764.4552" y="1742.4764"/><text fill="#000000" font-family="sans-serif" font-size="14" lengthAdjust="spacing" textLength="95.1016" x="771.4552" y="1764.4424">CityRepository</text><rect fill="#E2E2F0" height="33.0679" rx="2.5" ry="2.5" style="stroke:#181818;stroke-width:0.5;" width="140.6155" x="883.5568" y="90.0679"/><text fill="#000000" font-family="sans-serif" font-size="14" lengthAdjust="spacing" textLength="126.6155" x="890.5568" y="112.0339">LocationRepository</text><rect fill="#E2E2F0" height="33.0679" rx="2.5" ry="2.5" style="stroke:#181818;stroke-width:0.5;" width="140.6155" x="883.5568" y="1742.4764"/><text fill="#000000" font-family="sans-serif" font-size="14" lengthAdjust="spacing" textLength="126.6155" x="890.5568" y="1764.4424">LocationRepository</text><rect fill="#E2E2F0" height="33.0679" rx="2.5" ry="2.5" style="stroke:#181818;stroke-width:0.5;" width="77.8118" x="1034.1724" y="90.0679"/><text fill="#000000" font-family="sans-serif" font-size="14" lengthAdjust="spacing" textLength="63.8118" x="1041.1724" y="112.0339">Simulator</text><rect fill="#E2E2F0" height="33.0679" rx="2.5" ry="2.5" style="stroke:#181818;stroke-width:0.5;" width="77.8118" x="1034.1724" y="1742.4764"/><text fill="#000000" font-family="sans-serif" font-size="14" lengthAdjust="spacing" textLength="63.8118" x="1041.1724" y="1764.4424">Simulator</text><rect fill="#E2E2F0" height="33.0679" rx="2.5" ry="2.5" style="stroke:#181818;stroke-width:0.5;" width="38.6539" x="1121.9841" y="90.0679"/><text fill="#000000" font-family="sans-serif" font-size="14" lengthAdjust="spacing" textLength="24.6539" x="1128.9841" y="112.0339">City</text><rect fill="#E2E2F0" height="33.0679" rx="2.5" ry="2.5" style="stroke:#181818;stroke-width:0.5;" width="38.6539" x="1121.9841" y="1742.4764"/><text fill="#000000" font-family="sans-serif" font-size="14" lengthAdjust="spacing" textLength="24.6539" x="1128.9841" y="1764.4424">City</text><rect fill="#E2E2F0" height="33.0679" rx="2.5" ry="2.5" style="stroke:#181818;stroke-width:0.5;" width="43.1619" x="1170.638" y="90.0679"/><text fill="#000000" font-family="sans-serif" font-size="14" lengthAdjust="spacing" textLength="29.1619" x="1177.638" y="112.0339">Map</text><rect fill="#E2E2F0" height="33.0679" rx="2.5" ry="2.5" style="stroke:#181818;stroke-width:0.5;" width="43.1619" x="1170.638" y="1742.4764"/><text fill="#000000" font-family="sans-serif" font-size="14" lengthAdjust="spacing" textLength="29.1619" x="1177.638" y="1764.4424">Map</text><rect fill="#E2E2F0" height="33.0679" rx="2.5" ry="2.5" style="stroke:#181818;stroke-width:0.5;" width="145.0115" x="1223.7999" y="90.0679"/><text fill="#000000" font-family="sans-serif" font-size="14" lengthAdjust="spacing" textLength="131.0115" x="1230.7999" y="112.0339">ProductRandomizer</text><rect fill="#E2E2F0" height="33.0679" rx="2.5" ry="2.5" style="stroke:#181818;stroke-width:0.5;" width="145.0115" x="1223.7999" y="1742.4764"/><text fill="#000000" font-family="sans-serif" font-size="14" lengthAdjust="spacing" textLength="131.0115" x="1230.7999" y="1764.4424">ProductRandomizer</text><rect fill="#E2E2F0" height="33.0679" rx="2.5" ry="2.5" style="stroke:#181818;stroke-width:0.5;" width="97.1877" x="1378.8114" y="90.0679"/><text fill="#000000" font-family="sans-serif" font-size="14" lengthAdjust="spacing" textLength="83.1877" x="1385.8114" y="112.0339">ProductType</text><rect fill="#E2E2F0" height="33.0679" rx="2.5" ry="2.5" style="stroke:#181818;stroke-width:0.5;" width="97.1877" x="1378.8114" y="1742.4764"/><text fill="#000000" font-family="sans-serif" font-size="14" lengthAdjust="spacing" textLength="83.1877" x="1385.8114" y="1764.4424">ProductType</text><rect fill="#FFFFFF" height="1521.9286" style="stroke:#181818;stroke-width:1.0;" width="10" x="337.4012" y="203.5479"/><rect fill="#FFFFFF" height="31.706" style="stroke:#181818;stroke-width:1.0;" width="10" x="677.3834" y="617.314"/><rect fill="#FFFFFF" height="220.2361" style="stroke:#181818;stroke-width:1.0;" width="10" x="677.3834" y="802.8441"/><rect fill="#FFFFFF" height="31.706" style="stroke:#181818;stroke-width:1.0;" width="10" x="677.3834" y="1459.5524"/><rect fill="#FFFFFF" height="31.706" style="stroke:#181818;stroke-width:1.0;" width="10" x="677.3834" y="1648.0644"/><rect fill="#FFFFFF" height="30" style="stroke:#181818;stroke-width:1.0;" width="10" x="814.006" y="993.0802"/><rect fill="#FFFFFF" height="31.706" style="stroke:#181818;stroke-width:1.0;" width="10" x="948.8646" y="866.2562"/><rect fill="#FFFFFF" height="61.706" style="stroke:#181818;stroke-width:1.0;" width="10" x="1068.0782" y="961.3742"/><rect fill="#FFFFFF" height="63.412" style="stroke:#181818;stroke-width:1.0;" width="10" x="1187.219" y="834.5501"/><rect fill="#FFFFFF" height="93.412" style="stroke:#181818;stroke-width:1.0;" width="10" x="1187.219" y="929.6682"/><rect fill="#FFFFFF" height="31.706" style="stroke:#181818;stroke-width:1.0;" width="10" x="1291.3057" y="1584.6524"/><rect fill="#EEEEEE" height="3" style="stroke:#EEEEEE;stroke-width:1.0;" width="1480.9991" x="0" y="155.9888"/><line style="stroke:#000000;stroke-width:1.0;" x1="0" x2="1480.9991" y1="155.9888" y2="155.9888"/><line style="stroke:#000000;stroke-width:1.0;" x1="0" x2="1480.9991" y1="158.9888" y2="158.9888"/><rect fill="#EEEEEE" height="25.706" style="stroke:#000000;stroke-width:2.0;" width="83.147" x="698.926" y="144.1358"/><text fill="#000000" font-family="sans-serif" font-size="13" font-weight="bold" lengthAdjust="spacing" textLength="65.767" x="704.926" y="162.0328">Launch UI</text><polygon fill="#181818" points="325.4012,199.5479,335.4012,203.5479,325.4012,207.5479,329.4012,203.5479" style="stroke:#181818;stroke-width:1.0;"/><line style="stroke:#181818;stroke-width:1.0;" x1="48.3089" x2="331.4012" y1="203.5479" y2="203.5479"/><text fill="#000000" font-family="sans-serif" font-size="13" font-weight="bold" lengthAdjust="spacing" textLength="7.436" x="55.3089" y="197.7389">1</text><text fill="#000000" font-family="sans-serif" font-size="13" lengthAdjust="spacing" textLength="29.237" x="66.7449" y="197.7389">run()</text><line style="stroke:#181818;stroke-width:1.0;stroke-dasharray:2.0,2.0;" x1="347.4012" x2="389.4012" y1="235.2539" y2="235.2539"/><line style="stroke:#181818;stroke-width:1.0;stroke-dasharray:2.0,2.0;" x1="389.4012" x2="389.4012" y1="235.2539" y2="248.2539"/><line style="stroke:#181818;stroke-width:1.0;stroke-dasharray:2.0,2.0;" x1="348.4012" x2="389.4012" y1="248.2539" y2="248.2539"/><polygon fill="#181818" points="358.4012,244.2539,348.4012,248.2539,358.4012,252.2539,354.4012,248.2539" style="stroke:#181818;stroke-width:1.0;"/><text fill="#000000" font-family="sans-serif" font-size="13" font-weight="bold" lengthAdjust="spacing" textLength="7.436" x="354.4012" y="229.4449">2</text><text fill="#000000" font-family="sans-serif" font-size="13" lengthAdjust="spacing" textLength="95.3421" x="365.8372" y="229.4449">readCityName()</text><polygon fill="#181818" points="325.4012,275.9599,335.4012,279.9599,325.4012,283.9599,329.4012,279.9599" style="stroke:#181818;stroke-width:1.0;"/><line style="stroke:#181818;stroke-width:1.0;" x1="48.3089" x2="331.4012" y1="279.9599" y2="279.9599"/><text fill="#000000" font-family="sans-serif" font-size="13" font-weight="bold" lengthAdjust="spacing" textLength="7.436" x="55.3089" y="274.1509">3</text><text fill="#000000" font-family="sans-serif" font-size="13" lengthAdjust="spacing" textLength="93.7691" x="66.7449" y="274.1509">Indicates name</text><line style="stroke:#181818;stroke-width:1.0;stroke-dasharray:2.0,2.0;" x1="347.4012" x2="389.4012" y1="311.6659" y2="311.6659"/><line style="stroke:#181818;stroke-width:1.0;stroke-dasharray:2.0,2.0;" x1="389.4012" x2="389.4012" y1="311.6659" y2="324.6659"/><line style="stroke:#181818;stroke-width:1.0;stroke-dasharray:2.0,2.0;" x1="348.4012" x2="389.4012" y1="324.6659" y2="324.6659"/><polygon fill="#181818" points="358.4012,320.6659,348.4012,324.6659,358.4012,328.6659,354.4012,324.6659" style="stroke:#181818;stroke-width:1.0;"/><text fill="#000000" font-family="sans-serif" font-size="13" font-weight="bold" lengthAdjust="spacing" textLength="7.436" x="354.4012" y="305.8569">4</text><text fill="#000000" font-family="sans-serif" font-size="13" lengthAdjust="spacing" textLength="66.3001" x="365.8372" y="305.8569">readCityX()</text><polygon fill="#181818" points="325.4012,352.3719,335.4012,356.3719,325.4012,360.3719,329.4012,356.3719" style="stroke:#181818;stroke-width:1.0;"/><line style="stroke:#181818;stroke-width:1.0;" x1="48.3089" x2="331.4012" y1="356.3719" y2="356.3719"/><text fill="#000000" font-family="sans-serif" font-size="13" font-weight="bold" lengthAdjust="spacing" textLength="7.436" x="55.3089" y="350.5629">5</text><text fill="#000000" font-family="sans-serif" font-size="13" lengthAdjust="spacing" textLength="143.0521" x="66.7449" y="350.5629">Indicates coordinate (x)</text><line style="stroke:#181818;stroke-width:1.0;stroke-dasharray:2.0,2.0;" x1="347.4012" x2="389.4012" y1="388.0779" y2="388.0779"/><line style="stroke:#181818;stroke-width:1.0;stroke-dasharray:2.0,2.0;" x1="389.4012" x2="389.4012" y1="388.0779" y2="401.0779"/><line style="stroke:#181818;stroke-width:1.0;stroke-dasharray:2.0,2.0;" x1="348.4012" x2="389.4012" y1="401.0779" y2="401.0779"/><polygon fill="#181818" points="358.4012,397.0779,348.4012,401.0779,358.4012,405.0779,354.4012,401.0779" style="stroke:#181818;stroke-width:1.0;"/><text fill="#000000" font-family="sans-serif" font-size="13" font-weight="bold" lengthAdjust="spacing" textLength="7.436" x="354.4012" y="382.2689">6</text><text fill="#000000" font-family="sans-serif" font-size="13" lengthAdjust="spacing" textLength="66.0401" x="365.8372" y="382.2689">readCityY()</text><polygon fill="#181818" points="325.4012,428.784,335.4012,432.784,325.4012,436.784,329.4012,432.784" style="stroke:#181818;stroke-width:1.0;"/><line style="stroke:#181818;stroke-width:1.0;" x1="48.3089" x2="331.4012" y1="432.784" y2="432.784"/><text fill="#000000" font-family="sans-serif" font-size="13" font-weight="bold" lengthAdjust="spacing" textLength="7.436" x="55.3089" y="426.975">7</text><text fill="#000000" font-family="sans-serif" font-size="13" lengthAdjust="spacing" textLength="142.8051" x="66.7449" y="426.975">Indicates coordinate (y)</text><line style="stroke:#181818;stroke-width:1.0;stroke-dasharray:2.0,2.0;" x1="347.4012" x2="389.4012" y1="464.49" y2="464.49"/><line style="stroke:#181818;stroke-width:1.0;stroke-dasharray:2.0,2.0;" x1="389.4012" x2="389.4012" y1="464.49" y2="477.49"/><line style="stroke:#181818;stroke-width:1.0;stroke-dasharray:2.0,2.0;" x1="348.4012" x2="389.4012" y1="477.49" y2="477.49"/><polygon fill="#181818" points="358.4012,473.49,348.4012,477.49,358.4012,481.49,354.4012,477.49" style="stroke:#181818;stroke-width:1.0;"/><text fill="#000000" font-family="sans-serif" font-size="13" font-weight="bold" lengthAdjust="spacing" textLength="7.436" x="354.4012" y="458.681">8</text><text fill="#000000" font-family="sans-serif" font-size="13" lengthAdjust="spacing" textLength="131.6511" x="365.8372" y="458.681">readMaxPassengers()</text><polygon fill="#181818" points="325.4012,505.196,335.4012,509.196,325.4012,513.196,329.4012,509.196" style="stroke:#181818;stroke-width:1.0;"/><line style="stroke:#181818;stroke-width:1.0;" x1="48.3089" x2="331.4012" y1="509.196" y2="509.196"/><text fill="#000000" font-family="sans-serif" font-size="13" font-weight="bold" lengthAdjust="spacing" textLength="7.436" x="55.3089" y="503.387">9</text><text fill="#000000" font-family="sans-serif" font-size="13" lengthAdjust="spacing" textLength="226.7072" x="66.7449" y="503.387">Indicates number of max passengers</text><line style="stroke:#181818;stroke-width:1.0;stroke-dasharray:2.0,2.0;" x1="347.4012" x2="389.4012" y1="540.902" y2="540.902"/><line style="stroke:#181818;stroke-width:1.0;stroke-dasharray:2.0,2.0;" x1="389.4012" x2="389.4012" y1="540.902" y2="553.902"/><line style="stroke:#181818;stroke-width:1.0;stroke-dasharray:2.0,2.0;" x1="348.4012" x2="389.4012" y1="553.902" y2="553.902"/><polygon fill="#181818" points="358.4012,549.902,348.4012,553.902,358.4012,557.902,354.4012,553.902" style="stroke:#181818;stroke-width:1.0;"/><text fill="#000000" font-family="sans-serif" font-size="13" font-weight="bold" lengthAdjust="spacing" textLength="14.872" x="354.4012" y="535.093">10</text><text fill="#000000" font-family="sans-serif" font-size="13" lengthAdjust="spacing" textLength="87.5421" x="373.2732" y="535.093">readMaxMail()</text><polygon fill="#181818" points="325.4012,581.608,335.4012,585.608,325.4012,589.608,329.4012,585.608" style="stroke:#181818;stroke-width:1.0;"/><line style="stroke:#181818;stroke-width:1.0;" x1="48.3089" x2="331.4012" y1="585.608" y2="585.608"/><text fill="#000000" font-family="sans-serif" font-size="13" font-weight="bold" lengthAdjust="spacing" textLength="14.872" x="55.3089" y="579.799">11</text><text fill="#000000" font-family="sans-serif" font-size="13" lengthAdjust="spacing" textLength="182.8322" x="74.181" y="579.799">Indicates number of max mail</text><polygon fill="#181818" points="665.3834,613.314,675.3834,617.314,665.3834,621.314,669.3834,617.314" style="stroke:#181818;stroke-width:1.0;"/><line style="stroke:#181818;stroke-width:1.0;" x1="347.4012" x2="671.3834" y1="617.314" y2="617.314"/><text fill="#000000" font-family="sans-serif" font-size="13" font-weight="bold" lengthAdjust="spacing" textLength="14.872" x="354.4012" y="611.505">12</text><text fill="#000000" font-family="sans-serif" font-size="13" lengthAdjust="spacing" textLength="136.9941" x="373.2732" y="611.505">getAvailableProducts()</text><polygon fill="#181818" points="1415.4053,645.0201,1425.4053,649.0201,1415.4053,653.0201,1419.4053,649.0201" style="stroke:#181818;stroke-width:1.0;"/><line style="stroke:#181818;stroke-width:1.0;" x1="682.3834" x2="1421.4053" y1="649.0201" y2="649.0201"/><text fill="#000000" font-family="sans-serif" font-size="13" font-weight="bold" lengthAdjust="spacing" textLength="14.872" x="689.3834" y="643.2111">13</text><text fill="#000000" font-family="sans-serif" font-size="13" lengthAdjust="spacing" textLength="50.1281" x="708.2554" y="643.2111">.values()</text><line style="stroke:#181818;stroke-width:1.0;stroke-dasharray:2.0,2.0;" x1="347.4012" x2="389.4012" y1="680.7261" y2="680.7261"/><line style="stroke:#181818;stroke-width:1.0;stroke-dasharray:2.0,2.0;" x1="389.4012" x2="389.4012" y1="680.7261" y2="693.7261"/><line style="stroke:#181818;stroke-width:1.0;stroke-dasharray:2.0,2.0;" x1="348.4012" x2="389.4012" y1="693.7261" y2="693.7261"/><polygon fill="#181818" points="358.4012,689.7261,348.4012,693.7261,358.4012,697.7261,354.4012,693.7261" style="stroke:#181818;stroke-width:1.0;"/><text fill="#000000" font-family="sans-serif" font-size="13" font-weight="bold" lengthAdjust="spacing" textLength="14.872" x="354.4012" y="674.9171">14</text><text fill="#000000" font-family="sans-serif" font-size="13" lengthAdjust="spacing" textLength="83.8501" x="373.2732" y="674.9171">readProduct()</text><polygon fill="#181818" points="325.4012,721.4321,335.4012,725.4321,325.4012,729.4321,329.4012,725.4321" style="stroke:#181818;stroke-width:1.0;"/><line style="stroke:#181818;stroke-width:1.0;" x1="48.3089" x2="331.4012" y1="725.4321" y2="725.4321"/><text fill="#000000" font-family="sans-serif" font-size="13" font-weight="bold" lengthAdjust="spacing" textLength="14.872" x="55.3089" y="719.6231">15</text><text fill="#000000" font-family="sans-serif" font-size="13" lengthAdjust="spacing" textLength="108.6671" x="74.181" y="719.6231">Select product list</text><rect fill="#EEEEEE" height="3" style="stroke:#EEEEEE;stroke-width:1.0;" width="1480.9991" x="0" y="755.2851"/><line style="stroke:#000000;stroke-width:1.0;" x1="0" x2="1480.9991" y1="755.2851" y2="755.2851"/><line style="stroke:#000000;stroke-width:1.0;" x1="0" x2="1480.9991" y1="758.2851" y2="758.2851"/><rect fill="#EEEEEE" height="25.706" style="stroke:#000000;stroke-width:2.0;" width="89.0881" x="695.9555" y="743.4321"/><text fill="#000000" font-family="sans-serif" font-size="13" font-weight="bold" lengthAdjust="spacing" textLength="71.7081" x="701.9555" y="761.3291">Create City</text><polygon fill="#181818" points="665.3834,798.8441,675.3834,802.8441,665.3834,806.8441,669.3834,802.8441" style="stroke:#181818;stroke-width:1.0;"/><line style="stroke:#181818;stroke-width:1.0;" x1="347.4012" x2="671.3834" y1="802.8441" y2="802.8441"/><text fill="#000000" font-family="sans-serif" font-size="13" font-weight="bold" lengthAdjust="spacing" textLength="14.872" x="354.4012" y="797.0351">16</text><text fill="#000000" font-family="sans-serif" font-size="13" lengthAdjust="spacing" textLength="68.9521" x="373.2732" y="797.0351">createCity()</text><polygon fill="#181818" points="1175.219,830.5501,1185.219,834.5501,1175.219,838.5501,1179.219,834.5501" style="stroke:#181818;stroke-width:1.0;"/><line style="stroke:#181818;stroke-width:1.0;" x1="687.3834" x2="1181.219" y1="834.5501" y2="834.5501"/><text fill="#000000" font-family="sans-serif" font-size="13" font-weight="bold" lengthAdjust="spacing" textLength="14.872" x="694.3834" y="828.7411">17</text><text fill="#000000" font-family="sans-serif" font-size="13" lengthAdjust="spacing" textLength="147.6021" x="713.2554" y="828.7411">createLocation(position)</text><polygon fill="#181818" points="969.8646,862.2562,959.8646,866.2562,969.8646,870.2562,965.8646,866.2562" style="stroke:#181818;stroke-width:1.0;"/><line style="stroke:#181818;stroke-width:1.0;stroke-dasharray:2.0,2.0;" x1="963.8646" x2="1186.219" y1="866.2562" y2="866.2562"/><text fill="#000000" font-family="sans-serif" font-size="13" font-weight="bold" lengthAdjust="spacing" textLength="14.872" x="975.8646" y="860.4472">18</text><text fill="#000000" font-family="sans-serif" font-size="13" lengthAdjust="spacing" textLength="79.9761" x="994.7366" y="860.4472">getLocation()</text><polygon fill="#181818" points="1180.219,893.9622,1190.219,897.9622,1180.219,901.9622,1184.219,897.9622" style="stroke:#181818;stroke-width:1.0;"/><line style="stroke:#181818;stroke-width:1.0;" x1="953.8646" x2="1186.219" y1="897.9622" y2="897.9622"/><text fill="#000000" font-family="sans-serif" font-size="13" font-weight="bold" lengthAdjust="spacing" textLength="14.872" x="960.8646" y="892.1532">19</text><text fill="#000000" font-family="sans-serif" font-size="13" lengthAdjust="spacing" textLength="52.1561" x="979.7366" y="892.1532">Location</text><polygon fill="#181818" points="1175.219,925.6682,1185.219,929.6682,1175.219,933.6682,1179.219,929.6682" style="stroke:#181818;stroke-width:1.0;"/><line style="stroke:#181818;stroke-width:1.0;" x1="687.3834" x2="1181.219" y1="929.6682" y2="929.6682"/><text fill="#000000" font-family="sans-serif" font-size="13" font-weight="bold" lengthAdjust="spacing" textLength="14.872" x="694.3834" y="923.8592">20</text><text fill="#000000" font-family="sans-serif" font-size="13" lengthAdjust="spacing" textLength="68.9521" x="713.2554" y="923.8592">createCity()</text><polygon fill="#181818" points="1089.0782,957.3742,1079.0782,961.3742,1089.0782,965.3742,1085.0782,961.3742" style="stroke:#181818;stroke-width:1.0;"/><line style="stroke:#181818;stroke-width:1.0;stroke-dasharray:2.0,2.0;" x1="1083.0782" x2="1186.219" y1="961.3742" y2="961.3742"/><text fill="#000000" font-family="sans-serif" font-size="13" font-weight="bold" lengthAdjust="spacing" textLength="14.872" x="1095.0782" y="955.5652">21</text><text fill="#000000" font-family="sans-serif" font-size="13" lengthAdjust="spacing" textLength="53.9761" x="1113.9502" y="955.5652">addCity()</text><polygon fill="#181818" points="835.006,989.0802,825.006,993.0802,835.006,997.0802,831.006,993.0802" style="stroke:#181818;stroke-width:1.0;"/><line style="stroke:#181818;stroke-width:1.0;stroke-dasharray:2.0,2.0;" x1="829.006" x2="1067.0782" y1="993.0802" y2="993.0802"/><text fill="#000000" font-family="sans-serif" font-size="13" font-weight="bold" lengthAdjust="spacing" textLength="14.872" x="841.006" y="987.2712">22</text><text fill="#000000" font-family="sans-serif" font-size="13" lengthAdjust="spacing" textLength="53.9761" x="859.878" y="987.2712">addCity()</text><rect fill="#EEEEEE" height="3" style="stroke:#EEEEEE;stroke-width:1.0;" width="1480.9991" x="0" y="1052.9332"/><line style="stroke:#000000;stroke-width:1.0;" x1="0" x2="1480.9991" y1="1052.9332" y2="1052.9332"/><line style="stroke:#000000;stroke-width:1.0;" x1="0" x2="1480.9991" y1="1055.9332" y2="1055.9332"/><rect fill="#EEEEEE" height="25.706" style="stroke:#000000;stroke-width:2.0;" width="169.2851" x="655.857" y="1041.0802"/><text fill="#000000" font-family="sans-serif" font-size="13" font-weight="bold" lengthAdjust="spacing" textLength="151.9051" x="661.857" y="1058.9772">House Block Placement</text><line style="stroke:#181818;stroke-width:1.0;stroke-dasharray:2.0,2.0;" x1="347.4012" x2="389.4012" y1="1100.4923" y2="1100.4923"/><line style="stroke:#181818;stroke-width:1.0;stroke-dasharray:2.0,2.0;" x1="389.4012" x2="389.4012" y1="1100.4923" y2="1113.4923"/><line style="stroke:#181818;stroke-width:1.0;stroke-dasharray:2.0,2.0;" x1="348.4012" x2="389.4012" y1="1113.4923" y2="1113.4923"/><polygon fill="#181818" points="358.4012,1109.4923,348.4012,1113.4923,358.4012,1117.4923,354.4012,1113.4923" style="stroke:#181818;stroke-width:1.0;"/><text fill="#000000" font-family="sans-serif" font-size="13" font-weight="bold" lengthAdjust="spacing" textLength="14.872" x="354.4012" y="1094.6833">23</text><text fill="#000000" font-family="sans-serif" font-size="13" lengthAdjust="spacing" textLength="166.8422" x="373.2732" y="1094.6833">readHouseBlocksQuantity()</text><polygon fill="#181818" points="325.4012,1141.1983,335.4012,1145.1983,325.4012,1149.1983,329.4012,1145.1983" style="stroke:#181818;stroke-width:1.0;"/><line style="stroke:#181818;stroke-width:1.0;" x1="48.3089" x2="331.4012" y1="1145.1983" y2="1145.1983"/><text fill="#000000" font-family="sans-serif" font-size="13" font-weight="bold" lengthAdjust="spacing" textLength="14.872" x="55.3089" y="1139.3893">24</text><text fill="#000000" font-family="sans-serif" font-size="13" lengthAdjust="spacing" textLength="176.7222" x="74.181" y="1139.3893">Indicate houseblock quantity</text><line style="stroke:#181818;stroke-width:1.0;stroke-dasharray:2.0,2.0;" x1="347.4012" x2="389.4012" y1="1176.9043" y2="1176.9043"/><line style="stroke:#181818;stroke-width:1.0;stroke-dasharray:2.0,2.0;" x1="389.4012" x2="389.4012" y1="1176.9043" y2="1189.9043"/><line style="stroke:#181818;stroke-width:1.0;stroke-dasharray:2.0,2.0;" x1="348.4012" x2="389.4012" y1="1189.9043" y2="1189.9043"/><polygon fill="#181818" points="358.4012,1185.9043,348.4012,1189.9043,358.4012,1193.9043,354.4012,1189.9043" style="stroke:#181818;stroke-width:1.0;"/><text fill="#000000" font-family="sans-serif" font-size="13" font-weight="bold" lengthAdjust="spacing" textLength="14.872" x="354.4012" y="1171.0953">25</text><text fill="#000000" font-family="sans-serif" font-size="13" lengthAdjust="spacing" textLength="152.1392" x="373.2732" y="1171.0953">readPositioningMethod()</text><polygon fill="#181818" points="325.4012,1217.6103,335.4012,1221.6103,325.4012,1225.6103,329.4012,1221.6103" style="stroke:#181818;stroke-width:1.0;"/><line style="stroke:#181818;stroke-width:1.0;" x1="48.3089" x2="331.4012" y1="1221.6103" y2="1221.6103"/><text fill="#000000" font-family="sans-serif" font-size="13" font-weight="bold" lengthAdjust="spacing" textLength="14.872" x="55.3089" y="1215.8013">26</text><text fill="#000000" font-family="sans-serif" font-size="13" lengthAdjust="spacing" textLength="246.2202" x="74.181" y="1215.8013">Indicate houseblock positioning method</text><path d="M10,1236.6103 L83.288,1236.6103 L83.288,1246.3163 L73.288,1256.3163 L10,1256.3163 L10,1236.6103 " fill="#EEEEEE" style="stroke:#000000;stroke-width:1.5;"/><rect fill="none" height="458.1601" style="stroke:#000000;stroke-width:1.5;" width="1378.8114" x="10" y="1236.6103"/><text fill="#000000" font-family="sans-serif" font-size="13" font-weight="bold" lengthAdjust="spacing" textLength="28.288" x="25" y="1251.5073">loop</text><text fill="#000000" font-family="sans-serif" font-size="11" font-weight="bold" lengthAdjust="spacing" textLength="126.4661" x="98.288" y="1250.3692">[House Block Quantity]</text><path d="M20,1263.3163 L82.459,1263.3163 L82.459,1273.0223 L72.459,1283.0223 L20,1283.0223 L20,1263.3163 " fill="#EEEEEE" style="stroke:#000000;stroke-width:1.5;"/><rect fill="none" height="424.4541" style="stroke:#000000;stroke-width:1.5;" width="1358.8114" x="20" y="1263.3163"/><text fill="#000000" font-family="sans-serif" font-size="13" font-weight="bold" lengthAdjust="spacing" textLength="17.459" x="35" y="1278.2133">alt</text><text fill="#000000" font-family="sans-serif" font-size="11" font-weight="bold" lengthAdjust="spacing" textLength="152.8879" x="97.459" y="1277.0752">[Placement Type - MANUAL]</text><line style="stroke:#181818;stroke-width:1.0;stroke-dasharray:2.0,2.0;" x1="347.4012" x2="389.4012" y1="1306.7284" y2="1306.7284"/><line style="stroke:#181818;stroke-width:1.0;stroke-dasharray:2.0,2.0;" x1="389.4012" x2="389.4012" y1="1306.7284" y2="1319.7284"/><line style="stroke:#181818;stroke-width:1.0;stroke-dasharray:2.0,2.0;" x1="348.4012" x2="389.4012" y1="1319.7284" y2="1319.7284"/><polygon fill="#181818" points="358.4012,1315.7284,348.4012,1319.7284,358.4012,1323.7284,354.4012,1319.7284" style="stroke:#181818;stroke-width:1.0;"/><text fill="#000000" font-family="sans-serif" font-size="13" font-weight="bold" lengthAdjust="spacing" textLength="14.872" x="354.4012" y="1300.9194">27</text><text fill="#000000" font-family="sans-serif" font-size="13" lengthAdjust="spacing" textLength="115.3491" x="373.2732" y="1300.9194">readHouseBlockX()</text><polygon fill="#181818" points="325.4012,1347.4344,335.4012,1351.4344,325.4012,1355.4344,329.4012,1351.4344" style="stroke:#181818;stroke-width:1.0;"/><line style="stroke:#181818;stroke-width:1.0;" x1="48.3089" x2="331.4012" y1="1351.4344" y2="1351.4344"/><text fill="#000000" font-family="sans-serif" font-size="13" font-weight="bold" lengthAdjust="spacing" textLength="14.872" x="55.3089" y="1345.6254">28</text><text fill="#000000" font-family="sans-serif" font-size="13" lengthAdjust="spacing" textLength="210.0932" x="74.181" y="1345.6254">Indicate houseblock coordinate (x)</text><line style="stroke:#181818;stroke-width:1.0;stroke-dasharray:2.0,2.0;" x1="347.4012" x2="389.4012" y1="1383.1404" y2="1383.1404"/><line style="stroke:#181818;stroke-width:1.0;stroke-dasharray:2.0,2.0;" x1="389.4012" x2="389.4012" y1="1383.1404" y2="1396.1404"/><line style="stroke:#181818;stroke-width:1.0;stroke-dasharray:2.0,2.0;" x1="348.4012" x2="389.4012" y1="1396.1404" y2="1396.1404"/><polygon fill="#181818" points="358.4012,1392.1404,348.4012,1396.1404,358.4012,1400.1404,354.4012,1396.1404" style="stroke:#181818;stroke-width:1.0;"/><text fill="#000000" font-family="sans-serif" font-size="13" font-weight="bold" lengthAdjust="spacing" textLength="14.872" x="354.4012" y="1377.3314">29</text><text fill="#000000" font-family="sans-serif" font-size="13" lengthAdjust="spacing" textLength="115.0891" x="373.2732" y="1377.3314">readHouseBlockY()</text><polygon fill="#181818" points="325.4012,1423.8464,335.4012,1427.8464,325.4012,1431.8464,329.4012,1427.8464" style="stroke:#181818;stroke-width:1.0;"/><line style="stroke:#181818;stroke-width:1.0;" x1="48.3089" x2="331.4012" y1="1427.8464" y2="1427.8464"/><text fill="#000000" font-family="sans-serif" font-size="13" font-weight="bold" lengthAdjust="spacing" textLength="14.872" x="55.3089" y="1422.0374">30</text><text fill="#000000" font-family="sans-serif" font-size="13" lengthAdjust="spacing" textLength="209.8462" x="74.181" y="1422.0374">Indicate houseblock coordinate (y)</text><polygon fill="#181818" points="665.3834,1455.5524,675.3834,1459.5524,665.3834,1463.5524,669.3834,1459.5524" style="stroke:#181818;stroke-width:1.0;"/><line style="stroke:#181818;stroke-width:1.0;" x1="347.4012" x2="671.3834" y1="1459.5524" y2="1459.5524"/><text fill="#000000" font-family="sans-serif" font-size="13" font-weight="bold" lengthAdjust="spacing" textLength="14.872" x="354.4012" y="1453.7434">31</text><text fill="#000000" font-family="sans-serif" font-size="13" lengthAdjust="spacing" textLength="292.1102" x="373.2732" y="1453.7434">createCityBlock(city, houseBlockX, houseBlockY)</text><polygon fill="#181818" points="1129.3111,1487.2584,1139.3111,1491.2584,1129.3111,1495.2584,1133.3111,1491.2584" style="stroke:#181818;stroke-width:1.0;"/><line style="stroke:#181818;stroke-width:1.0;" x1="682.3834" x2="1135.3111" y1="1491.2584" y2="1491.2584"/><text fill="#000000" font-family="sans-serif" font-size="13" font-weight="bold" lengthAdjust="spacing" textLength="14.872" x="689.3834" y="1485.4494">32</text><text fill="#000000" font-family="sans-serif" font-size="13" lengthAdjust="spacing" textLength="118.0011" x="708.2554" y="1485.4494">createHouseBlock()</text><line style="stroke:#000000;stroke-width:1.0;stroke-dasharray:2.0,2.0;" x1="20" x2="1378.8114" y1="1500.2584" y2="1500.2584"/><text fill="#000000" font-family="sans-serif" font-size="11" font-weight="bold" lengthAdjust="spacing" textLength="209.0205" x="25" y="1512.0174">[Placement Type - NORMAL (Random)]</text><line style="stroke:#181818;stroke-width:1.0;stroke-dasharray:2.0,2.0;" x1="347.4012" x2="389.4012" y1="1539.9464" y2="1539.9464"/><line style="stroke:#181818;stroke-width:1.0;stroke-dasharray:2.0,2.0;" x1="389.4012" x2="389.4012" y1="1539.9464" y2="1552.9464"/><line style="stroke:#181818;stroke-width:1.0;stroke-dasharray:2.0,2.0;" x1="348.4012" x2="389.4012" y1="1552.9464" y2="1552.9464"/><polygon fill="#181818" points="358.4012,1548.9464,348.4012,1552.9464,358.4012,1556.9464,354.4012,1552.9464" style="stroke:#181818;stroke-width:1.0;"/><text fill="#000000" font-family="sans-serif" font-size="13" font-weight="bold" lengthAdjust="spacing" textLength="14.872" x="354.4012" y="1534.1373">33</text><text fill="#000000" font-family="sans-serif" font-size="13" lengthAdjust="spacing" textLength="224.6142" x="373.2732" y="1534.1373">generateHouseBlocksAutomatically()</text><polygon fill="#181818" points="1279.3057,1580.6524,1289.3057,1584.6524,1279.3057,1588.6524,1283.3057,1584.6524" style="stroke:#181818;stroke-width:1.0;"/><line style="stroke:#181818;stroke-width:1.0;" x1="347.4012" x2="1285.3057" y1="1584.6524" y2="1584.6524"/><text fill="#000000" font-family="sans-serif" font-size="13" font-weight="bold" lengthAdjust="spacing" textLength="14.872" x="354.4012" y="1578.8434">34</text><text fill="#000000" font-family="sans-serif" font-size="13" lengthAdjust="spacing" textLength="128.5051" x="373.2732" y="1578.8434">getRandomPosition()</text><polygon fill="#181818" points="358.4012,1612.3584,348.4012,1616.3584,358.4012,1620.3584,354.4012,1616.3584" style="stroke:#181818;stroke-width:1.0;"/><line style="stroke:#181818;stroke-width:1.0;stroke-dasharray:2.0,2.0;" x1="352.4012" x2="1295.3057" y1="1616.3584" y2="1616.3584"/><text fill="#000000" font-family="sans-serif" font-size="13" font-weight="bold" lengthAdjust="spacing" textLength="14.872" x="364.4012" y="1610.5494">35</text><text fill="#000000" font-family="sans-serif" font-size="13" lengthAdjust="spacing" textLength="122.7591" x="383.2732" y="1610.5494">randomPosition(x,y)</text><polygon fill="#181818" points="665.3834,1644.0644,675.3834,1648.0644,665.3834,1652.0644,669.3834,1648.0644" style="stroke:#181818;stroke-width:1.0;"/><line style="stroke:#181818;stroke-width:1.0;" x1="347.4012" x2="671.3834" y1="1648.0644" y2="1648.0644"/><text fill="#000000" font-family="sans-serif" font-size="13" font-weight="bold" lengthAdjust="spacing" textLength="14.872" x="354.4012" y="1642.2554">36</text><text fill="#000000" font-family="sans-serif" font-size="13" lengthAdjust="spacing" textLength="149.9551" x="373.2732" y="1642.2554">createCityBlock(city, x, y)</text><polygon fill="#181818" points="1129.3111,1675.7704,1139.3111,1679.7704,1129.3111,1683.7704,1133.3111,1679.7704" style="stroke:#181818;stroke-width:1.0;"/><line style="stroke:#181818;stroke-width:1.0;" x1="682.3834" x2="1135.3111" y1="1679.7704" y2="1679.7704"/><text fill="#000000" font-family="sans-serif" font-size="13" font-weight="bold" lengthAdjust="spacing" textLength="14.872" x="689.3834" y="1673.9614">37</text><text fill="#000000" font-family="sans-serif" font-size="13" lengthAdjust="spacing" textLength="118.0011" x="708.2554" y="1673.9614">createHouseBlock()</text><polygon fill="#181818" points="59.3089,1721.4764,49.3089,1725.4764,59.3089,1729.4764,55.3089,1725.4764" style="stroke:#181818;stroke-width:1.0;"/><line style="stroke:#181818;stroke-width:1.0;stroke-dasharray:2.0,2.0;" x1="53.3089" x2="341.4012" y1="1725.4764" y2="1725.4764"/><text fill="#000000" font-family="sans-serif" font-size="13" font-weight="bold" lengthAdjust="spacing" textLength="14.872" x="65.3089" y="1719.6674">38</text><text fill="#000000" font-family="sans-serif" font-size="13" lengthAdjust="spacing" textLength="85.0331" x="84.181" y="1719.6674">handleMenu()</text><!--SRC=[pLPHZzem37xlh_1ZJuBffBqXSHBZ9Ws9CWP3EXv3wq6qDEdQ5D7z-YMXBMaReDpsC2Ia9BO_srziDv9AXh1PFpz_17_z-WH3cAP890A1APM5vv5S2fx7EqpLEfGYXKscrWb99GrfGhWqYfyZgcIRsHN1L72P2iOSbYjCHAPrYePeBa8YgU1Nn6iQvuoeumvUuo0WIME_J4MKXt95U2HY-hiLJYdzNYJeUUCnp4dEmmDiPZ0UUpfj6BuqiXr1cdF_IHD3Zvgr1XMUlODXrnP9f4yM94O5udOmun5LJ606NAdrXNphWHSAaKQKwx3zqrDVvEs3o4Klv82SbYJBaEynpVfmOIeIn0-8oGcIshIdhu1Gzh2NM1crx_J5MUCZsAES79K-sJ4igofprudL6Qv3xS8gon5yE1AMemQBy3PS7ovAwAjSh95XA24vgm6ZcJITKGu9hQnxenyfeJ7IihjKNEL2DNG5L4q8tmm8jR10TT-hlycwEqdC_TJcbfbZw7IFwZ0gaNqJ3WHBgiFgargR8pkTUlADW4HHM_Co5-jLVVKs0GxJrZ1kbPTRSd7Nol9kSQeY-YBo3E4J4-5FM38IOeng27VAoLcunjQOPjzoDRlFkK3vkztOSD36E-FtLsdSgrdAEgDy7w0yYEXT7fCB2iG6nlEO44c3ZYedWq-OjFZHOq1zfeF9OZEPr_uVekpD2lpn15hVZNT5iFrd4HJN8hW_XKmaVgXMWpFwcHnxixsWtwxdRWpDvjRdbUyB3HOBznf6wo1J1TAfXCNNLJ2PWtz-rFI-a3roJ1lHP1FrrelL-0e9OtOxjOdjlABCG3rlgoRn7SnrNr-LIaVYgg0c_cbGEDcxxkHlwkCqWEB_gWKUUVhV7LowZqPmKFap393d2jWzZjKJzGy0]--></g></svg>