<svg xmlns="http://www.w3.org/2000/svg" xmlns:xlink="http://www.w3.org/1999/xlink" contentStyleType="text/css" data-diagram-type="CLASS" height="436px" preserveAspectRatio="none" style="width:786px;height:436px;background:#FFFFFF;" version="1.1" viewBox="0 0 786 436" width="786px" zoomAndPan="magnify"><title>US018 - Perform the analyss of train distribution, passengers and mail across different stations</title><defs/><g><g class="title" data-source-line="1"><text fill="#000000" font-family="sans-serif" font-size="14" font-weight="bold" lengthAdjust="spacing" textLength="758.5566" x="10" y="22.9951">US018 - Perform the analyss of train distribution, passengers and mail across different stations</text></g><!--class StationDataAnalyzer--><g class="entity" data-entity="StationDataAnalyzer" data-source-line="3" data-uid="ent0002" id="entity_StationDataAnalyzer"><rect fill="#F1F1F1" height="178.375" rx="2.5" ry="2.5" style="stroke:#181818;stroke-width:0.5;" width="571.1113" x="110.7227" y="44.2969"/><ellipse cx="319.9673" cy="60.2969" fill="#ADD1B2" rx="11" ry="11" style="stroke:#181818;stroke-width:1;"/><path d="M322.936,65.9375 Q322.3579,66.2344 321.7173,66.375 Q321.0767,66.5313 320.3735,66.5313 Q317.8735,66.5313 316.5454,64.8906 Q315.2329,63.2344 315.2329,60.1094 Q315.2329,56.9844 316.5454,55.3281 Q317.8735,53.6719 320.3735,53.6719 Q321.0767,53.6719 321.7173,53.8281 Q322.3735,53.9844 322.936,54.2813 L322.936,57 Q322.311,56.4219 321.7173,56.1563 Q321.1235,55.875 320.4985,55.875 Q319.1548,55.875 318.4673,56.9531 Q317.7798,58.0156 317.7798,60.1094 Q317.7798,62.2031 318.4673,63.2813 Q319.1548,64.3438 320.4985,64.3438 Q321.1235,64.3438 321.7173,64.0781 Q322.311,63.7969 322.936,63.2188 L322.936,65.9375 Z " fill="#000000"/><text fill="#000000" font-family="sans-serif" font-size="14" lengthAdjust="spacing" textLength="144.1221" x="340.4673" y="65.1436">StationDataAnalyzer</text><line style="stroke:#181818;stroke-width:0.5;" x1="111.7227" x2="680.834" y1="76.2969" y2="76.2969"/><ellipse cx="121.7227" cy="89.9453" fill="none" rx="3" ry="3" style="stroke:#038048;stroke-width:1;"/><text fill="#000000" font-family="sans-serif" font-size="14" lengthAdjust="spacing" textLength="164.124" x="130.7227" y="93.292">DataFrame stationData</text><ellipse cx="121.7227" cy="106.2422" fill="none" rx="3" ry="3" style="stroke:#038048;stroke-width:1;"/><text fill="#000000" font-family="sans-serif" font-size="14" lengthAdjust="spacing" textLength="141.1758" x="130.7227" y="109.5889">list selectedStations</text><ellipse cx="121.7227" cy="122.5391" fill="none" rx="3" ry="3" style="stroke:#038048;stroke-width:1;"/><text fill="#000000" font-family="sans-serif" font-size="14" lengthAdjust="spacing" textLength="133.7178" x="130.7227" y="125.8857">datetime startDate</text><ellipse cx="121.7227" cy="138.8359" fill="none" rx="3" ry="3" style="stroke:#038048;stroke-width:1;"/><text fill="#000000" font-family="sans-serif" font-size="14" lengthAdjust="spacing" textLength="127.4834" x="130.7227" y="142.1826">datetime endDate</text><line style="stroke:#181818;stroke-width:0.5;" x1="111.7227" x2="680.834" y1="149.4844" y2="149.4844"/><ellipse cx="121.7227" cy="163.1328" fill="#84BE84" rx="3" ry="3" style="stroke:#038048;stroke-width:1;"/><text fill="#000000" font-family="sans-serif" font-size="14" lengthAdjust="spacing" textLength="202.877" x="130.7227" y="166.4795">load_us18_data() DataFrame</text><ellipse cx="121.7227" cy="179.4297" fill="#84BE84" rx="3" ry="3" style="stroke:#038048;stroke-width:1;"/><text fill="#000000" font-family="sans-serif" font-size="14" lengthAdjust="spacing" textLength="257.4141" x="130.7227" y="182.7764">print_station_list(stationNames) void</text><ellipse cx="121.7227" cy="195.7266" fill="#84BE84" rx="3" ry="3" style="stroke:#038048;stroke-width:1;"/><text fill="#000000" font-family="sans-serif" font-size="14" lengthAdjust="spacing" textLength="257.749" x="130.7227" y="199.0732">get_user_selection(dataFrame) tuple</text><ellipse cx="121.7227" cy="212.0234" fill="#84BE84" rx="3" ry="3" style="stroke:#038048;stroke-width:1;"/><text fill="#000000" font-family="sans-serif" font-size="14" lengthAdjust="spacing" textLength="545.1113" x="130.7227" y="215.3701">analyze_and_visualize(dataFrame, selectedStations, startDate, endDate) void</text></g><!--class DataFrame--><g class="entity" data-entity="DataFrame" data-source-line="14" data-uid="ent0003" id="entity_DataFrame"><rect fill="#F1F1F1" height="96.8906" rx="2.5" ry="2.5" style="stroke:#181818;stroke-width:0.5;" width="160.333" x="216.1127" y="315.9669"/><ellipse cx="253.7326" cy="331.9669" fill="#ADD1B2" rx="11" ry="11" style="stroke:#181818;stroke-width:1;"/><path d="M256.7014,337.6075 Q256.1233,337.9044 255.4826,338.045 Q254.842,338.2013 254.1389,338.2013 Q251.6389,338.2013 250.3108,336.5606 Q248.9983,334.9044 248.9983,331.7794 Q248.9983,328.6544 250.3108,326.9981 Q251.6389,325.3419 254.1389,325.3419 Q254.842,325.3419 255.4826,325.4981 Q256.1389,325.6544 256.7014,325.9513 L256.7014,328.67 Q256.0764,328.0919 255.4826,327.8263 Q254.8889,327.545 254.2639,327.545 Q252.9201,327.545 252.2326,328.6231 Q251.5451,329.6856 251.5451,331.7794 Q251.5451,333.8731 252.2326,334.9513 Q252.9201,336.0138 254.2639,336.0138 Q254.8889,336.0138 255.4826,335.7481 Q256.0764,335.4669 256.7014,334.8888 L256.7014,337.6075 Z " fill="#000000"/><text fill="#000000" font-family="sans-serif" font-size="14" lengthAdjust="spacing" textLength="78.0664" x="272.7593" y="336.8136">DataFrame</text><line style="stroke:#181818;stroke-width:0.5;" x1="217.1127" x2="375.4457" y1="347.9669" y2="347.9669"/><line style="stroke:#181818;stroke-width:0.5;" x1="217.1127" x2="375.4457" y1="355.9669" y2="355.9669"/><ellipse cx="227.1127" cy="369.6153" fill="#84BE84" rx="3" ry="3" style="stroke:#038048;stroke-width:1;"/><text fill="#000000" font-family="sans-serif" font-size="14" lengthAdjust="spacing" textLength="126.0068" x="236.1127" y="372.962">filter() DataFrame</text><ellipse cx="227.1127" cy="385.9122" fill="#84BE84" rx="3" ry="3" style="stroke:#038048;stroke-width:1;"/><text fill="#000000" font-family="sans-serif" font-size="14" lengthAdjust="spacing" textLength="134.333" x="236.1127" y="389.2589">groupby() GroupBy</text><ellipse cx="227.1127" cy="402.2091" fill="#84BE84" rx="3" ry="3" style="stroke:#038048;stroke-width:1;"/><text fill="#000000" font-family="sans-serif" font-size="14" lengthAdjust="spacing" textLength="119.793" x="236.1127" y="405.5557">agg() DataFrame</text></g><!--class MatplotlibVisualizer--><g class="entity" data-entity="MatplotlibVisualizer" data-source-line="20" data-uid="ent0004" id="entity_MatplotlibVisualizer"><rect fill="#F1F1F1" height="129.4844" rx="2.5" ry="2.5" style="stroke:#181818;stroke-width:0.5;" width="169.3545" x="411.6027" y="299.6769"/><ellipse cx="426.6027" cy="315.6769" fill="#ADD1B2" rx="11" ry="11" style="stroke:#181818;stroke-width:1;"/><path d="M429.5714,321.3175 Q428.9933,321.6144 428.3527,321.755 Q427.712,321.9113 427.0089,321.9113 Q424.5089,321.9113 423.1808,320.2706 Q421.8683,318.6144 421.8683,315.4894 Q421.8683,312.3644 423.1808,310.7081 Q424.5089,309.0519 427.0089,309.0519 Q427.712,309.0519 428.3527,309.2081 Q429.0089,309.3644 429.5714,309.6613 L429.5714,312.38 Q428.9464,311.8019 428.3527,311.5363 Q427.7589,311.255 427.1339,311.255 Q425.7902,311.255 425.1027,312.3331 Q424.4152,313.3956 424.4152,315.4894 Q424.4152,317.5831 425.1027,318.6613 Q425.7902,319.7238 427.1339,319.7238 Q427.7589,319.7238 428.3527,319.4581 Q428.9464,319.1769 429.5714,318.5988 L429.5714,321.3175 Z " fill="#000000"/><text fill="#000000" font-family="sans-serif" font-size="14" lengthAdjust="spacing" textLength="137.3545" x="440.6027" y="320.5236">MatplotlibVisualizer</text><line style="stroke:#181818;stroke-width:0.5;" x1="412.6027" x2="579.9571" y1="331.6769" y2="331.6769"/><line style="stroke:#181818;stroke-width:0.5;" x1="412.6027" x2="579.9571" y1="339.6769" y2="339.6769"/><ellipse cx="422.6027" cy="353.3253" fill="#84BE84" rx="3" ry="3" style="stroke:#038048;stroke-width:1;"/><text fill="#000000" font-family="sans-serif" font-size="14" lengthAdjust="spacing" textLength="51.8711" x="431.6027" y="356.672">figure()</text><ellipse cx="422.6027" cy="369.6222" fill="#84BE84" rx="3" ry="3" style="stroke:#038048;stroke-width:1;"/><text fill="#000000" font-family="sans-serif" font-size="14" lengthAdjust="spacing" textLength="32.3135" x="431.6027" y="372.9689">pie()</text><ellipse cx="422.6027" cy="385.9191" fill="#84BE84" rx="3" ry="3" style="stroke:#038048;stroke-width:1;"/><text fill="#000000" font-family="sans-serif" font-size="14" lengthAdjust="spacing" textLength="38.2949" x="431.6027" y="389.2657">title()</text><ellipse cx="422.6027" cy="402.2159" fill="#84BE84" rx="3" ry="3" style="stroke:#038048;stroke-width:1;"/><text fill="#000000" font-family="sans-serif" font-size="14" lengthAdjust="spacing" textLength="58.6865" x="431.6027" y="405.5626">legend()</text><ellipse cx="422.6027" cy="418.5128" fill="#84BE84" rx="3" ry="3" style="stroke:#038048;stroke-width:1;"/><text fill="#000000" font-family="sans-serif" font-size="14" lengthAdjust="spacing" textLength="47.1064" x="431.6027" y="421.8595">show()</text></g><!--link StationDataAnalyzer to DataFrame--><g class="link" data-entity-1="StationDataAnalyzer" data-entity-2="DataFrame" data-source-line="28" data-uid="lnk5" id="link_StationDataAnalyzer_DataFrame"><path codeLine="28" d="M357.6127,222.9969 C343.8227,254.5769 331.2145,283.4386 319.4945,310.2686" fill="none" id="StationDataAnalyzer-to-DataFrame" style="stroke:#181818;stroke-width:1;"/><polygon fill="#181818" points="317.0927,315.7669,324.3609,309.1206,319.0942,311.185,317.0298,305.9182,317.0927,315.7669" style="stroke:#181818;stroke-width:1;"/><text fill="#000000" font-family="sans-serif" font-size="13" lengthAdjust="spacing" textLength="31.0591" x="345.2827" y="265.7438">Uses</text></g><!--link StationDataAnalyzer to MatplotlibVisualizer--><g class="link" data-entity-1="StationDataAnalyzer" data-entity-2="MatplotlibVisualizer" data-source-line="29" data-uid="lnk6" id="link_StationDataAnalyzer_MatplotlibVisualizer"><path codeLine="29" d="M434.9427,222.9969 C446.0427,248.4069 455.5302,270.1289 465.8602,293.7689" fill="none" id="StationDataAnalyzer-to-MatplotlibVisualizer" style="stroke:#181818;stroke-width:1;"/><polygon fill="#181818" points="468.2627,299.2669,468.3243,289.4182,466.2606,294.6852,460.9936,292.6215,468.2627,299.2669" style="stroke:#181818;stroke-width:1;"/><text fill="#000000" font-family="sans-serif" font-size="13" lengthAdjust="spacing" textLength="31.0591" x="455.2827" y="265.7438">Uses</text></g><!--SRC=[VLB1QiCm3BttAtHiM0hhhUmms1ZRQMDGkcjGQoKLk76GbOvsxDzdDqtZqZ0VGYoz9xttiB9QWjNoVhw06NoIb4vse5i2hD4Ul0TNWWfo3OQz2gzRPLVdqA3tL5SaFY0Dx90ju4PSO1WkInAg5RnYHFl91CBPsC21PLTxGSMdkE980Z-dVZntiVugkAEU70j3smOHuCdIHiai-_6Nja4bvOui6gWqqgFQN7UiGrEqVhue0WQd6Ln439X6kDRYhAc8CgRdoqV0-GpsZiq0hqZ3H9AYqnfWKzCFpK3RnYQpiSkX244MU_OjMZxIWCzl3EU3lxotaoZuFNsJp8TGawHBjaeoxhOIrpRhGsY-nR_dGoAsgcuuDmlVKHlhrFBwg_SZrxkhLcYQ9VdorLNZkqmBbgfWDAtuhVi-tvFzOyzhDdjC8dY0bIV_BtXKViVx0m00]--></g></svg>