<svg xmlns="http://www.w3.org/2000/svg" xmlns:xlink="http://www.w3.org/1999/xlink" contentStyleType="text/css" data-diagram-type="SEQUENCE" height="1820px" preserveAspectRatio="none" style="width:2111px;height:1820px;background:#FFFFFF;" version="1.1" viewBox="0 0 2111 1820" width="2111px" zoomAndPan="magnify"><defs/><g><g><title>Player</title><rect fill="#000000" fill-opacity="0.00000" height="1658.6406" width="8" x="25.7827" y="81.2969"/><line style="stroke:#181818;stroke-width:0.5;stroke-dasharray:5.0,5.0;" x1="29" x2="29" y1="81.2969" y2="1739.9375"/></g><g><title>MenuUI</title><rect fill="#000000" fill-opacity="0.00000" height="1658.6406" width="8" x="93.9727" y="81.2969"/><line style="stroke:#181818;stroke-width:0.5;stroke-dasharray:5.0,5.0;" x1="97.5654" x2="97.5654" y1="81.2969" y2="1739.9375"/></g><g><title>CreateMapUI</title><rect fill="#000000" fill-opacity="0.00000" height="1658.6406" width="8" x="189.7534" y="81.2969"/><line style="stroke:#181818;stroke-width:0.5;stroke-dasharray:5.0,5.0;" x1="193.3799" x2="193.3799" y1="81.2969" y2="1739.9375"/></g><g><title>CreateScenarioUI</title><rect fill="#000000" fill-opacity="0.00000" height="1658.6406" width="8" x="320.1582" y="81.2969"/><line style="stroke:#181818;stroke-width:0.5;stroke-dasharray:5.0,5.0;" x1="324.127" x2="324.127" y1="81.2969" y2="1739.9375"/></g><g><title>CityEditorUI</title><rect fill="#000000" fill-opacity="0.00000" height="1658.6406" width="8" x="446.8135" y="81.2969"/><line style="stroke:#181818;stroke-width:0.5;stroke-dasharray:5.0,5.0;" x1="450.1895" x2="450.1895" y1="81.2969" y2="1739.9375"/></g><g><title>IndustryEditorUI</title><rect fill="#000000" fill-opacity="0.00000" height="1658.6406" width="8" x="569.1348" y="81.2969"/><line style="stroke:#181818;stroke-width:0.5;stroke-dasharray:5.0,5.0;" x1="572.4375" x2="572.4375" y1="81.2969" y2="1739.9375"/></g><g><title>CreateStationUI</title><rect fill="#000000" fill-opacity="0.00000" height="1658.6406" width="8" x="705.3193" y="81.2969"/><line style="stroke:#181818;stroke-width:0.5;stroke-dasharray:5.0,5.0;" x1="708.832" x2="708.832" y1="81.2969" y2="1739.9375"/></g><g><title>UpgradeStationUI</title><rect fill="#000000" fill-opacity="0.00000" height="1658.6406" width="8" x="846.8086" y="81.2969"/><line style="stroke:#181818;stroke-width:0.5;stroke-dasharray:5.0,5.0;" x1="850.8066" x2="850.8066" y1="81.2969" y2="1739.9375"/></g><g><title>ViewStationUI</title><rect fill="#000000" fill-opacity="0.00000" height="1658.6406" width="8" x="981.6499" y="81.2969"/><line style="stroke:#181818;stroke-width:0.5;stroke-dasharray:5.0,5.0;" x1="984.8105" x2="984.8105" y1="81.2969" y2="1739.9375"/></g><g><title>CreateRailwayLineUI</title><rect fill="#000000" fill-opacity="0.00000" height="1658.6406" width="8" x="1126.8784" y="81.2969"/><line style="stroke:#181818;stroke-width:0.5;stroke-dasharray:5.0,5.0;" x1="1130.4893" x2="1130.4893" y1="81.2969" y2="1739.9375"/></g><g><title>BuyLocomotiveUI</title><rect fill="#000000" fill-opacity="0.00000" height="1658.6406" width="8" x="1284.3911" y="81.2969"/><line style="stroke:#181818;stroke-width:0.5;stroke-dasharray:5.0,5.0;" x1="1288.2676" x2="1288.2676" y1="81.2969" y2="1739.9375"/></g><g><title>AssignRouteUI</title><rect fill="#000000" fill-opacity="0.00000" height="1658.6406" width="8" x="1420.2441" y="81.2969"/><line style="stroke:#181818;stroke-width:0.5;stroke-dasharray:5.0,5.0;" x1="1423.5146" x2="1423.5146" y1="81.2969" y2="1739.9375"/></g><g><title>ViewTrainsUI</title><rect fill="#000000" fill-opacity="0.00000" height="1658.6406" width="8" x="1540.3984" y="81.2969"/><line style="stroke:#181818;stroke-width:0.5;stroke-dasharray:5.0,5.0;" x1="1543.9736" x2="1543.9736" y1="81.2969" y2="1739.9375"/></g><g><title>SimulatorUI</title><rect fill="#000000" fill-opacity="0.00000" height="1658.6406" width="8" x="1650.7944" y="81.2969"/><line style="stroke:#181818;stroke-width:0.5;stroke-dasharray:5.0,5.0;" x1="1653.8232" x2="1653.8232" y1="81.2969" y2="1739.9375"/></g><g><title>Controller</title><rect fill="#000000" fill-opacity="0.00000" height="1658.6406" width="8" x="1750.3521" y="81.2969"/><line style="stroke:#181818;stroke-width:0.5;stroke-dasharray:5.0,5.0;" x1="1753.7656" x2="1753.7656" y1="81.2969" y2="1739.9375"/></g><g><title>DomainModel</title><rect fill="#000000" fill-opacity="0.00000" height="1658.6406" width="8" x="1899.5469" y="81.2969"/><line style="stroke:#181818;stroke-width:0.5;stroke-dasharray:5.0,5.0;" x1="1903.3672" x2="1903.3672" y1="81.2969" y2="1739.9375"/></g><g><title>AuthenticationUI</title><rect fill="#000000" fill-opacity="0.00000" height="1658.6406" width="8" x="2030.3003" y="81.2969"/><line style="stroke:#181818;stroke-width:0.5;stroke-dasharray:5.0,5.0;" x1="2033.7266" x2="2033.7266" y1="81.2969" y2="1739.9375"/></g><g class="participant participant-head" data-participant="Player"><text fill="#000000" font-family="sans-serif" font-size="14" lengthAdjust="spacing" textLength="43.5654" x="5" y="77.9951">Player</text><ellipse cx="29.7827" cy="13.5" fill="#E2E2F0" rx="8" ry="8" style="stroke:#181818;stroke-width:0.5;"/><path d="M29.7827,21.5 L29.7827,48.5 M16.7827,29.5 L42.7827,29.5 M29.7827,48.5 L16.7827,63.5 M29.7827,48.5 L42.7827,63.5" fill="none" style="stroke:#181818;stroke-width:0.5;"/></g><g class="participant participant-tail" data-participant="Player"><text fill="#000000" font-family="sans-serif" font-size="14" lengthAdjust="spacing" textLength="43.5654" x="5" y="1751.9326">Player</text><ellipse cx="29.7827" cy="1763.7344" fill="#E2E2F0" rx="8" ry="8" style="stroke:#181818;stroke-width:0.5;"/><path d="M29.7827,1771.7344 L29.7827,1798.7344 M16.7827,1779.7344 L42.7827,1779.7344 M29.7827,1798.7344 L16.7827,1813.7344 M29.7827,1798.7344 L42.7827,1813.7344" fill="none" style="stroke:#181818;stroke-width:0.5;"/></g><g class="participant participant-head" data-participant="MenuUI"><rect fill="#E2E2F0" height="30.2969" rx="2.5" ry="2.5" style="stroke:#181818;stroke-width:0.5;" width="66.8145" x="64.5654" y="50"/><text fill="#000000" font-family="sans-serif" font-size="14" lengthAdjust="spacing" textLength="52.8145" x="71.5654" y="69.9951">MenuUI</text></g><g class="participant participant-tail" data-participant="MenuUI"><rect fill="#E2E2F0" height="30.2969" rx="2.5" ry="2.5" style="stroke:#181818;stroke-width:0.5;" width="66.8145" x="64.5654" y="1738.9375"/><text fill="#000000" font-family="sans-serif" font-size="14" lengthAdjust="spacing" textLength="52.8145" x="71.5654" y="1758.9326">MenuUI</text></g><g class="participant participant-head" data-participant="CreateMapUI"><rect fill="#E2E2F0" height="30.2969" rx="2.5" ry="2.5" style="stroke:#181818;stroke-width:0.5;" width="104.7471" x="141.3799" y="50"/><text fill="#000000" font-family="sans-serif" font-size="14" lengthAdjust="spacing" textLength="90.7471" x="148.3799" y="69.9951">CreateMapUI</text></g><g class="participant participant-tail" data-participant="CreateMapUI"><rect fill="#E2E2F0" height="30.2969" rx="2.5" ry="2.5" style="stroke:#181818;stroke-width:0.5;" width="104.7471" x="141.3799" y="1738.9375"/><text fill="#000000" font-family="sans-serif" font-size="14" lengthAdjust="spacing" textLength="90.7471" x="148.3799" y="1758.9326">CreateMapUI</text></g><g class="participant participant-head" data-participant="CreateScenarioUI"><rect fill="#E2E2F0" height="30.2969" rx="2.5" ry="2.5" style="stroke:#181818;stroke-width:0.5;" width="136.0625" x="256.127" y="50"/><text fill="#000000" font-family="sans-serif" font-size="14" lengthAdjust="spacing" textLength="122.0625" x="263.127" y="69.9951">CreateScenarioUI</text></g><g class="participant participant-tail" data-participant="CreateScenarioUI"><rect fill="#E2E2F0" height="30.2969" rx="2.5" ry="2.5" style="stroke:#181818;stroke-width:0.5;" width="136.0625" x="256.127" y="1738.9375"/><text fill="#000000" font-family="sans-serif" font-size="14" lengthAdjust="spacing" textLength="122.0625" x="263.127" y="1758.9326">CreateScenarioUI</text></g><g class="participant participant-head" data-participant="CityEditorUI"><rect fill="#E2E2F0" height="30.2969" rx="2.5" ry="2.5" style="stroke:#181818;stroke-width:0.5;" width="97.248" x="402.1895" y="50"/><text fill="#000000" font-family="sans-serif" font-size="14" lengthAdjust="spacing" textLength="83.248" x="409.1895" y="69.9951">CityEditorUI</text></g><g class="participant participant-tail" data-participant="CityEditorUI"><rect fill="#E2E2F0" height="30.2969" rx="2.5" ry="2.5" style="stroke:#181818;stroke-width:0.5;" width="97.248" x="402.1895" y="1738.9375"/><text fill="#000000" font-family="sans-serif" font-size="14" lengthAdjust="spacing" textLength="83.248" x="409.1895" y="1758.9326">CityEditorUI</text></g><g class="participant participant-head" data-participant="IndustryEditorUI"><rect fill="#E2E2F0" height="30.2969" rx="2.5" ry="2.5" style="stroke:#181818;stroke-width:0.5;" width="127.3945" x="509.4375" y="50"/><text fill="#000000" font-family="sans-serif" font-size="14" lengthAdjust="spacing" textLength="113.3945" x="516.4375" y="69.9951">IndustryEditorUI</text></g><g class="participant participant-tail" data-participant="IndustryEditorUI"><rect fill="#E2E2F0" height="30.2969" rx="2.5" ry="2.5" style="stroke:#181818;stroke-width:0.5;" width="127.3945" x="509.4375" y="1738.9375"/><text fill="#000000" font-family="sans-serif" font-size="14" lengthAdjust="spacing" textLength="113.3945" x="516.4375" y="1758.9326">IndustryEditorUI</text></g><g class="participant participant-head" data-participant="CreateStationUI"><rect fill="#E2E2F0" height="30.2969" rx="2.5" ry="2.5" style="stroke:#181818;stroke-width:0.5;" width="124.9746" x="646.832" y="50"/><text fill="#000000" font-family="sans-serif" font-size="14" lengthAdjust="spacing" textLength="110.9746" x="653.832" y="69.9951">CreateStationUI</text></g><g class="participant participant-tail" data-participant="CreateStationUI"><rect fill="#E2E2F0" height="30.2969" rx="2.5" ry="2.5" style="stroke:#181818;stroke-width:0.5;" width="124.9746" x="646.832" y="1738.9375"/><text fill="#000000" font-family="sans-serif" font-size="14" lengthAdjust="spacing" textLength="110.9746" x="653.832" y="1758.9326">CreateStationUI</text></g><g class="participant participant-head" data-participant="UpgradeStationUI"><rect fill="#E2E2F0" height="30.2969" rx="2.5" ry="2.5" style="stroke:#181818;stroke-width:0.5;" width="138.0039" x="781.8066" y="50"/><text fill="#000000" font-family="sans-serif" font-size="14" lengthAdjust="spacing" textLength="124.0039" x="788.8066" y="69.9951">UpgradeStationUI</text></g><g class="participant participant-tail" data-participant="UpgradeStationUI"><rect fill="#E2E2F0" height="30.2969" rx="2.5" ry="2.5" style="stroke:#181818;stroke-width:0.5;" width="138.0039" x="781.8066" y="1738.9375"/><text fill="#000000" font-family="sans-serif" font-size="14" lengthAdjust="spacing" textLength="124.0039" x="788.8066" y="1758.9326">UpgradeStationUI</text></g><g class="participant participant-head" data-participant="ViewStationUI"><rect fill="#E2E2F0" height="30.2969" rx="2.5" ry="2.5" style="stroke:#181818;stroke-width:0.5;" width="111.6787" x="929.8105" y="50"/><text fill="#000000" font-family="sans-serif" font-size="14" lengthAdjust="spacing" textLength="97.6787" x="936.8105" y="69.9951">ViewStationUI</text></g><g class="participant participant-tail" data-participant="ViewStationUI"><rect fill="#E2E2F0" height="30.2969" rx="2.5" ry="2.5" style="stroke:#181818;stroke-width:0.5;" width="111.6787" x="929.8105" y="1738.9375"/><text fill="#000000" font-family="sans-serif" font-size="14" lengthAdjust="spacing" textLength="97.6787" x="936.8105" y="1758.9326">ViewStationUI</text></g><g class="participant participant-head" data-participant="CreateRailwayLineUI"><rect fill="#E2E2F0" height="30.2969" rx="2.5" ry="2.5" style="stroke:#181818;stroke-width:0.5;" width="158.7783" x="1051.4893" y="50"/><text fill="#000000" font-family="sans-serif" font-size="14" lengthAdjust="spacing" textLength="144.7783" x="1058.4893" y="69.9951">CreateRailwayLineUI</text></g><g class="participant participant-tail" data-participant="CreateRailwayLineUI"><rect fill="#E2E2F0" height="30.2969" rx="2.5" ry="2.5" style="stroke:#181818;stroke-width:0.5;" width="158.7783" x="1051.4893" y="1738.9375"/><text fill="#000000" font-family="sans-serif" font-size="14" lengthAdjust="spacing" textLength="144.7783" x="1058.4893" y="1758.9326">CreateRailwayLineUI</text></g><g class="participant participant-head" data-participant="BuyLocomotiveUI"><rect fill="#E2E2F0" height="30.2969" rx="2.5" ry="2.5" style="stroke:#181818;stroke-width:0.5;" width="136.2471" x="1220.2676" y="50"/><text fill="#000000" font-family="sans-serif" font-size="14" lengthAdjust="spacing" textLength="122.2471" x="1227.2676" y="69.9951">BuyLocomotiveUI</text></g><g class="participant participant-tail" data-participant="BuyLocomotiveUI"><rect fill="#E2E2F0" height="30.2969" rx="2.5" ry="2.5" style="stroke:#181818;stroke-width:0.5;" width="136.2471" x="1220.2676" y="1738.9375"/><text fill="#000000" font-family="sans-serif" font-size="14" lengthAdjust="spacing" textLength="122.2471" x="1227.2676" y="1758.9326">BuyLocomotiveUI</text></g><g class="participant participant-head" data-participant="AssignRouteUI"><rect fill="#E2E2F0" height="30.2969" rx="2.5" ry="2.5" style="stroke:#181818;stroke-width:0.5;" width="115.459" x="1366.5146" y="50"/><text fill="#000000" font-family="sans-serif" font-size="14" lengthAdjust="spacing" textLength="101.459" x="1373.5146" y="69.9951">AssignRouteUI</text></g><g class="participant participant-tail" data-participant="AssignRouteUI"><rect fill="#E2E2F0" height="30.2969" rx="2.5" ry="2.5" style="stroke:#181818;stroke-width:0.5;" width="115.459" x="1366.5146" y="1738.9375"/><text fill="#000000" font-family="sans-serif" font-size="14" lengthAdjust="spacing" textLength="101.459" x="1373.5146" y="1758.9326">AssignRouteUI</text></g><g class="participant participant-head" data-participant="ViewTrainsUI"><rect fill="#E2E2F0" height="30.2969" rx="2.5" ry="2.5" style="stroke:#181818;stroke-width:0.5;" width="104.8496" x="1491.9736" y="50"/><text fill="#000000" font-family="sans-serif" font-size="14" lengthAdjust="spacing" textLength="90.8496" x="1498.9736" y="69.9951">ViewTrainsUI</text></g><g class="participant participant-tail" data-participant="ViewTrainsUI"><rect fill="#E2E2F0" height="30.2969" rx="2.5" ry="2.5" style="stroke:#181818;stroke-width:0.5;" width="104.8496" x="1491.9736" y="1738.9375"/><text fill="#000000" font-family="sans-serif" font-size="14" lengthAdjust="spacing" textLength="90.8496" x="1498.9736" y="1758.9326">ViewTrainsUI</text></g><g class="participant participant-head" data-participant="SimulatorUI"><rect fill="#E2E2F0" height="30.2969" rx="2.5" ry="2.5" style="stroke:#181818;stroke-width:0.5;" width="95.9424" x="1606.8232" y="50"/><text fill="#000000" font-family="sans-serif" font-size="14" lengthAdjust="spacing" textLength="81.9424" x="1613.8232" y="69.9951">SimulatorUI</text></g><g class="participant participant-tail" data-participant="SimulatorUI"><rect fill="#E2E2F0" height="30.2969" rx="2.5" ry="2.5" style="stroke:#181818;stroke-width:0.5;" width="95.9424" x="1606.8232" y="1738.9375"/><text fill="#000000" font-family="sans-serif" font-size="14" lengthAdjust="spacing" textLength="81.9424" x="1613.8232" y="1758.9326">SimulatorUI</text></g><g class="participant participant-head" data-participant="Controller"><rect fill="#E2E2F0" height="30.2969" rx="2.5" ry="2.5" style="stroke:#181818;stroke-width:0.5;" width="83.1729" x="1712.7656" y="50"/><text fill="#000000" font-family="sans-serif" font-size="14" lengthAdjust="spacing" textLength="69.1729" x="1719.7656" y="69.9951">Controller</text></g><g class="participant participant-tail" data-participant="Controller"><rect fill="#E2E2F0" height="30.2969" rx="2.5" ry="2.5" style="stroke:#181818;stroke-width:0.5;" width="83.1729" x="1712.7656" y="1738.9375"/><text fill="#000000" font-family="sans-serif" font-size="14" lengthAdjust="spacing" textLength="69.1729" x="1719.7656" y="1758.9326">Controller</text></g><g class="participant participant-head" data-participant="DomainModel"><rect fill="#E2E2F0" height="30.2969" rx="2.5" ry="2.5" style="stroke:#181818;stroke-width:0.5;" width="110.3594" x="1848.3672" y="50"/><text fill="#000000" font-family="sans-serif" font-size="14" lengthAdjust="spacing" textLength="96.3594" x="1855.3672" y="69.9951">DomainModel</text></g><g class="participant participant-tail" data-participant="DomainModel"><rect fill="#E2E2F0" height="30.2969" rx="2.5" ry="2.5" style="stroke:#181818;stroke-width:0.5;" width="110.3594" x="1848.3672" y="1738.9375"/><text fill="#000000" font-family="sans-serif" font-size="14" lengthAdjust="spacing" textLength="96.3594" x="1855.3672" y="1758.9326">DomainModel</text></g><g class="participant participant-head" data-participant="AuthenticationUI"><rect fill="#E2E2F0" height="30.2969" rx="2.5" ry="2.5" style="stroke:#181818;stroke-width:0.5;" width="131.1475" x="1968.7266" y="50"/><text fill="#000000" font-family="sans-serif" font-size="14" lengthAdjust="spacing" textLength="117.1475" x="1975.7266" y="69.9951">AuthenticationUI</text></g><g class="participant participant-tail" data-participant="AuthenticationUI"><rect fill="#E2E2F0" height="30.2969" rx="2.5" ry="2.5" style="stroke:#181818;stroke-width:0.5;" width="131.1475" x="1968.7266" y="1738.9375"/><text fill="#000000" font-family="sans-serif" font-size="14" lengthAdjust="spacing" textLength="117.1475" x="1975.7266" y="1758.9326">AuthenticationUI</text></g><rect fill="#EEEEEE" height="3" style="stroke:#EEEEEE;stroke-width:1;" width="2104.874" x="0" y="111.8633"/><line style="stroke:#000000;stroke-width:1;" x1="0" x2="2104.874" y1="111.8633" y2="111.8633"/><line style="stroke:#000000;stroke-width:1;" x1="0" x2="2104.874" y1="114.8633" y2="114.8633"/><rect fill="#EEEEEE" height="23.1328" style="stroke:#000000;stroke-width:2;" width="142.832" x="981.021" y="101.2969"/><text fill="#000000" font-family="sans-serif" font-size="13" font-weight="bold" lengthAdjust="spacing" textLength="124.3062" x="987.021" y="117.3638">Menu Navigation</text><g class="message" data-participant-1="Player" data-participant-2="AuthenticationUI"><polygon fill="#181818" points="2022.3003,151.5625,2032.3003,155.5625,2022.3003,159.5625,2026.3003,155.5625" style="stroke:#181818;stroke-width:1;"/><line style="stroke:#181818;stroke-width:1;" x1="29.7827" x2="2028.3003" y1="155.5625" y2="155.5625"/><text fill="#000000" font-family="sans-serif" font-size="13" lengthAdjust="spacing" textLength="86.7026" x="36.7827" y="150.4966">playerMenu()</text></g><rect fill="#EEEEEE" height="3" style="stroke:#EEEEEE;stroke-width:1;" width="2104.874" x="0" y="184.1289"/><line style="stroke:#000000;stroke-width:1;" x1="0" x2="2104.874" y1="184.1289" y2="184.1289"/><line style="stroke:#000000;stroke-width:1;" x1="0" x2="2104.874" y1="187.1289" y2="187.1289"/><rect fill="#EEEEEE" height="23.1328" style="stroke:#000000;stroke-width:2;" width="150.373" x="977.2505" y="173.5625"/><text fill="#000000" font-family="sans-serif" font-size="13" font-weight="bold" lengthAdjust="spacing" textLength="131.8472" x="983.2505" y="189.6294">US01: Create Map</text><g class="message" data-participant-1="MenuUI" data-participant-2="CreateMapUI"><polygon fill="#181818" points="181.7534,223.8281,191.7534,227.8281,181.7534,231.8281,185.7534,227.8281" style="stroke:#181818;stroke-width:1;"/><line style="stroke:#181818;stroke-width:1;" x1="97.9727" x2="187.7534" y1="227.8281" y2="227.8281"/><text fill="#000000" font-family="sans-serif" font-size="13" lengthAdjust="spacing" textLength="31.9668" x="104.9727" y="222.7622">run()</text></g><g class="message" data-participant-1="CreateMapUI" data-participant-2="Controller"><polygon fill="#181818" points="1742.3521,252.9609,1752.3521,256.9609,1742.3521,260.9609,1746.3521,256.9609" style="stroke:#181818;stroke-width:1;"/><line style="stroke:#181818;stroke-width:1;" x1="193.7534" x2="1748.3521" y1="256.9609" y2="256.9609"/><text fill="#000000" font-family="sans-serif" font-size="13" lengthAdjust="spacing" textLength="149.4683" x="200.7534" y="251.895">createMap(name, size)</text></g><g class="message" data-participant-1="Controller" data-participant-2="DomainModel"><polygon fill="#181818" points="1891.5469,282.0938,1901.5469,286.0938,1891.5469,290.0938,1895.5469,286.0938" style="stroke:#181818;stroke-width:1;"/><line style="stroke:#181818;stroke-width:1;" x1="1754.3521" x2="1897.5469" y1="286.0938" y2="286.0938"/><text fill="#000000" font-family="sans-serif" font-size="13" lengthAdjust="spacing" textLength="68.5801" x="1761.3521" y="281.0278">new Map()</text></g><rect fill="#EEEEEE" height="3" style="stroke:#EEEEEE;stroke-width:1;" width="2104.874" x="0" y="314.6602"/><line style="stroke:#000000;stroke-width:1;" x1="0" x2="2104.874" y1="314.6602" y2="314.6602"/><line style="stroke:#000000;stroke-width:1;" x1="0" x2="2104.874" y1="317.6602" y2="317.6602"/><rect fill="#EEEEEE" height="23.1328" style="stroke:#000000;stroke-width:2;" width="160.9482" x="971.9629" y="304.0938"/><text fill="#000000" font-family="sans-serif" font-size="13" font-weight="bold" lengthAdjust="spacing" textLength="142.4224" x="977.9629" y="320.1606">US02: Add Industry</text><g class="message" data-participant-1="MenuUI" data-participant-2="IndustryEditorUI"><polygon fill="#181818" points="561.1348,354.3594,571.1348,358.3594,561.1348,362.3594,565.1348,358.3594" style="stroke:#181818;stroke-width:1;"/><line style="stroke:#181818;stroke-width:1;" x1="97.9727" x2="567.1348" y1="358.3594" y2="358.3594"/><text fill="#000000" font-family="sans-serif" font-size="13" lengthAdjust="spacing" textLength="31.9668" x="104.9727" y="353.2935">run()</text></g><g class="message" data-participant-1="IndustryEditorUI" data-participant-2="Controller"><polygon fill="#181818" points="1742.3521,383.4922,1752.3521,387.4922,1742.3521,391.4922,1746.3521,387.4922" style="stroke:#181818;stroke-width:1;"/><line style="stroke:#181818;stroke-width:1;" x1="573.1348" x2="1748.3521" y1="387.4922" y2="387.4922"/><text fill="#000000" font-family="sans-serif" font-size="13" lengthAdjust="spacing" textLength="214.0303" x="580.1348" y="382.4263">addIndustry(map, type, position)</text></g><g class="message" data-participant-1="Controller" data-participant-2="DomainModel"><polygon fill="#181818" points="1891.5469,412.625,1901.5469,416.625,1891.5469,420.625,1895.5469,416.625" style="stroke:#181818;stroke-width:1;"/><line style="stroke:#181818;stroke-width:1;" x1="1754.3521" x2="1897.5469" y1="416.625" y2="416.625"/><text fill="#000000" font-family="sans-serif" font-size="13" lengthAdjust="spacing" textLength="105.168" x="1761.3521" y="411.5591">createIndustry()</text></g><rect fill="#EEEEEE" height="3" style="stroke:#EEEEEE;stroke-width:1;" width="2104.874" x="0" y="445.1914"/><line style="stroke:#000000;stroke-width:1;" x1="0" x2="2104.874" y1="445.1914" y2="445.1914"/><line style="stroke:#000000;stroke-width:1;" x1="0" x2="2104.874" y1="448.1914" y2="448.1914"/><rect fill="#EEEEEE" height="23.1328" style="stroke:#000000;stroke-width:2;" width="128.1436" x="988.3652" y="434.625"/><text fill="#000000" font-family="sans-serif" font-size="13" font-weight="bold" lengthAdjust="spacing" textLength="109.6177" x="994.3652" y="450.6919">US03: Add City</text><g class="message" data-participant-1="MenuUI" data-participant-2="CityEditorUI"><polygon fill="#181818" points="438.8135,484.8906,448.8135,488.8906,438.8135,492.8906,442.8135,488.8906" style="stroke:#181818;stroke-width:1;"/><line style="stroke:#181818;stroke-width:1;" x1="97.9727" x2="444.8135" y1="488.8906" y2="488.8906"/><text fill="#000000" font-family="sans-serif" font-size="13" lengthAdjust="spacing" textLength="31.9668" x="104.9727" y="483.8247">run()</text></g><g class="message" data-participant-1="CityEditorUI" data-participant-2="Controller"><polygon fill="#181818" points="1742.3521,514.0234,1752.3521,518.0234,1742.3521,522.0234,1746.3521,518.0234" style="stroke:#181818;stroke-width:1;"/><line style="stroke:#181818;stroke-width:1;" x1="450.8135" x2="1748.3521" y1="518.0234" y2="518.0234"/><text fill="#000000" font-family="sans-serif" font-size="13" lengthAdjust="spacing" textLength="224.9229" x="457.8135" y="512.9575">addCity(map, name, pos, housing)</text></g><g class="message" data-participant-1="Controller" data-participant-2="DomainModel"><polygon fill="#181818" points="1891.5469,543.1563,1901.5469,547.1563,1891.5469,551.1563,1895.5469,547.1563" style="stroke:#181818;stroke-width:1;"/><line style="stroke:#181818;stroke-width:1;" x1="1754.3521" x2="1897.5469" y1="547.1563" y2="547.1563"/><text fill="#000000" font-family="sans-serif" font-size="13" lengthAdjust="spacing" textLength="77.1748" x="1761.3521" y="542.0903">createCity()</text></g><rect fill="#EEEEEE" height="3" style="stroke:#EEEEEE;stroke-width:1;" width="2104.874" x="0" y="575.7227"/><line style="stroke:#000000;stroke-width:1;" x1="0" x2="2104.874" y1="575.7227" y2="575.7227"/><line style="stroke:#000000;stroke-width:1;" x1="0" x2="2104.874" y1="578.7227" y2="578.7227"/><rect fill="#EEEEEE" height="23.1328" style="stroke:#000000;stroke-width:2;" width="183.0698" x="960.9021" y="565.1563"/><text fill="#000000" font-family="sans-serif" font-size="13" font-weight="bold" lengthAdjust="spacing" textLength="164.5439" x="966.9021" y="581.2231">US04: Create Scenario</text><g class="message" data-participant-1="MenuUI" data-participant-2="CreateScenarioUI"><polygon fill="#181818" points="312.1582,615.4219,322.1582,619.4219,312.1582,623.4219,316.1582,619.4219" style="stroke:#181818;stroke-width:1;"/><line style="stroke:#181818;stroke-width:1;" x1="97.9727" x2="318.1582" y1="619.4219" y2="619.4219"/><text fill="#000000" font-family="sans-serif" font-size="13" lengthAdjust="spacing" textLength="31.9668" x="104.9727" y="614.356">run()</text></g><g class="message" data-participant-1="CreateScenarioUI" data-participant-2="Controller"><polygon fill="#181818" points="1742.3521,644.5547,1752.3521,648.5547,1742.3521,652.5547,1746.3521,648.5547" style="stroke:#181818;stroke-width:1;"/><line style="stroke:#181818;stroke-width:1;" x1="324.1582" x2="1748.3521" y1="648.5547" y2="648.5547"/><text fill="#000000" font-family="sans-serif" font-size="13" lengthAdjust="spacing" textLength="147.9893" x="331.1582" y="643.4888">createScenario(config)</text></g><g class="message" data-participant-1="Controller" data-participant-2="DomainModel"><polygon fill="#181818" points="1891.5469,673.6875,1901.5469,677.6875,1891.5469,681.6875,1895.5469,677.6875" style="stroke:#181818;stroke-width:1;"/><line style="stroke:#181818;stroke-width:1;" x1="1754.3521" x2="1897.5469" y1="677.6875" y2="677.6875"/><text fill="#000000" font-family="sans-serif" font-size="13" lengthAdjust="spacing" textLength="98.6235" x="1761.3521" y="672.6216">buildScenario()</text></g><rect fill="#EEEEEE" height="3" style="stroke:#EEEEEE;stroke-width:1;" width="2104.874" x="0" y="706.2539"/><line style="stroke:#000000;stroke-width:1;" x1="0" x2="2104.874" y1="706.2539" y2="706.2539"/><line style="stroke:#000000;stroke-width:1;" x1="0" x2="2104.874" y1="709.2539" y2="709.2539"/><rect fill="#EEEEEE" height="23.1328" style="stroke:#000000;stroke-width:2;" width="161.3735" x="971.7502" y="695.6875"/><text fill="#000000" font-family="sans-serif" font-size="13" font-weight="bold" lengthAdjust="spacing" textLength="142.8477" x="977.7502" y="711.7544">US05: Build Station</text><g class="message" data-participant-1="MenuUI" data-participant-2="CreateStationUI"><polygon fill="#181818" points="697.3193,745.9531,707.3193,749.9531,697.3193,753.9531,701.3193,749.9531" style="stroke:#181818;stroke-width:1;"/><line style="stroke:#181818;stroke-width:1;" x1="97.9727" x2="703.3193" y1="749.9531" y2="749.9531"/><text fill="#000000" font-family="sans-serif" font-size="13" lengthAdjust="spacing" textLength="31.9668" x="104.9727" y="744.8872">run()</text></g><g class="message" data-participant-1="CreateStationUI" data-participant-2="Controller"><polygon fill="#181818" points="1742.3521,775.0859,1752.3521,779.0859,1742.3521,783.0859,1746.3521,779.0859" style="stroke:#181818;stroke-width:1;"/><line style="stroke:#181818;stroke-width:1;" x1="709.3193" x2="1748.3521" y1="779.0859" y2="779.0859"/><text fill="#000000" font-family="sans-serif" font-size="13" lengthAdjust="spacing" textLength="148.6113" x="716.3193" y="774.02">buildStation(type, pos)</text></g><g class="message" data-participant-1="Controller" data-participant-2="DomainModel"><polygon fill="#181818" points="1891.5469,804.2188,1901.5469,808.2188,1891.5469,812.2188,1895.5469,808.2188" style="stroke:#181818;stroke-width:1;"/><line style="stroke:#181818;stroke-width:1;" x1="1754.3521" x2="1897.5469" y1="808.2188" y2="808.2188"/><text fill="#000000" font-family="sans-serif" font-size="13" lengthAdjust="spacing" textLength="97.9126" x="1761.3521" y="803.1528">createStation()</text></g><rect fill="#EEEEEE" height="3" style="stroke:#EEEEEE;stroke-width:1;" width="2104.874" x="0" y="836.7852"/><line style="stroke:#000000;stroke-width:1;" x1="0" x2="2104.874" y1="836.7852" y2="836.7852"/><line style="stroke:#000000;stroke-width:1;" x1="0" x2="2104.874" y1="839.7852" y2="839.7852"/><rect fill="#EEEEEE" height="23.1328" style="stroke:#000000;stroke-width:2;" width="186.4658" x="959.2041" y="826.2188"/><text fill="#000000" font-family="sans-serif" font-size="13" font-weight="bold" lengthAdjust="spacing" textLength="167.9399" x="965.2041" y="842.2856">US06: Upgrade Station</text><g class="message" data-participant-1="MenuUI" data-participant-2="UpgradeStationUI"><polygon fill="#181818" points="838.8086,876.4844,848.8086,880.4844,838.8086,884.4844,842.8086,880.4844" style="stroke:#181818;stroke-width:1;"/><line style="stroke:#181818;stroke-width:1;" x1="97.9727" x2="844.8086" y1="880.4844" y2="880.4844"/><text fill="#000000" font-family="sans-serif" font-size="13" lengthAdjust="spacing" textLength="31.9668" x="104.9727" y="875.4185">run()</text></g><g class="message" data-participant-1="UpgradeStationUI" data-participant-2="Controller"><polygon fill="#181818" points="1742.3521,905.6172,1752.3521,909.6172,1742.3521,913.6172,1746.3521,909.6172" style="stroke:#181818;stroke-width:1;"/><line style="stroke:#181818;stroke-width:1;" x1="850.8086" x2="1748.3521" y1="909.6172" y2="909.6172"/><text fill="#000000" font-family="sans-serif" font-size="13" lengthAdjust="spacing" textLength="169.5205" x="857.8086" y="904.5513">upgrade(station, building)</text></g><g class="message" data-participant-1="Controller" data-participant-2="DomainModel"><polygon fill="#181818" points="1891.5469,934.75,1901.5469,938.75,1891.5469,942.75,1895.5469,938.75" style="stroke:#181818;stroke-width:1;"/><line style="stroke:#181818;stroke-width:1;" x1="1754.3521" x2="1897.5469" y1="938.75" y2="938.75"/><text fill="#000000" font-family="sans-serif" font-size="13" lengthAdjust="spacing" textLength="110.665" x="1761.3521" y="933.6841">upgradeStation()</text></g><rect fill="#EEEEEE" height="3" style="stroke:#EEEEEE;stroke-width:1;" width="2104.874" x="0" y="967.3164"/><line style="stroke:#000000;stroke-width:1;" x1="0" x2="2104.874" y1="967.3164" y2="967.3164"/><line style="stroke:#000000;stroke-width:1;" x1="0" x2="2104.874" y1="970.3164" y2="970.3164"/><rect fill="#EEEEEE" height="23.1328" style="stroke:#000000;stroke-width:2;" width="215.1064" x="944.8838" y="956.75"/><text fill="#000000" font-family="sans-serif" font-size="13" font-weight="bold" lengthAdjust="spacing" textLength="196.5806" x="950.8838" y="972.8169">US07: View Station Details</text><g class="message" data-participant-1="MenuUI" data-participant-2="ViewStationUI"><polygon fill="#181818" points="973.6499,1007.0156,983.6499,1011.0156,973.6499,1015.0156,977.6499,1011.0156" style="stroke:#181818;stroke-width:1;"/><line style="stroke:#181818;stroke-width:1;" x1="97.9727" x2="979.6499" y1="1011.0156" y2="1011.0156"/><text fill="#000000" font-family="sans-serif" font-size="13" lengthAdjust="spacing" textLength="31.9668" x="104.9727" y="1005.9497">run()</text></g><g class="message" data-participant-1="ViewStationUI" data-participant-2="Controller"><polygon fill="#181818" points="1742.3521,1036.1484,1752.3521,1040.1484,1742.3521,1044.1484,1746.3521,1040.1484" style="stroke:#181818;stroke-width:1;"/><line style="stroke:#181818;stroke-width:1;" x1="985.6499" x2="1748.3521" y1="1040.1484" y2="1040.1484"/><text fill="#000000" font-family="sans-serif" font-size="13" lengthAdjust="spacing" textLength="134.6401" x="992.6499" y="1035.0825">getStationDetails(id)</text></g><g class="message" data-participant-1="Controller" data-participant-2="DomainModel"><polygon fill="#181818" points="1891.5469,1065.2813,1901.5469,1069.2813,1891.5469,1073.2813,1895.5469,1069.2813" style="stroke:#181818;stroke-width:1;"/><line style="stroke:#181818;stroke-width:1;" x1="1754.3521" x2="1897.5469" y1="1069.2813" y2="1069.2813"/><text fill="#000000" font-family="sans-serif" font-size="13" lengthAdjust="spacing" textLength="114.0229" x="1761.3521" y="1064.2153">fetchStationInfo()</text></g><rect fill="#EEEEEE" height="3" style="stroke:#EEEEEE;stroke-width:1;" width="2104.874" x="0" y="1097.8477"/><line style="stroke:#000000;stroke-width:1;" x1="0" x2="2104.874" y1="1097.8477" y2="1097.8477"/><line style="stroke:#000000;stroke-width:1;" x1="0" x2="2104.874" y1="1100.8477" y2="1100.8477"/><rect fill="#EEEEEE" height="23.1328" style="stroke:#000000;stroke-width:2;" width="200.4561" x="952.209" y="1087.2813"/><text fill="#000000" font-family="sans-serif" font-size="13" font-weight="bold" lengthAdjust="spacing" textLength="181.9302" x="958.209" y="1103.3481">US08: Build Railway Line</text><g class="message" data-participant-1="MenuUI" data-participant-2="CreateRailwayLineUI"><polygon fill="#181818" points="1118.8784,1137.5469,1128.8784,1141.5469,1118.8784,1145.5469,1122.8784,1141.5469" style="stroke:#181818;stroke-width:1;"/><line style="stroke:#181818;stroke-width:1;" x1="97.9727" x2="1124.8784" y1="1141.5469" y2="1141.5469"/><text fill="#000000" font-family="sans-serif" font-size="13" lengthAdjust="spacing" textLength="31.9668" x="104.9727" y="1136.481">run()</text></g><g class="message" data-participant-1="CreateRailwayLineUI" data-participant-2="Controller"><polygon fill="#181818" points="1742.3521,1166.6797,1752.3521,1170.6797,1742.3521,1174.6797,1746.3521,1170.6797" style="stroke:#181818;stroke-width:1;"/><line style="stroke:#181818;stroke-width:1;" x1="1130.8784" x2="1748.3521" y1="1170.6797" y2="1170.6797"/><text fill="#000000" font-family="sans-serif" font-size="13" lengthAdjust="spacing" textLength="194.3398" x="1137.8784" y="1165.6138">createLine(stationA, stationB)</text></g><g class="message" data-participant-1="Controller" data-participant-2="DomainModel"><polygon fill="#181818" points="1891.5469,1195.8125,1901.5469,1199.8125,1891.5469,1203.8125,1895.5469,1199.8125" style="stroke:#181818;stroke-width:1;"/><line style="stroke:#181818;stroke-width:1;" x1="1754.3521" x2="1897.5469" y1="1199.8125" y2="1199.8125"/><text fill="#000000" font-family="sans-serif" font-size="13" lengthAdjust="spacing" textLength="114.6196" x="1761.3521" y="1194.7466">newRailwayLine()</text></g><rect fill="#EEEEEE" height="3" style="stroke:#EEEEEE;stroke-width:1;" width="2104.874" x="0" y="1228.3789"/><line style="stroke:#000000;stroke-width:1;" x1="0" x2="2104.874" y1="1228.3789" y2="1228.3789"/><line style="stroke:#000000;stroke-width:1;" x1="0" x2="2104.874" y1="1231.3789" y2="1231.3789"/><rect fill="#EEEEEE" height="23.1328" style="stroke:#000000;stroke-width:2;" width="182.7144" x="961.0798" y="1217.8125"/><text fill="#000000" font-family="sans-serif" font-size="13" font-weight="bold" lengthAdjust="spacing" textLength="164.1885" x="967.0798" y="1233.8794">US09: Buy Locomotive</text><g class="message" data-participant-1="MenuUI" data-participant-2="BuyLocomotiveUI"><polygon fill="#181818" points="1276.3911,1268.0781,1286.3911,1272.0781,1276.3911,1276.0781,1280.3911,1272.0781" style="stroke:#181818;stroke-width:1;"/><line style="stroke:#181818;stroke-width:1;" x1="97.9727" x2="1282.3911" y1="1272.0781" y2="1272.0781"/><text fill="#000000" font-family="sans-serif" font-size="13" lengthAdjust="spacing" textLength="31.9668" x="104.9727" y="1267.0122">run()</text></g><g class="message" data-participant-1="BuyLocomotiveUI" data-participant-2="Controller"><polygon fill="#181818" points="1742.3521,1297.2109,1752.3521,1301.2109,1742.3521,1305.2109,1746.3521,1301.2109" style="stroke:#181818;stroke-width:1;"/><line style="stroke:#181818;stroke-width:1;" x1="1288.3911" x2="1748.3521" y1="1301.2109" y2="1301.2109"/><text fill="#000000" font-family="sans-serif" font-size="13" lengthAdjust="spacing" textLength="223.4756" x="1295.3911" y="1296.145">purchaseLocomotive(model, date)</text></g><g class="message" data-participant-1="Controller" data-participant-2="DomainModel"><polygon fill="#181818" points="1891.5469,1326.3438,1901.5469,1330.3438,1891.5469,1334.3438,1895.5469,1330.3438" style="stroke:#181818;stroke-width:1;"/><line style="stroke:#181818;stroke-width:1;" x1="1754.3521" x2="1897.5469" y1="1330.3438" y2="1330.3438"/><text fill="#000000" font-family="sans-serif" font-size="13" lengthAdjust="spacing" textLength="112.3281" x="1761.3521" y="1325.2778">newLocomotive()</text></g><rect fill="#EEEEEE" height="3" style="stroke:#EEEEEE;stroke-width:1;" width="2104.874" x="0" y="1358.9102"/><line style="stroke:#000000;stroke-width:1;" x1="0" x2="2104.874" y1="1358.9102" y2="1358.9102"/><line style="stroke:#000000;stroke-width:1;" x1="0" x2="2104.874" y1="1361.9102" y2="1361.9102"/><rect fill="#EEEEEE" height="23.1328" style="stroke:#000000;stroke-width:2;" width="224.5264" x="940.1738" y="1348.3438"/><text fill="#000000" font-family="sans-serif" font-size="13" font-weight="bold" lengthAdjust="spacing" textLength="206.0005" x="946.1738" y="1364.4106">US10: Assign Route to Train</text><g class="message" data-participant-1="MenuUI" data-participant-2="AssignRouteUI"><polygon fill="#181818" points="1412.2441,1398.6094,1422.2441,1402.6094,1412.2441,1406.6094,1416.2441,1402.6094" style="stroke:#181818;stroke-width:1;"/><line style="stroke:#181818;stroke-width:1;" x1="97.9727" x2="1418.2441" y1="1402.6094" y2="1402.6094"/><text fill="#000000" font-family="sans-serif" font-size="13" lengthAdjust="spacing" textLength="31.9668" x="104.9727" y="1397.5435">run()</text></g><g class="message" data-participant-1="AssignRouteUI" data-participant-2="Controller"><polygon fill="#181818" points="1742.3521,1427.7422,1752.3521,1431.7422,1742.3521,1435.7422,1746.3521,1431.7422" style="stroke:#181818;stroke-width:1;"/><line style="stroke:#181818;stroke-width:1;" x1="1424.2441" x2="1748.3521" y1="1431.7422" y2="1431.7422"/><text fill="#000000" font-family="sans-serif" font-size="13" lengthAdjust="spacing" textLength="180.1147" x="1431.2441" y="1426.6763">assignRoute(train, stations)</text></g><g class="message" data-participant-1="Controller" data-participant-2="DomainModel"><polygon fill="#181818" points="1891.5469,1456.875,1901.5469,1460.875,1891.5469,1464.875,1895.5469,1460.875" style="stroke:#181818;stroke-width:1;"/><line style="stroke:#181818;stroke-width:1;" x1="1754.3521" x2="1897.5469" y1="1460.875" y2="1460.875"/><text fill="#000000" font-family="sans-serif" font-size="13" lengthAdjust="spacing" textLength="90.0161" x="1761.3521" y="1455.8091">createRoute()</text></g><rect fill="#EEEEEE" height="3" style="stroke:#EEEEEE;stroke-width:1;" width="2104.874" x="0" y="1489.4414"/><line style="stroke:#000000;stroke-width:1;" x1="0" x2="2104.874" y1="1489.4414" y2="1489.4414"/><line style="stroke:#000000;stroke-width:1;" x1="0" x2="2104.874" y1="1492.4414" y2="1492.4414"/><rect fill="#EEEEEE" height="23.1328" style="stroke:#000000;stroke-width:2;" width="151.6299" x="976.6221" y="1478.875"/><text fill="#000000" font-family="sans-serif" font-size="13" font-weight="bold" lengthAdjust="spacing" textLength="133.104" x="982.6221" y="1494.9419">US11: View Trains</text><g class="message" data-participant-1="MenuUI" data-participant-2="ViewTrainsUI"><polygon fill="#181818" points="1532.3984,1529.1406,1542.3984,1533.1406,1532.3984,1537.1406,1536.3984,1533.1406" style="stroke:#181818;stroke-width:1;"/><line style="stroke:#181818;stroke-width:1;" x1="97.9727" x2="1538.3984" y1="1533.1406" y2="1533.1406"/><text fill="#000000" font-family="sans-serif" font-size="13" lengthAdjust="spacing" textLength="31.9668" x="104.9727" y="1528.0747">run()</text></g><g class="message" data-participant-1="ViewTrainsUI" data-participant-2="Controller"><polygon fill="#181818" points="1742.3521,1558.2734,1752.3521,1562.2734,1742.3521,1566.2734,1746.3521,1562.2734" style="stroke:#181818;stroke-width:1;"/><line style="stroke:#181818;stroke-width:1;" x1="1544.3984" x2="1748.3521" y1="1562.2734" y2="1562.2734"/><text fill="#000000" font-family="sans-serif" font-size="13" lengthAdjust="spacing" textLength="69.1133" x="1551.3984" y="1557.2075">listTrains()</text></g><g class="message" data-participant-1="Controller" data-participant-2="DomainModel"><polygon fill="#181818" points="1891.5469,1587.4063,1901.5469,1591.4063,1891.5469,1595.4063,1895.5469,1591.4063" style="stroke:#181818;stroke-width:1;"/><line style="stroke:#181818;stroke-width:1;" x1="1754.3521" x2="1897.5469" y1="1591.4063" y2="1591.4063"/><text fill="#000000" font-family="sans-serif" font-size="13" lengthAdjust="spacing" textLength="107.3452" x="1761.3521" y="1586.3403">fetchTrainData()</text></g><rect fill="#EEEEEE" height="3" style="stroke:#EEEEEE;stroke-width:1;" width="2104.874" x="0" y="1619.9727"/><line style="stroke:#000000;stroke-width:1;" x1="0" x2="2104.874" y1="1619.9727" y2="1619.9727"/><line style="stroke:#000000;stroke-width:1;" x1="0" x2="2104.874" y1="1622.9727" y2="1622.9727"/><rect fill="#EEEEEE" height="23.1328" style="stroke:#000000;stroke-width:2;" width="179.166" x="962.854" y="1609.4063"/><text fill="#000000" font-family="sans-serif" font-size="13" font-weight="bold" lengthAdjust="spacing" textLength="160.6401" x="968.854" y="1625.4731">US12: Start Simulator</text><g class="message" data-participant-1="MenuUI" data-participant-2="SimulatorUI"><polygon fill="#181818" points="1642.7944,1659.6719,1652.7944,1663.6719,1642.7944,1667.6719,1646.7944,1663.6719" style="stroke:#181818;stroke-width:1;"/><line style="stroke:#181818;stroke-width:1;" x1="97.9727" x2="1648.7944" y1="1663.6719" y2="1663.6719"/><text fill="#000000" font-family="sans-serif" font-size="13" lengthAdjust="spacing" textLength="31.9668" x="104.9727" y="1658.606">run()</text></g><g class="message" data-participant-1="SimulatorUI" data-participant-2="Controller"><polygon fill="#181818" points="1742.3521,1688.8047,1752.3521,1692.8047,1742.3521,1696.8047,1746.3521,1692.8047" style="stroke:#181818;stroke-width:1;"/><line style="stroke:#181818;stroke-width:1;" x1="1654.7944" x2="1748.3521" y1="1692.8047" y2="1692.8047"/><text fill="#000000" font-family="sans-serif" font-size="13" lengthAdjust="spacing" textLength="66.1045" x="1661.7944" y="1687.7388">simulate()</text></g><g class="message" data-participant-1="Controller" data-participant-2="DomainModel"><polygon fill="#181818" points="1891.5469,1717.9375,1901.5469,1721.9375,1891.5469,1725.9375,1895.5469,1721.9375" style="stroke:#181818;stroke-width:1;"/><line style="stroke:#181818;stroke-width:1;" x1="1754.3521" x2="1897.5469" y1="1721.9375" y2="1721.9375"/><text fill="#000000" font-family="sans-serif" font-size="13" lengthAdjust="spacing" textLength="125.1948" x="1761.3521" y="1716.8716">updateSimulation()</text></g><!--SRC=[ZPLBRzim3CVl_XGwUa06DDtRG0gaomu1cc5ecjqrMqa4s9AXHuFiqqzlIwgMv6RmBz8_aHG9Mq4P-DN3Cs9LDK8cS8j7I0JO829twyJqdI4eq0QEHVksHGGoJ7CHY_EF3glVPCAQT98BLXPTI045fYJJTkE1mUu_uc-CJcN5Xdo6k3_1ynCcADCVvVc9jdIW0h_csf9pV23FL0fK-DyBWvZmJDZYGVRGtYpbe4GmslSguR5vHGSLPKCxr5VLOc7o3tx2Ltmmbm6BHLNPEe7t3s0fnH4HvUnkse3HQDghVcS2xBPtyyRT6gYYwGYsg3f0LCi6C4cKKsGo9m9d0relrGGEQ0Ou_ekKGpYXpqSNQ0119_tF2UM-0Skk2qLFOV9My4IvFSU2NUUFr0CSPq2SHqKtKevrMYuIsYi5zm3wmOBgjiqo5ZLoI5baAy1fsOBPj2cm6JXIoJ4vt01dt0FOnr1C_z9A5PrUOLhMoLwkhTVhbf8zlaptH-A-2mu1y5EZtf1IW7j_HJmH6ZQXy-OSplxAgdMexWsvypw1xdFZ1qUPBvyg7Z2tvuJIwZMt1sOM-Lg1PH9relpIc8aI45T8g875KzHanddEn9X37f1mcWjOu-uYtnw9zkXSrcGVLVchhxARf42FqbAfaqcRbZkHolseDP_JfHeuzklnsj298a_8tpIo0WtJFSND1hz7pSmvvYXPUuGSJMVgGMFCGAVmht56NXvpVjUuFGFCeW620hDPKjfa5NdMnFXc44rYBNJ0aCvR7fBr2v1prw1svxtjIxyBuxRqjXoinrnOhRxUZERW2WeuiQYTebgKHRisvObMiCU9J3aDjnAghpnSNLuNnZpTVm00]--></g></svg>