<svg xmlns="http://www.w3.org/2000/svg" xmlns:xlink="http://www.w3.org/1999/xlink" contentStyleType="text/css" data-diagram-type="SEQUENCE" height="2235px" preserveAspectRatio="none" style="width:1364px;height:2235px;background:#FFFFFF;" version="1.1" viewBox="0 0 1364 2235" width="1364px" zoomAndPan="magnify"><title>SD - User Authentication (Group 011)</title><defs/><g><text fill="#000000" font-family="sans-serif" font-size="14" font-weight="bold" lengthAdjust="spacing" textLength="295.2441" x="541.125" y="27.9951">SD - User Authentication (Group 011)</text><rect fill="none" height="179.6016" style="stroke:#000000;stroke-width:1.5;" width="805.2827" x="20" y="392.7891"/><rect fill="none" height="61.0703" style="stroke:#000000;stroke-width:1.5;" width="350.2017" x="30" y="504.3203"/><rect fill="none" height="221.0625" style="stroke:#000000;stroke-width:1.5;" width="795.2827" x="30" y="586.3906"/><rect fill="none" height="279.3281" style="stroke:#000000;stroke-width:1.5;" width="894.355" x="30" y="821.4531"/><rect fill="none" height="847.8516" style="stroke:#000000;stroke-width:1.5;" width="1328.4941" x="30" y="1114.7813"/><rect fill="none" height="234.0625" style="stroke:#000000;stroke-width:1.5;" width="1119.4399" x="229.0542" y="1721.5703"/><g><title>User</title><rect fill="#000000" fill-opacity="0.00000" height="2035.8359" width="8" x="54.9551" y="118.5938"/><line style="stroke:#181818;stroke-width:0.5;stroke-dasharray:5.0,5.0;" x1="58" x2="58" y1="118.5938" y2="2154.4297"/></g><g><title>AuthenticationUI</title><rect fill="#000000" fill-opacity="0.00000" height="2035.8359" width="8" x="300.6279" y="118.5938"/><line style="stroke:#181818;stroke-width:0.5;stroke-dasharray:5.0,5.0;" x1="304.0542" x2="304.0542" y1="118.5938" y2="2154.4297"/></g><g><title>AuthenticationController</title><rect fill="#000000" fill-opacity="0.00000" height="2035.8359" width="8" x="516.4668" y="118.5938"/><line style="stroke:#181818;stroke-width:0.5;stroke-dasharray:5.0,5.0;" x1="519.4946" x2="519.4946" y1="118.5938" y2="2154.4297"/></g><g><title>AuthenticationRepository</title><rect fill="#000000" fill-opacity="0.00000" height="2035.8359" width="8" x="715.3608" y="118.5938"/><line style="stroke:#181818;stroke-width:0.5;stroke-dasharray:5.0,5.0;" x1="718.439" x2="718.439" y1="118.5938" y2="2154.4297"/></g><g><title>Repository</title><rect fill="#000000" fill-opacity="0.00000" height="2035.8359" width="8" x="865.8188" y="118.5938"/><line style="stroke:#181818;stroke-width:0.5;stroke-dasharray:5.0,5.0;" x1="869.2827" x2="869.2827" y1="118.5938" y2="2154.4297"/></g><g><title>Scenario</title><rect fill="#000000" fill-opacity="0.00000" height="2035.8359" width="8" x="957.7852" y="118.5938"/><line style="stroke:#181818;stroke-width:0.5;stroke-dasharray:5.0,5.0;" x1="961.355" x2="961.355" y1="118.5938" y2="2154.4297"/></g><g><title>Simulation</title><rect fill="#000000" fill-opacity="0.00000" height="2035.8359" width="8" x="1049.502" y="118.5938"/><line style="stroke:#181818;stroke-width:0.5;stroke-dasharray:5.0,5.0;" x1="1053.2153" x2="1053.2153" y1="118.5938" y2="2154.4297"/></g><g><title>Player</title><rect fill="#000000" fill-opacity="0.00000" height="2035.8359" width="8" x="1224.1255" y="118.5938"/><line style="stroke:#181818;stroke-width:0.5;stroke-dasharray:5.0,5.0;" x1="1227.3428" x2="1227.3428" y1="118.5938" y2="2154.4297"/></g><g><title>Industry</title><rect fill="#000000" fill-opacity="0.00000" height="2035.8359" width="8" x="1298.7012" y="118.5938"/><line style="stroke:#181818;stroke-width:0.5;stroke-dasharray:5.0,5.0;" x1="1301.9082" x2="1301.9082" y1="118.5938" y2="2154.4297"/></g><g class="participant participant-head" data-participant="User"><text fill="#000000" font-family="sans-serif" font-size="14" lengthAdjust="spacing" textLength="31.9102" x="40" y="115.292">User</text><ellipse cx="58.9551" cy="50.7969" fill="#E2E2F0" rx="8" ry="8" style="stroke:#181818;stroke-width:0.5;"/><path d="M58.9551,58.7969 L58.9551,85.7969 M45.9551,66.7969 L71.9551,66.7969 M58.9551,85.7969 L45.9551,100.7969 M58.9551,85.7969 L71.9551,100.7969" fill="none" style="stroke:#181818;stroke-width:0.5;"/></g><g class="participant participant-tail" data-participant="User"><text fill="#000000" font-family="sans-serif" font-size="14" lengthAdjust="spacing" textLength="31.9102" x="40" y="2166.4248">User</text><ellipse cx="58.9551" cy="2178.2266" fill="#E2E2F0" rx="8" ry="8" style="stroke:#181818;stroke-width:0.5;"/><path d="M58.9551,2186.2266 L58.9551,2213.2266 M45.9551,2194.2266 L71.9551,2194.2266 M58.9551,2213.2266 L45.9551,2228.2266 M58.9551,2213.2266 L71.9551,2228.2266" fill="none" style="stroke:#181818;stroke-width:0.5;"/></g><g class="participant participant-head" data-participant="UI"><rect fill="#E2E2F0" height="30.2969" rx="2.5" ry="2.5" style="stroke:#181818;stroke-width:0.5;" width="131.1475" x="239.0542" y="87.2969"/><text fill="#000000" font-family="sans-serif" font-size="14" lengthAdjust="spacing" textLength="117.1475" x="246.0542" y="107.292">AuthenticationUI</text></g><g class="participant participant-tail" data-participant="UI"><rect fill="#E2E2F0" height="30.2969" rx="2.5" ry="2.5" style="stroke:#181818;stroke-width:0.5;" width="131.1475" x="239.0542" y="2153.4297"/><text fill="#000000" font-family="sans-serif" font-size="14" lengthAdjust="spacing" textLength="117.1475" x="246.0542" y="2173.4248">AuthenticationUI</text></g><g class="participant participant-head" data-participant="Controller"><rect fill="#E2E2F0" height="30.2969" rx="2.5" ry="2.5" style="stroke:#181818;stroke-width:0.5;" width="185.9443" x="427.4946" y="87.2969"/><text fill="#000000" font-family="sans-serif" font-size="14" lengthAdjust="spacing" textLength="171.9443" x="434.4946" y="107.292">AuthenticationController</text></g><g class="participant participant-tail" data-participant="Controller"><rect fill="#E2E2F0" height="30.2969" rx="2.5" ry="2.5" style="stroke:#181818;stroke-width:0.5;" width="185.9443" x="427.4946" y="2153.4297"/><text fill="#000000" font-family="sans-serif" font-size="14" lengthAdjust="spacing" textLength="171.9443" x="434.4946" y="2173.4248">AuthenticationController</text></g><g class="participant participant-head" data-participant="AuthRepo"><rect fill="#E2E2F0" height="30.2969" rx="2.5" ry="2.5" style="stroke:#181818;stroke-width:0.5;" width="191.8438" x="623.439" y="87.2969"/><text fill="#000000" font-family="sans-serif" font-size="14" lengthAdjust="spacing" textLength="177.8438" x="630.439" y="107.292">AuthenticationRepository</text></g><g class="participant participant-tail" data-participant="AuthRepo"><rect fill="#E2E2F0" height="30.2969" rx="2.5" ry="2.5" style="stroke:#181818;stroke-width:0.5;" width="191.8438" x="623.439" y="2153.4297"/><text fill="#000000" font-family="sans-serif" font-size="14" lengthAdjust="spacing" textLength="177.8438" x="630.439" y="2173.4248">AuthenticationRepository</text></g><g class="participant participant-head" data-participant="Repo"><rect fill="#E2E2F0" height="30.2969" rx="2.5" ry="2.5" style="stroke:#181818;stroke-width:0.5;" width="89.0723" x="825.2827" y="87.2969"/><text fill="#000000" font-family="sans-serif" font-size="14" lengthAdjust="spacing" textLength="75.0723" x="832.2827" y="107.292">Repository</text></g><g class="participant participant-tail" data-participant="Repo"><rect fill="#E2E2F0" height="30.2969" rx="2.5" ry="2.5" style="stroke:#181818;stroke-width:0.5;" width="89.0723" x="825.2827" y="2153.4297"/><text fill="#000000" font-family="sans-serif" font-size="14" lengthAdjust="spacing" textLength="75.0723" x="832.2827" y="2173.4248">Repository</text></g><g class="participant participant-head" data-participant="Scenario"><rect fill="#E2E2F0" height="30.2969" rx="2.5" ry="2.5" style="stroke:#181818;stroke-width:0.5;" width="74.8604" x="924.355" y="87.2969"/><text fill="#000000" font-family="sans-serif" font-size="14" lengthAdjust="spacing" textLength="60.8604" x="931.355" y="107.292">Scenario</text></g><g class="participant participant-tail" data-participant="Scenario"><rect fill="#E2E2F0" height="30.2969" rx="2.5" ry="2.5" style="stroke:#181818;stroke-width:0.5;" width="74.8604" x="924.355" y="2153.4297"/><text fill="#000000" font-family="sans-serif" font-size="14" lengthAdjust="spacing" textLength="60.8604" x="931.355" y="2173.4248">Scenario</text></g><g class="participant participant-head" data-participant="Sim"><rect fill="#E2E2F0" height="30.2969" rx="2.5" ry="2.5" style="stroke:#181818;stroke-width:0.5;" width="88.5732" x="1009.2153" y="87.2969"/><text fill="#000000" font-family="sans-serif" font-size="14" lengthAdjust="spacing" textLength="74.5732" x="1016.2153" y="107.292">Simulation</text></g><g class="participant participant-tail" data-participant="Sim"><rect fill="#E2E2F0" height="30.2969" rx="2.5" ry="2.5" style="stroke:#181818;stroke-width:0.5;" width="88.5732" x="1009.2153" y="2153.4297"/><text fill="#000000" font-family="sans-serif" font-size="14" lengthAdjust="spacing" textLength="74.5732" x="1016.2153" y="2173.4248">Simulation</text></g><g class="participant participant-head" data-participant="Player"><rect fill="#E2E2F0" height="30.2969" rx="2.5" ry="2.5" style="stroke:#181818;stroke-width:0.5;" width="57.5654" x="1199.3428" y="87.2969"/><text fill="#000000" font-family="sans-serif" font-size="14" lengthAdjust="spacing" textLength="43.5654" x="1206.3428" y="107.292">Player</text></g><g class="participant participant-tail" data-participant="Player"><rect fill="#E2E2F0" height="30.2969" rx="2.5" ry="2.5" style="stroke:#181818;stroke-width:0.5;" width="57.5654" x="1199.3428" y="2153.4297"/><text fill="#000000" font-family="sans-serif" font-size="14" lengthAdjust="spacing" textLength="43.5654" x="1206.3428" y="2173.4248">Player</text></g><g class="participant participant-head" data-participant="Industry"><rect fill="#E2E2F0" height="30.2969" rx="2.5" ry="2.5" style="stroke:#181818;stroke-width:0.5;" width="71.5859" x="1266.9082" y="87.2969"/><text fill="#000000" font-family="sans-serif" font-size="14" lengthAdjust="spacing" textLength="57.5859" x="1273.9082" y="107.292">Industry</text></g><g class="participant participant-tail" data-participant="Industry"><rect fill="#E2E2F0" height="30.2969" rx="2.5" ry="2.5" style="stroke:#181818;stroke-width:0.5;" width="71.5859" x="1266.9082" y="2153.4297"/><text fill="#000000" font-family="sans-serif" font-size="14" lengthAdjust="spacing" textLength="57.5859" x="1273.9082" y="2173.4248">Industry</text></g><g class="message" data-participant-1="User" data-participant-2="UI"><polygon fill="#181818" points="292.6279,145.7266,302.6279,149.7266,292.6279,153.7266,296.6279,149.7266" style="stroke:#181818;stroke-width:1;"/><line style="stroke:#181818;stroke-width:1;" x1="58.9551" x2="298.6279" y1="149.7266" y2="149.7266"/><text fill="#000000" font-family="sans-serif" font-size="13" lengthAdjust="spacing" textLength="31.9668" x="65.9551" y="144.6606">run()</text></g><g class="message" data-participant-1="UI" data-participant-2="User"><polygon fill="#181818" points="69.9551,174.8594,59.9551,178.8594,69.9551,182.8594,65.9551,178.8594" style="stroke:#181818;stroke-width:1;"/><line style="stroke:#181818;stroke-width:1;stroke-dasharray:2.0,2.0;" x1="63.9551" x2="303.6279" y1="178.8594" y2="178.8594"/><text fill="#000000" font-family="sans-serif" font-size="13" lengthAdjust="spacing" textLength="221.6729" x="75.9551" y="173.7935">Ask "Do you want to log in? [Y/N]"</text></g><g class="message" data-participant-1="User" data-participant-2="UI"><polygon fill="#181818" points="292.6279,203.9922,302.6279,207.9922,292.6279,211.9922,296.6279,207.9922" style="stroke:#181818;stroke-width:1;"/><line style="stroke:#181818;stroke-width:1;" x1="58.9551" x2="298.6279" y1="207.9922" y2="207.9922"/><text fill="#000000" font-family="sans-serif" font-size="13" lengthAdjust="spacing" textLength="65.6982" x="65.9551" y="202.9263">Enters "Y"</text></g><g class="message" data-participant-1="UI" data-participant-2="User"><polygon fill="#181818" points="69.9551,257.2578,59.9551,261.2578,69.9551,265.2578,65.9551,261.2578" style="stroke:#181818;stroke-width:1;"/><line style="stroke:#181818;stroke-width:1;stroke-dasharray:2.0,2.0;" x1="63.9551" x2="303.6279" y1="261.2578" y2="261.2578"/><text fill="#000000" font-family="sans-serif" font-size="13" lengthAdjust="spacing" textLength="175.4683" x="75.9551" y="256.1919">Prompt for email/password</text></g><g class="message" data-participant-1="User" data-participant-2="UI"><polygon fill="#181818" points="292.6279,286.3906,302.6279,290.3906,292.6279,294.3906,296.6279,290.3906" style="stroke:#181818;stroke-width:1;"/><line style="stroke:#181818;stroke-width:1;" x1="58.9551" x2="298.6279" y1="290.3906" y2="290.3906"/><text fill="#000000" font-family="sans-serif" font-size="13" lengthAdjust="spacing" textLength="117.8379" x="65.9551" y="285.3247">Enters credentials</text></g><g class="message" data-participant-1="UI" data-participant-2="Controller"><polygon fill="#181818" points="508.4668,315.5234,518.4668,319.5234,508.4668,323.5234,512.4668,319.5234" style="stroke:#181818;stroke-width:1;"/><line style="stroke:#181818;stroke-width:1;" x1="304.6279" x2="514.4668" y1="319.5234" y2="319.5234"/><text fill="#000000" font-family="sans-serif" font-size="13" lengthAdjust="spacing" textLength="132.9009" x="311.6279" y="314.4575">doLogin(email, pwd)</text></g><g class="message" data-participant-1="Controller" data-participant-2="AuthRepo"><polygon fill="#181818" points="707.3608,344.6563,717.3608,348.6563,707.3608,352.6563,711.3608,348.6563" style="stroke:#181818;stroke-width:1;"/><line style="stroke:#181818;stroke-width:1;" x1="520.4668" x2="713.3608" y1="348.6563" y2="348.6563"/><text fill="#000000" font-family="sans-serif" font-size="13" lengthAdjust="spacing" textLength="132.9009" x="527.4668" y="343.5903">doLogin(email, pwd)</text></g><g class="message" data-participant-1="AuthRepo" data-participant-2="Controller"><polygon fill="#181818" points="531.4668,373.7891,521.4668,377.7891,531.4668,381.7891,527.4668,377.7891" style="stroke:#181818;stroke-width:1;"/><line style="stroke:#181818;stroke-width:1;stroke-dasharray:2.0,2.0;" x1="525.4668" x2="718.3608" y1="377.7891" y2="377.7891"/><text fill="#000000" font-family="sans-serif" font-size="13" lengthAdjust="spacing" textLength="141.248" x="537.4668" y="372.7231">boolean (success/fail)</text></g><path d="M20,392.7891 L84.4429,392.7891 L84.4429,399.9219 L74.4429,409.9219 L20,409.9219 L20,392.7891" fill="#EEEEEE" style="stroke:#000000;stroke-width:1.5;"/><rect fill="none" height="179.6016" style="stroke:#000000;stroke-width:1.5;" width="805.2827" x="20" y="392.7891"/><text fill="#000000" font-family="sans-serif" font-size="13" font-weight="bold" lengthAdjust="spacing" textLength="19.4429" x="35" y="405.856">alt</text><text fill="#000000" font-family="sans-serif" font-size="11" font-weight="bold" lengthAdjust="spacing" textLength="97.2759" x="99.4429" y="404.9995">[Login Success]</text><g class="message" data-participant-1="Controller" data-participant-2="AuthRepo"><polygon fill="#181818" points="707.3608,427.0547,717.3608,431.0547,707.3608,435.0547,711.3608,431.0547" style="stroke:#181818;stroke-width:1;"/><line style="stroke:#181818;stroke-width:1;" x1="520.4668" x2="713.3608" y1="431.0547" y2="431.0547"/><text fill="#000000" font-family="sans-serif" font-size="13" lengthAdjust="spacing" textLength="139.0581" x="527.4668" y="425.9888">getCurrentUserRole()</text></g><g class="message" data-participant-1="AuthRepo" data-participant-2="Controller"><polygon fill="#181818" points="531.4668,456.1875,521.4668,460.1875,531.4668,464.1875,527.4668,460.1875" style="stroke:#181818;stroke-width:1;"/><line style="stroke:#181818;stroke-width:1;stroke-dasharray:2.0,2.0;" x1="525.4668" x2="718.3608" y1="460.1875" y2="460.1875"/><text fill="#000000" font-family="sans-serif" font-size="13" lengthAdjust="spacing" textLength="86.4106" x="537.4668" y="455.1216">UserRoleDTO</text></g><g class="message" data-participant-1="Controller" data-participant-2="UI"><polygon fill="#181818" points="315.6279,485.3203,305.6279,489.3203,315.6279,493.3203,311.6279,489.3203" style="stroke:#181818;stroke-width:1;"/><line style="stroke:#181818;stroke-width:1;stroke-dasharray:2.0,2.0;" x1="309.6279" x2="519.4668" y1="489.3203" y2="489.3203"/><text fill="#000000" font-family="sans-serif" font-size="13" lengthAdjust="spacing" textLength="52.3301" x="321.6279" y="484.2544">Success</text></g><path d="M30,504.3203 L116.9517,504.3203 L116.9517,511.4531 L106.9517,521.4531 L30,521.4531 L30,504.3203" fill="#EEEEEE" style="stroke:#000000;stroke-width:1.5;"/><rect fill="none" height="61.0703" style="stroke:#000000;stroke-width:1.5;" width="350.2017" x="30" y="504.3203"/><text fill="#000000" font-family="sans-serif" font-size="13" font-weight="bold" lengthAdjust="spacing" textLength="41.9517" x="45" y="517.3872">break</text><line style="stroke:#000000;stroke-width:1;stroke-dasharray:2.0,2.0;" x1="30" x2="380.2017" y1="522.4531" y2="522.4531"/><text fill="#000000" font-family="sans-serif" font-size="11" font-weight="bold" lengthAdjust="spacing" textLength="91.1206" x="35" y="532.6636">[Login Failure]</text><g class="message" data-participant-1="UI" data-participant-2="User"><polygon fill="#181818" points="69.9551,553.3906,59.9551,557.3906,69.9551,561.3906,65.9551,557.3906" style="stroke:#181818;stroke-width:1;"/><line style="stroke:#181818;stroke-width:1;stroke-dasharray:2.0,2.0;" x1="63.9551" x2="303.6279" y1="557.3906" y2="557.3906"/><text fill="#000000" font-family="sans-serif" font-size="13" lengthAdjust="spacing" textLength="219.356" x="75.9551" y="552.3247">Show error + remaining attempts</text></g><path d="M30,586.3906 L94.4429,586.3906 L94.4429,593.5234 L84.4429,603.5234 L30,603.5234 L30,586.3906" fill="#EEEEEE" style="stroke:#000000;stroke-width:1.5;"/><rect fill="none" height="221.0625" style="stroke:#000000;stroke-width:1.5;" width="795.2827" x="30" y="586.3906"/><text fill="#000000" font-family="sans-serif" font-size="13" font-weight="bold" lengthAdjust="spacing" textLength="19.4429" x="45" y="599.4575">alt</text><text fill="#000000" font-family="sans-serif" font-size="11" font-weight="bold" lengthAdjust="spacing" textLength="96.0781" x="109.4429" y="598.6011">[Role = ADMIN]</text><g class="message" data-participant-1="UI" data-participant-2="Controller"><polygon fill="#181818" points="508.4668,620.6563,518.4668,624.6563,508.4668,628.6563,512.4668,624.6563" style="stroke:#181818;stroke-width:1;"/><line style="stroke:#181818;stroke-width:1;" x1="304.6279" x2="514.4668" y1="624.6563" y2="624.6563"/><text fill="#000000" font-family="sans-serif" font-size="13" lengthAdjust="spacing" textLength="64.2446" x="311.6279" y="619.5903">addUser()</text></g><g class="message" data-participant-1="Controller" data-participant-2="UI"><polygon fill="#181818" points="315.6279,649.7891,305.6279,653.7891,315.6279,657.7891,311.6279,653.7891" style="stroke:#181818;stroke-width:1;"/><line style="stroke:#181818;stroke-width:1;" x1="309.6279" x2="519.4668" y1="653.7891" y2="653.7891"/><text fill="#000000" font-family="sans-serif" font-size="13" lengthAdjust="spacing" textLength="96.4907" x="321.6279" y="648.7231">getUserRoles()</text></g><g class="message" data-participant-1="UI" data-participant-2="User"><polygon fill="#181818" points="69.9551,678.9219,59.9551,682.9219,69.9551,686.9219,65.9551,682.9219" style="stroke:#181818;stroke-width:1;"/><line style="stroke:#181818;stroke-width:1;stroke-dasharray:2.0,2.0;" x1="63.9551" x2="303.6279" y1="682.9219" y2="682.9219"/><text fill="#000000" font-family="sans-serif" font-size="13" lengthAdjust="spacing" textLength="126.6802" x="75.9551" y="677.856">Show role selection</text></g><g class="message" data-participant-1="User" data-participant-2="UI"><polygon fill="#181818" points="292.6279,708.0547,302.6279,712.0547,292.6279,716.0547,296.6279,712.0547" style="stroke:#181818;stroke-width:1;"/><line style="stroke:#181818;stroke-width:1;" x1="58.9551" x2="298.6279" y1="712.0547" y2="712.0547"/><text fill="#000000" font-family="sans-serif" font-size="13" lengthAdjust="spacing" textLength="75.918" x="65.9551" y="706.9888">Selects role</text></g><g class="message" data-participant-1="UI" data-participant-2="Controller"><polygon fill="#181818" points="508.4668,737.1875,518.4668,741.1875,508.4668,745.1875,512.4668,741.1875" style="stroke:#181818;stroke-width:1;"/><line style="stroke:#181818;stroke-width:1;" x1="304.6279" x2="514.4668" y1="741.1875" y2="741.1875"/><text fill="#000000" font-family="sans-serif" font-size="13" lengthAdjust="spacing" textLength="168.6699" x="311.6279" y="736.1216">addUser(email, pwd, role)</text></g><g class="message" data-participant-1="Controller" data-participant-2="AuthRepo"><polygon fill="#181818" points="707.3608,766.3203,717.3608,770.3203,707.3608,774.3203,711.3608,770.3203" style="stroke:#181818;stroke-width:1;"/><line style="stroke:#181818;stroke-width:1;" x1="520.4668" x2="713.3608" y1="770.3203" y2="770.3203"/><text fill="#000000" font-family="sans-serif" font-size="13" lengthAdjust="spacing" textLength="76.6416" x="527.4668" y="765.2544">addUser(...)</text></g><g class="message" data-participant-1="AuthRepo" data-participant-2="UI"><polygon fill="#181818" points="315.6279,795.4531,305.6279,799.4531,315.6279,803.4531,311.6279,799.4531" style="stroke:#181818;stroke-width:1;"/><line style="stroke:#181818;stroke-width:1;stroke-dasharray:2.0,2.0;" x1="309.6279" x2="718.3608" y1="799.4531" y2="799.4531"/><text fill="#000000" font-family="sans-serif" font-size="13" lengthAdjust="spacing" textLength="84.335" x="321.6279" y="794.3872">Confirmation</text></g><path d="M30,821.4531 L94.4429,821.4531 L94.4429,828.5859 L84.4429,838.5859 L30,838.5859 L30,821.4531" fill="#EEEEEE" style="stroke:#000000;stroke-width:1.5;"/><rect fill="none" height="279.3281" style="stroke:#000000;stroke-width:1.5;" width="894.355" x="30" y="821.4531"/><text fill="#000000" font-family="sans-serif" font-size="13" font-weight="bold" lengthAdjust="spacing" textLength="19.4429" x="45" y="834.52">alt</text><text fill="#000000" font-family="sans-serif" font-size="11" font-weight="bold" lengthAdjust="spacing" textLength="100.2515" x="109.4429" y="833.6636">[Role = EDITOR]</text><g class="message" data-participant-1="UI" data-participant-2="Controller"><polygon fill="#181818" points="508.4668,855.7188,518.4668,859.7188,508.4668,863.7188,512.4668,859.7188" style="stroke:#181818;stroke-width:1;"/><line style="stroke:#181818;stroke-width:1;" x1="304.6279" x2="514.4668" y1="859.7188" y2="859.7188"/><text fill="#000000" font-family="sans-serif" font-size="13" lengthAdjust="spacing" textLength="103.0288" x="311.6279" y="854.6528">availableMaps()</text></g><g class="message" data-participant-1="Controller" data-participant-2="Repo"><polygon fill="#181818" points="857.8188,884.8516,867.8188,888.8516,857.8188,892.8516,861.8188,888.8516" style="stroke:#181818;stroke-width:1;"/><line style="stroke:#181818;stroke-width:1;" x1="520.4668" x2="863.8188" y1="888.8516" y2="888.8516"/><text fill="#000000" font-family="sans-serif" font-size="13" lengthAdjust="spacing" textLength="207.6636" x="527.4668" y="883.7856">getMapRepository().printMaps()</text></g><g class="message" data-participant-1="Repo" data-participant-2="Controller"><polygon fill="#181818" points="531.4668,913.9844,521.4668,917.9844,531.4668,921.9844,527.4668,917.9844" style="stroke:#181818;stroke-width:1;"/><line style="stroke:#181818;stroke-width:1;stroke-dasharray:2.0,2.0;" x1="525.4668" x2="868.8188" y1="917.9844" y2="917.9844"/><text fill="#000000" font-family="sans-serif" font-size="13" lengthAdjust="spacing" textLength="50.6606" x="537.4668" y="912.9185">Map list</text></g><g class="message" data-participant-1="Controller" data-participant-2="UI"><polygon fill="#181818" points="315.6279,943.1172,305.6279,947.1172,315.6279,951.1172,311.6279,947.1172" style="stroke:#181818;stroke-width:1;"/><line style="stroke:#181818;stroke-width:1;stroke-dasharray:2.0,2.0;" x1="309.6279" x2="519.4668" y1="947.1172" y2="947.1172"/><text fill="#000000" font-family="sans-serif" font-size="13" lengthAdjust="spacing" textLength="50.6606" x="321.6279" y="942.0513">Map list</text></g><g class="message" data-participant-1="UI" data-participant-2="User"><polygon fill="#181818" points="69.9551,972.25,59.9551,976.25,69.9551,980.25,65.9551,976.25" style="stroke:#181818;stroke-width:1;"/><line style="stroke:#181818;stroke-width:1;stroke-dasharray:2.0,2.0;" x1="63.9551" x2="303.6279" y1="976.25" y2="976.25"/><text fill="#000000" font-family="sans-serif" font-size="13" lengthAdjust="spacing" textLength="74.8643" x="75.9551" y="971.1841">Show maps</text></g><g class="message" data-participant-1="User" data-participant-2="UI"><polygon fill="#181818" points="292.6279,1001.3828,302.6279,1005.3828,292.6279,1009.3828,296.6279,1005.3828" style="stroke:#181818;stroke-width:1;"/><line style="stroke:#181818;stroke-width:1;" x1="58.9551" x2="298.6279" y1="1005.3828" y2="1005.3828"/><text fill="#000000" font-family="sans-serif" font-size="13" lengthAdjust="spacing" textLength="73.1187" x="65.9551" y="1000.3169">Select map</text></g><g class="message" data-participant-1="UI" data-participant-2="Controller"><polygon fill="#181818" points="508.4668,1030.5156,518.4668,1034.5156,508.4668,1038.5156,512.4668,1034.5156" style="stroke:#181818;stroke-width:1;"/><line style="stroke:#181818;stroke-width:1;" x1="304.6279" x2="514.4668" y1="1034.5156" y2="1034.5156"/><text fill="#000000" font-family="sans-serif" font-size="13" lengthAdjust="spacing" textLength="180.5718" x="311.6279" y="1029.4497">setCurrentMap(chosenMap)</text></g><g class="message" data-participant-1="UI" data-participant-2="Controller"><polygon fill="#181818" points="508.4668,1059.6484,518.4668,1063.6484,508.4668,1067.6484,512.4668,1063.6484" style="stroke:#181818;stroke-width:1;"/><line style="stroke:#181818;stroke-width:1;" x1="304.6279" x2="514.4668" y1="1063.6484" y2="1063.6484"/><text fill="#000000" font-family="sans-serif" font-size="13" lengthAdjust="spacing" textLength="150.9028" x="311.6279" y="1058.5825">showOperationsMenu()</text></g><g class="message" data-participant-1="Controller" data-participant-2="UI"><polygon fill="#181818" points="315.6279,1088.7813,305.6279,1092.7813,315.6279,1096.7813,311.6279,1092.7813" style="stroke:#181818;stroke-width:1;"/><line style="stroke:#181818;stroke-width:1;stroke-dasharray:2.0,2.0;" x1="309.6279" x2="519.4668" y1="1092.7813" y2="1092.7813"/><text fill="#000000" font-family="sans-serif" font-size="13" lengthAdjust="spacing" textLength="191.8389" x="321.6279" y="1087.7153">Create Industry/City/Scenario</text></g><path d="M30,1114.7813 L94.4429,1114.7813 L94.4429,1121.9141 L84.4429,1131.9141 L30,1131.9141 L30,1114.7813" fill="#EEEEEE" style="stroke:#000000;stroke-width:1.5;"/><rect fill="none" height="847.8516" style="stroke:#000000;stroke-width:1.5;" width="1328.4941" x="30" y="1114.7813"/><text fill="#000000" font-family="sans-serif" font-size="13" font-weight="bold" lengthAdjust="spacing" textLength="19.4429" x="45" y="1127.8481">alt</text><text fill="#000000" font-family="sans-serif" font-size="11" font-weight="bold" lengthAdjust="spacing" textLength="101.7231" x="109.4429" y="1126.9917">[Role = PLAYER]</text><g class="message" data-participant-1="UI" data-participant-2="Controller"><polygon fill="#181818" points="508.4668,1149.0469,518.4668,1153.0469,508.4668,1157.0469,512.4668,1153.0469" style="stroke:#181818;stroke-width:1;"/><line style="stroke:#181818;stroke-width:1;" x1="304.6279" x2="514.4668" y1="1153.0469" y2="1153.0469"/><text fill="#000000" font-family="sans-serif" font-size="13" lengthAdjust="spacing" textLength="103.0288" x="311.6279" y="1147.981">availableMaps()</text></g><g class="message" data-participant-1="Controller" data-participant-2="Repo"><polygon fill="#181818" points="857.8188,1178.1797,867.8188,1182.1797,857.8188,1186.1797,861.8188,1182.1797" style="stroke:#181818;stroke-width:1;"/><line style="stroke:#181818;stroke-width:1;" x1="520.4668" x2="863.8188" y1="1182.1797" y2="1182.1797"/><text fill="#000000" font-family="sans-serif" font-size="13" lengthAdjust="spacing" textLength="207.6636" x="527.4668" y="1177.1138">getMapRepository().printMaps()</text></g><g class="message" data-participant-1="Repo" data-participant-2="Controller"><polygon fill="#181818" points="531.4668,1207.3125,521.4668,1211.3125,531.4668,1215.3125,527.4668,1211.3125" style="stroke:#181818;stroke-width:1;"/><line style="stroke:#181818;stroke-width:1;stroke-dasharray:2.0,2.0;" x1="525.4668" x2="868.8188" y1="1211.3125" y2="1211.3125"/><text fill="#000000" font-family="sans-serif" font-size="13" lengthAdjust="spacing" textLength="50.6606" x="537.4668" y="1206.2466">Map list</text></g><g class="message" data-participant-1="Controller" data-participant-2="UI"><polygon fill="#181818" points="315.6279,1236.4453,305.6279,1240.4453,315.6279,1244.4453,311.6279,1240.4453" style="stroke:#181818;stroke-width:1;"/><line style="stroke:#181818;stroke-width:1;stroke-dasharray:2.0,2.0;" x1="309.6279" x2="519.4668" y1="1240.4453" y2="1240.4453"/><text fill="#000000" font-family="sans-serif" font-size="13" lengthAdjust="spacing" textLength="50.6606" x="321.6279" y="1235.3794">Map list</text></g><g class="message" data-participant-1="UI" data-participant-2="User"><polygon fill="#181818" points="69.9551,1265.5781,59.9551,1269.5781,69.9551,1273.5781,65.9551,1269.5781" style="stroke:#181818;stroke-width:1;"/><line style="stroke:#181818;stroke-width:1;" x1="63.9551" x2="303.6279" y1="1269.5781" y2="1269.5781"/><text fill="#000000" font-family="sans-serif" font-size="13" lengthAdjust="spacing" textLength="74.8643" x="75.9551" y="1264.5122">Show maps</text></g><g class="message" data-participant-1="User" data-participant-2="UI"><polygon fill="#181818" points="292.6279,1294.7109,302.6279,1298.7109,292.6279,1302.7109,296.6279,1298.7109" style="stroke:#181818;stroke-width:1;"/><line style="stroke:#181818;stroke-width:1;" x1="58.9551" x2="298.6279" y1="1298.7109" y2="1298.7109"/><text fill="#000000" font-family="sans-serif" font-size="13" lengthAdjust="spacing" textLength="73.1187" x="65.9551" y="1293.645">Select map</text></g><g class="message" data-participant-1="UI" data-participant-2="Controller"><polygon fill="#181818" points="508.4668,1323.8438,518.4668,1327.8438,508.4668,1331.8438,512.4668,1327.8438" style="stroke:#181818;stroke-width:1;"/><line style="stroke:#181818;stroke-width:1;" x1="304.6279" x2="514.4668" y1="1327.8438" y2="1327.8438"/><text fill="#000000" font-family="sans-serif" font-size="13" lengthAdjust="spacing" textLength="180.5718" x="311.6279" y="1322.7778">setCurrentMap(chosenMap)</text></g><g class="message" data-participant-1="Controller" data-participant-2="Repo"><polygon fill="#181818" points="857.8188,1352.9766,867.8188,1356.9766,857.8188,1360.9766,861.8188,1356.9766" style="stroke:#181818;stroke-width:1;"/><line style="stroke:#181818;stroke-width:1;" x1="520.4668" x2="863.8188" y1="1356.9766" y2="1356.9766"/><text fill="#000000" font-family="sans-serif" font-size="13" lengthAdjust="spacing" textLength="108.2656" x="527.4668" y="1351.9106">getCurrentMap()</text></g><g class="message" data-participant-1="Repo" data-participant-2="Controller"><polygon fill="#181818" points="531.4668,1382.1094,521.4668,1386.1094,531.4668,1390.1094,527.4668,1386.1094" style="stroke:#181818;stroke-width:1;"/><line style="stroke:#181818;stroke-width:1;stroke-dasharray:2.0,2.0;" x1="525.4668" x2="868.8188" y1="1386.1094" y2="1386.1094"/><text fill="#000000" font-family="sans-serif" font-size="13" lengthAdjust="spacing" textLength="82.3545" x="537.4668" y="1381.0435">Current map</text></g><g class="message" data-participant-1="UI" data-participant-2="Controller"><polygon fill="#181818" points="508.4668,1411.2422,518.4668,1415.2422,508.4668,1419.2422,512.4668,1415.2422" style="stroke:#181818;stroke-width:1;"/><line style="stroke:#181818;stroke-width:1;" x1="304.6279" x2="514.4668" y1="1415.2422" y2="1415.2422"/><text fill="#000000" font-family="sans-serif" font-size="13" lengthAdjust="spacing" textLength="132.1074" x="311.6279" y="1410.1763">availableScenarios()</text></g><g class="message" data-participant-1="Controller" data-participant-2="Repo"><polygon fill="#181818" points="857.8188,1440.375,867.8188,1444.375,857.8188,1448.375,861.8188,1444.375" style="stroke:#181818;stroke-width:1;"/><line style="stroke:#181818;stroke-width:1;" x1="520.4668" x2="863.8188" y1="1444.375" y2="1444.375"/><text fill="#000000" font-family="sans-serif" font-size="13" lengthAdjust="spacing" textLength="157.7139" x="527.4668" y="1439.3091">getScenarioRepository()</text></g><g class="message" data-participant-1="Repo" data-participant-2="Controller"><polygon fill="#181818" points="531.4668,1469.5078,521.4668,1473.5078,531.4668,1477.5078,527.4668,1473.5078" style="stroke:#181818;stroke-width:1;"/><line style="stroke:#181818;stroke-width:1;stroke-dasharray:2.0,2.0;" x1="525.4668" x2="868.8188" y1="1473.5078" y2="1473.5078"/><text fill="#000000" font-family="sans-serif" font-size="13" lengthAdjust="spacing" textLength="79.7393" x="537.4668" y="1468.4419">Scenario list</text></g><g class="message" data-participant-1="Controller" data-participant-2="UI"><polygon fill="#181818" points="315.6279,1498.6406,305.6279,1502.6406,315.6279,1506.6406,311.6279,1502.6406" style="stroke:#181818;stroke-width:1;"/><line style="stroke:#181818;stroke-width:1;stroke-dasharray:2.0,2.0;" x1="309.6279" x2="519.4668" y1="1502.6406" y2="1502.6406"/><text fill="#000000" font-family="sans-serif" font-size="13" lengthAdjust="spacing" textLength="79.7393" x="321.6279" y="1497.5747">Scenario list</text></g><g class="message" data-participant-1="UI" data-participant-2="User"><polygon fill="#181818" points="69.9551,1527.7734,59.9551,1531.7734,69.9551,1535.7734,65.9551,1531.7734" style="stroke:#181818;stroke-width:1;"/><line style="stroke:#181818;stroke-width:1;stroke-dasharray:2.0,2.0;" x1="63.9551" x2="303.6279" y1="1531.7734" y2="1531.7734"/><text fill="#000000" font-family="sans-serif" font-size="13" lengthAdjust="spacing" textLength="101.0166" x="75.9551" y="1526.7075">Show scenarios</text></g><g class="message" data-participant-1="User" data-participant-2="UI"><polygon fill="#181818" points="292.6279,1556.9063,302.6279,1560.9063,292.6279,1564.9063,296.6279,1560.9063" style="stroke:#181818;stroke-width:1;"/><line style="stroke:#181818;stroke-width:1;" x1="58.9551" x2="298.6279" y1="1560.9063" y2="1560.9063"/><text fill="#000000" font-family="sans-serif" font-size="13" lengthAdjust="spacing" textLength="99.271" x="65.9551" y="1555.8403">Select scenario</text></g><g class="message" data-participant-1="UI" data-participant-2="Controller"><polygon fill="#181818" points="508.4668,1586.0391,518.4668,1590.0391,508.4668,1594.0391,512.4668,1590.0391" style="stroke:#181818;stroke-width:1;"/><line style="stroke:#181818;stroke-width:1;" x1="304.6279" x2="514.4668" y1="1590.0391" y2="1590.0391"/><text fill="#000000" font-family="sans-serif" font-size="13" lengthAdjust="spacing" textLength="135.8652" x="311.6279" y="1584.9731">setCurrentScenario()</text></g><g class="message" data-participant-1="UI" data-participant-2="Controller"><polygon fill="#181818" points="508.4668,1615.1719,518.4668,1619.1719,508.4668,1623.1719,512.4668,1619.1719" style="stroke:#181818;stroke-width:1;"/><line style="stroke:#181818;stroke-width:1;" x1="304.6279" x2="514.4668" y1="1619.1719" y2="1619.1719"/><text fill="#000000" font-family="sans-serif" font-size="13" lengthAdjust="spacing" textLength="109.6685" x="311.6279" y="1614.106">startSimulation()</text></g><g class="message" data-participant-1="Controller" data-participant-2="Sim"><polygon fill="#181818" points="1041.502,1644.3047,1051.502,1648.3047,1041.502,1652.3047,1045.502,1648.3047" style="stroke:#181818;stroke-width:1;"/><line style="stroke:#181818;stroke-width:1;" x1="520.4668" x2="1047.502" y1="1648.3047" y2="1648.3047"/><text fill="#000000" font-family="sans-serif" font-size="13" lengthAdjust="spacing" textLength="110.3921" x="527.4668" y="1643.2388">new Simulation()</text></g><g class="message" data-participant-1="Controller" data-participant-2="Repo"><polygon fill="#181818" points="857.8188,1673.4375,867.8188,1677.4375,857.8188,1681.4375,861.8188,1677.4375" style="stroke:#181818;stroke-width:1;"/><line style="stroke:#181818;stroke-width:1;" x1="520.4668" x2="863.8188" y1="1677.4375" y2="1677.4375"/><text fill="#000000" font-family="sans-serif" font-size="13" lengthAdjust="spacing" textLength="99.2583" x="527.4668" y="1672.3716">setSimulation()</text></g><g class="message" data-participant-1="Sim" data-participant-2="Industry"><polygon fill="#181818" points="1290.7012,1702.5703,1300.7012,1706.5703,1290.7012,1710.5703,1294.7012,1706.5703" style="stroke:#181818;stroke-width:1;"/><line style="stroke:#181818;stroke-width:1;" x1="1053.502" x2="1296.7012" y1="1706.5703" y2="1706.5703"/><text fill="#000000" font-family="sans-serif" font-size="13" lengthAdjust="spacing" textLength="105.3013" x="1060.502" y="1701.5044">startProducing()</text></g><path d="M229.0542,1721.5703 L305.6782,1721.5703 L305.6782,1728.7031 L295.6782,1738.7031 L229.0542,1738.7031 L229.0542,1721.5703" fill="#EEEEEE" style="stroke:#000000;stroke-width:1.5;"/><rect fill="none" height="234.0625" style="stroke:#000000;stroke-width:1.5;" width="1119.4399" x="229.0542" y="1721.5703"/><text fill="#000000" font-family="sans-serif" font-size="13" font-weight="bold" lengthAdjust="spacing" textLength="31.624" x="244.0542" y="1734.6372">loop</text><text fill="#000000" font-family="sans-serif" font-size="11" font-weight="bold" lengthAdjust="spacing" textLength="94.9233" x="320.6782" y="1733.7808">[For each year]</text><g class="message" data-participant-1="Sim" data-participant-2="Industry"><polygon fill="#181818" points="1290.7012,1755.8359,1300.7012,1759.8359,1290.7012,1763.8359,1294.7012,1759.8359" style="stroke:#181818;stroke-width:1;"/><line style="stroke:#181818;stroke-width:1;" x1="1053.502" x2="1296.7012" y1="1759.8359" y2="1759.8359"/><text fill="#000000" font-family="sans-serif" font-size="13" lengthAdjust="spacing" textLength="125.6265" x="1060.502" y="1754.77">updateProduction()</text></g><g class="message" data-participant-1="Industry" data-participant-2="Sim"><polygon fill="#181818" points="1064.502,1784.9688,1054.502,1788.9688,1064.502,1792.9688,1060.502,1788.9688" style="stroke:#181818;stroke-width:1;"/><line style="stroke:#181818;stroke-width:1;stroke-dasharray:2.0,2.0;" x1="1058.502" x2="1301.7012" y1="1788.9688" y2="1788.9688"/><text fill="#000000" font-family="sans-serif" font-size="13" lengthAdjust="spacing" textLength="119.6152" x="1070.502" y="1783.9028">Production update</text></g><g class="message" data-participant-1="Sim" data-participant-2="UI"><polygon fill="#181818" points="315.6279,1814.1016,305.6279,1818.1016,315.6279,1822.1016,311.6279,1818.1016" style="stroke:#181818;stroke-width:1;"/><line style="stroke:#181818;stroke-width:1;" x1="309.6279" x2="1052.502" y1="1818.1016" y2="1818.1016"/><text fill="#000000" font-family="sans-serif" font-size="13" lengthAdjust="spacing" textLength="151.7915" x="321.6279" y="1813.0356">printProductionStatus()</text></g><g class="message" data-participant-1="Sim" data-participant-2="UI"><polygon fill="#181818" points="315.6279,1843.2344,305.6279,1847.2344,315.6279,1851.2344,311.6279,1847.2344" style="stroke:#181818;stroke-width:1;"/><line style="stroke:#181818;stroke-width:1;" x1="309.6279" x2="1052.502" y1="1847.2344" y2="1847.2344"/><text fill="#000000" font-family="sans-serif" font-size="13" lengthAdjust="spacing" textLength="115.1211" x="321.6279" y="1842.1685">printPortsStatus()</text></g><g class="message" data-participant-1="Sim" data-participant-2="Player"><polygon fill="#181818" points="1216.1255,1872.3672,1226.1255,1876.3672,1216.1255,1880.3672,1220.1255,1876.3672" style="stroke:#181818;stroke-width:1;"/><line style="stroke:#181818;stroke-width:1;" x1="1053.502" x2="1222.1255" y1="1876.3672" y2="1876.3672"/><text fill="#000000" font-family="sans-serif" font-size="13" lengthAdjust="spacing" textLength="150.6235" x="1060.502" y="1871.3013">updateBudgetDisplay()</text></g><g class="message" data-participant-1="Player" data-participant-2="Sim"><polygon fill="#181818" points="1064.502,1901.5,1054.502,1905.5,1064.502,1909.5,1060.502,1905.5" style="stroke:#181818;stroke-width:1;"/><line style="stroke:#181818;stroke-width:1;stroke-dasharray:2.0,2.0;" x1="1058.502" x2="1227.1255" y1="1905.5" y2="1905.5"/><text fill="#000000" font-family="sans-serif" font-size="13" lengthAdjust="spacing" textLength="96.6938" x="1070.502" y="1900.4341">Budget update</text></g><g class="message" data-participant-1="Sim" data-participant-2="Sim"><line style="stroke:#181818;stroke-width:1;" x1="1053.502" x2="1095.502" y1="1934.6328" y2="1934.6328"/><line style="stroke:#181818;stroke-width:1;" x1="1095.502" x2="1095.502" y1="1934.6328" y2="1947.6328"/><line style="stroke:#181818;stroke-width:1;" x1="1054.502" x2="1095.502" y1="1947.6328" y2="1947.6328"/><polygon fill="#181818" points="1064.502,1943.6328,1054.502,1947.6328,1064.502,1951.6328,1060.502,1947.6328" style="stroke:#181818;stroke-width:1;"/><text fill="#000000" font-family="sans-serif" font-size="13" lengthAdjust="spacing" textLength="56.418" x="1060.502" y="1929.5669">refresh()</text></g><g class="message" data-participant-1="UI" data-participant-2="User"><polygon fill="#181818" points="69.9551,1986.7656,59.9551,1990.7656,69.9551,1994.7656,65.9551,1990.7656" style="stroke:#181818;stroke-width:1;"/><line style="stroke:#181818;stroke-width:1;stroke-dasharray:2.0,2.0;" x1="63.9551" x2="303.6279" y1="1990.7656" y2="1990.7656"/><text fill="#000000" font-family="sans-serif" font-size="13" lengthAdjust="spacing" textLength="173.4941" x="75.9551" y="1985.6997">"Another operation? [Y/N]"</text></g><g class="message" data-participant-1="User" data-participant-2="UI"><polygon fill="#181818" points="292.6279,2015.8984,302.6279,2019.8984,292.6279,2023.8984,296.6279,2019.8984" style="stroke:#181818;stroke-width:1;"/><line style="stroke:#181818;stroke-width:1;" x1="58.9551" x2="298.6279" y1="2019.8984" y2="2019.8984"/><text fill="#000000" font-family="sans-serif" font-size="13" lengthAdjust="spacing" textLength="21.6836" x="65.9551" y="2014.8325">"N"</text></g><g class="message" data-participant-1="UI" data-participant-2="Controller"><polygon fill="#181818" points="508.4668,2045.0313,518.4668,2049.0313,508.4668,2053.0313,512.4668,2049.0313" style="stroke:#181818;stroke-width:1;"/><line style="stroke:#181818;stroke-width:1;" x1="304.6279" x2="514.4668" y1="2049.0313" y2="2049.0313"/><text fill="#000000" font-family="sans-serif" font-size="13" lengthAdjust="spacing" textLength="71.0874" x="311.6279" y="2043.9653">doLogout()</text></g><g class="message" data-participant-1="Controller" data-participant-2="AuthRepo"><polygon fill="#181818" points="707.3608,2074.1641,717.3608,2078.1641,707.3608,2082.1641,711.3608,2078.1641" style="stroke:#181818;stroke-width:1;"/><line style="stroke:#181818;stroke-width:1;" x1="520.4668" x2="713.3608" y1="2078.1641" y2="2078.1641"/><text fill="#000000" font-family="sans-serif" font-size="13" lengthAdjust="spacing" textLength="71.0874" x="527.4668" y="2073.0981">doLogout()</text></g><g class="message" data-participant-1="AuthRepo" data-participant-2="Controller"><polygon fill="#181818" points="531.4668,2103.2969,521.4668,2107.2969,531.4668,2111.2969,527.4668,2107.2969" style="stroke:#181818;stroke-width:1;"/><line style="stroke:#181818;stroke-width:1;stroke-dasharray:2.0,2.0;" x1="525.4668" x2="718.3608" y1="2107.2969" y2="2107.2969"/><text fill="#000000" font-family="sans-serif" font-size="13" lengthAdjust="spacing" textLength="131.2759" x="537.4668" y="2102.231">Logout confirmation</text></g><g class="message" data-participant-1="Controller" data-participant-2="UI"><polygon fill="#181818" points="315.6279,2132.4297,305.6279,2136.4297,315.6279,2140.4297,311.6279,2136.4297" style="stroke:#181818;stroke-width:1;"/><line style="stroke:#181818;stroke-width:1;stroke-dasharray:2.0,2.0;" x1="309.6279" x2="519.4668" y1="2136.4297" y2="2136.4297"/><text fill="#000000" font-family="sans-serif" font-size="13" lengthAdjust="spacing" textLength="131.2759" x="321.6279" y="2131.3638">Logout confirmation</text></g><!--SRC=[pPPRQzim5CVV_IaEVd9OcwpiBR2Eh6b7e3UQvg6CFQYsaeWgaj5b8Tz-HxBbItpPqs2GWAtpEnVzTIp9CCCfh9Tm2HjD5IoisLDXM4eCamAI7qhQ73vVNKsYYAH6Aez5EL78i9m80t7RPxEAWMZOhCQW6ocCafnJvU7wTSpfXUPICwpXv9sSqGsrNSwWBh1EgI2AIMyEBsS8ErZkKnOGExJjpvoSoigBnxPv9JAhJLb0U8aYh-_bDIep1sL5CeasAxXq0sYOmq9_GBoKS98MZYwEaS3b3fZu1Z_VPe-_ubQ4Ms6eqX2_nL74fSpX2n1Zw24tEW9eHNvM4eTXYuj73uJnMKwqFagLER0RCbKqSw8J7Y9TDnPe3fcybpic4X_h0l9ZDa6k9XmVrcQ83dPVPJFukvIS4cmyRTEKQZtReflpm1_X1dmmM1T671jElAFcnYg5Ct5pVC6moSGx3EOEtFBrgHEvbAYP-5rHye5Fb6jQrdM7nLf5lRcr1EkzF09L2fVW4oYdXM1YrrmnAhB8_ICtIrS5V8N5yc7rsBi69CjSuAIhlAiIfnxceZtIhKMv39fochesFsk4jH_N7XfDNo_gXOV76Y7uJAVJJWUufEYtPUhWFxkE4hVBrUlJItyjlx46yixf0ybrZo1LDw2ztXoIoJHNJ9ZAgRSZq0gSQHFrDaF3sXNuW85xPNMMtedegc4nS9BkfQO2doRzCEPuogdoSka7Acndwa5NR5D3gtreTiFCQLRjU-T2Fzyltcx_Sw7_dSu34shWWpCecS6ibNf1-b490zJKSIXpO4S4F4UwxQf3LVrQ1lDV10rvae6cDNXCreThKkxhRGtGFWT1Zt06zYc5cSyeV7NcqErbJZm1CvlYZkiPVrpUkTEGf7iuKQByXjrnjNc6NqxXMoM02l0I-cfhfFHfndCg-Y-WfjQ66AlBS1rCAgFxYEAg4ShwRZFiaoNJEGwNO47KTHLCJqtUgkXMKRttljNfq-gCU24aNi0KoB3Jz5v5uiSu6hWcI6im_kZTe4063-M2WBHvElHqU0_s1m00]--></g></svg>