<svg xmlns="http://www.w3.org/2000/svg" xmlns:xlink="http://www.w3.org/1999/xlink" contentStyleType="text/css" height="2800px" preserveAspectRatio="none" style="width:505px;height:2800px;background:#FFFFFF;" version="1.1" viewBox="0 0 505 2800" width="505px" zoomAndPan="magnify"><defs/><g><!--cluster Simulator--><g id="cluster_Simulator"><rect fill="none" height="2787" rx="2.5" ry="2.5" style="stroke:#181818;stroke-width:1.0;" width="377" x="122" y="7"/><text fill="#000000" font-family="sans-serif" font-size="14" font-weight="bold" lengthAdjust="spacing" textLength="68.7537" x="276.1231" y="23.9659">Simulator</text></g><!--cluster Map Management--><g id="cluster_Map Management"><rect fill="none" height="238" rx="2.5" ry="2.5" style="stroke:#181818;stroke-width:1.0;" width="200" x="210.5" y="2123"/><text fill="#000000" font-family="sans-serif" font-size="14" font-weight="bold" lengthAdjust="spacing" textLength="127.9035" x="246.5482" y="2139.9659">Map Management</text></g><!--cluster Scenario Management--><g id="cluster_Scenario Management"><rect fill="none" height="397" rx="2.5" ry="2.5" style="stroke:#181818;stroke-width:1.0;" width="222" x="199.5" y="1702"/><text fill="#000000" font-family="sans-serif" font-size="14" font-weight="bold" lengthAdjust="spacing" textLength="157.5134" x="231.7433" y="1718.9659">Scenario Management</text></g><!--cluster Simulation Control--><g id="cluster_Simulation Control"><rect fill="none" height="1162" rx="2.5" ry="2.5" style="stroke:#181818;stroke-width:1.0;" width="329" x="146" y="516"/><text fill="#000000" font-family="sans-serif" font-size="14" font-weight="bold" lengthAdjust="spacing" textLength="131.6555" x="244.6722" y="532.9659">Simulation Control</text></g><!--cluster Analysis--><g id="cluster_Analysis"><rect fill="none" height="439" rx="2.5" ry="2.5" style="stroke:#181818;stroke-width:1.0;" width="274" x="173.5" y="53"/><text fill="#000000" font-family="sans-serif" font-size="14" font-weight="bold" lengthAdjust="spacing" textLength="57.7358" x="281.6321" y="69.9659">Analysis</text></g><!--cluster Testing & Validation--><g id="cluster_Testing &amp; Validation"><rect fill="none" height="385" rx="2.5" ry="2.5" style="stroke:#181818;stroke-width:1.0;" width="306" x="157.5" y="2385"/><text fill="#000000" font-family="sans-serif" font-size="14" font-weight="bold" lengthAdjust="spacing" textLength="141.1475" x="239.9263" y="2401.9659">Testing &amp; Validation</text></g><g id="elem_UC1"><ellipse cx="310.7141" cy="2180.2428" fill="#F1F1F1" rx="84.2141" ry="19.2428" style="stroke:#181818;stroke-width:0.5;"/><text fill="#000000" font-family="sans-serif" font-size="14" lengthAdjust="spacing" textLength="115.0096" x="250.2093" y="2184.9758">UC1 - Create Map</text></g><g id="elem_UC19"><ellipse cx="310.4517" cy="2252.8903" fill="#F1F1F1" rx="82.4517" ry="18.8903" style="stroke:#181818;stroke-width:0.5;"/><text fill="#000000" font-family="sans-serif" font-size="14" lengthAdjust="spacing" textLength="110.2356" x="252.334" y="2257.6233">UC19 - Save Map</text></g><g id="elem_UC20"><ellipse cx="310.5837" cy="2326.0167" fill="#F1F1F1" rx="83.0837" ry="19.0167" style="stroke:#181818;stroke-width:0.5;"/><text fill="#000000" font-family="sans-serif" font-size="14" lengthAdjust="spacing" textLength="111.9576" x="251.6049" y="2330.7497">UC20 - Load Map</text></g><g id="elem_UC2"><ellipse cx="310.626" cy="1759.9252" fill="#F1F1F1" rx="87.626" ry="19.9252" style="stroke:#181818;stroke-width:0.5;"/><text fill="#000000" font-family="sans-serif" font-size="14" lengthAdjust="spacing" textLength="124.0255" x="245.6133" y="1764.6582">UC2 - Add Industry</text></g><g id="elem_UC3"><ellipse cx="310.4976" cy="1833.1995" fill="#F1F1F1" rx="76.4976" ry="17.6995" style="stroke:#181818;stroke-width:0.5;"/><text fill="#000000" font-family="sans-serif" font-size="14" lengthAdjust="spacing" textLength="93.3376" x="260.8288" y="1837.9325">UC3 - Add City</text></g><g id="elem_UC4"><ellipse cx="310.4207" cy="1906.8841" fill="#F1F1F1" rx="94.9207" ry="21.3841" style="stroke:#181818;stroke-width:0.5;"/><text fill="#000000" font-family="sans-serif" font-size="14" lengthAdjust="spacing" textLength="142.5194" x="236.1609" y="1911.6171">UC4 - Create Scenario</text></g><g id="elem_UC21"><ellipse cx="310.5033" cy="1985.0007" fill="#F1F1F1" rx="93.0033" ry="21.0007" style="stroke:#181818;stroke-width:0.5;"/><text fill="#000000" font-family="sans-serif" font-size="14" lengthAdjust="spacing" textLength="137.7455" x="238.6306" y="1989.7336">UC21 - Save Scenario</text></g><g id="elem_UC22"><ellipse cx="310.6923" cy="2062.1385" fill="#F1F1F1" rx="93.6923" ry="21.1385" style="stroke:#181818;stroke-width:0.5;"/><text fill="#000000" font-family="sans-serif" font-size="14" lengthAdjust="spacing" textLength="139.4675" x="237.9586" y="2066.8714">UC22 - Load Scenario</text></g><g id="elem_UC5"><ellipse cx="310.5359" cy="573.8072" fill="#F1F1F1" rx="87.0359" ry="19.8072" style="stroke:#181818;stroke-width:0.5;"/><text fill="#000000" font-family="sans-serif" font-size="14" lengthAdjust="spacing" textLength="122.4855" x="246.2932" y="578.5402">UC5 - Build Station</text></g><g id="elem_UC6"><ellipse cx="310.5341" cy="651.2068" fill="#F1F1F1" rx="96.5341" ry="21.7068" style="stroke:#181818;stroke-width:0.5;"/><text fill="#000000" font-family="sans-serif" font-size="14" lengthAdjust="spacing" textLength="146.4955" x="234.2863" y="655.9398">UC6 - Upgrade Station</text></g><g id="elem_UC7"><ellipse cx="310.4522" cy="726.9904" fill="#F1F1F1" rx="85.4522" ry="19.4904" style="stroke:#181818;stroke-width:0.5;"/><text fill="#000000" font-family="sans-serif" font-size="14" lengthAdjust="spacing" textLength="118.3136" x="248.2954" y="731.7234">UC7 - List Stations</text></g><g id="elem_UC8"><ellipse cx="310.3727" cy="804.0745" fill="#F1F1F1" rx="100.8727" ry="22.5745" style="stroke:#181818;stroke-width:0.5;"/><text fill="#000000" font-family="sans-serif" font-size="14" lengthAdjust="spacing" textLength="157.0233" x="228.861" y="808.8075">UC8 - Build Railway Line</text></g><g id="elem_UC9"><ellipse cx="310.3737" cy="882.9747" fill="#F1F1F1" rx="95.3737" ry="21.4747" style="stroke:#181818;stroke-width:0.5;"/><text fill="#000000" font-family="sans-serif" font-size="14" lengthAdjust="spacing" textLength="143.6394" x="235.5539" y="887.7077">UC9 - Buy Locomotive</text></g><g id="elem_UC10"><ellipse cx="310.6779" cy="965.1356" fill="#F1F1F1" rx="113.6779" ry="25.1356" style="stroke:#181818;stroke-width:0.5;"/><text fill="#000000" font-family="sans-serif" font-size="14" lengthAdjust="spacing" textLength="187.0253" x="214.1652" y="969.8685">UC10 - Assign Train to Route</text></g><g id="elem_UC11"><ellipse cx="310.6991" cy="1044.1398" fill="#F1F1F1" rx="83.6991" ry="19.1398" style="stroke:#181818;stroke-width:0.5;"/><text fill="#000000" font-family="sans-serif" font-size="14" lengthAdjust="spacing" textLength="113.6236" x="250.8874" y="1048.8728">UC11 - List Trains</text></g><g id="elem_UC12"><ellipse cx="310.6524" cy="1124.1305" fill="#F1F1F1" rx="116.1524" ry="25.6305" style="stroke:#181818;stroke-width:0.5;"/><text fill="#000000" font-family="sans-serif" font-size="14" lengthAdjust="spacing" textLength="192.6812" x="211.3118" y="1128.8634">UC12 - Play/Pause Simulation</text></g><g id="elem_UC13"><ellipse cx="310.2799" cy="1211.056" fill="#F1F1F1" rx="118.2799" ry="26.056" style="stroke:#181818;stroke-width:0.5;"/><text fill="#000000" font-family="sans-serif" font-size="14" lengthAdjust="spacing" textLength="197.5112" x="208.7987" y="1215.6858">UC13 - Check Route Feasibility</text></g><g id="elem_UC14"><ellipse cx="310.5959" cy="1299.2192" fill="#F1F1F1" rx="124.0959" ry="27.2192" style="stroke:#181818;stroke-width:0.5;"/><text fill="#000000" font-family="sans-serif" font-size="14" lengthAdjust="spacing" textLength="210.5031" x="203.8236" y="1303.361">UC14 - Check Full Line Coverage</text></g><g id="elem_UC27"><ellipse cx="310.279" cy="1393.0558" fill="#F1F1F1" rx="148.279" ry="32.0558" style="stroke:#181818;stroke-width:0.5;"/><text fill="#000000" font-family="sans-serif" font-size="14" lengthAdjust="spacing" textLength="262.471" x="179.0435" y="1396.4878">UC27 - Shortest Route Between Stations</text></g><g id="elem_UC23"><ellipse cx="310.6297" cy="1480.1259" fill="#F1F1F1" rx="86.1297" ry="19.6259" style="stroke:#181818;stroke-width:0.5;"/><text fill="#000000" font-family="sans-serif" font-size="14" lengthAdjust="spacing" textLength="120.1055" x="247.577" y="1484.8589">UC23 - Save Game</text></g><g id="elem_UC24"><ellipse cx="310.2847" cy="1554.7569" fill="#F1F1F1" rx="86.7847" ry="19.7569" style="stroke:#181818;stroke-width:0.5;"/><text fill="#000000" font-family="sans-serif" font-size="14" lengthAdjust="spacing" textLength="121.8275" x="246.3709" y="1559.4899">UC24 - Load Game</text></g><g id="elem_UC25"><ellipse cx="310.5846" cy="1635.9169" fill="#F1F1F1" rx="115.0846" ry="25.4169" style="stroke:#181818;stroke-width:0.5;"/><text fill="#000000" font-family="sans-serif" font-size="14" lengthAdjust="spacing" textLength="190.2452" x="212.462" y="1640.6499">UC25 - View Financial Results</text></g><g id="elem_UC15"><ellipse cx="310.5174" cy="113.9035" fill="#F1F1F1" rx="100.0174" ry="22.4035" style="stroke:#181818;stroke-width:0.5;"/><text fill="#000000" font-family="sans-serif" font-size="14" lengthAdjust="spacing" textLength="154.9654" x="230.0347" y="118.6364">UC15 - Station Statistics</text></g><g id="elem_UC16"><ellipse cx="310.5243" cy="198.2049" fill="#F1F1F1" rx="119.0243" ry="26.2049" style="stroke:#181818;stroke-width:0.5;"/><text fill="#000000" font-family="sans-serif" font-size="14" lengthAdjust="spacing" textLength="199.1912" x="208.3659" y="202.7722">UC16 - Passenger Comparison</text></g><g id="elem_UC17"><ellipse cx="310.5591" cy="281.1118" fill="#F1F1F1" rx="98.5591" ry="22.1118" style="stroke:#181818;stroke-width:0.5;"/><text fill="#000000" font-family="sans-serif" font-size="14" lengthAdjust="spacing" textLength="151.4374" x="231.8404" y="285.8448">UC17 - Cargo Overview</text></g><g id="elem_UC18"><ellipse cx="310.4025" cy="363.1805" fill="#F1F1F1" rx="111.4025" ry="24.6805" style="stroke:#181818;stroke-width:0.5;"/><text fill="#000000" font-family="sans-serif" font-size="14" lengthAdjust="spacing" textLength="181.7893" x="216.5079" y="367.9135">UC18 - Distribution Analysis</text></g><g id="elem_UC31"><ellipse cx="310.5647" cy="449.1129" fill="#F1F1F1" rx="121.0647" ry="26.6129" style="stroke:#181818;stroke-width:0.5;"/><text fill="#000000" font-family="sans-serif" font-size="14" lengthAdjust="spacing" textLength="203.7692" x="206.5499" y="453.5091">UC31 - Cargo Revenue Analysis</text></g><g id="elem_UC26"><ellipse cx="310.6733" cy="2452.8347" fill="#F1F1F1" rx="137.1733" ry="29.8347" style="stroke:#181818;stroke-width:0.5;"/><text fill="#000000" font-family="sans-serif" font-size="14" lengthAdjust="spacing" textLength="238.8391" x="191.2537" y="2456.2666">UC26 - Evaluate Algorithms UC13/14</text></g><g id="elem_UC28"><ellipse cx="310.2798" cy="2545.756" fill="#F1F1F1" rx="124.2798" ry="27.256" style="stroke:#181818;stroke-width:0.5;"/><text fill="#000000" font-family="sans-serif" font-size="14" lengthAdjust="spacing" textLength="210.9092" x="203.3402" y="2549.8823">UC28 - Evaluate Algorithm UC27</text></g><g id="elem_UC29"><ellipse cx="310.4966" cy="2638.7993" fill="#F1F1F1" rx="136.9966" ry="29.7993" style="stroke:#181818;stroke-width:0.5;"/><text fill="#000000" font-family="sans-serif" font-size="14" lengthAdjust="spacing" textLength="238.461" x="191.2661" y="2642.2313">UC29 - Performance Tests (UC13/14)</text></g><g id="elem_UC30"><ellipse cx="310.4835" cy="2728.8967" fill="#F1F1F1" rx="112.4835" ry="24.8967" style="stroke:#181818;stroke-width:0.5;"/><text fill="#000000" font-family="sans-serif" font-size="14" lengthAdjust="spacing" textLength="184.2813" x="215.3429" y="2733.6297">UC30 - Best Fit Curve (UC29)</text></g><!--entity Player--><g id="elem_Player"><ellipse cx="53.8769" cy="852" fill="#F1F1F1" rx="8" ry="8" style="stroke:#181818;stroke-width:0.5;"/><path d="M53.8769,860 L53.8769,887 M40.8769,868 L66.8769,868 M53.8769,887 L40.8769,902 M53.8769,887 L66.8769,902 " fill="none" style="stroke:#181818;stroke-width:0.5;"/><text fill="#000000" font-family="sans-serif" font-size="14" lengthAdjust="spacing" textLength="40.7538" x="33.5" y="918.4659">Player</text></g><!--entity Editor--><g id="elem_Editor"><ellipse cx="54.1559" cy="1993" fill="#F1F1F1" rx="8" ry="8" style="stroke:#181818;stroke-width:0.5;"/><path d="M54.1559,2001 L54.1559,2028 M41.1559,2009 L67.1559,2009 M54.1559,2028 L41.1559,2043 M54.1559,2028 L67.1559,2043 " fill="none" style="stroke:#181818;stroke-width:0.5;"/><text fill="#000000" font-family="sans-serif" font-size="14" lengthAdjust="spacing" textLength="39.3119" x="34.5" y="2059.4659">Editor</text></g><!--entity ProductOwner--><g id="elem_ProductOwner"><ellipse cx="54.0128" cy="2561" fill="#F1F1F1" rx="8" ry="8" style="stroke:#181818;stroke-width:0.5;"/><path d="M54.0128,2569 L54.0128,2596 M41.0128,2577 L67.0128,2577 M54.0128,2596 L41.0128,2611 M54.0128,2596 L67.0128,2611 " fill="none" style="stroke:#181818;stroke-width:0.5;"/><text fill="#000000" font-family="sans-serif" font-size="14" lengthAdjust="spacing" textLength="96.0256" x="6" y="2627.4659">ProductOwner</text></g><!--link Player to UC5--><g id="link_Player_UC5"><path d="M58.35,843.3 C64.86,776.01 81.51,643.77 114,612 C142.92,583.72 180.2672,573.8036 218.7772,570.8836 " fill="none" id="Player-to-UC5" style="stroke:#181818;stroke-width:1.0;"/><polygon fill="#181818" points="224.76,570.43,215.4833,567.1219,219.7743,570.808,216.0882,575.099,224.76,570.43" style="stroke:#181818;stroke-width:1.0;"/></g><!--link Player to UC6--><g id="link_Player_UC6"><path d="M55.7,843.47 C58.73,799.43 70.61,729.26 114,690 C141.01,665.56 172.9063,655.3642 208.1063,650.9642 " fill="none" id="Player-to-UC6" style="stroke:#181818;stroke-width:1.0;"/><polygon fill="#181818" points="214.06,650.22,204.6334,647.3672,209.0986,650.8402,205.6256,655.3054,214.06,650.22" style="stroke:#181818;stroke-width:1.0;"/></g><!--link Player to UC7--><g id="link_Player_UC7"><path d="M64.7,843.29 C73.26,816.79 88.46,783.37 114,764 C145.38,740.21 181.6097,730.8661 218.7697,727.1561 " fill="none" id="Player-to-UC7" style="stroke:#181818;stroke-width:1.0;"/><polygon fill="#181818" points="224.74,726.56,215.3871,723.4739,219.7647,727.0567,216.1819,731.4343,224.74,726.56" style="stroke:#181818;stroke-width:1.0;"/></g><!--link Player to UC8--><g id="link_Player_UC8"><path d="M74.66,867.24 C85.65,859.16 99.93,849.83 114,844 C147.76,830 180.9907,821.7891 215.3407,815.7491 " fill="none" id="Player-to-UC8" style="stroke:#181818;stroke-width:1.0;"/><polygon fill="#181818" points="221.25,814.71,211.6933,812.3291,216.3255,815.5759,213.0787,820.2082,221.25,814.71" style="stroke:#181818;stroke-width:1.0;"/></g><!--link Player to UC9--><g id="link_Player_UC9"><path d="M74.55,883 C104.46,883 157.54,883 208.97,883 " fill="none" id="Player-to-UC9" style="stroke:#181818;stroke-width:1.0;"/><polygon fill="#181818" points="214.97,883,205.97,879,209.97,883,205.97,887,214.97,883" style="stroke:#181818;stroke-width:1.0;"/></g><!--link Player to UC10--><g id="link_Player_UC10"><path d="M74.7,898.68 C85.7,906.73 99.98,916.07 114,922 C145.68,935.41 176.2172,943.6998 208.9672,950.2698 " fill="none" id="Player-to-UC10" style="stroke:#181818;stroke-width:1.0;"/><polygon fill="#181818" points="214.85,951.45,206.8126,945.7579,209.9477,950.4665,205.239,953.6016,214.85,951.45" style="stroke:#181818;stroke-width:1.0;"/></g><!--link Player to UC11--><g id="link_Player_UC11"><path d="M63.73,922.57 C71.97,950.44 87.19,986.33 114,1007 C145.87,1031.57 183.245,1040.8928 221.025,1044.3528 " fill="none" id="Player-to-UC11" style="stroke:#181818;stroke-width:1.0;"/><polygon fill="#181818" points="227,1044.9,218.4023,1040.0959,222.0208,1044.444,217.6727,1048.0625,227,1044.9" style="stroke:#181818;stroke-width:1.0;"/></g><!--link Player to UC12--><g id="link_Player_UC12"><path d="M55.6,922.73 C58.51,967.46 70.27,1039.21 114,1080 C136.45,1100.94 160.7922,1111.4176 190.7322,1117.8076 " fill="none" id="Player-to-UC12" style="stroke:#181818;stroke-width:1.0;"/><polygon fill="#181818" points="196.6,1119.06,188.6331,1113.2696,191.7101,1118.0164,186.9633,1121.0934,196.6,1119.06" style="stroke:#181818;stroke-width:1.0;"/></g><!--link Player to UC13--><g id="link_Player_UC13"><path d="M58,922.55 C64.12,992.24 80.36,1132.8 114,1167 C135.04,1188.39 158.2417,1199.0635 187.5217,1205.5435 " fill="none" id="Player-to-UC13" style="stroke:#181818;stroke-width:1.0;"/><polygon fill="#181818" points="193.38,1206.84,185.457,1200.9898,188.4981,1205.7596,183.7283,1208.8008,193.38,1206.84" style="stroke:#181818;stroke-width:1.0;"/></g><!--link Player to UC14--><g id="link_Player_UC14"><path d="M55.88,922.61 C58.6,1008.2 69.66,1206.51 114,1254 C133.55,1274.94 154.892,1285.6438 182.762,1292.4638 " fill="none" id="Player-to-UC14" style="stroke:#181818;stroke-width:1.0;"/><polygon fill="#181818" points="188.59,1293.89,180.7987,1287.8654,183.7333,1292.7015,178.8972,1295.6361,188.59,1293.89" style="stroke:#181818;stroke-width:1.0;"/></g><!--link Player to UC15--><g id="link_Player_UC15"><path d="M55.48,843.01 C57.59,698.02 68.12,205.8 114,154 C138.23,126.64 169.741,115.74 205.411,111.55 " fill="none" id="Player-to-UC15" style="stroke:#181818;stroke-width:1.0;"/><polygon fill="#181818" points="211.37,110.85,201.9648,107.9273,206.4041,111.4333,202.8981,115.8727,211.37,110.85" style="stroke:#181818;stroke-width:1.0;"/></g><!--link Player to UC16--><g id="link_Player_UC16"><path d="M55.97,843.27 C59.57,710.24 74.1,286.22 114,241 C133.83,218.52 156.6246,207.5736 185.9146,201.2636 " fill="none" id="Player-to-UC16" style="stroke:#181818;stroke-width:1.0;"/><polygon fill="#181818" points="191.78,200,182.1394,197.9851,186.8921,201.053,183.8243,205.8057,191.78,200" style="stroke:#181818;stroke-width:1.0;"/></g><!--link Player to UC17--><g id="link_Player_UC17"><path d="M56.5,843.18 C61.45,721.35 78.98,359.6 114,321 C138.79,293.67 170.8292,282.8452 206.7592,278.7152 " fill="none" id="Player-to-UC17" style="stroke:#181818;stroke-width:1.0;"/><polygon fill="#181818" points="212.72,278.03,203.3221,275.0839,207.7527,278.601,204.2356,283.0316,212.72,278.03" style="stroke:#181818;stroke-width:1.0;"/></g><!--link Player to UC18--><g id="link_Player_UC18"><path d="M54.23,843.44 C53.07,740.65 55.72,468.7 114,405 C135.73,381.24 161.4764,370.261 193.0064,364.541 " fill="none" id="Player-to-UC18" style="stroke:#181818;stroke-width:1.0;"/><polygon fill="#181818" points="198.91,363.47,189.3405,361.1407,193.9903,364.3625,190.7685,369.0123,198.91,363.47" style="stroke:#181818;stroke-width:1.0;"/></g><!--link Player to UC23--><g id="link_Player_UC23"><path d="M56.5,922.63 C61.44,1043.85 78.97,1403.78 114,1442 C142.27,1472.84 181.4987,1482.6967 221.3387,1484.8467 " fill="none" id="Player-to-UC23" style="stroke:#181818;stroke-width:1.0;"/><polygon fill="#181818" points="227.33,1485.17,218.5586,1480.6908,222.3373,1484.9006,218.1275,1488.6792,227.33,1485.17" style="stroke:#181818;stroke-width:1.0;"/></g><!--link Player to UC24--><g id="link_Player_UC24"><path d="M55.97,922.73 C59.58,1054.74 74.07,1472.9 114,1517 C141.85,1547.76 180.5595,1557.6929 220.1895,1559.9229 " fill="none" id="Player-to-UC24" style="stroke:#181818;stroke-width:1.0;"/><polygon fill="#181818" points="226.18,1560.26,217.4189,1555.7607,221.1879,1559.9791,216.9695,1563.748,226.18,1560.26" style="stroke:#181818;stroke-width:1.0;"/></g><!--link Player to UC25--><g id="link_Player_UC25"><path d="M55.61,922.85 C58.15,1064.98 69.91,1541.34 114,1592 C134.61,1615.68 159.1084,1626.9541 189.8084,1633.1441 " fill="none" id="Player-to-UC25" style="stroke:#181818;stroke-width:1.0;"/><polygon fill="#181818" points="195.69,1634.33,187.6582,1628.6301,190.7886,1633.3417,186.0769,1636.4722,195.69,1634.33" style="stroke:#181818;stroke-width:1.0;"/></g><!--link Player to UC27--><g id="link_Player_UC27"><path d="M54.58,922.77 C54.37,1022.76 59.27,1281.1 114,1343 C129.78,1360.85 145.3011,1370.7743 167.9111,1378.6143 " fill="none" id="Player-to-UC27" style="stroke:#181818;stroke-width:1.0;"/><polygon fill="#181818" points="173.58,1380.58,166.3871,1373.8522,168.8559,1378.9419,163.7662,1381.4107,173.58,1380.58" style="stroke:#181818;stroke-width:1.0;"/></g><!--link Player to UC31--><g id="link_Player_UC31"><path d="M57.17,843.42 C62.3,763.25 77.56,585.29 114,538 C141.2,502.7 179.9049,482.8483 219.5349,469.7083 " fill="none" id="Player-to-UC31" style="stroke:#181818;stroke-width:1.0;"/><polygon fill="#181818" points="225.23,467.82,215.4285,466.8557,220.4841,469.3936,217.9462,474.4492,225.23,467.82" style="stroke:#181818;stroke-width:1.0;"/></g><!--link ProductOwner to UC26--><g id="link_ProductOwner_UC26"><path d="M72.17,2552.4 C81.94,2534.22 95.89,2513.88 114,2501 C136.29,2485.15 157.4149,2476.0648 184.0649,2468.9148 " fill="none" id="ProductOwner-to-UC26" style="stroke:#181818;stroke-width:1.0;"/><polygon fill="#181818" points="189.86,2467.36,180.1309,2465.8288,185.0308,2468.6556,182.2039,2473.5555,189.86,2467.36" style="stroke:#181818;stroke-width:1.0;"/></g><!--link ProductOwner to UC28--><g id="link_ProductOwner_UC28"><path d="M102.27,2583.46 C133.54,2577.8 169.7359,2571.2683 207.8159,2564.3783 " fill="none" id="ProductOwner-to-UC28" style="stroke:#181818;stroke-width:1.0;"/><polygon fill="#181818" points="213.72,2563.31,204.1516,2560.9763,208.7999,2564.2002,205.576,2568.8485,213.72,2563.31" style="stroke:#181818;stroke-width:1.0;"/></g><!--link ProductOwner to UC29--><g id="link_ProductOwner_UC29"><path d="M102.27,2600.73 C131.24,2606.08 163.5997,2612.061 199.3597,2618.661 " fill="none" id="ProductOwner-to-UC29" style="stroke:#181818;stroke-width:1.0;"/><polygon fill="#181818" points="205.26,2619.75,197.1355,2614.1829,200.343,2618.8425,195.6835,2622.0501,205.26,2619.75" style="stroke:#181818;stroke-width:1.0;"/></g><!--link ProductOwner to UC30--><g id="link_ProductOwner_UC30"><path d="M71.01,2631.66 C80.71,2650.85 94.94,2672.58 114,2686 C140,2704.3 166.5077,2713.8374 197.3977,2720.0474 " fill="none" id="ProductOwner-to-UC30" style="stroke:#181818;stroke-width:1.0;"/><polygon fill="#181818" points="203.28,2721.23,195.2449,2715.5346,198.3781,2720.2445,193.6682,2723.3777,203.28,2721.23" style="stroke:#181818;stroke-width:1.0;"/></g><!--link Editor to UC1--><g id="link_Editor_UC1"><path d="M73.59,2054.47 C83.97,2069.47 98.02,2086.89 114,2099 C156.46,2131.18 207.8056,2151.1245 249.3156,2163.9045 " fill="none" id="Editor-to-UC1" style="stroke:#181818;stroke-width:1.0;"/><polygon fill="#181818" points="255.05,2165.67,247.6254,2159.1989,250.2714,2164.1988,245.2714,2166.8447,255.05,2165.67" style="stroke:#181818;stroke-width:1.0;"/></g><!--link Editor to UC2--><g id="link_Editor_UC2"><path d="M60.26,1984.12 C68.73,1926.26 87.17,1823.18 114,1798 C143.12,1770.67 179.781,1760.7715 217.811,1757.5815 " fill="none" id="Editor-to-UC2" style="stroke:#181818;stroke-width:1.0;"/><polygon fill="#181818" points="223.79,1757.08,214.4871,1753.8463,218.8075,1757.4979,215.1558,1761.8183,223.79,1757.08" style="stroke:#181818;stroke-width:1.0;"/></g><!--link Editor to UC3--><g id="link_Editor_UC3"><path d="M59.07,1984.4 C64.95,1948.48 79.25,1896.86 114,1868 C147.42,1840.24 189.3068,1831.6146 229.3168,1829.7146 " fill="none" id="Editor-to-UC3" style="stroke:#181818;stroke-width:1.0;"/><polygon fill="#181818" points="235.31,1829.43,226.1304,1825.8614,230.3156,1829.6672,226.5099,1833.8524,235.31,1829.43" style="stroke:#181818;stroke-width:1.0;"/></g><!--link Editor to UC4--><g id="link_Editor_UC4"><path d="M73.66,1988.92 C83.63,1973.46 97.31,1956.46 114,1946 C144.64,1926.79 176.9055,1917.6444 211.3955,1912.5044 " fill="none" id="Editor-to-UC4" style="stroke:#181818;stroke-width:1.0;"/><polygon fill="#181818" points="217.33,1911.62,207.8387,1908.9903,212.3846,1912.357,209.0179,1916.9029,217.33,1911.62" style="stroke:#181818;stroke-width:1.0;"/></g><!--link Editor to UC19--><g id="link_Editor_UC19"><path d="M55.73,2063.8 C58.79,2107.71 70.73,2177.29 114,2216 C144.89,2243.64 183.794,2253.0899 222.764,2255.7599 " fill="none" id="Editor-to-UC19" style="stroke:#181818;stroke-width:1.0;"/><polygon fill="#181818" points="228.75,2256.17,220.0445,2251.5642,223.7617,2255.8282,219.4976,2259.5455,228.75,2256.17" style="stroke:#181818;stroke-width:1.0;"/></g><!--link Editor to UC20--><g id="link_Editor_UC20"><path d="M58.54,2063.64 C65.27,2129.71 82.17,2258.18 114,2289 C144.15,2318.2 183.7297,2327.6793 223.2897,2329.9293 " fill="none" id="Editor-to-UC20" style="stroke:#181818;stroke-width:1.0;"/><polygon fill="#181818" points="229.28,2330.27,220.5217,2325.7654,224.2881,2329.9861,220.0674,2333.7525,229.28,2330.27" style="stroke:#181818;stroke-width:1.0;"/></g><!--link Editor to UC21--><g id="link_Editor_UC21"><path d="M73.71,2021.13 C106.89,2016.05 171.8092,2006.0986 227.2292,1997.6086 " fill="none" id="Editor-to-UC21" style="stroke:#181818;stroke-width:1.0;"/><polygon fill="#181818" points="233.16,1996.7,223.6581,1994.109,228.2177,1997.4571,224.8695,2002.0167,233.16,1996.7" style="stroke:#181818;stroke-width:1.0;"/></g><!--link Editor to UC22--><g id="link_Editor_UC22"><path d="M73.71,2026.79 C106.72,2031.72 171.0657,2041.3345 226.3557,2049.5845 " fill="none" id="Editor-to-UC22" style="stroke:#181818;stroke-width:1.0;"/><polygon fill="#181818" points="232.29,2050.47,223.9789,2045.1856,227.3447,2049.7321,222.7982,2053.098,232.29,2050.47" style="stroke:#181818;stroke-width:1.0;"/></g><!--SRC=[XLPHRzem47xdLvpwi7KFLR53ARnCegnCarOLGTjtDt63LUCWsm6XQVzzvoI6nhfgI0ZE-RxpvxlFZhLyy-0hiAhSU2YKbRbNbHcuTsLsmeejx4J-BagvzaSj8JmMfjHo879VMLXgSPIs2-uBXJ_nYQsAElUF1uFF1rqIMAjjhGK-_pC0WF2D-U7YGUpWGHZylvN6Nq03QJwraxbm27cUCxY2kPN2IyJkBa0um44IEKNeMknxm2c5v4D4_gv4yG79Xmtoxw2lSPrB8wog_Y-KOyvPKS0lKzJEssFCIs6p3ZjNFk8o2ZSwBpuAwU0ZKWAB5KZGd2mOvx4CAPpJjMXxYMw1UMMyhVGdfRZ1l7UrqfZOD_Wkxmq57YFuULTQKSW4FgRWjq6pSZvYNGU-fS2Jav2LKFeWZaWricDCACQqOI2kogjjvTK-eaaZiM2acNEgDF1aXJ9XPwsgsaSM6v8q5XVHaE8I66thqAMmxQwN0eVXt8L88ot6WiVc6vc_ju9W8OLJhqgVBST8px7HYRYejMugXltUIuicY4pQVg4twqrblSIbjRFUIN-GqgJTucIxU1Rz-rDiuroSLCb7qRiVeRIiOCSN9G-mK4QON0aDA-bgxKzgRaY_pupGHwVSPoTJoDkjg_rrNkMdPf9cPy7jI-6SDAMqMDOjdhdAdNj9Ufw5miw5BIjun3xiSIqHJzQH1T__G3bMlTQDlFDIMXhf_OoTfbd9lJIrJ7aP8mlrXFrMfeGly2AqAZfpqgTaAC3zNkWw76epNLPM-SssjUCr6yMEa7NW4vBS-2aIoPNniAsNqhvLTeiEa10KExZi9lqMoUGcpy8clmkMNYWFyzgYFoy3EDAo-Eh0kdpjtf2WZCSTqxnRtQ0Rkxhwtfo2lN3S3s_xuQGVJliX7Y_zc2KnJ-8iYKT9d6XZYJYMg6E9F9xavqb-dkJdIJxqLwXWUvE0vYgH5FB39IFc69EZ4t9qIerY_t3MzZBJdwuRwnRR3ta_pFhXAE5E4_8mYTFa_1y0]--></g></svg>