<svg xmlns="http://www.w3.org/2000/svg" xmlns:xlink="http://www.w3.org/1999/xlink" contentStyleType="text/css" data-diagram-type="SEQUENCE" height="855px" preserveAspectRatio="none" style="width:621px;height:855px;background:#FFFFFF;" version="1.1" viewBox="0 0 621 855" width="621px" zoomAndPan="magnify"><title>US006 - As a Player, Upgrade a Station with a Building</title><defs/><g><text fill="#000000" font-family="sans-serif" font-size="14" font-weight="bold" lengthAdjust="spacing" textLength="432.0996" x="95.7529" y="27.9951">US006 - As a Player, Upgrade a Station with a Building</text><rect fill="none" height="447.7969" style="stroke:#000000;stroke-width:1.5;" width="604.6055" x="10" y="281.2578"/><rect fill="none" height="77.3984" style="stroke:#000000;stroke-width:1.5;" width="584.6055" x="20" y="421.9219"/><rect fill="none" height="46.2656" style="stroke:#000000;stroke-width:1.5;" width="564.6055" x="30" y="446.0547"/><rect fill="none" height="77.3984" style="stroke:#000000;stroke-width:1.5;" width="584.6055" x="20" y="513.3203"/><rect fill="none" height="46.2656" style="stroke:#000000;stroke-width:1.5;" width="564.6055" x="30" y="537.4531"/><g><title>Player</title><rect fill="#000000" fill-opacity="0.00000" height="656.5938" width="8" x="60.7827" y="118.5938"/><line style="stroke:#181818;stroke-width:0.5;stroke-dasharray:5.0,5.0;" x1="64" x2="64" y1="118.5938" y2="775.1875"/></g><g><title>System</title><rect fill="#000000" fill-opacity="0.00000" height="656.5938" width="8" x="547.5024" y="118.5938"/><line style="stroke:#181818;stroke-width:0.5;stroke-dasharray:5.0,5.0;" x1="551.3994" x2="551.3994" y1="118.5938" y2="775.1875"/></g><g class="participant participant-head" data-participant="Player"><text fill="#000000" font-family="sans-serif" font-size="14" lengthAdjust="spacing" textLength="43.5654" x="40" y="115.292">Player</text><ellipse cx="64.7827" cy="50.7969" fill="#E2E2F0" rx="8" ry="8" style="stroke:#181818;stroke-width:0.5;"/><path d="M64.7827,58.7969 L64.7827,85.7969 M51.7827,66.7969 L77.7827,66.7969 M64.7827,85.7969 L51.7827,100.7969 M64.7827,85.7969 L77.7827,100.7969" fill="none" style="stroke:#181818;stroke-width:0.5;"/></g><g class="participant participant-tail" data-participant="Player"><text fill="#000000" font-family="sans-serif" font-size="14" lengthAdjust="spacing" textLength="43.5654" x="40" y="787.1826">Player</text><ellipse cx="64.7827" cy="798.9844" fill="#E2E2F0" rx="8" ry="8" style="stroke:#181818;stroke-width:0.5;"/><path d="M64.7827,806.9844 L64.7827,833.9844 M51.7827,814.9844 L77.7827,814.9844 M64.7827,833.9844 L51.7827,848.9844 M64.7827,833.9844 L77.7827,848.9844" fill="none" style="stroke:#181818;stroke-width:0.5;"/></g><g class="participant participant-head" data-participant="System"><rect fill="#E2E2F0" height="30.2969" rx="2.5" ry="2.5" style="stroke:#181818;stroke-width:0.5;" width="66.2061" x="518.3994" y="87.2969"/><text fill="#000000" font-family="sans-serif" font-size="14" lengthAdjust="spacing" textLength="52.2061" x="525.3994" y="107.292">System</text></g><g class="participant participant-tail" data-participant="System"><rect fill="#E2E2F0" height="30.2969" rx="2.5" ry="2.5" style="stroke:#181818;stroke-width:0.5;" width="66.2061" x="518.3994" y="774.1875"/><text fill="#000000" font-family="sans-serif" font-size="14" lengthAdjust="spacing" textLength="52.2061" x="525.3994" y="794.1826">System</text></g><g class="message" data-participant-1="Player" data-participant-2="System"><polygon fill="#181818" points="539.5024,145.7266,549.5024,149.7266,539.5024,153.7266,543.5024,149.7266" style="stroke:#181818;stroke-width:1;"/><line style="stroke:#181818;stroke-width:1;" x1="64.7827" x2="545.5024" y1="149.7266" y2="149.7266"/><text fill="#000000" font-family="sans-serif" font-size="13" font-weight="bold" lengthAdjust="spacing" textLength="9.0454" x="71.7827" y="144.6606">1</text><text fill="#000000" font-family="sans-serif" font-size="13" lengthAdjust="spacing" textLength="183.4663" x="84.8281" y="144.6606">Selects to upgrade a station</text></g><g class="message" data-participant-1="System" data-participant-2="Player"><polygon fill="#181818" points="75.7827,174.8594,65.7827,178.8594,75.7827,182.8594,71.7827,178.8594" style="stroke:#181818;stroke-width:1;"/><line style="stroke:#181818;stroke-width:1;stroke-dasharray:2.0,2.0;" x1="69.7827" x2="550.5024" y1="178.8594" y2="178.8594"/><text fill="#000000" font-family="sans-serif" font-size="13" font-weight="bold" lengthAdjust="spacing" textLength="9.0454" x="81.7827" y="173.7935">2</text><text fill="#000000" font-family="sans-serif" font-size="13" lengthAdjust="spacing" textLength="103.3843" x="94.8281" y="173.7935">Displays the list</text></g><g class="message" data-participant-1="Player" data-participant-2="System"><polygon fill="#181818" points="539.5024,203.9922,549.5024,207.9922,539.5024,211.9922,543.5024,207.9922" style="stroke:#181818;stroke-width:1;"/><line style="stroke:#181818;stroke-width:1;" x1="64.7827" x2="545.5024" y1="207.9922" y2="207.9922"/><text fill="#000000" font-family="sans-serif" font-size="13" font-weight="bold" lengthAdjust="spacing" textLength="9.0454" x="71.7827" y="202.9263">3</text><text fill="#000000" font-family="sans-serif" font-size="13" lengthAdjust="spacing" textLength="183.4663" x="84.8281" y="202.9263">Selects a station to upgrade</text></g><g class="message" data-participant-1="System" data-participant-2="Player"><polygon fill="#181818" points="75.7827,233.125,65.7827,237.125,75.7827,241.125,71.7827,237.125" style="stroke:#181818;stroke-width:1;"/><line style="stroke:#181818;stroke-width:1;stroke-dasharray:2.0,2.0;" x1="69.7827" x2="550.5024" y1="237.125" y2="237.125"/><text fill="#000000" font-family="sans-serif" font-size="13" font-weight="bold" lengthAdjust="spacing" textLength="9.0454" x="81.7827" y="232.0591">4</text><text fill="#000000" font-family="sans-serif" font-size="13" lengthAdjust="spacing" textLength="388.2798" x="94.8281" y="232.0591">Displays available upgradeTypes(buildings/stationUpgrade)</text></g><g class="message" data-participant-1="Player" data-participant-2="System"><polygon fill="#181818" points="539.5024,262.2578,549.5024,266.2578,539.5024,270.2578,543.5024,266.2578" style="stroke:#181818;stroke-width:1;"/><line style="stroke:#181818;stroke-width:1;" x1="64.7827" x2="545.5024" y1="266.2578" y2="266.2578"/><text fill="#000000" font-family="sans-serif" font-size="13" font-weight="bold" lengthAdjust="spacing" textLength="9.0454" x="71.7827" y="261.1919">5</text><text fill="#000000" font-family="sans-serif" font-size="13" lengthAdjust="spacing" textLength="158.8247" x="84.8281" y="261.1919">Selects an upgrade type</text></g><path d="M10,281.2578 L74.4429,281.2578 L74.4429,288.3906 L64.4429,298.3906 L10,298.3906 L10,281.2578" fill="#EEEEEE" style="stroke:#000000;stroke-width:1.5;"/><rect fill="none" height="447.7969" style="stroke:#000000;stroke-width:1.5;" width="604.6055" x="10" y="281.2578"/><text fill="#000000" font-family="sans-serif" font-size="13" font-weight="bold" lengthAdjust="spacing" textLength="19.4429" x="25" y="294.3247">alt</text><text fill="#000000" font-family="sans-serif" font-size="11" font-weight="bold" lengthAdjust="spacing" textLength="148.7041" x="89.4429" y="293.4683">[Upgrade with Building]</text><g class="message" data-participant-1="System" data-participant-2="Player"><polygon fill="#181818" points="75.7827,315.5234,65.7827,319.5234,75.7827,323.5234,71.7827,319.5234" style="stroke:#181818;stroke-width:1;"/><line style="stroke:#181818;stroke-width:1;stroke-dasharray:2.0,2.0;" x1="69.7827" x2="550.5024" y1="319.5234" y2="319.5234"/><text fill="#000000" font-family="sans-serif" font-size="13" font-weight="bold" lengthAdjust="spacing" textLength="9.0454" x="81.7827" y="314.4575">6</text><text fill="#000000" font-family="sans-serif" font-size="13" lengthAdjust="spacing" textLength="295.0962" x="94.8281" y="314.4575">Displays list of available buildings/equipment</text></g><g class="message" data-participant-1="Player" data-participant-2="System"><polygon fill="#181818" points="539.5024,344.6563,549.5024,348.6563,539.5024,352.6563,543.5024,348.6563" style="stroke:#181818;stroke-width:1;"/><line style="stroke:#181818;stroke-width:1;stroke-dasharray:2.0,2.0;" x1="64.7827" x2="545.5024" y1="348.6563" y2="348.6563"/><text fill="#000000" font-family="sans-serif" font-size="13" font-weight="bold" lengthAdjust="spacing" textLength="9.0454" x="71.7827" y="343.5903">7</text><text fill="#000000" font-family="sans-serif" font-size="13" lengthAdjust="spacing" textLength="238.6084" x="84.8281" y="343.5903">Chooses an upgrade(upgarde, price)</text></g><g class="message" data-participant-1="System" data-participant-2="Player"><polygon fill="#181818" points="75.7827,373.7891,65.7827,377.7891,75.7827,381.7891,71.7827,377.7891" style="stroke:#181818;stroke-width:1;"/><line style="stroke:#181818;stroke-width:1;stroke-dasharray:2.0,2.0;" x1="69.7827" x2="550.5024" y1="377.7891" y2="377.7891"/><text fill="#000000" font-family="sans-serif" font-size="13" font-weight="bold" lengthAdjust="spacing" textLength="9.0454" x="81.7827" y="372.7231">8</text><text fill="#000000" font-family="sans-serif" font-size="13" lengthAdjust="spacing" textLength="146.7007" x="94.8281" y="372.7231">Requests confirmation</text></g><g class="message" data-participant-1="Player" data-participant-2="System"><polygon fill="#181818" points="539.5024,402.9219,549.5024,406.9219,539.5024,410.9219,543.5024,406.9219" style="stroke:#181818;stroke-width:1;"/><line style="stroke:#181818;stroke-width:1;stroke-dasharray:2.0,2.0;" x1="64.7827" x2="545.5024" y1="406.9219" y2="406.9219"/><text fill="#000000" font-family="sans-serif" font-size="13" font-weight="bold" lengthAdjust="spacing" textLength="9.0454" x="71.7827" y="401.856">9</text><text fill="#000000" font-family="sans-serif" font-size="13" lengthAdjust="spacing" textLength="205.2578" x="84.8281" y="401.856">Confirms upgrade with Building</text></g><path d="M20,421.9219 L84.4429,421.9219 L84.4429,429.0547 L74.4429,439.0547 L20,439.0547 L20,421.9219" fill="#EEEEEE" style="stroke:#000000;stroke-width:1.5;"/><rect fill="none" height="77.3984" style="stroke:#000000;stroke-width:1.5;" width="584.6055" x="20" y="421.9219"/><text fill="#000000" font-family="sans-serif" font-size="13" font-weight="bold" lengthAdjust="spacing" textLength="19.4429" x="35" y="434.9888">alt</text><text fill="#000000" font-family="sans-serif" font-size="11" font-weight="bold" lengthAdjust="spacing" textLength="157.1045" x="99.4429" y="434.1323">[Upgrade is "Telephone"]</text><path d="M30,446.0547 L94.4429,446.0547 L94.4429,453.1875 L84.4429,463.1875 L30,463.1875 L30,446.0547" fill="#EEEEEE" style="stroke:#000000;stroke-width:1.5;"/><rect fill="none" height="46.2656" style="stroke:#000000;stroke-width:1.5;" width="564.6055" x="30" y="446.0547"/><text fill="#000000" font-family="sans-serif" font-size="13" font-weight="bold" lengthAdjust="spacing" textLength="19.4429" x="45" y="459.1216">alt</text><text fill="#000000" font-family="sans-serif" font-size="11" font-weight="bold" lengthAdjust="spacing" textLength="113.1851" x="109.4429" y="458.2651">[Telegraph exists]</text><g class="message" data-participant-1="System" data-participant-2="Player"><polygon fill="#181818" points="75.7827,480.3203,65.7827,484.3203,75.7827,488.3203,71.7827,484.3203" style="stroke:#181818;stroke-width:1;"/><line style="stroke:#181818;stroke-width:1;stroke-dasharray:2.0,2.0;" x1="69.7827" x2="550.5024" y1="484.3203" y2="484.3203"/><text fill="#000000" font-family="sans-serif" font-size="13" font-weight="bold" lengthAdjust="spacing" textLength="18.0908" x="81.7827" y="479.2544">10</text><text fill="#000000" font-family="sans-serif" font-size="13" lengthAdjust="spacing" textLength="364.1777" x="103.8735" y="479.2544">Informs that the telegraph was replaced by a telephone</text></g><path d="M20,513.3203 L84.4429,513.3203 L84.4429,520.4531 L74.4429,530.4531 L20,530.4531 L20,513.3203" fill="#EEEEEE" style="stroke:#000000;stroke-width:1.5;"/><rect fill="none" height="77.3984" style="stroke:#000000;stroke-width:1.5;" width="584.6055" x="20" y="513.3203"/><text fill="#000000" font-family="sans-serif" font-size="13" font-weight="bold" lengthAdjust="spacing" textLength="19.4429" x="35" y="526.3872">alt</text><text fill="#000000" font-family="sans-serif" font-size="11" font-weight="bold" lengthAdjust="spacing" textLength="177.1387" x="99.4429" y="525.5308">[Upgrade is "Large" version]</text><path d="M30,537.4531 L94.4429,537.4531 L94.4429,544.5859 L84.4429,554.5859 L30,554.5859 L30,537.4531" fill="#EEEEEE" style="stroke:#000000;stroke-width:1.5;"/><rect fill="none" height="46.2656" style="stroke:#000000;stroke-width:1.5;" width="564.6055" x="30" y="537.4531"/><text fill="#000000" font-family="sans-serif" font-size="13" font-weight="bold" lengthAdjust="spacing" textLength="19.4429" x="45" y="550.52">alt</text><text fill="#000000" font-family="sans-serif" font-size="11" font-weight="bold" lengthAdjust="spacing" textLength="134.5029" x="109.4429" y="549.6636">[Small version exists]</text><g class="message" data-participant-1="System" data-participant-2="Player"><polygon fill="#181818" points="75.7827,571.7188,65.7827,575.7188,75.7827,579.7188,71.7827,575.7188" style="stroke:#181818;stroke-width:1;"/><line style="stroke:#181818;stroke-width:1;stroke-dasharray:2.0,2.0;" x1="69.7827" x2="550.5024" y1="575.7188" y2="575.7188"/><text fill="#000000" font-family="sans-serif" font-size="13" font-weight="bold" lengthAdjust="spacing" textLength="18.0908" x="81.7827" y="570.6528">11</text><text fill="#000000" font-family="sans-serif" font-size="13" lengthAdjust="spacing" textLength="440.6289" x="103.8735" y="570.6528">Informs about the upgrade from Small to Large (e.g., Hotel or Caf&#233;)</text></g><line style="stroke:#000000;stroke-width:1;stroke-dasharray:2.0,2.0;" x1="10" x2="614.6055" y1="598.7188" y2="598.7188"/><text fill="#000000" font-family="sans-serif" font-size="11" font-weight="bold" lengthAdjust="spacing" textLength="145.605" x="15" y="608.9292">[Upgrade Station Type]</text><g class="message" data-participant-1="System" data-participant-2="Player"><polygon fill="#181818" points="75.7827,629.6563,65.7827,633.6563,75.7827,637.6563,71.7827,633.6563" style="stroke:#181818;stroke-width:1;"/><line style="stroke:#181818;stroke-width:1;stroke-dasharray:2.0,2.0;" x1="69.7827" x2="550.5024" y1="633.6563" y2="633.6563"/><text fill="#000000" font-family="sans-serif" font-size="13" font-weight="bold" lengthAdjust="spacing" textLength="18.0908" x="81.7827" y="628.5903">12</text><text fill="#000000" font-family="sans-serif" font-size="13" lengthAdjust="spacing" textLength="304.6431" x="103.8735" y="628.5903">Displays list of available station type upgrades</text></g><g class="message" data-participant-1="Player" data-participant-2="System"><polygon fill="#181818" points="539.5024,658.7891,549.5024,662.7891,539.5024,666.7891,543.5024,662.7891" style="stroke:#181818;stroke-width:1;"/><line style="stroke:#181818;stroke-width:1;stroke-dasharray:2.0,2.0;" x1="64.7827" x2="545.5024" y1="662.7891" y2="662.7891"/><text fill="#000000" font-family="sans-serif" font-size="13" font-weight="bold" lengthAdjust="spacing" textLength="18.0908" x="71.7827" y="657.7231">13</text><text fill="#000000" font-family="sans-serif" font-size="13" lengthAdjust="spacing" textLength="105.314" x="93.8735" y="657.7231">Selects upgrade</text></g><g class="message" data-participant-1="System" data-participant-2="Player"><polygon fill="#181818" points="75.7827,687.9219,65.7827,691.9219,75.7827,695.9219,71.7827,691.9219" style="stroke:#181818;stroke-width:1;"/><line style="stroke:#181818;stroke-width:1;stroke-dasharray:2.0,2.0;" x1="69.7827" x2="550.5024" y1="691.9219" y2="691.9219"/><text fill="#000000" font-family="sans-serif" font-size="13" font-weight="bold" lengthAdjust="spacing" textLength="18.0908" x="81.7827" y="686.856">14</text><text fill="#000000" font-family="sans-serif" font-size="13" lengthAdjust="spacing" textLength="146.7007" x="103.8735" y="686.856">Requests confirmation</text></g><g class="message" data-participant-1="Player" data-participant-2="System"><polygon fill="#181818" points="539.5024,717.0547,549.5024,721.0547,539.5024,725.0547,543.5024,721.0547" style="stroke:#181818;stroke-width:1;"/><line style="stroke:#181818;stroke-width:1;stroke-dasharray:2.0,2.0;" x1="64.7827" x2="545.5024" y1="721.0547" y2="721.0547"/><text fill="#000000" font-family="sans-serif" font-size="13" font-weight="bold" lengthAdjust="spacing" textLength="18.0908" x="71.7827" y="715.9888">15</text><text fill="#000000" font-family="sans-serif" font-size="13" lengthAdjust="spacing" textLength="198.7197" x="93.8735" y="715.9888">Confirms station type upgrade</text></g><g class="message" data-participant-1="System" data-participant-2="Player"><polygon fill="#181818" points="75.7827,753.1875,65.7827,757.1875,75.7827,761.1875,71.7827,757.1875" style="stroke:#181818;stroke-width:1;"/><line style="stroke:#181818;stroke-width:1;stroke-dasharray:2.0,2.0;" x1="69.7827" x2="550.5024" y1="757.1875" y2="757.1875"/><text fill="#000000" font-family="sans-serif" font-size="13" font-weight="bold" lengthAdjust="spacing" textLength="18.0908" x="81.7827" y="752.1216">16</text><text fill="#000000" font-family="sans-serif" font-size="13" lengthAdjust="spacing" textLength="172.231" x="103.8735" y="752.1216">Displays success message</text></g><!--SRC=[hLJDRfmm4BxxAKQSTgKboQc7gghKfeTKwg4goGCCC81LOrEFoNOVgS_H5-km60UQTAL8vG2B_Vdx6MQMlsixeCSUYWvhTzIsXGODay8nE3ls9NaLT3043yNDpHl8uGC3mbU39_87U1XQZpN9IX4mQ6VXg4Cdhnz7RMfXKmghu7mye4Ghw4eFQ0DanOa3zHaWm_nJgHcMluyBRw4WGrLW20x6fCMpLaI_o_C4_wHva4N1TmH6SxX0cNZMvA1c6EHoOZwwOiL7r0PBgKR4tvy6ubqPm_9rP8nbsGlT1NsRL8FGA3GXrVDSnLJ3vvQIeoaZk6RbxCaC_HZrq9EKUZ6nSd7RESUqTh6J9_gQ3Z1uNT7-1TblGaaitYjd6-txzMVOaC_Rd09kyy1ohIDhXknUIZDqpbBsX8cmQKk0GmVqKpBp1Z1Ti_RwitssZPjCX0x3kI52uZXAptcI4bPKGtcINWYBz8QORBr-L-jrzQyKNz2tbC4ZUPxAytUIeaTZbjtNfy7IZNESfRYDTtrabKu-gyEEhjgh0zmvoGKoVxVO_FwrlvHj6uxaFo25McPxwlRNDMEQC3cv-ENd3RECH4JyZyvxILbDoIxDDuzLHSpGomrR-WC0]--></g></svg>