<svg xmlns="http://www.w3.org/2000/svg" xmlns:xlink="http://www.w3.org/1999/xlink" contentStyleType="text/css" data-diagram-type="CLASS" height="1224px" preserveAspectRatio="none" style="width:781px;height:1224px;background:#FFFFFF;" version="1.1" viewBox="0 0 781 1224" width="781px" zoomAndPan="magnify"><title>US013 - Verify Possible Trip</title><defs/><g><g class="title" data-source-line="1"><text fill="#000000" font-family="sans-serif" font-size="14" font-weight="bold" lengthAdjust="spacing" textLength="220.165" x="273.8936" y="22.9951">US013 - Verify Possible Trip</text></g><!--class VerifyTrip--><g class="entity" data-entity="VerifyTrip" data-source-line="3" data-uid="ent0002" id="entity_VerifyTrip"><rect fill="#F1F1F1" height="406.5313" rx="2.5" ry="2.5" style="stroke:#181818;stroke-width:0.5;" width="767.9521" x="7" y="620.8269"/><ellipse cx="352.6592" cy="636.8269" fill="#ADD1B2" rx="11" ry="11" style="stroke:#181818;stroke-width:1;"/><path d="M355.6279,642.4675 Q355.0498,642.7644 354.4092,642.905 Q353.7686,643.0613 353.0654,643.0613 Q350.5654,643.0613 349.2373,641.4206 Q347.9248,639.7644 347.9248,636.6394 Q347.9248,633.5144 349.2373,631.8581 Q350.5654,630.2019 353.0654,630.2019 Q353.7686,630.2019 354.4092,630.3581 Q355.0654,630.5144 355.6279,630.8113 L355.6279,633.53 Q355.0029,632.9519 354.4092,632.6863 Q353.8154,632.405 353.1904,632.405 Q351.8467,632.405 351.1592,633.4831 Q350.4717,634.5456 350.4717,636.6394 Q350.4717,638.7331 351.1592,639.8113 Q351.8467,640.8738 353.1904,640.8738 Q353.8154,640.8738 354.4092,640.6081 Q355.0029,640.3269 355.6279,639.7488 L355.6279,642.4675 Z " fill="#000000"/><text fill="#000000" font-family="sans-serif" font-size="14" lengthAdjust="spacing" textLength="68.1338" x="373.1592" y="641.6736">VerifyTrip</text><line style="stroke:#181818;stroke-width:0.5;" x1="8" x2="773.9521" y1="652.8269" y2="652.8269"/><rect fill="none" height="6" style="stroke:#C82930;stroke-width:1;" width="6" x="15" y="663.4753"/><text fill="#000000" font-family="sans-serif" font-size="14" lengthAdjust="spacing" textLength="79.5088" x="27" y="669.822">DEPOT : int</text><rect fill="none" height="6" style="stroke:#C82930;stroke-width:1;" width="6" x="15" y="679.7722"/><text fill="#000000" font-family="sans-serif" font-size="14" lengthAdjust="spacing" textLength="93.0576" x="27" y="686.1189">STATION : int</text><rect fill="none" height="6" style="stroke:#C82930;stroke-width:1;" width="6" x="15" y="696.0691"/><text fill="#000000" font-family="sans-serif" font-size="14" lengthAdjust="spacing" textLength="103.0518" x="27" y="702.4157">TERMINAL : int</text><rect fill="none" height="6" style="stroke:#C82930;stroke-width:1;" width="6" x="15" y="712.3659"/><text fill="#000000" font-family="sans-serif" font-size="14" lengthAdjust="spacing" textLength="99.3193" x="27" y="718.7126">ELECTRIC : int</text><rect fill="none" height="6" style="stroke:#C82930;stroke-width:1;" width="6" x="15" y="728.6628"/><text fill="#000000" font-family="sans-serif" font-size="14" lengthAdjust="spacing" textLength="138.7695" x="27" y="735.0095">DEPOT_CHAR : char</text><rect fill="none" height="6" style="stroke:#C82930;stroke-width:1;" width="6" x="15" y="744.9597"/><text fill="#000000" font-family="sans-serif" font-size="14" lengthAdjust="spacing" textLength="152.3184" x="27" y="751.3064">STATION_CHAR : char</text><rect fill="none" height="6" style="stroke:#C82930;stroke-width:1;" width="6" x="15" y="761.2566"/><text fill="#000000" font-family="sans-serif" font-size="14" lengthAdjust="spacing" textLength="162.3125" x="27" y="767.6032">TERMINAL_CHAR : char</text><rect fill="none" height="6" style="stroke:#C82930;stroke-width:1;" width="6" x="15" y="777.5534"/><text fill="#000000" font-family="sans-serif" font-size="14" lengthAdjust="spacing" textLength="198.4541" x="27" y="783.9001">ignoreNormalRails : boolean</text><line style="stroke:#181818;stroke-width:0.5;" x1="8" x2="773.9521" y1="791.2019" y2="791.2019"/><rect fill="#F24D5C" height="6" style="stroke:#C82930;stroke-width:1;" width="6" x="15" y="801.8503"/><text fill="#000000" font-family="sans-serif" font-size="14" lengthAdjust="spacing" textLength="371.2393" x="27" y="808.197">getStationIndex(stations: String[], name: String) : int</text><rect fill="#F24D5C" height="6" style="stroke:#C82930;stroke-width:1;" width="6" x="15" y="818.1472"/><text fill="#000000" font-family="sans-serif" font-size="14" lengthAdjust="spacing" textLength="396.6006" x="27" y="824.4939">convertStationTypesToChars(stationTypes: int[]) : char[]</text><rect fill="#F24D5C" height="6" style="stroke:#C82930;stroke-width:1;" width="6" x="15" y="834.4441"/><text fill="#000000" font-family="sans-serif" font-size="14" lengthAdjust="spacing" textLength="475.6309" x="27" y="840.7907">multiplyBooleanMatrices(a: boolean[][], b: boolean[][]) : boolean[][]</text><rect fill="#F24D5C" height="6" style="stroke:#C82930;stroke-width:1;" width="6" x="15" y="850.7409"/><text fill="#000000" font-family="sans-serif" font-size="14" lengthAdjust="spacing" textLength="536.7646" x="27" y="857.0876">addBooleanMatrices(matrix1: boolean[][], matrix2: boolean[][]) : boolean[][]</text><rect fill="#F24D5C" height="6" style="stroke:#C82930;stroke-width:1;" width="6" x="15" y="867.0378"/><text fill="#000000" font-family="sans-serif" font-size="14" lengthAdjust="spacing" textLength="560.3623" x="27" y="873.3845">initializeAdjacencyMatrix(stations: String[], connections: String[][]) : boolean[][]</text><rect fill="#F24D5C" height="6" style="stroke:#C82930;stroke-width:1;" width="6" x="15" y="883.3347"/><text fill="#000000" font-family="sans-serif" font-size="14" lengthAdjust="spacing" textLength="630.5469" x="27" y="889.6814">connectionToStation(stationName: String, stations: String[], connections: String[][]) : int[]</text><ellipse cx="18" cy="902.6316" fill="#84BE84" rx="3" ry="3" style="stroke:#038048;stroke-width:1;"/><text fill="#000000" font-family="sans-serif" font-size="14" lengthAdjust="spacing" textLength="293.542" x="27" y="905.9782">isTransitive(matrix: boolean[][]) : boolean</text><ellipse cx="18" cy="918.9284" fill="#84BE84" rx="3" ry="3" style="stroke:#038048;stroke-width:1;"/><text fill="#000000" font-family="sans-serif" font-size="14" lengthAdjust="spacing" textLength="344.6953" x="27" y="922.2751">areAllTripsPossible(matrix: boolean[][]) : boolean</text><ellipse cx="18" cy="935.2253" fill="#84BE84" rx="3" ry="3" style="stroke:#038048;stroke-width:1;"/><text fill="#000000" font-family="sans-serif" font-size="14" lengthAdjust="spacing" textLength="350.3828" x="27" y="938.572">isOfType(type: char, stationTypes: int[]) : boolean</text><ellipse cx="18" cy="951.5222" fill="#84BE84" rx="3" ry="3" style="stroke:#038048;stroke-width:1;"/><text fill="#000000" font-family="sans-serif" font-size="14" lengthAdjust="spacing" textLength="418.6055" x="27" y="954.8689">multiplyNTimes(adjacentMatrix: boolean[][], size: int) : void</text><ellipse cx="18" cy="967.8191" fill="#84BE84" rx="3" ry="3" style="stroke:#038048;stroke-width:1;"/><text fill="#000000" font-family="sans-serif" font-size="14" lengthAdjust="spacing" textLength="452.3066" x="27" y="971.1657">verifyPossibilityOfAllStations(lineFile: File, stations: String[]) : int</text><ellipse cx="18" cy="984.1159" fill="#84BE84" rx="3" ry="3" style="stroke:#038048;stroke-width:1;"/><text fill="#000000" font-family="sans-serif" font-size="14" lengthAdjust="spacing" textLength="586.9199" x="27" y="987.4626">areAllOfTypeOn(matrix: boolean[][], stations: String[], stationTypes: int[]) : boolean</text><ellipse cx="18" cy="1000.4128" fill="#84BE84" rx="3" ry="3" style="stroke:#038048;stroke-width:1;"/><text fill="#000000" font-family="sans-serif" font-size="14" lengthAdjust="spacing" textLength="643.6104" x="27" y="1003.7595">verifyTripStationType(lineFile: File, stationTypes: int[], stations: String[], trainType: int) : int</text><ellipse cx="18" cy="1016.7097" fill="#84BE84" rx="3" ry="3" style="stroke:#038048;stroke-width:1;"/><text fill="#000000" font-family="sans-serif" font-size="14" lengthAdjust="spacing" textLength="741.9521" x="27" y="1020.0564">verifyTripTwoStations(lineFile: File, station1: String, station2: String, stations: String[], trainType: int) : int</text></g><!--class VerifyTripController--><g class="entity" data-entity="VerifyTripController" data-source-line="29" data-uid="ent0003" id="entity_VerifyTripController"><rect fill="#F1F1F1" height="178.375" rx="2.5" ry="2.5" style="stroke:#181818;stroke-width:0.5;" width="650.1895" x="65.88" y="381.4569"/><ellipse cx="318.0714" cy="397.4569" fill="#ADD1B2" rx="11" ry="11" style="stroke:#181818;stroke-width:1;"/><path d="M321.0402,403.0975 Q320.462,403.3944 319.8214,403.535 Q319.1808,403.6912 318.4777,403.6912 Q315.9777,403.6912 314.6495,402.0506 Q313.337,400.3944 313.337,397.2694 Q313.337,394.1444 314.6495,392.4881 Q315.9777,390.8319 318.4777,390.8319 Q319.1808,390.8319 319.8214,390.9881 Q320.4777,391.1444 321.0402,391.4412 L321.0402,394.16 Q320.4152,393.5819 319.8214,393.3162 Q319.2277,393.035 318.6027,393.035 Q317.2589,393.035 316.5714,394.1131 Q315.8839,395.1756 315.8839,397.2694 Q315.8839,399.3631 316.5714,400.4412 Q317.2589,401.5037 318.6027,401.5037 Q319.2277,401.5037 319.8214,401.2381 Q320.4152,400.9569 321.0402,400.3787 L321.0402,403.0975 Z " fill="#000000"/><text fill="#000000" font-family="sans-serif" font-size="14" lengthAdjust="spacing" textLength="137.3066" x="338.5714" y="402.3036">VerifyTripController</text><line style="stroke:#181818;stroke-width:0.5;" x1="66.88" x2="715.0695" y1="413.4569" y2="413.4569"/><rect fill="none" height="6" style="stroke:#C82930;stroke-width:1;" width="6" x="73.88" y="424.1053"/><text fill="#000000" font-family="sans-serif" font-size="14" lengthAdjust="spacing" textLength="110.6875" x="85.88" y="430.452">stationFile : File</text><rect fill="none" height="6" style="stroke:#C82930;stroke-width:1;" width="6" x="73.88" y="440.4022"/><text fill="#000000" font-family="sans-serif" font-size="14" lengthAdjust="spacing" textLength="87.7734" x="85.88" y="446.7489">lineFile : File</text><line style="stroke:#181818;stroke-width:0.5;" x1="66.88" x2="715.0695" y1="454.0506" y2="454.0506"/><ellipse cx="76.88" cy="467.6991" fill="#84BE84" rx="3" ry="3" style="stroke:#038048;stroke-width:1;"/><text fill="#000000" font-family="sans-serif" font-size="14" lengthAdjust="spacing" textLength="157.3018" x="85.88" y="471.0457">getStations() : String[]</text><ellipse cx="76.88" cy="483.9959" fill="#84BE84" rx="3" ry="3" style="stroke:#038048;stroke-width:1;"/><text fill="#000000" font-family="sans-serif" font-size="14" lengthAdjust="spacing" textLength="259.1094" x="85.88" y="487.3426">getLineFile(whichScenario : int) : File</text><ellipse cx="76.88" cy="500.2928" fill="#84BE84" rx="3" ry="3" style="stroke:#038048;stroke-width:1;"/><text fill="#000000" font-family="sans-serif" font-size="14" lengthAdjust="spacing" textLength="279.7061" x="85.88" y="503.6395">getStationFile(whichScenario : int) : File</text><ellipse cx="76.88" cy="516.5897" fill="#84BE84" rx="3" ry="3" style="stroke:#038048;stroke-width:1;"/><text fill="#000000" font-family="sans-serif" font-size="14" lengthAdjust="spacing" textLength="334.585" x="85.88" y="519.9364">getStationsOfType(typesChar : char[]) : String[]</text><ellipse cx="76.88" cy="532.8866" fill="#84BE84" rx="3" ry="3" style="stroke:#038048;stroke-width:1;"/><text fill="#000000" font-family="sans-serif" font-size="14" lengthAdjust="spacing" textLength="528.6914" x="85.88" y="536.2332">runStationTypes(stationTypes : int[], stations : String[], trainType : int) : int</text><ellipse cx="76.88" cy="549.1834" fill="#84BE84" rx="3" ry="3" style="stroke:#038048;stroke-width:1;"/><text fill="#000000" font-family="sans-serif" font-size="14" lengthAdjust="spacing" textLength="624.1895" x="85.88" y="552.5301">runTwoStations(station1 : String, station2 : String, stations : String[], trainType : int) : int</text></g><!--class readCsvs--><g class="entity" data-entity="readCsvs" data-source-line="41" data-uid="ent0004" id="entity_readCsvs"><rect fill="#F1F1F1" height="113.1875" rx="2.5" ry="2.5" style="stroke:#181818;stroke-width:0.5;" width="381.7969" x="200.08" y="1104.3569"/><ellipse cx="354.4867" cy="1120.3569" fill="#ADD1B2" rx="11" ry="11" style="stroke:#181818;stroke-width:1;"/><path d="M357.4555,1125.9975 Q356.8774,1126.2944 356.2367,1126.435 Q355.5961,1126.5913 354.893,1126.5913 Q352.393,1126.5913 351.0649,1124.9506 Q349.7524,1123.2944 349.7524,1120.1694 Q349.7524,1117.0444 351.0649,1115.3881 Q352.393,1113.7319 354.893,1113.7319 Q355.5961,1113.7319 356.2367,1113.8881 Q356.893,1114.0444 357.4555,1114.3413 L357.4555,1117.06 Q356.8305,1116.4819 356.2367,1116.2163 Q355.643,1115.935 355.018,1115.935 Q353.6742,1115.935 352.9867,1117.0131 Q352.2992,1118.0756 352.2992,1120.1694 Q352.2992,1122.2631 352.9867,1123.3413 Q353.6742,1124.4038 355.018,1124.4038 Q355.643,1124.4038 356.2367,1124.1381 Q356.8305,1123.8569 357.4555,1123.2788 L357.4555,1125.9975 Z " fill="#000000"/><text fill="#000000" font-family="sans-serif" font-size="14" lengthAdjust="spacing" textLength="64.4834" x="374.9867" y="1125.2036">readCsvs</text><line style="stroke:#181818;stroke-width:0.5;" x1="201.08" x2="580.8769" y1="1136.3569" y2="1136.3569"/><line style="stroke:#181818;stroke-width:0.5;" x1="201.08" x2="580.8769" y1="1144.3569" y2="1144.3569"/><ellipse cx="211.08" cy="1158.0053" fill="#84BE84" rx="3" ry="3" style="stroke:#038048;stroke-width:1;"/><text fill="#000000" font-family="sans-serif" font-size="14" lengthAdjust="spacing" textLength="244.3232" x="220.08" y="1161.352">readCSVTo2DArray(file) : String[][]</text><ellipse cx="211.08" cy="1174.3022" fill="#84BE84" rx="3" ry="3" style="stroke:#038048;stroke-width:1;"/><text fill="#000000" font-family="sans-serif" font-size="14" lengthAdjust="spacing" textLength="355.7969" x="220.08" y="1177.6489">readCSVTo2DArrayForTypes(file, types) : String[][]</text><ellipse cx="211.08" cy="1190.5991" fill="#84BE84" rx="3" ry="3" style="stroke:#038048;stroke-width:1;"/><text fill="#000000" font-family="sans-serif" font-size="14" lengthAdjust="spacing" textLength="247.2832" x="220.08" y="1193.9457">getAllStations(stationFile) : String[]</text><ellipse cx="211.08" cy="1206.8959" fill="#84BE84" rx="3" ry="3" style="stroke:#038048;stroke-width:1;"/><text fill="#000000" font-family="sans-serif" font-size="14" lengthAdjust="spacing" textLength="352.3311" x="220.08" y="1210.2426">getAllStationsOfTypes(stationFile, types) : String[]</text></g><!--class VerifyTripUi--><g class="entity" data-entity="VerifyTripUi" data-source-line="48" data-uid="ent0005" id="entity_VerifyTripUi"><rect fill="#F1F1F1" height="276.1563" rx="2.5" ry="2.5" style="stroke:#181818;stroke-width:0.5;" width="418.6221" x="181.67" y="44.2969"/><ellipse cx="345.5958" cy="60.2969" fill="#ADD1B2" rx="11" ry="11" style="stroke:#181818;stroke-width:1;"/><path d="M348.5645,65.9375 Q347.9864,66.2344 347.3458,66.375 Q346.7052,66.5313 346.002,66.5313 Q343.502,66.5313 342.1739,64.8906 Q340.8614,63.2344 340.8614,60.1094 Q340.8614,56.9844 342.1739,55.3281 Q343.502,53.6719 346.002,53.6719 Q346.7052,53.6719 347.3458,53.8281 Q348.002,53.9844 348.5645,54.2813 L348.5645,57 Q347.9395,56.4219 347.3458,56.1563 Q346.752,55.875 346.127,55.875 Q344.7833,55.875 344.0958,56.9531 Q343.4083,58.0156 343.4083,60.1094 Q343.4083,62.2031 344.0958,63.2813 Q344.7833,64.3438 346.127,64.3438 Q346.752,64.3438 347.3458,64.0781 Q347.9395,63.7969 348.5645,63.2188 L348.5645,65.9375 Z " fill="#000000"/><text fill="#000000" font-family="sans-serif" font-size="14" lengthAdjust="spacing" textLength="82.2705" x="366.0958" y="65.1436">VerifyTripUi</text><line style="stroke:#181818;stroke-width:0.5;" x1="182.67" x2="599.2921" y1="76.2969" y2="76.2969"/><rect fill="none" height="6" style="stroke:#C82930;stroke-width:1;" width="6" x="189.67" y="86.9453"/><text fill="#000000" font-family="sans-serif" font-size="14" lengthAdjust="spacing" textLength="114.7412" x="201.67" y="93.292">typeOfTrain : int</text><rect fill="none" height="6" style="stroke:#C82930;stroke-width:1;" width="6" x="189.67" y="103.2422"/><text fill="#000000" font-family="sans-serif" font-size="14" lengthAdjust="spacing" textLength="121.7959" x="201.67" y="109.5889">stations : String[]</text><rect fill="none" height="6" style="stroke:#C82930;stroke-width:1;" width="6" x="189.67" y="119.5391"/><text fill="#000000" font-family="sans-serif" font-size="14" lengthAdjust="spacing" textLength="131.5576" x="201.67" y="125.8857">depStation : String</text><rect fill="none" height="6" style="stroke:#C82930;stroke-width:1;" width="6" x="189.67" y="135.8359"/><text fill="#000000" font-family="sans-serif" font-size="14" lengthAdjust="spacing" textLength="132.6035" x="201.67" y="142.1826">stationTypes : int[]</text><rect fill="none" height="6" style="stroke:#C82930;stroke-width:1;" width="6" x="189.67" y="152.1328"/><text fill="#000000" font-family="sans-serif" font-size="14" lengthAdjust="spacing" textLength="129.1514" x="201.67" y="158.4795">arriStation : String</text><rect fill="none" height="6" style="stroke:#C82930;stroke-width:1;" width="6" x="189.67" y="168.4297"/><text fill="#000000" font-family="sans-serif" font-size="14" lengthAdjust="spacing" textLength="166.4072" x="201.67" y="174.7764">isTwoStations : boolean</text><line style="stroke:#181818;stroke-width:0.5;" x1="182.67" x2="599.2921" y1="182.0781" y2="182.0781"/><ellipse cx="192.67" cy="195.7266" fill="#84BE84" rx="3" ry="3" style="stroke:#038048;stroke-width:1;"/><text fill="#000000" font-family="sans-serif" font-size="14" lengthAdjust="spacing" textLength="77.6699" x="201.67" y="199.0732">run() : void</text><rect fill="#F24D5C" height="6" style="stroke:#C82930;stroke-width:1;" width="6" x="189.67" y="209.0234"/><text fill="#000000" font-family="sans-serif" font-size="14" lengthAdjust="spacing" textLength="169.8184" x="201.67" y="215.3701">getWhichScenario() : int</text><rect fill="#F24D5C" height="6" style="stroke:#C82930;stroke-width:1;" width="6" x="189.67" y="225.3203"/><text fill="#000000" font-family="sans-serif" font-size="14" lengthAdjust="spacing" textLength="147.1436" x="201.67" y="231.667">getTrainType() : void</text><rect fill="#F24D5C" height="6" style="stroke:#C82930;stroke-width:1;" width="6" x="189.67" y="241.6172"/><text fill="#000000" font-family="sans-serif" font-size="14" lengthAdjust="spacing" textLength="152.8311" x="201.67" y="247.9639">selectStations() : void</text><rect fill="#F24D5C" height="6" style="stroke:#C82930;stroke-width:1;" width="6" x="189.67" y="257.9141"/><text fill="#000000" font-family="sans-serif" font-size="14" lengthAdjust="spacing" textLength="187.168" x="201.67" y="264.2607">selectStationTypes() : void</text><rect fill="#F24D5C" height="6" style="stroke:#C82930;stroke-width:1;" width="6" x="189.67" y="274.2109"/><text fill="#000000" font-family="sans-serif" font-size="14" lengthAdjust="spacing" textLength="235.1084" x="201.67" y="280.5576">getStationsOrStationType() : void</text><rect fill="#F24D5C" height="6" style="stroke:#C82930;stroke-width:1;" width="6" x="189.67" y="290.5078"/><text fill="#000000" font-family="sans-serif" font-size="14" lengthAdjust="spacing" textLength="329.9912" x="201.67" y="296.8545">getWantedStationsTypes(typesInt : int[]) : void</text><rect fill="#F24D5C" height="6" style="stroke:#C82930;stroke-width:1;" width="6" x="189.67" y="306.8047"/><text fill="#000000" font-family="sans-serif" font-size="14" lengthAdjust="spacing" textLength="392.6221" x="201.67" y="313.1514">isValidInput(input : String, max : int, min : int) : boolean</text></g><!--link VerifyTripUi to VerifyTripController--><g class="link" data-entity-1="VerifyTripUi" data-entity-2="VerifyTripController" data-source-line="66" data-uid="lnk6" id="link_VerifyTripUi_VerifyTripController"><path codeLine="66" d="M390.98,320.6369 C390.98,341.1569 390.98,355.8369 390.98,374.9869" fill="none" id="VerifyTripUi-to-VerifyTripController" style="stroke:#181818;stroke-width:1;"/><polygon fill="#181818" points="390.98,380.9869,394.98,371.9869,390.98,375.9869,386.98,371.9869,390.98,380.9869" style="stroke:#181818;stroke-width:1;"/></g><!--link VerifyTripController to VerifyTrip--><g class="link" data-entity-1="VerifyTripController" data-entity-2="VerifyTrip" data-source-line="67" data-uid="lnk7" id="link_VerifyTripController_VerifyTrip"><path codeLine="67" d="M390.98,560.3269 C390.98,579.0369 390.98,593.5069 390.98,614.4969" fill="none" id="VerifyTripController-to-VerifyTrip" style="stroke:#181818;stroke-width:1;"/><polygon fill="#181818" points="390.98,620.4969,394.98,611.4969,390.98,615.4969,386.98,611.4969,390.98,620.4969" style="stroke:#181818;stroke-width:1;"/></g><!--link VerifyTrip to readCsvs--><g class="link" data-entity-1="VerifyTrip" data-entity-2="readCsvs" data-source-line="68" data-uid="lnk8" id="link_VerifyTrip_readCsvs"><path codeLine="68" d="M390.98,1027.6069 C390.98,1055.5669 390.98,1076.1569 390.98,1098.0769" fill="none" id="VerifyTrip-to-readCsvs" style="stroke:#181818;stroke-width:1;"/><polygon fill="#181818" points="390.98,1104.0769,394.98,1095.0769,390.98,1099.0769,386.98,1095.0769,390.98,1104.0769" style="stroke:#181818;stroke-width:1;"/><text fill="#000000" font-family="sans-serif" font-size="13" lengthAdjust="spacing" textLength="29.7832" x="391.98" y="1070.4238">uses</text></g><!--SRC=[bLLHJzim47xFh_1Z45GQx8s7ILqfMYLeKHlWeQecaxZWoRKhsorqQFzzPpjsdCIiuoMAptVVdR_lVDPKCuBk5r_Elw81UY2IhW_eJYX5dy1UIBhDif9XfUezOtdF1kXgV3Shq2MYNCDgKGoBoMmQriLuVZkP3c-2ONmp7XNpoIWORFpFqO_X74pb2vODIiVgiJfc-io595CXDvZDCMKAjfw4O0Jp3BQVYLvehAdW4rwHjrovXRf42oqfVrwkpX376-BN9w6oKl0zaJwwE6o9AiG8aYeFOctMVRawgIjQhY1qisEQRjdXkwlZ5WDqILIEGsdBbKdyr5gVeDOIS71LTI4svkVjl0Fah1T7u2Ydcc96VvDXzGkNX9S7Yvjc1SxFITanfs0RnqBKR7d0QSJi6Vfa5ijhTegeAYJc2chVa_hy7nqKlB4aGyPCUohVliU3g9gjZPgvXeyJCfJRLRc9yZ9F2xenwZfIzMq_6u01wnR4GEm5hI1-Rs-Igv8ogW-pDPHUKwXoHZcvfWp2p3T5dszMVsftY1bF7JXD_z4pxiDjZox2HwN5CEbyMc9gtG8NhlucJV4gZZ5mtckfYtytMJhhd_v46mckfM2CI6I6MurbaYDN0nXzKTu2rJT3HkK6tMTsMpTrGFxwGikN1RG8bbIWK8j5YK4-vHnthZBZAGoYJYLon-DPrXfYg2SQIlA7Eh81PgoNrmVr1UgR_Yj5q4WIN8tKNhrd29swrUAX41TNGodn8Ly3BV5vuSGflsiXtU7NjfyiPuamO3U-Y54Rj3ZjkpejMX69BAdEkwUsuumlW1WomaEKu0ki5V4tCjWRtvQevY6HaYQyOR8swiNlfbKs3wFAFgEFSKFcpJi9MuKNBmvHXC5WRzsBr8uZh9qgq2dZeTCf1tDDAk_fK2pJ4wvHDChg2AeUuEMh9doxqpartwWZD_ZDXS2l9puUWw1NIwd1u5joQ6J9ITBsZdpiZcziIBTJHFq5]--></g></svg>