<svg xmlns="http://www.w3.org/2000/svg" xmlns:xlink="http://www.w3.org/1999/xlink" contentStyleType="text/css" data-diagram-type="SEQUENCE" height="735px" preserveAspectRatio="none" style="width:591px;height:735px;background:#FFFFFF;" version="1.1" viewBox="0 0 591 735" width="591px" zoomAndPan="magnify"><title>US013 Verify if a specific train can travel between two stations (SSD)</title><defs/><g><text fill="#000000" font-family="sans-serif" font-size="14" font-weight="bold" lengthAdjust="spacing" textLength="549.8076" x="22.3679" y="27.9951">US013 Verify if a specific train can travel between two stations (SSD)</text><g><title>Player</title><rect fill="#FFFFFF" height="508.3906" style="stroke:#181818;stroke-width:1;" width="10" x="49.7827" y="128.5938"/></g><g><title>VerifyTripUI</title><rect fill="#FFFFFF" height="58.2656" style="stroke:#181818;stroke-width:1;" width="10" x="512.2886" y="149.7266"/></g><g><title>VerifyTripUI</title><rect fill="#FFFFFF" height="73.3984" style="stroke:#181818;stroke-width:1;" width="10" x="512.2886" y="237.125"/></g><g><title>VerifyTripUI</title><rect fill="#FFFFFF" height="297.3281" style="stroke:#181818;stroke-width:1;" width="10" x="512.2886" y="339.6563"/></g><rect fill="none" height="75.3984" style="stroke:#000000;stroke-width:1.5;" width="555.5435" x="20" y="354.6563"/><rect fill="none" height="164.7969" style="stroke:#000000;stroke-width:1.5;" width="575.5435" x="10" y="444.0547"/><rect fill="none" height="75.3984" style="stroke:#000000;stroke-width:1.5;" width="555.5435" x="20" y="526.4531"/><g><title>Player</title><rect fill="#000000" fill-opacity="0.00000" height="536.3906" width="8" x="50.7827" y="118.5938"/><line style="stroke:#181818;stroke-width:0.5;stroke-dasharray:5.0,5.0;" x1="54" x2="54" y1="118.5938" y2="654.9844"/></g><g><title>VerifyTripUI</title><rect fill="#000000" fill-opacity="0.00000" height="536.3906" width="8" x="513.2886" y="118.5938"/><line style="stroke:#181818;stroke-width:0.5;stroke-dasharray:5.0,5.0;" x1="517.0337" x2="517.0337" y1="118.5938" y2="654.9844"/></g><g class="participant participant-head" data-participant="Player"><text fill="#000000" font-family="sans-serif" font-size="14" lengthAdjust="spacing" textLength="43.5654" x="30" y="115.292">Player</text><ellipse cx="54.7827" cy="50.7969" fill="#E2E2F0" rx="8" ry="8" style="stroke:#181818;stroke-width:0.5;"/><path d="M54.7827,58.7969 L54.7827,85.7969 M41.7827,66.7969 L67.7827,66.7969 M54.7827,85.7969 L41.7827,100.7969 M54.7827,85.7969 L67.7827,100.7969" fill="none" style="stroke:#181818;stroke-width:0.5;"/></g><g class="participant participant-tail" data-participant="Player"><text fill="#000000" font-family="sans-serif" font-size="14" lengthAdjust="spacing" textLength="43.5654" x="30" y="666.9795">Player</text><ellipse cx="54.7827" cy="678.7813" fill="#E2E2F0" rx="8" ry="8" style="stroke:#181818;stroke-width:0.5;"/><path d="M54.7827,686.7813 L54.7827,713.7813 M41.7827,694.7813 L67.7827,694.7813 M54.7827,713.7813 L41.7827,728.7813 M54.7827,713.7813 L67.7827,728.7813" fill="none" style="stroke:#181818;stroke-width:0.5;"/></g><g class="participant participant-head" data-participant="VerifyTripUI"><rect fill="#E2E2F0" height="30.2969" rx="2.5" ry="2.5" style="stroke:#181818;stroke-width:0.5;" width="96.5098" x="469.0337" y="87.2969"/><text fill="#000000" font-family="sans-serif" font-size="14" lengthAdjust="spacing" textLength="82.5098" x="476.0337" y="107.292">VerifyTripUI</text></g><g class="participant participant-tail" data-participant="VerifyTripUI"><rect fill="#E2E2F0" height="30.2969" rx="2.5" ry="2.5" style="stroke:#181818;stroke-width:0.5;" width="96.5098" x="469.0337" y="653.9844"/><text fill="#000000" font-family="sans-serif" font-size="14" lengthAdjust="spacing" textLength="82.5098" x="476.0337" y="673.9795">VerifyTripUI</text></g><g><title>Player</title><rect fill="#FFFFFF" height="508.3906" style="stroke:#181818;stroke-width:1;" width="10" x="49.7827" y="128.5938"/></g><g><title>VerifyTripUI</title><rect fill="#FFFFFF" height="58.2656" style="stroke:#181818;stroke-width:1;" width="10" x="512.2886" y="149.7266"/></g><g><title>VerifyTripUI</title><rect fill="#FFFFFF" height="73.3984" style="stroke:#181818;stroke-width:1;" width="10" x="512.2886" y="237.125"/></g><g><title>VerifyTripUI</title><rect fill="#FFFFFF" height="297.3281" style="stroke:#181818;stroke-width:1;" width="10" x="512.2886" y="339.6563"/></g><g class="message" data-participant-1="Player" data-participant-2="VerifyTripUI"><polygon fill="#181818" points="500.2886,145.7266,510.2886,149.7266,500.2886,153.7266,504.2886,149.7266" style="stroke:#181818;stroke-width:1;"/><line style="stroke:#181818;stroke-width:1;" x1="59.7827" x2="506.2886" y1="149.7266" y2="149.7266"/><text fill="#000000" font-family="sans-serif" font-size="13" font-weight="bold" lengthAdjust="spacing" textLength="9.0454" x="66.7827" y="144.6606">1</text><text fill="#000000" font-family="sans-serif" font-size="13" lengthAdjust="spacing" textLength="183.9805" x="79.8281" y="144.6606">Selects the action verify trip</text></g><g class="message" data-participant-1="VerifyTripUI" data-participant-2="Player"><polygon fill="#181818" points="70.7827,174.8594,60.7827,178.8594,70.7827,182.8594,66.7827,178.8594" style="stroke:#181818;stroke-width:1;"/><line style="stroke:#181818;stroke-width:1;stroke-dasharray:2.0,2.0;" x1="64.7827" x2="511.2886" y1="178.8594" y2="178.8594"/><text fill="#000000" font-family="sans-serif" font-size="13" font-weight="bold" lengthAdjust="spacing" textLength="9.0454" x="76.7827" y="173.7935">2</text><text fill="#000000" font-family="sans-serif" font-size="13" lengthAdjust="spacing" textLength="331.8174" x="89.8281" y="173.7935">Ask player for which of the scenario does he wants</text></g><g class="message" data-participant-1="Player" data-participant-2="VerifyTripUI"><polygon fill="#181818" points="505.2886,203.9922,515.2886,207.9922,505.2886,211.9922,509.2886,207.9922" style="stroke:#181818;stroke-width:1;"/><line style="stroke:#181818;stroke-width:1;" x1="59.7827" x2="511.2886" y1="207.9922" y2="207.9922"/><text fill="#000000" font-family="sans-serif" font-size="13" font-weight="bold" lengthAdjust="spacing" textLength="9.0454" x="66.7827" y="202.9263">3</text><text fill="#000000" font-family="sans-serif" font-size="13" lengthAdjust="spacing" textLength="153.937" x="79.8281" y="202.9263">Give the scenario index</text></g><g class="message" data-participant-1="VerifyTripUI" data-participant-2="Player"><polygon fill="#181818" points="70.7827,233.125,60.7827,237.125,70.7827,241.125,66.7827,237.125" style="stroke:#181818;stroke-width:1;"/><line style="stroke:#181818;stroke-width:1;stroke-dasharray:2.0,2.0;" x1="64.7827" x2="511.2886" y1="237.125" y2="237.125"/><text fill="#000000" font-family="sans-serif" font-size="13" font-weight="bold" lengthAdjust="spacing" textLength="9.0454" x="76.7827" y="232.0591">4</text><text fill="#000000" font-family="sans-serif" font-size="13" lengthAdjust="spacing" textLength="346.9883" x="89.8281" y="232.0591">Ask player for which of the train types does he wants</text></g><g class="message" data-participant-1="Player" data-participant-2="VerifyTripUI"><polygon fill="#181818" points="500.2886,262.2578,510.2886,266.2578,500.2886,270.2578,504.2886,266.2578" style="stroke:#181818;stroke-width:1;"/><line style="stroke:#181818;stroke-width:1;" x1="59.7827" x2="506.2886" y1="266.2578" y2="266.2578"/><text fill="#000000" font-family="sans-serif" font-size="13" font-weight="bold" lengthAdjust="spacing" textLength="9.0454" x="66.7827" y="261.1919">5</text><text fill="#000000" font-family="sans-serif" font-size="13" lengthAdjust="spacing" textLength="162.335" x="79.8281" y="261.1919">Give the train type index</text></g><g class="message" data-participant-1="VerifyTripUI" data-participant-2="Player"><polygon fill="#181818" points="70.7827,306.5234,60.7827,310.5234,70.7827,314.5234,66.7827,310.5234" style="stroke:#181818;stroke-width:1;"/><line style="stroke:#181818;stroke-width:1;stroke-dasharray:2.0,2.0;" x1="64.7827" x2="516.2886" y1="310.5234" y2="310.5234"/><text fill="#000000" font-family="sans-serif" font-size="13" font-weight="bold" lengthAdjust="spacing" textLength="9.0454" x="76.7827" y="297.8911">6</text><text fill="#000000" font-family="sans-serif" font-size="13" lengthAdjust="spacing" textLength="411.3281" x="89.8281" y="290.3247">Ask player if he want to verify the trip between 2 stations(1) or</text><text fill="#000000" font-family="sans-serif" font-size="13" lengthAdjust="spacing" textLength="162.1572" x="93.9604" y="305.4575">between stationTypes(2)</text></g><g class="message" data-participant-1="Player" data-participant-2="VerifyTripUI"><polygon fill="#181818" points="500.2886,335.6563,510.2886,339.6563,500.2886,343.6563,504.2886,339.6563" style="stroke:#181818;stroke-width:1;"/><line style="stroke:#181818;stroke-width:1;" x1="59.7827" x2="506.2886" y1="339.6563" y2="339.6563"/><text fill="#000000" font-family="sans-serif" font-size="13" font-weight="bold" lengthAdjust="spacing" textLength="9.0454" x="66.7827" y="334.5903">7</text><text fill="#000000" font-family="sans-serif" font-size="13" lengthAdjust="spacing" textLength="216.5186" x="79.8281" y="334.5903">Give the wanted behaviour index</text></g><path d="M20,354.6563 L84.4429,354.6563 L84.4429,361.7891 L74.4429,371.7891 L20,371.7891 L20,354.6563" fill="#EEEEEE" style="stroke:#000000;stroke-width:1.5;"/><rect fill="none" height="75.3984" style="stroke:#000000;stroke-width:1.5;" width="555.5435" x="20" y="354.6563"/><text fill="#000000" font-family="sans-serif" font-size="13" font-weight="bold" lengthAdjust="spacing" textLength="19.4429" x="35" y="367.7231">alt</text><text fill="#000000" font-family="sans-serif" font-size="11" font-weight="bold" lengthAdjust="spacing" textLength="17.7085" x="99.4429" y="366.8667">[1]</text><g class="message" data-participant-1="VerifyTripUI" data-participant-2="Player"><polygon fill="#181818" points="70.7827,388.9219,60.7827,392.9219,70.7827,396.9219,66.7827,392.9219" style="stroke:#181818;stroke-width:1;"/><line style="stroke:#181818;stroke-width:1;stroke-dasharray:2.0,2.0;" x1="64.7827" x2="511.2886" y1="392.9219" y2="392.9219"/><text fill="#000000" font-family="sans-serif" font-size="13" font-weight="bold" lengthAdjust="spacing" textLength="9.0454" x="76.7827" y="387.856">8</text><text fill="#000000" font-family="sans-serif" font-size="13" lengthAdjust="spacing" textLength="288.7295" x="89.8281" y="387.856">Ask player for departure and arrival stations</text></g><g class="message" data-participant-1="Player" data-participant-2="VerifyTripUI"><polygon fill="#181818" points="500.2886,418.0547,510.2886,422.0547,500.2886,426.0547,504.2886,422.0547" style="stroke:#181818;stroke-width:1;"/><line style="stroke:#181818;stroke-width:1;" x1="59.7827" x2="506.2886" y1="422.0547" y2="422.0547"/><text fill="#000000" font-family="sans-serif" font-size="13" font-weight="bold" lengthAdjust="spacing" textLength="9.0454" x="66.7827" y="416.9888">9</text><text fill="#000000" font-family="sans-serif" font-size="13" lengthAdjust="spacing" textLength="253.373" x="79.8281" y="416.9888">Give the departure and arrival stations</text></g><path d="M10,444.0547 L74.4429,444.0547 L74.4429,451.1875 L64.4429,461.1875 L10,461.1875 L10,444.0547" fill="#EEEEEE" style="stroke:#000000;stroke-width:1.5;"/><rect fill="none" height="164.7969" style="stroke:#000000;stroke-width:1.5;" width="575.5435" x="10" y="444.0547"/><text fill="#000000" font-family="sans-serif" font-size="13" font-weight="bold" lengthAdjust="spacing" textLength="19.4429" x="25" y="457.1216">alt</text><text fill="#000000" font-family="sans-serif" font-size="11" font-weight="bold" lengthAdjust="spacing" textLength="17.7085" x="89.4429" y="456.2651">[2]</text><g class="message" data-participant-1="VerifyTripUI" data-participant-2="Player"><polygon fill="#181818" points="70.7827,478.3203,60.7827,482.3203,70.7827,486.3203,66.7827,482.3203" style="stroke:#181818;stroke-width:1;"/><line style="stroke:#181818;stroke-width:1;stroke-dasharray:2.0,2.0;" x1="64.7827" x2="511.2886" y1="482.3203" y2="482.3203"/><text fill="#000000" font-family="sans-serif" font-size="13" font-weight="bold" lengthAdjust="spacing" textLength="18.0908" x="76.7827" y="477.2544">10</text><text fill="#000000" font-family="sans-serif" font-size="13" lengthAdjust="spacing" textLength="297.8765" x="98.8735" y="477.2544">Ask player for how many types he want(1 - 3)</text></g><g class="message" data-participant-1="Player" data-participant-2="VerifyTripUI"><polygon fill="#181818" points="500.2886,507.4531,510.2886,511.4531,500.2886,515.4531,504.2886,511.4531" style="stroke:#181818;stroke-width:1;"/><line style="stroke:#181818;stroke-width:1;" x1="59.7827" x2="506.2886" y1="511.4531" y2="511.4531"/><text fill="#000000" font-family="sans-serif" font-size="13" font-weight="bold" lengthAdjust="spacing" textLength="18.0908" x="66.7827" y="506.3872">11</text><text fill="#000000" font-family="sans-serif" font-size="13" lengthAdjust="spacing" textLength="140.9751" x="88.8735" y="506.3872">Give how many types</text></g><path d="M20,526.4531 L96.624,526.4531 L96.624,533.5859 L86.624,543.5859 L20,543.5859 L20,526.4531" fill="#EEEEEE" style="stroke:#000000;stroke-width:1.5;"/><rect fill="none" height="75.3984" style="stroke:#000000;stroke-width:1.5;" width="555.5435" x="20" y="526.4531"/><text fill="#000000" font-family="sans-serif" font-size="13" font-weight="bold" lengthAdjust="spacing" textLength="31.624" x="35" y="539.52">loop</text><text fill="#000000" font-family="sans-serif" font-size="11" font-weight="bold" lengthAdjust="spacing" textLength="80.6846" x="111.624" y="538.6636">[manyTimes]</text><g class="message" data-participant-1="VerifyTripUI" data-participant-2="Player"><polygon fill="#181818" points="70.7827,560.7188,60.7827,564.7188,70.7827,568.7188,66.7827,564.7188" style="stroke:#181818;stroke-width:1;"/><line style="stroke:#181818;stroke-width:1;stroke-dasharray:2.0,2.0;" x1="64.7827" x2="511.2886" y1="564.7188" y2="564.7188"/><text fill="#000000" font-family="sans-serif" font-size="13" font-weight="bold" lengthAdjust="spacing" textLength="18.0908" x="76.7827" y="559.6528">12</text><text fill="#000000" font-family="sans-serif" font-size="13" lengthAdjust="spacing" textLength="261.4536" x="98.8735" y="559.6528">Ask player for which type he want(1 - 3)</text></g><g class="message" data-participant-1="Player" data-participant-2="VerifyTripUI"><polygon fill="#181818" points="500.2886,589.8516,510.2886,593.8516,500.2886,597.8516,504.2886,593.8516" style="stroke:#181818;stroke-width:1;"/><line style="stroke:#181818;stroke-width:1;" x1="59.7827" x2="506.2886" y1="593.8516" y2="593.8516"/><text fill="#000000" font-family="sans-serif" font-size="13" font-weight="bold" lengthAdjust="spacing" textLength="18.0908" x="66.7827" y="588.7856">13</text><text fill="#000000" font-family="sans-serif" font-size="13" lengthAdjust="spacing" textLength="111.3252" x="88.8735" y="588.7856">Give which types</text></g><g class="message" data-participant-1="VerifyTripUI" data-participant-2="Player"><polygon fill="#181818" points="65.7827,632.9844,55.7827,636.9844,65.7827,640.9844,61.7827,636.9844" style="stroke:#181818;stroke-width:1;"/><line style="stroke:#181818;stroke-width:1;stroke-dasharray:2.0,2.0;" x1="59.7827" x2="516.2886" y1="636.9844" y2="636.9844"/><text fill="#000000" font-family="sans-serif" font-size="13" font-weight="bold" lengthAdjust="spacing" textLength="18.0908" x="71.7827" y="631.9185">14</text><text fill="#000000" font-family="sans-serif" font-size="13" lengthAdjust="spacing" textLength="142.1431" x="93.8735" y="631.9185">display the trip status</text></g><!--SRC=[hPB1ReCm38RFy1G-mg7IQ6yzJ9eqQTfj4krEkwJ426iqGOc1yVPBWD9sQaihxKJiuD-VdP-9IuHj-fIiu1CDvHrG3W9iXHdbb04RGGeoeVofmH9so2sY2riDbWMJLXQYD7sDmr3Kh5Mztw49HSRQm4SfEXVuY1h1U4W4mnSMpsFNZQ5g-mvhIB74Z2rmWU2hj89cu6BtInW4azHfeSkVwIoSyDXY3I_s6weXo1rJMr1MWCxx5ZP39Gnfa1ejk4Gh55idTnNmZHeyBoKbySULIFnVjc7rt5MEx2_UjKxps4VL4VnUFkUB4G1OJu_IAr8rsM8vcI9AOd0ZVQdfRhpP-8cYPNnpPVE3U1AKJhmG3UdQJEzmMT9T1A9aIFpX_XUHM0d3jN5kL1A4CKwwd6RijUPHvqLGoObm-HXXeLlO2zMDJXat4oMmW5Ly1-1vVLzGQbtrkGtjnzIZ7kuDTe5b1kPOFBGzxCL_Rq98ifxXQ4Y_tThUyDX9Vb3v1G00]--></g></svg>