<svg xmlns="http://www.w3.org/2000/svg" xmlns:xlink="http://www.w3.org/1999/xlink" contentStyleType="text/css" height="806px" preserveAspectRatio="none" style="width:415px;height:806px;background:#FFFFFF;" version="1.1" viewBox="0 0 415 806" width="415px" zoomAndPan="magnify"><title>US012 - create a simulator (CD)</title><defs/><g><text fill="#000000" font-family="sans-serif" font-size="14" font-weight="bold" lengthAdjust="spacing" textLength="214.8851" x="93.219" y="24.9659">US012 - create a simulator (CD)</text><!--class PlayerMenuUI--><g id="elem_PlayerMenuUI"><rect codeLine="3" fill="#F1F1F1" height="86.1358" id="PlayerMenuUI" rx="2.5" ry="2.5" style="stroke:#181818;stroke-width:0.5;" width="125.6316" x="63" y="47.0679"/><ellipse cx="78" cy="63.0679" fill="#ADD1B2" rx="11" ry="11" style="stroke:#181818;stroke-width:1.0;"/><path d="M80.9688,68.7085 Q80.3906,69.0054 79.75,69.146 Q79.1094,69.3023 78.4063,69.3023 Q75.9063,69.3023 74.5781,67.6617 Q73.2656,66.0054 73.2656,62.8804 Q73.2656,59.7554 74.5781,58.0992 Q75.9063,56.4429 78.4063,56.4429 Q79.1094,56.4429 79.75,56.5992 Q80.4063,56.7554 80.9688,57.0523 L80.9688,59.771 Q80.3438,59.1929 79.75,58.9273 Q79.1563,58.646 78.5313,58.646 Q77.1875,58.646 76.5,59.7242 Q75.8125,60.7867 75.8125,62.8804 Q75.8125,64.9742 76.5,66.0523 Q77.1875,67.1148 78.5313,67.1148 Q79.1563,67.1148 79.75,66.8492 Q80.3438,66.5679 80.9688,65.9898 L80.9688,68.7085 Z " fill="#000000"/><text fill="#000000" font-family="sans-serif" font-size="14" lengthAdjust="spacing" textLength="93.6316" x="92" y="68.4999">PlayerMenuUI</text><line style="stroke:#181818;stroke-width:0.5;" x1="64" x2="187.6316" y1="79.0679" y2="79.0679"/><line style="stroke:#181818;stroke-width:0.5;" x1="64" x2="187.6316" y1="87.0679" y2="87.0679"/><ellipse cx="74" cy="102.1019" fill="#84BE84" rx="3" ry="3" style="stroke:#038048;stroke-width:1.0;"/><text fill="#000000" font-family="sans-serif" font-size="14" lengthAdjust="spacing" textLength="70.6717" x="83" y="106.0339">Play(): void</text><ellipse cx="74" cy="121.1698" fill="#84BE84" rx="3" ry="3" style="stroke:#038048;stroke-width:1.0;"/><text fill="#000000" font-family="sans-serif" font-size="14" lengthAdjust="spacing" textLength="83.1737" x="83" y="125.1018">Pause(): void</text></g><!--class PlayerMenuController--><g id="elem_PlayerMenuController"><rect codeLine="8" fill="#F1F1F1" height="67.0679" id="PlayerMenuController" rx="2.5" ry="2.5" style="stroke:#181818;stroke-width:0.5;" width="216.1192" x="18" y="212.0679"/><ellipse cx="50.6804" cy="228.0679" fill="#ADD1B2" rx="11" ry="11" style="stroke:#181818;stroke-width:1.0;"/><path d="M53.6492,233.7085 Q53.071,234.0054 52.4304,234.146 Q51.7898,234.3023 51.0867,234.3023 Q48.5867,234.3023 47.2585,232.6617 Q45.946,231.0054 45.946,227.8804 Q45.946,224.7554 47.2585,223.0992 Q48.5867,221.4429 51.0867,221.4429 Q51.7898,221.4429 52.4304,221.5992 Q53.0867,221.7554 53.6492,222.0523 L53.6492,224.771 Q53.0242,224.1929 52.4304,223.9273 Q51.8367,223.646 51.2117,223.646 Q49.8679,223.646 49.1804,224.7242 Q48.4929,225.7867 48.4929,227.8804 Q48.4929,229.9742 49.1804,231.0523 Q49.8679,232.1148 51.2117,232.1148 Q51.8367,232.1148 52.4304,231.8492 Q53.0242,231.5679 53.6492,230.9898 L53.6492,233.7085 Z " fill="#000000"/><text fill="#000000" font-family="sans-serif" font-size="14" lengthAdjust="spacing" textLength="144.8294" x="68.6094" y="233.4999">PlayerMenuController</text><line style="stroke:#181818;stroke-width:0.5;" x1="19" x2="233.1192" y1="244.0679" y2="244.0679"/><line style="stroke:#181818;stroke-width:0.5;" x1="19" x2="233.1192" y1="252.0679" y2="252.0679"/><ellipse cx="29" cy="267.1019" fill="#84BE84" rx="3" ry="3" style="stroke:#038048;stroke-width:1.0;"/><text fill="#000000" font-family="sans-serif" font-size="14" lengthAdjust="spacing" textLength="190.1192" x="38" y="271.0339">handleMenu(which: int): void</text></g><!--class TimeCounter--><g id="elem_TimeCounter"><rect codeLine="12" fill="#F1F1F1" height="238.6792" id="TimeCounter" rx="2.5" ry="2.5" style="stroke:#181818;stroke-width:0.5;" width="237.6792" x="7" y="561.0679"/><ellipse cx="78.7217" cy="577.0679" fill="#ADD1B2" rx="11" ry="11" style="stroke:#181818;stroke-width:1.0;"/><path d="M81.6905,582.7085 Q81.1124,583.0054 80.4717,583.146 Q79.8311,583.3023 79.128,583.3023 Q76.628,583.3023 75.2999,581.6617 Q73.9874,580.0054 73.9874,576.8804 Q73.9874,573.7554 75.2999,572.0992 Q76.628,570.4429 79.128,570.4429 Q79.8311,570.4429 80.4717,570.5992 Q81.128,570.7554 81.6905,571.0523 L81.6905,573.771 Q81.0655,573.1929 80.4717,572.9273 Q79.878,572.646 79.253,572.646 Q77.9092,572.646 77.2217,573.7242 Q76.5342,574.7867 76.5342,576.8804 Q76.5342,578.9742 77.2217,580.0523 Q77.9092,581.1148 79.253,581.1148 Q79.878,581.1148 80.4717,580.8492 Q81.0655,580.5679 81.6905,579.9898 L81.6905,582.7085 Z " fill="#000000"/><text fill="#000000" font-family="sans-serif" font-size="14" lengthAdjust="spacing" textLength="85.7357" x="99.2217" y="582.4999">TimeCounter</text><line style="stroke:#181818;stroke-width:0.5;" x1="8" x2="243.6792" y1="593.0679" y2="593.0679"/><rect fill="none" height="6" style="stroke:#C82930;stroke-width:1.0;" width="6" x="15" y="605.1019"/><text fill="#000000" font-family="sans-serif" font-size="14" lengthAdjust="spacing" textLength="211.6792" x="27" y="612.0339">SECONDS_TO_YEARS_RATIO : int</text><rect fill="none" height="6" style="stroke:#C82930;stroke-width:1.0;" width="6" x="15" y="624.1698"/><text fill="#000000" font-family="sans-serif" font-size="14" lengthAdjust="spacing" textLength="149.6454" x="27" y="631.1018">timePausedStart : long</text><rect fill="none" height="6" style="stroke:#C82930;stroke-width:1.0;" width="6" x="15" y="643.2377"/><text fill="#000000" font-family="sans-serif" font-size="14" lengthAdjust="spacing" textLength="123.1015" x="27" y="650.1697">isPaused : boolean</text><rect fill="none" height="6" style="stroke:#C82930;stroke-width:1.0;" width="6" x="15" y="662.3056"/><text fill="#000000" font-family="sans-serif" font-size="14" lengthAdjust="spacing" textLength="117.9636" x="27" y="669.2376">timeStarted : long</text><rect fill="none" height="6" style="stroke:#C82930;stroke-width:1.0;" width="6" x="15" y="681.3735"/><text fill="#000000" font-family="sans-serif" font-size="14" lengthAdjust="spacing" textLength="106.3436" x="27" y="688.3055">currentYear : int</text><rect fill="none" height="6" style="stroke:#C82930;stroke-width:1.0;" width="6" x="15" y="700.4415"/><text fill="#000000" font-family="sans-serif" font-size="14" lengthAdjust="spacing" textLength="88.2557" x="27" y="707.3734">startYear : int</text><rect fill="none" height="6" style="stroke:#C82930;stroke-width:1.0;" width="6" x="15" y="719.5094"/><text fill="#000000" font-family="sans-serif" font-size="14" lengthAdjust="spacing" textLength="82.9637" x="27" y="726.4414">endYear : int</text><line style="stroke:#181818;stroke-width:0.5;" x1="8" x2="243.6792" y1="734.5433" y2="734.5433"/><ellipse cx="18" cy="749.5773" fill="#84BE84" rx="3" ry="3" style="stroke:#038048;stroke-width:1.0;"/><text fill="#000000" font-family="sans-serif" font-size="14" lengthAdjust="spacing" textLength="98.4056" x="27" y="753.5093">refresh() :  void</text><ellipse cx="18" cy="768.6452" fill="#84BE84" rx="3" ry="3" style="stroke:#038048;stroke-width:1.0;"/><text fill="#000000" font-family="sans-serif" font-size="14" lengthAdjust="spacing" textLength="102.1856" x="27" y="772.5772">pause() :  String</text><ellipse cx="18" cy="787.7131" fill="#84BE84" rx="3" ry="3" style="stroke:#038048;stroke-width:1.0;"/><text fill="#000000" font-family="sans-serif" font-size="14" lengthAdjust="spacing" textLength="86.0437" x="27" y="791.6451">play() : String</text></g><!--class Simulation--><g id="elem_Simulation"><rect codeLine="27" fill="#F1F1F1" height="124.2717" id="Simulation" rx="2.5" ry="2.5" style="stroke:#181818;stroke-width:0.5;" width="234.8232" x="173.5" y="358.0679"/><ellipse cx="251.5147" cy="374.0679" fill="#ADD1B2" rx="11" ry="11" style="stroke:#181818;stroke-width:1.0;"/><path d="M254.4835,379.7085 Q253.9053,380.0054 253.2647,380.146 Q252.6241,380.3023 251.921,380.3023 Q249.421,380.3023 248.0928,378.6617 Q246.7803,377.0054 246.7803,373.8804 Q246.7803,370.7554 248.0928,369.0992 Q249.421,367.4429 251.921,367.4429 Q252.6241,367.4429 253.2647,367.5992 Q253.921,367.7554 254.4835,368.0523 L254.4835,370.771 Q253.8585,370.1929 253.2647,369.9273 Q252.671,369.646 252.046,369.646 Q250.7022,369.646 250.0147,370.7242 Q249.3272,371.7867 249.3272,373.8804 Q249.3272,375.9742 250.0147,377.0523 Q250.7022,378.1148 252.046,378.1148 Q252.671,378.1148 253.2647,377.8492 Q253.8585,377.5679 254.4835,376.9898 L254.4835,379.7085 Z " fill="#000000"/><text fill="#000000" font-family="sans-serif" font-size="14" lengthAdjust="spacing" textLength="70.2937" x="272.0147" y="379.4999">Simulation</text><line style="stroke:#181818;stroke-width:0.5;" x1="174.5" x2="407.3232" y1="390.0679" y2="390.0679"/><rect fill="none" height="6" style="stroke:#C82930;stroke-width:1.0;" width="6" x="181.5" y="402.1019"/><text fill="#000000" font-family="sans-serif" font-size="14" lengthAdjust="spacing" textLength="136.4715" x="193.5" y="409.0339">instance : Simulation</text><rect fill="none" height="6" style="stroke:#C82930;stroke-width:1.0;" width="6" x="181.5" y="421.1698"/><text fill="#000000" font-family="sans-serif" font-size="14" lengthAdjust="spacing" textLength="150.6394" x="193.5" y="428.1018">simulation : Simulation</text><line style="stroke:#181818;stroke-width:0.5;" x1="174.5" x2="407.3232" y1="436.2038" y2="436.2038"/><ellipse cx="184.5" cy="451.2377" fill="#84BE84" rx="3" ry="3" style="stroke:#038048;stroke-width:1.0;"/><text fill="#000000" font-family="sans-serif" font-size="14" lengthAdjust="spacing" textLength="160.8594" x="193.5" y="455.1697">getIntance() : Simulation</text><ellipse cx="184.5" cy="470.3056" fill="#84BE84" rx="3" ry="3" style="stroke:#038048;stroke-width:1.0;"/><text fill="#000000" font-family="sans-serif" font-size="14" lengthAdjust="spacing" textLength="208.8232" x="193.5" y="474.2376">getTimeCounter(): TimeCounter</text></g><!--link PlayerMenuUI to PlayerMenuController--><g id="link_PlayerMenuUI_PlayerMenuController"><path codeLine="35" d="M126,133.4179 C126,158.0879 126,182.7379 126,205.5979 " fill="none" id="PlayerMenuUI-to-PlayerMenuController" style="stroke:#181818;stroke-width:1.0;stroke-dasharray:7.0,7.0;"/><polygon fill="#181818" points="126,211.5979,130,202.5979,126,206.5979,122,202.5979,126,211.5979" style="stroke:#181818;stroke-width:1.0;"/><text fill="#000000" font-family="sans-serif" font-size="13" lengthAdjust="spacing" textLength="27.82" x="127" y="177.9649">uses</text></g><!--link PlayerMenuController to Simulation--><g id="link_PlayerMenuController_Simulation"><path codeLine="36" d="M157.42,279.4179 C178.65,301.6079 203.1626,327.2422 228.4926,353.7222 " fill="none" id="PlayerMenuController-to-Simulation" style="stroke:#181818;stroke-width:1.0;stroke-dasharray:7.0,7.0;"/><polygon fill="#181818" points="232.64,358.0579,229.3093,348.7893,229.1838,354.4448,223.5283,354.3193,232.64,358.0579" style="stroke:#181818;stroke-width:1.0;"/><text fill="#000000" font-family="sans-serif" font-size="13" lengthAdjust="spacing" textLength="39.559" x="205" y="323.9649">access</text></g><!--link PlayerMenuController to TimeCounter--><g id="link_PlayerMenuController_TimeCounter"><path codeLine="37" d="M121.93,279.1979 C119.37,301.3879 116.31,331.4479 115,358.0679 C111.7,425.1479 113.6052,494.1467 116.8952,554.8267 " fill="none" id="PlayerMenuController-to-TimeCounter" style="stroke:#181818;stroke-width:1.0;stroke-dasharray:7.0,7.0;"/><polygon fill="#181818" points="117.22,560.8179,120.7269,551.6146,116.9493,555.8252,112.7386,552.0477,117.22,560.8179" style="stroke:#181818;stroke-width:1.0;"/><text fill="#000000" font-family="sans-serif" font-size="13" lengthAdjust="spacing" textLength="39.559" x="116" y="425.4649">access</text></g><!--link Simulation to TimeCounter--><g id="link_Simulation_TimeCounter"><path codeLine="39" d="M251.9,482.3279 C236.84,505.9179 222.3175,528.6699 204.9675,555.8599 " fill="none" id="Simulation-to-TimeCounter" style="stroke:#181818;stroke-width:1.0;"/><polygon fill="#181818" points="201.74,560.9179,209.9533,555.4826,204.4296,556.7029,203.2093,551.1793,201.74,560.9179" style="stroke:#181818;stroke-width:1.0;"/><text fill="#000000" font-family="sans-serif" font-size="13" lengthAdjust="spacing" textLength="43.108" x="229" y="526.9649">pauses</text></g><!--SRC=[TP4xRy8m58Lt_uehfaG8r7Pag8G20qDBXM5WYbpdbbWoTcKxhQgg_xts3KhDewE_SuxlAwYW4NRyxlu19Y0TYe0WmAjZfqMm3efgKJ8cjV0UNhJuGlU4fjkju9l1c4XHpk33geRUelCuW9_hO6LDS5PhT9HlXMaq9g7uR9LiPw1Ck8flrH4hsvb0gTWdNrRhvmMlj-jwlvnlUBsPRrThe3GPGanGBmqFmeMeQ6iE92dV2v6zMgjHc251Nb86j-oSGnFsA5pslK_62uQcoGYBR0mEtnpwjYWZFUqeqlT-IOdnu1HLYfHM6U693TFp_XRA6kYdLoRMDnAJTz3wllwiPneLE61O6GhsPV8egTcQqmcpPshcxFZJwUFDeyP_usoUtTHIYESTZeIKwFteVtlMG-vdsJUJoQMDzkiP-mK0]--></g></svg>