<svg xmlns="http://www.w3.org/2000/svg" xmlns:xlink="http://www.w3.org/1999/xlink" contentStyleType="text/css" height="544px" preserveAspectRatio="none" style="width:943px;height:544px;background:#FFFFFF;" version="1.1" viewBox="0 0 943 544" width="943px" zoomAndPan="magnify"><title>US012 - create a simulator (SD)</title><defs/><g><text fill="#000000" font-family="sans-serif" font-size="14" font-weight="bold" lengthAdjust="spacing" textLength="213.6812" x="364.0734" y="29.9659">US012 - create a simulator (SD)</text><rect fill="#FFFFFF" height="318.0602" style="stroke:#181818;stroke-width:1.0;" width="10" x="23.3769" y="134.1358"/><rect fill="#FFFFFF" height="285.3541" style="stroke:#181818;stroke-width:1.0;" width="10" x="228.8821" y="157.8419"/><rect fill="#FFFFFF" height="221.9421" style="stroke:#181818;stroke-width:1.0;" width="10" x="482.0243" y="189.5479"/><rect fill="#FFFFFF" height="31.706" style="stroke:#181818;stroke-width:1.0;" width="10" x="613.5859" y="221.2539"/><rect fill="#FFFFFF" height="31.706" style="stroke:#181818;stroke-width:1.0;" width="10" x="744.4125" y="284.6659"/><rect fill="#FFFFFF" height="31.706" style="stroke:#181818;stroke-width:1.0;" width="10" x="882.9601" y="348.0779"/><line style="stroke:#181818;stroke-width:0.5;stroke-dasharray:5.0,5.0;" x1="28" x2="28" y1="124.1358" y2="461.196"/><line style="stroke:#181818;stroke-width:0.5;stroke-dasharray:5.0,5.0;" x1="233.0663" x2="233.0663" y1="124.1358" y2="461.196"/><line style="stroke:#181818;stroke-width:0.5;stroke-dasharray:5.0,5.0;" x1="486.6096" x2="486.6096" y1="124.1358" y2="461.196"/><line style="stroke:#181818;stroke-width:0.5;stroke-dasharray:5.0,5.0;" x1="618.439" x2="618.439" y1="124.1358" y2="461.196"/><line style="stroke:#181818;stroke-width:0.5;stroke-dasharray:5.0,5.0;" x1="748.7328" x2="748.7328" y1="124.1358" y2="461.196"/><line style="stroke:#181818;stroke-width:0.5;stroke-dasharray:5.0,5.0;" x1="887.0922" x2="887.0922" y1="124.1358" y2="461.196"/><text fill="#000000" font-family="sans-serif" font-size="14" lengthAdjust="spacing" textLength="40.7538" x="5" y="120.0339">Player</text><ellipse cx="28.3769" cy="53.5679" fill="#E2E2F0" rx="8" ry="8" style="stroke:#181818;stroke-width:0.5;"/><path d="M28.3769,61.5679 L28.3769,88.5679 M15.3769,69.5679 L41.3769,69.5679 M28.3769,88.5679 L15.3769,103.5679 M28.3769,88.5679 L41.3769,103.5679 " fill="none" style="stroke:#181818;stroke-width:0.5;"/><text fill="#000000" font-family="sans-serif" font-size="14" lengthAdjust="spacing" textLength="40.7538" x="5" y="475.1619">Player</text><ellipse cx="28.3769" cy="487.7639" fill="#E2E2F0" rx="8" ry="8" style="stroke:#181818;stroke-width:0.5;"/><path d="M28.3769,495.7639 L28.3769,522.7639 M15.3769,503.7639 L41.3769,503.7639 M28.3769,522.7639 L15.3769,537.7639 M28.3769,522.7639 L41.3769,537.7639 " fill="none" style="stroke:#181818;stroke-width:0.5;"/><rect fill="#E2E2F0" height="33.0679" rx="2.5" ry="2.5" style="stroke:#181818;stroke-width:0.5;" width="107.6316" x="180.0663" y="90.0679"/><text fill="#000000" font-family="sans-serif" font-size="14" lengthAdjust="spacing" textLength="93.6316" x="187.0663" y="112.0339">PlayerMenuUI</text><rect fill="#E2E2F0" height="33.0679" rx="2.5" ry="2.5" style="stroke:#181818;stroke-width:0.5;" width="107.6316" x="180.0663" y="460.196"/><text fill="#000000" font-family="sans-serif" font-size="14" lengthAdjust="spacing" textLength="93.6316" x="187.0663" y="482.1619">PlayerMenuUI</text><rect fill="#E2E2F0" height="33.0679" rx="2.5" ry="2.5" style="stroke:#181818;stroke-width:0.5;" width="158.8294" x="407.6096" y="90.0679"/><text fill="#000000" font-family="sans-serif" font-size="14" lengthAdjust="spacing" textLength="144.8294" x="414.6096" y="112.0339">PlayerMenuController</text><rect fill="#E2E2F0" height="33.0679" rx="2.5" ry="2.5" style="stroke:#181818;stroke-width:0.5;" width="158.8294" x="407.6096" y="460.196"/><text fill="#000000" font-family="sans-serif" font-size="14" lengthAdjust="spacing" textLength="144.8294" x="414.6096" y="482.1619">PlayerMenuController</text><rect fill="#E2E2F0" height="33.0679" rx="2.5" ry="2.5" style="stroke:#181818;stroke-width:0.5;" width="84.2937" x="576.439" y="90.0679"/><text fill="#000000" font-family="sans-serif" font-size="14" lengthAdjust="spacing" textLength="70.2937" x="583.439" y="112.0339">Simulation</text><rect fill="#E2E2F0" height="33.0679" rx="2.5" ry="2.5" style="stroke:#181818;stroke-width:0.5;" width="84.2937" x="576.439" y="460.196"/><text fill="#000000" font-family="sans-serif" font-size="14" lengthAdjust="spacing" textLength="70.2937" x="583.439" y="482.1619">Simulation</text><rect fill="#E2E2F0" height="33.0679" rx="2.5" ry="2.5" style="stroke:#181818;stroke-width:0.5;" width="157.3595" x="670.7328" y="90.0679"/><text fill="#000000" font-family="sans-serif" font-size="14" lengthAdjust="spacing" textLength="143.3595" x="677.7328" y="112.0339">simulation:Simulation</text><rect fill="#E2E2F0" height="33.0679" rx="2.5" ry="2.5" style="stroke:#181818;stroke-width:0.5;" width="157.3595" x="670.7328" y="460.196"/><text fill="#000000" font-family="sans-serif" font-size="14" lengthAdjust="spacing" textLength="143.3595" x="677.7328" y="482.1619">simulation:Simulation</text><rect fill="#E2E2F0" height="33.0679" rx="2.5" ry="2.5" style="stroke:#181818;stroke-width:0.5;" width="99.7357" x="838.0922" y="90.0679"/><text fill="#000000" font-family="sans-serif" font-size="14" lengthAdjust="spacing" textLength="85.7357" x="845.0922" y="112.0339">TimeCounter</text><rect fill="#E2E2F0" height="33.0679" rx="2.5" ry="2.5" style="stroke:#181818;stroke-width:0.5;" width="99.7357" x="838.0922" y="460.196"/><text fill="#000000" font-family="sans-serif" font-size="14" lengthAdjust="spacing" textLength="85.7357" x="845.0922" y="482.1619">TimeCounter</text><rect fill="#FFFFFF" height="318.0602" style="stroke:#181818;stroke-width:1.0;" width="10" x="23.3769" y="134.1358"/><rect fill="#FFFFFF" height="285.3541" style="stroke:#181818;stroke-width:1.0;" width="10" x="228.8821" y="157.8419"/><rect fill="#FFFFFF" height="221.9421" style="stroke:#181818;stroke-width:1.0;" width="10" x="482.0243" y="189.5479"/><rect fill="#FFFFFF" height="31.706" style="stroke:#181818;stroke-width:1.0;" width="10" x="613.5859" y="221.2539"/><rect fill="#FFFFFF" height="31.706" style="stroke:#181818;stroke-width:1.0;" width="10" x="744.4125" y="284.6659"/><rect fill="#FFFFFF" height="31.706" style="stroke:#181818;stroke-width:1.0;" width="10" x="882.9601" y="348.0779"/><polygon fill="#181818" points="216.8821,153.8419,226.8821,157.8419,216.8821,161.8419,220.8821,157.8419" style="stroke:#181818;stroke-width:1.0;"/><line style="stroke:#181818;stroke-width:1.0;" x1="33.3769" x2="222.8821" y1="157.8419" y2="157.8419"/><text fill="#000000" font-family="sans-serif" font-size="13" font-weight="bold" lengthAdjust="spacing" textLength="7.436" x="40.3769" y="152.0328">1</text><text fill="#000000" font-family="sans-serif" font-size="13" lengthAdjust="spacing" textLength="134.4721" x="51.8129" y="152.0328">Play/Pause simulation</text><polygon fill="#181818" points="470.0243,185.5479,480.0243,189.5479,470.0243,193.5479,474.0243,189.5479" style="stroke:#181818;stroke-width:1.0;"/><line style="stroke:#181818;stroke-width:1.0;" x1="238.8821" x2="476.0243" y1="189.5479" y2="189.5479"/><text fill="#000000" font-family="sans-serif" font-size="13" font-weight="bold" lengthAdjust="spacing" textLength="7.436" x="245.8821" y="183.7389">2</text><text fill="#000000" font-family="sans-serif" font-size="13" lengthAdjust="spacing" textLength="212.7062" x="257.3181" y="183.7389">changeSimulationStatus(int status)</text><polygon fill="#181818" points="601.5859,217.2539,611.5859,221.2539,601.5859,225.2539,605.5859,221.2539" style="stroke:#181818;stroke-width:1.0;"/><line style="stroke:#181818;stroke-width:1.0;" x1="492.0243" x2="607.5859" y1="221.2539" y2="221.2539"/><text fill="#000000" font-family="sans-serif" font-size="13" font-weight="bold" lengthAdjust="spacing" textLength="7.436" x="499.0243" y="215.4449">3</text><text fill="#000000" font-family="sans-serif" font-size="13" lengthAdjust="spacing" textLength="80.0801" x="510.4603" y="215.4449">getInstance()</text><polygon fill="#181818" points="503.0243,248.9599,493.0243,252.9599,503.0243,256.9599,499.0243,252.9599" style="stroke:#181818;stroke-width:1.0;"/><line style="stroke:#181818;stroke-width:1.0;stroke-dasharray:2.0,2.0;" x1="497.0243" x2="617.5859" y1="252.9599" y2="252.9599"/><text fill="#000000" font-family="sans-serif" font-size="13" font-weight="bold" lengthAdjust="spacing" textLength="7.436" x="509.0243" y="247.1509">4</text><text fill="#000000" font-family="sans-serif" font-size="13" lengthAdjust="spacing" textLength="64.3631" x="520.4603" y="247.1509">simulation</text><polygon fill="#181818" points="732.4125,280.6659,742.4125,284.6659,732.4125,288.6659,736.4125,284.6659" style="stroke:#181818;stroke-width:1.0;"/><line style="stroke:#181818;stroke-width:1.0;" x1="492.0243" x2="738.4125" y1="284.6659" y2="284.6659"/><text fill="#000000" font-family="sans-serif" font-size="13" font-weight="bold" lengthAdjust="spacing" textLength="7.436" x="499.0243" y="278.8569">5</text><text fill="#000000" font-family="sans-serif" font-size="13" lengthAdjust="spacing" textLength="107.4321" x="510.4603" y="278.8569">getTimeCounter()</text><polygon fill="#181818" points="503.0243,312.3719,493.0243,316.3719,503.0243,320.3719,499.0243,316.3719" style="stroke:#181818;stroke-width:1.0;"/><line style="stroke:#181818;stroke-width:1.0;stroke-dasharray:2.0,2.0;" x1="497.0243" x2="748.4125" y1="316.3719" y2="316.3719"/><text fill="#000000" font-family="sans-serif" font-size="13" font-weight="bold" lengthAdjust="spacing" textLength="7.436" x="509.0243" y="310.5629">6</text><text fill="#000000" font-family="sans-serif" font-size="13" lengthAdjust="spacing" textLength="79.6121" x="520.4603" y="310.5629">TimeCounter</text><polygon fill="#181818" points="870.9601,344.0779,880.9601,348.0779,870.9601,352.0779,874.9601,348.0779" style="stroke:#181818;stroke-width:1.0;"/><line style="stroke:#181818;stroke-width:1.0;" x1="492.0243" x2="876.9601" y1="348.0779" y2="348.0779"/><text fill="#000000" font-family="sans-serif" font-size="13" font-weight="bold" lengthAdjust="spacing" textLength="7.436" x="499.0243" y="342.2689">7</text><text fill="#000000" font-family="sans-serif" font-size="13" lengthAdjust="spacing" textLength="86.3981" x="510.4603" y="342.2689">pause/pause()</text><polygon fill="#181818" points="503.0243,375.784,493.0243,379.784,503.0243,383.784,499.0243,379.784" style="stroke:#181818;stroke-width:1.0;"/><line style="stroke:#181818;stroke-width:1.0;stroke-dasharray:2.0,2.0;" x1="497.0243" x2="886.9601" y1="379.784" y2="379.784"/><text fill="#000000" font-family="sans-serif" font-size="13" font-weight="bold" lengthAdjust="spacing" textLength="7.436" x="509.0243" y="373.975">8</text><text fill="#000000" font-family="sans-serif" font-size="13" lengthAdjust="spacing" textLength="160.5372" x="520.4603" y="373.975">Simulation updated status</text><polygon fill="#181818" points="249.8821,407.49,239.8821,411.49,249.8821,415.49,245.8821,411.49" style="stroke:#181818;stroke-width:1.0;"/><line style="stroke:#181818;stroke-width:1.0;stroke-dasharray:2.0,2.0;" x1="243.8821" x2="486.0243" y1="411.49" y2="411.49"/><text fill="#000000" font-family="sans-serif" font-size="13" font-weight="bold" lengthAdjust="spacing" textLength="7.436" x="255.8821" y="405.681">9</text><text fill="#000000" font-family="sans-serif" font-size="13" lengthAdjust="spacing" textLength="105.8201" x="267.3181" y="405.681">Simulation status</text><polygon fill="#181818" points="44.3769,439.196,34.3769,443.196,44.3769,447.196,40.3769,443.196" style="stroke:#181818;stroke-width:1.0;"/><line style="stroke:#181818;stroke-width:1.0;stroke-dasharray:2.0,2.0;" x1="38.3769" x2="232.8821" y1="443.196" y2="443.196"/><text fill="#000000" font-family="sans-serif" font-size="13" font-weight="bold" lengthAdjust="spacing" textLength="14.872" x="50.3769" y="437.387">10</text><text fill="#000000" font-family="sans-serif" font-size="13" lengthAdjust="spacing" textLength="152.6331" x="69.2489" y="437.387">Display simulation status</text><!--SRC=[VPF1RgCm48RF-2b6FP43ROYgfkAmMctJIiaMjLedtRCBiwabi96n8_NjTmnfCL481sIFFT__ZpssqbO8EpvF5v10OL1O106jh5qbh3OGyzMCCU6iLgv-HyD4uSElbVZi9_BWKuvp5lK3I7uSGpagjrjdtUpcLRWMl-1IAnQT0FhTZ3XH61ZZ7hIoHbSLoMHGV0YrH_wDv5POryPIMMYxuOnOPrG6Y1UBpj99TG2JrXxjMX5L5HXxxC3bGKdq1Ld9jFLsb5JYETebRrS381jIhdgZMrdZWtRAeY6l8xCJUPtpAUQ5CWAbapgcX3exasK5FA8tlcLkkdz_vaCT9y9H56PUC1pSZcjA8fN7LkaeWVzGuC9DdFJwME58PYFmL1kEU_wRcy5AjWqDWvOPm6Uv_X7zH5MwcZ6AAhlBd-60flMfwVLYlhYzNiPSME3Om7m9wI9BxxDq2NyV-HRy-ep5-NeBhNQcG2XbQuryTrvxnZRY8E0FdGoTK0Ol3QhDwlTN01xLGHgjQbIMRTxoOSFTRV9BUab3Lk0jPoly9rnbAQFGfLJx37RRf-IUFTEZTc9FR5IikmBpIMlyFm00]--></g></svg>