<svg xmlns="http://www.w3.org/2000/svg" xmlns:xlink="http://www.w3.org/1999/xlink" contentStyleType="text/css" data-diagram-type="CLASS" height="2004px" preserveAspectRatio="none" style="width:1083px;height:2004px;background:#FFFFFF;" version="1.1" viewBox="0 0 1083 2004" width="1083px" zoomAndPan="magnify"><title>US009 - As a player, I want to buy a locomotive</title><defs/><g><g class="title" data-source-line="1"><text fill="#000000" font-family="sans-serif" font-size="14" font-weight="bold" lengthAdjust="spacing" textLength="374.7256" x="347.1419" y="22.9951">US009 - As a player, I want to buy a locomotive</text></g><!--class BuyLocomotiveUI--><g class="entity" data-entity="BuyLocomotiveUI" data-source-line="3" data-uid="ent0002" id="entity_BuyLocomotiveUI"><rect fill="#F1F1F1" height="113.1875" rx="2.5" ry="2.5" style="stroke:#181818;stroke-width:0.5;" width="309.7461" x="406.96" y="44.2969"/><ellipse cx="496.4595" cy="60.2969" fill="#ADD1B2" rx="11" ry="11" style="stroke:#181818;stroke-width:1;"/><path d="M499.4283,65.9375 Q498.8501,66.2344 498.2095,66.375 Q497.5689,66.5313 496.8658,66.5313 Q494.3658,66.5313 493.0376,64.8906 Q491.7251,63.2344 491.7251,60.1094 Q491.7251,56.9844 493.0376,55.3281 Q494.3658,53.6719 496.8658,53.6719 Q497.5689,53.6719 498.2095,53.8281 Q498.8658,53.9844 499.4283,54.2813 L499.4283,57 Q498.8033,56.4219 498.2095,56.1563 Q497.6158,55.875 496.9908,55.875 Q495.647,55.875 494.9595,56.9531 Q494.272,58.0156 494.272,60.1094 Q494.272,62.2031 494.9595,63.2813 Q495.647,64.3438 496.9908,64.3438 Q497.6158,64.3438 498.2095,64.0781 Q498.8033,63.7969 499.4283,63.2188 L499.4283,65.9375 Z " fill="#000000"/><text fill="#000000" font-family="sans-serif" font-size="14" lengthAdjust="spacing" textLength="122.2471" x="516.9595" y="65.1436">BuyLocomotiveUI</text><line style="stroke:#181818;stroke-width:0.5;" x1="407.96" x2="715.7061" y1="76.2969" y2="76.2969"/><line style="stroke:#181818;stroke-width:0.5;" x1="407.96" x2="715.7061" y1="84.2969" y2="84.2969"/><ellipse cx="417.96" cy="97.9453" fill="#84BE84" rx="3" ry="3" style="stroke:#038048;stroke-width:1;"/><text fill="#000000" font-family="sans-serif" font-size="14" lengthAdjust="spacing" textLength="73.2197" x="426.96" y="101.292">run(): void</text><ellipse cx="417.96" cy="114.2422" fill="#84BE84" rx="3" ry="3" style="stroke:#038048;stroke-width:1;"/><text fill="#000000" font-family="sans-serif" font-size="14" lengthAdjust="spacing" textLength="278.3867" x="426.96" y="117.5889">DisplayAvailableLocomotivesList(): void</text><ellipse cx="417.96" cy="130.5391" fill="#84BE84" rx="3" ry="3" style="stroke:#038048;stroke-width:1;"/><text fill="#000000" font-family="sans-serif" font-size="14" lengthAdjust="spacing" textLength="283.7461" x="426.96" y="133.8857">promptUserForLocomotiveChoice(): void</text><rect fill="#F24D5C" height="6" style="stroke:#C82930;stroke-width:1;" width="6" x="414.96" y="143.8359"/><text fill="#000000" font-family="sans-serif" font-size="14" lengthAdjust="spacing" textLength="242.6689" x="426.96" y="150.1826">handleLocomotivePurchase(): void</text></g><!--class BuyLocomotiveController--><g class="entity" data-entity="BuyLocomotiveController" data-source-line="11" data-uid="ent0003" id="entity_BuyLocomotiveController"><rect fill="#F1F1F1" height="194.6719" rx="2.5" ry="2.5" style="stroke:#181818;stroke-width:0.5;" width="212.5049" x="455.58" y="217.4869"/><ellipse cx="472.1374" cy="233.4869" fill="#ADD1B2" rx="11" ry="11" style="stroke:#181818;stroke-width:1;"/><path d="M475.1062,239.1275 Q474.528,239.4244 473.8874,239.565 Q473.2468,239.7213 472.5437,239.7213 Q470.0437,239.7213 468.7155,238.0806 Q467.403,236.4244 467.403,233.2994 Q467.403,230.1744 468.7155,228.5181 Q470.0437,226.8619 472.5437,226.8619 Q473.2468,226.8619 473.8874,227.0181 Q474.5437,227.1744 475.1062,227.4713 L475.1062,230.19 Q474.4812,229.6119 473.8874,229.3463 Q473.2937,229.065 472.6687,229.065 Q471.3249,229.065 470.6374,230.1431 Q469.9499,231.2056 469.9499,233.2994 Q469.9499,235.3931 470.6374,236.4713 Q471.3249,237.5338 472.6687,237.5338 Q473.2937,237.5338 473.8874,237.2681 Q474.4812,236.9869 475.1062,236.4088 L475.1062,239.1275 Z " fill="#000000"/><text fill="#000000" font-family="sans-serif" font-size="14" lengthAdjust="spacing" textLength="177.0439" x="486.4835" y="238.3336">BuyLocomotiveController</text><line style="stroke:#181818;stroke-width:0.5;" x1="456.58" x2="667.0849" y1="249.4869" y2="249.4869"/><rect fill="none" height="6" style="stroke:#C82930;stroke-width:1;" width="6" x="463.58" y="260.1353"/><text fill="#000000" font-family="sans-serif" font-size="14" lengthAdjust="spacing" textLength="147.998" x="475.58" y="266.482">instance : Repository</text><rect fill="none" height="6" style="stroke:#C82930;stroke-width:1;" width="6" x="463.58" y="276.4322"/><text fill="#000000" font-family="sans-serif" font-size="14" lengthAdjust="spacing" textLength="133.7451" x="475.58" y="282.7789">scenario : Scenario</text><rect fill="none" height="6" style="stroke:#C82930;stroke-width:1;" width="6" x="463.58" y="292.7291"/><text fill="#000000" font-family="sans-serif" font-size="14" lengthAdjust="spacing" textLength="161.1709" x="475.58" y="299.0757">simulation : Simulation</text><line style="stroke:#181818;stroke-width:1;" x1="456.58" x2="667.0849" y1="306.3775" y2="306.3775"/><rect fill="#F24D5C" height="6" style="stroke:#C82930;stroke-width:1;" width="6" x="463.58" y="317.0259"/><text fill="#000000" font-family="sans-serif" font-size="14" lengthAdjust="spacing" textLength="155.8594" x="475.58" y="323.3726">initializeRepositories()</text><ellipse cx="466.58" cy="336.3228" fill="#84BE84" rx="3" ry="3" style="stroke:#038048;stroke-width:1;"/><text fill="#000000" font-family="sans-serif" font-size="14" lengthAdjust="spacing" textLength="118.5488" x="475.58" y="339.6695">getCurrentYear()</text><ellipse cx="466.58" cy="352.6197" fill="#84BE84" rx="3" ry="3" style="stroke:#038048;stroke-width:1;"/><text fill="#000000" font-family="sans-serif" font-size="14" lengthAdjust="spacing" textLength="137.4023" x="475.58" y="355.9664">getCurrentBudget()</text><ellipse cx="466.58" cy="368.9166" fill="#84BE84" rx="3" ry="3" style="stroke:#038048;stroke-width:1;"/><text fill="#000000" font-family="sans-serif" font-size="14" lengthAdjust="spacing" textLength="118.0771" x="475.58" y="372.2632">buyLocomotive()</text><ellipse cx="466.58" cy="385.2134" fill="#84BE84" rx="3" ry="3" style="stroke:#038048;stroke-width:1;"/><text fill="#000000" font-family="sans-serif" font-size="14" lengthAdjust="spacing" textLength="186.5049" x="475.58" y="388.5601">getAvailableLocomotives()</text><ellipse cx="466.58" cy="401.5103" fill="#84BE84" rx="3" ry="3" style="stroke:#038048;stroke-width:1;"/><text fill="#000000" font-family="sans-serif" font-size="14" lengthAdjust="spacing" textLength="78.7158" x="475.58" y="404.857">canAfford()</text></g><!--class Simulation--><g class="entity" data-entity="Simulation" data-source-line="24" data-uid="ent0004" id="entity_Simulation"><rect fill="#F1F1F1" height="113.1875" rx="2.5" ry="2.5" style="stroke:#181818;stroke-width:0.5;" width="290.5234" x="515.57" y="472.1569"/><ellipse cx="619.2951" cy="488.1569" fill="#ADD1B2" rx="11" ry="11" style="stroke:#181818;stroke-width:1;"/><path d="M622.2638,493.7975 Q621.6857,494.0944 621.0451,494.235 Q620.4045,494.3912 619.7013,494.3912 Q617.2013,494.3912 615.8732,492.7506 Q614.5607,491.0944 614.5607,487.9694 Q614.5607,484.8444 615.8732,483.1881 Q617.2013,481.5319 619.7013,481.5319 Q620.4045,481.5319 621.0451,481.6881 Q621.7013,481.8444 622.2638,482.1412 L622.2638,484.86 Q621.6388,484.2819 621.0451,484.0162 Q620.4513,483.735 619.8263,483.735 Q618.4826,483.735 617.7951,484.8131 Q617.1076,485.8756 617.1076,487.9694 Q617.1076,490.0631 617.7951,491.1412 Q618.4826,492.2037 619.8263,492.2037 Q620.4513,492.2037 621.0451,491.9381 Q621.6388,491.6569 622.2638,491.0787 L622.2638,493.7975 Z " fill="#000000"/><text fill="#000000" font-family="sans-serif" font-size="14" lengthAdjust="spacing" textLength="74.5732" x="639.7951" y="493.0036">Simulation</text><line style="stroke:#181818;stroke-width:0.5;" x1="516.57" x2="805.0934" y1="504.1569" y2="504.1569"/><ellipse cx="526.57" cy="517.8053" fill="#84BE84" rx="3" ry="3" style="stroke:#038048;stroke-width:1;"/><text fill="#000000" font-family="sans-serif" font-size="14" lengthAdjust="spacing" textLength="172.751" x="535.57" y="521.152">getInstance():Simulation</text><ellipse cx="526.57" cy="534.1022" fill="#84BE84" rx="3" ry="3" style="stroke:#038048;stroke-width:1;"/><text fill="#000000" font-family="sans-serif" font-size="14" lengthAdjust="spacing" textLength="264.5234" x="535.57" y="537.4489">getTrainRepository(): TrainRepository</text><rect fill="none" height="6" style="stroke:#C82930;stroke-width:1;" width="6" x="523.57" y="547.3991"/><text fill="#000000" font-family="sans-serif" font-size="14" lengthAdjust="spacing" textLength="179.3408" x="535.57" y="553.7457">yearCounter:YearCounter</text><line style="stroke:#181818;stroke-width:1;" x1="516.57" x2="805.0934" y1="561.0475" y2="561.0475"/><ellipse cx="526.57" cy="574.6959" fill="#84BE84" rx="3" ry="3" style="stroke:#038048;stroke-width:1;"/><text fill="#000000" font-family="sans-serif" font-size="14" lengthAdjust="spacing" textLength="121.3584" x="535.57" y="578.0426">getYearCounter()</text></g><!--class TrainRepository--><g class="entity" data-entity="TrainRepository" data-source-line="29" data-uid="ent0005" id="entity_TrainRepository"><rect fill="#F1F1F1" height="96.8906" rx="2.5" ry="2.5" style="stroke:#181818;stroke-width:0.5;" width="163.0811" x="93.29" y="908.1669"/><ellipse cx="117.4517" cy="924.1669" fill="#ADD1B2" rx="11" ry="11" style="stroke:#181818;stroke-width:1;"/><path d="M120.4205,929.8075 Q119.8423,930.1044 119.2017,930.245 Q118.5611,930.4012 117.858,930.4012 Q115.358,930.4012 114.0298,928.7606 Q112.7173,927.1044 112.7173,923.9794 Q112.7173,920.8544 114.0298,919.1981 Q115.358,917.5419 117.858,917.5419 Q118.5611,917.5419 119.2017,917.6981 Q119.858,917.8544 120.4205,918.1512 L120.4205,920.87 Q119.7955,920.2919 119.2017,920.0262 Q118.608,919.745 117.983,919.745 Q116.6392,919.745 115.9517,920.8231 Q115.2642,921.8856 115.2642,923.9794 Q115.2642,926.0731 115.9517,927.1512 Q116.6392,928.2137 117.983,928.2137 Q118.608,928.2137 119.2017,927.9481 Q119.7955,927.6669 120.4205,927.0887 L120.4205,929.8075 Z " fill="#000000"/><text fill="#000000" font-family="sans-serif" font-size="14" lengthAdjust="spacing" textLength="110.7217" x="133.4877" y="929.0136">TrainRepository</text><line style="stroke:#181818;stroke-width:0.5;" x1="94.29" x2="255.3711" y1="940.1669" y2="940.1669"/><rect fill="none" height="6" style="stroke:#C82930;stroke-width:1;" width="6" x="101.29" y="950.8153"/><text fill="#000000" font-family="sans-serif" font-size="14" lengthAdjust="spacing" textLength="137.0811" x="113.29" y="957.162">trains : List&lt;Train&gt;</text><rect fill="#F24D5C" height="6" style="stroke:#C82930;stroke-width:1;" width="6" x="101.29" y="967.1122"/><text fill="#000000" font-family="sans-serif" font-size="14" lengthAdjust="spacing" textLength="75.9404" x="113.29" y="973.4589">id = 1 (int)</text><line style="stroke:#181818;stroke-width:1;" x1="94.29" x2="255.3711" y1="980.7606" y2="980.7606"/><ellipse cx="104.29" cy="994.4091" fill="#84BE84" rx="3" ry="3" style="stroke:#038048;stroke-width:1;"/><text fill="#000000" font-family="sans-serif" font-size="14" lengthAdjust="spacing" textLength="72.9258" x="113.29" y="997.7557">addTrain()</text></g><!--class Scenario--><g class="entity" data-entity="Scenario" data-source-line="37" data-uid="ent0006" id="entity_Scenario"><rect fill="#F1F1F1" height="194.6719" rx="2.5" ry="2.5" style="stroke:#181818;stroke-width:0.5;" width="344.2744" x="290.7" y="645.3469"/><ellipse cx="428.157" cy="661.3469" fill="#ADD1B2" rx="11" ry="11" style="stroke:#181818;stroke-width:1;"/><path d="M431.1258,666.9875 Q430.5477,667.2844 429.907,667.425 Q429.2664,667.5813 428.5633,667.5813 Q426.0633,667.5813 424.7352,665.9406 Q423.4227,664.2844 423.4227,661.1594 Q423.4227,658.0344 424.7352,656.3781 Q426.0633,654.7219 428.5633,654.7219 Q429.2664,654.7219 429.907,654.8781 Q430.5633,655.0344 431.1258,655.3313 L431.1258,658.05 Q430.5008,657.4719 429.907,657.2063 Q429.3133,656.925 428.6883,656.925 Q427.3445,656.925 426.657,658.0031 Q425.9695,659.0656 425.9695,661.1594 Q425.9695,663.2531 426.657,664.3313 Q427.3445,665.3938 428.6883,665.3938 Q429.3133,665.3938 429.907,665.1281 Q430.5008,664.8469 431.1258,664.2688 L431.1258,666.9875 Z " fill="#000000"/><text fill="#000000" font-family="sans-serif" font-size="14" lengthAdjust="spacing" textLength="60.8604" x="448.657" y="666.1936">Scenario</text><line style="stroke:#181818;stroke-width:0.5;" x1="291.7" x2="633.9744" y1="677.3469" y2="677.3469"/><rect fill="none" height="6" style="stroke:#C82930;stroke-width:1;" width="6" x="298.7" y="687.9953"/><text fill="#000000" font-family="sans-serif" font-size="14" lengthAdjust="spacing" textLength="318.2744" x="310.7" y="694.342">technologyRestriction: TechnologyRestriction</text><rect fill="none" height="6" style="stroke:#C82930;stroke-width:1;" width="6" x="298.7" y="704.2922"/><text fill="#000000" font-family="sans-serif" font-size="14" lengthAdjust="spacing" textLength="104.7061" x="310.7" y="710.6389">budget:Budget</text><rect fill="none" height="6" style="stroke:#C82930;stroke-width:1;" width="6" x="298.7" y="720.5891"/><text fill="#000000" font-family="sans-serif" font-size="14" lengthAdjust="spacing" textLength="318.2744" x="310.7" y="726.9357">technologyRestriction: TechnologyRestriction</text><rect fill="#F24D5C" height="6" style="stroke:#C82930;stroke-width:1;" width="6" x="298.7" y="736.8859"/><text fill="#000000" font-family="sans-serif" font-size="14" lengthAdjust="spacing" textLength="264.5234" x="310.7" y="743.2326">getTrainRepository(): TrainRepository</text><line style="stroke:#181818;stroke-width:1;" x1="291.7" x2="633.9744" y1="750.5344" y2="750.5344"/><ellipse cx="301.7" cy="764.1828" fill="#84BE84" rx="3" ry="3" style="stroke:#038048;stroke-width:1;"/><text fill="#000000" font-family="sans-serif" font-size="14" lengthAdjust="spacing" textLength="186.5049" x="310.7" y="767.5295">getAvailableLocomotives()</text><ellipse cx="301.7" cy="780.4797" fill="#84BE84" rx="3" ry="3" style="stroke:#038048;stroke-width:1;"/><text fill="#000000" font-family="sans-serif" font-size="14" lengthAdjust="spacing" textLength="196.458" x="310.7" y="783.8264">convertToTechnologyType()</text><ellipse cx="301.7" cy="796.7766" fill="#84BE84" rx="3" ry="3" style="stroke:#038048;stroke-width:1;"/><text fill="#000000" font-family="sans-serif" font-size="14" lengthAdjust="spacing" textLength="129.8145" x="310.7" y="800.1232">getAllowedTechs()</text><ellipse cx="301.7" cy="813.0734" fill="#84BE84" rx="3" ry="3" style="stroke:#038048;stroke-width:1;"/><text fill="#000000" font-family="sans-serif" font-size="14" lengthAdjust="spacing" textLength="156.6045" x="310.7" y="816.4201">purchaseLocomotive()</text><text fill="#000000" font-family="sans-serif" font-size="14" lengthAdjust="spacing" textLength="4.4502" x="310.7" y="832.717">&#160;</text></g><!--class Train--><g class="entity" data-entity="Train" data-source-line="50" data-uid="ent0007" id="entity_Train"><rect fill="#F1F1F1" height="162.0781" rx="2.5" ry="2.5" style="stroke:#181818;stroke-width:0.5;" width="226.8467" x="129.41" y="1073.1969"/><ellipse cx="220.7586" cy="1089.1969" fill="#ADD1B2" rx="11" ry="11" style="stroke:#181818;stroke-width:1;"/><path d="M223.7274,1094.8375 Q223.1493,1095.1344 222.5086,1095.275 Q221.868,1095.4312 221.1649,1095.4312 Q218.6649,1095.4312 217.3368,1093.7906 Q216.0243,1092.1344 216.0243,1089.0094 Q216.0243,1085.8844 217.3368,1084.2281 Q218.6649,1082.5719 221.1649,1082.5719 Q221.868,1082.5719 222.5086,1082.7281 Q223.1649,1082.8844 223.7274,1083.1812 L223.7274,1085.9 Q223.1024,1085.3219 222.5086,1085.0562 Q221.9149,1084.775 221.2899,1084.775 Q219.9461,1084.775 219.2586,1085.8531 Q218.5711,1086.9156 218.5711,1089.0094 Q218.5711,1091.1031 219.2586,1092.1812 Q219.9461,1093.2437 221.2899,1093.2437 Q221.9149,1093.2437 222.5086,1092.9781 Q223.1024,1092.6969 223.7274,1092.1187 L223.7274,1094.8375 Z " fill="#000000"/><text fill="#000000" font-family="sans-serif" font-size="14" lengthAdjust="spacing" textLength="35.6494" x="241.2586" y="1094.0436">Train</text><line style="stroke:#181818;stroke-width:0.5;" x1="130.41" x2="355.2567" y1="1105.1969" y2="1105.1969"/><rect fill="none" height="6" style="stroke:#C82930;stroke-width:1;" width="6" x="137.41" y="1115.8453"/><text fill="#000000" font-family="sans-serif" font-size="14" lengthAdjust="spacing" textLength="40.1953" x="149.41" y="1122.192">id: int</text><rect fill="none" height="6" style="stroke:#C82930;stroke-width:1;" width="6" x="137.41" y="1132.1422"/><text fill="#000000" font-family="sans-serif" font-size="14" lengthAdjust="spacing" textLength="163.0234" x="149.41" y="1138.4889">locomotive:Locomotive</text><rect fill="none" height="6" style="stroke:#C82930;stroke-width:1;" width="6" x="137.41" y="1148.4391"/><text fill="#000000" font-family="sans-serif" font-size="14" lengthAdjust="spacing" textLength="85.7637" x="149.41" y="1154.7857">cargo:Cargo</text><line style="stroke:#181818;stroke-width:1;" x1="130.41" x2="355.2567" y1="1162.0875" y2="1162.0875"/><ellipse cx="140.41" cy="1175.7359" fill="#84BE84" rx="3" ry="3" style="stroke:#038048;stroke-width:1;"/><text fill="#000000" font-family="sans-serif" font-size="14" lengthAdjust="spacing" textLength="76.2412" x="149.41" y="1179.0826">getID(): int</text><ellipse cx="140.41" cy="1192.0328" fill="#84BE84" rx="3" ry="3" style="stroke:#038048;stroke-width:1;"/><text fill="#000000" font-family="sans-serif" font-size="14" lengthAdjust="spacing" textLength="200.8467" x="149.41" y="1195.3795">getLocomotive():Locomotive</text><ellipse cx="140.41" cy="1208.3297" fill="#84BE84" rx="3" ry="3" style="stroke:#038048;stroke-width:1;"/><text fill="#000000" font-family="sans-serif" font-size="14" lengthAdjust="spacing" textLength="126.2051" x="149.41" y="1211.6764">getCrago(): Cargo</text><ellipse cx="140.41" cy="1224.6266" fill="#84BE84" rx="3" ry="3" style="stroke:#038048;stroke-width:1;"/><text fill="#000000" font-family="sans-serif" font-size="14" lengthAdjust="spacing" textLength="113.2578" x="149.41" y="1227.9732">toString():String</text></g><!--class LocomotiveModel--><g class="entity" data-entity="LocomotiveModel" data-source-line="61" data-uid="ent0008" id="entity_LocomotiveModel"><rect fill="#F1F1F1" height="430.8281" rx="2.5" ry="2.5" style="stroke:#181818;stroke-width:0.5;" width="223.668" x="7" y="1566.2469"/><ellipse cx="53.0127" cy="1582.2469" fill="#EB937F" rx="11" ry="11" style="stroke:#181818;stroke-width:1;"/><path d="M57.1221,1588.2469 L49.4033,1588.2469 L49.4033,1575.8563 L57.1221,1575.8563 L57.1221,1578.0125 L51.8564,1578.0125 L51.8564,1580.6844 L56.6221,1580.6844 L56.6221,1582.8406 L51.8564,1582.8406 L51.8564,1586.0906 L57.1221,1586.0906 L57.1221,1588.2469 Z " fill="#000000"/><text fill="#000000" font-family="sans-serif" font-size="14" lengthAdjust="spacing" textLength="123.1426" x="73.5127" y="1587.0936">LocomotiveModel</text><line style="stroke:#181818;stroke-width:0.5;" x1="8" x2="229.668" y1="1598.2469" y2="1598.2469"/><text fill="#000000" font-family="sans-serif" font-size="14" lengthAdjust="spacing" textLength="136.1035" x="13" y="1615.242">FLYING_SCOTSMAN</text><text fill="#000000" font-family="sans-serif" font-size="14" lengthAdjust="spacing" textLength="98.9023" x="13" y="1631.5389">TREVITHICK_1</text><text fill="#000000" font-family="sans-serif" font-size="14" lengthAdjust="spacing" textLength="159.0518" x="13" y="1647.8357">STEPHENSON_ROCKET</text><text fill="#000000" font-family="sans-serif" font-size="14" lengthAdjust="spacing" textLength="78.5996" x="13" y="1664.1326">JOHN_BULL</text><text fill="#000000" font-family="sans-serif" font-size="14" lengthAdjust="spacing" textLength="70.3691" x="13" y="1680.4295">PRUSSIAN</text><text fill="#000000" font-family="sans-serif" font-size="14" lengthAdjust="spacing" textLength="38.4385" x="13" y="1696.7264">USRA</text><text fill="#000000" font-family="sans-serif" font-size="14" lengthAdjust="spacing" textLength="29.5313" x="13" y="1713.0232">CG1</text><text fill="#000000" font-family="sans-serif" font-size="14" lengthAdjust="spacing" textLength="57.4492" x="13" y="1729.3201">VULCAN</text><text fill="#000000" font-family="sans-serif" font-size="14" lengthAdjust="spacing" textLength="16.96" x="13" y="1745.617">F9</text><text fill="#000000" font-family="sans-serif" font-size="14" lengthAdjust="spacing" textLength="68.4346" x="13" y="1761.9139">ATLANTIC</text><text fill="#000000" font-family="sans-serif" font-size="14" lengthAdjust="spacing" textLength="26.6602" x="13" y="1778.2107">E69</text><text fill="#000000" font-family="sans-serif" font-size="14" lengthAdjust="spacing" textLength="76.583" x="13" y="1794.5076">EUROSTAR</text><line style="stroke:#181818;stroke-width:1;" x1="8" x2="229.668" y1="1801.8094" y2="1801.8094"/><rect fill="none" height="6" style="stroke:#C82930;stroke-width:1;" width="6" x="15" y="1812.4578"/><text fill="#000000" font-family="sans-serif" font-size="14" lengthAdjust="spacing" textLength="91.5264" x="27" y="1818.8045">startYear: int</text><rect fill="none" height="6" style="stroke:#C82930;stroke-width:1;" width="6" x="15" y="1828.7547"/><text fill="#000000" font-family="sans-serif" font-size="14" lengthAdjust="spacing" textLength="123.71" x="27" y="1835.1014">topSpeed: double</text><rect fill="none" height="6" style="stroke:#C82930;stroke-width:1;" width="6" x="15" y="1845.0516"/><text fill="#000000" font-family="sans-serif" font-size="14" lengthAdjust="spacing" textLength="167.207" x="27" y="1851.3982">acquisitionPrice: double</text><rect fill="none" height="6" style="stroke:#C82930;stroke-width:1;" width="6" x="15" y="1861.3484"/><text fill="#000000" font-family="sans-serif" font-size="14" lengthAdjust="spacing" textLength="86.2012" x="27" y="1867.6951">name:String</text><rect fill="none" height="6" style="stroke:#C82930;stroke-width:1;" width="6" x="15" y="1877.6453"/><text fill="#000000" font-family="sans-serif" font-size="14" lengthAdjust="spacing" textLength="151.4365" x="27" y="1883.992">type:LocomotiveType</text><line style="stroke:#181818;stroke-width:1;" x1="8" x2="229.668" y1="1891.2938" y2="1891.2938"/><ellipse cx="18" cy="1904.9422" fill="#84BE84" rx="3" ry="3" style="stroke:#038048;stroke-width:1;"/><text fill="#000000" font-family="sans-serif" font-size="14" lengthAdjust="spacing" textLength="122.582" x="27" y="1908.2889">getStartYear():int</text><ellipse cx="18" cy="1921.2391" fill="#84BE84" rx="3" ry="3" style="stroke:#038048;stroke-width:1;"/><text fill="#000000" font-family="sans-serif" font-size="14" lengthAdjust="spacing" textLength="126.7725" x="27" y="1924.5857">getTopSpeed():int</text><ellipse cx="18" cy="1937.5359" fill="#84BE84" rx="3" ry="3" style="stroke:#038048;stroke-width:1;"/><text fill="#000000" font-family="sans-serif" font-size="14" lengthAdjust="spacing" textLength="197.668" x="27" y="1940.8826">getAcquisitionPrice():double</text><ellipse cx="18" cy="1953.8328" fill="#84BE84" rx="3" ry="3" style="stroke:#038048;stroke-width:1;"/><text fill="#000000" font-family="sans-serif" font-size="14" lengthAdjust="spacing" textLength="121.7139" x="27" y="1957.1795">getName():String</text><ellipse cx="18" cy="1970.1297" fill="#84BE84" rx="3" ry="3" style="stroke:#038048;stroke-width:1;"/><text fill="#000000" font-family="sans-serif" font-size="14" lengthAdjust="spacing" textLength="188.4121" x="27" y="1973.4764">getType():LocomotiveType</text><text fill="#000000" font-family="sans-serif" font-size="14" lengthAdjust="spacing" textLength="4.4502" x="27" y="1989.7732">&#160;</text></g><!--class Locomotive--><g class="entity" data-entity="Locomotive" data-source-line="89" data-uid="ent0009" id="entity_Locomotive"><rect fill="#F1F1F1" height="210.9688" rx="2.5" ry="2.5" style="stroke:#181818;stroke-width:0.5;" width="299.9707" x="92.85" y="1295.2769"/><ellipse cx="198.0312" cy="1311.2769" fill="#ADD1B2" rx="11" ry="11" style="stroke:#181818;stroke-width:1;"/><path d="M200.9999,1316.9175 Q200.4218,1317.2144 199.7812,1317.355 Q199.1405,1317.5113 198.4374,1317.5113 Q195.9374,1317.5113 194.6093,1315.8706 Q193.2968,1314.2144 193.2968,1311.0894 Q193.2968,1307.9644 194.6093,1306.3081 Q195.9374,1304.6519 198.4374,1304.6519 Q199.1405,1304.6519 199.7812,1304.8081 Q200.4374,1304.9644 200.9999,1305.2613 L200.9999,1307.98 Q200.3749,1307.4019 199.7812,1307.1363 Q199.1874,1306.855 198.5624,1306.855 Q197.2187,1306.855 196.5312,1307.9331 Q195.8437,1308.9956 195.8437,1311.0894 Q195.8437,1313.1831 196.5312,1314.2613 Q197.2187,1315.3238 198.5624,1315.3238 Q199.1874,1315.3238 199.7812,1315.0581 Q200.3749,1314.7769 200.9999,1314.1988 L200.9999,1316.9175 Z " fill="#000000"/><text fill="#000000" font-family="sans-serif" font-size="14" lengthAdjust="spacing" textLength="81.1084" x="218.5312" y="1316.1236">Locomotive</text><line style="stroke:#181818;stroke-width:0.5;" x1="93.85" x2="391.8207" y1="1327.2769" y2="1327.2769"/><rect fill="none" height="6" style="stroke:#C82930;stroke-width:1;" width="6" x="100.85" y="1337.9253"/><text fill="#000000" font-family="sans-serif" font-size="14" lengthAdjust="spacing" textLength="171.4521" x="112.85" y="1344.272">model:LocomotiveModel</text><rect fill="none" height="6" style="stroke:#C82930;stroke-width:1;" width="6" x="100.85" y="1354.2222"/><text fill="#000000" font-family="sans-serif" font-size="14" lengthAdjust="spacing" textLength="151.4365" x="112.85" y="1360.5689">type:LocomotiveType</text><rect fill="none" height="6" style="stroke:#C82930;stroke-width:1;" width="6" x="100.85" y="1370.5191"/><text fill="#000000" font-family="sans-serif" font-size="14" lengthAdjust="spacing" textLength="89.7969" x="112.85" y="1376.8657">topSpeed:int</text><ellipse cx="103.85" cy="1389.8159" fill="none" rx="3" ry="3" style="stroke:#038048;stroke-width:1;"/><text fill="#000000" font-family="sans-serif" font-size="14" lengthAdjust="spacing" textLength="109.8467" x="112.85" y="1393.1626">ToString: String</text><line style="stroke:#181818;stroke-width:0.5;" x1="93.85" x2="391.8207" y1="1400.4644" y2="1400.4644"/><ellipse cx="103.85" cy="1414.1128" fill="#84BE84" rx="3" ry="3" style="stroke:#038048;stroke-width:1;"/><text fill="#000000" font-family="sans-serif" font-size="14" lengthAdjust="spacing" textLength="273.9707" x="112.85" y="1417.4595">getLocomotiveType(): LocomotiveType</text><ellipse cx="103.85" cy="1430.4097" fill="#84BE84" rx="3" ry="3" style="stroke:#038048;stroke-width:1;"/><text fill="#000000" font-family="sans-serif" font-size="14" lengthAdjust="spacing" textLength="122.582" x="112.85" y="1433.7564">getStartYear():int</text><ellipse cx="103.85" cy="1446.7066" fill="#84BE84" rx="3" ry="3" style="stroke:#038048;stroke-width:1;"/><text fill="#000000" font-family="sans-serif" font-size="14" lengthAdjust="spacing" textLength="156.2354" x="112.85" y="1450.0532">getTopSpeed():double</text><ellipse cx="103.85" cy="1463.0034" fill="#84BE84" rx="3" ry="3" style="stroke:#038048;stroke-width:1;"/><text fill="#000000" font-family="sans-serif" font-size="14" lengthAdjust="spacing" textLength="197.668" x="112.85" y="1466.3501">getAcquisitionPrice():double</text><ellipse cx="103.85" cy="1479.3003" fill="#84BE84" rx="3" ry="3" style="stroke:#038048;stroke-width:1;"/><text fill="#000000" font-family="sans-serif" font-size="14" lengthAdjust="spacing" textLength="126.1641" x="112.85" y="1482.647">getName(): String</text><ellipse cx="103.85" cy="1495.5972" fill="#84BE84" rx="3" ry="3" style="stroke:#038048;stroke-width:1;"/><text fill="#000000" font-family="sans-serif" font-size="14" lengthAdjust="spacing" textLength="203.8066" x="112.85" y="1498.9439">getModel():LocomotiveModel</text></g><!--class Budget--><g class="entity" data-entity="Budget" data-source-line="102" data-uid="ent0010" id="entity_Budget"><rect fill="#F1F1F1" height="113.1875" rx="2.5" ry="2.5" style="stroke:#181818;stroke-width:0.5;" width="199.7832" x="362.94" y="900.0169"/><ellipse cx="433.4048" cy="916.0169" fill="#ADD1B2" rx="11" ry="11" style="stroke:#181818;stroke-width:1;"/><path d="M436.3736,921.6575 Q435.7955,921.9544 435.1548,922.095 Q434.5142,922.2513 433.8111,922.2513 Q431.3111,922.2513 429.983,920.6106 Q428.6705,918.9544 428.6705,915.8294 Q428.6705,912.7044 429.983,911.0481 Q431.3111,909.3919 433.8111,909.3919 Q434.5142,909.3919 435.1548,909.5481 Q435.8111,909.7044 436.3736,910.0013 L436.3736,912.72 Q435.7486,912.1419 435.1548,911.8763 Q434.5611,911.595 433.9361,911.595 Q432.5923,911.595 431.9048,912.6731 Q431.2173,913.7356 431.2173,915.8294 Q431.2173,917.9231 431.9048,919.0013 Q432.5923,920.0638 433.9361,920.0638 Q434.5611,920.0638 435.1548,919.7981 Q435.7486,919.5169 436.3736,918.9388 L436.3736,921.6575 Z " fill="#000000"/><text fill="#000000" font-family="sans-serif" font-size="14" lengthAdjust="spacing" textLength="50.3535" x="453.9048" y="920.8636">Budget</text><line style="stroke:#181818;stroke-width:0.5;" x1="363.94" x2="561.7232" y1="932.0169" y2="932.0169"/><rect fill="none" height="6" style="stroke:#C82930;stroke-width:1;" width="6" x="370.94" y="942.6653"/><text fill="#000000" font-family="sans-serif" font-size="14" lengthAdjust="spacing" textLength="104.3027" x="382.94" y="949.012">founds: double</text><line style="stroke:#181818;stroke-width:1;" x1="363.94" x2="561.7232" y1="956.3138" y2="956.3138"/><ellipse cx="373.94" cy="969.9622" fill="#84BE84" rx="3" ry="3" style="stroke:#038048;stroke-width:1;"/><text fill="#000000" font-family="sans-serif" font-size="14" lengthAdjust="spacing" textLength="139.5283" x="382.94" y="973.3089">getFounds():Budget</text><ellipse cx="373.94" cy="986.2591" fill="#84BE84" rx="3" ry="3" style="stroke:#038048;stroke-width:1;"/><text fill="#000000" font-family="sans-serif" font-size="14" lengthAdjust="spacing" textLength="173.7832" x="382.94" y="989.6057">hasEnoughhFunds():void</text><ellipse cx="373.94" cy="1002.5559" fill="#84BE84" rx="3" ry="3" style="stroke:#038048;stroke-width:1;"/><text fill="#000000" font-family="sans-serif" font-size="14" lengthAdjust="spacing" textLength="145.3115" x="382.94" y="1005.9026">subtractFunds():void</text></g><!--class TechnologyType--><g class="entity" data-entity="TechnologyType" data-source-line="110" data-uid="ent0011" id="entity_TechnologyType"><rect fill="#F1F1F1" height="96.8906" rx="2.5" ry="2.5" style="stroke:#181818;stroke-width:0.5;" width="147.1377" x="857.27" y="1105.7969"/><ellipse cx="872.27" cy="1121.7969" fill="#EB937F" rx="11" ry="11" style="stroke:#181818;stroke-width:1;"/><path d="M876.3794,1127.7969 L868.6606,1127.7969 L868.6606,1115.4063 L876.3794,1115.4063 L876.3794,1117.5625 L871.1138,1117.5625 L871.1138,1120.2344 L875.8794,1120.2344 L875.8794,1122.3906 L871.1138,1122.3906 L871.1138,1125.6406 L876.3794,1125.6406 L876.3794,1127.7969 Z " fill="#000000"/><text fill="#000000" font-family="sans-serif" font-size="14" lengthAdjust="spacing" textLength="115.1377" x="886.27" y="1126.6436">TechnologyType</text><line style="stroke:#181818;stroke-width:0.5;" x1="858.27" x2="1003.4077" y1="1137.7969" y2="1137.7969"/><text fill="#000000" font-family="sans-serif" font-size="14" lengthAdjust="spacing" textLength="49.2871" x="863.27" y="1154.792">DIESEL</text><text fill="#000000" font-family="sans-serif" font-size="14" lengthAdjust="spacing" textLength="67.4502" x="863.27" y="1171.0889">ELECTRIC</text><text fill="#000000" font-family="sans-serif" font-size="14" lengthAdjust="spacing" textLength="47.9404" x="863.27" y="1187.3857">STEAM</text><line style="stroke:#181818;stroke-width:0.5;" x1="858.27" x2="1003.4077" y1="1194.6875" y2="1194.6875"/></g><!--class LocomotiveType--><g class="entity" data-entity="LocomotiveType" data-source-line="117" data-uid="ent0012" id="entity_LocomotiveType"><rect fill="#F1F1F1" height="96.8906" rx="2.5" ry="2.5" style="stroke:#181818;stroke-width:0.5;" width="201.499" x="266.08" y="1733.2169"/><ellipse cx="305.4042" cy="1749.2169" fill="#EB937F" rx="11" ry="11" style="stroke:#181818;stroke-width:1;"/><path d="M309.5135,1755.2169 L301.7948,1755.2169 L301.7948,1742.8262 L309.5135,1742.8262 L309.5135,1744.9825 L304.2479,1744.9825 L304.2479,1747.6544 L309.0135,1747.6544 L309.0135,1749.8106 L304.2479,1749.8106 L304.2479,1753.0606 L309.5135,1753.0606 L309.5135,1755.2169 Z " fill="#000000"/><text fill="#000000" font-family="sans-serif" font-size="14" lengthAdjust="spacing" textLength="115.4453" x="324.8095" y="1754.0636">LocomotiveType</text><line style="stroke:#181818;stroke-width:0.5;" x1="267.08" x2="466.579" y1="1765.2169" y2="1765.2169"/><text fill="#000000" font-family="sans-serif" font-size="14" lengthAdjust="spacing" textLength="150.1035" x="272.08" y="1782.212">DIESEL_LOCOMOTIVE</text><text fill="#000000" font-family="sans-serif" font-size="14" lengthAdjust="spacing" textLength="189.499" x="272.08" y="1798.5089">ELECTRICITY_LOCOMOTIVE</text><text fill="#000000" font-family="sans-serif" font-size="14" lengthAdjust="spacing" textLength="148.7568" x="272.08" y="1814.8057">STEAM_LOCOMOTIVE</text><line style="stroke:#181818;stroke-width:0.5;" x1="267.08" x2="466.579" y1="1822.1075" y2="1822.1075"/></g><!--class TimeRestrictions--><g class="entity" data-entity="TimeRestrictions" data-source-line="125" data-uid="ent0013" id="entity_TimeRestrictions"><rect fill="#F1F1F1" height="113.1875" rx="2.5" ry="2.5" style="stroke:#181818;stroke-width:0.5;" width="153.0322" x="597.32" y="900.0169"/><ellipse cx="614.0128" cy="916.0169" fill="#ADD1B2" rx="11" ry="11" style="stroke:#181818;stroke-width:1;"/><path d="M616.9815,921.6575 Q616.4034,921.9544 615.7628,922.095 Q615.1221,922.2513 614.419,922.2513 Q611.919,922.2513 610.5909,920.6106 Q609.2784,918.9544 609.2784,915.8294 Q609.2784,912.7044 610.5909,911.0481 Q611.919,909.3919 614.419,909.3919 Q615.1221,909.3919 615.7628,909.5481 Q616.419,909.7044 616.9815,910.0013 L616.9815,912.72 Q616.3565,912.1419 615.7628,911.8763 Q615.169,911.595 614.544,911.595 Q613.2003,911.595 612.5128,912.6731 Q611.8253,913.7356 611.8253,915.8294 Q611.8253,917.9231 612.5128,919.0013 Q613.2003,920.0638 614.544,920.0638 Q615.169,920.0638 615.7628,919.7981 Q616.3565,919.5169 616.9815,918.9388 L616.9815,921.6575 Z " fill="#000000"/><text fill="#000000" font-family="sans-serif" font-size="14" lengthAdjust="spacing" textLength="117.2705" x="628.3889" y="920.8636">TimeRestrictions</text><line style="stroke:#181818;stroke-width:0.5;" x1="598.32" x2="749.3522" y1="932.0169" y2="932.0169"/><rect fill="none" height="6" style="stroke:#C82930;stroke-width:1;" width="6" x="605.32" y="942.6653"/><text fill="#000000" font-family="sans-serif" font-size="14" lengthAdjust="spacing" textLength="91.5264" x="617.32" y="949.012">startYear: int</text><rect fill="none" height="6" style="stroke:#C82930;stroke-width:1;" width="6" x="605.32" y="958.9622"/><text fill="#000000" font-family="sans-serif" font-size="14" lengthAdjust="spacing" textLength="85.292" x="617.32" y="965.3089">endYear: int</text><line style="stroke:#181818;stroke-width:1;" x1="598.32" x2="749.3522" y1="972.6106" y2="972.6106"/><ellipse cx="608.32" cy="986.2591" fill="#84BE84" rx="3" ry="3" style="stroke:#038048;stroke-width:1;"/><text fill="#000000" font-family="sans-serif" font-size="14" lengthAdjust="spacing" textLength="127.0322" x="617.32" y="989.6057">getStartYear(): int</text><ellipse cx="608.32" cy="1002.5559" fill="#84BE84" rx="3" ry="3" style="stroke:#038048;stroke-width:1;"/><text fill="#000000" font-family="sans-serif" font-size="14" lengthAdjust="spacing" textLength="119.4375" x="617.32" y="1005.9026">getEndYear(): int</text></g><!--class YearCounter--><g class="entity" data-entity="YearCounter" data-source-line="133" data-uid="ent0014" id="entity_YearCounter"><rect fill="#F1F1F1" height="80.5938" rx="2.5" ry="2.5" style="stroke:#181818;stroke-width:0.5;" width="144.5488" x="669.56" y="702.3769"/><ellipse cx="695.8566" cy="718.3769" fill="#ADD1B2" rx="11" ry="11" style="stroke:#181818;stroke-width:1;"/><path d="M698.8253,724.0175 Q698.2472,724.3144 697.6066,724.455 Q696.966,724.6112 696.2628,724.6112 Q693.7628,724.6112 692.4347,722.9706 Q691.1222,721.3144 691.1222,718.1894 Q691.1222,715.0644 692.4347,713.4081 Q693.7628,711.7519 696.2628,711.7519 Q696.966,711.7519 697.6066,711.9081 Q698.2628,712.0644 698.8253,712.3612 L698.8253,715.08 Q698.2003,714.5019 697.6066,714.2362 Q697.0128,713.955 696.3878,713.955 Q695.0441,713.955 694.3566,715.0331 Q693.6691,716.0956 693.6691,718.1894 Q693.6691,720.2831 694.3566,721.3612 Q695.0441,722.4237 696.3878,722.4237 Q697.0128,722.4237 697.6066,722.1581 Q698.2003,721.8769 698.8253,721.2987 L698.8253,724.0175 Z " fill="#000000"/><text fill="#000000" font-family="sans-serif" font-size="14" lengthAdjust="spacing" textLength="87.4453" x="712.3669" y="723.2236">YearCounter</text><line style="stroke:#181818;stroke-width:0.5;" x1="670.56" x2="813.1088" y1="734.3769" y2="734.3769"/><rect fill="none" height="6" style="stroke:#C82930;stroke-width:1;" width="6" x="677.56" y="745.0253"/><text fill="#000000" font-family="sans-serif" font-size="14" lengthAdjust="spacing" textLength="109.9766" x="689.56" y="751.372">currentYear: int</text><line style="stroke:#181818;stroke-width:0.5;" x1="670.56" x2="813.1088" y1="758.6737" y2="758.6737"/><ellipse cx="680.56" cy="772.3222" fill="#84BE84" rx="3" ry="3" style="stroke:#038048;stroke-width:1;"/><text fill="#000000" font-family="sans-serif" font-size="14" lengthAdjust="spacing" textLength="118.5488" x="689.56" y="775.6689">getCurrentYear()</text></g><!--class TechnologyRestriction--><g class="entity" data-entity="TechnologyRestriction" data-source-line="144" data-uid="ent0015" id="entity_TechnologyRestriction"><rect fill="#F1F1F1" height="64.2969" rx="2.5" ry="2.5" style="stroke:#181818;stroke-width:0.5;" width="290.3594" x="785.65" y="924.4569"/><ellipse cx="848.5372" cy="940.4569" fill="#ADD1B2" rx="11" ry="11" style="stroke:#181818;stroke-width:1;"/><path d="M851.506,946.0975 Q850.9278,946.3944 850.2872,946.535 Q849.6466,946.6913 848.9435,946.6913 Q846.4435,946.6913 845.1153,945.0506 Q843.8028,943.3944 843.8028,940.2694 Q843.8028,937.1444 845.1153,935.4881 Q846.4435,933.8319 848.9435,933.8319 Q849.6466,933.8319 850.2872,933.9881 Q850.9435,934.1444 851.506,934.4413 L851.506,937.16 Q850.881,936.5819 850.2872,936.3163 Q849.6935,936.035 849.0685,936.035 Q847.7247,936.035 847.0372,937.1131 Q846.3497,938.1756 846.3497,940.2694 Q846.3497,942.3631 847.0372,943.4413 Q847.7247,944.5038 849.0685,944.5038 Q849.6935,944.5038 850.2872,944.2381 Q850.881,943.9569 851.506,943.3788 L851.506,946.0975 Z " fill="#000000"/><text fill="#000000" font-family="sans-serif" font-size="14" lengthAdjust="spacing" textLength="156.085" x="869.0372" y="945.3036">TechnologyRestriction</text><line style="stroke:#181818;stroke-width:0.5;" x1="786.65" x2="1075.0094" y1="956.4569" y2="956.4569"/><line style="stroke:#181818;stroke-width:0.5;" x1="786.65" x2="1075.0094" y1="964.4569" y2="964.4569"/><ellipse cx="796.65" cy="978.1053" fill="#84BE84" rx="3" ry="3" style="stroke:#038048;stroke-width:1;"/><text fill="#000000" font-family="sans-serif" font-size="14" lengthAdjust="spacing" textLength="264.3594" x="805.65" y="981.452">getTechList(): List&lt;TechnologyType&gt;</text></g><!--link BuyLocomotiveUI to BuyLocomotiveController--><g class="link" data-entity-1="BuyLocomotiveUI" data-entity-2="BuyLocomotiveController" data-source-line="151" data-uid="lnk16" id="link_BuyLocomotiveUI_BuyLocomotiveController"><path codeLine="151" d="M561.83,157.8469 C561.83,176.1169 561.83,190.9669 561.83,211.3469" fill="none" id="BuyLocomotiveUI-to-BuyLocomotiveController" style="stroke:#181818;stroke-width:1;stroke-dasharray:7.0,7.0;"/><polygon fill="#181818" points="561.83,217.3469,565.83,208.3469,561.83,212.3469,557.83,208.3469,561.83,217.3469" style="stroke:#181818;stroke-width:1;"/></g><!--link Simulation to Scenario--><g class="link" data-entity-1="Simulation" data-entity-2="Scenario" data-source-line="154" data-uid="lnk17" id="link_Simulation_Scenario"><path codeLine="154" d="M608.55,585.7069 C591.48,603.9769 576.1071,620.4436 557.0671,640.8136" fill="none" id="Simulation-to-Scenario" style="stroke:#181818;stroke-width:1;"/><polygon fill="#181818" points="552.97,645.1969,562.0379,641.3533,556.3843,641.5441,556.1935,635.8905,552.97,645.1969" style="stroke:#181818;stroke-width:1;"/></g><!--link BuyLocomotiveController to Simulation--><g class="link" data-entity-1="BuyLocomotiveController" data-entity-2="Simulation" data-source-line="155" data-uid="lnk18" id="link_BuyLocomotiveController_Simulation"><path codeLine="155" d="M606.99,412.4769 C616.47,432.7869 623.6297,448.1111 632.1397,466.3211" fill="none" id="BuyLocomotiveController-to-Simulation" style="stroke:#181818;stroke-width:1;"/><polygon fill="#181818" points="634.68,471.7569,634.4934,461.9098,632.5631,467.2271,627.2458,465.2968,634.68,471.7569" style="stroke:#181818;stroke-width:1;"/></g><!--link BuyLocomotiveController to Scenario--><g class="link" data-entity-1="BuyLocomotiveController" data-entity-2="Scenario" data-source-line="156" data-uid="lnk19" id="link_BuyLocomotiveController_Scenario"><path codeLine="156" d="M517.73,412.4669 C510.15,431.9269 503.05,452.4469 497.83,472.1569 C482.92,528.4869 474.8232,587.2243 469.8432,639.1143" fill="none" id="BuyLocomotiveController-to-Scenario" style="stroke:#181818;stroke-width:1;stroke-dasharray:7.0,7.0;"/><polygon fill="#181818" points="469.27,645.0869,474.1115,636.5102,469.7477,640.1097,466.1481,635.7459,469.27,645.0869" style="stroke:#181818;stroke-width:1;"/></g><!--link TrainRepository to Train--><g class="link" data-entity-1="TrainRepository" data-entity-2="Train" data-source-line="158" data-uid="lnk20" id="link_TrainRepository_Train"><path codeLine="158" d="M191.47,1005.4669 C198.51,1025.7169 204.9306,1044.1993 212.8706,1067.0493" fill="none" id="TrainRepository-to-Train" style="stroke:#181818;stroke-width:1;"/><polygon fill="#181818" points="214.84,1072.7169,215.6643,1062.9026,213.1988,1067.9939,208.1075,1065.5284,214.84,1072.7169" style="stroke:#181818;stroke-width:1;"/></g><!--link Scenario to TrainRepository--><g class="link" data-entity-1="Scenario" data-entity-2="TrainRepository" data-source-line="159" data-uid="lnk21" id="link_Scenario_TrainRepository"><path codeLine="159" d="M331.48,840.3369 C299.58,863.8069 271.683,884.3413 244.443,904.3813" fill="none" id="Scenario-to-TrainRepository" style="stroke:#181818;stroke-width:1;"/><polygon fill="#181818" points="239.61,907.9369,249.2299,905.8255,243.6375,904.9739,244.4891,899.3815,239.61,907.9369" style="stroke:#181818;stroke-width:1;"/></g><!--link Scenario to Budget--><g class="link" data-entity-1="Scenario" data-entity-2="Budget" data-source-line="162" data-uid="lnk22" id="link_Scenario_Budget"><path codeLine="162" d="M462.83,840.3369 C462.83,860.6469 462.83,875.4069 462.83,893.6169" fill="none" id="Scenario-to-Budget" style="stroke:#181818;stroke-width:1;"/><polygon fill="#181818" points="462.83,899.6169,466.83,890.6169,462.83,894.6169,458.83,890.6169,462.83,899.6169" style="stroke:#181818;stroke-width:1;"/></g><!--link Scenario to TimeRestrictions--><g class="link" data-entity-1="Scenario" data-entity-2="TimeRestrictions" data-source-line="163" data-uid="lnk23" id="link_Scenario_TimeRestrictions"><path codeLine="163" d="M559.07,840.3369 C579.29,860.6469 595.7267,877.1549 613.8567,895.3649" fill="none" id="Scenario-to-TimeRestrictions" style="stroke:#181818;stroke-width:1;"/><polygon fill="#181818" points="618.09,899.6169,614.5747,890.4167,614.5623,896.0736,608.9054,896.0611,618.09,899.6169" style="stroke:#181818;stroke-width:1;"/></g><!--link Scenario to TechnologyRestriction--><g class="link" data-entity-1="Scenario" data-entity-2="TechnologyRestriction" data-source-line="164" data-uid="lnk24" id="link_Scenario_TechnologyRestriction"><path codeLine="164" d="M635.35,832.3069 C640.89,834.9369 646.4,837.5069 651.83,840.0169 C717.66,870.3669 788.1767,899.4247 844.2567,921.7847" fill="none" id="Scenario-to-TechnologyRestriction" style="stroke:#181818;stroke-width:1;"/><polygon fill="#181818" points="849.83,924.0069,842.9515,916.9581,845.1856,922.1551,839.9886,924.3892,849.83,924.0069" style="stroke:#181818;stroke-width:1;"/></g><!--link TechnologyRestriction to TechnologyType--><g class="link" data-entity-1="TechnologyRestriction" data-entity-2="TechnologyType" data-source-line="165" data-uid="lnk25" id="link_TechnologyRestriction_TechnologyType"><path codeLine="165" d="M930.83,989.0369 C930.83,1020.4669 930.83,1063.2169 930.83,1099.4369" fill="none" id="TechnologyRestriction-to-TechnologyType" style="stroke:#181818;stroke-width:1;"/><polygon fill="#181818" points="930.83,1105.4369,934.83,1096.4369,930.83,1100.4369,926.83,1096.4369,930.83,1105.4369" style="stroke:#181818;stroke-width:1;"/></g><!--link Simulation to YearCounter--><g class="link" data-entity-1="Simulation" data-entity-2="YearCounter" data-source-line="166" data-uid="lnk26" id="link_Simulation_YearCounter"><path codeLine="166" d="M682.22,585.7069 C696.24,622.3769 712.0683,663.8021 724.5983,696.5921" fill="none" id="Simulation-to-YearCounter" style="stroke:#181818;stroke-width:1;"/><polygon fill="#181818" points="726.74,702.1969,727.2639,692.362,724.9552,697.5263,719.7909,695.2176,726.74,702.1969" style="stroke:#181818;stroke-width:1;"/></g><!--link Train to Locomotive--><g class="link" data-entity-1="Train" data-entity-2="Locomotive" data-source-line="168" data-uid="lnk27" id="link_Train_Locomotive"><path codeLine="168" d="M242.83,1235.6469 C242.83,1254.5769 242.83,1269.0269 242.83,1288.8569" fill="none" id="Train-to-Locomotive" style="stroke:#181818;stroke-width:1;"/><polygon fill="#181818" points="242.83,1294.8569,246.83,1285.8569,242.83,1289.8569,238.83,1285.8569,242.83,1294.8569" style="stroke:#181818;stroke-width:1;"/></g><!--link Locomotive to LocomotiveModel--><g class="link" data-entity-1="Locomotive" data-entity-2="LocomotiveModel" data-source-line="169" data-uid="lnk28" id="link_Locomotive_LocomotiveModel"><path codeLine="169" d="M208.54,1506.5569 C202.41,1525.2769 197.6973,1539.6949 190.9773,1560.2149" fill="none" id="Locomotive-to-LocomotiveModel" style="stroke:#181818;stroke-width:1;"/><polygon fill="#181818" points="189.11,1565.9169,195.7123,1558.6087,190.6661,1561.1652,188.1096,1556.119,189.11,1565.9169" style="stroke:#181818;stroke-width:1;"/></g><!--link Locomotive to LocomotiveType--><g class="link" data-entity-1="Locomotive" data-entity-2="LocomotiveType" data-source-line="170" data-uid="lnk29" id="link_Locomotive_LocomotiveType"><path codeLine="170" d="M277.13,1506.5569 C301.36,1580.5869 330.8238,1670.6245 349.3238,1727.1545" fill="none" id="Locomotive-to-LocomotiveType" style="stroke:#181818;stroke-width:1;"/><polygon fill="#181818" points="351.19,1732.8569,352.1924,1723.0592,349.6349,1728.1049,344.5891,1725.5474,351.19,1732.8569" style="stroke:#181818;stroke-width:1;"/></g><!--link Scenario to Train--><g class="link" data-entity-1="Scenario" data-entity-2="Train" data-source-line="172" data-uid="lnk30" id="link_Scenario_Train"><path codeLine="172" d="M384.56,840.3169 C370.75,859.5069 357.18,879.9469 345.83,900.0169 C314.6,955.2769 289.9238,1016.2721 271.5338,1067.3121" fill="none" id="Scenario-to-Train" style="stroke:#181818;stroke-width:1;stroke-dasharray:7.0,7.0;"/><polygon fill="#181818" points="269.5,1072.9569,276.3139,1065.8456,271.1949,1068.2529,268.7876,1063.1338,269.5,1072.9569" style="stroke:#181818;stroke-width:1;"/></g><!--SRC=[bLRDRkCs4BxpANXh0bUBtSi2QxG154NUgAlOWIG7oCcW9SOc89CkIMNX1dsUFa6VO5-iG-g7bE8KsOiZVlF3cMzcED5CrnIlyuyVl-00XmeJVAp9YSfVSOA_4wwn5dZRd02lHIaEGhDdYb1P4wNmTNDA1t2TlA2PRFZ5vHm_2rQXsGrJnbVuJ5XDjZLrkYfbIZl5enI7eruhAXT2EgreBrX91xK0xmclV3VtZIptH3aLzFVPq2B1jHHrJIL-GG7ZIXDUKZp76JqAnRIG9nIead8YcG0uxpu1P8Uc9fe9Rk3XW8B0-66QaPhzHGStZAgBIpJRKHqrKbAk7ocHO-IwgU1WiAqVOgTqZYiZAWaFdvw4hE0mvEZYWRICTT9b1dnuiHf98GdZBbj3s0HoRYS2GndM1bF0WIdSRrRZ2c1MuT_n9tp1kBuqdCn8LLbX6sOVPqSdEDAqt7DHYzqfeqfBLfe88PPpC0gsbgjvIzdF6hylQnFq__4k-3ELkX3kak9q7AfLr-8xhOpCQX-xVXoLTKBiYwLjZe4o5BYHcZiR59H4xiGyChzzWCcDYTuOcPD_WMzf-qoIdJ3AhVrCYnn8uJlJ5FR314HvSy3Ey4vKj8P2Oxn87vFbrqqUhOhyBbm2KcJnGrBS9j6tpISuvaLyVnilyzLoawsYRt41s1-hs-NcUfscy7sVhVCyiPRhF0lXJ_JLs3siqyYYYo_m4nPfk2oI23xZpmQ8rzagByBCJXQ6DfPsTcpAs3IWEEP7Ie6uIZHG9u18-MV3e8nGxNkeElL4d1nebwqrXf9vD9aAufxOlByA-EdfBRhBF2YSN0QYxZOZNS9zZb_hmdR9gqjTCpW9TCJ1y3-VrWCw_dNW0FPKlEw6xbOyCNb7dbuoxqeLUxdQQ4V9MWJDYgxr1ctlUJOZ3Pa_YOPNofMkBSh2ek2o6_qPJ5NCHRFRxnUTfDqSgjd2qrJg4ThtztXcNz1D4kTnYk8qZeeCUWzQERopxzHa77prJRgALdUh8dc81ykaUFHXwyS7lBUlO0VgFKiAKXutDxGdvPLtVDsMmzZ7hM8F3MmQC0BAD9NcUIdTxd6suuLqPeU0vSdvcNi- -vWyo7Tnzlrj5v8HzQk-tHoZabnPej0l6Qt9Ztz-_4iLclnBWJzyk7fhbuEbjm63uChjxRUslrLoc_4jDNFfu0jDzw5nOZ7KwpZ8soneBEuwUMmoQOw9zEnUEujEzEtGJxZnwzccP65lURZFYQITvZV5zZONkY7F-lyF]--></g></svg>