<svg xmlns="http://www.w3.org/2000/svg" xmlns:xlink="http://www.w3.org/1999/xlink" contentStyleType="text/css" data-diagram-type="SEQUENCE" height="335px" preserveAspectRatio="none" style="width:364px;height:335px;background:#FFFFFF;" version="1.1" viewBox="0 0 364 335" width="364px" zoomAndPan="magnify"><title>US009 - I want to buy a locomotive</title><defs/><g><text fill="#000000" font-family="sans-serif" font-size="14" font-weight="bold" lengthAdjust="spacing" textLength="276.377" x="43.1138" y="27.9951">US009 - I want to buy a locomotive</text><g><title>Player</title><rect fill="#000000" fill-opacity="0.00000" height="136.5313" width="8" x="25.7827" y="118.5938"/><line style="stroke:#181818;stroke-width:0.5;stroke-dasharray:5.0,5.0;" x1="29" x2="29" y1="118.5938" y2="255.125"/></g><g><title>System</title><rect fill="#000000" fill-opacity="0.00000" height="136.5313" width="8" x="321.5015" y="118.5938"/><line style="stroke:#181818;stroke-width:0.5;stroke-dasharray:5.0,5.0;" x1="325.3984" x2="325.3984" y1="118.5938" y2="255.125"/></g><g class="participant participant-head" data-participant="Player"><text fill="#000000" font-family="sans-serif" font-size="14" lengthAdjust="spacing" textLength="43.5654" x="5" y="115.292">Player</text><ellipse cx="29.7827" cy="50.7969" fill="#E2E2F0" rx="8" ry="8" style="stroke:#181818;stroke-width:0.5;"/><path d="M29.7827,58.7969 L29.7827,85.7969 M16.7827,66.7969 L42.7827,66.7969 M29.7827,85.7969 L16.7827,100.7969 M29.7827,85.7969 L42.7827,100.7969" fill="none" style="stroke:#181818;stroke-width:0.5;"/></g><g class="participant participant-tail" data-participant="Player"><text fill="#000000" font-family="sans-serif" font-size="14" lengthAdjust="spacing" textLength="43.5654" x="5" y="267.1201">Player</text><ellipse cx="29.7827" cy="278.9219" fill="#E2E2F0" rx="8" ry="8" style="stroke:#181818;stroke-width:0.5;"/><path d="M29.7827,286.9219 L29.7827,313.9219 M16.7827,294.9219 L42.7827,294.9219 M29.7827,313.9219 L16.7827,328.9219 M29.7827,313.9219 L42.7827,328.9219" fill="none" style="stroke:#181818;stroke-width:0.5;"/></g><g class="participant participant-head" data-participant="System"><rect fill="#E2E2F0" height="30.2969" rx="2.5" ry="2.5" style="stroke:#181818;stroke-width:0.5;" width="66.2061" x="292.3984" y="87.2969"/><text fill="#000000" font-family="sans-serif" font-size="14" lengthAdjust="spacing" textLength="52.2061" x="299.3984" y="107.292">System</text></g><g class="participant participant-tail" data-participant="System"><rect fill="#E2E2F0" height="30.2969" rx="2.5" ry="2.5" style="stroke:#181818;stroke-width:0.5;" width="66.2061" x="292.3984" y="254.125"/><text fill="#000000" font-family="sans-serif" font-size="14" lengthAdjust="spacing" textLength="52.2061" x="299.3984" y="274.1201">System</text></g><g class="message" data-participant-1="Player" data-participant-2="System"><polygon fill="#181818" points="313.5015,145.7266,323.5015,149.7266,313.5015,153.7266,317.5015,149.7266" style="stroke:#181818;stroke-width:1;"/><line style="stroke:#181818;stroke-width:1;" x1="29.7827" x2="319.5015" y1="149.7266" y2="149.7266"/><text fill="#000000" font-family="sans-serif" font-size="13" font-weight="bold" lengthAdjust="spacing" textLength="9.0454" x="36.7827" y="144.6606">1</text><text fill="#000000" font-family="sans-serif" font-size="13" lengthAdjust="spacing" textLength="156.8633" x="49.8281" y="144.6606">Select "Buy locomotive"</text></g><g class="message" data-participant-1="System" data-participant-2="Player"><polygon fill="#181818" points="40.7827,174.8594,30.7827,178.8594,40.7827,182.8594,36.7827,178.8594" style="stroke:#181818;stroke-width:1;"/><line style="stroke:#181818;stroke-width:1;stroke-dasharray:2.0,2.0;" x1="34.7827" x2="324.5015" y1="178.8594" y2="178.8594"/><text fill="#000000" font-family="sans-serif" font-size="13" font-weight="bold" lengthAdjust="spacing" textLength="9.0454" x="46.7827" y="173.7935">2</text><text fill="#000000" font-family="sans-serif" font-size="13" lengthAdjust="spacing" textLength="258.6733" x="59.8281" y="173.7935">Display the list of available locomotives</text></g><g class="message" data-participant-1="Player" data-participant-2="System"><polygon fill="#181818" points="313.5015,203.9922,323.5015,207.9922,313.5015,211.9922,317.5015,207.9922" style="stroke:#181818;stroke-width:1;"/><line style="stroke:#181818;stroke-width:1;" x1="29.7827" x2="319.5015" y1="207.9922" y2="207.9922"/><text fill="#000000" font-family="sans-serif" font-size="13" font-weight="bold" lengthAdjust="spacing" textLength="9.0454" x="36.7827" y="202.9263">3</text><text fill="#000000" font-family="sans-serif" font-size="13" lengthAdjust="spacing" textLength="115.9209" x="49.8281" y="202.9263">Select locomotive</text></g><g class="message" data-participant-1="System" data-participant-2="Player"><polygon fill="#181818" points="40.7827,233.125,30.7827,237.125,40.7827,241.125,36.7827,237.125" style="stroke:#181818;stroke-width:1;"/><line style="stroke:#181818;stroke-width:1;stroke-dasharray:2.0,2.0;" x1="34.7827" x2="324.5015" y1="237.125" y2="237.125"/><text fill="#000000" font-family="sans-serif" font-size="13" font-weight="bold" lengthAdjust="spacing" textLength="9.0454" x="46.7827" y="232.0591">4</text><text fill="#000000" font-family="sans-serif" font-size="13" lengthAdjust="spacing" textLength="240.6777" x="59.8281" y="232.0591">Display confirmation of the purchase</text></g><!--SRC=[VSx12i8m3CRn-vxYO_V2hefu42_UXE43P2LZXROPRJhPsziXieFYCU4VVg6Y4aiOE3LaLHBkdjOwg5FFUFHTTu313K-A2XKCPGN1YvKWwXPktZtC6VsQbGEEwDcpLRINskvb-qbFnkpjrUMvhg4Jmxkia16qaFCqL7-_pd-Wxsz-4bRYw58WTH8tPYFdakn4cLy0]--></g></svg>