<svg xmlns="http://www.w3.org/2000/svg" xmlns:xlink="http://www.w3.org/1999/xlink" contentStyleType="text/css" height="1264px" preserveAspectRatio="none" style="width:1145px;height:1264px;background:#FFFFFF;" version="1.1" viewBox="0 0 1145 1264" width="1145px" zoomAndPan="magnify"><title>US001 - Create a map (SD)</title><defs/><g><text fill="#000000" font-family="sans-serif" font-size="14" font-weight="bold" lengthAdjust="spacing" textLength="178.4713" x="482.6025" y="29.9659">US001 - Create a map (SD)</text><rect fill="#FFFFFF" height="1028.4745" style="stroke:#181818;stroke-width:1.0;" width="10" x="22.6559" y="134.1358"/><rect fill="#FFFFFF" height="76.412" style="stroke:#181818;stroke-width:1.0;" width="10" x="282.4361" y="157.8419"/><rect fill="#FFFFFF" height="121.118" style="stroke:#181818;stroke-width:1.0;" width="10" x="282.4361" y="265.9599"/><rect fill="#FFFFFF" height="76.412" style="stroke:#181818;stroke-width:1.0;" width="10" x="282.4361" y="418.784"/><rect fill="#FFFFFF" height="76.412" style="stroke:#181818;stroke-width:1.0;" width="10" x="282.4361" y="526.902"/><rect fill="#FFFFFF" height="536.5902" style="stroke:#181818;stroke-width:1.0;" width="10" x="282.4361" y="635.0201"/><rect fill="#FFFFFF" height="330.0602" style="stroke:#181818;stroke-width:1.0;" width="10" x="530.8723" y="800.8441"/><rect fill="#FFFFFF" height="31.706" style="stroke:#181818;stroke-width:1.0;" width="10" x="779.3085" y="832.5501"/><rect fill="#FFFFFF" height="76.412" style="stroke:#181818;stroke-width:1.0;" width="10" x="779.3085" y="895.9622"/><rect fill="#FFFFFF" height="31.706" style="stroke:#181818;stroke-width:1.0;" width="10" x="779.3085" y="1004.0802"/><rect fill="#FFFFFF" height="31.706" style="stroke:#181818;stroke-width:1.0;" width="10" x="779.3085" y="1067.4923"/><rect fill="#FFFFFF" height="31.706" style="stroke:#181818;stroke-width:1.0;" width="10" x="989.4857" y="972.3742"/><rect fill="#FFFFFF" height="31.706" style="stroke:#181818;stroke-width:1.0;" width="10" x="1077.8715" y="1035.7862"/><line style="stroke:#181818;stroke-width:0.5;stroke-dasharray:5.0,5.0;" x1="27" x2="27" y1="124.1358" y2="1180.6103"/><line style="stroke:#181818;stroke-width:0.5;stroke-dasharray:5.0,5.0;" x1="286.7003" x2="286.7003" y1="124.1358" y2="1180.6103"/><line style="stroke:#181818;stroke-width:0.5;stroke-dasharray:5.0,5.0;" x1="535.5376" x2="535.5376" y1="124.1358" y2="1180.6103"/><line style="stroke:#181818;stroke-width:0.5;stroke-dasharray:5.0,5.0;" x1="783.4027" x2="783.4027" y1="124.1358" y2="1180.6103"/><line style="stroke:#181818;stroke-width:0.5;stroke-dasharray:5.0,5.0;" x1="993.9048" x2="993.9048" y1="124.1358" y2="1180.6103"/><line style="stroke:#181818;stroke-width:0.5;stroke-dasharray:5.0,5.0;" x1="1082.0667" x2="1082.0667" y1="124.1358" y2="1180.6103"/><text fill="#000000" font-family="sans-serif" font-size="14" lengthAdjust="spacing" textLength="39.3119" x="5" y="120.0339">Editor</text><ellipse cx="27.6559" cy="53.5679" fill="#E2E2F0" rx="8" ry="8" style="stroke:#181818;stroke-width:0.5;"/><path d="M27.6559,61.5679 L27.6559,88.5679 M14.6559,69.5679 L40.6559,69.5679 M27.6559,88.5679 L14.6559,103.5679 M27.6559,88.5679 L40.6559,103.5679 " fill="none" style="stroke:#181818;stroke-width:0.5;"/><text fill="#000000" font-family="sans-serif" font-size="14" lengthAdjust="spacing" textLength="39.3119" x="5" y="1194.5762">Editor</text><ellipse cx="27.6559" cy="1207.1782" fill="#E2E2F0" rx="8" ry="8" style="stroke:#181818;stroke-width:0.5;"/><path d="M27.6559,1215.1782 L27.6559,1242.1782 M14.6559,1223.1782 L40.6559,1223.1782 M27.6559,1242.1782 L14.6559,1257.1782 M27.6559,1242.1782 L40.6559,1257.1782 " fill="none" style="stroke:#181818;stroke-width:0.5;"/><rect fill="#E2E2F0" height="33.0679" rx="2.5" ry="2.5" style="stroke:#181818;stroke-width:0.5;" width="101.4717" x="236.7003" y="90.0679"/><text fill="#000000" font-family="sans-serif" font-size="14" lengthAdjust="spacing" textLength="87.4717" x="243.7003" y="112.0339">CreateMapUI</text><rect fill="#E2E2F0" height="33.0679" rx="2.5" ry="2.5" style="stroke:#181818;stroke-width:0.5;" width="101.4717" x="236.7003" y="1179.6103"/><text fill="#000000" font-family="sans-serif" font-size="14" lengthAdjust="spacing" textLength="87.4717" x="243.7003" y="1201.5762">CreateMapUI</text><rect fill="#E2E2F0" height="33.0679" rx="2.5" ry="2.5" style="stroke:#181818;stroke-width:0.5;" width="152.6695" x="459.5376" y="90.0679"/><text fill="#000000" font-family="sans-serif" font-size="14" lengthAdjust="spacing" textLength="138.6695" x="466.5376" y="112.0339">CreateMapController</text><rect fill="#E2E2F0" height="33.0679" rx="2.5" ry="2.5" style="stroke:#181818;stroke-width:0.5;" width="152.6695" x="459.5376" y="1179.6103"/><text fill="#000000" font-family="sans-serif" font-size="14" lengthAdjust="spacing" textLength="138.6695" x="466.5376" y="1201.5762">CreateMapController</text><rect fill="#E2E2F0" height="33.0679" rx="2.5" ry="2.5" style="stroke:#181818;stroke-width:0.5;" width="77.8118" x="745.4027" y="90.0679"/><text fill="#000000" font-family="sans-serif" font-size="14" lengthAdjust="spacing" textLength="63.8118" x="752.4027" y="112.0339">Simulator</text><rect fill="#E2E2F0" height="33.0679" rx="2.5" ry="2.5" style="stroke:#181818;stroke-width:0.5;" width="77.8118" x="745.4027" y="1179.6103"/><text fill="#000000" font-family="sans-serif" font-size="14" lengthAdjust="spacing" textLength="63.8118" x="752.4027" y="1201.5762">Simulator</text><rect fill="#E2E2F0" height="33.0679" rx="2.5" ry="2.5" style="stroke:#181818;stroke-width:0.5;" width="43.1619" x="972.9048" y="90.0679"/><text fill="#000000" font-family="sans-serif" font-size="14" lengthAdjust="spacing" textLength="29.1619" x="979.9048" y="112.0339">Map</text><rect fill="#E2E2F0" height="33.0679" rx="2.5" ry="2.5" style="stroke:#181818;stroke-width:0.5;" width="43.1619" x="972.9048" y="1179.6103"/><text fill="#000000" font-family="sans-serif" font-size="14" lengthAdjust="spacing" textLength="29.1619" x="979.9048" y="1201.5762">Map</text><rect fill="#E2E2F0" height="33.0679" rx="2.5" ry="2.5" style="stroke:#181818;stroke-width:0.5;" width="113.6096" x="1026.0667" y="90.0679"/><text fill="#000000" font-family="sans-serif" font-size="14" lengthAdjust="spacing" textLength="99.6096" x="1033.0667" y="112.0339">MapRepository</text><rect fill="#E2E2F0" height="33.0679" rx="2.5" ry="2.5" style="stroke:#181818;stroke-width:0.5;" width="113.6096" x="1026.0667" y="1179.6103"/><text fill="#000000" font-family="sans-serif" font-size="14" lengthAdjust="spacing" textLength="99.6096" x="1033.0667" y="1201.5762">MapRepository</text><rect fill="#FFFFFF" height="1028.4745" style="stroke:#181818;stroke-width:1.0;" width="10" x="22.6559" y="134.1358"/><rect fill="#FFFFFF" height="76.412" style="stroke:#181818;stroke-width:1.0;" width="10" x="282.4361" y="157.8419"/><rect fill="#FFFFFF" height="121.118" style="stroke:#181818;stroke-width:1.0;" width="10" x="282.4361" y="265.9599"/><rect fill="#FFFFFF" height="76.412" style="stroke:#181818;stroke-width:1.0;" width="10" x="282.4361" y="418.784"/><rect fill="#FFFFFF" height="76.412" style="stroke:#181818;stroke-width:1.0;" width="10" x="282.4361" y="526.902"/><rect fill="#FFFFFF" height="536.5902" style="stroke:#181818;stroke-width:1.0;" width="10" x="282.4361" y="635.0201"/><rect fill="#FFFFFF" height="330.0602" style="stroke:#181818;stroke-width:1.0;" width="10" x="530.8723" y="800.8441"/><rect fill="#FFFFFF" height="31.706" style="stroke:#181818;stroke-width:1.0;" width="10" x="779.3085" y="832.5501"/><rect fill="#FFFFFF" height="76.412" style="stroke:#181818;stroke-width:1.0;" width="10" x="779.3085" y="895.9622"/><rect fill="#FFFFFF" height="31.706" style="stroke:#181818;stroke-width:1.0;" width="10" x="779.3085" y="1004.0802"/><rect fill="#FFFFFF" height="31.706" style="stroke:#181818;stroke-width:1.0;" width="10" x="779.3085" y="1067.4923"/><rect fill="#FFFFFF" height="31.706" style="stroke:#181818;stroke-width:1.0;" width="10" x="989.4857" y="972.3742"/><rect fill="#FFFFFF" height="31.706" style="stroke:#181818;stroke-width:1.0;" width="10" x="1077.8715" y="1035.7862"/><polygon fill="#181818" points="270.4361,153.8419,280.4361,157.8419,270.4361,161.8419,274.4361,157.8419" style="stroke:#181818;stroke-width:1.0;"/><line style="stroke:#181818;stroke-width:1.0;" x1="32.6559" x2="276.4361" y1="157.8419" y2="157.8419"/><text fill="#000000" font-family="sans-serif" font-size="13" font-weight="bold" lengthAdjust="spacing" textLength="7.436" x="39.6559" y="152.0328">1</text><text fill="#000000" font-family="sans-serif" font-size="13" lengthAdjust="spacing" textLength="162.6561" x="51.0919" y="152.0328">Select create map function</text><line style="stroke:#181818;stroke-width:1.0;stroke-dasharray:2.0,2.0;" x1="292.4361" x2="334.4361" y1="189.5479" y2="189.5479"/><line style="stroke:#181818;stroke-width:1.0;stroke-dasharray:2.0,2.0;" x1="334.4361" x2="334.4361" y1="189.5479" y2="202.5479"/><line style="stroke:#181818;stroke-width:1.0;stroke-dasharray:2.0,2.0;" x1="293.4361" x2="334.4361" y1="202.5479" y2="202.5479"/><polygon fill="#181818" points="303.4361,198.5479,293.4361,202.5479,303.4361,206.5479,299.4361,202.5479" style="stroke:#181818;stroke-width:1.0;"/><text fill="#000000" font-family="sans-serif" font-size="13" font-weight="bold" lengthAdjust="spacing" textLength="7.436" x="299.4361" y="183.7389">2</text><text fill="#000000" font-family="sans-serif" font-size="13" lengthAdjust="spacing" textLength="72.4491" x="310.8721" y="183.7389">readName()</text><polygon fill="#181818" points="43.6559,230.2539,33.6559,234.2539,43.6559,238.2539,39.6559,234.2539" style="stroke:#181818;stroke-width:1.0;"/><line style="stroke:#181818;stroke-width:1.0;stroke-dasharray:2.0,2.0;" x1="37.6559" x2="286.4361" y1="234.2539" y2="234.2539"/><text fill="#000000" font-family="sans-serif" font-size="13" font-weight="bold" lengthAdjust="spacing" textLength="7.436" x="49.6559" y="228.4449">3</text><text fill="#000000" font-family="sans-serif" font-size="13" lengthAdjust="spacing" textLength="111.5791" x="61.0919" y="228.4449">Ask for map name</text><polygon fill="#181818" points="270.4361,261.9599,280.4361,265.9599,270.4361,269.9599,274.4361,265.9599" style="stroke:#181818;stroke-width:1.0;"/><line style="stroke:#181818;stroke-width:1.0;" x1="32.6559" x2="276.4361" y1="265.9599" y2="265.9599"/><text fill="#000000" font-family="sans-serif" font-size="13" font-weight="bold" lengthAdjust="spacing" textLength="7.436" x="39.6559" y="260.1509">4</text><text fill="#000000" font-family="sans-serif" font-size="13" lengthAdjust="spacing" textLength="119.2101" x="51.0919" y="260.1509">Give the map name</text><line style="stroke:#181818;stroke-width:1.0;stroke-dasharray:2.0,2.0;" x1="292.4361" x2="334.4361" y1="297.6659" y2="297.6659"/><line style="stroke:#181818;stroke-width:1.0;stroke-dasharray:2.0,2.0;" x1="334.4361" x2="334.4361" y1="297.6659" y2="310.6659"/><line style="stroke:#181818;stroke-width:1.0;stroke-dasharray:2.0,2.0;" x1="293.4361" x2="334.4361" y1="310.6659" y2="310.6659"/><polygon fill="#181818" points="303.4361,306.6659,293.4361,310.6659,303.4361,314.6659,299.4361,310.6659" style="stroke:#181818;stroke-width:1.0;"/><text fill="#000000" font-family="sans-serif" font-size="13" font-weight="bold" lengthAdjust="spacing" textLength="7.436" x="299.4361" y="291.8569">5</text><text fill="#000000" font-family="sans-serif" font-size="13" lengthAdjust="spacing" textLength="102.4661" x="310.8721" y="291.8569">validCharacters()</text><line style="stroke:#181818;stroke-width:1.0;stroke-dasharray:2.0,2.0;" x1="292.4361" x2="334.4361" y1="342.3719" y2="342.3719"/><line style="stroke:#181818;stroke-width:1.0;stroke-dasharray:2.0,2.0;" x1="334.4361" x2="334.4361" y1="342.3719" y2="355.3719"/><line style="stroke:#181818;stroke-width:1.0;stroke-dasharray:2.0,2.0;" x1="293.4361" x2="334.4361" y1="355.3719" y2="355.3719"/><polygon fill="#181818" points="303.4361,351.3719,293.4361,355.3719,303.4361,359.3719,299.4361,355.3719" style="stroke:#181818;stroke-width:1.0;"/><text fill="#000000" font-family="sans-serif" font-size="13" font-weight="bold" lengthAdjust="spacing" textLength="7.436" x="299.4361" y="336.5629">6</text><text fill="#000000" font-family="sans-serif" font-size="13" lengthAdjust="spacing" textLength="76.8301" x="310.8721" y="336.5629">readHeight()</text><polygon fill="#181818" points="43.6559,383.0779,33.6559,387.0779,43.6559,391.0779,39.6559,387.0779" style="stroke:#181818;stroke-width:1.0;"/><line style="stroke:#181818;stroke-width:1.0;stroke-dasharray:2.0,2.0;" x1="37.6559" x2="286.4361" y1="387.0779" y2="387.0779"/><text fill="#000000" font-family="sans-serif" font-size="13" font-weight="bold" lengthAdjust="spacing" textLength="7.436" x="49.6559" y="381.2689">7</text><text fill="#000000" font-family="sans-serif" font-size="13" lengthAdjust="spacing" textLength="116.2071" x="61.0919" y="381.2689">Ask for map height</text><polygon fill="#181818" points="270.4361,414.784,280.4361,418.784,270.4361,422.784,274.4361,418.784" style="stroke:#181818;stroke-width:1.0;"/><line style="stroke:#181818;stroke-width:1.0;" x1="32.6559" x2="276.4361" y1="418.784" y2="418.784"/><text fill="#000000" font-family="sans-serif" font-size="13" font-weight="bold" lengthAdjust="spacing" textLength="7.436" x="39.6559" y="412.975">8</text><text fill="#000000" font-family="sans-serif" font-size="13" lengthAdjust="spacing" textLength="123.8381" x="51.0919" y="412.975">Give the map height</text><line style="stroke:#181818;stroke-width:1.0;stroke-dasharray:2.0,2.0;" x1="292.4361" x2="334.4361" y1="450.49" y2="450.49"/><line style="stroke:#181818;stroke-width:1.0;stroke-dasharray:2.0,2.0;" x1="334.4361" x2="334.4361" y1="450.49" y2="463.49"/><line style="stroke:#181818;stroke-width:1.0;stroke-dasharray:2.0,2.0;" x1="293.4361" x2="334.4361" y1="463.49" y2="463.49"/><polygon fill="#181818" points="303.4361,459.49,293.4361,463.49,303.4361,467.49,299.4361,463.49" style="stroke:#181818;stroke-width:1.0;"/><text fill="#000000" font-family="sans-serif" font-size="13" font-weight="bold" lengthAdjust="spacing" textLength="7.436" x="299.4361" y="444.681">9</text><text fill="#000000" font-family="sans-serif" font-size="13" lengthAdjust="spacing" textLength="78.6891" x="310.8721" y="444.681">readLength()</text><polygon fill="#181818" points="43.6559,491.196,33.6559,495.196,43.6559,499.196,39.6559,495.196" style="stroke:#181818;stroke-width:1.0;"/><line style="stroke:#181818;stroke-width:1.0;stroke-dasharray:2.0,2.0;" x1="37.6559" x2="286.4361" y1="495.196" y2="495.196"/><text fill="#000000" font-family="sans-serif" font-size="13" font-weight="bold" lengthAdjust="spacing" textLength="14.872" x="49.6559" y="489.387">10</text><text fill="#000000" font-family="sans-serif" font-size="13" lengthAdjust="spacing" textLength="116.2071" x="68.5279" y="489.387">Ask for map length</text><polygon fill="#181818" points="270.4361,522.902,280.4361,526.902,270.4361,530.902,274.4361,526.902" style="stroke:#181818;stroke-width:1.0;"/><line style="stroke:#181818;stroke-width:1.0;" x1="32.6559" x2="276.4361" y1="526.902" y2="526.902"/><text fill="#000000" font-family="sans-serif" font-size="13" font-weight="bold" lengthAdjust="spacing" textLength="14.872" x="39.6559" y="521.093">11</text><text fill="#000000" font-family="sans-serif" font-size="13" lengthAdjust="spacing" textLength="123.8381" x="58.5279" y="521.093">Give the map length</text><line style="stroke:#181818;stroke-width:1.0;stroke-dasharray:2.0,2.0;" x1="292.4361" x2="334.4361" y1="558.608" y2="558.608"/><line style="stroke:#181818;stroke-width:1.0;stroke-dasharray:2.0,2.0;" x1="334.4361" x2="334.4361" y1="558.608" y2="571.608"/><line style="stroke:#181818;stroke-width:1.0;stroke-dasharray:2.0,2.0;" x1="293.4361" x2="334.4361" y1="571.608" y2="571.608"/><polygon fill="#181818" points="303.4361,567.608,293.4361,571.608,303.4361,575.608,299.4361,571.608" style="stroke:#181818;stroke-width:1.0;"/><text fill="#000000" font-family="sans-serif" font-size="13" font-weight="bold" lengthAdjust="spacing" textLength="14.872" x="299.4361" y="552.799">12</text><text fill="#000000" font-family="sans-serif" font-size="13" lengthAdjust="spacing" textLength="67.1451" x="318.3081" y="552.799">readScale()</text><polygon fill="#181818" points="43.6559,599.314,33.6559,603.314,43.6559,607.314,39.6559,603.314" style="stroke:#181818;stroke-width:1.0;"/><line style="stroke:#181818;stroke-width:1.0;stroke-dasharray:2.0,2.0;" x1="37.6559" x2="286.4361" y1="603.314" y2="603.314"/><text fill="#000000" font-family="sans-serif" font-size="13" font-weight="bold" lengthAdjust="spacing" textLength="14.872" x="49.6559" y="597.505">13</text><text fill="#000000" font-family="sans-serif" font-size="13" lengthAdjust="spacing" textLength="107.2111" x="68.5279" y="597.505">Ask for map scale</text><polygon fill="#181818" points="270.4361,631.0201,280.4361,635.0201,270.4361,639.0201,274.4361,635.0201" style="stroke:#181818;stroke-width:1.0;"/><line style="stroke:#181818;stroke-width:1.0;" x1="32.6559" x2="276.4361" y1="635.0201" y2="635.0201"/><text fill="#000000" font-family="sans-serif" font-size="13" font-weight="bold" lengthAdjust="spacing" textLength="14.872" x="39.6559" y="629.2111">14</text><text fill="#000000" font-family="sans-serif" font-size="13" lengthAdjust="spacing" textLength="114.8421" x="58.5279" y="629.2111">Give the map scale</text><line style="stroke:#181818;stroke-width:1.0;stroke-dasharray:2.0,2.0;" x1="292.4361" x2="334.4361" y1="666.7261" y2="666.7261"/><line style="stroke:#181818;stroke-width:1.0;stroke-dasharray:2.0,2.0;" x1="334.4361" x2="334.4361" y1="666.7261" y2="679.7261"/><line style="stroke:#181818;stroke-width:1.0;stroke-dasharray:2.0,2.0;" x1="293.4361" x2="334.4361" y1="679.7261" y2="679.7261"/><polygon fill="#181818" points="303.4361,675.7261,293.4361,679.7261,303.4361,683.7261,299.4361,679.7261" style="stroke:#181818;stroke-width:1.0;"/><text fill="#000000" font-family="sans-serif" font-size="13" font-weight="bold" lengthAdjust="spacing" textLength="14.872" x="299.4361" y="660.9171">15</text><text fill="#000000" font-family="sans-serif" font-size="13" lengthAdjust="spacing" textLength="103.7531" x="318.3081" y="660.9171">isValidInt(length)</text><line style="stroke:#181818;stroke-width:1.0;stroke-dasharray:2.0,2.0;" x1="292.4361" x2="334.4361" y1="711.4321" y2="711.4321"/><line style="stroke:#181818;stroke-width:1.0;stroke-dasharray:2.0,2.0;" x1="334.4361" x2="334.4361" y1="711.4321" y2="724.4321"/><line style="stroke:#181818;stroke-width:1.0;stroke-dasharray:2.0,2.0;" x1="293.4361" x2="334.4361" y1="724.4321" y2="724.4321"/><polygon fill="#181818" points="303.4361,720.4321,293.4361,724.4321,303.4361,728.4321,299.4361,724.4321" style="stroke:#181818;stroke-width:1.0;"/><text fill="#000000" font-family="sans-serif" font-size="13" font-weight="bold" lengthAdjust="spacing" textLength="14.872" x="299.4361" y="705.6231">16</text><text fill="#000000" font-family="sans-serif" font-size="13" lengthAdjust="spacing" textLength="103.7531" x="318.3081" y="705.6231">isValidInt(height)</text><line style="stroke:#181818;stroke-width:1.0;stroke-dasharray:2.0,2.0;" x1="292.4361" x2="334.4361" y1="756.1381" y2="756.1381"/><line style="stroke:#181818;stroke-width:1.0;stroke-dasharray:2.0,2.0;" x1="334.4361" x2="334.4361" y1="756.1381" y2="769.1381"/><line style="stroke:#181818;stroke-width:1.0;stroke-dasharray:2.0,2.0;" x1="293.4361" x2="334.4361" y1="769.1381" y2="769.1381"/><polygon fill="#181818" points="303.4361,765.1381,293.4361,769.1381,303.4361,773.1381,299.4361,769.1381" style="stroke:#181818;stroke-width:1.0;"/><text fill="#000000" font-family="sans-serif" font-size="13" font-weight="bold" lengthAdjust="spacing" textLength="14.872" x="299.4361" y="750.3291">17</text><text fill="#000000" font-family="sans-serif" font-size="13" lengthAdjust="spacing" textLength="94.7571" x="318.3081" y="750.3291">isValidInt(scale)</text><polygon fill="#181818" points="518.8723,796.8441,528.8723,800.8441,518.8723,804.8441,522.8723,800.8441" style="stroke:#181818;stroke-width:1.0;"/><line style="stroke:#181818;stroke-width:1.0;" x1="292.4361" x2="524.8723" y1="800.8441" y2="800.8441"/><text fill="#000000" font-family="sans-serif" font-size="13" font-weight="bold" lengthAdjust="spacing" textLength="14.872" x="299.4361" y="795.0351">18</text><text fill="#000000" font-family="sans-serif" font-size="13" lengthAdjust="spacing" textLength="200.5642" x="318.3081" y="795.0351">createMap(name, length, height)</text><polygon fill="#181818" points="767.3085,828.5501,777.3085,832.5501,767.3085,836.5501,771.3085,832.5501" style="stroke:#181818;stroke-width:1.0;"/><line style="stroke:#181818;stroke-width:1.0;" x1="540.8723" x2="773.3085" y1="832.5501" y2="832.5501"/><text fill="#000000" font-family="sans-serif" font-size="13" font-weight="bold" lengthAdjust="spacing" textLength="14.872" x="547.8723" y="826.7411">19</text><text fill="#000000" font-family="sans-serif" font-size="13" lengthAdjust="spacing" textLength="87.0741" x="566.7443" y="826.7411">getSimulator()</text><polygon fill="#181818" points="551.8723,860.2562,541.8723,864.2562,551.8723,868.2562,547.8723,864.2562" style="stroke:#181818;stroke-width:1.0;"/><line style="stroke:#181818;stroke-width:1.0;stroke-dasharray:2.0,2.0;" x1="545.8723" x2="783.3085" y1="864.2562" y2="864.2562"/><text fill="#000000" font-family="sans-serif" font-size="13" font-weight="bold" lengthAdjust="spacing" textLength="14.872" x="557.8723" y="858.4472">20</text><text fill="#000000" font-family="sans-serif" font-size="13" lengthAdjust="spacing" textLength="59.2541" x="576.7443" y="858.4472">Simulator</text><polygon fill="#181818" points="767.3085,891.9622,777.3085,895.9622,767.3085,899.9622,771.3085,895.9622" style="stroke:#181818;stroke-width:1.0;"/><line style="stroke:#181818;stroke-width:1.0;" x1="540.8723" x2="773.3085" y1="895.9622" y2="895.9622"/><text fill="#000000" font-family="sans-serif" font-size="13" font-weight="bold" lengthAdjust="spacing" textLength="14.872" x="547.8723" y="890.1532">21</text><text fill="#000000" font-family="sans-serif" font-size="13" lengthAdjust="spacing" textLength="200.5642" x="566.7443" y="890.1532">createMap(name, length, height)</text><line style="stroke:#181818;stroke-width:1.0;stroke-dasharray:2.0,2.0;" x1="789.3085" x2="831.3085" y1="927.6682" y2="927.6682"/><line style="stroke:#181818;stroke-width:1.0;stroke-dasharray:2.0,2.0;" x1="831.3085" x2="831.3085" y1="927.6682" y2="940.6682"/><line style="stroke:#181818;stroke-width:1.0;stroke-dasharray:2.0,2.0;" x1="790.3085" x2="831.3085" y1="940.6682" y2="940.6682"/><polygon fill="#181818" points="800.3085,936.6682,790.3085,940.6682,800.3085,944.6682,796.3085,940.6682" style="stroke:#181818;stroke-width:1.0;"/><text fill="#000000" font-family="sans-serif" font-size="13" font-weight="bold" lengthAdjust="spacing" textLength="14.872" x="796.3085" y="921.8592">22</text><text fill="#000000" font-family="sans-serif" font-size="13" lengthAdjust="spacing" textLength="133.1071" x="815.1806" y="921.8592">isNameUnique(name)</text><polygon fill="#181818" points="977.4857,968.3742,987.4857,972.3742,977.4857,976.3742,981.4857,972.3742" style="stroke:#181818;stroke-width:1.0;"/><line style="stroke:#181818;stroke-width:1.0;" x1="784.3085" x2="983.4857" y1="972.3742" y2="972.3742"/><text fill="#000000" font-family="sans-serif" font-size="13" font-weight="bold" lengthAdjust="spacing" textLength="14.872" x="791.3085" y="966.5652">23</text><text fill="#000000" font-family="sans-serif" font-size="13" lengthAdjust="spacing" textLength="162.3052" x="810.1806" y="966.5652">Map(name, length, height)</text><polygon fill="#181818" points="800.3085,1000.0802,790.3085,1004.0802,800.3085,1008.0802,796.3085,1004.0802" style="stroke:#181818;stroke-width:1.0;"/><line style="stroke:#181818;stroke-width:1.0;stroke-dasharray:2.0,2.0;" x1="794.3085" x2="993.4857" y1="1004.0802" y2="1004.0802"/><text fill="#000000" font-family="sans-serif" font-size="13" font-weight="bold" lengthAdjust="spacing" textLength="14.872" x="806.3085" y="998.2712">24</text><text fill="#000000" font-family="sans-serif" font-size="13" lengthAdjust="spacing" textLength="27.443" x="825.1806" y="998.2712">map</text><polygon fill="#181818" points="1065.8715,1031.7862,1075.8715,1035.7862,1065.8715,1039.7862,1069.8715,1035.7862" style="stroke:#181818;stroke-width:1.0;"/><line style="stroke:#181818;stroke-width:1.0;" x1="784.3085" x2="1071.8715" y1="1035.7862" y2="1035.7862"/><text fill="#000000" font-family="sans-serif" font-size="13" font-weight="bold" lengthAdjust="spacing" textLength="14.872" x="791.3085" y="1029.9772">25</text><text fill="#000000" font-family="sans-serif" font-size="13" lengthAdjust="spacing" textLength="85.2411" x="810.1806" y="1029.9772">addMap(Map)</text><polygon fill="#181818" points="800.3085,1063.4923,790.3085,1067.4923,800.3085,1071.4923,796.3085,1067.4923" style="stroke:#181818;stroke-width:1.0;"/><line style="stroke:#181818;stroke-width:1.0;stroke-dasharray:2.0,2.0;" x1="794.3085" x2="1081.8715" y1="1067.4923" y2="1067.4923"/><text fill="#000000" font-family="sans-serif" font-size="13" font-weight="bold" lengthAdjust="spacing" textLength="14.872" x="806.3085" y="1061.6833">26</text><text fill="#000000" font-family="sans-serif" font-size="13" lengthAdjust="spacing" textLength="3.38" x="825.1806" y="1061.6833">&#160;</text><polygon fill="#181818" points="551.8723,1095.1983,541.8723,1099.1983,551.8723,1103.1983,547.8723,1099.1983" style="stroke:#181818;stroke-width:1.0;"/><line style="stroke:#181818;stroke-width:1.0;stroke-dasharray:2.0,2.0;" x1="545.8723" x2="783.3085" y1="1099.1983" y2="1099.1983"/><text fill="#000000" font-family="sans-serif" font-size="13" font-weight="bold" lengthAdjust="spacing" textLength="14.872" x="557.8723" y="1093.3893">27</text><text fill="#000000" font-family="sans-serif" font-size="13" lengthAdjust="spacing" textLength="27.079" x="576.7443" y="1093.3893">Map</text><polygon fill="#181818" points="303.4361,1126.9043,293.4361,1130.9043,303.4361,1134.9043,299.4361,1130.9043" style="stroke:#181818;stroke-width:1.0;"/><line style="stroke:#181818;stroke-width:1.0;stroke-dasharray:2.0,2.0;" x1="297.4361" x2="534.8723" y1="1130.9043" y2="1130.9043"/><text fill="#000000" font-family="sans-serif" font-size="13" font-weight="bold" lengthAdjust="spacing" textLength="14.872" x="309.4361" y="1125.0953">28</text><text fill="#000000" font-family="sans-serif" font-size="13" lengthAdjust="spacing" textLength="117.6241" x="328.3081" y="1125.0953">map created status</text><polygon fill="#181818" points="38.6559,1158.6103,28.6559,1162.6103,38.6559,1166.6103,34.6559,1162.6103" style="stroke:#181818;stroke-width:1.0;"/><line style="stroke:#181818;stroke-width:1.0;stroke-dasharray:2.0,2.0;" x1="32.6559" x2="281.4361" y1="1162.6103" y2="1162.6103"/><text fill="#000000" font-family="sans-serif" font-size="13" font-weight="bold" lengthAdjust="spacing" textLength="14.872" x="44.6559" y="1156.8013">29</text><text fill="#000000" font-family="sans-serif" font-size="13" lengthAdjust="spacing" textLength="206.9082" x="63.5279" y="1156.8013">Display map created confirmation</text><!--SRC=[fPN1ReCm38RFy1G-5gcLjciFawPssYPjEmnrzmpS4Ys4ZeHAVVlPG4kWqB5HgMfZxC-_4yTOQHN29hovkOK5h78K5a50AlOm2zU1xul2Phf8Fp7tHMIp71vYIJy-h-I1lKy6h_e3YxkQyohsc-SbXAWmiX1LR2Pl2qt1cQQOCyK9yJtFMS6Y3OGbq29-4odEWXxNIiKIxiqNR4aE9zJax7in3cGR4Fue3mWsGGVnBxa7eMIyIaHEqPYRNjMN1JwXt2LsT8b9wJwno1eouLXUKEziCbgrAjqdgguX4rI7aL3ZkycmzqJD5SC7-lnBjJGVt5NFsiwgyeE_X5Jd_AUGKZ3DWqw84x7AjCqpfP2sApePPtnlvlKHpU6Kc32NPJS0Ukprc3bTADD22TxV9UpGdfVbwJNGivsjNXEqw5TCi5Q4SxQDVQIgtseVAzDbIiFpRgFbTu4bDkW6t05b9C-hUGVBQXHHV6dm6DULaTOF7GxxjmdjchZ3kpBVSPyPlYD7OeeuPitq3RhiIvARjg6S7tVWRVqzoZk8AubXJ0kzNcwFiys3xTCT53mVgYQAmLXX2-DxlTEcTM669jTQchqInnOrolHMvgaeNy8EkNwL_m00]--></g></svg>