<svg xmlns="http://www.w3.org/2000/svg" xmlns:xlink="http://www.w3.org/1999/xlink" contentStyleType="text/css" height="1048px" preserveAspectRatio="none" style="width:644px;height:1048px;background:#FFFFFF;" version="1.1" viewBox="0 0 644 1048" width="644px" zoomAndPan="magnify"><title>US001 - Create Map</title><defs/><g><text fill="#000000" font-family="sans-serif" font-size="14" font-weight="bold" lengthAdjust="spacing" textLength="134.6235" x="247.8146" y="24.9659">US001 - Create Map</text><!--class Map--><g id="elem_Map"><rect codeLine="3" fill="#F1F1F1" height="143.3396" id="Map" rx="2.5" ry="2.5" style="stroke:#181818;stroke-width:0.5;" width="405.7205" x="7" y="898.0679"/><ellipse cx="191.0293" cy="914.0679" fill="#ADD1B2" rx="11" ry="11" style="stroke:#181818;stroke-width:1.0;"/><path d="M193.9981,919.7085 Q193.4199,920.0054 192.7793,920.146 Q192.1387,920.3023 191.4356,920.3023 Q188.9356,920.3023 187.6074,918.6617 Q186.2949,917.0054 186.2949,913.8804 Q186.2949,910.7554 187.6074,909.0992 Q188.9356,907.4429 191.4356,907.4429 Q192.1387,907.4429 192.7793,907.5992 Q193.4356,907.7554 193.9981,908.0523 L193.9981,910.771 Q193.3731,910.1929 192.7793,909.9273 Q192.1856,909.646 191.5606,909.646 Q190.2168,909.646 189.5293,910.7242 Q188.8418,911.7867 188.8418,913.8804 Q188.8418,915.9742 189.5293,917.0523 Q190.2168,918.1148 191.5606,918.1148 Q192.1856,918.1148 192.7793,917.8492 Q193.3731,917.5679 193.9981,916.9898 L193.9981,919.7085 Z " fill="#000000"/><text fill="#000000" font-family="sans-serif" font-size="14" lengthAdjust="spacing" textLength="29.1619" x="211.5293" y="919.4999">Map</text><line style="stroke:#181818;stroke-width:0.5;" x1="8" x2="411.7205" y1="930.0679" y2="930.0679"/><rect fill="none" height="6" style="stroke:#C82930;stroke-width:1.0;" width="6" x="15" y="942.1019"/><text fill="#000000" font-family="sans-serif" font-size="14" lengthAdjust="spacing" textLength="70.8257" x="27" y="949.0339">length : int</text><rect fill="none" height="6" style="stroke:#C82930;stroke-width:1.0;" width="6" x="15" y="961.1698"/><text fill="#000000" font-family="sans-serif" font-size="14" lengthAdjust="spacing" textLength="70.8257" x="27" y="968.1018">height : int</text><rect fill="none" height="6" style="stroke:#C82930;stroke-width:1.0;" width="6" x="15" y="980.2377"/><text fill="#000000" font-family="sans-serif" font-size="14" lengthAdjust="spacing" textLength="87.9197" x="27" y="987.1697">name : String</text><rect fill="none" height="6" style="stroke:#C82930;stroke-width:1.0;" width="6" x="15" y="999.3056"/><text fill="#000000" font-family="sans-serif" font-size="14" lengthAdjust="spacing" textLength="61.1378" x="27" y="1006.2376">scale : int</text><line style="stroke:#181818;stroke-width:0.5;" x1="8" x2="411.7205" y1="1014.3396" y2="1014.3396"/><ellipse cx="18" cy="1029.3735" fill="#84BE84" rx="3" ry="3" style="stroke:#038048;stroke-width:1.0;"/><text fill="#000000" font-family="sans-serif" font-size="14" lengthAdjust="spacing" textLength="379.7205" x="27" y="1033.3055">Map(name: String, height: int, length: int, sclae : int) : Map</text></g><!--class MapRepository--><g id="elem_MapRepository"><rect codeLine="12" fill="#F1F1F1" height="105.2038" id="MapRepository" rx="2.5" ry="2.5" style="stroke:#181818;stroke-width:0.5;" width="374.7526" x="262.5" y="714.0679"/><ellipse cx="395.8215" cy="730.0679" fill="#ADD1B2" rx="11" ry="11" style="stroke:#181818;stroke-width:1.0;"/><path d="M398.7902,735.7085 Q398.2121,736.0054 397.5715,736.146 Q396.9309,736.3023 396.2277,736.3023 Q393.7277,736.3023 392.3996,734.6617 Q391.0871,733.0054 391.0871,729.8804 Q391.0871,726.7554 392.3996,725.0992 Q393.7277,723.4429 396.2277,723.4429 Q396.9309,723.4429 397.5715,723.5992 Q398.2277,723.7554 398.7902,724.0523 L398.7902,726.771 Q398.1652,726.1929 397.5715,725.9273 Q396.9777,725.646 396.3527,725.646 Q395.009,725.646 394.3215,726.7242 Q393.634,727.7867 393.634,729.8804 Q393.634,731.9742 394.3215,733.0523 Q395.009,734.1148 396.3527,734.1148 Q396.9777,734.1148 397.5715,733.8492 Q398.1652,733.5679 398.7902,732.9898 L398.7902,735.7085 Z " fill="#000000"/><text fill="#000000" font-family="sans-serif" font-size="14" lengthAdjust="spacing" textLength="99.6096" x="416.3215" y="735.4999">MapRepository</text><line style="stroke:#181818;stroke-width:0.5;" x1="263.5" x2="636.2526" y1="746.0679" y2="746.0679"/><rect fill="none" height="6" style="stroke:#C82930;stroke-width:1.0;" width="6" x="270.5" y="758.1019"/><text fill="#000000" font-family="sans-serif" font-size="14" lengthAdjust="spacing" textLength="107.7856" x="282.5" y="765.0339">List&lt;Map&gt; maps</text><line style="stroke:#181818;stroke-width:0.5;" x1="263.5" x2="636.2526" y1="773.1358" y2="773.1358"/><ellipse cx="273.5" cy="788.1698" fill="#84BE84" rx="3" ry="3" style="stroke:#038048;stroke-width:1.0;"/><text fill="#000000" font-family="sans-serif" font-size="14" lengthAdjust="spacing" textLength="348.7526" x="282.5" y="792.1018">createMap(name: String, height: int, length: int): Map</text><rect fill="#F24D5C" height="6" style="stroke:#C82930;stroke-width:1.0;" width="6" x="270.5" y="804.2377"/><text fill="#000000" font-family="sans-serif" font-size="14" lengthAdjust="spacing" textLength="308.5308" x="282.5" y="811.1697">isOtherMapWithName(name : String) : boolean</text></g><!--class CreateMapUI--><g id="elem_CreateMapUI"><rect codeLine="19" fill="#F1F1F1" height="238.6792" id="CreateMapUI" rx="2.5" ry="2.5" style="stroke:#181818;stroke-width:0.5;" width="219.6892" x="100" y="47.0679"/><ellipse cx="161.8588" cy="63.0679" fill="#ADD1B2" rx="11" ry="11" style="stroke:#181818;stroke-width:1.0;"/><path d="M164.8275,68.7085 Q164.2494,69.0054 163.6088,69.146 Q162.9682,69.3023 162.265,69.3023 Q159.765,69.3023 158.4369,67.6617 Q157.1244,66.0054 157.1244,62.8804 Q157.1244,59.7554 158.4369,58.0992 Q159.765,56.4429 162.265,56.4429 Q162.9682,56.4429 163.6088,56.5992 Q164.265,56.7554 164.8275,57.0523 L164.8275,59.771 Q164.2025,59.1929 163.6088,58.9273 Q163.015,58.646 162.39,58.646 Q161.0463,58.646 160.3588,59.7242 Q159.6713,60.7867 159.6713,62.8804 Q159.6713,64.9742 160.3588,66.0523 Q161.0463,67.1148 162.39,67.1148 Q163.015,67.1148 163.6088,66.8492 Q164.2025,66.5679 164.8275,65.9898 L164.8275,68.7085 Z " fill="#000000"/><text fill="#000000" font-family="sans-serif" font-size="14" lengthAdjust="spacing" textLength="87.4717" x="182.3588" y="68.4999">CreateMapUI</text><line style="stroke:#181818;stroke-width:0.5;" x1="101" x2="318.6892" y1="79.0679" y2="79.0679"/><rect fill="none" height="6" style="stroke:#C82930;stroke-width:1.0;" width="6" x="108" y="91.1019"/><text fill="#000000" font-family="sans-serif" font-size="14" lengthAdjust="spacing" textLength="119.4615" x="120" y="98.0339">mapName : String</text><rect fill="none" height="6" style="stroke:#C82930;stroke-width:1.0;" width="6" x="108" y="110.1698"/><text fill="#000000" font-family="sans-serif" font-size="14" lengthAdjust="spacing" textLength="70.8257" x="120" y="117.1018">height : int</text><rect fill="none" height="6" style="stroke:#C82930;stroke-width:1.0;" width="6" x="108" y="129.2377"/><text fill="#000000" font-family="sans-serif" font-size="14" lengthAdjust="spacing" textLength="70.8257" x="120" y="136.1697">length : int</text><rect fill="none" height="6" style="stroke:#C82930;stroke-width:1.0;" width="6" x="108" y="148.3056"/><text fill="#000000" font-family="sans-serif" font-size="14" lengthAdjust="spacing" textLength="61.1378" x="120" y="155.2376">scale : int</text><line style="stroke:#181818;stroke-width:0.5;" x1="101" x2="318.6892" y1="163.3396" y2="163.3396"/><ellipse cx="111" cy="178.3735" fill="#84BE84" rx="3" ry="3" style="stroke:#038048;stroke-width:1.0;"/><text fill="#000000" font-family="sans-serif" font-size="14" lengthAdjust="spacing" textLength="70.3217" x="120" y="182.3055">run() : void</text><rect fill="#F24D5C" height="6" style="stroke:#C82930;stroke-width:1.0;" width="6" x="108" y="194.4415"/><text fill="#000000" font-family="sans-serif" font-size="14" lengthAdjust="spacing" textLength="113.2176" x="120" y="201.3734">readName(): void</text><rect fill="#F24D5C" height="6" style="stroke:#C82930;stroke-width:1.0;" width="6" x="108" y="213.5094"/><text fill="#000000" font-family="sans-serif" font-size="14" lengthAdjust="spacing" textLength="119.9375" x="120" y="220.4414">readLength(): void</text><rect fill="#F24D5C" height="6" style="stroke:#C82930;stroke-width:1.0;" width="6" x="108" y="232.5773"/><text fill="#000000" font-family="sans-serif" font-size="14" lengthAdjust="spacing" textLength="117.9355" x="120" y="239.5093">readHeight(): void</text><rect fill="#F24D5C" height="6" style="stroke:#C82930;stroke-width:1.0;" width="6" x="108" y="251.6452"/><text fill="#000000" font-family="sans-serif" font-size="14" lengthAdjust="spacing" textLength="193.6892" x="120" y="258.5772">isValidInt(value : int): boolean</text><rect fill="#F24D5C" height="6" style="stroke:#C82930;stroke-width:1.0;" width="6" x="108" y="270.7131"/><text fill="#000000" font-family="sans-serif" font-size="14" lengthAdjust="spacing" textLength="182.9093" x="120" y="277.6451">isValidCharacters(): boolean</text></g><!--class CreateMapController--><g id="elem_CreateMapController"><rect codeLine="33" fill="#F1F1F1" height="67.0679" id="CreateMapController" rx="2.5" ry="2.5" style="stroke:#181818;stroke-width:0.5;" width="374.7526" x="22.5" y="365.0679"/><ellipse cx="136.2916" cy="381.0679" fill="#ADD1B2" rx="11" ry="11" style="stroke:#181818;stroke-width:1.0;"/><path d="M139.2603,386.7085 Q138.6822,387.0054 138.0416,387.146 Q137.4009,387.3023 136.6978,387.3023 Q134.1978,387.3023 132.8697,385.6617 Q131.5572,384.0054 131.5572,380.8804 Q131.5572,377.7554 132.8697,376.0992 Q134.1978,374.4429 136.6978,374.4429 Q137.4009,374.4429 138.0416,374.5992 Q138.6978,374.7554 139.2603,375.0523 L139.2603,377.771 Q138.6353,377.1929 138.0416,376.9273 Q137.4478,376.646 136.8228,376.646 Q135.4791,376.646 134.7916,377.7242 Q134.1041,378.7867 134.1041,380.8804 Q134.1041,382.9742 134.7916,384.0523 Q135.4791,385.1148 136.8228,385.1148 Q137.4478,385.1148 138.0416,384.8492 Q138.6353,384.5679 139.2603,383.9898 L139.2603,386.7085 Z " fill="#000000"/><text fill="#000000" font-family="sans-serif" font-size="14" lengthAdjust="spacing" textLength="138.6695" x="156.7916" y="386.4999">CreateMapController</text><line style="stroke:#181818;stroke-width:0.5;" x1="23.5" x2="396.2526" y1="397.0679" y2="397.0679"/><line style="stroke:#181818;stroke-width:0.5;" x1="23.5" x2="396.2526" y1="405.0679" y2="405.0679"/><ellipse cx="33.5" cy="420.1019" fill="#84BE84" rx="3" ry="3" style="stroke:#038048;stroke-width:1.0;"/><text fill="#000000" font-family="sans-serif" font-size="14" lengthAdjust="spacing" textLength="348.7526" x="42.5" y="424.0339">createMap(name: String, height: int, length: int): Map</text></g><!--class Simulator--><g id="elem_Simulator"><rect codeLine="38" fill="#F1F1F1" height="124.2717" id="Simulator" rx="2.5" ry="2.5" style="stroke:#181818;stroke-width:0.5;" width="236.6432" x="91.5" y="511.0679"/><ellipse cx="173.6657" cy="527.0679" fill="#ADD1B2" rx="11" ry="11" style="stroke:#181818;stroke-width:1.0;"/><path d="M176.6345,532.7085 Q176.0564,533.0054 175.4157,533.146 Q174.7751,533.3023 174.072,533.3023 Q171.572,533.3023 170.2439,531.6617 Q168.9314,530.0054 168.9314,526.8804 Q168.9314,523.7554 170.2439,522.0992 Q171.572,520.4429 174.072,520.4429 Q174.7751,520.4429 175.4157,520.5992 Q176.072,520.7554 176.6345,521.0523 L176.6345,523.771 Q176.0095,523.1929 175.4157,522.9273 Q174.822,522.646 174.197,522.646 Q172.8532,522.646 172.1657,523.7242 Q171.4782,524.7867 171.4782,526.8804 Q171.4782,528.9742 172.1657,530.0523 Q172.8532,531.1148 174.197,531.1148 Q174.822,531.1148 175.4157,530.8492 Q176.0095,530.5679 176.6345,529.9898 L176.6345,532.7085 Z " fill="#000000"/><text fill="#000000" font-family="sans-serif" font-size="14" lengthAdjust="spacing" textLength="63.8118" x="194.1657" y="532.4999">Simulator</text><line style="stroke:#181818;stroke-width:0.5;" x1="92.5" x2="327.1432" y1="543.0679" y2="543.0679"/><rect fill="none" height="6" style="stroke:#C82930;stroke-width:1.0;" width="6" x="99.5" y="555.1019"/><text fill="#000000" font-family="sans-serif" font-size="14" lengthAdjust="spacing" textLength="129.9895" x="111.5" y="562.0339">instance : Simulator</text><rect fill="none" height="6" style="stroke:#C82930;stroke-width:1.0;" width="6" x="99.5" y="574.1698"/><text fill="#000000" font-family="sans-serif" font-size="14" lengthAdjust="spacing" textLength="210.6432" x="111.5" y="581.1018">mapRepository : MapRepository</text><line style="stroke:#181818;stroke-width:0.5;" x1="92.5" x2="327.1432" y1="589.2038" y2="589.2038"/><ellipse cx="102.5" cy="604.2377" fill="#84BE84" rx="3" ry="3" style="stroke:#038048;stroke-width:1.0;"/><text fill="#000000" font-family="sans-serif" font-size="14" lengthAdjust="spacing" textLength="161.0834" x="111.5" y="608.1697">getInstance() : Simulator</text><ellipse cx="102.5" cy="623.3056" fill="#84BE84" rx="3" ry="3" style="stroke:#038048;stroke-width:1.0;"/><text fill="#000000" font-family="sans-serif" font-size="14" lengthAdjust="spacing" textLength="115.3176" x="111.5" y="627.2376">createMap(): Map</text></g><!--link CreateMapUI to CreateMapController--><g id="link_CreateMapUI_CreateMapController"><path codeLine="46" d="M210,286.2779 C210,315.2679 210,337.9579 210,358.9379 " fill="none" id="CreateMapUI-to-CreateMapController" style="stroke:#181818;stroke-width:1.0;stroke-dasharray:7.0,7.0;"/><polygon fill="#181818" points="210,364.9379,214,355.9379,210,359.9379,206,355.9379,210,364.9379" style="stroke:#181818;stroke-width:1.0;"/><text fill="#000000" font-family="sans-serif" font-size="13" lengthAdjust="spacing" textLength="89.6221" x="211" y="330.9649">communicates</text></g><!--link CreateMapController to Simulator--><g id="link_CreateMapController_Simulator"><path codeLine="47" d="M210,432.4179 C210,454.6079 210,478.5779 210,505.0579 " fill="none" id="CreateMapController-to-Simulator" style="stroke:#181818;stroke-width:1.0;stroke-dasharray:7.0,7.0;"/><polygon fill="#181818" points="210,511.0579,214,502.0579,210,506.0579,206,502.0579,210,511.0579" style="stroke:#181818;stroke-width:1.0;"/><text fill="#000000" font-family="sans-serif" font-size="13" lengthAdjust="spacing" textLength="75.4911" x="211" y="476.9649">delegates to</text></g><!--link MapRepository to Map--><g id="link_MapRepository_Map"><path codeLine="49" d="M388.51,819.0679 C359.9,843.0279 330.0093,868.0549 299.0093,894.0249 " fill="none" id="MapRepository-to-Map" style="stroke:#181818;stroke-width:1.0;"/><polygon fill="#181818" points="294.41,897.8779,303.8777,895.1646,298.2428,894.667,298.7403,889.0321,294.41,897.8779" style="stroke:#181818;stroke-width:1.0;"/><text fill="#000000" font-family="sans-serif" font-size="13" lengthAdjust="spacing" textLength="37.713" x="352" y="863.9649">stores</text><text fill="#000000" font-family="sans-serif" font-size="13" lengthAdjust="spacing" textLength="7.436" x="372.8229" y="841.1956">1</text><text fill="#000000" font-family="sans-serif" font-size="13" lengthAdjust="spacing" textLength="21.567" x="281.5402" y="886.0242">0..*</text></g><!--link Simulator to MapRepository--><g id="link_Simulator_MapRepository"><path codeLine="50" d="M286.6,635.1879 C318.42,660.5779 350.2701,685.9856 380.7101,710.2756 " fill="none" id="Simulator-to-MapRepository" style="stroke:#181818;stroke-width:1.0;"/><polygon fill="#181818" points="385.4,714.0179,380.8601,705.2778,381.4918,710.8993,375.8703,711.531,385.4,714.0179" style="stroke:#181818;stroke-width:1.0;"/><text fill="#000000" font-family="sans-serif" font-size="13" lengthAdjust="spacing" textLength="37.713" x="345" y="679.9649">stores</text><text fill="#000000" font-family="sans-serif" font-size="13" lengthAdjust="spacing" textLength="7.436" x="288.098" y="657.2755">1</text><text fill="#000000" font-family="sans-serif" font-size="13" lengthAdjust="spacing" textLength="7.436" x="368.8715" y="702.3651">1</text></g><!--link Simulator to Map--><g id="link_Simulator_Map"><path codeLine="51" d="M204.14,635.3379 C202.07,659.8079 200.01,688.2479 199,714.0679 C197.17,760.6979 197.29,772.4279 199,819.0679 C199.95,844.8179 201.3485,867.0257 203.2685,891.9157 " fill="none" id="Simulator-to-Map" style="stroke:#181818;stroke-width:1.0;"/><polygon fill="#181818" points="203.73,897.8979,207.026,888.6169,203.3454,892.9127,199.0496,889.2322,203.73,897.8979" style="stroke:#181818;stroke-width:1.0;"/><text fill="#000000" font-family="sans-serif" font-size="13" lengthAdjust="spacing" textLength="44.486" x="200" y="771.9649">creates</text></g><!--SRC=[fLD1QiCm4Bpx5OjFTfkOv6fABhuqaARGaFQiseijaAKWhGEbzE-LP3bswb0AFTdQ7StCZYJY912EXzLg3KieD392U6AdA2e5CyRzmcS4jYTGrjH03boIBpJ8wuOc1SbQjCi3QIvhNp4b4nWGjd3lw1876r2BmE8XYw0H5iOw29jJ-t6clYQsNl2a32UbFuB17JVqO1iRQDd9z7gb7-Zlgcclu-YuUQO6jLs-SMhsTdjoDQ3pzAwKG2P7NyMWTzm6LzRBVfRBBBfPkBFaT2SJ9tbMlF88grHvL-cFuivppSgFNlEgpCqh4xpQIahEJ7H3sEDS4r3HCCrAGcsIzBV12oL9Ao5Gsm3-SmONwWDlEy7iGOT4kJJ4PEaZ7Lf3r9DBaLzVajvBZRGDstsQKuAfqz73z4IpR7Dpq1nArRQTvALjcUWMn6qT1ycXGe6rGmEfABg-pl4wXkLo0_4go-vY_mHpCBPbkKUE2seT_tWEDy0E68Zw8Ktq3G00]--></g></svg>