<svg xmlns="http://www.w3.org/2000/svg" xmlns:xlink="http://www.w3.org/1999/xlink" contentStyleType="text/css" height="947px" preserveAspectRatio="none" style="width:429px;height:947px;background:#FFFFFF;" version="1.1" viewBox="0 0 429 947" width="429px" zoomAndPan="magnify"><title>US001 - Create a map (SSD)</title><defs/><g><text fill="#000000" font-family="sans-serif" font-size="14" font-weight="bold" lengthAdjust="spacing" textLength="186.1853" x="128.438" y="29.9659">US001 - Create a map (SSD)</text><rect fill="#FFFFFF" height="711.4143" style="stroke:#181818;stroke-width:1.0;" width="10" x="22.6559" y="134.1358"/><rect fill="#FFFFFF" height="76.412" style="stroke:#181818;stroke-width:1.0;" width="10" x="282.4361" y="157.8419"/><rect fill="#FFFFFF" height="121.118" style="stroke:#181818;stroke-width:1.0;" width="10" x="282.4361" y="265.9599"/><rect fill="#FFFFFF" height="76.412" style="stroke:#181818;stroke-width:1.0;" width="10" x="282.4361" y="418.784"/><rect fill="#FFFFFF" height="76.412" style="stroke:#181818;stroke-width:1.0;" width="10" x="282.4361" y="526.902"/><rect fill="#FFFFFF" height="210.5301" style="stroke:#181818;stroke-width:1.0;" width="10" x="282.4361" y="635.0201"/><line style="stroke:#181818;stroke-width:0.5;stroke-dasharray:5.0,5.0;" x1="27" x2="27" y1="124.1358" y2="863.5501"/><line style="stroke:#181818;stroke-width:0.5;stroke-dasharray:5.0,5.0;" x1="286.7003" x2="286.7003" y1="124.1358" y2="863.5501"/><text fill="#000000" font-family="sans-serif" font-size="14" lengthAdjust="spacing" textLength="39.3119" x="5" y="120.0339">Editor</text><ellipse cx="27.6559" cy="53.5679" fill="#E2E2F0" rx="8" ry="8" style="stroke:#181818;stroke-width:0.5;"/><path d="M27.6559,61.5679 L27.6559,88.5679 M14.6559,69.5679 L40.6559,69.5679 M27.6559,88.5679 L14.6559,103.5679 M27.6559,88.5679 L40.6559,103.5679 " fill="none" style="stroke:#181818;stroke-width:0.5;"/><text fill="#000000" font-family="sans-serif" font-size="14" lengthAdjust="spacing" textLength="39.3119" x="5" y="877.5161">Editor</text><ellipse cx="27.6559" cy="890.1181" fill="#E2E2F0" rx="8" ry="8" style="stroke:#181818;stroke-width:0.5;"/><path d="M27.6559,898.1181 L27.6559,925.1181 M14.6559,906.1181 L40.6559,906.1181 M27.6559,925.1181 L14.6559,940.1181 M27.6559,925.1181 L40.6559,940.1181 " fill="none" style="stroke:#181818;stroke-width:0.5;"/><rect fill="#E2E2F0" height="33.0679" rx="2.5" ry="2.5" style="stroke:#181818;stroke-width:0.5;" width="101.4717" x="236.7003" y="90.0679"/><text fill="#000000" font-family="sans-serif" font-size="14" lengthAdjust="spacing" textLength="87.4717" x="243.7003" y="112.0339">CreateMapUI</text><rect fill="#E2E2F0" height="33.0679" rx="2.5" ry="2.5" style="stroke:#181818;stroke-width:0.5;" width="101.4717" x="236.7003" y="862.5501"/><text fill="#000000" font-family="sans-serif" font-size="14" lengthAdjust="spacing" textLength="87.4717" x="243.7003" y="884.5161">CreateMapUI</text><rect fill="#FFFFFF" height="711.4143" style="stroke:#181818;stroke-width:1.0;" width="10" x="22.6559" y="134.1358"/><rect fill="#FFFFFF" height="76.412" style="stroke:#181818;stroke-width:1.0;" width="10" x="282.4361" y="157.8419"/><rect fill="#FFFFFF" height="121.118" style="stroke:#181818;stroke-width:1.0;" width="10" x="282.4361" y="265.9599"/><rect fill="#FFFFFF" height="76.412" style="stroke:#181818;stroke-width:1.0;" width="10" x="282.4361" y="418.784"/><rect fill="#FFFFFF" height="76.412" style="stroke:#181818;stroke-width:1.0;" width="10" x="282.4361" y="526.902"/><rect fill="#FFFFFF" height="210.5301" style="stroke:#181818;stroke-width:1.0;" width="10" x="282.4361" y="635.0201"/><polygon fill="#181818" points="270.4361,153.8419,280.4361,157.8419,270.4361,161.8419,274.4361,157.8419" style="stroke:#181818;stroke-width:1.0;"/><line style="stroke:#181818;stroke-width:1.0;" x1="32.6559" x2="276.4361" y1="157.8419" y2="157.8419"/><text fill="#000000" font-family="sans-serif" font-size="13" font-weight="bold" lengthAdjust="spacing" textLength="7.436" x="39.6559" y="152.0328">1</text><text fill="#000000" font-family="sans-serif" font-size="13" lengthAdjust="spacing" textLength="162.6561" x="51.0919" y="152.0328">Select create map function</text><line style="stroke:#181818;stroke-width:1.0;stroke-dasharray:2.0,2.0;" x1="292.4361" x2="334.4361" y1="189.5479" y2="189.5479"/><line style="stroke:#181818;stroke-width:1.0;stroke-dasharray:2.0,2.0;" x1="334.4361" x2="334.4361" y1="189.5479" y2="202.5479"/><line style="stroke:#181818;stroke-width:1.0;stroke-dasharray:2.0,2.0;" x1="293.4361" x2="334.4361" y1="202.5479" y2="202.5479"/><polygon fill="#181818" points="303.4361,198.5479,293.4361,202.5479,303.4361,206.5479,299.4361,202.5479" style="stroke:#181818;stroke-width:1.0;"/><text fill="#000000" font-family="sans-serif" font-size="13" font-weight="bold" lengthAdjust="spacing" textLength="7.436" x="299.4361" y="183.7389">2</text><text fill="#000000" font-family="sans-serif" font-size="13" lengthAdjust="spacing" textLength="72.4491" x="310.8721" y="183.7389">readName()</text><polygon fill="#181818" points="43.6559,230.2539,33.6559,234.2539,43.6559,238.2539,39.6559,234.2539" style="stroke:#181818;stroke-width:1.0;"/><line style="stroke:#181818;stroke-width:1.0;stroke-dasharray:2.0,2.0;" x1="37.6559" x2="286.4361" y1="234.2539" y2="234.2539"/><text fill="#000000" font-family="sans-serif" font-size="13" font-weight="bold" lengthAdjust="spacing" textLength="7.436" x="49.6559" y="228.4449">3</text><text fill="#000000" font-family="sans-serif" font-size="13" lengthAdjust="spacing" textLength="111.5791" x="61.0919" y="228.4449">Ask for map name</text><polygon fill="#181818" points="270.4361,261.9599,280.4361,265.9599,270.4361,269.9599,274.4361,265.9599" style="stroke:#181818;stroke-width:1.0;"/><line style="stroke:#181818;stroke-width:1.0;" x1="32.6559" x2="276.4361" y1="265.9599" y2="265.9599"/><text fill="#000000" font-family="sans-serif" font-size="13" font-weight="bold" lengthAdjust="spacing" textLength="7.436" x="39.6559" y="260.1509">4</text><text fill="#000000" font-family="sans-serif" font-size="13" lengthAdjust="spacing" textLength="119.2101" x="51.0919" y="260.1509">Give the map name</text><line style="stroke:#181818;stroke-width:1.0;stroke-dasharray:2.0,2.0;" x1="292.4361" x2="334.4361" y1="297.6659" y2="297.6659"/><line style="stroke:#181818;stroke-width:1.0;stroke-dasharray:2.0,2.0;" x1="334.4361" x2="334.4361" y1="297.6659" y2="310.6659"/><line style="stroke:#181818;stroke-width:1.0;stroke-dasharray:2.0,2.0;" x1="293.4361" x2="334.4361" y1="310.6659" y2="310.6659"/><polygon fill="#181818" points="303.4361,306.6659,293.4361,310.6659,303.4361,314.6659,299.4361,310.6659" style="stroke:#181818;stroke-width:1.0;"/><text fill="#000000" font-family="sans-serif" font-size="13" font-weight="bold" lengthAdjust="spacing" textLength="7.436" x="299.4361" y="291.8569">5</text><text fill="#000000" font-family="sans-serif" font-size="13" lengthAdjust="spacing" textLength="102.4661" x="310.8721" y="291.8569">validCharacters()</text><line style="stroke:#181818;stroke-width:1.0;stroke-dasharray:2.0,2.0;" x1="292.4361" x2="334.4361" y1="342.3719" y2="342.3719"/><line style="stroke:#181818;stroke-width:1.0;stroke-dasharray:2.0,2.0;" x1="334.4361" x2="334.4361" y1="342.3719" y2="355.3719"/><line style="stroke:#181818;stroke-width:1.0;stroke-dasharray:2.0,2.0;" x1="293.4361" x2="334.4361" y1="355.3719" y2="355.3719"/><polygon fill="#181818" points="303.4361,351.3719,293.4361,355.3719,303.4361,359.3719,299.4361,355.3719" style="stroke:#181818;stroke-width:1.0;"/><text fill="#000000" font-family="sans-serif" font-size="13" font-weight="bold" lengthAdjust="spacing" textLength="7.436" x="299.4361" y="336.5629">6</text><text fill="#000000" font-family="sans-serif" font-size="13" lengthAdjust="spacing" textLength="76.8301" x="310.8721" y="336.5629">readHeight()</text><polygon fill="#181818" points="43.6559,383.0779,33.6559,387.0779,43.6559,391.0779,39.6559,387.0779" style="stroke:#181818;stroke-width:1.0;"/><line style="stroke:#181818;stroke-width:1.0;stroke-dasharray:2.0,2.0;" x1="37.6559" x2="286.4361" y1="387.0779" y2="387.0779"/><text fill="#000000" font-family="sans-serif" font-size="13" font-weight="bold" lengthAdjust="spacing" textLength="7.436" x="49.6559" y="381.2689">7</text><text fill="#000000" font-family="sans-serif" font-size="13" lengthAdjust="spacing" textLength="116.2071" x="61.0919" y="381.2689">Ask for map height</text><polygon fill="#181818" points="270.4361,414.784,280.4361,418.784,270.4361,422.784,274.4361,418.784" style="stroke:#181818;stroke-width:1.0;"/><line style="stroke:#181818;stroke-width:1.0;" x1="32.6559" x2="276.4361" y1="418.784" y2="418.784"/><text fill="#000000" font-family="sans-serif" font-size="13" font-weight="bold" lengthAdjust="spacing" textLength="7.436" x="39.6559" y="412.975">8</text><text fill="#000000" font-family="sans-serif" font-size="13" lengthAdjust="spacing" textLength="123.8381" x="51.0919" y="412.975">Give the map height</text><line style="stroke:#181818;stroke-width:1.0;stroke-dasharray:2.0,2.0;" x1="292.4361" x2="334.4361" y1="450.49" y2="450.49"/><line style="stroke:#181818;stroke-width:1.0;stroke-dasharray:2.0,2.0;" x1="334.4361" x2="334.4361" y1="450.49" y2="463.49"/><line style="stroke:#181818;stroke-width:1.0;stroke-dasharray:2.0,2.0;" x1="293.4361" x2="334.4361" y1="463.49" y2="463.49"/><polygon fill="#181818" points="303.4361,459.49,293.4361,463.49,303.4361,467.49,299.4361,463.49" style="stroke:#181818;stroke-width:1.0;"/><text fill="#000000" font-family="sans-serif" font-size="13" font-weight="bold" lengthAdjust="spacing" textLength="7.436" x="299.4361" y="444.681">9</text><text fill="#000000" font-family="sans-serif" font-size="13" lengthAdjust="spacing" textLength="78.6891" x="310.8721" y="444.681">readLength()</text><polygon fill="#181818" points="43.6559,491.196,33.6559,495.196,43.6559,499.196,39.6559,495.196" style="stroke:#181818;stroke-width:1.0;"/><line style="stroke:#181818;stroke-width:1.0;stroke-dasharray:2.0,2.0;" x1="37.6559" x2="286.4361" y1="495.196" y2="495.196"/><text fill="#000000" font-family="sans-serif" font-size="13" font-weight="bold" lengthAdjust="spacing" textLength="14.872" x="49.6559" y="489.387">10</text><text fill="#000000" font-family="sans-serif" font-size="13" lengthAdjust="spacing" textLength="116.2071" x="68.5279" y="489.387">Ask for map length</text><polygon fill="#181818" points="270.4361,522.902,280.4361,526.902,270.4361,530.902,274.4361,526.902" style="stroke:#181818;stroke-width:1.0;"/><line style="stroke:#181818;stroke-width:1.0;" x1="32.6559" x2="276.4361" y1="526.902" y2="526.902"/><text fill="#000000" font-family="sans-serif" font-size="13" font-weight="bold" lengthAdjust="spacing" textLength="14.872" x="39.6559" y="521.093">11</text><text fill="#000000" font-family="sans-serif" font-size="13" lengthAdjust="spacing" textLength="123.8381" x="58.5279" y="521.093">Give the map length</text><line style="stroke:#181818;stroke-width:1.0;stroke-dasharray:2.0,2.0;" x1="292.4361" x2="334.4361" y1="558.608" y2="558.608"/><line style="stroke:#181818;stroke-width:1.0;stroke-dasharray:2.0,2.0;" x1="334.4361" x2="334.4361" y1="558.608" y2="571.608"/><line style="stroke:#181818;stroke-width:1.0;stroke-dasharray:2.0,2.0;" x1="293.4361" x2="334.4361" y1="571.608" y2="571.608"/><polygon fill="#181818" points="303.4361,567.608,293.4361,571.608,303.4361,575.608,299.4361,571.608" style="stroke:#181818;stroke-width:1.0;"/><text fill="#000000" font-family="sans-serif" font-size="13" font-weight="bold" lengthAdjust="spacing" textLength="14.872" x="299.4361" y="552.799">12</text><text fill="#000000" font-family="sans-serif" font-size="13" lengthAdjust="spacing" textLength="67.1451" x="318.3081" y="552.799">readScale()</text><polygon fill="#181818" points="43.6559,599.314,33.6559,603.314,43.6559,607.314,39.6559,603.314" style="stroke:#181818;stroke-width:1.0;"/><line style="stroke:#181818;stroke-width:1.0;stroke-dasharray:2.0,2.0;" x1="37.6559" x2="286.4361" y1="603.314" y2="603.314"/><text fill="#000000" font-family="sans-serif" font-size="13" font-weight="bold" lengthAdjust="spacing" textLength="14.872" x="49.6559" y="597.505">13</text><text fill="#000000" font-family="sans-serif" font-size="13" lengthAdjust="spacing" textLength="107.2111" x="68.5279" y="597.505">Ask for map scale</text><polygon fill="#181818" points="270.4361,631.0201,280.4361,635.0201,270.4361,639.0201,274.4361,635.0201" style="stroke:#181818;stroke-width:1.0;"/><line style="stroke:#181818;stroke-width:1.0;" x1="32.6559" x2="276.4361" y1="635.0201" y2="635.0201"/><text fill="#000000" font-family="sans-serif" font-size="13" font-weight="bold" lengthAdjust="spacing" textLength="14.872" x="39.6559" y="629.2111">14</text><text fill="#000000" font-family="sans-serif" font-size="13" lengthAdjust="spacing" textLength="114.8421" x="58.5279" y="629.2111">Give the map scale</text><line style="stroke:#181818;stroke-width:1.0;stroke-dasharray:2.0,2.0;" x1="292.4361" x2="334.4361" y1="666.7261" y2="666.7261"/><line style="stroke:#181818;stroke-width:1.0;stroke-dasharray:2.0,2.0;" x1="334.4361" x2="334.4361" y1="666.7261" y2="679.7261"/><line style="stroke:#181818;stroke-width:1.0;stroke-dasharray:2.0,2.0;" x1="293.4361" x2="334.4361" y1="679.7261" y2="679.7261"/><polygon fill="#181818" points="303.4361,675.7261,293.4361,679.7261,303.4361,683.7261,299.4361,679.7261" style="stroke:#181818;stroke-width:1.0;"/><text fill="#000000" font-family="sans-serif" font-size="13" font-weight="bold" lengthAdjust="spacing" textLength="14.872" x="299.4361" y="660.9171">15</text><text fill="#000000" font-family="sans-serif" font-size="13" lengthAdjust="spacing" textLength="103.7531" x="318.3081" y="660.9171">isValidInt(length)</text><line style="stroke:#181818;stroke-width:1.0;stroke-dasharray:2.0,2.0;" x1="292.4361" x2="334.4361" y1="711.4321" y2="711.4321"/><line style="stroke:#181818;stroke-width:1.0;stroke-dasharray:2.0,2.0;" x1="334.4361" x2="334.4361" y1="711.4321" y2="724.4321"/><line style="stroke:#181818;stroke-width:1.0;stroke-dasharray:2.0,2.0;" x1="293.4361" x2="334.4361" y1="724.4321" y2="724.4321"/><polygon fill="#181818" points="303.4361,720.4321,293.4361,724.4321,303.4361,728.4321,299.4361,724.4321" style="stroke:#181818;stroke-width:1.0;"/><text fill="#000000" font-family="sans-serif" font-size="13" font-weight="bold" lengthAdjust="spacing" textLength="14.872" x="299.4361" y="705.6231">16</text><text fill="#000000" font-family="sans-serif" font-size="13" lengthAdjust="spacing" textLength="103.7531" x="318.3081" y="705.6231">isValidInt(height)</text><line style="stroke:#181818;stroke-width:1.0;stroke-dasharray:2.0,2.0;" x1="292.4361" x2="334.4361" y1="756.1381" y2="756.1381"/><line style="stroke:#181818;stroke-width:1.0;stroke-dasharray:2.0,2.0;" x1="334.4361" x2="334.4361" y1="756.1381" y2="769.1381"/><line style="stroke:#181818;stroke-width:1.0;stroke-dasharray:2.0,2.0;" x1="293.4361" x2="334.4361" y1="769.1381" y2="769.1381"/><polygon fill="#181818" points="303.4361,765.1381,293.4361,769.1381,303.4361,773.1381,299.4361,769.1381" style="stroke:#181818;stroke-width:1.0;"/><text fill="#000000" font-family="sans-serif" font-size="13" font-weight="bold" lengthAdjust="spacing" textLength="14.872" x="299.4361" y="750.3291">17</text><text fill="#000000" font-family="sans-serif" font-size="13" lengthAdjust="spacing" textLength="94.7571" x="318.3081" y="750.3291">isValidInt(scale)</text><line style="stroke:#181818;stroke-width:1.0;stroke-dasharray:2.0,2.0;" x1="292.4361" x2="334.4361" y1="800.8441" y2="800.8441"/><line style="stroke:#181818;stroke-width:1.0;stroke-dasharray:2.0,2.0;" x1="334.4361" x2="334.4361" y1="800.8441" y2="813.8441"/><line style="stroke:#181818;stroke-width:1.0;stroke-dasharray:2.0,2.0;" x1="293.4361" x2="334.4361" y1="813.8441" y2="813.8441"/><polygon fill="#181818" points="303.4361,809.8441,293.4361,813.8441,303.4361,817.8441,299.4361,813.8441" style="stroke:#181818;stroke-width:1.0;"/><text fill="#000000" font-family="sans-serif" font-size="13" font-weight="bold" lengthAdjust="spacing" textLength="14.872" x="299.4361" y="795.0351">18</text><text fill="#000000" font-family="sans-serif" font-size="13" lengthAdjust="spacing" textLength="73.1381" x="318.3081" y="795.0351">createMap()</text><polygon fill="#181818" points="38.6559,841.5501,28.6559,845.5501,38.6559,849.5501,34.6559,845.5501" style="stroke:#181818;stroke-width:1.0;"/><line style="stroke:#181818;stroke-width:1.0;stroke-dasharray:2.0,2.0;" x1="32.6559" x2="286.4361" y1="845.5501" y2="845.5501"/><text fill="#000000" font-family="sans-serif" font-size="13" font-weight="bold" lengthAdjust="spacing" textLength="14.872" x="44.6559" y="839.7411">19</text><text fill="#000000" font-family="sans-serif" font-size="13" lengthAdjust="spacing" textLength="206.9082" x="63.5279" y="839.7411">Display map created confirmation</text><!--SRC=[hPJBJeGm58RNxLES9In8nYqB4pDZT19rGyRziHo6PaeXfP3uzlR2c563aP5ke9VlRx-JfbPQHN0eDfiRo61h22q1GeCT94MnIpd7mRPwQDx8S1IsDN1VIlVXlYT7l_mymE8FPBTJq3DsXtqE1IaI5aGCzz7Le1tSQiUmpvWBXeDhZ5sCGFOr5N9mdV856qhIcUNnE3dSzIUetBdypje1SNb9l-myO_8WHm9RqxUegnL6LBBSrcXS0fb-rkId-2F9OsqNgTS1MKb-2lkdlpTv8dsqzI8J5P2LJAQm5KmAWMhPRUmziP97p0g0RrURoFxLtygzjaaiJReKYtTZCHO4_aQ9SyzLcp5Fp5Lx9_jEuNkeKAHA4Askf6aml421dYb-cECNazDBzm40]--></g></svg>