<svg version="1.1" id="Layer_1" xmlns="http://www.w3.org/2000/svg" xmlns:xlink="http://www.w3.org/1999/xlink" x="0px" y="0px"
	 width="100%" viewBox="0 0 511 216" enable-background="new 0 0 511 216" xml:space="preserve">
<path fill="#2B2B2B" opacity="1.000000" stroke="none" 
	d="
M8.000000,1.000000 
	C175.940933,1.000000 343.881866,1.000000 511.911377,1.000000 
	C511.911377,72.915520 511.911377,144.831177 511.911377,217.000000 
	C344.310089,217.000000 176.620056,217.000000 8.464919,216.531342 
	C7.999876,144.375122 7.999938,72.687561 8.000000,1.000000 
M218.766556,62.419800 
	C217.658356,64.644691 218.400360,65.435509 223.734436,67.015945 
	C226.584442,66.914330 229.507065,67.132393 232.239120,66.511627 
	C233.033859,66.331047 233.691727,63.733513 233.621704,62.282047 
	C233.583282,61.485847 231.615082,59.971569 231.011108,60.184246 
	C229.788254,60.614849 228.848495,61.953312 227.900925,63.014664 
	C227.475754,63.490887 227.312485,64.200943 227.026917,64.812286 
	C225.880096,63.025021 224.950180,61.575798 223.327255,60.064945 
	C221.884583,60.708977 220.441910,61.353004 218.766556,62.419800 
M26.766539,150.419876 
	C25.658398,152.644653 26.400509,153.435562 31.735165,155.015991 
	C34.558346,154.919189 37.452419,155.137695 40.160477,154.528854 
	C40.948517,154.351685 41.730042,151.728882 41.520470,150.381790 
	C41.381023,149.485474 39.440598,148.244141 38.377377,148.309753 
	C37.487926,148.364624 36.663235,150.062088 35.885849,151.089676 
	C35.497749,151.602692 35.279633,152.244293 34.986210,152.824631 
	C33.855431,151.033463 32.937855,149.580017 31.327269,148.064926 
	C29.884577,148.708984 28.441885,149.353058 26.766539,150.419876 
M141.410370,80.438911 
	C140.802811,82.626213 140.195267,84.813515 139.746750,86.428207 
	C142.140778,86.428207 143.710953,86.428207 146.434250,86.428207 
	C144.972702,84.314400 143.480164,82.155785 141.993317,79.883896 
	C141.993317,79.883896 142.004181,80.014252 141.410370,80.438911 
M77.410400,80.438911 
	C76.794884,82.618980 76.179367,84.799042 75.767700,86.257126 
	C77.942429,86.647568 79.115501,87.004395 80.294113,87.023705 
	C81.244278,87.039268 82.201118,86.647186 83.689636,86.903069 
	C84.041229,87.252167 84.422073,87.924088 84.739418,87.895325 
	C86.233749,87.759872 87.710655,87.432274 89.193779,87.173241 
	C88.848625,85.580032 88.503464,83.986816 88.158302,82.393608 
	C86.767990,83.156914 85.321785,83.838173 84.017082,84.727135 
	C83.547729,85.046936 83.418892,85.866493 82.682472,85.872971 
	C81.117531,83.914368 79.552589,81.955772 77.993309,79.883904 
	C77.993309,79.883904 78.004204,80.014252 77.410400,80.438911 
M189.410355,80.438911 
	C188.794846,82.618973 188.179337,84.799042 187.767670,86.257156 
	C189.888351,86.637871 191.087891,86.998726 192.294296,87.023315 
	C193.243469,87.042664 194.201080,86.647163 195.689606,86.903053 
	C196.041199,87.252151 196.422043,87.924065 196.739395,87.895294 
	C198.233719,87.759865 199.710648,87.432289 201.193771,87.173264 
	C200.848618,85.580048 200.503464,83.986839 200.158310,82.393616 
	C198.767990,83.156921 197.321793,83.838188 196.017090,84.727142 
	C195.547729,85.046951 195.418854,85.866486 194.682434,85.872955 
	C193.117493,83.914360 191.552567,81.955765 189.993286,79.883904 
	C189.993286,79.883904 190.004166,80.014252 189.410355,80.438911 
M83.356735,40.915916 
	C81.098579,39.277782 78.840416,37.639652 76.259247,35.767200 
	C76.259247,38.789345 76.259247,40.995346 76.259247,44.202751 
	C77.518967,42.384209 78.183121,41.425423 79.035568,40.194824 
	C79.874435,41.851860 80.488846,43.065525 81.036736,44.147781 
	C82.280411,43.591953 83.163094,43.197460 84.404388,43.383926 
	C85.987579,43.391033 87.570763,43.398140 89.153961,43.405251 
	C88.855110,41.799999 88.556259,40.194752 88.257408,38.589508 
	C86.842529,39.426971 85.427643,40.264435 83.356735,40.915916 
M179.356735,40.915867 
	C177.098572,39.277760 174.840408,37.639656 172.259262,35.767258 
	C172.259262,38.789368 172.259262,40.995361 172.259262,44.202736 
	C173.518982,42.384205 174.183136,41.425419 175.035614,40.194794 
	C175.874466,41.851849 176.488861,43.065514 177.036728,44.147770 
	C178.281830,43.591324 179.163818,43.197163 180.404388,43.383949 
	C181.987579,43.391052 183.570755,43.398155 185.153946,43.405258 
	C184.855103,41.800014 184.556274,40.194767 184.257431,38.589523 
	C182.842545,39.426956 181.427643,40.264389 179.356735,40.915867 
M25.958719,171.501556 
	C25.881227,166.794083 22.456640,169.318283 20.101109,168.330338 
	C20.101109,170.996933 20.101109,173.074295 20.101109,174.409027 
	C22.231182,174.507690 24.075123,174.593109 26.657845,174.894257 
	C28.118017,175.539978 29.588179,176.680862 31.034737,176.651688 
	C31.949591,176.633255 33.585461,174.834061 33.541931,173.896515 
	C33.481335,172.591370 32.214355,171.295135 31.289448,170.133881 
	C31.166935,169.980057 29.454157,170.609024 29.435499,170.930969 
	C29.243563,174.242996 27.963884,174.133392 25.958719,171.501556 
M266.600311,109.400703 
	C265.601501,107.166878 265.671509,103.089531 262.058197,104.486237 
	C260.454010,105.106339 260.117401,109.005707 259.205444,111.416565 
	C259.663239,111.639839 260.121063,111.863113 260.578857,112.086388 
	C262.727264,111.385468 264.875671,110.684547 267.531189,110.017303 
	C268.118561,110.314735 268.856445,111.000191 269.266754,110.841064 
	C270.867096,110.220398 272.363708,109.332222 273.898895,108.543526 
	C273.129303,107.090775 272.359711,105.638023 271.590118,104.185257 
	C270.339111,105.351082 269.003693,106.442223 267.875793,107.716980 
	C267.376801,108.280952 267.298096,109.216805 266.600311,109.400703 
M146.832993,38.534702 
	C146.179352,38.462868 145.426544,38.147076 144.890656,38.364906 
	C143.278168,39.020340 141.467743,39.614815 140.335175,40.804756 
	C139.911682,41.249714 141.144775,43.271389 141.622559,44.574158 
	C143.103577,43.923058 144.603668,43.310947 146.055756,42.600693 
	C146.598465,42.335239 147.029221,41.840958 147.659256,41.331051 
	C148.613068,42.169926 149.415222,42.875408 150.239716,43.600533 
	C151.047028,42.416569 151.773514,41.351154 152.565506,40.189674 
	C151.148361,39.320808 149.765717,38.473087 148.012955,38.015903 
	C147.890152,38.146629 147.767365,38.277351 146.832993,38.534702 
M251.504532,42.472839 
	C254.611313,43.435326 257.718109,44.397816 261.476013,45.562027 
	C261.895660,42.492973 262.167664,40.503662 262.690216,36.681774 
	C257.877106,38.036049 254.411850,39.011070 250.409485,39.641468 
	C248.188339,37.902889 245.775375,36.212372 244.234665,40.102234 
	C243.753922,41.315964 244.674774,43.084831 244.954010,44.599571 
	C246.956329,43.663361 248.958649,42.727150 251.504532,42.472839 
M156.063431,86.781433 
	C159.516724,92.069054 161.286591,86.770172 163.651642,85.375916 
	C164.679810,86.158775 165.574539,86.840042 166.608276,87.627151 
	C167.319580,84.914085 167.900955,82.696632 168.232101,81.433563 
	C165.402878,81.624863 162.060913,81.479942 158.941620,82.244064 
	C157.691879,82.550217 156.932190,84.856941 156.063431,86.781433 
M219.037277,88.265175 
	C220.358582,86.729019 221.679901,85.192863 223.017746,83.637489 
	C218.701797,82.974930 215.420822,82.471260 211.790466,81.913948 
	C211.790466,84.246765 211.790466,85.989456 211.790466,88.111916 
	C214.188858,88.236023 216.287125,88.344597 219.037277,88.265175 
M263.463867,58.142292 
	C259.455627,59.191265 259.084106,62.291451 259.809174,65.496918 
	C259.950897,66.123436 263.143494,66.973267 263.837769,66.399567 
	C266.513000,64.188965 267.421997,61.336109 264.589630,58.384033 
	C264.486816,58.276882 264.286469,58.263294 263.463867,58.142292 
M274.944275,43.831329 
	C276.667358,44.087730 279.442413,45.111141 279.918457,44.458263 
	C281.411377,42.410744 282.038391,39.731827 283.247192,36.674213 
	C278.051025,37.435028 275.643066,39.503021 274.944275,43.831329 
M126.000664,124.255165 
	C125.396309,126.421707 124.580406,128.563431 124.321594,130.770493 
	C124.247719,131.400406 125.708565,132.658783 126.614937,132.827637 
	C127.500862,132.992676 128.926407,132.410294 129.506134,131.675552 
	C131.408951,129.263901 129.873154,125.492065 126.000664,124.255165 
M86.880379,154.835541 
	C91.105545,153.391190 90.264488,150.129532 89.246368,147.210907 
	C89.050163,146.648438 85.750580,146.248840 85.234566,146.879791 
	C83.202934,149.363953 82.969994,152.185135 85.753716,154.565689 
	C85.871895,154.666763 86.053177,154.694031 86.880379,154.835541 
M121.578400,126.292747 
	C120.110466,125.758049 118.642540,125.223343 117.174614,124.688637 
	C116.805527,126.542656 116.025055,128.445023 116.234993,130.230972 
	C116.345596,131.171951 118.185455,131.909668 119.244514,132.739151 
	C120.130020,131.331085 121.066406,129.950943 121.865211,128.495300 
	C122.064514,128.132095 121.820160,127.525467 121.578400,126.292747 
M129.576370,152.732162 
	C129.683945,152.080002 130.061996,151.316833 129.848419,150.796494 
	C129.206680,149.233017 128.463150,147.660599 127.420853,146.363708 
	C127.253311,146.155258 124.478203,147.252487 124.412453,147.899078 
	C124.208511,149.904556 124.729439,151.983734 124.969063,154.034332 
	C126.380821,153.813431 127.792580,153.592529 129.576370,152.732162 
M129.777100,170.920273 
	C128.593765,170.056427 127.499092,168.887634 126.176399,168.503036 
	C125.744804,168.377548 123.944687,170.467789 124.117615,171.244858 
	C124.548569,173.181335 125.753593,174.945541 126.647881,176.778915 
	C127.725357,175.082977 128.802826,173.387039 129.777100,170.920273 
M76.324760,125.661995 
	C76.256691,127.268021 75.628105,129.181503 76.289536,130.387375 
	C76.867706,131.441452 78.897354,131.699371 80.285751,132.309021 
	C80.676025,130.219742 81.066292,128.130478 81.456573,126.041199 
	C79.866043,125.748070 78.275505,125.454948 76.324760,125.661995 
M215.264954,38.271835 
	C212.824814,39.311390 210.421326,44.792416 211.783920,46.486217 
	C212.174271,46.971447 213.363358,47.288250 213.949402,47.063847 
	C217.378845,45.750656 218.266449,41.736473 215.264954,38.271835 
M95.386192,168.265381 
	C91.147583,168.713303 91.559555,171.821182 92.283302,174.488449 
	C92.539436,175.432419 94.651772,175.872726 95.916687,176.542969 
	C96.412491,174.343521 96.985817,172.156158 97.332733,169.933472 
	C97.395287,169.532715 96.526665,168.986618 95.386192,168.265381 
M80.178497,154.469589 
	C80.641487,152.375900 81.326965,150.293213 81.431488,148.181778 
	C81.462730,147.550735 79.946686,146.491272 78.994453,146.278992 
	C78.282074,146.120193 77.072075,146.796219 76.542526,147.464264 
	C74.579475,149.940704 76.193336,153.730881 80.178497,154.469589 
M87.445488,124.192329 
	C83.000168,124.426994 83.712708,127.702827 84.290504,130.283829 
	C84.516289,131.292404 86.568108,131.892197 87.788239,132.678177 
	C88.340805,130.385956 88.965271,128.106384 89.373123,125.788712 
	C89.438866,125.415085 88.539940,124.871696 87.445488,124.192329 
M116.216446,147.942398 
	C116.148048,149.406662 115.522980,151.217041 116.160515,152.242371 
	C116.863815,153.373489 118.725601,153.784286 120.082771,154.508835 
	C120.587341,152.428558 121.839027,150.179321 121.416054,148.308792 
	C120.826195,145.700272 118.634659,145.346512 116.216446,147.942398 
M49.253647,154.910324 
	C49.226780,153.394257 49.305531,151.866653 49.141575,150.365555 
	C48.994946,149.023132 48.996452,147.099594 48.177105,146.541397 
	C47.196949,145.873642 45.414284,146.383835 44.858376,146.383835 
	C45.079327,149.668045 45.245148,152.132812 45.438877,155.012375 
	C46.280384,155.012375 47.572044,155.012375 49.253647,154.910324 
M36.271248,134.949646 
	C37.758907,134.046417 39.652546,133.442551 40.607975,132.146851 
	C41.396896,131.076965 41.371479,129.134659 41.106018,127.689301 
	C40.995483,127.087456 38.936985,126.148155 38.444859,126.454758 
	C37.384697,127.115257 36.357681,128.384048 36.064888,129.586044 
	C35.664223,131.230896 35.958652,133.045059 36.271248,134.949646 
M131.890015,59.883961 
	C123.780571,60.150055 123.780571,60.150055 127.840714,69.815254 
	C128.720581,67.537476 129.267426,65.962067 129.934448,64.439316 
	C130.620667,62.872719 131.424164,61.357483 131.890015,59.883961 
M64.747169,176.143173 
	C65.175041,174.061340 65.602905,171.979523 66.098495,169.568207 
	C62.256886,169.644470 59.561703,169.749908 59.797489,173.903793 
	C59.977581,177.076538 61.755638,177.249329 64.747169,176.143173 
M193.975754,104.047470 
	C192.531845,100.344261 191.234924,104.606949 189.850418,104.123596 
	C189.352432,105.728874 188.511978,107.337570 188.527939,108.937729 
	C188.534164,109.562576 190.753342,110.892075 191.453537,110.613953 
	C192.519531,110.190544 193.344467,108.739388 193.881439,107.548660 
	C194.257843,106.714043 193.983597,105.586006 193.975754,104.047470 
M47.875595,44.725185 
	C49.918743,42.833519 50.934135,40.606789 48.490208,38.561939 
	C47.868248,38.041546 45.049595,38.802082 44.601265,39.673931 
	C43.321102,42.163433 43.650173,44.531498 47.875595,44.725185 
M132.019196,109.792816 
	C132.440155,110.390167 132.861099,110.987518 133.282043,111.584862 
	C134.837189,110.293190 136.392334,109.001518 137.947479,107.709854 
	C136.916214,106.513573 135.971573,104.397552 134.837692,104.290749 
	C131.206619,103.948746 132.124664,107.002609 132.019196,109.792816 
M124.058983,85.324532 
	C124.988380,87.151390 125.917778,88.978241 127.578346,92.242317 
	C128.546295,89.389359 129.571350,87.426750 129.749985,85.389915 
	C129.837814,84.388466 128.357925,83.249527 127.587502,82.172813 
	C126.417839,83.017677 125.248184,83.862549 124.058983,85.324532 
M232.928268,88.074524 
	C232.773773,86.296997 232.796646,84.467278 232.302902,82.789581 
	C232.212997,82.484024 229.021118,82.557602 228.945908,82.866432 
	C228.375168,85.210159 228.223877,87.656044 227.849823,90.857765 
	C230.151657,89.720367 231.315475,89.145294 232.928268,88.074524 
M155.835678,63.718754 
	C157.194855,64.736122 158.554031,65.753494 159.913208,66.770866 
	C160.580017,65.760078 161.953979,64.572433 161.755310,63.778114 
	C161.419998,62.437420 160.088409,61.345901 159.175766,60.149601 
	C158.044006,61.167778 156.912247,62.185955 155.835678,63.718754 
M37.944218,176.600311 
	C43.926525,176.263077 41.600292,172.522751 41.332710,169.325348 
	C35.597443,170.758331 35.171932,171.568970 37.944218,176.600311 
M49.734161,63.080692 
	C48.512978,62.088646 47.291794,61.096596 46.070610,60.104546 
	C45.348019,61.203598 44.018784,62.329994 44.066750,63.394321 
	C44.118809,64.549477 45.452663,65.646858 46.227581,66.769432 
	C47.371216,65.745995 48.514851,64.722565 49.734161,63.080692 
M200.822662,110.278923 
	C200.666245,108.347862 200.509842,106.416801 200.353424,104.485748 
	C199.280304,104.593025 197.627838,104.321457 197.257263,104.888138 
	C196.534073,105.994080 195.845123,108.042412 196.393234,108.832558 
	C197.118820,109.878517 199.044373,110.092072 200.822662,110.278923 
M125.080635,104.927422 
	C124.899315,107.064720 122.223213,109.681252 126.033234,111.036049 
	C126.917229,111.350388 128.841400,110.901489 129.127151,110.274864 
	C129.679398,109.063934 129.948929,107.131050 129.320557,106.142998 
	C128.703384,105.172539 126.826302,105.003342 125.080635,104.927422 
M48.153343,82.352966 
	C46.744022,83.148064 45.334698,83.943161 43.925373,84.738251 
	C44.925133,86.303368 45.924892,87.868492 47.513382,90.355263 
	C47.967632,87.707565 48.141994,86.850876 48.256023,85.986221 
	C48.398525,84.905693 48.491386,83.818626 48.153343,82.352966 
M305.597534,106.161285 
	C304.256073,105.597801 302.914642,105.034325 301.573181,104.470848 
	C301.133026,105.955032 300.269165,107.483879 300.419037,108.905861 
	C300.502686,109.699051 302.271790,110.314552 303.281372,111.010139 
	C304.108215,109.605667 304.935028,108.201195 305.597534,106.161285 
M69.561722,152.176651 
	C69.926109,153.234833 70.290504,154.293030 70.654892,155.351212 
	C71.104454,155.180099 71.554024,155.008972 72.003586,154.837860 
	C72.181900,145.765625 72.181900,145.765625 68.660492,147.302856 
	C69.053650,148.761841 69.445778,150.216995 69.561722,152.176651 
M229.945724,104.386711 
	C227.301422,106.244194 227.135452,108.526268 229.439499,110.551743 
	C230.008850,111.052261 232.686569,110.425484 233.014420,109.696220 
	C234.085815,107.312973 234.487289,104.658432 229.945724,104.386711 
M31.506178,132.786667 
	C32.169834,131.324158 33.434795,129.793381 33.279327,128.423843 
	C33.180683,127.554878 30.992233,126.877701 29.679834,126.240448 
	C29.480844,126.143829 28.949038,126.732635 28.231762,127.248520 
	C29.286894,127.505653 29.991167,127.677284 30.780293,127.869591 
	C30.075397,129.547363 25.151867,131.361511 31.506178,132.786667 
M204.338943,42.908920 
	C205.603577,43.464756 206.868225,44.020588 208.132843,44.576412 
	C208.570724,43.118961 209.773926,41.208973 209.248825,40.320930 
	C208.621124,39.259342 206.517380,39.065899 205.036942,38.541706 
	C205.002396,38.529472 204.777374,39.055092 204.626175,39.360157 
	C205.375931,39.573730 206.095856,39.778809 205.872192,39.715096 
	C205.514572,40.373798 204.968811,41.379051 204.338943,42.908920 
M257.284668,108.222198 
	C256.537903,106.880013 255.791122,105.537827 255.044342,104.195633 
	C254.081161,104.915253 252.453415,105.526146 252.313644,106.380478 
	C252.113846,107.601677 253.002747,109.000999 253.426697,110.324249 
	C254.652863,109.823441 255.879044,109.322624 257.284668,108.222198 
M88.153000,110.542862 
	C91.023636,107.237656 90.044762,105.248970 86.162910,103.827461 
	C85.822144,105.264709 85.841408,106.387497 85.325516,107.146622 
	C83.314606,110.105667 84.583565,110.884995 88.153000,110.542862 
M101.794586,64.319885 
	C104.013077,59.099583 103.827080,67.441208 105.736961,64.723511 
	C106.430191,60.829403 104.310440,59.440197 100.016243,59.452209 
	C100.016243,61.475822 100.016243,63.388523 100.016243,65.301224 
	C100.574295,65.131485 101.132355,64.961746 101.794586,64.319885 
M170.128891,108.668434 
	C170.248001,105.772652 169.291321,103.408020 166.020294,104.352150 
	C164.866821,104.685074 164.367050,107.282860 163.568832,108.846565 
	C163.975891,109.046562 164.382965,109.246559 164.790024,109.446556 
	C165.461700,108.533806 166.133362,107.621048 166.238434,107.478279 
	C167.896790,108.187988 168.970245,108.647392 170.128891,108.668434 
M111.841713,87.143257 
	C112.136086,86.670570 112.700249,86.180481 112.671112,85.728653 
	C112.601097,84.642815 112.252815,83.574913 112.016808,82.499779 
	C110.891853,82.882317 108.948296,83.076210 108.807854,83.685623 
	C108.489555,85.066833 109.059532,86.652756 109.268318,88.155434 
	C110.221367,87.909546 111.174423,87.663658 111.841713,87.143257 
M88.360916,66.006729 
	C88.346680,65.340279 88.272232,64.668381 88.332008,64.008636 
	C88.427010,62.960163 88.611580,61.919804 88.758263,60.876015 
	C87.569916,60.906151 85.789253,60.475990 85.327209,61.070549 
	C84.567963,62.047546 84.047012,64.048012 84.571938,64.949303 
	C85.098564,65.853523 87.027527,65.941010 88.360916,66.006729 
M199.686523,60.279213 
	C198.504303,61.501030 196.677750,62.585220 196.376587,63.995224 
	C196.189835,64.869614 198.317810,66.238403 200.107071,68.122818 
	C199.976944,65.657585 199.871429,64.899696 199.912247,64.149780 
	C199.978516,62.932064 200.140640,61.719566 199.686523,60.279213 
M33.867104,39.573490 
	C32.066402,39.554935 30.231764,39.355927 28.495951,39.682388 
	C28.179506,39.741901 28.266327,41.945621 28.068571,44.362194 
	C29.528830,42.394081 30.224035,41.457092 31.105539,40.269016 
	C31.887476,41.990284 32.452415,43.233879 33.017357,44.477474 
	C33.278332,44.427341 33.539310,44.377209 33.800285,44.327072 
	C33.864143,42.906075 33.927998,41.485073 33.867104,39.573490 
M27.906408,64.598198 
	C27.969353,64.749382 28.012865,64.913231 28.100790,65.048134 
	C28.186226,65.179222 28.317198,65.280640 28.428171,65.395081 
	C29.290337,64.440025 30.152500,63.484974 31.061867,62.477634 
	C31.880642,63.680515 32.503689,64.595848 33.126736,65.511185 
	C33.604500,65.134270 34.082260,64.757355 34.560024,64.380440 
	C33.342579,62.958218 32.347847,60.690208 30.859129,60.298199 
	C28.154800,59.586090 27.007883,61.413349 27.906408,64.598198 
M29.231281,82.433434 
	C28.731432,83.992790 28.231581,85.552139 27.692822,87.232880 
	C30.141129,87.232880 31.807905,87.232880 33.676613,87.232880 
	C33.917950,84.384811 33.947662,81.818245 29.231281,82.433434 
M109.500008,66.464218 
	C113.440056,68.504776 110.474495,62.726868 113.102692,63.282169 
	C112.942009,62.521770 112.710236,61.092068 112.631210,61.100464 
	C111.245872,61.247612 109.280510,61.139530 108.677437,61.977085 
	C108.078537,62.808861 108.854279,64.630440 109.500008,66.464218 
M117.204399,82.717041 
	C116.770088,84.140068 116.335785,85.563095 115.901474,86.986122 
	C116.222076,87.116928 116.542671,87.247734 116.863266,87.378548 
	C117.508385,86.408096 118.153503,85.437653 118.905334,84.306679 
	C119.793304,85.510368 120.452713,86.404228 121.583221,87.936684 
	C121.948769,84.148148 121.527252,81.994118 117.204399,82.717041 
M100.930847,43.188438 
	C101.552437,42.305454 102.174026,41.422470 102.983894,40.272030 
	C103.743202,41.484699 104.345978,42.447384 104.948761,43.410069 
	C105.438843,43.025726 105.928925,42.641384 106.419014,42.257042 
	C105.173538,40.924023 103.960136,38.514046 102.676094,38.475800 
	C99.745911,38.388523 99.704071,40.794399 100.930847,43.188438 
z"/>
<path fill="#2B2B2B" opacity="1.000000" stroke="none" 
	d="
M7.000000,217.000000 
	C5.004386,217.000000 3.008772,217.000000 1.006579,217.000000 
	C1.000000,215.673981 1.000000,214.347946 1.000000,213.021927 
	C1.000000,142.347946 1.000000,71.673973 1.006018,1.000000 
	C2.675044,1.000000 4.338050,1.000000 6.500592,1.468657 
	C7.000084,73.624878 7.000042,145.312439 7.000000,217.000000 
z"/>
<path fill="#333333" opacity="1.000000" stroke="none" 
	d="
M7.250000,217.000000 
	C7.000042,145.312439 7.000084,73.624878 7.000063,1.468657 
	C7.000000,1.000000 7.500000,1.000000 7.750000,1.000000 
	C7.999938,72.687561 7.999876,144.375122 7.999907,216.531342 
	C8.000000,217.000000 7.500000,217.000000 7.250000,217.000000 
z"/>
<path fill="#11650E" opacity="1.000000" stroke="none" 
	d="
M250.946609,39.986088 
	C254.411850,39.011070 257.877106,38.036049 262.690216,36.681774 
	C262.167664,40.503662 261.895660,42.492973 261.476013,45.562027 
	C257.718109,44.397816 254.611313,43.435326 251.233551,42.114502 
	C250.962585,41.756168 250.993301,41.519264 251.027496,41.143902 
	C251.035416,40.518639 251.009155,40.268738 250.973297,40.011681 
	C250.963669,40.004520 250.946609,39.986088 250.946609,39.986088 
z"/>
<path fill="#3B723F" opacity="1.000000" stroke="none" 
	d="
M156.006439,86.517242 
	C156.932190,84.856941 157.691879,82.550217 158.941620,82.244064 
	C162.060913,81.479942 165.402878,81.624863 168.232101,81.433563 
	C167.900955,82.696632 167.319580,84.914085 166.608276,87.627151 
	C165.574539,86.840042 164.679810,86.158775 163.651642,85.375916 
	C161.286591,86.770172 159.516724,92.069054 156.006439,86.517242 
z"/>
<path fill="#3B743D" opacity="1.000000" stroke="none" 
	d="
M218.711334,88.359177 
	C216.287125,88.344597 214.188858,88.236023 211.790466,88.111916 
	C211.790466,85.989456 211.790466,84.246765 211.790466,81.913948 
	C215.420822,82.471260 218.701797,82.974930 223.017746,83.637489 
	C221.679901,85.192863 220.358582,86.729019 218.711334,88.359177 
z"/>
<path fill="#37733E" opacity="1.000000" stroke="none" 
	d="
M148.383072,37.625370 
	C149.765717,38.473087 151.148361,39.320808 152.565506,40.189674 
	C151.773514,41.351154 151.047028,42.416569 150.239716,43.600533 
	C149.415222,42.875408 148.613068,42.169926 147.659256,41.331051 
	C147.029221,41.840958 146.598465,42.335239 146.055756,42.600693 
	C144.603668,43.310947 143.103577,43.923058 141.622559,44.574158 
	C141.144775,43.271389 139.911682,41.249714 140.335175,40.804756 
	C141.467743,39.614815 143.278168,39.020340 144.890656,38.364906 
	C145.426544,38.147076 146.179352,38.462868 147.383240,38.528381 
	C148.083359,38.223164 148.233215,37.924267 148.383072,37.625370 
z"/>
<path fill="#3B723F" opacity="1.000000" stroke="none" 
	d="
M224.020279,60.126572 
	C224.950180,61.575798 225.880096,63.025021 227.026917,64.812286 
	C227.312485,64.200943 227.475754,63.490887 227.900925,63.014664 
	C228.848495,61.953312 229.788254,60.614849 231.011108,60.184246 
	C231.615082,59.971569 233.583282,61.485847 233.621704,62.282047 
	C233.691727,63.733513 233.033859,66.331047 232.239120,66.511627 
	C229.507065,67.132393 226.584442,66.914330 223.488892,66.735878 
	C223.435043,65.274399 223.626740,64.092995 223.850769,62.634785 
	C223.886658,61.986301 223.890228,61.614616 223.925476,60.963852 
	C223.978210,60.498703 223.999252,60.312637 224.020279,60.126572 
z"/>
<path fill="#3B723F" opacity="1.000000" stroke="none" 
	d="
M32.020279,148.126572 
	C32.937855,149.580017 33.855431,151.033463 34.986210,152.824631 
	C35.279633,152.244293 35.497749,151.602692 35.885849,151.089676 
	C36.663235,150.062088 37.487926,148.364624 38.377377,148.309753 
	C39.440598,148.244141 41.381023,149.485474 41.520470,150.381790 
	C41.730042,151.728882 40.948517,154.351685 40.160477,154.528854 
	C37.452419,155.137695 34.558346,154.919189 31.489271,154.735901 
	C31.435047,153.274414 31.626717,152.093018 31.850731,150.634811 
	C31.886656,149.986313 31.890236,149.614639 31.925495,148.963867 
	C31.978209,148.498703 31.999245,148.312637 32.020279,148.126572 
z"/>
<path fill="#10670D" opacity="1.000000" stroke="none" 
	d="
M263.797729,58.174194 
	C264.286469,58.263294 264.486816,58.276882 264.589630,58.384033 
	C267.421997,61.336109 266.513000,64.188965 263.837769,66.399567 
	C263.143494,66.973267 259.950897,66.123436 259.809174,65.496918 
	C259.084106,62.291451 259.455627,59.191265 263.797729,58.174194 
z"/>
<path fill="#11650E" opacity="1.000000" stroke="none" 
	d="
M274.989380,43.651703 
	C275.643066,39.503021 278.051025,37.435028 283.247192,36.674213 
	C282.038391,39.731827 281.411377,42.410744 279.918457,44.458263 
	C279.442413,45.111141 276.667358,44.087730 274.989380,43.651703 
z"/>
<path fill="#38773D" opacity="1.000000" stroke="none" 
	d="
M126.313477,124.193054 
	C129.873154,125.492065 131.408951,129.263901 129.506134,131.675552 
	C128.926407,132.410294 127.500862,132.992676 126.614937,132.827637 
	C125.708565,132.658783 124.247719,131.400406 124.321594,130.770493 
	C124.580406,128.563431 125.396309,126.421707 126.313477,124.193054 
z"/>
<path fill="#3D7A3C" opacity="1.000000" stroke="none" 
	d="
M86.542725,154.795609 
	C86.053177,154.694031 85.871895,154.666763 85.753716,154.565689 
	C82.969994,152.185135 83.202934,149.363953 85.234566,146.879791 
	C85.750580,146.248840 89.050163,146.648438 89.246368,147.210907 
	C90.264488,150.129532 91.105545,153.391190 86.542725,154.795609 
z"/>
<path fill="#3D7A3C" opacity="1.000000" stroke="none" 
	d="
M121.679062,126.661736 
	C121.820160,127.525467 122.064514,128.132095 121.865211,128.495300 
	C121.066406,129.950943 120.130020,131.331085 119.244514,132.739151 
	C118.185455,131.909668 116.345596,131.171951 116.234993,130.230972 
	C116.025055,128.445023 116.805527,126.542656 117.174606,124.688637 
	C118.642540,125.223343 120.110466,125.758049 121.679062,126.661736 
z"/>
<path fill="#3D7A3C" opacity="1.000000" stroke="none" 
	d="
M129.390350,153.051895 
	C127.792580,153.592529 126.380821,153.813431 124.969063,154.034332 
	C124.729439,151.983734 124.208511,149.904556 124.412453,147.899078 
	C124.478203,147.252487 127.253311,146.155258 127.420853,146.363708 
	C128.463150,147.660599 129.206680,149.233017 129.848419,150.796494 
	C130.061996,151.316833 129.683945,152.080002 129.390350,153.051895 
z"/>
<path fill="#3D773D" opacity="1.000000" stroke="none" 
	d="
M129.828705,171.305695 
	C128.802826,173.387039 127.725357,175.082977 126.647881,176.778915 
	C125.753593,174.945541 124.548569,173.181335 124.117615,171.244858 
	C123.944687,170.467789 125.744804,168.377548 126.176399,168.503036 
	C127.499092,168.887634 128.593765,170.056427 129.828705,171.305695 
z"/>
<path fill="#3D7A3C" opacity="1.000000" stroke="none" 
	d="
M76.504868,125.411911 
	C78.275505,125.454948 79.866043,125.748070 81.456573,126.041199 
	C81.066292,128.130478 80.676025,130.219742 80.285751,132.309021 
	C78.897354,131.699371 76.867706,131.441452 76.289536,130.387375 
	C75.628105,129.181503 76.256691,127.268021 76.504868,125.411911 
z"/>
<path fill="#3B6E3B" opacity="1.000000" stroke="none" 
	d="
M215.620926,38.350758 
	C218.266449,41.736473 217.378845,45.750656 213.949402,47.063847 
	C213.363358,47.288250 212.174271,46.971447 211.783920,46.486217 
	C210.421326,44.792416 212.824814,39.311390 215.620926,38.350758 
z"/>
<path fill="#3D773D" opacity="1.000000" stroke="none" 
	d="
M95.737076,168.386505 
	C96.526665,168.986618 97.395287,169.532715 97.332733,169.933472 
	C96.985817,172.156158 96.412491,174.343521 95.916687,176.542969 
	C94.651772,175.872726 92.539436,175.432419 92.283302,174.488449 
	C91.559555,171.821182 91.147583,168.713303 95.737076,168.386505 
z"/>
<path fill="#3B773B" opacity="1.000000" stroke="none" 
	d="
M79.846397,154.602066 
	C76.193336,153.730881 74.579475,149.940704 76.542526,147.464264 
	C77.072075,146.796219 78.282074,146.120193 78.994453,146.278992 
	C79.946686,146.491272 81.462730,147.550735 81.431488,148.181778 
	C81.326965,150.293213 80.641487,152.375900 79.846397,154.602066 
z"/>
<path fill="#3B773B" opacity="1.000000" stroke="none" 
	d="
M87.766212,124.299561 
	C88.539940,124.871696 89.438866,125.415085 89.373123,125.788712 
	C88.965271,128.106384 88.340805,130.385956 87.788239,132.678177 
	C86.568108,131.892197 84.516289,131.292404 84.290504,130.283829 
	C83.712708,127.702827 83.000168,124.426994 87.766212,124.299561 
z"/>
<path fill="#3B773B" opacity="1.000000" stroke="none" 
	d="
M116.376038,147.656311 
	C118.634659,145.346512 120.826195,145.700272 121.416054,148.308792 
	C121.839027,150.179321 120.587341,152.428558 120.082771,154.508835 
	C118.725601,153.784286 116.863815,153.373489 116.160515,152.242371 
	C115.522980,151.217041 116.148048,149.406662 116.376038,147.656311 
z"/>
<path fill="#3F773F" opacity="1.000000" stroke="none" 
	d="
M49.058678,154.961349 
	C47.572044,155.012375 46.280384,155.012375 45.438877,155.012375 
	C45.245148,152.132812 45.079327,149.668045 44.858376,146.383835 
	C45.414284,146.383835 47.196949,145.873642 48.177105,146.541397 
	C48.996452,147.099594 48.994946,149.023132 49.141575,150.365555 
	C49.305531,151.866653 49.226780,153.394257 49.058678,154.961349 
z"/>
<path fill="#3B6E3B" opacity="1.000000" stroke="none" 
	d="
M36.113197,134.868149 
	C35.958652,133.045059 35.664223,131.230896 36.064888,129.586044 
	C36.357681,128.384048 37.384697,127.115257 38.444859,126.454758 
	C38.936985,126.148155 40.995483,127.087456 41.106018,127.689301 
	C41.371479,129.134659 41.396896,131.076965 40.607975,132.146851 
	C39.652546,133.442551 37.758907,134.046417 36.113197,134.868149 
z"/>
<path fill="#10670D" opacity="1.000000" stroke="none" 
	d="
M250.993301,41.519264 
	C250.993301,41.519264 250.962585,41.756168 250.961777,41.773552 
	C248.958649,42.727150 246.956329,43.663361 244.954010,44.599571 
	C244.674774,43.084831 243.753922,41.315964 244.234665,40.102234 
	C245.775375,36.212372 248.188339,37.902889 250.678040,39.813778 
	C250.946609,39.986088 250.963669,40.004520 250.843384,40.178970 
	C250.813156,40.742031 250.903229,41.130646 250.993301,41.519264 
z"/>
<path fill="#3B723F" opacity="1.000000" stroke="none" 
	d="
M132.033173,59.851868 
	C131.424164,61.357483 130.620667,62.872719 129.934448,64.439316 
	C129.267426,65.962067 128.720581,67.537476 127.840714,69.815254 
	C123.780571,60.150055 123.780571,60.150055 132.033173,59.851868 
z"/>
<path fill="#3B723F" opacity="1.000000" stroke="none" 
	d="
M64.457253,176.350800 
	C61.755638,177.249329 59.977581,177.076538 59.797489,173.903793 
	C59.561703,169.749908 62.256886,169.644470 66.098495,169.568207 
	C65.602905,171.979523 65.175041,174.061340 64.457253,176.350800 
z"/>
<path fill="#3B723F" opacity="1.000000" stroke="none" 
	d="
M193.987823,104.318237 
	C193.983597,105.586006 194.257843,106.714043 193.881439,107.548660 
	C193.344467,108.739388 192.519531,110.190544 191.453537,110.613953 
	C190.753342,110.892075 188.534164,109.562576 188.527939,108.937729 
	C188.511978,107.337570 189.352432,105.728874 189.850433,104.123596 
	C191.234924,104.606949 192.531845,100.344261 193.987823,104.318237 
z"/>
<path fill="#3F773F" opacity="1.000000" stroke="none" 
	d="
M47.562824,44.802288 
	C43.650173,44.531498 43.321102,42.163433 44.601265,39.673931 
	C45.049595,38.802082 47.868248,38.041546 48.490208,38.561939 
	C50.934135,40.606789 49.918743,42.833519 47.562824,44.802288 
z"/>
<path fill="#3B723F" opacity="1.000000" stroke="none" 
	d="
M131.995972,109.466164 
	C132.124664,107.002609 131.206619,103.948746 134.837692,104.290749 
	C135.971573,104.397552 136.916214,106.513573 137.947479,107.709854 
	C136.392334,109.001518 134.837189,110.293190 133.282043,111.584869 
	C132.861099,110.987518 132.440155,110.390167 131.995972,109.466164 
z"/>
<path fill="#3B6E3B" opacity="1.000000" stroke="none" 
	d="
M267.024078,109.983627 
	C264.875671,110.684547 262.727264,111.385468 260.578857,112.086388 
	C260.121063,111.863113 259.663239,111.639839 259.205444,111.416565 
	C260.117401,109.005707 260.454010,105.106339 262.058197,104.486237 
	C265.671509,103.089531 265.601501,107.166878 266.801453,109.700089 
	C267.002563,109.999481 267.024078,109.983627 267.024078,109.983627 
z"/>
<path fill="#3B743D" opacity="1.000000" stroke="none" 
	d="
M124.068756,85.015976 
	C125.248184,83.862549 126.417839,83.017677 127.587494,82.172806 
	C128.357925,83.249527 129.837814,84.388466 129.749985,85.389915 
	C129.571350,87.426750 128.546295,89.389359 127.578346,92.242317 
	C125.917778,88.978241 124.988380,87.151390 124.068756,85.015976 
z"/>
<path fill="#3B6E3B" opacity="1.000000" stroke="none" 
	d="
M232.703781,88.322372 
	C231.315475,89.145294 230.151657,89.720367 227.849823,90.857765 
	C228.223877,87.656044 228.375168,85.210159 228.945908,82.866432 
	C229.021118,82.557602 232.212997,82.484024 232.302902,82.789581 
	C232.796646,84.467278 232.773773,86.296997 232.703781,88.322372 
z"/>
<path fill="#3B723F" opacity="1.000000" stroke="none" 
	d="
M267.015564,109.991661 
	C267.298096,109.216805 267.376801,108.280952 267.875793,107.716980 
	C269.003693,106.442223 270.339111,105.351082 271.590118,104.185257 
	C272.359711,105.638023 273.129303,107.090775 273.898895,108.543533 
	C272.363708,109.332222 270.867096,110.220398 269.266754,110.841064 
	C268.856445,111.000191 268.118561,110.314735 267.277649,110.000465 
	C267.024078,109.983627 267.002563,109.999481 267.015564,109.991661 
z"/>
<path fill="#37733E" opacity="1.000000" stroke="none" 
	d="
M155.808075,63.461441 
	C156.912247,62.185955 158.044006,61.167778 159.175766,60.149601 
	C160.088409,61.345901 161.419998,62.437420 161.755310,63.778114 
	C161.953979,64.572433 160.580017,65.760078 159.913208,66.770866 
	C158.554031,65.753494 157.194855,64.736122 155.808075,63.461441 
z"/>
<path fill="#3D713F" opacity="1.000000" stroke="none" 
	d="
M37.634117,176.404434 
	C35.171932,171.568970 35.597443,170.758331 41.332710,169.325348 
	C41.600292,172.522751 43.926525,176.263077 37.634117,176.404434 
z"/>
<path fill="#3D7A3C" opacity="1.000000" stroke="none" 
	d="
M25.919064,174.678528 
	C24.075123,174.593109 22.231182,174.507690 20.101109,174.409027 
	C20.101109,173.074295 20.101109,170.996933 20.101109,168.330338 
	C22.456640,169.318283 25.881227,166.794083 25.950260,172.159683 
	C25.934223,173.438049 25.926643,174.058304 25.919064,174.678528 
z"/>
<path fill="#3C783E" opacity="1.000000" stroke="none" 
	d="
M49.696323,63.389908 
	C48.514851,64.722565 47.371216,65.745995 46.227577,66.769432 
	C45.452663,65.646858 44.118809,64.549477 44.066750,63.394321 
	C44.018784,62.329994 45.348019,61.203598 46.070610,60.104546 
	C47.291794,61.096596 48.512978,62.088646 49.696323,63.389908 
M47.915794,64.688652 
	C47.915794,64.688652 48.173027,64.502235 48.173027,64.502235 
	C48.173027,64.502235 47.842640,64.529060 47.915794,64.688652 
z"/>
<path fill="#3F773F" opacity="1.000000" stroke="none" 
	d="
M200.638428,110.471146 
	C199.044373,110.092072 197.118820,109.878517 196.393234,108.832558 
	C195.845123,108.042412 196.534073,105.994080 197.257263,104.888138 
	C197.627838,104.321457 199.280304,104.593025 200.353424,104.485748 
	C200.509842,106.416801 200.666245,108.347862 200.638428,110.471146 
M199.582062,109.300301 
	C199.585846,109.023987 199.589630,108.747665 199.593414,108.471344 
	C199.324356,108.562126 199.055313,108.652916 198.786270,108.743706 
	C198.951904,108.965363 199.117554,109.187012 199.582062,109.300301 
z"/>
<path fill="#3F793F" opacity="1.000000" stroke="none" 
	d="
M125.291374,104.704971 
	C126.826302,105.003342 128.703384,105.172539 129.320557,106.142998 
	C129.948929,107.131050 129.679398,109.063934 129.127151,110.274864 
	C128.841400,110.901489 126.917229,111.350388 126.033234,111.036049 
	C122.223213,109.681252 124.899315,107.064720 125.291374,104.704971 
M126.827751,106.315636 
	C126.957108,106.135666 127.086456,105.955688 127.215805,105.775711 
	C127.025681,105.889549 126.835548,106.003387 126.827751,106.315636 
z"/>
<path fill="#3B773B" opacity="1.000000" stroke="none" 
	d="
M48.379509,82.543671 
	C48.491386,83.818626 48.398525,84.905693 48.256023,85.986221 
	C48.141994,86.850876 47.967632,87.707565 47.513382,90.355263 
	C45.924892,87.868492 44.925133,86.303368 43.925373,84.738251 
	C45.334698,83.943161 46.744022,83.148064 48.379509,82.543671 
z"/>
<path fill="#3B773B" opacity="1.000000" stroke="none" 
	d="
M26.288454,174.786407 
	C25.926643,174.058304 25.934223,173.438049 25.944530,172.508423 
	C27.963884,174.133392 29.243563,174.242996 29.435499,170.930969 
	C29.454157,170.609024 31.166935,169.980057 31.289448,170.133881 
	C32.214355,171.295135 33.481335,172.591370 33.541931,173.896515 
	C33.585461,174.834061 31.949591,176.633255 31.034737,176.651688 
	C29.588179,176.680862 28.118017,175.539978 26.288454,174.786407 
z"/>
<path fill="#3B743D" opacity="1.000000" stroke="none" 
	d="
M305.679688,106.479004 
	C304.935028,108.201195 304.108215,109.605667 303.281372,111.010132 
	C302.271790,110.314552 300.502686,109.699051 300.419037,108.905861 
	C300.269165,107.483879 301.133026,105.955032 301.573181,104.470840 
	C302.914642,105.034325 304.256073,105.597801 305.679688,106.479004 
z"/>
<path fill="#3D773D" opacity="1.000000" stroke="none" 
	d="
M69.699814,151.924408 
	C69.445778,150.216995 69.053650,148.761841 68.660492,147.302856 
	C72.181900,145.765625 72.181900,145.765625 72.003586,154.837860 
	C71.554024,155.008972 71.104454,155.180099 70.654892,155.351212 
	C70.290504,154.293030 69.926109,153.234833 69.699814,151.924408 
z"/>
<path fill="#3F773F" opacity="1.000000" stroke="none" 
	d="
M230.268768,104.303329 
	C234.487289,104.658432 234.085815,107.312973 233.014420,109.696220 
	C232.686569,110.425484 230.008850,111.052261 229.439499,110.551743 
	C227.135452,108.526268 227.301422,106.244194 230.268768,104.303329 
M231.153625,108.681946 
	C231.027008,108.857056 230.900391,109.032173 230.773773,109.207275 
	C230.959030,109.096352 231.144302,108.985420 231.153625,108.681946 
z"/>
<path fill="#3E7A3D" opacity="1.000000" stroke="none" 
	d="
M31.169264,132.837173 
	C25.151867,131.361511 30.075397,129.547363 30.780293,127.869591 
	C29.991167,127.677284 29.286894,127.505653 28.231762,127.248520 
	C28.949038,126.732635 29.480844,126.143829 29.679834,126.240448 
	C30.992233,126.877701 33.180683,127.554878 33.279327,128.423843 
	C33.434795,129.793381 32.169834,131.324158 31.169264,132.837173 
z"/>
<path fill="#3A6C3A" opacity="1.000000" stroke="none" 
	d="
M180.045807,42.803001 
	C179.163818,43.197163 178.281830,43.591324 177.036728,44.147770 
	C176.488861,43.065514 175.874466,41.851849 175.035614,40.194794 
	C174.183136,41.425419 173.518982,42.384205 172.259262,44.202736 
	C172.259262,40.995361 172.259262,38.789368 172.259262,35.767258 
	C174.840408,37.639656 177.098572,39.277760 179.699738,41.291485 
	C180.043762,42.045734 180.044785,42.424366 180.045807,42.803001 
z"/>
<path fill="#3A6C3A" opacity="1.000000" stroke="none" 
	d="
M84.045784,42.802967 
	C83.163094,43.197460 82.280411,43.591953 81.036736,44.147781 
	C80.488846,43.065525 79.874435,41.851860 79.035568,40.194824 
	C78.183121,41.425423 77.518967,42.384209 76.259247,44.202751 
	C76.259247,40.995346 76.259247,38.789345 76.259247,35.767200 
	C78.840416,37.639652 81.098579,39.277782 83.699738,41.291527 
	C84.043747,42.045750 84.044769,42.424358 84.045784,42.802967 
z"/>
<path fill="#3E7A3D" opacity="1.000000" stroke="none" 
	d="
M204.380997,42.646614 
	C204.968811,41.379051 205.514572,40.373798 205.872192,39.715096 
	C206.095856,39.778809 205.375931,39.573730 204.626175,39.360157 
	C204.777374,39.055092 205.002396,38.529472 205.036942,38.541706 
	C206.517380,39.065899 208.621124,39.259342 209.248825,40.320930 
	C209.773926,41.208973 208.570724,43.118961 208.132843,44.576416 
	C206.868225,44.020588 205.603577,43.464756 204.380997,42.646614 
z"/>
<path fill="#3F793F" opacity="1.000000" stroke="none" 
	d="
M257.194946,108.522003 
	C255.879044,109.322624 254.652863,109.823441 253.426697,110.324249 
	C253.002747,109.000999 252.113846,107.601677 252.313644,106.380478 
	C252.453415,105.526146 254.081161,104.915253 255.044342,104.195633 
	C255.791122,105.537827 256.537903,106.880013 257.194946,108.522003 
z"/>
<path fill="#3B6B3A" opacity="1.000000" stroke="none" 
	d="
M195.154953,86.435936 
	C194.201080,86.647163 193.243469,87.042664 192.294296,87.023315 
	C191.087891,86.998726 189.888351,86.637871 187.767670,86.257156 
	C188.179337,84.799042 188.794846,82.618973 189.704590,80.220703 
	C189.998825,80.002495 189.987625,79.997177 189.987625,79.997177 
	C191.552567,81.955765 193.117493,83.914360 194.897095,86.153885 
	C195.111755,86.434814 195.154953,86.435936 195.154953,86.435936 
z"/>
<path fill="#3E7A3D" opacity="1.000000" stroke="none" 
	d="
M87.831375,110.647980 
	C84.583565,110.884995 83.314606,110.105667 85.325516,107.146622 
	C85.841408,106.387497 85.822144,105.264709 86.162910,103.827461 
	C90.044762,105.248970 91.023636,107.237656 87.831375,110.647980 
z"/>
<path fill="#3B6B3A" opacity="1.000000" stroke="none" 
	d="
M77.987640,79.997177 
	C79.552589,81.955772 81.117531,83.914368 82.897141,86.153900 
	C83.111816,86.434837 83.154999,86.435959 83.154999,86.435959 
	C82.201118,86.647186 81.244278,87.039268 80.294113,87.023705 
	C79.115501,87.004395 77.942429,86.647568 75.767700,86.257126 
	C76.179367,84.799042 76.794884,82.618980 77.704628,80.220703 
	C77.998856,80.002495 77.987640,79.997177 77.987640,79.997177 
z"/>
<path fill="#3A6C3A" opacity="1.000000" stroke="none" 
	d="
M101.742493,64.555946 
	C101.132355,64.961746 100.574295,65.131485 100.016243,65.301224 
	C100.016243,63.388523 100.016243,61.475822 100.016243,59.452209 
	C104.310440,59.440197 106.430191,60.829403 105.736961,64.723511 
	C103.827080,67.441208 104.013077,59.099583 101.742493,64.555946 
z"/>
<path fill="#3F7941" opacity="1.000000" stroke="none" 
	d="
M84.225082,43.093445 
	C84.044769,42.424358 84.043747,42.045750 84.027740,41.384521 
	C85.427643,40.264435 86.842529,39.426971 88.257416,38.589508 
	C88.556259,40.194752 88.855110,41.799999 89.153961,43.405251 
	C87.570763,43.398140 85.987579,43.391033 84.225082,43.093445 
M87.096527,43.327446 
	C87.055649,43.106655 87.014771,42.885864 86.973885,42.665077 
	C86.922737,42.883118 86.871590,43.101162 87.096527,43.327446 
z"/>
<path fill="#3F773F" opacity="1.000000" stroke="none" 
	d="
M195.422272,86.669495 
	C195.154953,86.435936 195.111755,86.434814 195.123169,86.446381 
	C195.418854,85.866486 195.547729,85.046951 196.017090,84.727142 
	C197.321793,83.838188 198.767990,83.156921 200.158310,82.393616 
	C200.503464,83.986839 200.848618,85.580048 201.193771,87.173264 
	C199.710648,87.432289 198.233719,87.759865 196.739395,87.895294 
	C196.422043,87.924065 196.041199,87.252151 195.422272,86.669495 
M199.127563,86.630005 
	C199.335464,86.681168 199.543381,86.732330 199.751282,86.783493 
	C199.585892,86.659508 199.420517,86.535530 199.127563,86.630005 
z"/>
<path fill="#3F773F" opacity="1.000000" stroke="none" 
	d="
M83.422318,86.669510 
	C83.154999,86.435959 83.111816,86.434837 83.123230,86.446404 
	C83.418892,85.866493 83.547729,85.046936 84.017082,84.727135 
	C85.321785,83.838173 86.767990,83.156914 88.158302,82.393608 
	C88.503464,83.986816 88.848625,85.580032 89.193779,87.173233 
	C87.710655,87.432274 86.233749,87.759872 84.739418,87.895325 
	C84.422073,87.924088 84.041229,87.252167 83.422318,86.669510 
M87.689751,86.873222 
	C87.570595,86.709778 87.451439,86.546333 87.332283,86.382889 
	C87.372818,86.578278 87.413361,86.773666 87.689751,86.873222 
z"/>
<path fill="#3F7941" opacity="1.000000" stroke="none" 
	d="
M180.225098,43.093475 
	C180.044785,42.424366 180.043762,42.045734 180.027740,41.384460 
	C181.427643,40.264389 182.842545,39.426956 184.257431,38.589523 
	C184.556274,40.194767 184.855103,41.800014 185.153946,43.405258 
	C183.570755,43.398155 181.987579,43.391052 180.225098,43.093475 
M182.857483,42.672691 
	C182.897095,42.893303 182.936691,43.113918 182.976303,43.334538 
	C183.028107,43.117043 183.079926,42.899548 182.857483,42.672691 
z"/>
<path fill="#3B6B3A" opacity="1.000000" stroke="none" 
	d="
M141.987640,79.997177 
	C143.480164,82.155785 144.972702,84.314400 146.434250,86.428207 
	C143.710953,86.428207 142.140778,86.428207 139.746750,86.428207 
	C140.195267,84.813515 140.802811,82.626213 141.704605,80.220703 
	C141.998840,80.002495 141.987640,79.997177 141.987640,79.997177 
z"/>
<path fill="#3A6C3A" opacity="1.000000" stroke="none" 
	d="
M170.086304,108.887619 
	C168.970245,108.647392 167.896790,108.187988 166.238434,107.478279 
	C166.133362,107.621048 165.461700,108.533806 164.790024,109.446556 
	C164.382965,109.246559 163.975891,109.046562 163.568832,108.846565 
	C164.367050,107.282860 164.866821,104.685074 166.020294,104.352150 
	C169.291321,103.408020 170.248001,105.772652 170.086304,108.887619 
z"/>
<path fill="#3F793F" opacity="1.000000" stroke="none" 
	d="
M111.984589,87.280518 
	C111.174423,87.663658 110.221367,87.909546 109.268318,88.155434 
	C109.059532,86.652756 108.489555,85.066833 108.807854,83.685623 
	C108.948296,83.076210 110.891853,82.882317 112.016808,82.499779 
	C112.252815,83.574913 112.601097,84.642815 112.671112,85.728653 
	C112.700249,86.180481 112.136086,86.670570 111.984589,87.280518 
z"/>
<path fill="#3C783E" opacity="1.000000" stroke="none" 
	d="
M88.351402,66.196587 
	C87.027527,65.941010 85.098564,65.853523 84.571938,64.949303 
	C84.047012,64.048012 84.567963,62.047546 85.327209,61.070549 
	C85.789253,60.475990 87.569916,60.906151 88.758263,60.876015 
	C88.611580,61.919804 88.427010,62.960163 88.332008,64.008636 
	C88.272232,64.668381 88.346680,65.340279 88.351402,66.196587 
z"/>
<path fill="#3C783E" opacity="1.000000" stroke="none" 
	d="
M199.974411,60.392040 
	C200.140640,61.719566 199.978516,62.932064 199.912247,64.149780 
	C199.871429,64.899696 199.976944,65.657585 200.107071,68.122818 
	C198.317810,66.238403 196.189835,64.869614 196.376587,63.995224 
	C196.677750,62.585220 198.504303,61.501030 199.974411,60.392040 
z"/>
<path fill="#3A6C3A" opacity="1.000000" stroke="none" 
	d="
M33.929478,39.818779 
	C33.927998,41.485073 33.864143,42.906075 33.800285,44.327072 
	C33.539310,44.377209 33.278332,44.427341 33.017357,44.477474 
	C32.452415,43.233879 31.887476,41.990284 31.105539,40.269016 
	C30.224035,41.457092 29.528830,42.394081 28.068571,44.362194 
	C28.266327,41.945621 28.179506,39.741901 28.495951,39.682388 
	C30.231764,39.355927 32.066402,39.554935 33.929478,39.818779 
z"/>
<path fill="#3A6C3A" opacity="1.000000" stroke="none" 
	d="
M27.848959,64.381851 
	C27.007883,61.413349 28.154800,59.586090 30.859129,60.298199 
	C32.347847,60.690208 33.342579,62.958218 34.560024,64.380440 
	C34.082260,64.757355 33.604500,65.134270 33.126736,65.511185 
	C32.503689,64.595848 31.880642,63.680515 31.061867,62.477634 
	C30.152500,63.484974 29.290337,64.440025 28.428173,65.395081 
	C28.317198,65.280640 28.186226,65.179222 28.100790,65.048134 
	C28.012865,64.913231 27.969353,64.749382 27.848959,64.381851 
z"/>
<path fill="#3A6C3A" opacity="1.000000" stroke="none" 
	d="
M29.541719,82.323761 
	C33.947662,81.818245 33.917950,84.384811 33.676613,87.232880 
	C31.807905,87.232880 30.141129,87.232880 27.692822,87.232880 
	C28.231581,85.552139 28.731432,83.992790 29.541719,82.323761 
M31.053471,83.483032 
	C31.053471,83.483032 30.831327,83.638260 30.831327,83.638260 
	C30.831327,83.638260 31.103924,83.623558 31.053471,83.483032 
z"/>
<path fill="#3C783E" opacity="1.000000" stroke="none" 
	d="
M109.263596,66.241081 
	C108.854279,64.630440 108.078537,62.808861 108.677437,61.977085 
	C109.280510,61.139530 111.245872,61.247612 112.631210,61.100464 
	C112.710236,61.092068 112.942009,62.521770 113.102692,63.282169 
	C110.474495,62.726868 113.440056,68.504776 109.263596,66.241081 
z"/>
<path fill="#3B6B3A" opacity="1.000000" stroke="none" 
	d="
M117.524094,82.566246 
	C121.527252,81.994118 121.948769,84.148148 121.583221,87.936684 
	C120.452713,86.404228 119.793304,85.510368 118.905334,84.306679 
	C118.153503,85.437653 117.508385,86.408096 116.863266,87.378548 
	C116.542671,87.247734 116.222076,87.116928 115.901474,86.986122 
	C116.335785,85.563095 116.770088,84.140068 117.524094,82.566246 
z"/>
<path fill="#3B6B3A" opacity="1.000000" stroke="none" 
	d="
M100.705200,43.141342 
	C99.704071,40.794399 99.745911,38.388523 102.676094,38.475800 
	C103.960136,38.514046 105.173538,40.924023 106.419014,42.257042 
	C105.928925,42.641384 105.438843,43.025726 104.948761,43.410069 
	C104.345978,42.447384 103.743202,41.484699 102.983894,40.272030 
	C102.174026,41.422470 101.552437,42.305454 100.705200,43.141342 
z"/>
<path fill="#3F793F" opacity="1.000000" stroke="none" 
	d="
M31.818386,150.911621 
	C31.626717,152.093018 31.435047,153.274414 31.127377,154.699829 
	C26.400509,153.435562 25.658398,152.644653 26.883717,150.210114 
	C27.000895,150.000351 27.007648,150.002518 27.268171,150.251831 
	C28.958591,150.637985 30.388489,150.774796 31.818386,150.911621 
z"/>
<path fill="#3F793F" opacity="1.000000" stroke="none" 
	d="
M223.818420,62.911583 
	C223.626740,64.092995 223.435043,65.274399 223.127350,66.699814 
	C218.400360,65.435509 217.658356,64.644691 218.883713,62.210052 
	C219.000870,62.000305 219.007645,62.002514 219.268158,62.251831 
	C220.958603,62.637959 222.388504,62.774773 223.818420,62.911583 
z"/>
<path fill="#3F793F" opacity="1.000000" stroke="none" 
	d="
M223.673767,60.095757 
	C223.999252,60.312637 223.978210,60.498703 223.573334,60.976364 
	C221.795563,61.512810 220.401596,61.757660 219.007645,62.002510 
	C219.007645,62.002514 219.000870,62.000305 219.000046,61.998672 
	C220.441910,61.353004 221.884583,60.708977 223.673767,60.095757 
z"/>
<path fill="#3F793F" opacity="1.000000" stroke="none" 
	d="
M31.673775,148.095749 
	C31.999245,148.312637 31.978209,148.498703 31.573357,148.976379 
	C29.795574,149.512833 28.401611,149.757675 27.007648,150.002518 
	C27.007648,150.002518 27.000895,150.000351 27.000044,149.998734 
	C28.441885,149.353058 29.884577,148.708984 31.673775,148.095749 
z"/>
<path fill="#3B6B3A" opacity="1.000000" stroke="none" 
	d="
M78.001526,80.008377 
	C78.004204,80.014252 77.993309,79.883904 77.990479,79.940536 
	C77.987640,79.997177 77.998856,80.002495 78.001526,80.008377 
z"/>
<path fill="#3B6B3A" opacity="1.000000" stroke="none" 
	d="
M142.001511,80.008377 
	C142.004181,80.014252 141.993317,79.883896 141.990479,79.940536 
	C141.987640,79.997177 141.998840,80.002495 142.001511,80.008377 
z"/>
<path fill="#3B6B3A" opacity="1.000000" stroke="none" 
	d="
M190.001495,80.008377 
	C190.004166,80.014252 189.993286,79.883904 189.990448,79.940536 
	C189.987625,79.997177 189.998825,80.002495 190.001495,80.008377 
z"/>
<path fill="#2B2B2B" opacity="1.000000" stroke="none" 
	d="
M251.027496,41.143902 
	C250.903229,41.130646 250.813156,40.742031 250.852997,40.186127 
	C251.009155,40.268738 251.035416,40.518639 251.027496,41.143902 
z"/>
<path fill="#2B2B2B" opacity="1.000000" stroke="none" 
	d="
M148.198013,37.820637 
	C148.233215,37.924267 148.083359,38.223164 147.789032,38.465073 
	C147.767365,38.277351 147.890152,38.146629 148.198013,37.820637 
z"/>
<path fill="#2B2B2B" opacity="1.000000" stroke="none" 
	d="
M219.268158,62.251827 
	C220.401596,61.757660 221.795563,61.512810 223.541656,61.255444 
	C223.890228,61.614616 223.886658,61.986301 223.850769,62.634785 
	C222.388504,62.774773 220.958603,62.637959 219.268158,62.251827 
z"/>
<path fill="#2B2B2B" opacity="1.000000" stroke="none" 
	d="
M27.268173,150.251831 
	C28.401611,149.757675 29.795574,149.512833 31.541676,149.255463 
	C31.890236,149.614639 31.886656,149.986313 31.850731,150.634811 
	C30.388489,150.774796 28.958591,150.637985 27.268173,150.251831 
z"/>
<path fill="#2B2B2B" opacity="1.000000" stroke="none" 
	d="
M47.879219,64.608856 
	C47.842640,64.529060 48.173027,64.502235 48.173027,64.502235 
	C48.173027,64.502235 47.915794,64.688652 47.879219,64.608856 
z"/>
<path fill="#2B2B2B" opacity="1.000000" stroke="none" 
	d="
M199.432617,109.354485 
	C199.117554,109.187012 198.951904,108.965363 198.786270,108.743698 
	C199.055313,108.652916 199.324356,108.562126 199.593414,108.471344 
	C199.589630,108.747665 199.585846,109.023987 199.432617,109.354485 
z"/>
<path fill="#2B2B2B" opacity="1.000000" stroke="none" 
	d="
M126.736588,106.216431 
	C126.835548,106.003387 127.025681,105.889549 127.215805,105.775711 
	C127.086456,105.955688 126.957108,106.135666 126.736588,106.216431 
z"/>
<path fill="#2B2B2B" opacity="1.000000" stroke="none" 
	d="
M231.241608,108.778221 
	C231.144302,108.985420 230.959030,109.096352 230.773773,109.207275 
	C230.900391,109.032173 231.027008,108.857056 231.241608,108.778221 
z"/>
<path fill="#2B2B2B" opacity="1.000000" stroke="none" 
	d="
M86.958488,43.323326 
	C86.871590,43.101162 86.922737,42.883118 86.973892,42.665077 
	C87.014771,42.885864 87.055649,43.106655 86.958488,43.323326 
z"/>
<path fill="#2B2B2B" opacity="1.000000" stroke="none" 
	d="
M199.191345,86.520782 
	C199.420517,86.535530 199.585892,86.659508 199.751282,86.783493 
	C199.543381,86.732330 199.335464,86.681168 199.191345,86.520782 
z"/>
<path fill="#2B2B2B" opacity="1.000000" stroke="none" 
	d="
M87.571823,86.921143 
	C87.413361,86.773666 87.372818,86.578278 87.332283,86.382889 
	C87.451439,86.546333 87.570595,86.709778 87.571823,86.921143 
z"/>
<path fill="#2B2B2B" opacity="1.000000" stroke="none" 
	d="
M182.994614,42.677372 
	C183.079926,42.899548 183.028107,43.117043 182.976288,43.334534 
	C182.936691,43.113918 182.897095,42.893303 182.994614,42.677372 
z"/>
<path fill="#2B2B2B" opacity="1.000000" stroke="none" 
	d="
M31.078697,83.553299 
	C31.103924,83.623558 30.831327,83.638260 30.831327,83.638260 
	C30.831327,83.638260 31.053471,83.483032 31.078697,83.553299 
z"/>
</svg>