<svg xmlns="http://www.w3.org/2000/svg" xmlns:xlink="http://www.w3.org/1999/xlink" contentStyleType="text/css" data-diagram-type="CLASS" height="1140px" preserveAspectRatio="none" style="width:2473px;height:1140px;background:#FFFFFF;" version="1.1" viewBox="0 0 2473 1140" width="2473px" zoomAndPan="magnify"><title>Us014 - Railway Maintenance System</title><defs/><g><g class="title" data-source-line="2"><text fill="#000000" font-family="sans-serif" font-size="14" font-weight="bold" lengthAdjust="spacing" textLength="295.3877" x="1081.9962" y="22.9951">Us014 - Railway Maintenance System</text></g><!--class RouteMantainanceUi--><g class="entity" data-entity="RouteMantainanceUi" data-source-line="4" data-uid="ent0002" id="entity_RouteMantainanceUi"><rect fill="#F1F1F1" height="292.4531" rx="2.5" ry="2.5" style="stroke:#181818;stroke-width:0.5;" width="505.2607" x="1567.03" y="44.2969"/><ellipse cx="1742.6452" cy="60.2969" fill="#ADD1B2" rx="11" ry="11" style="stroke:#181818;stroke-width:1;"/><path d="M1745.614,65.9375 Q1745.0359,66.2344 1744.3952,66.375 Q1743.7546,66.5313 1743.0515,66.5313 Q1740.5515,66.5313 1739.2234,64.8906 Q1737.9109,63.2344 1737.9109,60.1094 Q1737.9109,56.9844 1739.2234,55.3281 Q1740.5515,53.6719 1743.0515,53.6719 Q1743.7546,53.6719 1744.3952,53.8281 Q1745.0515,53.9844 1745.614,54.2813 L1745.614,57 Q1744.989,56.4219 1744.3952,56.1563 Q1743.8015,55.875 1743.1765,55.875 Q1741.8327,55.875 1741.1452,56.9531 Q1740.4577,58.0156 1740.4577,60.1094 Q1740.4577,62.2031 1741.1452,63.2813 Q1741.8327,64.3438 1743.1765,64.3438 Q1743.8015,64.3438 1744.3952,64.0781 Q1744.989,63.7969 1745.614,63.2188 L1745.614,65.9375 Z " fill="#000000"/><text fill="#000000" font-family="sans-serif" font-size="14" lengthAdjust="spacing" textLength="145.5303" x="1763.1452" y="65.1436">RouteMantainanceUi</text><line style="stroke:#181818;stroke-width:0.5;" x1="1568.03" x2="2071.2907" y1="76.2969" y2="76.2969"/><rect fill="none" height="6" style="stroke:#C82930;stroke-width:1;" width="6" x="1575.03" y="86.9453"/><text fill="#000000" font-family="sans-serif" font-size="14" lengthAdjust="spacing" textLength="276.8281" x="1587.03" y="93.292">controller: RouteMantainanceController</text><rect fill="none" height="6" style="stroke:#C82930;stroke-width:1;" width="6" x="1575.03" y="103.2422"/><text fill="#000000" font-family="sans-serif" font-size="14" lengthAdjust="spacing" textLength="153.4736" x="1587.03" y="109.5889">maintenanceType: int</text><rect fill="none" height="6" style="stroke:#C82930;stroke-width:1;" width="6" x="1575.03" y="119.5391"/><text fill="#000000" font-family="sans-serif" font-size="14" lengthAdjust="spacing" textLength="193.4707" x="1587.03" y="125.8857">stationsValidName: String[]</text><rect fill="none" height="6" style="stroke:#C82930;stroke-width:1;" width="6" x="1575.03" y="135.8359"/><text fill="#000000" font-family="sans-serif" font-size="14" lengthAdjust="spacing" textLength="181.4805" x="1587.03" y="142.1826">linesValidName: String[][]</text><rect fill="none" height="6" style="stroke:#C82930;stroke-width:1;" width="6" x="1575.03" y="152.1328"/><text fill="#000000" font-family="sans-serif" font-size="14" lengthAdjust="spacing" textLength="81.4365" x="1587.03" y="158.4795">sc: Scanner</text><line style="stroke:#181818;stroke-width:0.5;" x1="1568.03" x2="2071.2907" y1="165.7813" y2="165.7813"/><ellipse cx="1578.03" cy="179.4297" fill="#84BE84" rx="3" ry="3" style="stroke:#038048;stroke-width:1;"/><text fill="#000000" font-family="sans-serif" font-size="14" lengthAdjust="spacing" textLength="73.2197" x="1587.03" y="182.7764">run(): void</text><rect fill="#F24D5C" height="6" style="stroke:#C82930;stroke-width:1;" width="6" x="1575.03" y="192.7266"/><text fill="#000000" font-family="sans-serif" font-size="14" lengthAdjust="spacing" textLength="165.3682" x="1587.03" y="199.0732">getWhichScenario(): int</text><rect fill="#F24D5C" height="6" style="stroke:#C82930;stroke-width:1;" width="6" x="1575.03" y="209.0234"/><text fill="#000000" font-family="sans-serif" font-size="14" lengthAdjust="spacing" textLength="202.5693" x="1587.03" y="215.3701">displayMessage(String): void</text><rect fill="#F24D5C" height="6" style="stroke:#C82930;stroke-width:1;" width="6" x="1575.03" y="225.3203"/><text fill="#000000" font-family="sans-serif" font-size="14" lengthAdjust="spacing" textLength="254.4063" x="1587.03" y="231.667">isValidInput(String, int, int): boolean</text><rect fill="#F24D5C" height="6" style="stroke:#C82930;stroke-width:1;" width="6" x="1575.03" y="241.6172"/><text fill="#000000" font-family="sans-serif" font-size="14" lengthAdjust="spacing" textLength="194.7764" x="1587.03" y="247.9639">listMaintenanceType(): void</text><rect fill="#F24D5C" height="6" style="stroke:#C82930;stroke-width:1;" width="6" x="1575.03" y="257.9141"/><text fill="#000000" font-family="sans-serif" font-size="14" lengthAdjust="spacing" textLength="135.7344" x="1587.03" y="264.2607">createRoute(): void</text><rect fill="#F24D5C" height="6" style="stroke:#C82930;stroke-width:1;" width="6" x="1575.03" y="274.2109"/><text fill="#000000" font-family="sans-serif" font-size="14" lengthAdjust="spacing" textLength="272.1865" x="1587.03" y="280.5576">menu(ArrayList&lt;String&gt;, Scanner): int</text><rect fill="#F24D5C" height="6" style="stroke:#C82930;stroke-width:1;" width="6" x="1575.03" y="290.5078"/><text fill="#000000" font-family="sans-serif" font-size="14" lengthAdjust="spacing" textLength="426.2412" x="1587.03" y="296.8545">getStationDegrees(String[][], String[]): Map&lt;String,Integer&gt;</text><rect fill="#F24D5C" height="6" style="stroke:#C82930;stroke-width:1;" width="6" x="1575.03" y="306.8047"/><text fill="#000000" font-family="sans-serif" font-size="14" lengthAdjust="spacing" textLength="479.2607" x="1587.03" y="313.1514">getOddDegreeVertices(Map&lt;String,Integer&gt;): Map&lt;String,Integer&gt;</text><rect fill="#F24D5C" height="6" style="stroke:#C82930;stroke-width:1;" width="6" x="1575.03" y="323.1016"/><text fill="#000000" font-family="sans-serif" font-size="14" lengthAdjust="spacing" textLength="349.542" x="1587.03" y="329.4482">getValidStartStations(String[]): ArrayList&lt;String&gt;</text></g><!--class RouteMantainanceController--><g class="entity" data-entity="RouteMantainanceController" data-source-line="23" data-uid="ent0003" id="entity_RouteMantainanceController"><rect fill="#F1F1F1" height="373.9375" rx="2.5" ry="2.5" style="stroke:#181818;stroke-width:0.5;" width="545.0459" x="1547.14" y="396.7469"/><ellipse cx="1715.1297" cy="412.7469" fill="#ADD1B2" rx="11" ry="11" style="stroke:#181818;stroke-width:1;"/><path d="M1718.0985,418.3875 Q1717.5204,418.6844 1716.8797,418.825 Q1716.2391,418.9812 1715.536,418.9812 Q1713.036,418.9812 1711.7079,417.3406 Q1710.3954,415.6844 1710.3954,412.5594 Q1710.3954,409.4344 1711.7079,407.7781 Q1713.036,406.1219 1715.536,406.1219 Q1716.2391,406.1219 1716.8797,406.2781 Q1717.536,406.4344 1718.0985,406.7312 L1718.0985,409.45 Q1717.4735,408.8719 1716.8797,408.6062 Q1716.286,408.325 1715.661,408.325 Q1714.3172,408.325 1713.6297,409.4031 Q1712.9422,410.4656 1712.9422,412.5594 Q1712.9422,414.6531 1713.6297,415.7312 Q1714.3172,416.7937 1715.661,416.7937 Q1716.286,416.7937 1716.8797,416.5281 Q1717.4735,416.2469 1718.0985,415.6687 L1718.0985,418.3875 Z " fill="#000000"/><text fill="#000000" font-family="sans-serif" font-size="14" lengthAdjust="spacing" textLength="200.5664" x="1735.6297" y="417.5936">RouteMantainanceController</text><line style="stroke:#181818;stroke-width:0.5;" x1="1548.14" x2="2091.1859" y1="428.7469" y2="428.7469"/><rect fill="none" height="6" style="stroke:#C82930;stroke-width:1;" width="6" x="1555.14" y="439.3953"/><text fill="#000000" font-family="sans-serif" font-size="14" lengthAdjust="spacing" textLength="215.4277" x="1567.14" y="445.742">degrees: Map&lt;String,Integer&gt;</text><rect fill="none" height="6" style="stroke:#C82930;stroke-width:1;" width="6" x="1555.14" y="455.6922"/><text fill="#000000" font-family="sans-serif" font-size="14" lengthAdjust="spacing" textLength="226.6797" x="1567.14" y="462.0389">oddCount: Map&lt;String,Integer&gt;</text><rect fill="none" height="6" style="stroke:#C82930;stroke-width:1;" width="6" x="1555.14" y="471.9891"/><text fill="#000000" font-family="sans-serif" font-size="14" lengthAdjust="spacing" textLength="261.6318" x="1567.14" y="478.3357">validStartStations: ArrayList&lt;String&gt;</text><rect fill="none" height="6" style="stroke:#C82930;stroke-width:1;" width="6" x="1555.14" y="488.2859"/><text fill="#000000" font-family="sans-serif" font-size="14" lengthAdjust="spacing" textLength="136.1309" x="1567.14" y="494.6326">graph: SingleGraph</text><rect fill="none" height="6" style="stroke:#C82930;stroke-width:1;" width="6" x="1555.14" y="504.5828"/><text fill="#000000" font-family="sans-serif" font-size="14" lengthAdjust="spacing" textLength="106.2373" x="1567.14" y="510.9295">stationFile: File</text><rect fill="none" height="6" style="stroke:#C82930;stroke-width:1;" width="6" x="1555.14" y="520.8797"/><text fill="#000000" font-family="sans-serif" font-size="14" lengthAdjust="spacing" textLength="83.3232" x="1567.14" y="527.2264">lineFile: File</text><line style="stroke:#181818;stroke-width:0.5;" x1="1548.14" x2="2091.1859" y1="534.5281" y2="534.5281"/><ellipse cx="1558.14" cy="548.1766" fill="#84BE84" rx="3" ry="3" style="stroke:#038048;stroke-width:1;"/><text fill="#000000" font-family="sans-serif" font-size="14" lengthAdjust="spacing" textLength="243.5371" x="1567.14" y="551.5232">filterLines(String[][], int): String[][]</text><ellipse cx="1558.14" cy="564.4734" fill="#84BE84" rx="3" ry="3" style="stroke:#038048;stroke-width:1;"/><text fill="#000000" font-family="sans-serif" font-size="14" lengthAdjust="spacing" textLength="330.8115" x="1567.14" y="567.8201">isGraphConnected(String[], String[][]): boolean</text><ellipse cx="1558.14" cy="580.7703" fill="#84BE84" rx="3" ry="3" style="stroke:#038048;stroke-width:1;"/><text fill="#000000" font-family="sans-serif" font-size="14" lengthAdjust="spacing" textLength="426.2412" x="1567.14" y="584.117">getStationDegrees(String[][], String[]): Map&lt;String,Integer&gt;</text><ellipse cx="1558.14" cy="597.0672" fill="#84BE84" rx="3" ry="3" style="stroke:#038048;stroke-width:1;"/><text fill="#000000" font-family="sans-serif" font-size="14" lengthAdjust="spacing" textLength="479.2607" x="1567.14" y="600.4139">getOddDegreeVertices(Map&lt;String,Integer&gt;): Map&lt;String,Integer&gt;</text><ellipse cx="1558.14" cy="613.3641" fill="#84BE84" rx="3" ry="3" style="stroke:#038048;stroke-width:1;"/><text fill="#000000" font-family="sans-serif" font-size="14" lengthAdjust="spacing" textLength="349.542" x="1567.14" y="616.7107">getValidStartStations(String[]): ArrayList&lt;String&gt;</text><ellipse cx="1558.14" cy="629.6609" fill="#84BE84" rx="3" ry="3" style="stroke:#038048;stroke-width:1;"/><text fill="#000000" font-family="sans-serif" font-size="14" lengthAdjust="spacing" textLength="308.6768" x="1567.14" y="633.0076">buildGraph(String[], String[][]): SingleGraph</text><ellipse cx="1558.14" cy="645.9578" fill="#84BE84" rx="3" ry="3" style="stroke:#038048;stroke-width:1;"/><text fill="#000000" font-family="sans-serif" font-size="14" lengthAdjust="spacing" textLength="519.0459" x="1567.14" y="649.3045">executeFleuryAlgorithm(int, String, String[][], String[]): ArrayList&lt;String&gt;</text><ellipse cx="1558.14" cy="662.2547" fill="#84BE84" rx="3" ry="3" style="stroke:#038048;stroke-width:1;"/><text fill="#000000" font-family="sans-serif" font-size="14" lengthAdjust="spacing" textLength="159.9951" x="1567.14" y="665.6014">getStationFile(int): File</text><ellipse cx="1558.14" cy="678.5516" fill="#84BE84" rx="3" ry="3" style="stroke:#038048;stroke-width:1;"/><text fill="#000000" font-family="sans-serif" font-size="14" lengthAdjust="spacing" textLength="139.3984" x="1567.14" y="681.8982">getLineFile(int): File</text><ellipse cx="1558.14" cy="694.8484" fill="#84BE84" rx="3" ry="3" style="stroke:#038048;stroke-width:1;"/><text fill="#000000" font-family="sans-serif" font-size="14" lengthAdjust="spacing" textLength="152.8516" x="1567.14" y="698.1951">getStations(): String[]</text><ellipse cx="1558.14" cy="711.1453" fill="#84BE84" rx="3" ry="3" style="stroke:#038048;stroke-width:1;"/><text fill="#000000" font-family="sans-serif" font-size="14" lengthAdjust="spacing" textLength="143.1787" x="1567.14" y="714.492">getLines(): String[][]</text><rect fill="#F24D5C" height="6" style="stroke:#C82930;stroke-width:1;" width="6" x="1555.14" y="724.4422"/><text fill="#000000" font-family="sans-serif" font-size="14" lengthAdjust="spacing" textLength="222.9404" x="1567.14" y="730.7889">cloneArray(String[][]): String[][]</text><rect fill="#F24D5C" height="6" style="stroke:#C82930;stroke-width:1;" width="6" x="1555.14" y="740.7391"/><text fill="#000000" font-family="sans-serif" font-size="14" lengthAdjust="spacing" textLength="443.2422" x="1567.14" y="747.0857">createAdjacencyMatrix(Map&lt;String,Integer&gt;, String[][]): int[][]</text><rect fill="#F24D5C" height="6" style="stroke:#C82930;stroke-width:1;" width="6" x="1555.14" y="757.0359"/><text fill="#000000" font-family="sans-serif" font-size="14" lengthAdjust="spacing" textLength="313.7148" x="1567.14" y="763.3826">getIndexMap(String[]): Map&lt;String,Integer&gt;</text></g><!--class FleuryAlgorithm--><g class="entity" data-entity="FleuryAlgorithm" data-source-line="47" data-uid="ent0004" id="entity_FleuryAlgorithm"><rect fill="#F1F1F1" height="178.375" rx="2.5" ry="2.5" style="stroke:#181818;stroke-width:0.5;" width="1007.3193" x="7" y="830.6869"/><ellipse cx="450.3926" cy="846.6869" fill="#ADD1B2" rx="11" ry="11" style="stroke:#181818;stroke-width:1;"/><path d="M453.3613,852.3275 Q452.7832,852.6244 452.1426,852.765 Q451.502,852.9212 450.7988,852.9212 Q448.2988,852.9212 446.9707,851.2806 Q445.6582,849.6244 445.6582,846.4994 Q445.6582,843.3744 446.9707,841.7181 Q448.2988,840.0619 450.7988,840.0619 Q451.502,840.0619 452.1426,840.2181 Q452.7988,840.3744 453.3613,840.6712 L453.3613,843.39 Q452.7363,842.8119 452.1426,842.5462 Q451.5488,842.265 450.9238,842.265 Q449.5801,842.265 448.8926,843.3431 Q448.2051,844.4056 448.2051,846.4994 Q448.2051,848.5931 448.8926,849.6712 Q449.5801,850.7337 450.9238,850.7337 Q451.5488,850.7337 452.1426,850.4681 Q452.7363,850.1869 453.3613,849.6087 L453.3613,852.3275 Z " fill="#000000"/><text fill="#000000" font-family="sans-serif" font-size="14" lengthAdjust="spacing" textLength="112.0342" x="470.8926" y="851.5336">FleuryAlgorithm</text><line style="stroke:#181818;stroke-width:0.5;" x1="8" x2="1013.3193" y1="862.6869" y2="862.6869"/><line style="stroke:#181818;stroke-width:0.5;" x1="8" x2="1013.3193" y1="870.6869" y2="870.6869"/><ellipse cx="18" cy="884.3353" fill="#84BE84" rx="3" ry="3" style="stroke:#038048;stroke-width:1;"/><text fill="#000000" font-family="sans-serif" font-size="14" lengthAdjust="spacing" textLength="766.9785" x="27" y="887.682">execute(SingleGraph, ArrayList&lt;String&gt;, int[][], Map&lt;String,Integer&gt;, String[][], Map&lt;String,Integer&gt;): void</text><ellipse cx="18" cy="900.6322" fill="#84BE84" rx="3" ry="3" style="stroke:#038048;stroke-width:1;"/><text fill="#000000" font-family="sans-serif" font-size="14" lengthAdjust="spacing" textLength="495.7695" x="27" y="903.9789">countOddDegreeVertices(Map&lt;String,Integer&gt;): Map&lt;String,Integer&gt;</text><ellipse cx="18" cy="916.9291" fill="#84BE84" rx="3" ry="3" style="stroke:#038048;stroke-width:1;"/><text fill="#000000" font-family="sans-serif" font-size="14" lengthAdjust="spacing" textLength="463.1211" x="27" y="920.2757">calculateVertexDegrees(String[][], String[]): Map&lt;String,Integer&gt;</text><ellipse cx="18" cy="933.2259" fill="#84BE84" rx="3" ry="3" style="stroke:#038048;stroke-width:1;"/><text fill="#000000" font-family="sans-serif" font-size="14" lengthAdjust="spacing" textLength="632.3379" x="27" y="936.5726">getValidStations(Map&lt;String,Integer&gt;, Map&lt;String,Integer&gt;, String[]): ArrayList&lt;String&gt;</text><ellipse cx="18" cy="949.5228" fill="#84BE84" rx="3" ry="3" style="stroke:#038048;stroke-width:1;"/><text fill="#000000" font-family="sans-serif" font-size="14" lengthAdjust="spacing" textLength="335.4736" x="27" y="952.8695">createIndexMap(String[]): Map&lt;String,Integer&gt;</text><rect fill="#F24D5C" height="6" style="stroke:#C82930;stroke-width:1;" width="6" x="15" y="962.8197"/><text fill="#000000" font-family="sans-serif" font-size="14" lengthAdjust="spacing" textLength="981.3193" x="27" y="969.1664">findAndProcessNextLine(SingleGraph, ArrayList&lt;String&gt;, String, int, int[][], Map&lt;String,Integer&gt;, String[][], Map&lt;String,Integer&gt;): String[]</text><rect fill="#F24D5C" height="6" style="stroke:#C82930;stroke-width:1;" width="6" x="15" y="979.1166"/><text fill="#000000" font-family="sans-serif" font-size="14" lengthAdjust="spacing" textLength="195.542" x="27" y="985.4632">countTotalEdges(int[][]): int</text><rect fill="#F24D5C" height="6" style="stroke:#C82930;stroke-width:1;" width="6" x="15" y="995.4134"/><text fill="#000000" font-family="sans-serif" font-size="14" lengthAdjust="spacing" textLength="333.1631" x="27" y="1001.7601">isBridge(Map&lt;String,Integer&gt;, String): boolean</text></g><!--class GraphBuilder--><g class="entity" data-entity="GraphBuilder" data-source-line="58" data-uid="ent0005" id="entity_GraphBuilder"><rect fill="#F1F1F1" height="113.1875" rx="2.5" ry="2.5" style="stroke:#181818;stroke-width:0.5;" width="501.5352" x="1048.89" y="863.2769"/><ellipse cx="1249.1796" cy="879.2769" fill="#ADD1B2" rx="11" ry="11" style="stroke:#181818;stroke-width:1;"/><path d="M1252.1483,884.9175 Q1251.5702,885.2144 1250.9296,885.355 Q1250.2889,885.5113 1249.5858,885.5113 Q1247.0858,885.5113 1245.7577,883.8706 Q1244.4452,882.2144 1244.4452,879.0894 Q1244.4452,875.9644 1245.7577,874.3081 Q1247.0858,872.6519 1249.5858,872.6519 Q1250.2889,872.6519 1250.9296,872.8081 Q1251.5858,872.9644 1252.1483,873.2613 L1252.1483,875.98 Q1251.5233,875.4019 1250.9296,875.1363 Q1250.3358,874.855 1249.7108,874.855 Q1248.3671,874.855 1247.6796,875.9331 Q1246.9921,876.9956 1246.9921,879.0894 Q1246.9921,881.1831 1247.6796,882.2613 Q1248.3671,883.3238 1249.7108,883.3238 Q1250.3358,883.3238 1250.9296,883.0581 Q1251.5233,882.7769 1252.1483,882.1988 L1252.1483,884.9175 Z " fill="#000000"/><text fill="#000000" font-family="sans-serif" font-size="14" lengthAdjust="spacing" textLength="92.4561" x="1269.6796" y="884.1236">GraphBuilder</text><line style="stroke:#181818;stroke-width:0.5;" x1="1049.89" x2="1549.4252" y1="895.2769" y2="895.2769"/><rect fill="none" height="6" style="stroke:#C82930;stroke-width:1;" width="6" x="1056.89" y="905.9253"/><text fill="#000000" font-family="sans-serif" font-size="14" lengthAdjust="spacing" text-decoration="underline" textLength="140.4307" x="1068.89" y="912.272">ELECTRIFIED: String</text><line style="stroke:#181818;stroke-width:0.5;" x1="1049.89" x2="1549.4252" y1="919.5738" y2="919.5738"/><ellipse cx="1059.89" cy="933.2222" fill="#84BE84" rx="3" ry="3" style="stroke:#038048;stroke-width:1;"/><text fill="#000000" font-family="sans-serif" font-size="14" lengthAdjust="spacing" text-decoration="underline" textLength="308.6768" x="1068.89" y="936.5689">buildGraph(String[], String[][]): SingleGraph</text><ellipse cx="1059.89" cy="949.5191" fill="#84BE84" rx="3" ry="3" style="stroke:#038048;stroke-width:1;"/><text fill="#000000" font-family="sans-serif" font-size="14" lengthAdjust="spacing" text-decoration="underline" textLength="390.8857" x="1068.89" y="952.8657">highlightStations(SingleGraph, ArrayList&lt;String&gt;): void</text><ellipse cx="1059.89" cy="965.8159" fill="#84BE84" rx="3" ry="3" style="stroke:#038048;stroke-width:1;"/><text fill="#000000" font-family="sans-serif" font-size="14" lengthAdjust="spacing" text-decoration="underline" textLength="475.5352" x="1068.89" y="969.1626">unhighlightOtherStations(SingleGraph, ArrayList&lt;String&gt;, int): void</text></g><!--class GraphUtils--><g class="entity" data-entity="GraphUtils" data-source-line="66" data-uid="ent0006" id="entity_GraphUtils"><rect fill="#F1F1F1" height="113.1875" rx="2.5" ry="2.5" style="stroke:#181818;stroke-width:0.5;" width="469.2422" x="1585.04" y="863.2769"/><ellipse cx="1778.5346" cy="879.2769" fill="#ADD1B2" rx="11" ry="11" style="stroke:#181818;stroke-width:1;"/><path d="M1781.5034,884.9175 Q1780.9253,885.2144 1780.2846,885.355 Q1779.644,885.5113 1778.9409,885.5113 Q1776.4409,885.5113 1775.1128,883.8706 Q1773.8003,882.2144 1773.8003,879.0894 Q1773.8003,875.9644 1775.1128,874.3081 Q1776.4409,872.6519 1778.9409,872.6519 Q1779.644,872.6519 1780.2846,872.8081 Q1780.9409,872.9644 1781.5034,873.2613 L1781.5034,875.98 Q1780.8784,875.4019 1780.2846,875.1363 Q1779.6909,874.855 1779.0659,874.855 Q1777.7221,874.855 1777.0346,875.9331 Q1776.3471,876.9956 1776.3471,879.0894 Q1776.3471,881.1831 1777.0346,882.2613 Q1777.7221,883.3238 1779.0659,883.3238 Q1779.6909,883.3238 1780.2846,883.0581 Q1780.8784,882.7769 1781.5034,882.1988 L1781.5034,884.9175 Z " fill="#000000"/><text fill="#000000" font-family="sans-serif" font-size="14" lengthAdjust="spacing" textLength="73.7529" x="1799.0346" y="884.1236">GraphUtils</text><line style="stroke:#181818;stroke-width:0.5;" x1="1586.04" x2="2053.2822" y1="895.2769" y2="895.2769"/><line style="stroke:#181818;stroke-width:0.5;" x1="1586.04" x2="2053.2822" y1="903.2769" y2="903.2769"/><ellipse cx="1596.04" cy="916.9253" fill="#84BE84" rx="3" ry="3" style="stroke:#038048;stroke-width:1;"/><text fill="#000000" font-family="sans-serif" font-size="14" lengthAdjust="spacing" text-decoration="underline" textLength="287.8682" x="1605.04" y="920.272">isConnected(String[], String[][]): boolean</text><ellipse cx="1596.04" cy="933.2222" fill="#84BE84" rx="3" ry="3" style="stroke:#038048;stroke-width:1;"/><text fill="#000000" font-family="sans-serif" font-size="14" lengthAdjust="spacing" text-decoration="underline" textLength="443.2422" x="1605.04" y="936.5689">createAdjacencyMatrix(String[][], Map&lt;String,Integer&gt;): int[][]</text><rect fill="#F24D5C" height="6" style="stroke:#C82930;stroke-width:1;" width="6" x="1593.04" y="946.5191"/><text fill="#000000" font-family="sans-serif" font-size="14" lengthAdjust="spacing" text-decoration="underline" textLength="419.4326" x="1605.04" y="952.8657">dfs(String, String[][], Map&lt;String,Integer&gt;, boolean[]): void</text><rect fill="#F24D5C" height="6" style="stroke:#C82930;stroke-width:1;" width="6" x="1593.04" y="962.8159"/><text fill="#000000" font-family="sans-serif" font-size="14" lengthAdjust="spacing" text-decoration="underline" textLength="374.4111" x="1605.04" y="969.1626">getStationIndexMap(String[][]): Map&lt;String,Integer&gt;</text></g><!--class readCsvs--><g class="entity" data-entity="readCsvs" data-source-line="73" data-uid="ent0007" id="entity_readCsvs"><rect fill="#F1F1F1" height="96.8906" rx="2.5" ry="2.5" style="stroke:#181818;stroke-width:0.5;" width="305.8154" x="2089.75" y="871.4269"/><ellipse cx="2206.166" cy="887.4269" fill="#ADD1B2" rx="11" ry="11" style="stroke:#181818;stroke-width:1;"/><path d="M2209.1348,893.0675 Q2208.5566,893.3644 2207.916,893.505 Q2207.2754,893.6612 2206.5723,893.6612 Q2204.0723,893.6612 2202.7441,892.0206 Q2201.4316,890.3644 2201.4316,887.2394 Q2201.4316,884.1144 2202.7441,882.4581 Q2204.0723,880.8019 2206.5723,880.8019 Q2207.2754,880.8019 2207.916,880.9581 Q2208.5723,881.1144 2209.1348,881.4112 L2209.1348,884.13 Q2208.5098,883.5519 2207.916,883.2862 Q2207.3223,883.005 2206.6973,883.005 Q2205.3535,883.005 2204.666,884.0831 Q2203.9785,885.1456 2203.9785,887.2394 Q2203.9785,889.3331 2204.666,890.4112 Q2205.3535,891.4737 2206.6973,891.4737 Q2207.3223,891.4737 2207.916,891.2081 Q2208.5098,890.9269 2209.1348,890.3487 L2209.1348,893.0675 Z " fill="#000000"/><text fill="#000000" font-family="sans-serif" font-size="14" lengthAdjust="spacing" textLength="64.4834" x="2226.666" y="892.2736">readCsvs</text><line style="stroke:#181818;stroke-width:0.5;" x1="2090.75" x2="2394.5654" y1="903.4269" y2="903.4269"/><line style="stroke:#181818;stroke-width:0.5;" x1="2090.75" x2="2394.5654" y1="911.4269" y2="911.4269"/><ellipse cx="2100.75" cy="925.0753" fill="#84BE84" rx="3" ry="3" style="stroke:#038048;stroke-width:1;"/><text fill="#000000" font-family="sans-serif" font-size="14" lengthAdjust="spacing" text-decoration="underline" textLength="242.9971" x="2109.75" y="928.422">readCSVTo2DArray(File): String[][]</text><ellipse cx="2100.75" cy="941.3722" fill="#84BE84" rx="3" ry="3" style="stroke:#038048;stroke-width:1;"/><text fill="#000000" font-family="sans-serif" font-size="14" lengthAdjust="spacing" text-decoration="underline" textLength="194.6533" x="2109.75" y="944.7189">getAllStations(File): String[]</text><rect fill="#F24D5C" height="6" style="stroke:#C82930;stroke-width:1;" width="6" x="2097.75" y="954.6691"/><text fill="#000000" font-family="sans-serif" font-size="14" lengthAdjust="spacing" text-decoration="underline" textLength="279.8154" x="2109.75" y="961.0157">isStationOfType(String, char[]): boolean</text></g><!--class SingleGraph--><g class="entity" data-entity="SingleGraph" data-source-line="79" data-uid="ent0008" id="entity_SingleGraph"><rect fill="#F1F1F1" height="64.2969" rx="2.5" ry="2.5" style="stroke:#181818;stroke-width:0.5;" width="208.4854" x="1195.42" y="1069.0569"/><ellipse cx="1252.4215" cy="1085.0569" fill="#ADD1B2" rx="11" ry="11" style="stroke:#181818;stroke-width:1;"/><path d="M1255.3902,1090.6975 Q1254.8121,1090.9944 1254.1715,1091.135 Q1253.5308,1091.2913 1252.8277,1091.2913 Q1250.3277,1091.2913 1248.9996,1089.6506 Q1247.6871,1087.9944 1247.6871,1084.8694 Q1247.6871,1081.7444 1248.9996,1080.0881 Q1250.3277,1078.4319 1252.8277,1078.4319 Q1253.5308,1078.4319 1254.1715,1078.5881 Q1254.8277,1078.7444 1255.3902,1079.0413 L1255.3902,1081.76 Q1254.7652,1081.1819 1254.1715,1080.9163 Q1253.5777,1080.635 1252.9527,1080.635 Q1251.609,1080.635 1250.9215,1081.7131 Q1250.234,1082.7756 1250.234,1084.8694 Q1250.234,1086.9631 1250.9215,1088.0413 Q1251.609,1089.1038 1252.9527,1089.1038 Q1253.5777,1089.1038 1254.1715,1088.8381 Q1254.7652,1088.5569 1255.3902,1087.9788 L1255.3902,1090.6975 Z " fill="#000000"/><text fill="#000000" font-family="sans-serif" font-size="14" lengthAdjust="spacing" textLength="85.9824" x="1272.9215" y="1089.9036">SingleGraph</text><line style="stroke:#181818;stroke-width:0.5;" x1="1196.42" x2="1402.9054" y1="1101.0569" y2="1101.0569"/><text fill="#000000" font-family="sans-serif" font-size="14" lengthAdjust="spacing" textLength="196.4854" x="1201.42" y="1118.052">// GraphStream library class</text><line style="stroke:#181818;stroke-width:0.5;" x1="1196.42" x2="1402.9054" y1="1125.3538" y2="1125.3538"/></g><!--link RouteMantainanceUi to RouteMantainanceController--><g class="link" data-entity-1="RouteMantainanceUi" data-entity-2="RouteMantainanceController" data-source-line="84" data-uid="lnk9" id="link_RouteMantainanceUi_RouteMantainanceController"><path codeLine="84" d="M1819.66,337.1869 C1819.66,356.5169 1819.66,370.5569 1819.66,390.4569" fill="none" id="RouteMantainanceUi-to-RouteMantainanceController" style="stroke:#181818;stroke-width:1;"/><polygon fill="#181818" points="1819.66,396.4569,1823.66,387.4569,1819.66,391.4569,1815.66,387.4569,1819.66,396.4569" style="stroke:#181818;stroke-width:1;"/></g><!--link RouteMantainanceController to FleuryAlgorithm--><g class="link" data-entity-1="RouteMantainanceController" data-entity-2="FleuryAlgorithm" data-source-line="85" data-uid="lnk10" id="link_RouteMantainanceController_FleuryAlgorithm"><path codeLine="85" d="M1546.84,654.3569 C1346.79,705.4269 1079.4136,773.6828 863.7636,828.7328" fill="none" id="RouteMantainanceController-to-FleuryAlgorithm" style="stroke:#181818;stroke-width:1;"/><polygon fill="#181818" points="857.95,830.2169,867.6597,831.8665,862.7946,828.9802,865.681,824.1151,857.95,830.2169" style="stroke:#181818;stroke-width:1;"/></g><!--link RouteMantainanceController to GraphBuilder--><g class="link" data-entity-1="RouteMantainanceController" data-entity-2="GraphBuilder" data-source-line="86" data-uid="lnk11" id="link_RouteMantainanceController_GraphBuilder"><path codeLine="86" d="M1546.72,760.1169 C1488.72,797.3769 1436.6375,830.8431 1391.9475,859.5631" fill="none" id="RouteMantainanceController-to-GraphBuilder" style="stroke:#181818;stroke-width:1;"/><polygon fill="#181818" points="1386.9,862.8069,1396.6339,861.3062,1391.1063,860.1037,1392.3088,854.5761,1386.9,862.8069" style="stroke:#181818;stroke-width:1;"/></g><!--link RouteMantainanceController to GraphUtils--><g class="link" data-entity-1="RouteMantainanceController" data-entity-2="GraphUtils" data-source-line="87" data-uid="lnk12" id="link_RouteMantainanceController_GraphUtils"><path codeLine="87" d="M1819.66,770.8469 C1819.66,804.4169 1819.66,830.9469 1819.66,856.9169" fill="none" id="RouteMantainanceController-to-GraphUtils" style="stroke:#181818;stroke-width:1;"/><polygon fill="#181818" points="1819.66,862.9169,1823.66,853.9169,1819.66,857.9169,1815.66,853.9169,1819.66,862.9169" style="stroke:#181818;stroke-width:1;"/></g><!--link RouteMantainanceController to readCsvs--><g class="link" data-entity-1="RouteMantainanceController" data-entity-2="readCsvs" data-source-line="88" data-uid="lnk13" id="link_RouteMantainanceController_readCsvs"><path codeLine="88" d="M2055.59,771.0869 C2102.58,808.2069 2143.2318,840.3276 2177.5118,867.4076" fill="none" id="RouteMantainanceController-to-readCsvs" style="stroke:#181818;stroke-width:1;"/><polygon fill="#181818" points="2182.22,871.1269,2177.6373,862.4092,2178.2965,868.0275,2172.6782,868.6867,2182.22,871.1269" style="stroke:#181818;stroke-width:1;"/></g><!--link RouteMantainanceController to SingleGraph--><g class="link" data-entity-1="RouteMantainanceController" data-entity-2="SingleGraph" data-source-line="89" data-uid="lnk14" id="link_RouteMantainanceController_SingleGraph"><path codeLine="89" d="M2092.54,628.2569 C2211.81,662.3269 2340.7,722.9369 2412.66,830.6869 C2456.69,896.6169 2466.38,950.7569 2412.66,1009.0569 C2345.12,1082.3569 1674.0097,1096.6428 1410.1397,1099.4628" fill="none" id="RouteMantainanceController-to-SingleGraph" style="stroke:#181818;stroke-width:1;"/><polygon fill="#181818" points="1404.14,1099.5269,1413.1822,1103.4305,1409.1397,1099.4734,1413.0967,1095.4309,1404.14,1099.5269" style="stroke:#181818;stroke-width:1;"/></g><!--link FleuryAlgorithm to SingleGraph--><g class="link" data-entity-1="FleuryAlgorithm" data-entity-2="SingleGraph" data-source-line="91" data-uid="lnk15" id="link_FleuryAlgorithm_SingleGraph"><path codeLine="91" d="M900.83,1009.5569 C1009.48,1034.2569 1112.7192,1057.7171 1189.2792,1075.1171" fill="none" id="FleuryAlgorithm-to-SingleGraph" style="stroke:#181818;stroke-width:1;"/><polygon fill="#181818" points="1195.13,1076.4469,1187.2403,1070.5518,1190.2543,1075.3388,1185.4673,1078.3528,1195.13,1076.4469" style="stroke:#181818;stroke-width:1;"/></g><!--link GraphBuilder to SingleGraph--><g class="link" data-entity-1="GraphBuilder" data-entity-2="SingleGraph" data-source-line="92" data-uid="lnk16" id="link_GraphBuilder_SingleGraph"><path codeLine="92" d="M1299.66,976.6369 C1299.66,1006.9669 1299.66,1037.3669 1299.66,1062.7769" fill="none" id="GraphBuilder-to-SingleGraph" style="stroke:#181818;stroke-width:1;"/><polygon fill="#181818" points="1299.66,1068.7769,1303.66,1059.7769,1299.66,1063.7769,1295.66,1059.7769,1299.66,1068.7769" style="stroke:#181818;stroke-width:1;"/></g><!--SRC=[fLR9Rjim4BthAtYh0Zj8M_GK504SnoaCs4aHE-cXw84Xnn9RcZ98Ah4GzDyxeXQBihmqFjY0E0lVp7iSqlmHQaKrNH8JKvwy2XMH1PK60Yki1F9eFdxwGix90nNobMPaIeMoeAXYG6QPiR0aGS0aDOOy9Ac5ALKMNNBxeo1l0S5ObYYh4ob1Nsuv3MkRSrrkqi-p5LmI_7G6OwaLYJ9FL0f-HvTecbcDQ7_-SdOf57GPIxDXkCIeKhWFBlI8JbLuTabU4i6TGmJsHonOF6EuknP9RgpsviAi9CscO0oD82nIDuD5iVDOhL9RcljvjFj3n-SaaK1L2TJOgL-b1uHfe1PScxpr9QWq76XDimbc-5hiSjMlgch0nL9cHRTk8D809jmqeryt1WEcT5NcwOyHJmJwgafmptaH_0JQ2eOvEfptft0jGI2wGhF1WO5RbGH_T-be8v5IJxmeQ_Vk2UV395LsjyVB5hWkIAuIJLSnYWSN97pBFvfwl1KInPR_rofiB3cbBOIqe2UvFZqY2cbuEksXajmMMB82Pe7N4Vs6fwUetgbyzqxdk_SUllEmvrH8xYhULQZVznw1DJ2Knws4L6S36ILQs7WPkiDMdRmTvNT3s7GlfomiM2a9TTP9oMc7gIxqp9j6TPXdA2SHaua21oNq2ssvkJ4muByf3YIMJIcQrrsajFg58EiSY6AiEAmnAZmWW_hmjHhhJbpTzR31Hfzq3ADozpuv0BJJOJFjUdXbuF4zLPICIfPAR6CU3-ltduvAsWNPdRNjBNYd-0gMZoKfvtGX51ye_bqds0zp1sidj8F4j2-barZoBbx7r3onL8vuXDqjapVk8s6kjK3RFlKsHbejHLVDTJuXwia_ceo6yuVnxNXqKy4WRsuKix_1_q-KJMmU6eieblXhpA-zNItrwYT9LPtctiQWZynLNGT-GhyLZrP8Knv8OOwz8dnutMFbCEKbgyraU0ylJDWrSpjvBk4uQEssDTyiMuTXrt7eQ1CMnuVcfMgI-vmzpPFFDyN0pMUtDshzvY28WPGrOorl7x0mfT_zmZtXgZwmcEhkzjSeFG5YiekBWbzC0VWEb-9PKvqHvvn7VI0F80jCiLYPeEETVNv-jUzblUT5bKUsPluXz-QvFChN2VUGPyNT8R_cWo1etrPj1s-4j8p_0000]--></g></svg>