<svg xmlns="http://www.w3.org/2000/svg" xmlns:xlink="http://www.w3.org/1999/xlink" contentStyleType="text/css" data-diagram-type="CLASS" height="824px" preserveAspectRatio="none" style="width:1106px;height:824px;background:#FFFFFF;" version="1.1" viewBox="0 0 1106 824" width="1106px" zoomAndPan="magnify"><title>US015 - Perform a statistical analysis of the average annual profit of a user-specified railway station</title><defs/><g><g class="title" data-source-line="1"><text fill="#000000" font-family="sans-serif" font-size="14" font-weight="bold" lengthAdjust="spacing" textLength="799.0322" x="146.7959" y="22.9951">US015 - Perform a statistical analysis of the average annual profit of a user-specified railway station</text></g><!--class ProfitAnalysisUI--><g class="entity" data-entity="ProfitAnalysisUI" data-source-line="5" data-uid="ent0002" id="entity_ProfitAnalysisUI"><rect fill="#F1F1F1" height="113.1875" rx="2.5" ry="2.5" style="stroke:#181818;stroke-width:0.5;" width="289.2725" x="560.95" y="44.2969"/><ellipse cx="646.7718" cy="60.2969" fill="#ADD1B2" rx="11" ry="11" style="stroke:#181818;stroke-width:1;"/><path d="M649.7405,65.9375 Q649.1624,66.2344 648.5218,66.375 Q647.8812,66.5313 647.178,66.5313 Q644.678,66.5313 643.3499,64.8906 Q642.0374,63.2344 642.0374,60.1094 Q642.0374,56.9844 643.3499,55.3281 Q644.678,53.6719 647.178,53.6719 Q647.8812,53.6719 648.5218,53.8281 Q649.178,53.9844 649.7405,54.2813 L649.7405,57 Q649.1155,56.4219 648.5218,56.1563 Q647.928,55.875 647.303,55.875 Q645.9593,55.875 645.2718,56.9531 Q644.5843,58.0156 644.5843,60.1094 Q644.5843,62.2031 645.2718,63.2813 Q645.9593,64.3438 647.303,64.3438 Q647.928,64.3438 648.5218,64.0781 Q649.1155,63.7969 649.7405,63.2188 L649.7405,65.9375 Z " fill="#000000"/><text fill="#000000" font-family="sans-serif" font-size="14" lengthAdjust="spacing" textLength="109.1289" x="667.2718" y="65.1436">ProfitAnalysisUI</text><line style="stroke:#181818;stroke-width:0.5;" x1="561.95" x2="849.2225" y1="76.2969" y2="76.2969"/><line style="stroke:#181818;stroke-width:0.5;" x1="561.95" x2="849.2225" y1="84.2969" y2="84.2969"/><ellipse cx="571.95" cy="97.9453" fill="#84BE84" rx="3" ry="3" style="stroke:#038048;stroke-width:1;"/><text fill="#000000" font-family="sans-serif" font-size="14" lengthAdjust="spacing" textLength="161.3965" x="580.95" y="101.292">showStationSelection()</text><ellipse cx="571.95" cy="114.2422" fill="#84BE84" rx="3" ry="3" style="stroke:#038048;stroke-width:1;"/><text fill="#000000" font-family="sans-serif" font-size="14" lengthAdjust="spacing" textLength="263.2725" x="580.95" y="117.5889">displayStatistics(ProfitAnalysisResult)</text><ellipse cx="571.95" cy="130.5391" fill="#84BE84" rx="3" ry="3" style="stroke:#038048;stroke-width:1;"/><text fill="#000000" font-family="sans-serif" font-size="14" lengthAdjust="spacing" textLength="190.668" x="580.95" y="133.8857">showOutliersVisualization()</text><ellipse cx="571.95" cy="146.8359" fill="#84BE84" rx="3" ry="3" style="stroke:#038048;stroke-width:1;"/><text fill="#000000" font-family="sans-serif" font-size="14" lengthAdjust="spacing" textLength="174.6035" x="580.95" y="150.1826">showYearlyComparison()</text></g><!--class ProfitAnalysisController--><g class="entity" data-entity="ProfitAnalysisController" data-source-line="13" data-uid="ent0003" id="entity_ProfitAnalysisController"><rect fill="#F1F1F1" height="96.8906" rx="2.5" ry="2.5" style="stroke:#181818;stroke-width:0.5;" width="311.0723" x="446.05" y="217.4769"/><ellipse cx="515.3732" cy="233.4769" fill="#ADD1B2" rx="11" ry="11" style="stroke:#181818;stroke-width:1;"/><path d="M518.342,239.1175 Q517.7639,239.4144 517.1232,239.555 Q516.4826,239.7113 515.7795,239.7113 Q513.2795,239.7113 511.9514,238.0706 Q510.6389,236.4144 510.6389,233.2894 Q510.6389,230.1644 511.9514,228.5081 Q513.2795,226.8519 515.7795,226.8519 Q516.4826,226.8519 517.1232,227.0081 Q517.7795,227.1644 518.342,227.4613 L518.342,230.18 Q517.717,229.6019 517.1232,229.3363 Q516.5295,229.055 515.9045,229.055 Q514.5607,229.055 513.8732,230.1331 Q513.1857,231.1956 513.1857,233.2894 Q513.1857,235.3831 513.8732,236.4613 Q514.5607,237.5238 515.9045,237.5238 Q516.5295,237.5238 517.1232,237.2581 Q517.717,236.9769 518.342,236.3988 L518.342,239.1175 Z " fill="#000000"/><text fill="#000000" font-family="sans-serif" font-size="14" lengthAdjust="spacing" textLength="163.9258" x="535.8732" y="238.3236">ProfitAnalysisController</text><line style="stroke:#181818;stroke-width:0.5;" x1="447.05" x2="756.1223" y1="249.4769" y2="249.4769"/><rect fill="none" height="6" style="stroke:#C82930;stroke-width:1;" width="6" x="454.05" y="260.1253"/><text fill="#000000" font-family="sans-serif" font-size="14" lengthAdjust="spacing" textLength="264.0859" x="466.05" y="266.472">analysisService: ProfitAnalysisService</text><line style="stroke:#181818;stroke-width:0.5;" x1="447.05" x2="756.1223" y1="273.7738" y2="273.7738"/><ellipse cx="457.05" cy="287.4222" fill="#84BE84" rx="3" ry="3" style="stroke:#038048;stroke-width:1;"/><text fill="#000000" font-family="sans-serif" font-size="14" lengthAdjust="spacing" textLength="285.0723" x="466.05" y="290.7689">handleStationSelection(stationId: String)</text><ellipse cx="457.05" cy="303.7191" fill="#84BE84" rx="3" ry="3" style="stroke:#038048;stroke-width:1;"/><text fill="#000000" font-family="sans-serif" font-size="14" lengthAdjust="spacing" textLength="191.3037" x="466.05" y="307.0657">requestStatisticalAnalysis()</text></g><!--class ProfitAnalysisService--><g class="entity" data-entity="ProfitAnalysisService" data-source-line="20" data-uid="ent0004" id="entity_ProfitAnalysisService"><rect fill="#F1F1F1" height="96.8906" rx="2.5" ry="2.5" style="stroke:#181818;stroke-width:0.5;" width="437.8857" x="350.64" y="374.3669"/><ellipse cx="492.0858" cy="390.3669" fill="#ADD1B2" rx="11" ry="11" style="stroke:#181818;stroke-width:1;"/><path d="M495.0546,396.0075 Q494.4764,396.3044 493.8358,396.445 Q493.1952,396.6013 492.4921,396.6013 Q489.9921,396.6013 488.6639,394.9606 Q487.3514,393.3044 487.3514,390.1794 Q487.3514,387.0544 488.6639,385.3981 Q489.9921,383.7419 492.4921,383.7419 Q493.1952,383.7419 493.8358,383.8981 Q494.4921,384.0544 495.0546,384.3513 L495.0546,387.07 Q494.4296,386.4919 493.8358,386.2263 Q493.2421,385.945 492.6171,385.945 Q491.2733,385.945 490.5858,387.0231 Q489.8983,388.0856 489.8983,390.1794 Q489.8983,392.2731 490.5858,393.3513 Q491.2733,394.4138 492.6171,394.4138 Q493.2421,394.4138 493.8358,394.1481 Q494.4296,393.8669 495.0546,393.2888 L495.0546,396.0075 Z " fill="#000000"/><text fill="#000000" font-family="sans-serif" font-size="14" lengthAdjust="spacing" textLength="146.4941" x="512.5858" y="395.2136">ProfitAnalysisService</text><line style="stroke:#181818;stroke-width:0.5;" x1="351.64" x2="787.5257" y1="406.3669" y2="406.3669"/><rect fill="none" height="6" style="stroke:#C82930;stroke-width:1;" width="6" x="358.64" y="417.0153"/><text fill="#000000" font-family="sans-serif" font-size="14" lengthAdjust="spacing" textLength="194.6191" x="370.64" y="423.362">profitRepo: ProfitRepository</text><rect fill="none" height="6" style="stroke:#C82930;stroke-width:1;" width="6" x="358.64" y="433.3122"/><text fill="#000000" font-family="sans-serif" font-size="14" lengthAdjust="spacing" textLength="210.793" x="370.64" y="439.6589">statsService: StatisticsService</text><line style="stroke:#181818;stroke-width:0.5;" x1="351.64" x2="787.5257" y1="446.9606" y2="446.9606"/><ellipse cx="361.64" cy="460.6091" fill="#84BE84" rx="3" ry="3" style="stroke:#038048;stroke-width:1;"/><text fill="#000000" font-family="sans-serif" font-size="14" lengthAdjust="spacing" textLength="411.8857" x="370.64" y="463.9557">analyzeStationProfit(stationId: String): ProfitAnalysisResult</text></g><!--class ProfitRepository--><g class="entity" data-entity="ProfitRepository" data-source-line="27" data-uid="ent0005" id="entity_ProfitRepository"><rect fill="#F1F1F1" height="64.2969" rx="2.5" ry="2.5" style="stroke:#181818;stroke-width:0.5;" width="457.1699" x="7" y="563.8569"/><ellipse cx="175.2632" cy="579.8569" fill="#ADD1B2" rx="11" ry="11" style="stroke:#181818;stroke-width:1;"/><path d="M178.2319,585.4975 Q177.6538,585.7944 177.0132,585.935 Q176.3726,586.0913 175.6694,586.0913 Q173.1694,586.0913 171.8413,584.4506 Q170.5288,582.7944 170.5288,579.6694 Q170.5288,576.5444 171.8413,574.8881 Q173.1694,573.2319 175.6694,573.2319 Q176.3726,573.2319 177.0132,573.3881 Q177.6694,573.5444 178.2319,573.8413 L178.2319,576.56 Q177.6069,575.9819 177.0132,575.7163 Q176.4194,575.435 175.7944,575.435 Q174.4507,575.435 173.7632,576.5131 Q173.0757,577.5756 173.0757,579.6694 Q173.0757,581.7631 173.7632,582.8413 Q174.4507,583.9038 175.7944,583.9038 Q176.4194,583.9038 177.0132,583.6381 Q177.6069,583.3569 178.2319,582.7788 L178.2319,585.4975 Z " fill="#000000"/><text fill="#000000" font-family="sans-serif" font-size="14" lengthAdjust="spacing" textLength="112.1436" x="195.7632" y="584.7036">ProfitRepository</text><line style="stroke:#181818;stroke-width:0.5;" x1="8" x2="463.1699" y1="595.8569" y2="595.8569"/><line style="stroke:#181818;stroke-width:0.5;" x1="8" x2="463.1699" y1="603.8569" y2="603.8569"/><ellipse cx="18" cy="617.5053" fill="#84BE84" rx="3" ry="3" style="stroke:#038048;stroke-width:1;"/><text fill="#000000" font-family="sans-serif" font-size="14" lengthAdjust="spacing" textLength="431.1699" x="27" y="620.852">getAnnualProfits(stationId: String): List&lt;AnnualProfitRecord&gt;</text></g><!--class Station--><g class="entity" data-entity="Station" data-source-line="32" data-uid="ent0006" id="entity_Station"><rect fill="#F1F1F1" height="80.5938" rx="2.5" ry="2.5" style="stroke:#181818;stroke-width:0.5;" width="116.6514" x="89.26" y="728.8969"/><ellipse cx="119.9555" cy="744.8969" fill="#ADD1B2" rx="11" ry="11" style="stroke:#181818;stroke-width:1;"/><path d="M122.9243,750.5375 Q122.3461,750.8344 121.7055,750.975 Q121.0649,751.1313 120.3618,751.1313 Q117.8618,751.1313 116.5336,749.4906 Q115.2211,747.8344 115.2211,744.7094 Q115.2211,741.5844 116.5336,739.9281 Q117.8618,738.2719 120.3618,738.2719 Q121.0649,738.2719 121.7055,738.4281 Q122.3618,738.5844 122.9243,738.8813 L122.9243,741.6 Q122.2993,741.0219 121.7055,740.7563 Q121.1118,740.475 120.4868,740.475 Q119.143,740.475 118.4555,741.5531 Q117.768,742.6156 117.768,744.7094 Q117.768,746.8031 118.4555,747.8813 Q119.143,748.9438 120.4868,748.9438 Q121.1118,748.9438 121.7055,748.6781 Q122.2993,748.3969 122.9243,747.8188 L122.9243,750.5375 Z " fill="#000000"/><text fill="#000000" font-family="sans-serif" font-size="14" lengthAdjust="spacing" textLength="49.7725" x="137.4434" y="749.7436">Station</text><line style="stroke:#181818;stroke-width:0.5;" x1="90.26" x2="204.9114" y1="760.8969" y2="760.8969"/><ellipse cx="100.26" cy="774.5453" fill="none" rx="3" ry="3" style="stroke:#038048;stroke-width:1;"/><text fill="#000000" font-family="sans-serif" font-size="14" lengthAdjust="spacing" textLength="63.7246" x="109.26" y="777.892">id: String</text><ellipse cx="100.26" cy="790.8422" fill="none" rx="3" ry="3" style="stroke:#038048;stroke-width:1;"/><text fill="#000000" font-family="sans-serif" font-size="14" lengthAdjust="spacing" textLength="90.6514" x="109.26" y="794.1889">name: String</text><line style="stroke:#181818;stroke-width:0.5;" x1="90.26" x2="204.9114" y1="801.4906" y2="801.4906"/></g><!--class ProfitAnalysisResult--><g class="entity" data-entity="ProfitAnalysisResult" data-source-line="38" data-uid="ent0007" id="entity_ProfitAnalysisResult"><rect fill="#F1F1F1" height="129.4844" rx="2.5" ry="2.5" style="stroke:#181818;stroke-width:0.5;" width="303.6758" x="686.75" y="531.2669"/><ellipse cx="765.0181" cy="547.2669" fill="#ADD1B2" rx="11" ry="11" style="stroke:#181818;stroke-width:1;"/><path d="M767.9868,552.9075 Q767.4087,553.2044 766.7681,553.345 Q766.1274,553.5013 765.4243,553.5013 Q762.9243,553.5013 761.5962,551.8606 Q760.2837,550.2044 760.2837,547.0794 Q760.2837,543.9544 761.5962,542.2981 Q762.9243,540.6419 765.4243,540.6419 Q766.1274,540.6419 766.7681,540.7981 Q767.4243,540.9544 767.9868,541.2513 L767.9868,543.97 Q767.3618,543.3919 766.7681,543.1263 Q766.1743,542.845 765.5493,542.845 Q764.2056,542.845 763.5181,543.9231 Q762.8306,544.9856 762.8306,547.0794 Q762.8306,549.1731 763.5181,550.2513 Q764.2056,551.3138 765.5493,551.3138 Q766.1743,551.3138 766.7681,551.0481 Q767.3618,550.7669 767.9868,550.1888 L767.9868,552.9075 Z " fill="#000000"/><text fill="#000000" font-family="sans-serif" font-size="14" lengthAdjust="spacing" textLength="138.6396" x="785.5181" y="552.1136">ProfitAnalysisResult</text><line style="stroke:#181818;stroke-width:0.5;" x1="687.75" x2="989.4258" y1="563.2669" y2="563.2669"/><ellipse cx="697.75" cy="576.9153" fill="none" rx="3" ry="3" style="stroke:#038048;stroke-width:1;"/><text fill="#000000" font-family="sans-serif" font-size="14" lengthAdjust="spacing" textLength="107.1191" x="706.75" y="580.262">station: Station</text><ellipse cx="697.75" cy="593.2122" fill="none" rx="3" ry="3" style="stroke:#038048;stroke-width:1;"/><text fill="#000000" font-family="sans-serif" font-size="14" lengthAdjust="spacing" textLength="172.6416" x="706.75" y="596.5589">statistics: ProfitStatistics</text><ellipse cx="697.75" cy="609.5091" fill="none" rx="3" ry="3" style="stroke:#038048;stroke-width:1;"/><text fill="#000000" font-family="sans-serif" font-size="14" lengthAdjust="spacing" textLength="244.4531" x="706.75" y="612.8557">outliers: List&lt;AnnualProfitRecord&gt;</text><ellipse cx="697.75" cy="625.8059" fill="none" rx="3" ry="3" style="stroke:#038048;stroke-width:1;"/><text fill="#000000" font-family="sans-serif" font-size="14" lengthAdjust="spacing" textLength="277.6758" x="706.75" y="629.1526">mostProfitableYear: AnnualProfitRecord</text><ellipse cx="697.75" cy="642.1028" fill="none" rx="3" ry="3" style="stroke:#038048;stroke-width:1;"/><text fill="#000000" font-family="sans-serif" font-size="14" lengthAdjust="spacing" textLength="276.5547" x="706.75" y="645.4495">leastProfitableYear: AnnualProfitRecord</text><line style="stroke:#181818;stroke-width:0.5;" x1="687.75" x2="989.4258" y1="652.7513" y2="652.7513"/></g><!--class ProfitStatistics--><g class="entity" data-entity="ProfitStatistics" data-source-line="46" data-uid="ent0008" id="entity_ProfitStatistics"><rect fill="#F1F1F1" height="113.1875" rx="2.5" ry="2.5" style="stroke:#181818;stroke-width:0.5;" width="214.084" x="885.54" y="44.2969"/><ellipse cx="937.7973" cy="60.2969" fill="#ADD1B2" rx="11" ry="11" style="stroke:#181818;stroke-width:1;"/><path d="M940.7661,65.9375 Q940.1879,66.2344 939.5473,66.375 Q938.9067,66.5313 938.2036,66.5313 Q935.7036,66.5313 934.3754,64.8906 Q933.0629,63.2344 933.0629,60.1094 Q933.0629,56.9844 934.3754,55.3281 Q935.7036,53.6719 938.2036,53.6719 Q938.9067,53.6719 939.5473,53.8281 Q940.2036,53.9844 940.7661,54.2813 L940.7661,57 Q940.1411,56.4219 939.5473,56.1563 Q938.9536,55.875 938.3286,55.875 Q936.9848,55.875 936.2973,56.9531 Q935.6098,58.0156 935.6098,60.1094 Q935.6098,62.2031 936.2973,63.2813 Q936.9848,64.3438 938.3286,64.3438 Q938.9536,64.3438 939.5473,64.0781 Q940.1411,63.7969 940.7661,63.2188 L940.7661,65.9375 Z " fill="#000000"/><text fill="#000000" font-family="sans-serif" font-size="14" lengthAdjust="spacing" textLength="101.0693" x="958.2973" y="65.1436">ProfitStatistics</text><line style="stroke:#181818;stroke-width:0.5;" x1="886.54" x2="1098.624" y1="76.2969" y2="76.2969"/><ellipse cx="896.54" cy="89.9453" fill="none" rx="3" ry="3" style="stroke:#038048;stroke-width:1;"/><text fill="#000000" font-family="sans-serif" font-size="14" lengthAdjust="spacing" textLength="98.4785" x="905.54" y="93.292">mean: Double</text><ellipse cx="896.54" cy="106.2422" fill="none" rx="3" ry="3" style="stroke:#038048;stroke-width:1;"/><text fill="#000000" font-family="sans-serif" font-size="14" lengthAdjust="spacing" textLength="111.2549" x="905.54" y="109.5889">median: Double</text><ellipse cx="896.54" cy="122.5391" fill="none" rx="3" ry="3" style="stroke:#038048;stroke-width:1;"/><text fill="#000000" font-family="sans-serif" font-size="14" lengthAdjust="spacing" textLength="98.4785" x="905.54" y="125.8857">mode: Double</text><ellipse cx="896.54" cy="138.8359" fill="none" rx="3" ry="3" style="stroke:#038048;stroke-width:1;"/><text fill="#000000" font-family="sans-serif" font-size="14" lengthAdjust="spacing" textLength="188.084" x="905.54" y="142.1826">standardDeviation: Double</text><line style="stroke:#181818;stroke-width:0.5;" x1="886.54" x2="1098.624" y1="149.4844" y2="149.4844"/></g><!--class AnnualProfitRecord--><g class="entity" data-entity="AnnualProfitRecord" data-source-line="53" data-uid="ent0009" id="entity_AnnualProfitRecord"><rect fill="#F1F1F1" height="96.8906" rx="2.5" ry="2.5" style="stroke:#181818;stroke-width:0.5;" width="166.9824" x="241.09" y="720.7469"/><ellipse cx="256.09" cy="736.7469" fill="#ADD1B2" rx="11" ry="11" style="stroke:#181818;stroke-width:1;"/><path d="M259.0588,742.3875 Q258.4806,742.6844 257.84,742.825 Q257.1994,742.9813 256.4963,742.9813 Q253.9963,742.9813 252.6681,741.3406 Q251.3556,739.6844 251.3556,736.5594 Q251.3556,733.4344 252.6681,731.7781 Q253.9963,730.1219 256.4963,730.1219 Q257.1994,730.1219 257.84,730.2781 Q258.4963,730.4344 259.0588,730.7313 L259.0588,733.45 Q258.4338,732.8719 257.84,732.6063 Q257.2463,732.325 256.6213,732.325 Q255.2775,732.325 254.59,733.4031 Q253.9025,734.4656 253.9025,736.5594 Q253.9025,738.6531 254.59,739.7313 Q255.2775,740.7938 256.6213,740.7938 Q257.2463,740.7938 257.84,740.5281 Q258.4338,740.2469 259.0588,739.6688 L259.0588,742.3875 Z " fill="#000000"/><text fill="#000000" font-family="sans-serif" font-size="14" lengthAdjust="spacing" textLength="134.9824" x="270.09" y="741.5936">AnnualProfitRecord</text><line style="stroke:#181818;stroke-width:0.5;" x1="242.09" x2="407.0724" y1="752.7469" y2="752.7469"/><ellipse cx="252.09" cy="766.3953" fill="none" rx="3" ry="3" style="stroke:#038048;stroke-width:1;"/><text fill="#000000" font-family="sans-serif" font-size="14" lengthAdjust="spacing" textLength="58.8916" x="261.09" y="769.742">year: Int</text><ellipse cx="252.09" cy="782.6922" fill="none" rx="3" ry="3" style="stroke:#038048;stroke-width:1;"/><text fill="#000000" font-family="sans-serif" font-size="14" lengthAdjust="spacing" textLength="112.793" x="261.09" y="786.0389">amount: Double</text><ellipse cx="252.09" cy="798.9891" fill="none" rx="3" ry="3" style="stroke:#038048;stroke-width:1;"/><text fill="#000000" font-family="sans-serif" font-size="14" lengthAdjust="spacing" textLength="124.5713" x="261.09" y="802.3357">isOutlier: Boolean</text><line style="stroke:#181818;stroke-width:0.5;" x1="242.09" x2="407.0724" y1="809.6375" y2="809.6375"/></g><!--class StatisticsService--><g class="entity" data-entity="StatisticsService" data-source-line="63" data-uid="ent0013" id="entity_StatisticsService"><rect fill="#F1F1F1" height="48" rx="2.5" ry="2.5" style="stroke:#181818;stroke-width:0.5;" width="147.7393" x="498.72" y="572.0069"/><ellipse cx="513.72" cy="588.0069" fill="#ADD1B2" rx="11" ry="11" style="stroke:#181818;stroke-width:1;"/><path d="M516.6888,593.6475 Q516.1106,593.9444 515.47,594.085 Q514.8294,594.2413 514.1263,594.2413 Q511.6263,594.2413 510.2981,592.6006 Q508.9856,590.9444 508.9856,587.8194 Q508.9856,584.6944 510.2981,583.0381 Q511.6263,581.3819 514.1263,581.3819 Q514.8294,581.3819 515.47,581.5381 Q516.1263,581.6944 516.6888,581.9913 L516.6888,584.71 Q516.0638,584.1319 515.47,583.8663 Q514.8763,583.585 514.2513,583.585 Q512.9075,583.585 512.22,584.6631 Q511.5325,585.7256 511.5325,587.8194 Q511.5325,589.9131 512.22,590.9913 Q512.9075,592.0538 514.2513,592.0538 Q514.8763,592.0538 515.47,591.7881 Q516.0638,591.5069 516.6888,590.9288 L516.6888,593.6475 Z " fill="#000000"/><text fill="#000000" font-family="sans-serif" font-size="14" lengthAdjust="spacing" textLength="115.7393" x="527.72" y="592.8536">StatisticsService</text><line style="stroke:#181818;stroke-width:0.5;" x1="499.72" x2="645.4593" y1="604.0069" y2="604.0069"/><line style="stroke:#181818;stroke-width:0.5;" x1="499.72" x2="645.4593" y1="612.0069" y2="612.0069"/></g><!--link ProfitAnalysisUI to ProfitAnalysisController--><g class="link" data-entity-1="ProfitAnalysisUI" data-entity-2="ProfitAnalysisController" data-source-line="60" data-uid="lnk10" id="link_ProfitAnalysisUI_ProfitAnalysisController"><path codeLine="60" d="M670.08,157.5369 C657.73,176.9069 647.2056,193.3977 635.2956,212.0777" fill="none" id="ProfitAnalysisUI-to-ProfitAnalysisController" style="stroke:#181818;stroke-width:1;"/><polygon fill="#181818" points="632.07,217.1369,640.2812,211.6985,634.758,212.9209,633.5357,207.3977,632.07,217.1369" style="stroke:#181818;stroke-width:1;"/></g><!--link ProfitAnalysisController to ProfitAnalysisService--><g class="link" data-entity-1="ProfitAnalysisController" data-entity-2="ProfitAnalysisService" data-source-line="61" data-uid="lnk11" id="link_ProfitAnalysisController_ProfitAnalysisService"><path codeLine="61" d="M591.72,314.6669 C587.83,333.5069 584.5856,349.2413 580.6856,368.0913" fill="none" id="ProfitAnalysisController-to-ProfitAnalysisService" style="stroke:#181818;stroke-width:1;"/><polygon fill="#181818" points="579.47,373.9669,585.2105,365.964,580.483,369.0706,577.3764,364.3431,579.47,373.9669" style="stroke:#181818;stroke-width:1;"/></g><!--link ProfitAnalysisService to ProfitRepository--><g class="link" data-entity-1="ProfitAnalysisService" data-entity-2="ProfitRepository" data-source-line="62" data-uid="lnk12" id="link_ProfitAnalysisService_ProfitRepository"><path codeLine="62" d="M476.1,471.7269 C418.88,501.0569 352.6197,535.0205 302.4697,560.7205" fill="none" id="ProfitAnalysisService-to-ProfitRepository" style="stroke:#181818;stroke-width:1;"/><polygon fill="#181818" points="297.13,563.4569,306.9638,562.9121,301.5797,561.1766,303.3153,555.7925,297.13,563.4569" style="stroke:#181818;stroke-width:1;"/></g><!--link ProfitAnalysisService to StatisticsService--><g class="link" data-entity-1="ProfitAnalysisService" data-entity-2="StatisticsService" data-source-line="63" data-uid="lnk14" id="link_ProfitAnalysisService_StatisticsService"><path codeLine="63" d="M570.42,471.4969 C570.99,504.1469 571.6247,540.0178 572.0747,565.6578" fill="none" id="ProfitAnalysisService-to-StatisticsService" style="stroke:#181818;stroke-width:1;"/><polygon fill="#181818" points="572.18,571.6569,576.0215,562.5881,572.0923,566.6576,568.0227,562.7285,572.18,571.6569" style="stroke:#181818;stroke-width:1;"/></g><!--link ProfitRepository to Station--><g class="link" data-entity-1="ProfitRepository" data-entity-2="Station" data-source-line="65" data-uid="lnk15" id="link_ProfitRepository_Station"><path codeLine="65" d="M219.44,628.4069 C204.96,656.5869 186.3627,692.7504 170.7027,723.2204" fill="none" id="ProfitRepository-to-Station" style="stroke:#181818;stroke-width:1;"/><polygon fill="#181818" points="167.96,728.5569,175.6316,722.3806,170.2456,724.1098,168.5164,718.7237,167.96,728.5569" style="stroke:#181818;stroke-width:1;"/></g><!--link ProfitRepository to AnnualProfitRecord--><g class="link" data-entity-1="ProfitRepository" data-entity-2="AnnualProfitRecord" data-source-line="66" data-uid="lnk16" id="link_ProfitRepository_AnnualProfitRecord"><path codeLine="66" d="M251.91,628.4069 C265.31,654.1769 281.7331,685.763 297.0231,715.183" fill="none" id="ProfitRepository-to-AnnualProfitRecord" style="stroke:#181818;stroke-width:1;"/><polygon fill="#181818" points="299.79,720.5069,299.1889,710.6764,297.4842,716.0703,292.0903,714.3656,299.79,720.5069" style="stroke:#181818;stroke-width:1;"/></g><!--link ProfitAnalysisService to ProfitAnalysisResult--><g class="link" data-entity-1="ProfitAnalysisService" data-entity-2="ProfitAnalysisResult" data-source-line="68" data-uid="lnk17" id="link_ProfitAnalysisService_ProfitAnalysisResult"><path codeLine="68" d="M644.87,471.7269 C673.63,490.0269 701.828,507.9757 732.598,527.5557" fill="none" id="ProfitAnalysisService-to-ProfitAnalysisResult" style="stroke:#181818;stroke-width:1;stroke-dasharray:7.0,7.0;"/><polygon fill="#181818" points="737.66,530.7769,732.2144,522.5705,733.4416,528.0926,727.9195,529.3198,737.66,530.7769" style="stroke:#181818;stroke-width:1;"/></g><!--link ProfitAnalysisUI to ProfitAnalysisResult--><g class="link" data-entity-1="ProfitAnalysisUI" data-entity-2="ProfitAnalysisResult" data-source-line="69" data-uid="lnk18" id="link_ProfitAnalysisUI_ProfitAnalysisResult"><path codeLine="69" d="M744.23,157.8269 C755.44,176.1669 766.75,197.0769 774.58,217.4769 C814.98,322.6769 829.5114,448.0822 835.0114,524.8722" fill="none" id="ProfitAnalysisUI-to-ProfitAnalysisResult" style="stroke:#181818;stroke-width:1;stroke-dasharray:7.0,7.0;"/><polygon fill="#181818" points="835.44,530.8569,838.7868,521.5941,835.0828,525.8697,830.8073,522.1656,835.44,530.8569" style="stroke:#181818;stroke-width:1;"/></g><!--SRC=[ZLHDZvim4BtpA-RMNLLPjOTUeZOI9QoAb022P5TxTCCaiMHmQfkiibN_UuqnNu5iomKoy_BclHcF5LKCOPj- -lm5PX2Zs7EH0m6fYA9IqHrXG0h2Bf9Au7jGHmHoHa4E-bqKfKwV1DzJLIK9b1B5J9vmH_SKCn24ibTogTbuuJZE1_Yc7mZzPzW6i79V_CH4d1qZKa9ik5nRK2D-Em0VGHxvQrfpfCXmLttStPjKHkM9aKlQw9LtGuu4PSdKVKiJbOfH5FA9IYsUlf4ULvL_GIBOnUFvYGWgJUhFGBORnwl0SpT15FvBlySB9JXZA8oFMTl95CMPxd1-XRTXe-L8YepXoBJjP93D8LM25eTQkS1V9KgLTbDhE4Vwbz7Q3K98_UGfyFpqjdghnaglfvpWYJUggsz95HSN0wYKTSQwUVHD6VzlZQkQPiBITL_g6VPyhADby1ZuImZ2nyHDDydMssmJV-obqsXFqW4rQtLiwxoShBxIoh_sOGdkkCWMFGM9lqrrVIzQnr7eXvj17wq_MvAsrEPdGN9i0rUZSJSkj6xU6KtTa6OvwchpfcmNDFrlcjbDn02utODtt5Qmd4jLHybFXjLop66CDL26vB-msdFVKwVB-icHQ3DBNceI6yZeTOXdE0XelqL6HBR4CxNjiDcst5YABNWnIeD2rMSqvsMX1kHKsbjZ3jyvrpwBmKbOcSiW_H74TcIZMsmsMzoy6foRTyRuNyqkJIzgX- -jvcteU4MTqTAqE7si9fCJyxrHyk5XCRtMesxTGlu5]--></g></svg>