<svg xmlns="http://www.w3.org/2000/svg" xmlns:xlink="http://www.w3.org/1999/xlink" contentStyleType="text/css" data-diagram-type="CLASS" height="855px" preserveAspectRatio="none" style="width:1361px;height:855px;background:#FFFFFF;" version="1.1" viewBox="0 0 1361 855" width="1361px" zoomAndPan="magnify"><defs/><g><!--class CargoAnalysisUI--><g class="entity" data-entity="CargoAnalysisUI" data-source-line="2" data-uid="ent0002" id="entity_CargoAnalysisUI"><rect fill="#F1F1F1" height="129.4844" rx="2.5" ry="2.5" style="stroke:#181818;stroke-width:0.5;" width="302.3906" x="966.56" y="7"/><ellipse cx="1056.6953" cy="23" fill="#ADD1B2" rx="11" ry="11" style="stroke:#181818;stroke-width:1;"/><path d="M1059.664,28.6406 Q1059.0859,28.9375 1058.4453,29.0781 Q1057.8046,29.2344 1057.1015,29.2344 Q1054.6015,29.2344 1053.2734,27.5938 Q1051.9609,25.9375 1051.9609,22.8125 Q1051.9609,19.6875 1053.2734,18.0313 Q1054.6015,16.375 1057.1015,16.375 Q1057.8046,16.375 1058.4453,16.5313 Q1059.1015,16.6875 1059.664,16.9844 L1059.664,19.7031 Q1059.039,19.125 1058.4453,18.8594 Q1057.8515,18.5781 1057.2265,18.5781 Q1055.8828,18.5781 1055.1953,19.6563 Q1054.5078,20.7188 1054.5078,22.8125 Q1054.5078,24.9063 1055.1953,25.9844 Q1055.8828,27.0469 1057.2265,27.0469 Q1057.8515,27.0469 1058.4453,26.7813 Q1059.039,26.5 1059.664,25.9219 L1059.664,28.6406 Z " fill="#000000"/><text fill="#000000" font-family="sans-serif" font-size="14" lengthAdjust="spacing" textLength="113.6201" x="1077.1953" y="27.8467">CargoAnalysisUI</text><line style="stroke:#181818;stroke-width:0.5;" x1="967.56" x2="1267.9506" y1="39" y2="39"/><line style="stroke:#181818;stroke-width:0.5;" x1="967.56" x2="1267.9506" y1="47" y2="47"/><ellipse cx="977.56" cy="60.6484" fill="#84BE84" rx="3" ry="3" style="stroke:#038048;stroke-width:1;"/><text fill="#000000" font-family="sans-serif" font-size="14" lengthAdjust="spacing" textLength="161.3965" x="986.56" y="63.9951">showStationSelection()</text><ellipse cx="977.56" cy="76.9453" fill="#84BE84" rx="3" ry="3" style="stroke:#038048;stroke-width:1;"/><text fill="#000000" font-family="sans-serif" font-size="14" lengthAdjust="spacing" textLength="177.0234" x="986.56" y="80.292">showCargoTypeOptions()</text><ellipse cx="977.56" cy="93.2422" fill="#84BE84" rx="3" ry="3" style="stroke:#038048;stroke-width:1;"/><text fill="#000000" font-family="sans-serif" font-size="14" lengthAdjust="spacing" textLength="276.3906" x="986.56" y="96.5889">displayHistogram(CargoAnalysisResult)</text><ellipse cx="977.56" cy="109.5391" fill="#84BE84" rx="3" ry="3" style="stroke:#038048;stroke-width:1;"/><text fill="#000000" font-family="sans-serif" font-size="14" lengthAdjust="spacing" textLength="164.4521" x="986.56" y="112.8857">showLoadingIndicator()</text><ellipse cx="977.56" cy="125.8359" fill="#84BE84" rx="3" ry="3" style="stroke:#038048;stroke-width:1;"/><text fill="#000000" font-family="sans-serif" font-size="14" lengthAdjust="spacing" textLength="143.1445" x="986.56" y="129.1826">showErrorMessage()</text></g><!--class CargoAnalysisController--><g class="entity" data-entity="CargoAnalysisController" data-source-line="11" data-uid="ent0003" id="entity_CargoAnalysisController"><rect fill="#F1F1F1" height="113.1875" rx="2.5" ry="2.5" style="stroke:#181818;stroke-width:0.5;" width="383.9434" x="776.79" y="213.48"/><ellipse cx="880.3032" cy="229.48" fill="#ADD1B2" rx="11" ry="11" style="stroke:#181818;stroke-width:1;"/><path d="M883.2719,235.1206 Q882.6938,235.4175 882.0532,235.5581 Q881.4126,235.7144 880.7094,235.7144 Q878.2094,235.7144 876.8813,234.0738 Q875.5688,232.4175 875.5688,229.2925 Q875.5688,226.1675 876.8813,224.5113 Q878.2094,222.855 880.7094,222.855 Q881.4126,222.855 882.0532,223.0113 Q882.7094,223.1675 883.2719,223.4644 L883.2719,226.1831 Q882.6469,225.605 882.0532,225.3394 Q881.4594,225.0581 880.8344,225.0581 Q879.4907,225.0581 878.8032,226.1363 Q878.1157,227.1988 878.1157,229.2925 Q878.1157,231.3863 878.8032,232.4644 Q879.4907,233.5269 880.8344,233.5269 Q881.4594,233.5269 882.0532,233.2613 Q882.6469,232.98 883.2719,232.4019 L883.2719,235.1206 Z " fill="#000000"/><text fill="#000000" font-family="sans-serif" font-size="14" lengthAdjust="spacing" textLength="168.417" x="900.8032" y="234.3267">CargoAnalysisController</text><line style="stroke:#181818;stroke-width:0.5;" x1="777.79" x2="1159.7334" y1="245.48" y2="245.48"/><rect fill="none" height="6" style="stroke:#C82930;stroke-width:1;" width="6" x="784.79" y="256.1284"/><text fill="#000000" font-family="sans-serif" font-size="14" lengthAdjust="spacing" textLength="268.5771" x="796.79" y="262.4751">analysisService: CargoAnalysisService</text><line style="stroke:#181818;stroke-width:0.5;" x1="777.79" x2="1159.7334" y1="269.7769" y2="269.7769"/><ellipse cx="787.79" cy="283.4253" fill="#84BE84" rx="3" ry="3" style="stroke:#038048;stroke-width:1;"/><text fill="#000000" font-family="sans-serif" font-size="14" lengthAdjust="spacing" textLength="313.3594" x="796.79" y="286.772">handleStationSelection(stationName: String)</text><ellipse cx="787.79" cy="299.7222" fill="#84BE84" rx="3" ry="3" style="stroke:#038048;stroke-width:1;"/><text fill="#000000" font-family="sans-serif" font-size="14" lengthAdjust="spacing" textLength="357.9434" x="796.79" y="303.0689">handleCargoTypeSelection(cargoType: CargoType)</text><ellipse cx="787.79" cy="316.0191" fill="#84BE84" rx="3" ry="3" style="stroke:#038048;stroke-width:1;"/><text fill="#000000" font-family="sans-serif" font-size="14" lengthAdjust="spacing" textLength="122.1309" x="796.79" y="319.3657">requestAnalysis()</text></g><!--class CargoAnalysisService--><g class="entity" data-entity="CargoAnalysisService" data-source-line="19" data-uid="ent0004" id="entity_CargoAnalysisService"><rect fill="#F1F1F1" height="96.8906" rx="2.5" ry="2.5" style="stroke:#181818;stroke-width:0.5;" width="598.9883" x="580.27" y="403.67"/><ellipse cx="800.0215" cy="419.67" fill="#ADD1B2" rx="11" ry="11" style="stroke:#181818;stroke-width:1;"/><path d="M802.9902,425.3106 Q802.4121,425.6075 801.7715,425.7481 Q801.1308,425.9044 800.4277,425.9044 Q797.9277,425.9044 796.5996,424.2638 Q795.2871,422.6075 795.2871,419.4825 Q795.2871,416.3575 796.5996,414.7013 Q797.9277,413.045 800.4277,413.045 Q801.1308,413.045 801.7715,413.2013 Q802.4277,413.3575 802.9902,413.6544 L802.9902,416.3731 Q802.3652,415.795 801.7715,415.5294 Q801.1777,415.2481 800.5527,415.2481 Q799.209,415.2481 798.5215,416.3263 Q797.834,417.3888 797.834,419.4825 Q797.834,421.5763 798.5215,422.6544 Q799.209,423.7169 800.5527,423.7169 Q801.1777,423.7169 801.7715,423.4513 Q802.3652,423.17 802.9902,422.5919 L802.9902,425.3106 Z " fill="#000000"/><text fill="#000000" font-family="sans-serif" font-size="14" lengthAdjust="spacing" textLength="150.9854" x="820.5215" y="424.5167">CargoAnalysisService</text><line style="stroke:#181818;stroke-width:0.5;" x1="581.27" x2="1178.2583" y1="435.67" y2="435.67"/><rect fill="none" height="6" style="stroke:#C82930;stroke-width:1;" width="6" x="588.27" y="446.3184"/><text fill="#000000" font-family="sans-serif" font-size="14" lengthAdjust="spacing" textLength="201.0791" x="600.27" y="452.6651">cargoRepo: CargoRepository</text><rect fill="none" height="6" style="stroke:#C82930;stroke-width:1;" width="6" x="588.27" y="462.6153"/><text fill="#000000" font-family="sans-serif" font-size="14" lengthAdjust="spacing" textLength="187.5166" x="600.27" y="468.962">chartService: ChartService</text><line style="stroke:#181818;stroke-width:0.5;" x1="581.27" x2="1178.2583" y1="476.2638" y2="476.2638"/><ellipse cx="591.27" cy="489.9122" fill="#84BE84" rx="3" ry="3" style="stroke:#038048;stroke-width:1;"/><text fill="#000000" font-family="sans-serif" font-size="14" lengthAdjust="spacing" textLength="572.9883" x="600.27" y="493.2589">analyzeCargoDistribution(station: Station, type: CargoType): CargoAnalysisResult</text></g><!--class CargoRepository--><g class="entity" data-entity="CargoRepository" data-source-line="26" data-uid="ent0005" id="entity_CargoRepository"><rect fill="#F1F1F1" height="80.5938" rx="2.5" ry="2.5" style="stroke:#181818;stroke-width:0.5;" width="569.5186" x="7" y="593.86"/><ellipse cx="229.1919" cy="609.86" fill="#ADD1B2" rx="11" ry="11" style="stroke:#181818;stroke-width:1;"/><path d="M232.1606,615.5006 Q231.5825,615.7975 230.9419,615.9381 Q230.3013,616.0944 229.5981,616.0944 Q227.0981,616.0944 225.77,614.4538 Q224.4575,612.7975 224.4575,609.6725 Q224.4575,606.5475 225.77,604.8913 Q227.0981,603.235 229.5981,603.235 Q230.3013,603.235 230.9419,603.3913 Q231.5981,603.5475 232.1606,603.8444 L232.1606,606.5631 Q231.5356,605.985 230.9419,605.7194 Q230.3481,605.4381 229.7231,605.4381 Q228.3794,605.4381 227.6919,606.5163 Q227.0044,607.5788 227.0044,609.6725 Q227.0044,611.7663 227.6919,612.8444 Q228.3794,613.9069 229.7231,613.9069 Q230.3481,613.9069 230.9419,613.6413 Q231.5356,613.36 232.1606,612.7819 L232.1606,615.5006 Z " fill="#000000"/><text fill="#000000" font-family="sans-serif" font-size="14" lengthAdjust="spacing" textLength="116.6348" x="249.6919" y="614.7067">CargoRepository</text><line style="stroke:#181818;stroke-width:0.5;" x1="8" x2="575.5186" y1="625.86" y2="625.86"/><line style="stroke:#181818;stroke-width:0.5;" x1="8" x2="575.5186" y1="633.86" y2="633.86"/><ellipse cx="18" cy="647.5084" fill="#84BE84" rx="3" ry="3" style="stroke:#038048;stroke-width:1;"/><text fill="#000000" font-family="sans-serif" font-size="14" lengthAdjust="spacing" textLength="356.6035" x="27" y="650.8551">getByStation(station: Station): List&lt;CargoRecord&gt;</text><ellipse cx="18" cy="663.8053" fill="#84BE84" rx="3" ry="3" style="stroke:#038048;stroke-width:1;"/><text fill="#000000" font-family="sans-serif" font-size="14" lengthAdjust="spacing" textLength="543.5186" x="27" y="667.152">getByStationAndType(station: Station, type: CargoType): List&lt;CargoRecord&gt;</text></g><!--class Station--><g class="entity" data-entity="Station" data-source-line="33" data-uid="ent0006" id="entity_Station"><rect fill="#F1F1F1" height="80.5938" rx="2.5" ry="2.5" style="stroke:#181818;stroke-width:0.5;" width="116.6514" x="156.43" y="767.75"/><ellipse cx="187.1255" cy="783.75" fill="#ADD1B2" rx="11" ry="11" style="stroke:#181818;stroke-width:1;"/><path d="M190.0943,789.3906 Q189.5161,789.6875 188.8755,789.8281 Q188.2349,789.9844 187.5318,789.9844 Q185.0318,789.9844 183.7036,788.3438 Q182.3911,786.6875 182.3911,783.5625 Q182.3911,780.4375 183.7036,778.7813 Q185.0318,777.125 187.5318,777.125 Q188.2349,777.125 188.8755,777.2813 Q189.5318,777.4375 190.0943,777.7344 L190.0943,780.4531 Q189.4693,779.875 188.8755,779.6094 Q188.2818,779.3281 187.6568,779.3281 Q186.313,779.3281 185.6255,780.4063 Q184.938,781.4688 184.938,783.5625 Q184.938,785.6563 185.6255,786.7344 Q186.313,787.7969 187.6568,787.7969 Q188.2818,787.7969 188.8755,787.5313 Q189.4693,787.25 190.0943,786.6719 L190.0943,789.3906 Z " fill="#000000"/><text fill="#000000" font-family="sans-serif" font-size="14" lengthAdjust="spacing" textLength="49.7725" x="204.6134" y="788.5967">Station</text><line style="stroke:#181818;stroke-width:0.5;" x1="157.43" x2="272.0814" y1="799.75" y2="799.75"/><ellipse cx="167.43" cy="813.3984" fill="none" rx="3" ry="3" style="stroke:#038048;stroke-width:1;"/><text fill="#000000" font-family="sans-serif" font-size="14" lengthAdjust="spacing" textLength="63.7246" x="176.43" y="816.7451">id: String</text><ellipse cx="167.43" cy="829.6953" fill="none" rx="3" ry="3" style="stroke:#038048;stroke-width:1;"/><text fill="#000000" font-family="sans-serif" font-size="14" lengthAdjust="spacing" textLength="90.6514" x="176.43" y="833.042">name: String</text><line style="stroke:#181818;stroke-width:0.5;" x1="157.43" x2="272.0814" y1="840.3438" y2="840.3438"/></g><!--class ChartService--><g class="entity" data-entity="ChartService" data-source-line="38" data-uid="ent0007" id="entity_ChartService"><rect fill="#F1F1F1" height="64.2969" rx="2.5" ry="2.5" style="stroke:#181818;stroke-width:0.5;" width="490.6045" x="611.46" y="602"/><ellipse cx="807.4053" cy="618" fill="#ADD1B2" rx="11" ry="11" style="stroke:#181818;stroke-width:1;"/><path d="M810.3741,623.6406 Q809.7959,623.9375 809.1553,624.0781 Q808.5147,624.2344 807.8116,624.2344 Q805.3116,624.2344 803.9834,622.5938 Q802.6709,620.9375 802.6709,617.8125 Q802.6709,614.6875 803.9834,613.0313 Q805.3116,611.375 807.8116,611.375 Q808.5147,611.375 809.1553,611.5313 Q809.8116,611.6875 810.3741,611.9844 L810.3741,614.7031 Q809.7491,614.125 809.1553,613.8594 Q808.5616,613.5781 807.9366,613.5781 Q806.5928,613.5781 805.9053,614.6563 Q805.2178,615.7188 805.2178,617.8125 Q805.2178,619.9063 805.9053,620.9844 Q806.5928,622.0469 807.9366,622.0469 Q808.5616,622.0469 809.1553,621.7813 Q809.7491,621.5 810.3741,620.9219 L810.3741,623.6406 Z " fill="#000000"/><text fill="#000000" font-family="sans-serif" font-size="14" lengthAdjust="spacing" textLength="90.2139" x="827.9053" y="622.8467">ChartService</text><line style="stroke:#181818;stroke-width:0.5;" x1="612.46" x2="1101.0645" y1="634" y2="634"/><line style="stroke:#181818;stroke-width:0.5;" x1="612.46" x2="1101.0645" y1="642" y2="642"/><ellipse cx="622.46" cy="655.6484" fill="#84BE84" rx="3" ry="3" style="stroke:#038048;stroke-width:1;"/><text fill="#000000" font-family="sans-serif" font-size="14" lengthAdjust="spacing" textLength="464.6045" x="631.46" y="658.9951">generateHistogram(data: CargoDistributionData): HistogramChart</text></g><!--class CargoAnalysisResult--><g class="entity" data-entity="CargoAnalysisResult" data-source-line="43" data-uid="ent0008" id="entity_CargoAnalysisResult"><rect fill="#F1F1F1" height="113.1875" rx="2.5" ry="2.5" style="stroke:#181818;stroke-width:0.5;" width="217.2354" x="1137.14" y="577.56"/><ellipse cx="1171.087" cy="593.56" fill="#ADD1B2" rx="11" ry="11" style="stroke:#181818;stroke-width:1;"/><path d="M1174.0558,599.2006 Q1173.4776,599.4975 1172.837,599.6381 Q1172.1964,599.7944 1171.4933,599.7944 Q1168.9933,599.7944 1167.6651,598.1538 Q1166.3526,596.4975 1166.3526,593.3725 Q1166.3526,590.2475 1167.6651,588.5913 Q1168.9933,586.935 1171.4933,586.935 Q1172.1964,586.935 1172.837,587.0913 Q1173.4933,587.2475 1174.0558,587.5444 L1174.0558,590.2631 Q1173.4308,589.685 1172.837,589.4194 Q1172.2433,589.1381 1171.6183,589.1381 Q1170.2745,589.1381 1169.587,590.2163 Q1168.8995,591.2788 1168.8995,593.3725 Q1168.8995,595.4663 1169.587,596.5444 Q1170.2745,597.6069 1171.6183,597.6069 Q1172.2433,597.6069 1172.837,597.3413 Q1173.4308,597.06 1174.0558,596.4819 L1174.0558,599.2006 Z " fill="#000000"/><text fill="#000000" font-family="sans-serif" font-size="14" lengthAdjust="spacing" textLength="143.1309" x="1189.2975" y="598.4067">CargoAnalysisResult</text><line style="stroke:#181818;stroke-width:0.5;" x1="1138.14" x2="1353.3754" y1="609.56" y2="609.56"/><ellipse cx="1148.14" cy="623.2084" fill="none" rx="3" ry="3" style="stroke:#038048;stroke-width:1;"/><text fill="#000000" font-family="sans-serif" font-size="14" lengthAdjust="spacing" textLength="107.1191" x="1157.14" y="626.5551">station: Station</text><ellipse cx="1148.14" cy="639.5053" fill="none" rx="3" ry="3" style="stroke:#038048;stroke-width:1;"/><text fill="#000000" font-family="sans-serif" font-size="14" lengthAdjust="spacing" textLength="158.8877" x="1157.14" y="642.852">cargoType: CargoType</text><ellipse cx="1148.14" cy="655.8022" fill="none" rx="3" ry="3" style="stroke:#038048;stroke-width:1;"/><text fill="#000000" font-family="sans-serif" font-size="14" lengthAdjust="spacing" textLength="191.2354" x="1157.14" y="659.1489">histogram: HistogramChart</text><ellipse cx="1148.14" cy="672.0991" fill="none" rx="3" ry="3" style="stroke:#038048;stroke-width:1;"/><text fill="#000000" font-family="sans-serif" font-size="14" lengthAdjust="spacing" textLength="184.4473" x="1157.14" y="675.4457">summary: CargoSummary</text><line style="stroke:#181818;stroke-width:0.5;" x1="1138.14" x2="1353.3754" y1="682.7475" y2="682.7475"/></g><!--class CargoRecord--><g class="entity" data-entity="CargoRecord" data-source-line="59" data-uid="ent0014" id="entity_CargoRecord"><rect fill="#F1F1F1" height="48" rx="2.5" ry="2.5" style="stroke:#181818;stroke-width:0.5;" width="122.8086" x="308.35" y="784.04"/><ellipse cx="323.35" cy="800.04" fill="#ADD1B2" rx="11" ry="11" style="stroke:#181818;stroke-width:1;"/><path d="M326.3188,805.6806 Q325.7406,805.9775 325.1,806.1181 Q324.4594,806.2744 323.7563,806.2744 Q321.2563,806.2744 319.9281,804.6338 Q318.6156,802.9775 318.6156,799.8525 Q318.6156,796.7275 319.9281,795.0713 Q321.2563,793.415 323.7563,793.415 Q324.4594,793.415 325.1,793.5713 Q325.7563,793.7275 326.3188,794.0244 L326.3188,796.7431 Q325.6938,796.165 325.1,795.8994 Q324.5063,795.6181 323.8813,795.6181 Q322.5375,795.6181 321.85,796.6963 Q321.1625,797.7588 321.1625,799.8525 Q321.1625,801.9463 321.85,803.0244 Q322.5375,804.0869 323.8813,804.0869 Q324.5063,804.0869 325.1,803.8213 Q325.6938,803.54 326.3188,802.9619 L326.3188,805.6806 Z " fill="#000000"/><text fill="#000000" font-family="sans-serif" font-size="14" lengthAdjust="spacing" textLength="90.8086" x="337.35" y="804.8867">CargoRecord</text><line style="stroke:#181818;stroke-width:0.5;" x1="309.35" x2="430.1586" y1="816.04" y2="816.04"/><line style="stroke:#181818;stroke-width:0.5;" x1="309.35" x2="430.1586" y1="824.04" y2="824.04"/></g><!--class HistogramChart--><g class="entity" data-entity="HistogramChart" data-source-line="61" data-uid="ent0016" id="entity_HistogramChart"><rect fill="#F1F1F1" height="48" rx="2.5" ry="2.5" style="stroke:#181818;stroke-width:0.5;" width="143.0977" x="785.21" y="784.04"/><ellipse cx="800.21" cy="800.04" fill="#ADD1B2" rx="11" ry="11" style="stroke:#181818;stroke-width:1;"/><path d="M803.1788,805.6806 Q802.6006,805.9775 801.96,806.1181 Q801.3194,806.2744 800.6163,806.2744 Q798.1163,806.2744 796.7881,804.6338 Q795.4756,802.9775 795.4756,799.8525 Q795.4756,796.7275 796.7881,795.0713 Q798.1163,793.415 800.6163,793.415 Q801.3194,793.415 801.96,793.5713 Q802.6163,793.7275 803.1788,794.0244 L803.1788,796.7431 Q802.5538,796.165 801.96,795.8994 Q801.3663,795.6181 800.7413,795.6181 Q799.3975,795.6181 798.71,796.6963 Q798.0225,797.7588 798.0225,799.8525 Q798.0225,801.9463 798.71,803.0244 Q799.3975,804.0869 800.7413,804.0869 Q801.3663,804.0869 801.96,803.8213 Q802.5538,803.54 803.1788,802.9619 L803.1788,805.6806 Z " fill="#000000"/><text fill="#000000" font-family="sans-serif" font-size="14" lengthAdjust="spacing" textLength="111.0977" x="814.21" y="804.8867">HistogramChart</text><line style="stroke:#181818;stroke-width:0.5;" x1="786.21" x2="927.3077" y1="816.04" y2="816.04"/><line style="stroke:#181818;stroke-width:0.5;" x1="786.21" x2="927.3077" y1="824.04" y2="824.04"/></g><!--link CargoAnalysisUI to CargoAnalysisController--><g class="link" data-entity-1="CargoAnalysisUI" data-entity-2="CargoAnalysisController" data-source-line="53" data-uid="lnk9" id="link_CargoAnalysisUI_CargoAnalysisController"><path codeLine="53" d="M1069.18,136.75 C1050.49,161.37 1032.9582,184.4913 1014.8882,208.2913" fill="none" id="CargoAnalysisUI-to-CargoAnalysisController" style="stroke:#181818;stroke-width:1;"/><polygon fill="#181818" points="1011.26,213.07,1019.8881,208.3207,1014.2835,209.0877,1013.5165,203.4831,1011.26,213.07" style="stroke:#181818;stroke-width:1;"/><text fill="#000000" font-family="sans-serif" font-size="13" lengthAdjust="spacing" textLength="50.6733" x="1044.76" y="179.5469">triggers</text></g><!--link CargoAnalysisController to CargoAnalysisService--><g class="link" data-entity-1="CargoAnalysisController" data-entity-2="CargoAnalysisService" data-source-line="54" data-uid="lnk10" id="link_CargoAnalysisController_CargoAnalysisService"><path codeLine="54" d="M941.09,327.05 C928.99,351.52 917.6203,374.532 906.0203,397.982" fill="none" id="CargoAnalysisController-to-CargoAnalysisService" style="stroke:#181818;stroke-width:1;"/><polygon fill="#181818" points="903.36,403.36,910.9358,397.0666,905.5769,398.8783,903.7652,393.5195,903.36,403.36" style="stroke:#181818;stroke-width:1;"/><text fill="#000000" font-family="sans-serif" font-size="13" lengthAdjust="spacing" textLength="63.9463" x="925.76" y="369.7369">delegates</text></g><!--link CargoAnalysisService to CargoRepository--><g class="link" data-entity-1="CargoAnalysisService" data-entity-2="CargoRepository" data-source-line="55" data-uid="lnk11" id="link_CargoAnalysisService_CargoRepository"><path codeLine="55" d="M723.34,501.01 C629.1,529.86 516.247,564.413 427.237,591.673" fill="none" id="CargoAnalysisService-to-CargoRepository" style="stroke:#181818;stroke-width:1;"/><polygon fill="#181818" points="421.5,593.43,431.2768,594.6192,426.2808,591.9658,428.9341,586.9699,421.5,593.43" style="stroke:#181818;stroke-width:1;"/><text fill="#000000" font-family="sans-serif" font-size="13" lengthAdjust="spacing" textLength="48.2168" x="622.76" y="543.6269">queries</text></g><!--link CargoAnalysisService to ChartService--><g class="link" data-entity-1="CargoAnalysisService" data-entity-2="ChartService" data-source-line="56" data-uid="lnk12" id="link_CargoAnalysisService_ChartService"><path codeLine="56" d="M873.66,500.89 C869.58,532.77 865.0987,567.8282 861.5487,595.6782" fill="none" id="CargoAnalysisService-to-ChartService" style="stroke:#181818;stroke-width:1;"/><polygon fill="#181818" points="860.79,601.63,865.8959,593.208,861.4222,596.6701,857.9601,592.1965,860.79,601.63" style="stroke:#181818;stroke-width:1;"/><text fill="#000000" font-family="sans-serif" font-size="13" lengthAdjust="spacing" textLength="29.7832" x="870.76" y="543.6269">uses</text></g><!--link CargoRepository to Station--><g class="link" data-entity-1="CargoRepository" data-entity-2="Station" data-source-line="58" data-uid="lnk13" id="link_CargoRepository_Station"><path codeLine="58" d="M274.09,674.59 C261.62,702.44 247.4121,734.144 234.9321,762.014" fill="none" id="CargoRepository-to-Station" style="stroke:#181818;stroke-width:1;"/><polygon fill="#181818" points="232.48,767.49,239.8089,760.9107,234.5234,762.9266,232.5075,757.6412,232.48,767.49" style="stroke:#181818;stroke-width:1;"/><text fill="#000000" font-family="sans-serif" font-size="13" lengthAdjust="spacing" textLength="48.2168" x="254.76" y="733.8169">queries</text></g><!--link CargoRepository to CargoRecord--><g class="link" data-entity-1="CargoRepository" data-entity-2="CargoRecord" data-source-line="59" data-uid="lnk15" id="link_CargoRepository_CargoRecord"><path codeLine="59" d="M309.65,674.59 C324.95,708.29 343.9507,750.1762 356.6607,778.1862" fill="none" id="CargoRepository-to-CargoRecord" style="stroke:#181818;stroke-width:1;"/><polygon fill="#181818" points="359.14,783.65,359.0636,773.8014,357.0739,779.0968,351.7785,777.1072,359.14,783.65" style="stroke:#181818;stroke-width:1;"/><text fill="#000000" font-family="sans-serif" font-size="13" lengthAdjust="spacing" textLength="47.0361" x="338.76" y="733.8169">returns</text></g><!--link ChartService to HistogramChart--><g class="link" data-entity-1="ChartService" data-entity-2="HistogramChart" data-source-line="61" data-uid="lnk17" id="link_ChartService_HistogramChart"><path codeLine="61" d="M856.76,666.68 C856.76,700.51 856.76,747.43 856.76,777.71" fill="none" id="ChartService-to-HistogramChart" style="stroke:#181818;stroke-width:1;stroke-dasharray:7.0,7.0;"/><polygon fill="#181818" points="856.76,783.71,860.76,774.71,856.76,778.71,852.76,774.71,856.76,783.71" style="stroke:#181818;stroke-width:1;"/><text fill="#000000" font-family="sans-serif" font-size="13" lengthAdjust="spacing" textLength="48.3247" x="857.76" y="733.8169">creates</text></g><!--link CargoAnalysisService to CargoAnalysisResult--><g class="link" data-entity-1="CargoAnalysisService" data-entity-2="CargoAnalysisResult" data-source-line="62" data-uid="lnk18" id="link_CargoAnalysisService_CargoAnalysisResult"><path codeLine="62" d="M976.88,500.89 C1026.12,525.11 1080.6957,551.9624 1131.4957,576.9424" fill="none" id="CargoAnalysisService-to-CargoAnalysisResult" style="stroke:#181818;stroke-width:1;stroke-dasharray:7.0,7.0;"/><polygon fill="#181818" points="1136.88,579.59,1130.5687,572.0291,1132.3931,577.3837,1127.0385,579.2081,1136.88,579.59" style="stroke:#181818;stroke-width:1;"/><text fill="#000000" font-family="sans-serif" font-size="13" lengthAdjust="spacing" textLength="47.0361" x="1063.76" y="543.6269">returns</text></g><!--link CargoAnalysisUI to CargoAnalysisResult--><g class="link" data-entity-1="CargoAnalysisUI" data-entity-2="CargoAnalysisResult" data-source-line="63" data-uid="lnk19" id="link_CargoAnalysisUI_CargoAnalysisResult"><path codeLine="63" d="M1148.91,136.7 C1159.39,160.37 1170.3,187.71 1177.76,213.48 C1214.6,340.74 1232.6352,489.8976 1240.4652,571.2476" fill="none" id="CargoAnalysisUI-to-CargoAnalysisResult" style="stroke:#181818;stroke-width:1;stroke-dasharray:7.0,7.0;"/><polygon fill="#181818" points="1241.04,577.22,1244.1593,567.8782,1240.561,572.243,1236.1961,568.6446,1241.04,577.22" style="stroke:#181818;stroke-width:1;"/><text fill="#000000" font-family="sans-serif" font-size="13" lengthAdjust="spacing" textLength="52.9331" x="1214.76" y="369.7369">displays</text></g><!--SRC=[ZLJ1Zfim4Btp5Rxjhjhi1w0s4WLMYqGW0j9LZovOn1B1sR5fHQl-Uuqnu9YbtPpCUDxCUs_6kKEVvGybuGiwHIZsleMPYZXbWpb7FeQQUIrkUawvJFZj8FG1yJFxcGiiA6jpqf1oEDm_p5SALFHNabw76wwlAigl3UwVAHUi1dovlocU4TurOYaICrpHjexQYfPOC33gXm0C3eHpN1CP_kCuTuiAxtYC8zyheZJvZnoVjG9Oqn1GidO8wukSm0zQ4lSsNKSLYpDkguQiBE1Z8C4N2Su5IFuFHlxiou8efv1kDXn7293NZd0nTL_f3DA35oKe3xElaH_ccoerRIrHzSl8bUb-mv5JQMy_NfynY4M-yQKuAOD-ZJe2EKQWtpjJ-21Q7JuYOMcop1odRKWwf47q58K1YfAdpCkBxEGNfonSoLe8wrsiYVZIwxOh7h9jB7b-qj2IGRLVeRos6YY-IyIwcfGmQSZ2KouL-EdXc2PXKjmCHHVLh6arBOZwR8sD6IfgmOR_izgM01PaUKGL5bXpD4SIoB3aE-UfMlOAUOM7PgktLsWSrlJsBPTKyAqr7XT_wh-Yecfrbmk6NeFoyKivkbWQgwUSFqT7JT3-IzhjzfllsaNIaBecm9sjb1LyCjn5bNocjJJR0ay9CzBOIHV9Lmlqdn1pgYxgk4nsx3f3uhGnLaqhorX6cGb4TD0E1SqkZuzxotwPMWBPrZOWtjg1fOCzXcs4_j_dVm40]--></g></svg>