<svg xmlns="http://www.w3.org/2000/svg" xmlns:xlink="http://www.w3.org/1999/xlink" contentStyleType="text/css" height="1899px" preserveAspectRatio="none" style="width:1709px;height:1899px;background:#FFFFFF;" version="1.1" viewBox="0 0 1709 1899" width="1709px" zoomAndPan="magnify"><title>US002 - Create an industry (SD)</title><defs/><g><text fill="#000000" font-family="sans-serif" font-size="14" font-weight="bold" lengthAdjust="spacing" textLength="215.4872" x="748.5399" y="29.9659">US002 - Create an industry (SD)</text><rect fill="#FFFFFF" height="1664.0068" style="stroke:#181818;stroke-width:1.0;" width="10" x="37.6559" y="134.1358"/><rect fill="#FFFFFF" height="76.412" style="stroke:#181818;stroke-width:1.0;" width="10" x="373.5902" y="157.8419"/><rect fill="#FFFFFF" height="501.5902" style="stroke:#181818;stroke-width:1.0;" width="10" x="373.5902" y="265.9599"/><rect fill="#FFFFFF" height="981.1805" style="stroke:#181818;stroke-width:1.0;" width="10" x="373.5902" y="825.9622"/><rect fill="#FFFFFF" height="589.7083" style="stroke:#181818;stroke-width:1.0;" width="10" x="378.5902" y="1208.4344"/><rect fill="#FFFFFF" height="845.3564" style="stroke:#181818;stroke-width:1.0;" width="10" x="630.3284" y="297.6659"/><rect fill="#FFFFFF" height="95.118" style="stroke:#181818;stroke-width:1.0;" width="10" x="630.3284" y="1240.1404"/><rect fill="#FFFFFF" height="311.3541" style="stroke:#181818;stroke-width:1.0;" width="10" x="630.3284" y="1448.0825"/><rect fill="#FFFFFF" height="31.706" style="stroke:#181818;stroke-width:1.0;" width="10" x="768.659" y="329.3719"/><rect fill="#FFFFFF" height="31.706" style="stroke:#181818;stroke-width:1.0;" width="10" x="889.7626" y="392.784"/><rect fill="#FFFFFF" height="31.706" style="stroke:#181818;stroke-width:1.0;" width="10" x="1007.2963" y="456.196"/><rect fill="#FFFFFF" height="31.706" style="stroke:#181818;stroke-width:1.0;" width="10" x="1007.2963" y="889.3742"/><rect fill="#FFFFFF" height="158.5301" style="stroke:#181818;stroke-width:1.0;" width="10" x="1007.2963" y="952.7862"/><rect fill="#FFFFFF" height="31.706" style="stroke:#181818;stroke-width:1.0;" width="10" x="1007.2963" y="1271.8464"/><rect fill="#FFFFFF" height="247.9421" style="stroke:#181818;stroke-width:1.0;" width="10" x="1007.2963" y="1479.7885"/><rect fill="#FFFFFF" height="139.8241" style="stroke:#181818;stroke-width:1.0;" width="10" x="1216.7535" y="519.608"/><rect fill="#FFFFFF" height="31.706" style="stroke:#181818;stroke-width:1.0;" width="10" x="1424.3517" y="596.0201"/><rect fill="#FFFFFF" height="31.706" style="stroke:#181818;stroke-width:1.0;" width="10" x="1504.1065" y="984.4923"/><rect fill="#FFFFFF" height="31.706" style="stroke:#181818;stroke-width:1.0;" width="10" x="1504.1065" y="1600.9066"/><rect fill="#FFFFFF" height="31.706" style="stroke:#181818;stroke-width:1.0;" width="10" x="1618.6721" y="1047.9043"/><rect fill="#FFFFFF" height="31.706" style="stroke:#181818;stroke-width:1.0;" width="10" x="1618.6721" y="1664.3186"/><rect fill="none" height="368.4722" style="stroke:#000000;stroke-width:1.5;" width="1693.5669" x="10" y="782.5501"/><rect fill="none" height="602.4143" style="stroke:#000000;stroke-width:1.5;" width="1693.5669" x="10" y="1165.0223"/><line style="stroke:#181818;stroke-width:0.5;stroke-dasharray:5.0,5.0;" x1="42" x2="42" y1="124.1358" y2="1816.1427"/><line style="stroke:#181818;stroke-width:0.5;stroke-dasharray:5.0,5.0;" x1="377.7644" x2="377.7644" y1="124.1358" y2="1816.1427"/><line style="stroke:#181818;stroke-width:0.5;stroke-dasharray:5.0,5.0;" x1="634.9037" x2="634.9037" y1="124.1358" y2="1816.1427"/><line style="stroke:#181818;stroke-width:0.5;stroke-dasharray:5.0,5.0;" x1="772.7531" x2="772.7531" y1="124.1358" y2="1816.1427"/><line style="stroke:#181818;stroke-width:0.5;stroke-dasharray:5.0,5.0;" x1="894.5649" x2="894.5649" y1="124.1358" y2="1816.1427"/><line style="stroke:#181818;stroke-width:0.5;stroke-dasharray:5.0,5.0;" x1="1011.9604" x2="1011.9604" y1="124.1358" y2="1816.1427"/><line style="stroke:#181818;stroke-width:0.5;stroke-dasharray:5.0,5.0;" x1="1221.1725" x2="1221.1725" y1="124.1358" y2="1816.1427"/><line style="stroke:#181818;stroke-width:0.5;stroke-dasharray:5.0,5.0;" x1="1429.2678" x2="1429.2678" y1="124.1358" y2="1816.1427"/><line style="stroke:#181818;stroke-width:0.5;stroke-dasharray:5.0,5.0;" x1="1508.4356" x2="1508.4356" y1="124.1358" y2="1816.1427"/><line style="stroke:#181818;stroke-width:0.5;stroke-dasharray:5.0,5.0;" x1="1622.7774" x2="1622.7774" y1="124.1358" y2="1816.1427"/><text fill="#000000" font-family="sans-serif" font-size="14" lengthAdjust="spacing" textLength="39.3119" x="20" y="120.0339">Editor</text><ellipse cx="42.6559" cy="53.5679" fill="#E2E2F0" rx="8" ry="8" style="stroke:#181818;stroke-width:0.5;"/><path d="M42.6559,61.5679 L42.6559,88.5679 M29.6559,69.5679 L55.6559,69.5679 M42.6559,88.5679 L29.6559,103.5679 M42.6559,88.5679 L55.6559,103.5679 " fill="none" style="stroke:#181818;stroke-width:0.5;"/><text fill="#000000" font-family="sans-serif" font-size="14" lengthAdjust="spacing" textLength="39.3119" x="20" y="1830.1086">Editor</text><ellipse cx="42.6559" cy="1842.7106" fill="#E2E2F0" rx="8" ry="8" style="stroke:#181818;stroke-width:0.5;"/><path d="M42.6559,1850.7106 L42.6559,1877.7106 M29.6559,1858.7106 L55.6559,1858.7106 M42.6559,1877.7106 L29.6559,1892.7106 M42.6559,1877.7106 L55.6559,1892.7106 " fill="none" style="stroke:#181818;stroke-width:0.5;"/><rect fill="#E2E2F0" height="33.0679" rx="2.5" ry="2.5" style="stroke:#181818;stroke-width:0.5;" width="127.6516" x="314.7644" y="90.0679"/><text fill="#000000" font-family="sans-serif" font-size="14" lengthAdjust="spacing" textLength="113.6516" x="321.7644" y="112.0339">CreateIndustryUI</text><rect fill="#E2E2F0" height="33.0679" rx="2.5" ry="2.5" style="stroke:#181818;stroke-width:0.5;" width="127.6516" x="314.7644" y="1815.1427"/><text fill="#000000" font-family="sans-serif" font-size="14" lengthAdjust="spacing" textLength="113.6516" x="321.7644" y="1837.1086">CreateIndustryUI</text><rect fill="#E2E2F0" height="33.0679" rx="2.5" ry="2.5" style="stroke:#181818;stroke-width:0.5;" width="178.8494" x="545.9037" y="90.0679"/><text fill="#000000" font-family="sans-serif" font-size="14" lengthAdjust="spacing" textLength="164.8494" x="552.9037" y="112.0339">CreateIndustryController</text><rect fill="#E2E2F0" height="33.0679" rx="2.5" ry="2.5" style="stroke:#181818;stroke-width:0.5;" width="178.8494" x="545.9037" y="1815.1427"/><text fill="#000000" font-family="sans-serif" font-size="14" lengthAdjust="spacing" textLength="164.8494" x="552.9037" y="1837.1086">CreateIndustryController</text><rect fill="#E2E2F0" height="33.0679" rx="2.5" ry="2.5" style="stroke:#181818;stroke-width:0.5;" width="77.8118" x="734.7531" y="90.0679"/><text fill="#000000" font-family="sans-serif" font-size="14" lengthAdjust="spacing" textLength="63.8118" x="741.7531" y="112.0339">Simulator</text><rect fill="#E2E2F0" height="33.0679" rx="2.5" ry="2.5" style="stroke:#181818;stroke-width:0.5;" width="77.8118" x="734.7531" y="1815.1427"/><text fill="#000000" font-family="sans-serif" font-size="14" lengthAdjust="spacing" textLength="63.8118" x="741.7531" y="1837.1086">Simulator</text><rect fill="#E2E2F0" height="33.0679" rx="2.5" ry="2.5" style="stroke:#181818;stroke-width:0.5;" width="144.3955" x="822.5649" y="90.0679"/><text fill="#000000" font-family="sans-serif" font-size="14" lengthAdjust="spacing" textLength="130.3955" x="829.5649" y="112.0339">simulator:Simulator</text><rect fill="#E2E2F0" height="33.0679" rx="2.5" ry="2.5" style="stroke:#181818;stroke-width:0.5;" width="144.3955" x="822.5649" y="1815.1427"/><text fill="#000000" font-family="sans-serif" font-size="14" lengthAdjust="spacing" textLength="130.3955" x="829.5649" y="1837.1086">simulator:Simulator</text><rect fill="#E2E2F0" height="33.0679" rx="2.5" ry="2.5" style="stroke:#181818;stroke-width:0.5;" width="70.6718" x="976.9604" y="90.0679"/><text fill="#000000" font-family="sans-serif" font-size="14" lengthAdjust="spacing" textLength="56.6718" x="983.9604" y="112.0339">Scenario</text><rect fill="#E2E2F0" height="33.0679" rx="2.5" ry="2.5" style="stroke:#181818;stroke-width:0.5;" width="70.6718" x="976.9604" y="1815.1427"/><text fill="#000000" font-family="sans-serif" font-size="14" lengthAdjust="spacing" textLength="56.6718" x="983.9604" y="1837.1086">Scenario</text><rect fill="#E2E2F0" height="33.0679" rx="2.5" ry="2.5" style="stroke:#181818;stroke-width:0.5;" width="43.1619" x="1200.1725" y="90.0679"/><text fill="#000000" font-family="sans-serif" font-size="14" lengthAdjust="spacing" textLength="29.1619" x="1207.1725" y="112.0339">Map</text><rect fill="#E2E2F0" height="33.0679" rx="2.5" ry="2.5" style="stroke:#181818;stroke-width:0.5;" width="43.1619" x="1200.1725" y="1815.1427"/><text fill="#000000" font-family="sans-serif" font-size="14" lengthAdjust="spacing" textLength="29.1619" x="1207.1725" y="1837.1086">Map</text><rect fill="#E2E2F0" height="33.0679" rx="2.5" ry="2.5" style="stroke:#181818;stroke-width:0.5;" width="70.1678" x="1394.2678" y="90.0679"/><text fill="#000000" font-family="sans-serif" font-size="14" lengthAdjust="spacing" textLength="56.1678" x="1401.2678" y="112.0339">Location</text><rect fill="#E2E2F0" height="33.0679" rx="2.5" ry="2.5" style="stroke:#181818;stroke-width:0.5;" width="70.1678" x="1394.2678" y="1815.1427"/><text fill="#000000" font-family="sans-serif" font-size="14" lengthAdjust="spacing" textLength="56.1678" x="1401.2678" y="1837.1086">Location</text><rect fill="#E2E2F0" height="33.0679" rx="2.5" ry="2.5" style="stroke:#181818;stroke-width:0.5;" width="69.3418" x="1474.4356" y="90.0679"/><text fill="#000000" font-family="sans-serif" font-size="14" lengthAdjust="spacing" textLength="55.3418" x="1481.4356" y="112.0339">Industry</text><rect fill="#E2E2F0" height="33.0679" rx="2.5" ry="2.5" style="stroke:#181818;stroke-width:0.5;" width="69.3418" x="1474.4356" y="1815.1427"/><text fill="#000000" font-family="sans-serif" font-size="14" lengthAdjust="spacing" textLength="55.3418" x="1481.4356" y="1837.1086">Industry</text><rect fill="#E2E2F0" height="33.0679" rx="2.5" ry="2.5" style="stroke:#181818;stroke-width:0.5;" width="139.7895" x="1553.7774" y="90.0679"/><text fill="#000000" font-family="sans-serif" font-size="14" lengthAdjust="spacing" textLength="125.7895" x="1560.7774" y="112.0339">IndustryRepository</text><rect fill="#E2E2F0" height="33.0679" rx="2.5" ry="2.5" style="stroke:#181818;stroke-width:0.5;" width="139.7895" x="1553.7774" y="1815.1427"/><text fill="#000000" font-family="sans-serif" font-size="14" lengthAdjust="spacing" textLength="125.7895" x="1560.7774" y="1837.1086">IndustryRepository</text><rect fill="#FFFFFF" height="1664.0068" style="stroke:#181818;stroke-width:1.0;" width="10" x="37.6559" y="134.1358"/><rect fill="#FFFFFF" height="76.412" style="stroke:#181818;stroke-width:1.0;" width="10" x="373.5902" y="157.8419"/><rect fill="#FFFFFF" height="501.5902" style="stroke:#181818;stroke-width:1.0;" width="10" x="373.5902" y="265.9599"/><rect fill="#FFFFFF" height="981.1805" style="stroke:#181818;stroke-width:1.0;" width="10" x="373.5902" y="825.9622"/><rect fill="#FFFFFF" height="589.7083" style="stroke:#181818;stroke-width:1.0;" width="10" x="378.5902" y="1208.4344"/><rect fill="#FFFFFF" height="845.3564" style="stroke:#181818;stroke-width:1.0;" width="10" x="630.3284" y="297.6659"/><rect fill="#FFFFFF" height="95.118" style="stroke:#181818;stroke-width:1.0;" width="10" x="630.3284" y="1240.1404"/><rect fill="#FFFFFF" height="311.3541" style="stroke:#181818;stroke-width:1.0;" width="10" x="630.3284" y="1448.0825"/><rect fill="#FFFFFF" height="31.706" style="stroke:#181818;stroke-width:1.0;" width="10" x="768.659" y="329.3719"/><rect fill="#FFFFFF" height="31.706" style="stroke:#181818;stroke-width:1.0;" width="10" x="889.7626" y="392.784"/><rect fill="#FFFFFF" height="31.706" style="stroke:#181818;stroke-width:1.0;" width="10" x="1007.2963" y="456.196"/><rect fill="#FFFFFF" height="31.706" style="stroke:#181818;stroke-width:1.0;" width="10" x="1007.2963" y="889.3742"/><rect fill="#FFFFFF" height="158.5301" style="stroke:#181818;stroke-width:1.0;" width="10" x="1007.2963" y="952.7862"/><rect fill="#FFFFFF" height="31.706" style="stroke:#181818;stroke-width:1.0;" width="10" x="1007.2963" y="1271.8464"/><rect fill="#FFFFFF" height="247.9421" style="stroke:#181818;stroke-width:1.0;" width="10" x="1007.2963" y="1479.7885"/><rect fill="#FFFFFF" height="139.8241" style="stroke:#181818;stroke-width:1.0;" width="10" x="1216.7535" y="519.608"/><rect fill="#FFFFFF" height="31.706" style="stroke:#181818;stroke-width:1.0;" width="10" x="1424.3517" y="596.0201"/><rect fill="#FFFFFF" height="31.706" style="stroke:#181818;stroke-width:1.0;" width="10" x="1504.1065" y="984.4923"/><rect fill="#FFFFFF" height="31.706" style="stroke:#181818;stroke-width:1.0;" width="10" x="1504.1065" y="1600.9066"/><rect fill="#FFFFFF" height="31.706" style="stroke:#181818;stroke-width:1.0;" width="10" x="1618.6721" y="1047.9043"/><rect fill="#FFFFFF" height="31.706" style="stroke:#181818;stroke-width:1.0;" width="10" x="1618.6721" y="1664.3186"/><polygon fill="#181818" points="361.5902,153.8419,371.5902,157.8419,361.5902,161.8419,365.5902,157.8419" style="stroke:#181818;stroke-width:1.0;"/><line style="stroke:#181818;stroke-width:1.0;" x1="47.6559" x2="367.5902" y1="157.8419" y2="157.8419"/><text fill="#000000" font-family="sans-serif" font-size="13" font-weight="bold" lengthAdjust="spacing" textLength="7.436" x="54.6559" y="152.0328">1</text><text fill="#000000" font-family="sans-serif" font-size="13" lengthAdjust="spacing" textLength="185.5492" x="66.0919" y="152.0328">Select create industry function</text><line style="stroke:#181818;stroke-width:1.0;" x1="383.5902" x2="425.5902" y1="189.5479" y2="189.5479"/><line style="stroke:#181818;stroke-width:1.0;" x1="425.5902" x2="425.5902" y1="189.5479" y2="202.5479"/><line style="stroke:#181818;stroke-width:1.0;" x1="384.5902" x2="425.5902" y1="202.5479" y2="202.5479"/><polygon fill="#181818" points="394.5902,198.5479,384.5902,202.5479,394.5902,206.5479,390.5902,202.5479" style="stroke:#181818;stroke-width:1.0;"/><text fill="#000000" font-family="sans-serif" font-size="13" font-weight="bold" lengthAdjust="spacing" textLength="7.436" x="390.5902" y="183.7389">2</text><text fill="#000000" font-family="sans-serif" font-size="13" lengthAdjust="spacing" textLength="110.0321" x="402.0262" y="183.7389">readCoordinates()</text><polygon fill="#181818" points="58.6559,230.2539,48.6559,234.2539,58.6559,238.2539,54.6559,234.2539" style="stroke:#181818;stroke-width:1.0;"/><line style="stroke:#181818;stroke-width:1.0;stroke-dasharray:2.0,2.0;" x1="52.6559" x2="377.5902" y1="234.2539" y2="234.2539"/><text fill="#000000" font-family="sans-serif" font-size="13" font-weight="bold" lengthAdjust="spacing" textLength="7.436" x="64.6559" y="228.4449">3</text><text fill="#000000" font-family="sans-serif" font-size="13" lengthAdjust="spacing" textLength="194.3502" x="76.0919" y="228.4449">ask for the industry coordinates</text><polygon fill="#181818" points="361.5902,261.9599,371.5902,265.9599,361.5902,269.9599,365.5902,265.9599" style="stroke:#181818;stroke-width:1.0;"/><line style="stroke:#181818;stroke-width:1.0;" x1="47.6559" x2="367.5902" y1="265.9599" y2="265.9599"/><text fill="#000000" font-family="sans-serif" font-size="13" font-weight="bold" lengthAdjust="spacing" textLength="7.436" x="54.6559" y="260.1509">4</text><text fill="#000000" font-family="sans-serif" font-size="13" lengthAdjust="spacing" textLength="156.1171" x="66.0919" y="260.1509">Give industry coordinates</text><polygon fill="#181818" points="618.3284,293.6659,628.3284,297.6659,618.3284,301.6659,622.3284,297.6659" style="stroke:#181818;stroke-width:1.0;"/><line style="stroke:#181818;stroke-width:1.0;stroke-dasharray:2.0,2.0;" x1="383.5902" x2="624.3284" y1="297.6659" y2="297.6659"/><text fill="#000000" font-family="sans-serif" font-size="13" font-weight="bold" lengthAdjust="spacing" textLength="7.436" x="390.5902" y="291.8569">5</text><text fill="#000000" font-family="sans-serif" font-size="13" lengthAdjust="spacing" textLength="103.5191" x="402.0262" y="291.8569">getRepositories()</text><polygon fill="#181818" points="756.659,325.3719,766.659,329.3719,756.659,333.3719,760.659,329.3719" style="stroke:#181818;stroke-width:1.0;"/><line style="stroke:#181818;stroke-width:1.0;" x1="640.3284" x2="762.659" y1="329.3719" y2="329.3719"/><text fill="#000000" font-family="sans-serif" font-size="13" font-weight="bold" lengthAdjust="spacing" textLength="7.436" x="647.3284" y="323.5629">6</text><text fill="#000000" font-family="sans-serif" font-size="13" lengthAdjust="spacing" textLength="80.0801" x="658.7644" y="323.5629">getInstance()</text><polygon fill="#181818" points="651.3284,357.0779,641.3284,361.0779,651.3284,365.0779,647.3284,361.0779" style="stroke:#181818;stroke-width:1.0;"/><line style="stroke:#181818;stroke-width:1.0;stroke-dasharray:2.0,2.0;" x1="645.3284" x2="772.659" y1="361.0779" y2="361.0779"/><text fill="#000000" font-family="sans-serif" font-size="13" font-weight="bold" lengthAdjust="spacing" textLength="7.436" x="657.3284" y="355.2689">7</text><text fill="#000000" font-family="sans-serif" font-size="13" lengthAdjust="spacing" textLength="58.3441" x="668.7644" y="355.2689">simulator</text><polygon fill="#181818" points="877.7626,388.784,887.7626,392.784,877.7626,396.784,881.7626,392.784" style="stroke:#181818;stroke-width:1.0;"/><line style="stroke:#181818;stroke-width:1.0;" x1="640.3284" x2="883.7626" y1="392.784" y2="392.784"/><text fill="#000000" font-family="sans-serif" font-size="13" font-weight="bold" lengthAdjust="spacing" textLength="7.436" x="647.3284" y="386.975">8</text><text fill="#000000" font-family="sans-serif" font-size="13" lengthAdjust="spacing" textLength="127.4911" x="658.7644" y="386.975">getCurrentScenario()</text><polygon fill="#181818" points="651.3284,420.49,641.3284,424.49,651.3284,428.49,647.3284,424.49" style="stroke:#181818;stroke-width:1.0;"/><line style="stroke:#181818;stroke-width:1.0;stroke-dasharray:2.0,2.0;" x1="645.3284" x2="893.7626" y1="424.49" y2="424.49"/><text fill="#000000" font-family="sans-serif" font-size="13" font-weight="bold" lengthAdjust="spacing" textLength="7.436" x="657.3284" y="418.681">9</text><text fill="#000000" font-family="sans-serif" font-size="13" lengthAdjust="spacing" textLength="97.6951" x="668.7644" y="418.681">currentScenario</text><polygon fill="#181818" points="995.2963,452.196,1005.2963,456.196,995.2963,460.196,999.2963,456.196" style="stroke:#181818;stroke-width:1.0;"/><line style="stroke:#181818;stroke-width:1.0;" x1="640.3284" x2="1001.2963" y1="456.196" y2="456.196"/><text fill="#000000" font-family="sans-serif" font-size="13" font-weight="bold" lengthAdjust="spacing" textLength="14.872" x="647.3284" y="450.387">10</text><text fill="#000000" font-family="sans-serif" font-size="13" lengthAdjust="spacing" textLength="101.9461" x="666.2004" y="450.387">getCurrentMap()</text><polygon fill="#181818" points="651.3284,483.902,641.3284,487.902,651.3284,491.902,647.3284,487.902" style="stroke:#181818;stroke-width:1.0;"/><line style="stroke:#181818;stroke-width:1.0;stroke-dasharray:2.0,2.0;" x1="645.3284" x2="1011.2963" y1="487.902" y2="487.902"/><text fill="#000000" font-family="sans-serif" font-size="13" font-weight="bold" lengthAdjust="spacing" textLength="14.872" x="657.3284" y="482.093">11</text><text fill="#000000" font-family="sans-serif" font-size="13" lengthAdjust="spacing" textLength="72.1501" x="676.2004" y="482.093">currentMap</text><polygon fill="#181818" points="1204.7535,515.608,1214.7535,519.608,1204.7535,523.608,1208.7535,519.608" style="stroke:#181818;stroke-width:1.0;"/><line style="stroke:#181818;stroke-width:1.0;" x1="640.3284" x2="1210.7535" y1="519.608" y2="519.608"/><text fill="#000000" font-family="sans-serif" font-size="13" font-weight="bold" lengthAdjust="spacing" textLength="14.872" x="647.3284" y="513.799">12</text><text fill="#000000" font-family="sans-serif" font-size="13" lengthAdjust="spacing" textLength="147.6021" x="666.2004" y="513.799">createLocation(position)</text><line style="stroke:#181818;stroke-width:1.0;stroke-dasharray:2.0,2.0;" x1="1226.7535" x2="1268.7535" y1="551.314" y2="551.314"/><line style="stroke:#181818;stroke-width:1.0;stroke-dasharray:2.0,2.0;" x1="1268.7535" x2="1268.7535" y1="551.314" y2="564.314"/><line style="stroke:#181818;stroke-width:1.0;stroke-dasharray:2.0,2.0;" x1="1227.7535" x2="1268.7535" y1="564.314" y2="564.314"/><polygon fill="#181818" points="1237.7535,560.314,1227.7535,564.314,1237.7535,568.314,1233.7535,564.314" style="stroke:#181818;stroke-width:1.0;"/><text fill="#000000" font-family="sans-serif" font-size="13" font-weight="bold" lengthAdjust="spacing" textLength="14.872" x="1233.7535" y="545.505">13</text><text fill="#000000" font-family="sans-serif" font-size="13" lengthAdjust="spacing" textLength="154.7262" x="1252.6255" y="545.505">isEmptyPosition(position)</text><polygon fill="#181818" points="1412.3517,592.0201,1422.3517,596.0201,1412.3517,600.0201,1416.3517,596.0201" style="stroke:#181818;stroke-width:1.0;"/><line style="stroke:#181818;stroke-width:1.0;" x1="1226.7535" x2="1418.3517" y1="596.0201" y2="596.0201"/><text fill="#000000" font-family="sans-serif" font-size="13" font-weight="bold" lengthAdjust="spacing" textLength="14.872" x="1233.7535" y="590.2111">14</text><text fill="#000000" font-family="sans-serif" font-size="13" lengthAdjust="spacing" textLength="120.3021" x="1252.6255" y="590.2111">createLocation(pos)</text><polygon fill="#181818" points="1237.7535,623.7261,1227.7535,627.7261,1237.7535,631.7261,1233.7535,627.7261" style="stroke:#181818;stroke-width:1.0;"/><line style="stroke:#181818;stroke-width:1.0;stroke-dasharray:2.0,2.0;" x1="1231.7535" x2="1428.3517" y1="627.7261" y2="627.7261"/><text fill="#000000" font-family="sans-serif" font-size="13" font-weight="bold" lengthAdjust="spacing" textLength="14.872" x="1243.7535" y="621.9171">15</text><text fill="#000000" font-family="sans-serif" font-size="13" lengthAdjust="spacing" textLength="48.698" x="1262.6255" y="621.9171">location</text><polygon fill="#181818" points="651.3284,655.4321,641.3284,659.4321,651.3284,663.4321,647.3284,659.4321" style="stroke:#181818;stroke-width:1.0;"/><line style="stroke:#181818;stroke-width:1.0;stroke-dasharray:2.0,2.0;" x1="645.3284" x2="1220.7535" y1="659.4321" y2="659.4321"/><text fill="#000000" font-family="sans-serif" font-size="13" font-weight="bold" lengthAdjust="spacing" textLength="14.872" x="657.3284" y="653.6231">16</text><text fill="#000000" font-family="sans-serif" font-size="13" lengthAdjust="spacing" textLength="48.698" x="676.2004" y="653.6231">location</text><polygon fill="#181818" points="394.5902,687.1381,384.5902,691.1381,394.5902,695.1381,390.5902,691.1381" style="stroke:#181818;stroke-width:1.0;"/><line style="stroke:#181818;stroke-width:1.0;stroke-dasharray:2.0,2.0;" x1="388.5902" x2="629.3284" y1="691.1381" y2="691.1381"/><text fill="#000000" font-family="sans-serif" font-size="13" font-weight="bold" lengthAdjust="spacing" textLength="14.872" x="400.5902" y="685.3291">17</text><text fill="#000000" font-family="sans-serif" font-size="13" lengthAdjust="spacing" textLength="48.698" x="419.4622" y="685.3291">location</text><line style="stroke:#181818;stroke-width:1.0;" x1="383.5902" x2="425.5902" y1="722.8441" y2="722.8441"/><line style="stroke:#181818;stroke-width:1.0;" x1="425.5902" x2="425.5902" y1="722.8441" y2="735.8441"/><line style="stroke:#181818;stroke-width:1.0;" x1="384.5902" x2="425.5902" y1="735.8441" y2="735.8441"/><polygon fill="#181818" points="394.5902,731.8441,384.5902,735.8441,394.5902,739.8441,390.5902,735.8441" style="stroke:#181818;stroke-width:1.0;"/><text fill="#000000" font-family="sans-serif" font-size="13" font-weight="bold" lengthAdjust="spacing" textLength="14.872" x="390.5902" y="717.0351">18</text><text fill="#000000" font-family="sans-serif" font-size="13" lengthAdjust="spacing" textLength="98.5011" x="409.4622" y="717.0351">isToCreatePort()</text><polygon fill="#181818" points="58.6559,763.5501,48.6559,767.5501,58.6559,771.5501,54.6559,767.5501" style="stroke:#181818;stroke-width:1.0;"/><line style="stroke:#181818;stroke-width:1.0;stroke-dasharray:2.0,2.0;" x1="52.6559" x2="377.5902" y1="767.5501" y2="767.5501"/><text fill="#000000" font-family="sans-serif" font-size="13" font-weight="bold" lengthAdjust="spacing" textLength="14.872" x="64.6559" y="761.7411">19</text><text fill="#000000" font-family="sans-serif" font-size="13" lengthAdjust="spacing" textLength="222.8462" x="83.5279" y="761.7411">ask if the user wants to create a port</text><path d="M10,782.5501 L72.459,782.5501 L72.459,792.2562 L62.459,802.2562 L10,802.2562 L10,782.5501 " fill="#EEEEEE" style="stroke:#000000;stroke-width:1.5;"/><rect fill="none" height="368.4722" style="stroke:#000000;stroke-width:1.5;" width="1693.5669" x="10" y="782.5501"/><text fill="#000000" font-family="sans-serif" font-size="13" font-weight="bold" lengthAdjust="spacing" textLength="17.459" x="25" y="797.4472">alt</text><text fill="#000000" font-family="sans-serif" font-size="11" font-weight="bold" lengthAdjust="spacing" textLength="13.5409" x="87.459" y="796.3091">[y]</text><polygon fill="#181818" points="361.5902,821.9622,371.5902,825.9622,361.5902,829.9622,365.5902,825.9622" style="stroke:#181818;stroke-width:1.0;"/><line style="stroke:#181818;stroke-width:1.0;" x1="47.6559" x2="367.5902" y1="825.9622" y2="825.9622"/><text fill="#000000" font-family="sans-serif" font-size="13" font-weight="bold" lengthAdjust="spacing" textLength="14.872" x="54.6559" y="820.1532">20</text><text fill="#000000" font-family="sans-serif" font-size="13" lengthAdjust="spacing" textLength="20.189" x="73.5279" y="820.1532">yes</text><polygon fill="#181818" points="618.3284,853.6682,628.3284,857.6682,618.3284,861.6682,622.3284,857.6682" style="stroke:#181818;stroke-width:1.0;"/><line style="stroke:#181818;stroke-width:1.0;" x1="383.5902" x2="624.3284" y1="857.6682" y2="857.6682"/><text fill="#000000" font-family="sans-serif" font-size="13" font-weight="bold" lengthAdjust="spacing" textLength="14.872" x="390.5902" y="851.8592">21</text><text fill="#000000" font-family="sans-serif" font-size="13" lengthAdjust="spacing" textLength="71.8511" x="409.4622" y="851.8592">createPort()</text><polygon fill="#181818" points="995.2963,885.3742,1005.2963,889.3742,995.2963,893.3742,999.2963,889.3742" style="stroke:#181818;stroke-width:1.0;"/><line style="stroke:#181818;stroke-width:1.0;stroke-dasharray:2.0,2.0;" x1="640.3284" x2="1001.2963" y1="889.3742" y2="889.3742"/><text fill="#000000" font-family="sans-serif" font-size="13" font-weight="bold" lengthAdjust="spacing" textLength="14.872" x="647.3284" y="883.5652">22</text><text fill="#000000" font-family="sans-serif" font-size="13" lengthAdjust="spacing" textLength="115.9471" x="666.2004" y="883.5652">getPortBehaviour()</text><polygon fill="#181818" points="651.3284,917.0802,641.3284,921.0802,651.3284,925.0802,647.3284,921.0802" style="stroke:#181818;stroke-width:1.0;"/><line style="stroke:#181818;stroke-width:1.0;" x1="645.3284" x2="1011.2963" y1="921.0802" y2="921.0802"/><text fill="#000000" font-family="sans-serif" font-size="13" font-weight="bold" lengthAdjust="spacing" textLength="14.872" x="657.3284" y="915.2712">23</text><text fill="#000000" font-family="sans-serif" font-size="13" lengthAdjust="spacing" textLength="95.9271" x="676.2004" y="915.2712">PortBehaviour()</text><polygon fill="#181818" points="995.2963,948.7862,1005.2963,952.7862,995.2963,956.7862,999.2963,952.7862" style="stroke:#181818;stroke-width:1.0;"/><line style="stroke:#181818;stroke-width:1.0;" x1="640.3284" x2="1001.2963" y1="952.7862" y2="952.7862"/><text fill="#000000" font-family="sans-serif" font-size="13" font-weight="bold" lengthAdjust="spacing" textLength="14.872" x="647.3284" y="946.9772">24</text><text fill="#000000" font-family="sans-serif" font-size="13" lengthAdjust="spacing" textLength="217.6462" x="666.2004" y="946.9772">CreatePort(portBehaviour, location)</text><polygon fill="#181818" points="1492.1065,980.4923,1502.1065,984.4923,1492.1065,988.4923,1496.1065,984.4923" style="stroke:#181818;stroke-width:1.0;"/><line style="stroke:#181818;stroke-width:1.0;" x1="1017.2963" x2="1498.1065" y1="984.4923" y2="984.4923"/><text fill="#000000" font-family="sans-serif" font-size="13" font-weight="bold" lengthAdjust="spacing" textLength="14.872" x="1024.2963" y="978.6833">25</text><text fill="#000000" font-family="sans-serif" font-size="13" lengthAdjust="spacing" textLength="359.3333" x="1043.1683" y="978.6833">createPort(consumedProducts, producedProduct, location)</text><polygon fill="#181818" points="1028.2963,1012.1983,1018.2963,1016.1983,1028.2963,1020.1983,1024.2963,1016.1983" style="stroke:#181818;stroke-width:1.0;"/><line style="stroke:#181818;stroke-width:1.0;stroke-dasharray:2.0,2.0;" x1="1022.2963" x2="1508.1065" y1="1016.1983" y2="1016.1983"/><text fill="#000000" font-family="sans-serif" font-size="13" font-weight="bold" lengthAdjust="spacing" textLength="14.872" x="1034.2963" y="1010.3893">26</text><text fill="#000000" font-family="sans-serif" font-size="13" lengthAdjust="spacing" textLength="25.922" x="1053.1683" y="1010.3893">port</text><polygon fill="#181818" points="1606.6721,1043.9043,1616.6721,1047.9043,1606.6721,1051.9043,1610.6721,1047.9043" style="stroke:#181818;stroke-width:1.0;"/><line style="stroke:#181818;stroke-width:1.0;" x1="1017.2963" x2="1612.6721" y1="1047.9043" y2="1047.9043"/><text fill="#000000" font-family="sans-serif" font-size="13" font-weight="bold" lengthAdjust="spacing" textLength="14.872" x="1024.2963" y="1042.0953">27</text><text fill="#000000" font-family="sans-serif" font-size="13" lengthAdjust="spacing" textLength="82.7971" x="1043.1683" y="1042.0953">addPort(port)</text><polygon fill="#181818" points="1028.2963,1075.6103,1018.2963,1079.6103,1028.2963,1083.6103,1024.2963,1079.6103" style="stroke:#181818;stroke-width:1.0;"/><line style="stroke:#181818;stroke-width:1.0;stroke-dasharray:2.0,2.0;" x1="1022.2963" x2="1622.6721" y1="1079.6103" y2="1079.6103"/><text fill="#000000" font-family="sans-serif" font-size="13" font-weight="bold" lengthAdjust="spacing" textLength="14.872" x="1034.2963" y="1073.8013">28</text><text fill="#000000" font-family="sans-serif" font-size="13" lengthAdjust="spacing" textLength="3.38" x="1053.1683" y="1073.8013">&#160;</text><polygon fill="#181818" points="651.3284,1107.3163,641.3284,1111.3163,651.3284,1115.3163,647.3284,1111.3163" style="stroke:#181818;stroke-width:1.0;"/><line style="stroke:#181818;stroke-width:1.0;stroke-dasharray:2.0,2.0;" x1="645.3284" x2="1011.2963" y1="1111.3163" y2="1111.3163"/><text fill="#000000" font-family="sans-serif" font-size="13" font-weight="bold" lengthAdjust="spacing" textLength="14.872" x="657.3284" y="1105.5073">29</text><text fill="#000000" font-family="sans-serif" font-size="13" lengthAdjust="spacing" textLength="25.922" x="676.2004" y="1105.5073">port</text><polygon fill="#181818" points="394.5902,1139.0223,384.5902,1143.0223,394.5902,1147.0223,390.5902,1143.0223" style="stroke:#181818;stroke-width:1.0;"/><line style="stroke:#181818;stroke-width:1.0;stroke-dasharray:2.0,2.0;" x1="388.5902" x2="634.3284" y1="1143.0223" y2="1143.0223"/><text fill="#000000" font-family="sans-serif" font-size="13" font-weight="bold" lengthAdjust="spacing" textLength="14.872" x="400.5902" y="1137.2133">30</text><text fill="#000000" font-family="sans-serif" font-size="13" lengthAdjust="spacing" textLength="25.922" x="419.4622" y="1137.2133">port</text><path d="M10,1165.0223 L72.459,1165.0223 L72.459,1174.7284 L62.459,1184.7284 L10,1184.7284 L10,1165.0223 " fill="#EEEEEE" style="stroke:#000000;stroke-width:1.5;"/><rect fill="none" height="602.4143" style="stroke:#000000;stroke-width:1.5;" width="1693.5669" x="10" y="1165.0223"/><text fill="#000000" font-family="sans-serif" font-size="13" font-weight="bold" lengthAdjust="spacing" textLength="17.459" x="25" y="1179.9194">alt</text><polygon fill="#181818" points="366.5902,1204.4344,376.5902,1208.4344,366.5902,1212.4344,370.5902,1208.4344" style="stroke:#181818;stroke-width:1.0;"/><line style="stroke:#181818;stroke-width:1.0;" x1="47.6559" x2="372.5902" y1="1208.4344" y2="1208.4344"/><text fill="#000000" font-family="sans-serif" font-size="13" font-weight="bold" lengthAdjust="spacing" textLength="14.872" x="54.6559" y="1202.6254">31</text><text fill="#000000" font-family="sans-serif" font-size="13" lengthAdjust="spacing" textLength="15.899" x="73.5279" y="1202.6254">no</text><polygon fill="#181818" points="618.3284,1236.1404,628.3284,1240.1404,618.3284,1244.1404,622.3284,1240.1404" style="stroke:#181818;stroke-width:1.0;"/><line style="stroke:#181818;stroke-width:1.0;" x1="388.5902" x2="624.3284" y1="1240.1404" y2="1240.1404"/><text fill="#000000" font-family="sans-serif" font-size="13" font-weight="bold" lengthAdjust="spacing" textLength="14.872" x="395.5902" y="1234.3314">32</text><text fill="#000000" font-family="sans-serif" font-size="13" lengthAdjust="spacing" textLength="79.7161" x="414.4622" y="1234.3314">listProducts()</text><polygon fill="#181818" points="995.2963,1267.8464,1005.2963,1271.8464,995.2963,1275.8464,999.2963,1271.8464" style="stroke:#181818;stroke-width:1.0;"/><line style="stroke:#181818;stroke-width:1.0;" x1="640.3284" x2="1001.2963" y1="1271.8464" y2="1271.8464"/><text fill="#000000" font-family="sans-serif" font-size="13" font-weight="bold" lengthAdjust="spacing" textLength="14.872" x="647.3284" y="1266.0374">33</text><text fill="#000000" font-family="sans-serif" font-size="13" lengthAdjust="spacing" textLength="172.7052" x="666.2004" y="1266.0374">getListOfAvailableProducts()</text><polygon fill="#181818" points="651.3284,1299.5524,641.3284,1303.5524,651.3284,1307.5524,647.3284,1303.5524" style="stroke:#181818;stroke-width:1.0;"/><line style="stroke:#181818;stroke-width:1.0;stroke-dasharray:2.0,2.0;" x1="645.3284" x2="1011.2963" y1="1303.5524" y2="1303.5524"/><text fill="#000000" font-family="sans-serif" font-size="13" font-weight="bold" lengthAdjust="spacing" textLength="14.872" x="657.3284" y="1297.7434">34</text><text fill="#000000" font-family="sans-serif" font-size="13" lengthAdjust="spacing" textLength="151.8531" x="676.2004" y="1297.7434">List of available products</text><polygon fill="#181818" points="399.5902,1331.2584,389.5902,1335.2584,399.5902,1339.2584,395.5902,1335.2584" style="stroke:#181818;stroke-width:1.0;"/><line style="stroke:#181818;stroke-width:1.0;stroke-dasharray:2.0,2.0;" x1="393.5902" x2="634.3284" y1="1335.2584" y2="1335.2584"/><text fill="#000000" font-family="sans-serif" font-size="13" font-weight="bold" lengthAdjust="spacing" textLength="14.872" x="405.5902" y="1329.4494">35</text><text fill="#000000" font-family="sans-serif" font-size="13" lengthAdjust="spacing" textLength="151.8531" x="424.4622" y="1329.4494">List of available products</text><polygon fill="#181818" points="58.6559,1380.6705,48.6559,1384.6705,58.6559,1388.6705,54.6559,1384.6705" style="stroke:#181818;stroke-width:1.0;"/><line style="stroke:#181818;stroke-width:1.0;stroke-dasharray:2.0,2.0;" x1="52.6559" x2="377.5902" y1="1384.6705" y2="1384.6705"/><text fill="#000000" font-family="sans-serif" font-size="13" font-weight="bold" lengthAdjust="spacing" textLength="14.872" x="64.6559" y="1370.0085">36</text><text fill="#000000" font-family="sans-serif" font-size="13" lengthAdjust="spacing" textLength="279.6823" x="83.5279" y="1361.1555">Display the products available to be produced</text><text fill="#000000" font-family="sans-serif" font-size="13" lengthAdjust="spacing" textLength="225.4072" x="86.9079" y="1378.8615">and ask the user which one he wants</text><polygon fill="#181818" points="366.5902,1412.3765,376.5902,1416.3765,366.5902,1420.3765,370.5902,1416.3765" style="stroke:#181818;stroke-width:1.0;"/><line style="stroke:#181818;stroke-width:1.0;" x1="47.6559" x2="372.5902" y1="1416.3765" y2="1416.3765"/><text fill="#000000" font-family="sans-serif" font-size="13" font-weight="bold" lengthAdjust="spacing" textLength="14.872" x="54.6559" y="1410.5675">37</text><text fill="#000000" font-family="sans-serif" font-size="13" lengthAdjust="spacing" textLength="184.5092" x="73.5279" y="1410.5675">Select product to be produced</text><polygon fill="#181818" points="618.3284,1444.0825,628.3284,1448.0825,618.3284,1452.0825,622.3284,1448.0825" style="stroke:#181818;stroke-width:1.0;"/><line style="stroke:#181818;stroke-width:1.0;" x1="388.5902" x2="624.3284" y1="1448.0825" y2="1448.0825"/><text fill="#000000" font-family="sans-serif" font-size="13" font-weight="bold" lengthAdjust="spacing" textLength="14.872" x="395.5902" y="1442.2735">38</text><text fill="#000000" font-family="sans-serif" font-size="13" lengthAdjust="spacing" textLength="203.8662" x="414.4622" y="1442.2735">CreateIndustry(product, position)</text><polygon fill="#181818" points="995.2963,1475.7885,1005.2963,1479.7885,995.2963,1483.7885,999.2963,1479.7885" style="stroke:#181818;stroke-width:1.0;"/><line style="stroke:#181818;stroke-width:1.0;" x1="640.3284" x2="1001.2963" y1="1479.7885" y2="1479.7885"/><text fill="#000000" font-family="sans-serif" font-size="13" font-weight="bold" lengthAdjust="spacing" textLength="14.872" x="647.3284" y="1473.9795">39</text><text fill="#000000" font-family="sans-serif" font-size="13" lengthAdjust="spacing" textLength="203.1772" x="666.2004" y="1473.9795">CreateIndustry(product, location)</text><line style="stroke:#181818;stroke-width:1.0;" x1="1017.2963" x2="1059.2963" y1="1511.4945" y2="1511.4945"/><line style="stroke:#181818;stroke-width:1.0;" x1="1059.2963" x2="1059.2963" y1="1511.4945" y2="1524.4945"/><line style="stroke:#181818;stroke-width:1.0;" x1="1018.2963" x2="1059.2963" y1="1524.4945" y2="1524.4945"/><polygon fill="#181818" points="1028.2963,1520.4945,1018.2963,1524.4945,1028.2963,1528.4945,1024.2963,1524.4945" style="stroke:#181818;stroke-width:1.0;"/><text fill="#000000" font-family="sans-serif" font-size="13" font-weight="bold" lengthAdjust="spacing" textLength="14.872" x="1024.2963" y="1505.6855">40</text><text fill="#000000" font-family="sans-serif" font-size="13" lengthAdjust="spacing" textLength="156.5852" x="1043.1683" y="1505.6855">getIndustryType(product)</text><line style="stroke:#181818;stroke-width:1.0;" x1="1017.2963" x2="1059.2963" y1="1556.2006" y2="1556.2006"/><line style="stroke:#181818;stroke-width:1.0;" x1="1059.2963" x2="1059.2963" y1="1556.2006" y2="1569.2006"/><line style="stroke:#181818;stroke-width:1.0;" x1="1018.2963" x2="1059.2963" y1="1569.2006" y2="1569.2006"/><polygon fill="#181818" points="1028.2963,1565.2006,1018.2963,1569.2006,1028.2963,1573.2006,1024.2963,1569.2006" style="stroke:#181818;stroke-width:1.0;"/><text fill="#000000" font-family="sans-serif" font-size="13" font-weight="bold" lengthAdjust="spacing" textLength="14.872" x="1024.2963" y="1550.3916">41</text><text fill="#000000" font-family="sans-serif" font-size="13" lengthAdjust="spacing" textLength="114.6471" x="1043.1683" y="1550.3916">getSector(product)</text><polygon fill="#181818" points="1492.1065,1596.9066,1502.1065,1600.9066,1492.1065,1604.9066,1496.1065,1600.9066" style="stroke:#181818;stroke-width:1.0;"/><line style="stroke:#181818;stroke-width:1.0;" x1="1017.2963" x2="1498.1065" y1="1600.9066" y2="1600.9066"/><text fill="#000000" font-family="sans-serif" font-size="13" font-weight="bold" lengthAdjust="spacing" textLength="14.872" x="1024.2963" y="1595.0976">42</text><text fill="#000000" font-family="sans-serif" font-size="13" lengthAdjust="spacing" textLength="234.7152" x="1043.1683" y="1595.0976">createIndustry(type, product, location)</text><polygon fill="#181818" points="1028.2963,1628.6126,1018.2963,1632.6126,1028.2963,1636.6126,1024.2963,1632.6126" style="stroke:#181818;stroke-width:1.0;"/><line style="stroke:#181818;stroke-width:1.0;stroke-dasharray:2.0,2.0;" x1="1022.2963" x2="1508.1065" y1="1632.6126" y2="1632.6126"/><text fill="#000000" font-family="sans-serif" font-size="13" font-weight="bold" lengthAdjust="spacing" textLength="14.872" x="1034.2963" y="1626.8036">43</text><text fill="#000000" font-family="sans-serif" font-size="13" lengthAdjust="spacing" textLength="50.3361" x="1053.1683" y="1626.8036">industry</text><polygon fill="#181818" points="1606.6721,1660.3186,1616.6721,1664.3186,1606.6721,1668.3186,1610.6721,1664.3186" style="stroke:#181818;stroke-width:1.0;"/><line style="stroke:#181818;stroke-width:1.0;" x1="1017.2963" x2="1612.6721" y1="1664.3186" y2="1664.3186"/><text fill="#000000" font-family="sans-serif" font-size="13" font-weight="bold" lengthAdjust="spacing" textLength="14.872" x="1024.2963" y="1658.5096">44</text><text fill="#000000" font-family="sans-serif" font-size="13" lengthAdjust="spacing" textLength="132.8082" x="1043.1683" y="1658.5096">addIndustry(industry)</text><polygon fill="#181818" points="1028.2963,1692.0246,1018.2963,1696.0246,1028.2963,1700.0246,1024.2963,1696.0246" style="stroke:#181818;stroke-width:1.0;"/><line style="stroke:#181818;stroke-width:1.0;stroke-dasharray:2.0,2.0;" x1="1022.2963" x2="1622.6721" y1="1696.0246" y2="1696.0246"/><text fill="#000000" font-family="sans-serif" font-size="13" font-weight="bold" lengthAdjust="spacing" textLength="14.872" x="1034.2963" y="1690.2156">45</text><text fill="#000000" font-family="sans-serif" font-size="13" lengthAdjust="spacing" textLength="3.38" x="1053.1683" y="1690.2156">&#160;</text><polygon fill="#181818" points="651.3284,1723.7306,641.3284,1727.7306,651.3284,1731.7306,647.3284,1727.7306" style="stroke:#181818;stroke-width:1.0;"/><line style="stroke:#181818;stroke-width:1.0;stroke-dasharray:2.0,2.0;" x1="645.3284" x2="1011.2963" y1="1727.7306" y2="1727.7306"/><text fill="#000000" font-family="sans-serif" font-size="13" font-weight="bold" lengthAdjust="spacing" textLength="14.872" x="657.3284" y="1721.9216">46</text><text fill="#000000" font-family="sans-serif" font-size="13" lengthAdjust="spacing" textLength="50.3361" x="676.2004" y="1721.9216">industry</text><polygon fill="#181818" points="399.5902,1755.4367,389.5902,1759.4367,399.5902,1763.4367,395.5902,1759.4367" style="stroke:#181818;stroke-width:1.0;"/><line style="stroke:#181818;stroke-width:1.0;stroke-dasharray:2.0,2.0;" x1="393.5902" x2="634.3284" y1="1759.4367" y2="1759.4367"/><text fill="#000000" font-family="sans-serif" font-size="13" font-weight="bold" lengthAdjust="spacing" textLength="14.872" x="405.5902" y="1753.6277">47</text><text fill="#000000" font-family="sans-serif" font-size="13" lengthAdjust="spacing" textLength="50.3361" x="424.4622" y="1753.6277">industry</text><polygon fill="#181818" points="53.6559,1794.1427,43.6559,1798.1427,53.6559,1802.1427,49.6559,1798.1427" style="stroke:#181818;stroke-width:1.0;"/><line style="stroke:#181818;stroke-width:1.0;stroke-dasharray:2.0,2.0;" x1="47.6559" x2="372.5902" y1="1798.1427" y2="1798.1427"/><text fill="#000000" font-family="sans-serif" font-size="13" font-weight="bold" lengthAdjust="spacing" textLength="14.872" x="59.6559" y="1792.3337">48</text><text fill="#000000" font-family="sans-serif" font-size="13" lengthAdjust="spacing" textLength="183.1312" x="78.5279" y="1792.3337">Industry created confirmation</text><!--SRC=[hLXTRziW57t6l-AgJudKIjKUyp1fIwkfKgTLI_ks5sAJ1Sq12t2c_Fk1RJ1s0DEfVgXTu9vpBX_dsb5KrGJUTlVtd-0Eje9WHG0peAngfH8NMEqUraM1MyLPUzeJKU1ISG6F5TMtmln7poPcQ43z7Uu-3s1F0z3RqmPsf2QbWh9dSHI7bcaKpWhaqEQn1KBpfX05R42tL5lEHKMPxfAhTJ1Knmv2Du3b7pZe9tNqD9KZX0QeI5oPxaxb_8sUex1nK1YkYFPfuvOp9NXT4vFDRw9-aePBeuXs-NjW4S8Hm1kBeYHQm8wUsXhtywSPdvXKc9L4ita0ZisDzdlHYB6GaWo5UqiIX4-flt686nTxqsUoROKWJErAmh2WF99G462IN9XY8T5oIXv9Tv4ykN03zYJRxxY9hLn02d8OUUbezDZ2MVHSzHhAu7OZddc9ZMkikisk7y8PpDYHWUY4zrXKFfuQTNaPCC9WNP0EiPH13TC8ns-7J7eTq2Ya3etpvYg4ut99B488ruETJKyKA43JsQs3ppPeAbzvt_p2XShqPthexBcLMifVp9G4nMqTmT1ee6MNnhM2YxwRL5EEVT7U3DwLTkcSlFrvT7l7PP_OyLS7rWHz9KTyfhmLVVJe2tReJJ4zfSdz4K3qlMR4BFATnLlUneU_TTjbgdpqWRbmIpMTjP8psPv8zI9urPPAtaBJFRaMdmXcrqXhmQ-78CSxMu9kfrqDzoOiZcd-X59prTeaYQlAJLkEz34uJ1WWcQIKbSiIIMuzM9oykAha4RascI1Jr1wyrn-42AkAmIqol8BnJAj0_-4JDPNARl7PMKyay8xo_wm9VXo-d36jyRuc4IwtAk-f_GOQ-06m1H-Eg995v1rWoGW3fIIR935TEQF2g-Tgr0OUg6ngVEbgb9NWgTArQa-SHy4lfh-mggwkZKNjICiZS4P0jtGLpf1cV4mDT3EET- -tpQnhrLWd7T-8Ye_TW372XHengn3J7MtHNYyDiOZhTCYEc0_QwE2h2kG4AyrXAyzSTg38cDPOMQ7-e50rGIYxVZXz5ZGYo7Fr0NsnM4JKJP5o7SBF-MFym4FCEll6wjFdsgrNl_IL_dvd1ofEmojlweNJwnj-6la7]--></g></svg>