<svg xmlns="http://www.w3.org/2000/svg" xmlns:xlink="http://www.w3.org/1999/xlink" contentStyleType="text/css" height="695px" preserveAspectRatio="none" style="width:477px;height:695px;background:#FFFFFF;" version="1.1" viewBox="0 0 477 695" width="477px" zoomAndPan="magnify"><title>US002 - Create an industry (SSD)</title><defs/><g><text fill="#000000" font-family="sans-serif" font-size="14" font-weight="bold" lengthAdjust="spacing" textLength="223.2011" x="128.5285" y="29.9659">US002 - Create an industry (SSD)</text><rect fill="#FFFFFF" height="460.1782" style="stroke:#181818;stroke-width:1.0;" width="10" x="37.6559" y="134.1358"/><rect fill="#FFFFFF" height="76.412" style="stroke:#181818;stroke-width:1.0;" width="10" x="305.9381" y="157.8419"/><rect fill="#FFFFFF" height="76.412" style="stroke:#181818;stroke-width:1.0;" width="10" x="305.9381" y="265.9599"/><rect fill="#FFFFFF" height="202.5301" style="stroke:#181818;stroke-width:1.0;" width="10" x="305.9381" y="400.784"/><rect fill="#FFFFFF" height="83.412" style="stroke:#181818;stroke-width:1.0;" width="10" x="310.9381" y="510.902"/><rect fill="none" height="96.118" style="stroke:#000000;stroke-width:1.5;" width="418.2252" x="10" y="357.3719"/><rect fill="none" height="96.118" style="stroke:#000000;stroke-width:1.5;" width="461.2582" x="10" y="467.49"/><line style="stroke:#181818;stroke-width:0.5;stroke-dasharray:5.0,5.0;" x1="42" x2="42" y1="124.1358" y2="612.314"/><line style="stroke:#181818;stroke-width:0.5;stroke-dasharray:5.0,5.0;" x1="310.1123" x2="310.1123" y1="124.1358" y2="612.314"/><text fill="#000000" font-family="sans-serif" font-size="14" lengthAdjust="spacing" textLength="39.3119" x="20" y="120.0339">Editor</text><ellipse cx="42.6559" cy="53.5679" fill="#E2E2F0" rx="8" ry="8" style="stroke:#181818;stroke-width:0.5;"/><path d="M42.6559,61.5679 L42.6559,88.5679 M29.6559,69.5679 L55.6559,69.5679 M42.6559,88.5679 L29.6559,103.5679 M42.6559,88.5679 L55.6559,103.5679 " fill="none" style="stroke:#181818;stroke-width:0.5;"/><text fill="#000000" font-family="sans-serif" font-size="14" lengthAdjust="spacing" textLength="39.3119" x="20" y="626.28">Editor</text><ellipse cx="42.6559" cy="638.882" fill="#E2E2F0" rx="8" ry="8" style="stroke:#181818;stroke-width:0.5;"/><path d="M42.6559,646.882 L42.6559,673.882 M29.6559,654.882 L55.6559,654.882 M42.6559,673.882 L29.6559,688.882 M42.6559,673.882 L55.6559,688.882 " fill="none" style="stroke:#181818;stroke-width:0.5;"/><rect fill="#E2E2F0" height="33.0679" rx="2.5" ry="2.5" style="stroke:#181818;stroke-width:0.5;" width="127.6516" x="247.1123" y="90.0679"/><text fill="#000000" font-family="sans-serif" font-size="14" lengthAdjust="spacing" textLength="113.6516" x="254.1123" y="112.0339">CreateIndustryUI</text><rect fill="#E2E2F0" height="33.0679" rx="2.5" ry="2.5" style="stroke:#181818;stroke-width:0.5;" width="127.6516" x="247.1123" y="611.314"/><text fill="#000000" font-family="sans-serif" font-size="14" lengthAdjust="spacing" textLength="113.6516" x="254.1123" y="633.28">CreateIndustryUI</text><rect fill="#FFFFFF" height="460.1782" style="stroke:#181818;stroke-width:1.0;" width="10" x="37.6559" y="134.1358"/><rect fill="#FFFFFF" height="76.412" style="stroke:#181818;stroke-width:1.0;" width="10" x="305.9381" y="157.8419"/><rect fill="#FFFFFF" height="76.412" style="stroke:#181818;stroke-width:1.0;" width="10" x="305.9381" y="265.9599"/><rect fill="#FFFFFF" height="202.5301" style="stroke:#181818;stroke-width:1.0;" width="10" x="305.9381" y="400.784"/><rect fill="#FFFFFF" height="83.412" style="stroke:#181818;stroke-width:1.0;" width="10" x="310.9381" y="510.902"/><polygon fill="#181818" points="293.9381,153.8419,303.9381,157.8419,293.9381,161.8419,297.9381,157.8419" style="stroke:#181818;stroke-width:1.0;"/><line style="stroke:#181818;stroke-width:1.0;" x1="47.6559" x2="299.9381" y1="157.8419" y2="157.8419"/><text fill="#000000" font-family="sans-serif" font-size="13" font-weight="bold" lengthAdjust="spacing" textLength="7.436" x="54.6559" y="152.0328">1</text><text fill="#000000" font-family="sans-serif" font-size="13" lengthAdjust="spacing" textLength="185.5492" x="66.0919" y="152.0328">Select create industry function</text><line style="stroke:#181818;stroke-width:1.0;" x1="315.9381" x2="357.9381" y1="189.5479" y2="189.5479"/><line style="stroke:#181818;stroke-width:1.0;" x1="357.9381" x2="357.9381" y1="189.5479" y2="202.5479"/><line style="stroke:#181818;stroke-width:1.0;" x1="316.9381" x2="357.9381" y1="202.5479" y2="202.5479"/><polygon fill="#181818" points="326.9381,198.5479,316.9381,202.5479,326.9381,206.5479,322.9381,202.5479" style="stroke:#181818;stroke-width:1.0;"/><text fill="#000000" font-family="sans-serif" font-size="13" font-weight="bold" lengthAdjust="spacing" textLength="7.436" x="322.9381" y="183.7389">2</text><text fill="#000000" font-family="sans-serif" font-size="13" lengthAdjust="spacing" textLength="110.0321" x="334.3741" y="183.7389">readCoordinates()</text><polygon fill="#181818" points="58.6559,230.2539,48.6559,234.2539,58.6559,238.2539,54.6559,234.2539" style="stroke:#181818;stroke-width:1.0;"/><line style="stroke:#181818;stroke-width:1.0;stroke-dasharray:2.0,2.0;" x1="52.6559" x2="309.9381" y1="234.2539" y2="234.2539"/><text fill="#000000" font-family="sans-serif" font-size="13" font-weight="bold" lengthAdjust="spacing" textLength="7.436" x="64.6559" y="228.4449">3</text><text fill="#000000" font-family="sans-serif" font-size="13" lengthAdjust="spacing" textLength="194.3502" x="76.0919" y="228.4449">ask for the industry coordinates</text><polygon fill="#181818" points="293.9381,261.9599,303.9381,265.9599,293.9381,269.9599,297.9381,265.9599" style="stroke:#181818;stroke-width:1.0;"/><line style="stroke:#181818;stroke-width:1.0;" x1="47.6559" x2="299.9381" y1="265.9599" y2="265.9599"/><text fill="#000000" font-family="sans-serif" font-size="13" font-weight="bold" lengthAdjust="spacing" textLength="7.436" x="54.6559" y="260.1509">4</text><text fill="#000000" font-family="sans-serif" font-size="13" lengthAdjust="spacing" textLength="156.1171" x="66.0919" y="260.1509">Give industry coordinates</text><line style="stroke:#181818;stroke-width:1.0;" x1="315.9381" x2="357.9381" y1="297.6659" y2="297.6659"/><line style="stroke:#181818;stroke-width:1.0;" x1="357.9381" x2="357.9381" y1="297.6659" y2="310.6659"/><line style="stroke:#181818;stroke-width:1.0;" x1="316.9381" x2="357.9381" y1="310.6659" y2="310.6659"/><polygon fill="#181818" points="326.9381,306.6659,316.9381,310.6659,326.9381,314.6659,322.9381,310.6659" style="stroke:#181818;stroke-width:1.0;"/><text fill="#000000" font-family="sans-serif" font-size="13" font-weight="bold" lengthAdjust="spacing" textLength="7.436" x="322.9381" y="291.8569">5</text><text fill="#000000" font-family="sans-serif" font-size="13" lengthAdjust="spacing" textLength="98.5011" x="334.3741" y="291.8569">isToCreatePort()</text><polygon fill="#181818" points="58.6559,338.3719,48.6559,342.3719,58.6559,346.3719,54.6559,342.3719" style="stroke:#181818;stroke-width:1.0;"/><line style="stroke:#181818;stroke-width:1.0;stroke-dasharray:2.0,2.0;" x1="52.6559" x2="309.9381" y1="342.3719" y2="342.3719"/><text fill="#000000" font-family="sans-serif" font-size="13" font-weight="bold" lengthAdjust="spacing" textLength="7.436" x="64.6559" y="336.5629">6</text><text fill="#000000" font-family="sans-serif" font-size="13" lengthAdjust="spacing" textLength="222.8462" x="76.0919" y="336.5629">ask if the user wants to create a port</text><path d="M10,357.3719 L72.459,357.3719 L72.459,367.0779 L62.459,377.0779 L10,377.0779 L10,357.3719 " fill="#EEEEEE" style="stroke:#000000;stroke-width:1.5;"/><rect fill="none" height="96.118" style="stroke:#000000;stroke-width:1.5;" width="418.2252" x="10" y="357.3719"/><text fill="#000000" font-family="sans-serif" font-size="13" font-weight="bold" lengthAdjust="spacing" textLength="17.459" x="25" y="372.2689">alt</text><text fill="#000000" font-family="sans-serif" font-size="11" font-weight="bold" lengthAdjust="spacing" textLength="13.5409" x="87.459" y="371.1308">[y]</text><polygon fill="#181818" points="293.9381,396.784,303.9381,400.784,293.9381,404.784,297.9381,400.784" style="stroke:#181818;stroke-width:1.0;"/><line style="stroke:#181818;stroke-width:1.0;" x1="47.6559" x2="299.9381" y1="400.784" y2="400.784"/><text fill="#000000" font-family="sans-serif" font-size="13" font-weight="bold" lengthAdjust="spacing" textLength="7.436" x="54.6559" y="394.975">7</text><text fill="#000000" font-family="sans-serif" font-size="13" lengthAdjust="spacing" textLength="20.189" x="66.0919" y="394.975">yes</text><line style="stroke:#181818;stroke-width:1.0;" x1="315.9381" x2="357.9381" y1="432.49" y2="432.49"/><line style="stroke:#181818;stroke-width:1.0;" x1="357.9381" x2="357.9381" y1="432.49" y2="445.49"/><line style="stroke:#181818;stroke-width:1.0;" x1="316.9381" x2="357.9381" y1="445.49" y2="445.49"/><polygon fill="#181818" points="326.9381,441.49,316.9381,445.49,326.9381,449.49,322.9381,445.49" style="stroke:#181818;stroke-width:1.0;"/><text fill="#000000" font-family="sans-serif" font-size="13" font-weight="bold" lengthAdjust="spacing" textLength="7.436" x="322.9381" y="426.681">8</text><text fill="#000000" font-family="sans-serif" font-size="13" lengthAdjust="spacing" textLength="71.8511" x="334.3741" y="426.681">createPort()</text><path d="M10,467.49 L72.459,467.49 L72.459,477.196 L62.459,487.196 L10,487.196 L10,467.49 " fill="#EEEEEE" style="stroke:#000000;stroke-width:1.5;"/><rect fill="none" height="96.118" style="stroke:#000000;stroke-width:1.5;" width="461.2582" x="10" y="467.49"/><text fill="#000000" font-family="sans-serif" font-size="13" font-weight="bold" lengthAdjust="spacing" textLength="17.459" x="25" y="482.387">alt</text><text fill="#000000" font-family="sans-serif" font-size="11" font-weight="bold" lengthAdjust="spacing" textLength="14.5089" x="87.459" y="481.2489">[n]</text><polygon fill="#181818" points="298.9381,506.902,308.9381,510.902,298.9381,514.902,302.9381,510.902" style="stroke:#181818;stroke-width:1.0;"/><line style="stroke:#181818;stroke-width:1.0;" x1="47.6559" x2="304.9381" y1="510.902" y2="510.902"/><text fill="#000000" font-family="sans-serif" font-size="13" font-weight="bold" lengthAdjust="spacing" textLength="7.436" x="54.6559" y="505.093">9</text><text fill="#000000" font-family="sans-serif" font-size="13" lengthAdjust="spacing" textLength="15.899" x="66.0919" y="505.093">no</text><line style="stroke:#181818;stroke-width:1.0;" x1="320.9381" x2="362.9381" y1="542.608" y2="542.608"/><line style="stroke:#181818;stroke-width:1.0;" x1="362.9381" x2="362.9381" y1="542.608" y2="555.608"/><line style="stroke:#181818;stroke-width:1.0;" x1="321.9381" x2="362.9381" y1="555.608" y2="555.608"/><polygon fill="#181818" points="331.9381,551.608,321.9381,555.608,331.9381,559.608,327.9381,555.608" style="stroke:#181818;stroke-width:1.0;"/><text fill="#000000" font-family="sans-serif" font-size="13" font-weight="bold" lengthAdjust="spacing" textLength="14.872" x="327.9381" y="536.799">10</text><text fill="#000000" font-family="sans-serif" font-size="13" lengthAdjust="spacing" textLength="97.4481" x="346.8101" y="536.799">createIndustry()</text><polygon fill="#181818" points="53.6559,590.314,43.6559,594.314,53.6559,598.314,49.6559,594.314" style="stroke:#181818;stroke-width:1.0;"/><line style="stroke:#181818;stroke-width:1.0;stroke-dasharray:2.0,2.0;" x1="47.6559" x2="304.9381" y1="594.314" y2="594.314"/><text fill="#000000" font-family="sans-serif" font-size="13" font-weight="bold" lengthAdjust="spacing" textLength="14.872" x="59.6559" y="588.505">11</text><text fill="#000000" font-family="sans-serif" font-size="13" lengthAdjust="spacing" textLength="183.1312" x="78.5279" y="588.505">Industry created confirmation</text><!--SRC=[hPCnRy8m48Nd-5Uy4GOar3535rfLsIgb_00tTbIhuLpPPr3-FJOnAKKqOM2oyvnxzpvVmeOxZMszNZzXXOtJaZKamP0AdbsFHLs_B8MGWIs5tQTsGZPi7LwLYOj8JsQVYh9G32jMpzcjoaxRgaIjEzqmcg7DsACD55qiYM9qkwuLHN4jtMg14b5H6skTCXIF_69vipJMvg0bfFz66tVyTP6f-RM81afF9Pj2VZFxVrqVG6lyXntaT-luJbZJdbY3rmu7IUp1zZmKYPzeD8iiEqO_WzxFGjvBsVmbrAH4pa0p6SYcDe_BS9PIZXHZwhPBLEFSJs-fE7zgZTl9uMkVkkABi_nd7G40]--></g></svg>