<svg xmlns="http://www.w3.org/2000/svg" xmlns:xlink="http://www.w3.org/1999/xlink" contentStyleType="text/css" data-diagram-type="SEQUENCE" height="277px" preserveAspectRatio="none" style="width:569px;height:277px;background:#FFFFFF;" version="1.1" viewBox="0 0 569 277" width="569px" zoomAndPan="magnify"><title>US016- Comparative analysis of passager arrivals across all stations</title><defs/><g><text fill="#000000" font-family="sans-serif" font-size="14" font-weight="bold" lengthAdjust="spacing" textLength="541.4746" x="10" y="27.9951">US016- Comparative analysis of passager arrivals across all stations</text><g><title>Player</title><rect fill="#000000" fill-opacity="0.00000" height="78.2656" width="8" x="126.481" y="118.5938"/><line style="stroke:#181818;stroke-width:0.5;stroke-dasharray:5.0,5.0;" x1="129.6982" x2="129.6982" y1="118.5938" y2="196.8594"/></g><g><title>System</title><rect fill="#000000" fill-opacity="0.00000" height="78.2656" width="8" x="419.6733" y="118.5938"/><line style="stroke:#181818;stroke-width:0.5;stroke-dasharray:5.0,5.0;" x1="423.5703" x2="423.5703" y1="118.5938" y2="196.8594"/></g><g class="participant participant-head" data-participant="Player"><text fill="#000000" font-family="sans-serif" font-size="14" lengthAdjust="spacing" textLength="43.5654" x="105.6982" y="115.292">Player</text><ellipse cx="130.481" cy="50.7969" fill="#E2E2F0" rx="8" ry="8" style="stroke:#181818;stroke-width:0.5;"/><path d="M130.481,58.7969 L130.481,85.7969 M117.481,66.7969 L143.481,66.7969 M130.481,85.7969 L117.481,100.7969 M130.481,85.7969 L143.481,100.7969" fill="none" style="stroke:#181818;stroke-width:0.5;"/></g><g class="participant participant-tail" data-participant="Player"><text fill="#000000" font-family="sans-serif" font-size="14" lengthAdjust="spacing" textLength="43.5654" x="105.6982" y="208.8545">Player</text><ellipse cx="130.481" cy="220.6563" fill="#E2E2F0" rx="8" ry="8" style="stroke:#181818;stroke-width:0.5;"/><path d="M130.481,228.6563 L130.481,255.6563 M117.481,236.6563 L143.481,236.6563 M130.481,255.6563 L117.481,270.6563 M130.481,255.6563 L143.481,270.6563" fill="none" style="stroke:#181818;stroke-width:0.5;"/></g><g class="participant participant-head" data-participant="System"><rect fill="#E2E2F0" height="30.2969" rx="2.5" ry="2.5" style="stroke:#181818;stroke-width:0.5;" width="66.2061" x="390.5703" y="87.2969"/><text fill="#000000" font-family="sans-serif" font-size="14" lengthAdjust="spacing" textLength="52.2061" x="397.5703" y="107.292">System</text></g><g class="participant participant-tail" data-participant="System"><rect fill="#E2E2F0" height="30.2969" rx="2.5" ry="2.5" style="stroke:#181818;stroke-width:0.5;" width="66.2061" x="390.5703" y="195.8594"/><text fill="#000000" font-family="sans-serif" font-size="14" lengthAdjust="spacing" textLength="52.2061" x="397.5703" y="215.8545">System</text></g><g class="message" data-participant-1="Player" data-participant-2="System"><polygon fill="#181818" points="411.6733,145.7266,421.6733,149.7266,411.6733,153.7266,415.6733,149.7266" style="stroke:#181818;stroke-width:1;"/><line style="stroke:#181818;stroke-width:1;" x1="130.481" x2="417.6733" y1="149.7266" y2="149.7266"/><text fill="#000000" font-family="sans-serif" font-size="13" font-weight="bold" lengthAdjust="spacing" textLength="9.0454" x="137.481" y="144.6606">1</text><text fill="#000000" font-family="sans-serif" font-size="13" lengthAdjust="spacing" textLength="256.147" x="150.5264" y="144.6606">Select to perform comparative analysis</text></g><g class="message" data-participant-1="System" data-participant-2="Player"><polygon fill="#181818" points="141.481,174.8594,131.481,178.8594,141.481,182.8594,137.481,178.8594" style="stroke:#181818;stroke-width:1;"/><line style="stroke:#181818;stroke-width:1;stroke-dasharray:2.0,2.0;" x1="135.481" x2="422.6733" y1="178.8594" y2="178.8594"/><text fill="#000000" font-family="sans-serif" font-size="13" font-weight="bold" lengthAdjust="spacing" textLength="9.0454" x="147.481" y="173.7935">2</text><text fill="#000000" font-family="sans-serif" font-size="13" lengthAdjust="spacing" textLength="208.8633" x="160.5264" y="173.7935">Return the output refered in 1.5</text></g><!--SRC=[RSqn2i9040NGFgVu5rWnXHOYDbv031vWN2UwiBiJPcO3kRq11Hkhpo_U_zHSQYjtrewYY-AIQLbBvyapupPi-tt0MSf4Ifvc1bNAYoM3Z9Z8Z9wi8DKqKpPGLB4rSeRv2gGQkkup6auO5dCkE63WpD7XWebr52s8Vpw-y1Z2JrxPcrRuYo7Df-PG7bdvWLJHRtPl]--></g></svg>