<svg xmlns="http://www.w3.org/2000/svg" xmlns:xlink="http://www.w3.org/1999/xlink" contentStyleType="text/css" data-diagram-type="CLASS" height="629px" preserveAspectRatio="none" style="width:669px;height:629px;background:#FFFFFF;" version="1.1" viewBox="0 0 669 629" width="669px" zoomAndPan="magnify"><title>US016</title><defs/><g><g class="title" data-source-line="1"><text fill="#000000" font-family="sans-serif" font-size="14" font-weight="bold" lengthAdjust="spacing" textLength="50.6748" x="302.5868" y="22.9951">US016</text></g><!--class analysisUI--><g class="entity" data-entity="analysisUI" data-source-line="4" data-uid="ent0002" id="entity_analysisUI"><rect fill="#F1F1F1" height="64.2969" rx="2.5" ry="2.5" style="stroke:#181818;stroke-width:0.5;" width="141.3701" x="236.74" y="44.2969"/><ellipse cx="268.9797" cy="60.2969" fill="#ADD1B2" rx="11" ry="11" style="stroke:#181818;stroke-width:1;"/><path d="M271.9485,65.9375 Q271.3704,66.2344 270.7297,66.375 Q270.0891,66.5313 269.386,66.5313 Q266.886,66.5313 265.5579,64.8906 Q264.2454,63.2344 264.2454,60.1094 Q264.2454,56.9844 265.5579,55.3281 Q266.886,53.6719 269.386,53.6719 Q270.0891,53.6719 270.7297,53.8281 Q271.386,53.9844 271.9485,54.2813 L271.9485,57 Q271.3235,56.4219 270.7297,56.1563 Q270.136,55.875 269.511,55.875 Q268.1672,55.875 267.4797,56.9531 Q266.7922,58.0156 266.7922,60.1094 Q266.7922,62.2031 267.4797,63.2813 Q268.1672,64.3438 269.511,64.3438 Q270.136,64.3438 270.7297,64.0781 Q271.3235,63.7969 271.9485,63.2188 L271.9485,65.9375 Z " fill="#000000"/><text fill="#000000" font-family="sans-serif" font-size="14" lengthAdjust="spacing" textLength="71.0596" x="286.8108" y="65.1436">analysisUI</text><line style="stroke:#181818;stroke-width:0.5;" x1="237.74" x2="377.1101" y1="76.2969" y2="76.2969"/><line style="stroke:#181818;stroke-width:0.5;" x1="237.74" x2="377.1101" y1="84.2969" y2="84.2969"/><ellipse cx="247.74" cy="97.9453" fill="#84BE84" rx="3" ry="3" style="stroke:#038048;stroke-width:1;"/><text fill="#000000" font-family="sans-serif" font-size="14" lengthAdjust="spacing" textLength="115.3701" x="256.74" y="101.292">DisplayBoxPlot()</text></g><!--class analysisController--><g class="entity" data-entity="analysisController" data-source-line="8" data-uid="ent0003" id="entity_analysisController"><rect fill="#F1F1F1" height="48" rx="2.5" ry="2.5" style="stroke:#181818;stroke-width:0.5;" width="157.8564" x="228.49" y="168.5969"/><ellipse cx="243.49" cy="184.5969" fill="#ADD1B2" rx="11" ry="11" style="stroke:#181818;stroke-width:1;"/><path d="M246.4588,190.2375 Q245.8806,190.5344 245.24,190.675 Q244.5994,190.8312 243.8963,190.8312 Q241.3963,190.8312 240.0681,189.1906 Q238.7556,187.5344 238.7556,184.4094 Q238.7556,181.2844 240.0681,179.6281 Q241.3963,177.9719 243.8963,177.9719 Q244.5994,177.9719 245.24,178.1281 Q245.8963,178.2844 246.4588,178.5812 L246.4588,181.3 Q245.8338,180.7219 245.24,180.4562 Q244.6463,180.175 244.0213,180.175 Q242.6775,180.175 241.99,181.2531 Q241.3025,182.3156 241.3025,184.4094 Q241.3025,186.5031 241.99,187.5812 Q242.6775,188.6437 244.0213,188.6437 Q244.6463,188.6437 245.24,188.3781 Q245.8338,188.0969 246.4588,187.5187 L246.4588,190.2375 Z " fill="#000000"/><text fill="#000000" font-family="sans-serif" font-size="14" lengthAdjust="spacing" textLength="125.8564" x="257.49" y="189.4436">analysisController</text><line style="stroke:#181818;stroke-width:0.5;" x1="229.49" x2="385.3464" y1="200.5969" y2="200.5969"/><line style="stroke:#181818;stroke-width:0.5;" x1="229.49" x2="385.3464" y1="208.5969" y2="208.5969"/></g><!--class Repositories--><g class="entity" data-entity="Repositories" data-source-line="12" data-uid="ent0004" id="entity_Repositories"><rect fill="#F1F1F1" height="96.8906" rx="2.5" ry="2.5" style="stroke:#181818;stroke-width:0.5;" width="214.6309" x="80.11" y="400.8869"/><ellipse cx="139.8834" cy="416.8869" fill="#ADD1B2" rx="11" ry="11" style="stroke:#181818;stroke-width:1;"/><path d="M142.8522,422.5275 Q142.2741,422.8244 141.6334,422.965 Q140.9928,423.1213 140.2897,423.1213 Q137.7897,423.1213 136.4616,421.4806 Q135.1491,419.8244 135.1491,416.6994 Q135.1491,413.5744 136.4616,411.9181 Q137.7897,410.2619 140.2897,410.2619 Q140.9928,410.2619 141.6334,410.4181 Q142.2897,410.5744 142.8522,410.8713 L142.8522,413.59 Q142.2272,413.0119 141.6334,412.7463 Q141.0397,412.465 140.4147,412.465 Q139.0709,412.465 138.3834,413.5431 Q137.6959,414.6056 137.6959,416.6994 Q137.6959,418.7931 138.3834,419.8713 Q139.0709,420.9338 140.4147,420.9338 Q141.0397,420.9338 141.6334,420.6681 Q142.2272,420.3869 142.8522,419.8088 L142.8522,422.5275 Z " fill="#000000"/><text fill="#000000" font-family="sans-serif" font-size="14" lengthAdjust="spacing" textLength="86.584" x="160.3834" y="421.7336">Repositories</text><line style="stroke:#181818;stroke-width:0.5;" x1="81.11" x2="293.7409" y1="432.8869" y2="432.8869"/><line style="stroke:#181818;stroke-width:0.5;" x1="81.11" x2="293.7409" y1="440.8869" y2="440.8869"/><ellipse cx="91.11" cy="454.5353" fill="#84BE84" rx="3" ry="3" style="stroke:#038048;stroke-width:1;"/><text fill="#000000" font-family="sans-serif" font-size="14" lengthAdjust="spacing" textLength="93.4609" x="100.11" y="457.882">getInstnace()</text><ellipse cx="91.11" cy="470.8322" fill="#84BE84" rx="3" ry="3" style="stroke:#038048;stroke-width:1;"/><text fill="#000000" font-family="sans-serif" font-size="14" lengthAdjust="spacing" textLength="153.2686" x="100.11" y="474.1789">getSationRepository()</text><ellipse cx="91.11" cy="487.1291" fill="#84BE84" rx="3" ry="3" style="stroke:#038048;stroke-width:1;"/><text fill="#000000" font-family="sans-serif" font-size="14" lengthAdjust="spacing" textLength="188.6309" x="100.11" y="490.4757">getPassengersRepository()</text></g><!--class StationRepository--><g class="entity" data-entity="StationRepository" data-source-line="18" data-uid="ent0005" id="entity_StationRepository"><rect fill="#F1F1F1" height="64.2969" rx="2.5" ry="2.5" style="stroke:#181818;stroke-width:0.5;" width="156.8447" x="7" y="557.7769"/><ellipse cx="22" cy="573.7769" fill="#ADD1B2" rx="11" ry="11" style="stroke:#181818;stroke-width:1;"/><path d="M24.9688,579.4175 Q24.3906,579.7144 23.75,579.855 Q23.1094,580.0113 22.4063,580.0113 Q19.9063,580.0113 18.5781,578.3706 Q17.2656,576.7144 17.2656,573.5894 Q17.2656,570.4644 18.5781,568.8081 Q19.9063,567.1519 22.4063,567.1519 Q23.1094,567.1519 23.75,567.3081 Q24.4063,567.4644 24.9688,567.7613 L24.9688,570.48 Q24.3438,569.9019 23.75,569.6363 Q23.1563,569.355 22.5313,569.355 Q21.1875,569.355 20.5,570.4331 Q19.8125,571.4956 19.8125,573.5894 Q19.8125,575.6831 20.5,576.7613 Q21.1875,577.8238 22.5313,577.8238 Q23.1563,577.8238 23.75,577.5581 Q24.3438,577.2769 24.9688,576.6988 L24.9688,579.4175 Z " fill="#000000"/><text fill="#000000" font-family="sans-serif" font-size="14" lengthAdjust="spacing" textLength="124.8447" x="36" y="578.6236">StationRepository</text><line style="stroke:#181818;stroke-width:0.5;" x1="8" x2="162.8447" y1="589.7769" y2="589.7769"/><line style="stroke:#181818;stroke-width:0.5;" x1="8" x2="162.8447" y1="597.7769" y2="597.7769"/><ellipse cx="18" cy="611.4253" fill="#84BE84" rx="3" ry="3" style="stroke:#038048;stroke-width:1;"/><text fill="#000000" font-family="sans-serif" font-size="14" lengthAdjust="spacing" textLength="90.9795" x="27" y="614.772">getStations()</text></g><!--class PassengerRepository--><g class="entity" data-entity="PassengerRepository" data-source-line="22" data-uid="ent0006" id="entity_PassengerRepository"><rect fill="#F1F1F1" height="64.2969" rx="2.5" ry="2.5" style="stroke:#181818;stroke-width:0.5;" width="179.4238" x="227.71" y="557.7769"/><ellipse cx="242.71" cy="573.7769" fill="#ADD1B2" rx="11" ry="11" style="stroke:#181818;stroke-width:1;"/><path d="M245.6788,579.4175 Q245.1006,579.7144 244.46,579.855 Q243.8194,580.0113 243.1163,580.0113 Q240.6163,580.0113 239.2881,578.3706 Q237.9756,576.7144 237.9756,573.5894 Q237.9756,570.4644 239.2881,568.8081 Q240.6163,567.1519 243.1163,567.1519 Q243.8194,567.1519 244.46,567.3081 Q245.1163,567.4644 245.6788,567.7613 L245.6788,570.48 Q245.0538,569.9019 244.46,569.6363 Q243.8663,569.355 243.2413,569.355 Q241.8975,569.355 241.21,570.4331 Q240.5225,571.4956 240.5225,573.5894 Q240.5225,575.6831 241.21,576.7613 Q241.8975,577.8238 243.2413,577.8238 Q243.8663,577.8238 244.46,577.5581 Q245.0538,577.2769 245.6788,576.6988 L245.6788,579.4175 Z " fill="#000000"/><text fill="#000000" font-family="sans-serif" font-size="14" lengthAdjust="spacing" textLength="147.4238" x="256.71" y="578.6236">PassengerRepository</text><line style="stroke:#181818;stroke-width:0.5;" x1="228.71" x2="406.1338" y1="589.7769" y2="589.7769"/><line style="stroke:#181818;stroke-width:0.5;" x1="228.71" x2="406.1338" y1="597.7769" y2="597.7769"/><ellipse cx="238.71" cy="611.4253" fill="#84BE84" rx="3" ry="3" style="stroke:#038048;stroke-width:1;"/><text fill="#000000" font-family="sans-serif" font-size="14" lengthAdjust="spacing" textLength="113.5586" x="247.71" y="614.772">getPassengers()</text></g><!--class BoxPlotCreator--><g class="entity" data-entity="BoxPlotCreator" data-source-line="28" data-uid="ent0007" id="entity_BoxPlotCreator"><rect fill="#F1F1F1" height="64.2969" rx="2.5" ry="2.5" style="stroke:#181818;stroke-width:0.5;" width="262.8584" x="399.99" y="276.5969"/><ellipse cx="474.4812" cy="292.5969" fill="#ADD1B2" rx="11" ry="11" style="stroke:#181818;stroke-width:1;"/><path d="M477.45,298.2375 Q476.8718,298.5344 476.2312,298.675 Q475.5906,298.8312 474.8875,298.8312 Q472.3875,298.8312 471.0593,297.1906 Q469.7468,295.5344 469.7468,292.4094 Q469.7468,289.2844 471.0593,287.6281 Q472.3875,285.9719 474.8875,285.9719 Q475.5906,285.9719 476.2312,286.1281 Q476.8875,286.2844 477.45,286.5812 L477.45,289.3 Q476.825,288.7219 476.2312,288.4562 Q475.6375,288.175 475.0125,288.175 Q473.6687,288.175 472.9812,289.2531 Q472.2937,290.3156 472.2937,292.4094 Q472.2937,294.5031 472.9812,295.5812 Q473.6687,296.6437 475.0125,296.6437 Q475.6375,296.6437 476.2312,296.3781 Q476.825,296.0969 477.45,295.5187 L477.45,298.2375 Z " fill="#000000"/><text fill="#000000" font-family="sans-serif" font-size="14" lengthAdjust="spacing" textLength="105.376" x="494.9812" y="297.4436">BoxPlotCreator</text><line style="stroke:#181818;stroke-width:0.5;" x1="400.99" x2="661.8484" y1="308.5969" y2="308.5969"/><line style="stroke:#181818;stroke-width:0.5;" x1="400.99" x2="661.8484" y1="316.5969" y2="316.5969"/><ellipse cx="410.99" cy="330.2453" fill="#84BE84" rx="3" ry="3" style="stroke:#038048;stroke-width:1;"/><text fill="#000000" font-family="sans-serif" font-size="14" lengthAdjust="spacing" textLength="236.8584" x="419.99" y="333.592">createBoxPlot(Sation,Passangers)</text></g><!--link analysisUI to analysisController--><g class="link" data-entity-1="analysisUI" data-entity-2="analysisController" data-source-line="35" data-uid="lnk8" id="link_analysisUI_analysisController"><path codeLine="35" d="M307.42,108.9369 C307.42,127.6769 307.42,145.0569 307.42,162.1669" fill="none" id="analysisUI-to-analysisController" style="stroke:#181818;stroke-width:1;stroke-dasharray:7.0,7.0;"/><polygon fill="#181818" points="307.42,168.1669,311.42,159.1669,307.42,163.1669,303.42,159.1669,307.42,168.1669" style="stroke:#181818;stroke-width:1;"/></g><!--link analysisController to Repositories--><g class="link" data-entity-1="analysisController" data-entity-2="Repositories" data-source-line="36" data-uid="lnk9" id="link_analysisController_Repositories"><path codeLine="36" d="M296.56,216.6469 C277.06,258.0469 238.297,340.329 212.467,395.159" fill="none" id="analysisController-to-Repositories" style="stroke:#181818;stroke-width:1;stroke-dasharray:7.0,7.0;"/><polygon fill="#181818" points="209.91,400.5869,217.3641,394.1498,212.0409,396.0637,210.127,390.7404,209.91,400.5869" style="stroke:#181818;stroke-width:1;"/></g><!--link Repositories to StationRepository--><g class="link" data-entity-1="Repositories" data-entity-2="StationRepository" data-source-line="37" data-uid="lnk10" id="link_Repositories_StationRepository"><path codeLine="37" d="M152.32,498.0269 C137.8,517.7669 124.9272,535.2551 111.9772,552.8451" fill="none" id="Repositories-to-StationRepository" style="stroke:#181818;stroke-width:1;"/><polygon fill="#181818" points="108.42,557.6769,116.977,552.8007,111.3844,553.6504,110.5346,548.0577,108.42,557.6769" style="stroke:#181818;stroke-width:1;"/></g><!--link analysisController to StationRepository--><g class="link" data-entity-1="analysisController" data-entity-2="StationRepository" data-source-line="38" data-uid="lnk11" id="link_analysisController_StationRepository"><path codeLine="38" d="M260.16,216.9769 C201.17,249.1469 103.1,313.1969 62.42,400.8869 C38.76,451.9069 54.8399,513.0577 69.5399,551.7677" fill="none" id="analysisController-to-StationRepository" style="stroke:#181818;stroke-width:1;stroke-dasharray:7.0,7.0;"/><polygon fill="#181818" points="71.67,557.3769,72.2144,547.5431,69.8949,552.7026,64.7355,550.3832,71.67,557.3769" style="stroke:#181818;stroke-width:1;"/></g><!--link Repositories to PassengerRepository--><g class="link" data-entity-1="Repositories" data-entity-2="PassengerRepository" data-source-line="39" data-uid="lnk12" id="link_Repositories_PassengerRepository"><path codeLine="39" d="M232.16,498.0269 C250.67,517.7669 267.5051,535.7108 284.0051,553.3008" fill="none" id="Repositories-to-PassengerRepository" style="stroke:#181818;stroke-width:1;"/><polygon fill="#181818" points="288.11,557.6769,284.87,548.3762,284.6893,554.0302,279.0353,553.8494,288.11,557.6769" style="stroke:#181818;stroke-width:1;"/></g><!--link analysisController to PassengerRepository--><g class="link" data-entity-1="analysisController" data-entity-2="PassengerRepository" data-source-line="40" data-uid="lnk13" id="link_analysisController_PassengerRepository"><path codeLine="40" d="M308.01,216.8469 C309.72,284.3769 314.5279,474.5588 316.4779,551.4688" fill="none" id="analysisController-to-PassengerRepository" style="stroke:#181818;stroke-width:1;stroke-dasharray:7.0,7.0;"/><polygon fill="#181818" points="316.63,557.4669,320.4006,548.3684,316.5033,552.4685,312.4032,548.5712,316.63,557.4669" style="stroke:#181818;stroke-width:1;"/></g><!--link analysisController to BoxPlotCreator--><g class="link" data-entity-1="analysisController" data-entity-2="BoxPlotCreator" data-source-line="41" data-uid="lnk14" id="link_analysisController_BoxPlotCreator"><path codeLine="41" d="M353.29,216.9669 C386.83,234.0569 427.3445,254.7018 464.1245,273.4518" fill="none" id="analysisController-to-BoxPlotCreator" style="stroke:#181818;stroke-width:1;"/><polygon fill="#181818" points="469.47,276.1769,463.2685,268.5256,465.0154,273.906,459.6351,275.6529,469.47,276.1769" style="stroke:#181818;stroke-width:1;"/></g><!--SRC=[ZP0x3i8m38Ptdw8R8A22XP61ih2XLXp0gYmKAKggs0CLuZoSW1DmCLBwVY2nDSxtVwb_KQ8fk2IRxGu0KetC0HhKEIk-dEwmF2hEDEO7UpjhA_C5F8POP8qugpMvExItCMMMbLYdYBtcId8oB0PJyexYcA0eQneihyPd7oPp9SUzgyQRo21NoginTz56DOJRDqgy3bHBHexGmvvDYo-gTo__U5MayPikmxEODBwVxnSnGDjT48RxYOvWFFAaHxk5GVSGhDVxyThJdYbmv9hevPVjNxRGzjlx0000]--></g></svg>