<svg xmlns="http://www.w3.org/2000/svg" xmlns:xlink="http://www.w3.org/1999/xlink" contentStyleType="text/css" data-diagram-type="SEQUENCE" height="675px" preserveAspectRatio="none" style="width:452px;height:675px;background:#FFFFFF;" version="1.1" viewBox="0 0 452 675" width="452px" zoomAndPan="magnify"><title>US05 - As a Player, I want to build a station</title><defs/><g><text fill="#000000" font-family="sans-serif" font-size="14" font-weight="bold" lengthAdjust="spacing" textLength="344.6133" x="55.1753" y="27.9951">US05 - As a Player, I want to build a station</text><rect fill="none" height="75.3984" style="stroke:#000000;stroke-width:1.5;" width="435.9639" x="10" y="281.2578"/><rect fill="none" height="90.2031" style="stroke:#000000;stroke-width:1.5;" width="435.9639" x="10" y="458.0547"/><g><title>Player</title><rect fill="#000000" fill-opacity="0.00000" height="475.7969" width="8" x="40.7827" y="118.5938"/><line style="stroke:#181818;stroke-width:0.5;stroke-dasharray:5.0,5.0;" x1="44" x2="44" y1="118.5938" y2="594.3906"/></g><g><title>System</title><rect fill="#000000" fill-opacity="0.00000" height="475.7969" width="8" x="398.8608" y="118.5938"/><line style="stroke:#181818;stroke-width:0.5;stroke-dasharray:5.0,5.0;" x1="402.7578" x2="402.7578" y1="118.5938" y2="594.3906"/></g><g class="participant participant-head" data-participant="Player"><text fill="#000000" font-family="sans-serif" font-size="14" lengthAdjust="spacing" textLength="43.5654" x="20" y="115.292">Player</text><ellipse cx="44.7827" cy="50.7969" fill="#E2E2F0" rx="8" ry="8" style="stroke:#181818;stroke-width:0.5;"/><path d="M44.7827,58.7969 L44.7827,85.7969 M31.7827,66.7969 L57.7827,66.7969 M44.7827,85.7969 L31.7827,100.7969 M44.7827,85.7969 L57.7827,100.7969" fill="none" style="stroke:#181818;stroke-width:0.5;"/></g><g class="participant participant-tail" data-participant="Player"><text fill="#000000" font-family="sans-serif" font-size="14" lengthAdjust="spacing" textLength="43.5654" x="20" y="606.3857">Player</text><ellipse cx="44.7827" cy="618.1875" fill="#E2E2F0" rx="8" ry="8" style="stroke:#181818;stroke-width:0.5;"/><path d="M44.7827,626.1875 L44.7827,653.1875 M31.7827,634.1875 L57.7827,634.1875 M44.7827,653.1875 L31.7827,668.1875 M44.7827,653.1875 L57.7827,668.1875" fill="none" style="stroke:#181818;stroke-width:0.5;"/></g><g class="participant participant-head" data-participant="System"><rect fill="#E2E2F0" height="30.2969" rx="2.5" ry="2.5" style="stroke:#181818;stroke-width:0.5;" width="66.2061" x="369.7578" y="87.2969"/><text fill="#000000" font-family="sans-serif" font-size="14" lengthAdjust="spacing" textLength="52.2061" x="376.7578" y="107.292">System</text></g><g class="participant participant-tail" data-participant="System"><rect fill="#E2E2F0" height="30.2969" rx="2.5" ry="2.5" style="stroke:#181818;stroke-width:0.5;" width="66.2061" x="369.7578" y="593.3906"/><text fill="#000000" font-family="sans-serif" font-size="14" lengthAdjust="spacing" textLength="52.2061" x="376.7578" y="613.3857">System</text></g><g class="message" data-participant-1="Player" data-participant-2="System"><polygon fill="#181818" points="390.8608,145.7266,400.8608,149.7266,390.8608,153.7266,394.8608,149.7266" style="stroke:#181818;stroke-width:1;"/><line style="stroke:#181818;stroke-width:1;" x1="44.7827" x2="396.8608" y1="149.7266" y2="149.7266"/><text fill="#000000" font-family="sans-serif" font-size="13" font-weight="bold" lengthAdjust="spacing" textLength="9.0454" x="51.7827" y="144.6606">1</text><text fill="#000000" font-family="sans-serif" font-size="13" lengthAdjust="spacing" textLength="161.1289" x="64.8281" y="144.6606">Selects to build a station</text></g><g class="message" data-participant-1="System" data-participant-2="Player"><polygon fill="#181818" points="55.7827,174.8594,45.7827,178.8594,55.7827,182.8594,51.7827,178.8594" style="stroke:#181818;stroke-width:1;"/><line style="stroke:#181818;stroke-width:1;stroke-dasharray:2.0,2.0;" x1="49.7827" x2="401.8608" y1="178.8594" y2="178.8594"/><text fill="#000000" font-family="sans-serif" font-size="13" font-weight="bold" lengthAdjust="spacing" textLength="9.0454" x="61.7827" y="173.7935">2</text><text fill="#000000" font-family="sans-serif" font-size="13" lengthAdjust="spacing" textLength="206.3179" x="74.8281" y="173.7935">Displays available station types</text></g><g class="message" data-participant-1="Player" data-participant-2="System"><polygon fill="#181818" points="390.8608,203.9922,400.8608,207.9922,390.8608,211.9922,394.8608,207.9922" style="stroke:#181818;stroke-width:1;"/><line style="stroke:#181818;stroke-width:1;" x1="44.7827" x2="396.8608" y1="207.9922" y2="207.9922"/><text fill="#000000" font-family="sans-serif" font-size="13" font-weight="bold" lengthAdjust="spacing" textLength="9.0454" x="51.7827" y="202.9263">3</text><text fill="#000000" font-family="sans-serif" font-size="13" lengthAdjust="spacing" textLength="148.9097" x="64.8281" y="202.9263">Chooses a station type</text></g><g class="message" data-participant-1="System" data-participant-2="Player"><polygon fill="#181818" points="55.7827,233.125,45.7827,237.125,55.7827,241.125,51.7827,237.125" style="stroke:#181818;stroke-width:1;"/><line style="stroke:#181818;stroke-width:1;stroke-dasharray:2.0,2.0;" x1="49.7827" x2="401.8608" y1="237.125" y2="237.125"/><text fill="#000000" font-family="sans-serif" font-size="13" font-weight="bold" lengthAdjust="spacing" textLength="9.0454" x="61.7827" y="232.0591">4</text><text fill="#000000" font-family="sans-serif" font-size="13" lengthAdjust="spacing" textLength="274.1616" x="74.8281" y="232.0591">Requests location of the geometric center</text></g><g class="message" data-participant-1="Player" data-participant-2="System"><polygon fill="#181818" points="390.8608,262.2578,400.8608,266.2578,390.8608,270.2578,394.8608,266.2578" style="stroke:#181818;stroke-width:1;"/><line style="stroke:#181818;stroke-width:1;" x1="44.7827" x2="396.8608" y1="266.2578" y2="266.2578"/><text fill="#000000" font-family="sans-serif" font-size="13" font-weight="bold" lengthAdjust="spacing" textLength="9.0454" x="51.7827" y="261.1919">5</text><text fill="#000000" font-family="sans-serif" font-size="13" lengthAdjust="spacing" textLength="96.1479" x="64.8281" y="261.1919">Inputs location</text></g><path d="M10,281.2578 L74.4429,281.2578 L74.4429,288.3906 L64.4429,298.3906 L10,298.3906 L10,281.2578" fill="#EEEEEE" style="stroke:#000000;stroke-width:1.5;"/><rect fill="none" height="75.3984" style="stroke:#000000;stroke-width:1.5;" width="435.9639" x="10" y="281.2578"/><text fill="#000000" font-family="sans-serif" font-size="13" font-weight="bold" lengthAdjust="spacing" textLength="19.4429" x="25" y="294.3247">alt</text><text fill="#000000" font-family="sans-serif" font-size="11" font-weight="bold" lengthAdjust="spacing" textLength="55.0752" x="89.4429" y="293.4683">[Station]</text><g class="message" data-participant-1="System" data-participant-2="Player"><polygon fill="#181818" points="55.7827,315.5234,45.7827,319.5234,55.7827,323.5234,51.7827,319.5234" style="stroke:#181818;stroke-width:1;"/><line style="stroke:#181818;stroke-width:1;stroke-dasharray:2.0,2.0;" x1="49.7827" x2="401.8608" y1="319.5234" y2="319.5234"/><text fill="#000000" font-family="sans-serif" font-size="13" font-weight="bold" lengthAdjust="spacing" textLength="9.0454" x="61.7827" y="314.4575">6</text><text fill="#000000" font-family="sans-serif" font-size="13" lengthAdjust="spacing" textLength="321.0327" x="74.8281" y="314.4575">Requests position of the center (NE, SE, NW, SW)</text></g><g class="message" data-participant-1="Player" data-participant-2="System"><polygon fill="#181818" points="390.8608,344.6563,400.8608,348.6563,390.8608,352.6563,394.8608,348.6563" style="stroke:#181818;stroke-width:1;"/><line style="stroke:#181818;stroke-width:1;" x1="44.7827" x2="396.8608" y1="348.6563" y2="348.6563"/><text fill="#000000" font-family="sans-serif" font-size="13" font-weight="bold" lengthAdjust="spacing" textLength="9.0454" x="51.7827" y="343.5903">7</text><text fill="#000000" font-family="sans-serif" font-size="13" lengthAdjust="spacing" textLength="102.502" x="64.8281" y="343.5903">Selects position</text></g><g class="message" data-participant-1="System" data-participant-2="Player"><polygon fill="#181818" points="55.7827,380.7891,45.7827,384.7891,55.7827,388.7891,51.7827,384.7891" style="stroke:#181818;stroke-width:1;"/><line style="stroke:#181818;stroke-width:1;stroke-dasharray:2.0,2.0;" x1="49.7827" x2="401.8608" y1="384.7891" y2="384.7891"/><text fill="#000000" font-family="sans-serif" font-size="13" font-weight="bold" lengthAdjust="spacing" textLength="9.0454" x="61.7827" y="379.7231">8</text><text fill="#000000" font-family="sans-serif" font-size="13" lengthAdjust="spacing" textLength="146.7007" x="74.8281" y="379.7231">Requests confirmation</text></g><g class="message" data-participant-1="Player" data-participant-2="System"><polygon fill="#181818" points="390.8608,409.9219,400.8608,413.9219,390.8608,417.9219,394.8608,413.9219" style="stroke:#181818;stroke-width:1;"/><line style="stroke:#181818;stroke-width:1;" x1="44.7827" x2="396.8608" y1="413.9219" y2="413.9219"/><text fill="#000000" font-family="sans-serif" font-size="13" font-weight="bold" lengthAdjust="spacing" textLength="9.0454" x="51.7827" y="408.856">9</text><text fill="#000000" font-family="sans-serif" font-size="13" lengthAdjust="spacing" textLength="143.2158" x="64.8281" y="408.856">Confirms construction</text></g><g class="message" data-participant-1="System" data-participant-2="Player"><polygon fill="#181818" points="55.7827,439.0547,45.7827,443.0547,55.7827,447.0547,51.7827,443.0547" style="stroke:#181818;stroke-width:1;"/><line style="stroke:#181818;stroke-width:1;stroke-dasharray:2.0,2.0;" x1="49.7827" x2="401.8608" y1="443.0547" y2="443.0547"/><text fill="#000000" font-family="sans-serif" font-size="13" font-weight="bold" lengthAdjust="spacing" textLength="18.0908" x="61.7827" y="437.9888">10</text><text fill="#000000" font-family="sans-serif" font-size="13" lengthAdjust="spacing" textLength="293.687" x="83.8735" y="437.9888">Proposes station name based on nearest city</text></g><path d="M10,458.0547 L74.4429,458.0547 L74.4429,465.1875 L64.4429,475.1875 L10,475.1875 L10,458.0547" fill="#EEEEEE" style="stroke:#000000;stroke-width:1.5;"/><rect fill="none" height="90.2031" style="stroke:#000000;stroke-width:1.5;" width="435.9639" x="10" y="458.0547"/><text fill="#000000" font-family="sans-serif" font-size="13" font-weight="bold" lengthAdjust="spacing" textLength="19.4429" x="25" y="471.1216">alt</text><text fill="#000000" font-family="sans-serif" font-size="11" font-weight="bold" lengthAdjust="spacing" textLength="207.3618" x="89.4429" y="470.2651">[Player accepts suggested name]</text><g class="message" data-participant-1="Player" data-participant-2="System"><polygon fill="#181818" points="390.8608,492.3203,400.8608,496.3203,390.8608,500.3203,394.8608,496.3203" style="stroke:#181818;stroke-width:1;"/><line style="stroke:#181818;stroke-width:1;" x1="44.7827" x2="396.8608" y1="496.3203" y2="496.3203"/><text fill="#000000" font-family="sans-serif" font-size="13" font-weight="bold" lengthAdjust="spacing" textLength="18.0908" x="51.7827" y="491.2544">11</text><text fill="#000000" font-family="sans-serif" font-size="13" lengthAdjust="spacing" textLength="171.0059" x="73.8735" y="491.2544">Confirms suggested name</text></g><line style="stroke:#000000;stroke-width:1;stroke-dasharray:2.0,2.0;" x1="10" x2="445.9639" y1="505.3203" y2="505.3203"/><text fill="#000000" font-family="sans-serif" font-size="11" font-weight="bold" lengthAdjust="spacing" textLength="180.1895" x="15" y="515.5308">[Player enters custom name]</text><g class="message" data-participant-1="Player" data-participant-2="System"><polygon fill="#181818" points="390.8608,536.2578,400.8608,540.2578,390.8608,544.2578,394.8608,540.2578" style="stroke:#181818;stroke-width:1;"/><line style="stroke:#181818;stroke-width:1;" x1="44.7827" x2="396.8608" y1="540.2578" y2="540.2578"/><text fill="#000000" font-family="sans-serif" font-size="13" font-weight="bold" lengthAdjust="spacing" textLength="18.0908" x="51.7827" y="535.1919">12</text><text fill="#000000" font-family="sans-serif" font-size="13" lengthAdjust="spacing" textLength="133.4404" x="73.8735" y="535.1919">Inputs custom name</text></g><g class="message" data-participant-1="System" data-participant-2="Player"><polygon fill="#181818" points="55.7827,572.3906,45.7827,576.3906,55.7827,580.3906,51.7827,576.3906" style="stroke:#181818;stroke-width:1;"/><line style="stroke:#181818;stroke-width:1;stroke-dasharray:2.0,2.0;" x1="49.7827" x2="401.8608" y1="576.3906" y2="576.3906"/><text fill="#000000" font-family="sans-serif" font-size="13" font-weight="bold" lengthAdjust="spacing" textLength="18.0908" x="61.7827" y="571.3247">13</text><text fill="#000000" font-family="sans-serif" font-size="13" lengthAdjust="spacing" textLength="172.231" x="83.8735" y="571.3247">Displays success message</text></g><!--SRC=[VP8nJyCm48Lt_ufJ9v1QYOMb0n82XYvLHOGwNvnhQf7OmNUcoh_d6gUbWhIHaZZnvtlldisVpdSOiOLYZrKuE5_33XicWqc2Jsr9qOYJXk2ZU7Y41Jmp86mQx2dEOGK7z08Ie4okgNI61SK5RmnQ2N44ZKg8iwuxmhEYPw5s1iYGXyPa31PFuvyb5DIG5PugdH5OA9tNBU7LSQT3jVQDhi5IxOuqIDyHJmYyx4DWuj-w0pbL_9s-4h5wQOBDPDY1x0bg2Yr9T1OiUT4s_wkiV9SkLceiZK0nDW9wtTBh0hjBlQm2T-ktEHHwhxVwtjuFTQudUAfYo5VcPdys-9sBRJOtaLYU7ZYMcEortTZ4q0tPdfBrs1AKo5J1yOimgXvO9tqEPDH2QwbJ7vpgMW6bZmklj7TsyuScFRmdVCXB_IQMqDugDcxJ9NWjhVDHuwHscQ7L1zRq0m00]--></g></svg>